ISO-10303-21;
HEADER;
FILE_DESCRIPTION (( 'STEP AP214' ),
    '1' );
FILE_NAME ('Balancing bracket.STEP',
    '2026-02-20T19:34:30',
    ( '' ),
    ( '' ),
    'SwSTEP 2.0',
    'SolidWorks 2025',
    '' );
FILE_SCHEMA (( 'AUTOMOTIVE_DESIGN' ));
ENDSEC;

DATA;
#1 = VERTEX_POINT ( 'NONE', #36 ) ;
#2 = DIRECTION ( 'NONE',  ( -1.000000000000000000, 0.000000000000000000, 0.000000000000000000 ) ) ;
#3 = DIRECTION ( 'NONE',  ( -0.000000000000000000, -0.000000000000000000, -1.000000000000000000 ) ) ;
#4 = DIRECTION ( 'NONE',  ( -0.000000000000000000, -1.000000000000000000, -0.000000000000000000 ) ) ;
#5 = VECTOR ( 'NONE', #92, 39.37007874015748143 ) ;
#6 = CIRCLE ( 'NONE', #32, 0.08474999999999996425 ) ;
#7 = EDGE_CURVE ( 'NONE', #66, #123, #383, .T. ) ;
#8 = ORIENTED_EDGE ( 'NONE', *, *, #263, .F. ) ;
#9 = EDGE_LOOP ( 'NONE', ( #52, #198 ) ) ;
#10 = PRODUCT_DEFINITION_FORMATION_WITH_SPECIFIED_SOURCE ( 'Symmetric', '', #24, .NOT_KNOWN. ) ;
#11 = VERTEX_POINT ( 'NONE', #337 ) ;
#12 = EDGE_CURVE ( 'NONE', #332, #373, #424, .T. ) ;
#13 = ORIENTED_EDGE ( 'NONE', *, *, #381, .F. ) ;
#14 = LINE ( 'NONE', #127, #435 ) ;
#15 = DIRECTION ( 'NONE',  ( 0.000000000000000000, 0.000000000000000000, 1.000000000000000000 ) ) ;
#16 = DIRECTION ( 'NONE',  ( 1.000000000000000000, 0.000000000000000000, 0.000000000000000000 ) ) ;
#17 = ORIENTED_EDGE ( 'NONE', *, *, #159, .F. ) ;
#18 = VECTOR ( 'NONE', #16, 39.37007874015748143 ) ;
#19 = CARTESIAN_POINT ( 'NONE',  ( 0.4000000000000000222, 0.3100000000000000533, 0.1250000000000000000 ) ) ;
#20 = EDGE_CURVE ( 'NONE', #123, #270, #158, .T. ) ;
#21 = LINE ( 'NONE', #246, #402 ) ;
#22 = EDGE_LOOP ( 'NONE', ( #195, #455, #258, #318 ) ) ;
#23 = FACE_OUTER_BOUND ( 'NONE', #343, .T. ) ;
#24 = PRODUCT ( 'Balancing bracket', 'Balancing bracket', '', ( #178 ) ) ;
#25 = PLANE ( 'NONE',  #94 ) ;
#26 = CIRCLE ( 'NONE', #276, 0.08474999999999996425 ) ;
#27 = ORIENTED_EDGE ( 'NONE', *, *, #234, .F. ) ;
#28 = FACE_OUTER_BOUND ( 'NONE', #296, .T. ) ;
#29 = VERTEX_POINT ( 'NONE', #121 ) ;
#30 = DIRECTION ( 'NONE',  ( 0.000000000000000000, -0.000000000000000000, 1.000000000000000000 ) ) ;
#31 = PRESENTATION_LAYER_ASSIGNMENT (  '', '', ( #259 ) ) ;
#32 = AXIS2_PLACEMENT_3D ( 'NONE', #334, #150, #450 ) ;
#33 = ADVANCED_FACE ( 'NONE', ( #128 ), #284, .F. ) ;
#34 = DIRECTION ( 'NONE',  ( 0.000000000000000000, 1.000000000000000000, 0.000000000000000000 ) ) ;
#35 = FACE_OUTER_BOUND ( 'NONE', #22, .T. ) ;
#36 = CARTESIAN_POINT ( 'NONE',  ( 1.750000000000000000, 0.000000000000000000, 0.000000000000000000 ) ) ;
#37 = EDGE_CURVE ( 'NONE', #47, #316, #160, .T. ) ;
#38 = CARTESIAN_POINT ( 'NONE',  ( 0.2000000000000000111, 0.1750000000000000444, 0.1250000000000000000 ) ) ;
#39 = CIRCLE ( 'NONE', #184, 0.4000000000000000777 ) ;
#40 = ORIENTED_EDGE ( 'NONE', *, *, #204, .F. ) ;
#41 = AXIS2_PLACEMENT_3D ( 'NONE', #183, #380, #336 ) ;
#42 = DIRECTION ( 'NONE',  ( 0.000000000000000000, 0.000000000000000000, 1.000000000000000000 ) ) ;
#43 = DIRECTION ( 'NONE',  ( 0.000000000000000000, 0.000000000000000000, -1.000000000000000000 ) ) ;
#44 = ADVANCED_FACE ( 'NONE', ( #464 ), #433, .F. ) ;
#45 = CARTESIAN_POINT ( 'NONE',  ( 0.1152500000000000607, 0.1750000000000000444, 0.1250000000000000000 ) ) ;
#46 = AXIS2_PLACEMENT_3D ( 'NONE', #265, #189, #43 ) ;
#47 = VERTEX_POINT ( 'NONE', #248 ) ;
#48 = CARTESIAN_POINT ( 'NONE',  ( 0.1152500000000000607, 0.6250000000000000000, 0.1250000000000000000 ) ) ;
#49 = CARTESIAN_POINT ( 'NONE',  ( 0.000000000000000000, 0.8000000000000000444, 0.000000000000000000 ) ) ;
#50 = LINE ( 'NONE', #48, #441 ) ;
#51 = DIRECTION ( 'NONE',  ( -1.000000000000000000, 0.000000000000000000, 0.000000000000000000 ) ) ;
#52 = ORIENTED_EDGE ( 'NONE', *, *, #439, .F. ) ;
#53 = EDGE_CURVE ( 'NONE', #404, #373, #333, .T. ) ;
#54 = DIRECTION ( 'NONE',  ( 1.000000000000000000, 0.000000000000000000, 0.000000000000000000 ) ) ;
#55 = DIRECTION ( 'NONE',  ( 1.000000000000000000, -0.000000000000000000, -0.000000000000000000 ) ) ;
#56 = PLANE ( 'NONE',  #210 ) ;
#57 = ADVANCED_FACE ( 'NONE', ( #462 ), #320, .F. ) ;
#58 = ORIENTED_EDGE ( 'NONE', *, *, #452, .F. ) ;
#59 = DIRECTION ( 'NONE',  ( -0.000000000000000000, -0.000000000000000000, -1.000000000000000000 ) ) ;
#60 =( GEOMETRIC_REPRESENTATION_CONTEXT ( 3 ) GLOBAL_UNCERTAINTY_ASSIGNED_CONTEXT ( ( #297 ) ) GLOBAL_UNIT_ASSIGNED_CONTEXT ( ( #145, #103, #250 ) ) REPRESENTATION_CONTEXT ( 'NONE', 'WORKASPACE' ) );
#61 = CARTESIAN_POINT ( 'NONE',  ( 1.750000000000000000, 0.4000000000000000222, 0.000000000000000000 ) ) ;
#62 = CARTESIAN_POINT ( 'NONE',  ( 1.750000000000000000, 0.4000000000000000222, 0.1250000000000000000 ) ) ;
#63 = ORIENTED_EDGE ( 'NONE', *, *, #434, .F. ) ;
#64 = DIRECTION ( 'NONE',  ( 0.000000000000000000, 0.000000000000000000, 1.000000000000000000 ) ) ;
#65 = CARTESIAN_POINT ( 'NONE',  ( 0.4000000000000000222, 0.4900000000000000466, 0.000000000000000000 ) ) ;
#66 = VERTEX_POINT ( 'NONE', #240 ) ;
#67 = FILL_AREA_STYLE_COLOUR ( '', #456 ) ;
#68 = VERTEX_POINT ( 'NONE', #397 ) ;
#69 = ADVANCED_FACE ( 'NONE', ( #389 ), #56, .F. ) ;
#70 = ORIENTED_EDGE ( 'NONE', *, *, #299, .F. ) ;
#71 = EDGE_LOOP ( 'NONE', ( #344, #112, #335, #340 ) ) ;
#72 = CARTESIAN_POINT ( 'NONE',  ( 0.2000000000000000111, 0.1750000000000000444, 0.000000000000000000 ) ) ;
#73 = AXIS2_PLACEMENT_3D ( 'NONE', #61, #140, #293 ) ;
#74 = DIMENSIONAL_EXPONENTS ( 1.000000000000000000, 0.000000000000000000, 0.000000000000000000, 0.000000000000000000, 0.000000000000000000, 0.000000000000000000, 0.000000000000000000 ) ;
#75 = VERTEX_POINT ( 'NONE', #49 ) ;
#76 = UNCERTAINTY_MEASURE_WITH_UNIT (LENGTH_MEASURE( 1.000000000000000082E-05 ), #213, 'distance_accuracy_value', 'NONE');
#77 = DIRECTION ( 'NONE',  ( -0.000000000000000000, -0.000000000000000000, -1.000000000000000000 ) ) ;
#78 = DIRECTION ( 'NONE',  ( -1.000000000000000000, 0.000000000000000000, 0.000000000000000000 ) ) ;
#79 = ORIENTED_EDGE ( 'NONE', *, *, #423, .F. ) ;
#80 = ORIENTED_EDGE ( 'NONE', *, *, #116, .T. ) ;
#81 = CARTESIAN_POINT ( 'NONE',  ( 0.000000000000000000, 0.8000000000000000444, 0.1250000000000000000 ) ) ;
#82 = CARTESIAN_POINT ( 'NONE',  ( 1.960000000000000187, 0.4900000000000000466, 0.1250000000000000000 ) ) ;
#83 = DIRECTION ( 'NONE',  ( -0.000000000000000000, -0.000000000000000000, -1.000000000000000000 ) ) ;
#84 = VECTOR ( 'NONE', #386, 39.37007874015748143 ) ;
#85 = DIRECTION ( 'NONE',  ( -0.000000000000000000, -0.000000000000000000, -1.000000000000000000 ) ) ;
#86 = DIRECTION ( 'NONE',  ( -0.000000000000000000, -0.000000000000000000, -1.000000000000000000 ) ) ;
#87 = ORIENTED_EDGE ( 'NONE', *, *, #381, .T. ) ;
#88 = EDGE_CURVE ( 'NONE', #270, #1, #21, .T. ) ;
#89 = DIRECTION ( 'NONE',  ( -0.000000000000000000, -0.000000000000000000, -1.000000000000000000 ) ) ;
#90 = DIRECTION ( 'NONE',  ( -1.000000000000000000, 0.000000000000000000, 0.000000000000000000 ) ) ;
#91 = DIRECTION ( 'NONE',  ( 1.000000000000000000, 0.000000000000000000, 0.000000000000000000 ) ) ;
#92 = DIRECTION ( 'NONE',  ( -0.000000000000000000, -1.000000000000000000, -0.000000000000000000 ) ) ;
#93 = DIRECTION ( 'NONE',  ( -1.000000000000000000, 0.000000000000000000, 0.000000000000000000 ) ) ;
#94 = AXIS2_PLACEMENT_3D ( 'NONE', #169, #444, #442 ) ;
#95 = EDGE_CURVE ( 'NONE', #123, #408, #205, .T. ) ;
#96 = CARTESIAN_POINT ( 'NONE',  ( 0.2000000000000000111, 0.6250000000000000000, 0.1250000000000000000 ) ) ;
#97 = ORIENTED_EDGE ( 'NONE', *, *, #405, .F. ) ;
#98 = FACE_BOUND ( 'NONE', #279, .T. ) ;
#99 = ORIENTED_EDGE ( 'NONE', *, *, #353, .F. ) ;
#100 = AXIS2_PLACEMENT_3D ( 'NONE', #222, #438, #214 ) ;
#101 = ADVANCED_FACE ( 'NONE', ( #465, #467, #206, #355 ), #25, .F. ) ;
#102 = FACE_OUTER_BOUND ( 'NONE', #167, .T. ) ;
#103 =( NAMED_UNIT ( * ) PLANE_ANGLE_UNIT ( ) SI_UNIT ( $, .RADIAN. ) );
#104 =( LENGTH_UNIT ( ) NAMED_UNIT ( * ) SI_UNIT ( $, .METRE. ) );
#105 = DIRECTION ( 'NONE',  ( 0.000000000000000000, 0.000000000000000000, 1.000000000000000000 ) ) ;
#106 = CARTESIAN_POINT ( 'NONE',  ( 0.4000000000000000222, 0.4900000000000000466, 0.000000000000000000 ) ) ;
#107 = AXIS2_PLACEMENT_3D ( 'NONE', #260, #305, #272 ) ;
#108 = VECTOR ( 'NONE', #329, 39.37007874015748143 ) ;
#109 = EDGE_CURVE ( 'NONE', #119, #350, #368, .T. ) ;
#110 = ORIENTED_EDGE ( 'NONE', *, *, #471, .T. ) ;
#111 = LINE ( 'NONE', #416, #148 ) ;
#112 = ORIENTED_EDGE ( 'NONE', *, *, #419, .F. ) ;
#113 = ORIENTED_EDGE ( 'NONE', *, *, #331, .T. ) ;
#114 = CARTESIAN_POINT ( 'NONE',  ( 0.1152500000000000607, 0.1750000000000000444, 0.000000000000000000 ) ) ;
#115 = MECHANICAL_DESIGN_GEOMETRIC_PRESENTATION_REPRESENTATION (  '', ( #259 ), #60 ) ;
#116 = EDGE_CURVE ( 'NONE', #247, #370, #177, .T. ) ;
#117 = CARTESIAN_POINT ( 'NONE',  ( 1.750000000000000000, 0.000000000000000000, 0.1250000000000000000 ) ) ;
#118 = PLANE ( 'NONE',  #107 ) ;
#119 = VERTEX_POINT ( 'NONE', #215 ) ;
#120 = LINE ( 'NONE', #19, #18 ) ;
#121 = CARTESIAN_POINT ( 'NONE',  ( 1.960000000000000187, 0.3100000000000000533, 0.1250000000000000000 ) ) ;
#122 = AXIS2_PLACEMENT_3D ( 'NONE', #173, #472, #290 ) ;
#123 = VERTEX_POINT ( 'NONE', #218 ) ;
#124 = MANIFOLD_SOLID_BREP ( 'Boss-Extrude1', #477 ) ;
#125 = DIRECTION ( 'NONE',  ( -0.000000000000000000, -0.000000000000000000, -1.000000000000000000 ) ) ;
#126 = EDGE_LOOP ( 'NONE', ( #224, #473, #79, #326 ) ) ;
#127 = CARTESIAN_POINT ( 'NONE',  ( 0.4000000000000000222, 0.3100000000000000533, 0.1250000000000000000 ) ) ;
#128 = FACE_OUTER_BOUND ( 'NONE', #398, .T. ) ;
#129 = VECTOR ( 'NONE', #274, 39.37007874015748143 ) ;
#130 = VECTOR ( 'NONE', #89, 39.37007874015748143 ) ;
#131 = CARTESIAN_POINT ( 'NONE',  ( 0.000000000000000000, 0.8000000000000000444, 0.000000000000000000 ) ) ;
#132 = DIRECTION ( 'NONE',  ( 1.000000000000000000, -0.000000000000000000, -0.000000000000000000 ) ) ;
#133 =( NAMED_UNIT ( * ) PLANE_ANGLE_UNIT ( ) SI_UNIT ( $, .RADIAN. ) );
#134 = FACE_OUTER_BOUND ( 'NONE', #281, .T. ) ;
#135 = ORIENTED_EDGE ( 'NONE', *, *, #387, .F. ) ;
#136 = DIRECTION ( 'NONE',  ( 1.000000000000000000, 0.000000000000000000, 0.000000000000000000 ) ) ;
#137 = EDGE_CURVE ( 'NONE', #11, #404, #479, .T. ) ;
#138 = SHAPE_DEFINITION_REPRESENTATION ( #172, #454 ) ;
#139 = VECTOR ( 'NONE', #346, 39.37007874015748143 ) ;
#140 = DIRECTION ( 'NONE',  ( -0.000000000000000000, 0.000000000000000000, -1.000000000000000000 ) ) ;
#141 = SURFACE_STYLE_FILL_AREA ( #358 ) ;
#142 = ORIENTED_EDGE ( 'NONE', *, *, #299, .T. ) ;
#143 = ADVANCED_FACE ( 'NONE', ( #208 ), #252, .F. ) ;
#144 = CARTESIAN_POINT ( 'NONE',  ( 0.4000000000000000222, 0.4900000000000000466, 0.1250000000000000000 ) ) ;
#145 =( CONVERSION_BASED_UNIT ( 'INCH', #443 ) LENGTH_UNIT ( ) NAMED_UNIT ( #74 ) );
#146 = DIRECTION ( 'NONE',  ( 0.000000000000000000, -1.000000000000000000, 0.000000000000000000 ) ) ;
#147 = VECTOR ( 'NONE', #330, 39.37007874015748143 ) ;
#148 = VECTOR ( 'NONE', #232, 39.37007874015748143 ) ;
#149 = ORIENTED_EDGE ( 'NONE', *, *, #225, .F. ) ;
#150 = DIRECTION ( 'NONE',  ( 0.000000000000000000, 0.000000000000000000, 1.000000000000000000 ) ) ;
#151 = CARTESIAN_POINT ( 'NONE',  ( 1.750000000000000000, 0.000000000000000000, 0.1250000000000000000 ) ) ;
#152 = DIRECTION ( 'NONE',  ( 0.000000000000000000, 0.000000000000000000, 1.000000000000000000 ) ) ;
#153 = DIRECTION ( 'NONE',  ( 0.000000000000000000, -0.000000000000000000, -1.000000000000000000 ) ) ;
#154 = FACE_OUTER_BOUND ( 'NONE', #174, .T. ) ;
#155 = AXIS2_PLACEMENT_3D ( 'NONE', #72, #42, #2 ) ;
#156 = ORIENTED_EDGE ( 'NONE', *, *, #53, .F. ) ;
#157 = ORIENTED_EDGE ( 'NONE', *, *, #263, .T. ) ;
#158 = LINE ( 'NONE', #458, #267 ) ;
#159 = EDGE_CURVE ( 'NONE', #75, #270, #403, .T. ) ;
#160 = LINE ( 'NONE', #427, #84 ) ;
#161 = DIRECTION ( 'NONE',  ( -0.000000000000000000, -1.000000000000000000, -0.000000000000000000 ) ) ;
#162 = DIRECTION ( 'NONE',  ( 0.000000000000000000, 0.000000000000000000, 1.000000000000000000 ) ) ;
#163 = ORIENTED_EDGE ( 'NONE', *, *, #53, .T. ) ;
#164 = CARTESIAN_POINT ( 'NONE',  ( 0.000000000000000000, 0.000000000000000000, 0.000000000000000000 ) ) ;
#165 = ORIENTED_EDGE ( 'NONE', *, *, #234, .T. ) ;
#166 = CARTESIAN_POINT ( 'NONE',  ( 1.750000000000000000, 0.000000000000000000, 0.1250000000000000000 ) ) ;
#167 = EDGE_LOOP ( 'NONE', ( #390, #384, #253, #468 ) ) ;
#168 = EDGE_CURVE ( 'NONE', #408, #378, #39, .T. ) ;
#169 = CARTESIAN_POINT ( 'NONE',  ( 1.750000000000000000, 0.4000000000000000222, 0.1250000000000000000 ) ) ;
#170 = VECTOR ( 'NONE', #161, 39.37007874015748143 ) ;
#171 = CARTESIAN_POINT ( 'NONE',  ( 0.000000000000000000, 0.000000000000000000, 0.000000000000000000 ) ) ;
#172 = PRODUCT_DEFINITION_SHAPE ( 'NONE', 'NONE',  #412 ) ;
#173 = CARTESIAN_POINT ( 'NONE',  ( 0.2000000000000000111, 0.1750000000000000444, 0.1250000000000000000 ) ) ;
#174 = EDGE_LOOP ( 'NONE', ( #13, #315, #110, #328 ) ) ;
#175 = DIRECTION ( 'NONE',  ( -0.000000000000000000, -0.000000000000000000, -1.000000000000000000 ) ) ;
#176 = EDGE_CURVE ( 'NONE', #332, #11, #312, .T. ) ;
#177 = LINE ( 'NONE', #65, #147 ) ;
#178 = PRODUCT_CONTEXT ( 'NONE', #180, 'mechanical' ) ;
#179 = CARTESIAN_POINT ( 'NONE',  ( 1.960000000000000187, 0.3100000000000000533, 0.000000000000000000 ) ) ;
#180 = APPLICATION_CONTEXT ( 'automotive_design' ) ;
#181 = ADVANCED_FACE ( 'NONE', ( #35 ), #338, .F. ) ;
#182 = LINE ( 'NONE', #117, #108 ) ;
#183 = CARTESIAN_POINT ( 'NONE',  ( 0.4000000000000000222, 0.3100000000000000533, 0.1250000000000000000 ) ) ;
#184 = AXIS2_PLACEMENT_3D ( 'NONE', #262, #152, #78 ) ;
#185 = DIRECTION ( 'NONE',  ( 0.000000000000000000, 0.000000000000000000, 1.000000000000000000 ) ) ;
#186 = ORIENTED_EDGE ( 'NONE', *, *, #176, .F. ) ;
#187 = FACE_OUTER_BOUND ( 'NONE', #437, .T. ) ;
#188 = ADVANCED_FACE ( 'NONE', ( #154 ), #118, .T. ) ;
#189 = DIRECTION ( 'NONE',  ( 1.000000000000000000, 0.000000000000000000, 0.000000000000000000 ) ) ;
#190 = DIRECTION ( 'NONE',  ( -0.000000000000000000, -1.000000000000000000, -0.000000000000000000 ) ) ;
#191 = LINE ( 'NONE', #226, #359 ) ;
#192 = CARTESIAN_POINT ( 'NONE',  ( 0.2000000000000000111, 0.6250000000000000000, 0.1250000000000000000 ) ) ;
#193 = AXIS2_PLACEMENT_3D ( 'NONE', #242, #125, #51 ) ;
#194 = EDGE_LOOP ( 'NONE', ( #451, #163 ) ) ;
#195 = ORIENTED_EDGE ( 'NONE', *, *, #159, .T. ) ;
#196 = EDGE_CURVE ( 'NONE', #378, #66, #421, .T. ) ;
#197 = DIRECTION ( 'NONE',  ( -0.000000000000000000, -0.000000000000000000, -1.000000000000000000 ) ) ;
#198 = ORIENTED_EDGE ( 'NONE', *, *, #282, .F. ) ;
#199 = LINE ( 'NONE', #432, #5 ) ;
#200 = VECTOR ( 'NONE', #3, 39.37007874015748143 ) ;
#201 = AXIS2_PLACEMENT_3D ( 'NONE', #410, #105, #407 ) ;
#202 = VERTEX_POINT ( 'NONE', #396 ) ;
#203 = CARTESIAN_POINT ( 'NONE',  ( 0.2847500000000000031, 0.6250000000000000000, 0.1250000000000000000 ) ) ;
#204 = EDGE_CURVE ( 'NONE', #321, #202, #317, .T. ) ;
#205 = LINE ( 'NONE', #166, #466 ) ;
#206 = FACE_BOUND ( 'NONE', #9, .T. ) ;
#207 = EDGE_LOOP ( 'NONE', ( #228, #459, #322, #156 ) ) ;
#208 = FACE_OUTER_BOUND ( 'NONE', #207, .T. ) ;
#209 = ORIENTED_EDGE ( 'NONE', *, *, #282, .T. ) ;
#210 = AXIS2_PLACEMENT_3D ( 'NONE', #352, #287, #349 ) ;
#211 = LINE ( 'NONE', #131, #377 ) ;
#212 = ORIENTED_EDGE ( 'NONE', *, *, #471, .F. ) ;
#213 =( CONVERSION_BASED_UNIT ( 'INCH', #399 ) LENGTH_UNIT ( ) NAMED_UNIT ( #369 ) );
#214 = DIRECTION ( 'NONE',  ( 0.000000000000000000, 0.000000000000000000, 1.000000000000000000 ) ) ;
#215 = CARTESIAN_POINT ( 'NONE',  ( 0.1152500000000000607, 0.6250000000000000000, 0.000000000000000000 ) ) ;
#216 = DIRECTION ( 'NONE',  ( 1.000000000000000000, 0.000000000000000000, 0.000000000000000000 ) ) ;
#217 = EDGE_CURVE ( 'NONE', #66, #75, #354, .T. ) ;
#218 = CARTESIAN_POINT ( 'NONE',  ( 0.000000000000000000, 0.000000000000000000, 0.1250000000000000000 ) ) ;
#219 = ORIENTED_EDGE ( 'NONE', *, *, #225, .T. ) ;
#220 = AXIS2_PLACEMENT_3D ( 'NONE', #38, #185, #382 ) ;
#221 = VECTOR ( 'NONE', #275, 39.37007874015748143 ) ;
#222 = CARTESIAN_POINT ( 'NONE',  ( 1.750000000000000000, 0.000000000000000000, 0.1250000000000000000 ) ) ;
#223 = ORIENTED_EDGE ( 'NONE', *, *, #196, .F. ) ;
#224 = ORIENTED_EDGE ( 'NONE', *, *, #176, .T. ) ;
#225 = EDGE_CURVE ( 'NONE', #202, #29, #120, .T. ) ;
#226 = CARTESIAN_POINT ( 'NONE',  ( 0.4000000000000000222, 0.4900000000000000466, 0.1250000000000000000 ) ) ;
#227 = AXIS2_PLACEMENT_3D ( 'NONE', #406, #34, #30 ) ;
#228 = ORIENTED_EDGE ( 'NONE', *, *, #137, .F. ) ;
#229 = PLANE ( 'NONE',  #41 ) ;
#230 = EDGE_LOOP ( 'NONE', ( #186, #135 ) ) ;
#231 = ORIENTED_EDGE ( 'NONE', *, *, #271, .F. ) ;
#232 = DIRECTION ( 'NONE',  ( 0.000000000000000000, 1.000000000000000000, 0.000000000000000000 ) ) ;
#233 = DIRECTION ( 'NONE',  ( -1.000000000000000000, -0.000000000000000000, -0.000000000000000000 ) ) ;
#234 = EDGE_CURVE ( 'NONE', #440, #119, #50, .T. ) ;
#235 = ORIENTED_EDGE ( 'NONE', *, *, #196, .T. ) ;
#236 = ORIENTED_EDGE ( 'NONE', *, *, #244, .F. ) ;
#237 = AXIS2_PLACEMENT_3D ( 'NONE', #278, #86, #90 ) ;
#238 = EDGE_LOOP ( 'NONE', ( #436, #157, #324, #27 ) ) ;
#239 = LINE ( 'NONE', #392, #139 ) ;
#240 = CARTESIAN_POINT ( 'NONE',  ( 0.000000000000000000, 0.8000000000000000444, 0.1250000000000000000 ) ) ;
#241 = CARTESIAN_POINT ( 'NONE',  ( 1.960000000000000187, 0.3100000000000000533, 0.1250000000000000000 ) ) ;
#242 = CARTESIAN_POINT ( 'NONE',  ( 0.2000000000000000111, 0.6250000000000000000, 0.1250000000000000000 ) ) ;
#243 = ORIENTED_EDGE ( 'NONE', *, *, #452, .T. ) ;
#244 = EDGE_CURVE ( 'NONE', #1, #68, #385, .T. ) ;
#245 = CARTESIAN_POINT ( 'NONE',  ( 0.2000000000000000111, 0.6250000000000000000, 0.1250000000000000000 ) ) ;
#246 = CARTESIAN_POINT ( 'NONE',  ( 1.750000000000000000, 0.000000000000000000, 0.000000000000000000 ) ) ;
#247 = VERTEX_POINT ( 'NONE', #422 ) ;
#248 = CARTESIAN_POINT ( 'NONE',  ( 0.4000000000000000222, 0.3100000000000000533, 0.000000000000000000 ) ) ;
#249 = ORIENTED_EDGE ( 'NONE', *, *, #217, .F. ) ;
#250 =( NAMED_UNIT ( * ) SI_UNIT ( $, .STERADIAN. ) SOLID_ANGLE_UNIT ( ) );
#251 = CARTESIAN_POINT ( 'NONE',  ( 0.4000000000000000222, 0.4900000000000000466, 0.1250000000000000000 ) ) ;
#252 = CYLINDRICAL_SURFACE ( 'NONE', #122, 0.08474999999999996425 ) ;
#253 = ORIENTED_EDGE ( 'NONE', *, *, #168, .F. ) ;
#254 = VECTOR ( 'NONE', #85, 39.37007874015748143 ) ;
#255 = PLANE ( 'NONE',  #100 ) ;
#256 = EDGE_CURVE ( 'NONE', #29, #316, #283, .T. ) ;
#257 = SURFACE_SIDE_STYLE ('',( #141 ) ) ;
#258 = ORIENTED_EDGE ( 'NONE', *, *, #7, .F. ) ;
#259 = STYLED_ITEM ( 'NONE', ( #413 ), #124 ) ;
#260 = CARTESIAN_POINT ( 'NONE',  ( 1.960000000000000187, 0.3100000000000000533, 0.1250000000000000000 ) ) ;
#261 = EDGE_LOOP ( 'NONE', ( #142, #249, #223, #291 ) ) ;
#262 = CARTESIAN_POINT ( 'NONE',  ( 1.750000000000000000, 0.4000000000000000222, 0.1250000000000000000 ) ) ;
#263 = EDGE_CURVE ( 'NONE', #286, #350, #239, .T. ) ;
#264 = CARTESIAN_POINT ( 'NONE',  ( 0.2847500000000000031, 0.1750000000000000444, 0.000000000000000000 ) ) ;
#265 = CARTESIAN_POINT ( 'NONE',  ( 0.000000000000000000, 0.000000000000000000, 0.1250000000000000000 ) ) ;
#266 = EDGE_LOOP ( 'NONE', ( #212, #149, #40, #63 ) ) ;
#267 = VECTOR ( 'NONE', #306, 39.37007874015748143 ) ;
#268 = CARTESIAN_POINT ( 'NONE',  ( 1.750000000000000000, 0.8000000000000000444, 0.1250000000000000000 ) ) ;
#269 = CIRCLE ( 'NONE', #426, 0.08474999999999996425 ) ;
#270 = VERTEX_POINT ( 'NONE', #164 ) ;
#271 = EDGE_CURVE ( 'NONE', #370, #47, #199, .T. ) ;
#272 = DIRECTION ( 'NONE',  ( 0.000000000000000000, 0.000000000000000000, 1.000000000000000000 ) ) ;
#273 = DIRECTION ( 'NONE',  ( -1.000000000000000000, 0.000000000000000000, 0.000000000000000000 ) ) ;
#274 = DIRECTION ( 'NONE',  ( -0.000000000000000000, -0.000000000000000000, -1.000000000000000000 ) ) ;
#275 = DIRECTION ( 'NONE',  ( 0.000000000000000000, 1.000000000000000000, 0.000000000000000000 ) ) ;
#276 = AXIS2_PLACEMENT_3D ( 'NONE', #245, #393, #54 ) ;
#277 =( GEOMETRIC_REPRESENTATION_CONTEXT ( 3 ) GLOBAL_UNCERTAINTY_ASSIGNED_CONTEXT ( ( #76 ) ) GLOBAL_UNIT_ASSIGNED_CONTEXT ( ( #213, #133, #469 ) ) REPRESENTATION_CONTEXT ( 'NONE', 'WORKASPACE' ) );
#278 = CARTESIAN_POINT ( 'NONE',  ( 0.2000000000000000111, 0.1750000000000000444, 0.1250000000000000000 ) ) ;
#279 = EDGE_LOOP ( 'NONE', ( #339, #87, #80, #310 ) ) ;
#280 = DIRECTION ( 'NONE',  ( -0.000000000000000000, -0.000000000000000000, -1.000000000000000000 ) ) ;
#281 = EDGE_LOOP ( 'NONE', ( #428, #17, #70, #236 ) ) ;
#282 = EDGE_CURVE ( 'NONE', #286, #440, #26, .T. ) ;
#283 = LINE ( 'NONE', #241, #446 ) ;
#284 = CYLINDRICAL_SURFACE ( 'NONE', #193, 0.08474999999999996425 ) ;
#285 = LINE ( 'NONE', #307, #221 ) ;
#286 = VERTEX_POINT ( 'NONE', #203 ) ;
#287 = DIRECTION ( 'NONE',  ( 0.000000000000000000, -1.000000000000000000, 0.000000000000000000 ) ) ;
#288 = ORIENTED_EDGE ( 'NONE', *, *, #204, .T. ) ;
#289 = PLANE ( 'NONE',  #73 ) ;
#290 = DIRECTION ( 'NONE',  ( -1.000000000000000000, 0.000000000000000000, 0.000000000000000000 ) ) ;
#291 = ORIENTED_EDGE ( 'NONE', *, *, #457, .T. ) ;
#292 = AXIS2_PLACEMENT_3D ( 'NONE', #62, #175, #362 ) ;
#293 = DIRECTION ( 'NONE',  ( -1.000000000000000000, 0.000000000000000000, 0.000000000000000000 ) ) ;
#294 = SURFACE_STYLE_USAGE ( .BOTH. , #257 ) ;
#295 = ADVANCED_FACE ( 'NONE', ( #23 ), #255, .F. ) ;
#296 = EDGE_LOOP ( 'NONE', ( #300, #58, #219, #366 ) ) ;
#297 = UNCERTAINTY_MEASURE_WITH_UNIT (LENGTH_MEASURE( 1.000000000000000082E-05 ), #145, 'distance_accuracy_value', 'NONE');
#298 = AXIS2_PLACEMENT_3D ( 'NONE', #431, #162, #93 ) ;
#299 = EDGE_CURVE ( 'NONE', #68, #75, #211, .T. ) ;
#300 = ORIENTED_EDGE ( 'NONE', *, *, #37, .F. ) ;
#301 = FACE_OUTER_BOUND ( 'NONE', #71, .T. ) ;
#302 = PRODUCT_DEFINITION_CONTEXT ( 'detailed design', #351, 'design' ) ;
#303 = ADVANCED_FACE ( 'NONE', ( #102 ), #411, .T. ) ;
#304 = VECTOR ( 'NONE', #59, 39.37007874015748143 ) ;
#305 = DIRECTION ( 'NONE',  ( -1.000000000000000000, 0.000000000000000000, 0.000000000000000000 ) ) ;
#306 = DIRECTION ( 'NONE',  ( -0.000000000000000000, -0.000000000000000000, -1.000000000000000000 ) ) ;
#307 = CARTESIAN_POINT ( 'NONE',  ( 1.960000000000000187, 0.3100000000000000533, 0.1250000000000000000 ) ) ;
#308 = CARTESIAN_POINT ( 'NONE',  ( 0.4000000000000000222, 0.3100000000000000533, 0.1250000000000000000 ) ) ;
#309 = DIRECTION ( 'NONE',  ( -0.000000000000000000, -0.000000000000000000, -1.000000000000000000 ) ) ;
#310 = ORIENTED_EDGE ( 'NONE', *, *, #271, .T. ) ;
#311 = CARTESIAN_POINT ( 'NONE',  ( 1.750000000000000000, 0.8000000000000000444, 0.1250000000000000000 ) ) ;
#312 = CIRCLE ( 'NONE', #220, 0.08474999999999996425 ) ;
#313 = DIRECTION ( 'NONE',  ( 0.000000000000000000, 0.000000000000000000, 1.000000000000000000 ) ) ;
#314 = ADVANCED_FACE ( 'NONE', ( #28 ), #476, .T. ) ;
#315 = ORIENTED_EDGE ( 'NONE', *, *, #256, .F. ) ;
#316 = VERTEX_POINT ( 'NONE', #179 ) ;
#317 = LINE ( 'NONE', #308, #170 ) ;
#318 = ORIENTED_EDGE ( 'NONE', *, *, #217, .T. ) ;
#319 = PRODUCT_RELATED_PRODUCT_CATEGORY ( 'part', '', ( #24 ) ) ;
#320 = CYLINDRICAL_SURFACE ( 'NONE', #237, 0.08474999999999996425 ) ;
#321 = VERTEX_POINT ( 'NONE', #251 ) ;
#322 = ORIENTED_EDGE ( 'NONE', *, *, #12, .T. ) ;
#323 = APPLICATION_PROTOCOL_DEFINITION ( 'draft international standard', 'automotive_design', 1998, #180 ) ;
#324 = ORIENTED_EDGE ( 'NONE', *, *, #109, .F. ) ;
#325 = ADVANCED_FACE ( 'NONE', ( #470, #134, #98, #401 ), #289, .T. ) ;
#326 = ORIENTED_EDGE ( 'NONE', *, *, #12, .F. ) ;
#327 = CARTESIAN_POINT ( 'NONE',  ( 0.2847500000000000031, 0.6250000000000000000, 0.000000000000000000 ) ) ;
#328 = ORIENTED_EDGE ( 'NONE', *, *, #419, .T. ) ;
#329 = DIRECTION ( 'NONE',  ( -0.000000000000000000, -0.000000000000000000, -1.000000000000000000 ) ) ;
#330 = DIRECTION ( 'NONE',  ( -1.000000000000000000, -0.000000000000000000, -0.000000000000000000 ) ) ;
#331 = EDGE_CURVE ( 'NONE', #350, #119, #348, .T. ) ;
#332 = VERTEX_POINT ( 'NONE', #367 ) ;
#333 = CIRCLE ( 'NONE', #298, 0.08474999999999996425 ) ;
#334 = CARTESIAN_POINT ( 'NONE',  ( 0.2000000000000000111, 0.1750000000000000444, 0.1250000000000000000 ) ) ;
#335 = ORIENTED_EDGE ( 'NONE', *, *, #434, .T. ) ;
#336 = DIRECTION ( 'NONE',  ( 0.000000000000000000, 0.000000000000000000, -1.000000000000000000 ) ) ;
#337 = CARTESIAN_POINT ( 'NONE',  ( 0.2847500000000000031, 0.1750000000000000444, 0.1250000000000000000 ) ) ;
#338 = PLANE ( 'NONE',  #46 ) ;
#339 = ORIENTED_EDGE ( 'NONE', *, *, #37, .T. ) ;
#340 = ORIENTED_EDGE ( 'NONE', *, *, #353, .T. ) ;
#341 = VECTOR ( 'NONE', #190, 39.37007874015748143 ) ;
#342 = AXIS2_PLACEMENT_3D ( 'NONE', #144, #146, #153 ) ;
#343 = EDGE_LOOP ( 'NONE', ( #363, #97, #447, #449 ) ) ;
#344 = ORIENTED_EDGE ( 'NONE', *, *, #116, .F. ) ;
#345 = CARTESIAN_POINT ( 'NONE',  ( 0.1152500000000000607, 0.6250000000000000000, 0.1250000000000000000 ) ) ;
#346 = DIRECTION ( 'NONE',  ( -0.000000000000000000, -0.000000000000000000, -1.000000000000000000 ) ) ;
#347 = EDGE_LOOP ( 'NONE', ( #395, #113 ) ) ;
#348 = CIRCLE ( 'NONE', #418, 0.08474999999999996425 ) ;
#349 = DIRECTION ( 'NONE',  ( 0.000000000000000000, -0.000000000000000000, -1.000000000000000000 ) ) ;
#350 = VERTEX_POINT ( 'NONE', #327 ) ;
#351 = APPLICATION_CONTEXT ( 'automotive_design' ) ;
#352 = CARTESIAN_POINT ( 'NONE',  ( 0.000000000000000000, 0.8000000000000000444, 0.1250000000000000000 ) ) ;
#353 = EDGE_CURVE ( 'NONE', #321, #370, #374, .T. ) ;
#354 = LINE ( 'NONE', #430, #254 ) ;
#355 = FACE_BOUND ( 'NONE', #230, .T. ) ;
#356 = ORIENTED_EDGE ( 'NONE', *, *, #7, .T. ) ;
#357 = VECTOR ( 'NONE', #4, 39.37007874015748143 ) ;
#358 = FILL_AREA_STYLE ('',( #67 ) ) ;
#359 = VECTOR ( 'NONE', #391, 39.37007874015748143 ) ;
#360 = ORIENTED_EDGE ( 'NONE', *, *, #95, .T. ) ;
#361 = DIRECTION ( 'NONE',  ( 0.000000000000000000, 0.000000000000000000, 1.000000000000000000 ) ) ;
#362 = DIRECTION ( 'NONE',  ( -1.000000000000000000, 0.000000000000000000, 0.000000000000000000 ) ) ;
#363 = ORIENTED_EDGE ( 'NONE', *, *, #88, .T. ) ;
#364 = DIRECTION ( 'NONE',  ( -1.000000000000000000, -0.000000000000000000, -0.000000000000000000 ) ) ;
#365 = ADVANCED_FACE ( 'NONE', ( #301 ), #453, .T. ) ;
#366 = ORIENTED_EDGE ( 'NONE', *, *, #256, .T. ) ;
#367 = CARTESIAN_POINT ( 'NONE',  ( 0.1152500000000000607, 0.1750000000000000444, 0.1250000000000000000 ) ) ;
#368 = CIRCLE ( 'NONE', #201, 0.08474999999999996425 ) ;
#369 = DIMENSIONAL_EXPONENTS ( 1.000000000000000000, 0.000000000000000000, 0.000000000000000000, 0.000000000000000000, 0.000000000000000000, 0.000000000000000000, 0.000000000000000000 ) ;
#370 = VERTEX_POINT ( 'NONE', #106 ) ;
#371 = ADVANCED_FACE ( 'NONE', ( #187 ), #229, .T. ) ;
#372 = CARTESIAN_POINT ( 'NONE',  ( 0.4000000000000000222, 0.4900000000000000466, 0.1250000000000000000 ) ) ;
#373 = VERTEX_POINT ( 'NONE', #114 ) ;
#374 = LINE ( 'NONE', #372, #200 ) ;
#375 = CARTESIAN_POINT ( 'NONE',  ( 0.000000000000000000, 0.000000000000000000, 0.000000000000000000 ) ) ;
#376 = EDGE_LOOP ( 'NONE', ( #360, #415, #235, #356 ) ) ;
#377 = VECTOR ( 'NONE', #364, 39.37007874015748143 ) ;
#378 = VERTEX_POINT ( 'NONE', #268 ) ;
#379 = CARTESIAN_POINT ( 'NONE',  ( 0.000000000000000000, 0.000000000000000000, 0.1250000000000000000 ) ) ;
#380 = DIRECTION ( 'NONE',  ( 1.000000000000000000, 0.000000000000000000, 0.000000000000000000 ) ) ;
#381 = EDGE_CURVE ( 'NONE', #316, #247, #111, .T. ) ;
#382 = DIRECTION ( 'NONE',  ( -1.000000000000000000, 0.000000000000000000, 0.000000000000000000 ) ) ;
#383 = LINE ( 'NONE', #379, #341 ) ;
#384 = ORIENTED_EDGE ( 'NONE', *, *, #457, .F. ) ;
#385 = CIRCLE ( 'NONE', #425, 0.4000000000000000777 ) ;
#386 = DIRECTION ( 'NONE',  ( 1.000000000000000000, 0.000000000000000000, 0.000000000000000000 ) ) ;
#387 = EDGE_CURVE ( 'NONE', #11, #332, #6, .T. ) ;
#388 = CARTESIAN_POINT ( 'NONE',  ( 1.750000000000000000, 0.4000000000000000222, 0.000000000000000000 ) ) ;
#389 = FACE_OUTER_BOUND ( 'NONE', #261, .T. ) ;
#390 = ORIENTED_EDGE ( 'NONE', *, *, #244, .T. ) ;
#391 = DIRECTION ( 'NONE',  ( -1.000000000000000000, -0.000000000000000000, -0.000000000000000000 ) ) ;
#392 = CARTESIAN_POINT ( 'NONE',  ( 0.2847500000000000031, 0.6250000000000000000, 0.1250000000000000000 ) ) ;
#393 = DIRECTION ( 'NONE',  ( 0.000000000000000000, 0.000000000000000000, 1.000000000000000000 ) ) ;
#394 = DIRECTION ( 'NONE',  ( -1.000000000000000000, 0.000000000000000000, 0.000000000000000000 ) ) ;
#395 = ORIENTED_EDGE ( 'NONE', *, *, #109, .T. ) ;
#396 = CARTESIAN_POINT ( 'NONE',  ( 0.4000000000000000777, 0.3100000000000000533, 0.1250000000000000000 ) ) ;
#397 = CARTESIAN_POINT ( 'NONE',  ( 1.750000000000000000, 0.8000000000000000444, 0.000000000000000000 ) ) ;
#398 = EDGE_LOOP ( 'NONE', ( #8, #209, #165, #445 ) ) ;
#399 = LENGTH_MEASURE_WITH_UNIT ( LENGTH_MEASURE( 0.02539999999999999897 ), #104 );
#400 = CARTESIAN_POINT ( 'NONE',  ( 0.2847500000000000031, 0.1750000000000000444, 0.1250000000000000000 ) ) ;
#401 = FACE_BOUND ( 'NONE', #194, .T. ) ;
#402 = VECTOR ( 'NONE', #55, 39.37007874015748143 ) ;
#403 = LINE ( 'NONE', #375, #357 ) ;
#404 = VERTEX_POINT ( 'NONE', #264 ) ;
#405 = EDGE_CURVE ( 'NONE', #408, #1, #182, .T. ) ;
#406 = CARTESIAN_POINT ( 'NONE',  ( 0.4000000000000000222, 0.3100000000000000533, 0.1250000000000000000 ) ) ;
#407 = DIRECTION ( 'NONE',  ( 1.000000000000000000, 0.000000000000000000, 0.000000000000000000 ) ) ;
#408 = VERTEX_POINT ( 'NONE', #151 ) ;
#409 = CARTESIAN_POINT ( 'NONE',  ( 0.2000000000000000111, 0.6250000000000000000, 0.000000000000000000 ) ) ;
#410 = CARTESIAN_POINT ( 'NONE',  ( 0.2000000000000000111, 0.6250000000000000000, 0.000000000000000000 ) ) ;
#411 = CYLINDRICAL_SURFACE ( 'NONE', #292, 0.4000000000000000777 ) ;
#412 = PRODUCT_DEFINITION ( 'General', '', #10, #302 ) ;
#413 = PRESENTATION_STYLE_ASSIGNMENT (( #294 ) ) ;
#414 = VECTOR ( 'NONE', #77, 39.37007874015748143 ) ;
#415 = ORIENTED_EDGE ( 'NONE', *, *, #168, .T. ) ;
#416 = CARTESIAN_POINT ( 'NONE',  ( 1.960000000000000187, 0.3100000000000000533, 0.000000000000000000 ) ) ;
#417 = CARTESIAN_POINT ( 'NONE',  ( 1.960000000000000187, 0.4900000000000000466, 0.1250000000000000000 ) ) ;
#418 = AXIS2_PLACEMENT_3D ( 'NONE', #409, #64, #216 ) ;
#419 = EDGE_CURVE ( 'NONE', #463, #247, #420, .T. ) ;
#420 = LINE ( 'NONE', #417, #414 ) ;
#421 = LINE ( 'NONE', #81, #460 ) ;
#422 = CARTESIAN_POINT ( 'NONE',  ( 1.960000000000000187, 0.4900000000000000466, 0.000000000000000000 ) ) ;
#423 = EDGE_CURVE ( 'NONE', #373, #404, #461, .T. ) ;
#424 = LINE ( 'NONE', #45, #129 ) ;
#425 = AXIS2_PLACEMENT_3D ( 'NONE', #388, #313, #273 ) ;
#426 = AXIS2_PLACEMENT_3D ( 'NONE', #192, #15, #91 ) ;
#427 = CARTESIAN_POINT ( 'NONE',  ( 0.4000000000000000222, 0.3100000000000000533, 0.000000000000000000 ) ) ;
#428 = ORIENTED_EDGE ( 'NONE', *, *, #88, .F. ) ;
#429 = LINE ( 'NONE', #311, #130 ) ;
#430 = CARTESIAN_POINT ( 'NONE',  ( 0.000000000000000000, 0.8000000000000000444, 0.1250000000000000000 ) ) ;
#431 = CARTESIAN_POINT ( 'NONE',  ( 0.2000000000000000111, 0.1750000000000000444, 0.000000000000000000 ) ) ;
#432 = CARTESIAN_POINT ( 'NONE',  ( 0.4000000000000000222, 0.3100000000000000533, 0.000000000000000000 ) ) ;
#433 = CYLINDRICAL_SURFACE ( 'NONE', #478, 0.08474999999999996425 ) ;
#434 = EDGE_CURVE ( 'NONE', #463, #321, #191, .T. ) ;
#435 = VECTOR ( 'NONE', #280, 39.37007874015748143 ) ;
#436 = ORIENTED_EDGE ( 'NONE', *, *, #439, .T. ) ;
#437 = EDGE_LOOP ( 'NONE', ( #231, #99, #288, #243 ) ) ;
#438 = DIRECTION ( 'NONE',  ( 0.000000000000000000, 1.000000000000000000, -0.000000000000000000 ) ) ;
#439 = EDGE_CURVE ( 'NONE', #440, #286, #269, .T. ) ;
#440 = VERTEX_POINT ( 'NONE', #345 ) ;
#441 = VECTOR ( 'NONE', #83, 39.37007874015748143 ) ;
#442 = DIRECTION ( 'NONE',  ( -1.000000000000000000, 0.000000000000000000, 0.000000000000000000 ) ) ;
#443 = LENGTH_MEASURE_WITH_UNIT ( LENGTH_MEASURE( 0.02539999999999999897 ), #474 );
#444 = DIRECTION ( 'NONE',  ( -0.000000000000000000, 0.000000000000000000, -1.000000000000000000 ) ) ;
#445 = ORIENTED_EDGE ( 'NONE', *, *, #331, .F. ) ;
#446 = VECTOR ( 'NONE', #197, 39.37007874015748143 ) ;
#447 = ORIENTED_EDGE ( 'NONE', *, *, #95, .F. ) ;
#448 = AXIS2_PLACEMENT_3D ( 'NONE', #171, #361, #136 ) ;
#449 = ORIENTED_EDGE ( 'NONE', *, *, #20, .T. ) ;
#450 = DIRECTION ( 'NONE',  ( -1.000000000000000000, 0.000000000000000000, 0.000000000000000000 ) ) ;
#451 = ORIENTED_EDGE ( 'NONE', *, *, #423, .T. ) ;
#452 = EDGE_CURVE ( 'NONE', #202, #47, #14, .T. ) ;
#453 = PLANE ( 'NONE',  #342 ) ;
#454 = ADVANCED_BREP_SHAPE_REPRESENTATION ( 'Balancing bracket', ( #124, #448 ), #277 ) ;
#455 = ORIENTED_EDGE ( 'NONE', *, *, #20, .F. ) ;
#456 = COLOUR_RGB ( '',0.7921568627450980005, 0.8196078431372548767, 0.9333333333333333481 ) ;
#457 = EDGE_CURVE ( 'NONE', #378, #68, #429, .T. ) ;
#458 = CARTESIAN_POINT ( 'NONE',  ( 0.000000000000000000, 0.000000000000000000, 0.1250000000000000000 ) ) ;
#459 = ORIENTED_EDGE ( 'NONE', *, *, #387, .T. ) ;
#460 = VECTOR ( 'NONE', #233, 39.37007874015748143 ) ;
#461 = CIRCLE ( 'NONE', #155, 0.08474999999999996425 ) ;
#462 = FACE_OUTER_BOUND ( 'NONE', #126, .T. ) ;
#463 = VERTEX_POINT ( 'NONE', #82 ) ;
#464 = FACE_OUTER_BOUND ( 'NONE', #238, .T. ) ;
#465 = FACE_OUTER_BOUND ( 'NONE', #376, .T. ) ;
#466 = VECTOR ( 'NONE', #132, 39.37007874015748143 ) ;
#467 = FACE_BOUND ( 'NONE', #266, .T. ) ;
#468 = ORIENTED_EDGE ( 'NONE', *, *, #405, .T. ) ;
#469 =( NAMED_UNIT ( * ) SI_UNIT ( $, .STERADIAN. ) SOLID_ANGLE_UNIT ( ) );
#470 = FACE_BOUND ( 'NONE', #347, .T. ) ;
#471 = EDGE_CURVE ( 'NONE', #29, #463, #285, .T. ) ;
#472 = DIRECTION ( 'NONE',  ( -0.000000000000000000, -0.000000000000000000, -1.000000000000000000 ) ) ;
#473 = ORIENTED_EDGE ( 'NONE', *, *, #137, .T. ) ;
#474 =( LENGTH_UNIT ( ) NAMED_UNIT ( * ) SI_UNIT ( $, .METRE. ) );
#475 = APPLICATION_PROTOCOL_DEFINITION ( 'draft international standard', 'automotive_design', 1998, #351 ) ;
#476 = PLANE ( 'NONE',  #227 ) ;
#477 = CLOSED_SHELL ( 'NONE', ( #57, #44, #101, #325, #295, #303, #69, #181, #188, #365, #371, #314, #33, #143 ) ) ;
#478 = AXIS2_PLACEMENT_3D ( 'NONE', #96, #309, #394 ) ;
#479 = LINE ( 'NONE', #400, #304 ) ;
ENDSEC;
END-ISO-10303-21;
