ISO-10303-21;
HEADER;
FILE_DESCRIPTION (( 'STEP AP214' ),
    '1' );
FILE_NAME ('Caudal Potting.STEP',
    '2026-02-20T19:34:31',
    ( '' ),
    ( '' ),
    'SwSTEP 2.0',
    'SolidWorks 2025',
    '' );
FILE_SCHEMA (( 'AUTOMOTIVE_DESIGN' ));
ENDSEC;

DATA;
#1 = CYLINDRICAL_SURFACE ( 'NONE', #88, 0.1249999999999999029 ) ;
#2 = ORIENTED_EDGE ( 'NONE', *, *, #64, .F. ) ;
#3 = CARTESIAN_POINT ( 'NONE',  ( 1.875000000000000000, 0.7499999999999998890, 0.1249999999999998612 ) ) ;
#4 = ORIENTED_EDGE ( 'NONE', *, *, #756, .F. ) ;
#5 = EDGE_CURVE ( 'NONE', #734, #325, #502, .T. ) ;
#6 = DIRECTION ( 'NONE',  ( 0.000000000000000000, 0.000000000000000000, 1.000000000000000000 ) ) ;
#7 = EDGE_LOOP ( 'NONE', ( #129, #340, #672, #451 ) ) ;
#8 = DIRECTION ( 'NONE',  ( -1.000000000000000000, 0.000000000000000000, 0.000000000000000000 ) ) ;
#9 = CARTESIAN_POINT ( 'NONE',  ( -0.9842500000000000693, 0.8750000000000000000, -0.9842500000000000693 ) ) ;
#10 = DIRECTION ( 'NONE',  ( 0.000000000000000000, 0.000000000000000000, 1.000000000000000000 ) ) ;
#11 = ORIENTED_EDGE ( 'NONE', *, *, #775, .F. ) ;
#12 = AXIS2_PLACEMENT_3D ( 'NONE', #158, #337, #578 ) ;
#13 = DIRECTION ( 'NONE',  ( -1.000000000000000000, 0.000000000000000000, 0.000000000000000000 ) ) ;
#14 = VECTOR ( 'NONE', #253, 39.37007874015748143 ) ;
#15 = FACE_OUTER_BOUND ( 'NONE', #731, .T. ) ;
#16 = DIRECTION ( 'NONE',  ( -0.000000000000000000, 1.000000000000000000, -0.000000000000000000 ) ) ;
#17 = EDGE_CURVE ( 'NONE', #74, #743, #441, .T. ) ;
#18 = LINE ( 'NONE', #512, #739 ) ;
#19 = ORIENTED_EDGE ( 'NONE', *, *, #276, .F. ) ;
#20 = DIRECTION ( 'NONE',  ( 0.000000000000000000, 0.000000000000000000, 1.000000000000000000 ) ) ;
#21 = LINE ( 'NONE', #445, #627 ) ;
#22 = CARTESIAN_POINT ( 'NONE',  ( 0.9842500000000000693, 0.8750000000000000000, -1.084750000000055170 ) ) ;
#23 = ORIENTED_EDGE ( 'NONE', *, *, #718, .T. ) ;
#24 = AXIS2_PLACEMENT_3D ( 'NONE', #9, #321, #266 ) ;
#25 = AXIS2_PLACEMENT_3D ( 'NONE', #49, #111, #54 ) ;
#26 = EDGE_CURVE ( 'NONE', #180, #377, #655, .T. ) ;
#27 = TOROIDAL_SURFACE ( 'NONE', #584, 1.875000000000000000, 0.1250000000000000000 ) ;
#28 = APPLICATION_CONTEXT ( 'automotive_design' ) ;
#29 = CARTESIAN_POINT ( 'NONE',  ( 6.123233995736732756E-17, 0.7499999999999998890, 0.1249999999999993894 ) ) ;
#30 = EDGE_LOOP ( 'NONE', ( #2, #242 ) ) ;
#31 = ADVANCED_FACE ( 'NONE', ( #477, #651, #89, #587, #354 ), #535, .T. ) ;
#32 = CARTESIAN_POINT ( 'NONE',  ( 0.9842500000000558025, 0.8750000000000000000, 1.084749999999944148 ) ) ;
#33 = DIRECTION ( 'NONE',  ( 0.000000000000000000, 0.000000000000000000, 1.000000000000000000 ) ) ;
#34 = CARTESIAN_POINT ( 'NONE',  ( 4.592425496802560660E-17, 0.000000000000000000, -2.124999999999999112 ) ) ;
#35 = CARTESIAN_POINT ( 'NONE',  ( -0.9842500000000000693, 0.3749999999999999445, -0.9842500000000000693 ) ) ;
#36 = VECTOR ( 'NONE', #670, 39.37007874015748143 ) ;
#37 = CIRCLE ( 'NONE', #120, 0.1004999999999996452 ) ;
#38 = CARTESIAN_POINT ( 'NONE',  ( -0.9842499999999446691, 0.8750000000000000000, 0.9842500000000000693 ) ) ;
#39 = ADVANCED_FACE ( 'NONE', ( #279 ), #680, .F. ) ;
#40 =( NAMED_UNIT ( * ) PLANE_ANGLE_UNIT ( ) SI_UNIT ( $, .RADIAN. ) );
#41 = VERTEX_POINT ( 'NONE', #92 ) ;
#42 = CARTESIAN_POINT ( 'NONE',  ( 0.9842500000000000693, 0.3749999999999999445, -0.8837500000000556577 ) ) ;
#43 = CARTESIAN_POINT ( 'NONE',  ( 0.000000000000000000, 0.000000000000000000, 0.000000000000000000 ) ) ;
#44 = ORIENTED_EDGE ( 'NONE', *, *, #548, .T. ) ;
#45 = CARTESIAN_POINT ( 'NONE',  ( 0.9842500000000000693, 0.3749999999999999445, -0.9842500000000555804 ) ) ;
#46 = AXIS2_PLACEMENT_3D ( 'NONE', #563, #260, #744 ) ;
#47 = CIRCLE ( 'NONE', #456, 0.1004999999999996452 ) ;
#48 = ADVANCED_BREP_SHAPE_REPRESENTATION ( 'Caudal Potting', ( #315, #341 ), #628 ) ;
#49 = CARTESIAN_POINT ( 'NONE',  ( -0.9842500000000000693, 0.3749999999999999445, -0.9842500000000000693 ) ) ;
#50 = LINE ( 'NONE', #250, #459 ) ;
#51 = ORIENTED_EDGE ( 'NONE', *, *, #165, .T. ) ;
#52 = ADVANCED_FACE ( 'NONE', ( #467 ), #647, .F. ) ;
#53 = DIRECTION ( 'NONE',  ( 1.049727191138618449E-16, 0.5150380749100544886, -0.8571673007021122226 ) ) ;
#54 = DIRECTION ( 'NONE',  ( 0.000000000000000000, 0.000000000000000000, 1.000000000000000000 ) ) ;
#55 = DIRECTION ( 'NONE',  ( 0.000000000000000000, 0.000000000000000000, -1.000000000000000000 ) ) ;
#56 = ORIENTED_EDGE ( 'NONE', *, *, #142, .F. ) ;
#57 = CARTESIAN_POINT ( 'NONE',  ( 0.9842500000000558025, 0.3749999999999999445, 0.8837499999999445244 ) ) ;
#58 = PLANE ( 'NONE',  #408 ) ;
#59 = DIRECTION ( 'NONE',  ( -0.000000000000000000, 1.000000000000000000, -0.000000000000000000 ) ) ;
#60 = AXIS2_PLACEMENT_3D ( 'NONE', #782, #662, #108 ) ;
#61 = CARTESIAN_POINT ( 'NONE',  ( 0.9842500000000558025, 0.8750000000000000000, 0.9842499999999444471 ) ) ;
#62 = AXIS2_PLACEMENT_3D ( 'NONE', #188, #444, #126 ) ;
#63 = CIRCLE ( 'NONE', #150, 2.000000000000000000 ) ;
#64 = EDGE_CURVE ( 'NONE', #607, #743, #268, .T. ) ;
#65 = CARTESIAN_POINT ( 'NONE',  ( 1.875000000000000000, 0.8750000000000000000, -0.1250000000000001388 ) ) ;
#66 = LINE ( 'NONE', #494, #36 ) ;
#67 = CARTESIAN_POINT ( 'NONE',  ( 0.9842500000000558025, 0.8750000000000000000, 0.9842499999999444471 ) ) ;
#68 = LINE ( 'NONE', #506, #764 ) ;
#69 = ORIENTED_EDGE ( 'NONE', *, *, #501, .F. ) ;
#70 = DIRECTION ( 'NONE',  ( 0.000000000000000000, 0.000000000000000000, -1.000000000000000000 ) ) ;
#71 = VERTEX_POINT ( 'NONE', #42 ) ;
#72 = EDGE_CURVE ( 'NONE', #377, #305, #220, .T. ) ;
#73 = DIRECTION ( 'NONE',  ( 0.000000000000000000, 0.000000000000000000, 1.000000000000000000 ) ) ;
#74 = VERTEX_POINT ( 'NONE', #418 ) ;
#75 = STYLED_ITEM ( 'NONE', ( #539 ), #315 ) ;
#76 = EDGE_LOOP ( 'NONE', ( #245, #376, #153 ) ) ;
#77 = AXIS2_PLACEMENT_3D ( 'NONE', #118, #619, #400 ) ;
#78 = DIRECTION ( 'NONE',  ( 1.049727191138618449E-16, 0.5150380749100544886, -0.8571673007021122226 ) ) ;
#79 = CARTESIAN_POINT ( 'NONE',  ( 0.9842500000000558025, 0.3749999999999999445, 1.084749999999944370 ) ) ;
#80 = FACE_OUTER_BOUND ( 'NONE', #117, .T. ) ;
#81 = DIRECTION ( 'NONE',  ( 0.000000000000000000, -0.000000000000000000, -1.000000000000000000 ) ) ;
#82 = EDGE_LOOP ( 'NONE', ( #205, #486 ) ) ;
#83 = ADVANCED_FACE ( 'NONE', ( #720 ), #239, .F. ) ;
#84 = VERTEX_POINT ( 'NONE', #176 ) ;
#85 = DIRECTION ( 'NONE',  ( 0.000000000000000000, 0.000000000000000000, 1.000000000000000000 ) ) ;
#86 = AXIS2_PLACEMENT_3D ( 'NONE', #110, #368, #675 ) ;
#87 = EDGE_CURVE ( 'NONE', #654, #626, #768, .T. ) ;
#88 = AXIS2_PLACEMENT_3D ( 'NONE', #359, #590, #671 ) ;
#89 = FACE_BOUND ( 'NONE', #712, .T. ) ;
#90 = ORIENTED_EDGE ( 'NONE', *, *, #565, .F. ) ;
#91 = DIRECTION ( 'NONE',  ( 0.000000000000000000, 0.000000000000000000, 1.000000000000000000 ) ) ;
#92 = CARTESIAN_POINT ( 'NONE',  ( -2.000000000000000000, 0.7499999999999998890, -0.1250000000000001110 ) ) ;
#93 = LENGTH_MEASURE_WITH_UNIT ( LENGTH_MEASURE( 0.02539999999999999897 ), #648 );
#94 = EDGE_LOOP ( 'NONE', ( #631, #637, #249, #574, #331 ) ) ;
#95 = ORIENTED_EDGE ( 'NONE', *, *, #72, .T. ) ;
#96 = EDGE_CURVE ( 'NONE', #180, #305, #228, .T. ) ;
#97 = CIRCLE ( 'NONE', #62, 0.1004999999999999227 ) ;
#98 = DIRECTION ( 'NONE',  ( -0.000000000000000000, 1.000000000000000000, -0.000000000000000000 ) ) ;
#99 = ORIENTED_EDGE ( 'NONE', *, *, #733, .F. ) ;
#100 = DIRECTION ( 'NONE',  ( -0.000000000000000000, 1.000000000000000000, -0.000000000000000000 ) ) ;
#101 = ORIENTED_EDGE ( 'NONE', *, *, #760, .T. ) ;
#102 = ADVANCED_FACE ( 'NONE', ( #166 ), #58, .F. ) ;
#103 = ORIENTED_EDGE ( 'NONE', *, *, #540, .F. ) ;
#104 = CARTESIAN_POINT ( 'NONE',  ( 0.9842500000000558025, 0.8750000000000000000, 0.9842499999999444471 ) ) ;
#105 = ADVANCED_FACE ( 'NONE', ( #431 ), #161, .F. ) ;
#106 = VECTOR ( 'NONE', #600, 39.37007874015748143 ) ;
#107 = VECTOR ( 'NONE', #755, 39.37007874015748143 ) ;
#108 = DIRECTION ( 'NONE',  ( 0.000000000000000000, 0.000000000000000000, 1.000000000000000000 ) ) ;
#109 = CARTESIAN_POINT ( 'NONE',  ( 0.9842500000000000693, 0.3749999999999999445, -1.084750000000055614 ) ) ;
#110 = CARTESIAN_POINT ( 'NONE',  ( 6.123233995736732756E-17, 0.7499999999999998890, 0.1249999999999993894 ) ) ;
#111 = DIRECTION ( 'NONE',  ( -0.000000000000000000, 1.000000000000000000, -0.000000000000000000 ) ) ;
#112 = DIRECTION ( 'NONE',  ( -0.000000000000000000, -1.000000000000000000, -0.000000000000000000 ) ) ;
#113 = ORIENTED_EDGE ( 'NONE', *, *, #540, .T. ) ;
#114 = SURFACE_SIDE_STYLE ('',( #597 ) ) ;
#115 = LINE ( 'NONE', #374, #783 ) ;
#116 = FACE_OUTER_BOUND ( 'NONE', #7, .T. ) ;
#117 = EDGE_LOOP ( 'NONE', ( #496, #525, #291, #599 ) ) ;
#118 = CARTESIAN_POINT ( 'NONE',  ( 6.123233995736732756E-17, 0.7499999999999998890, 0.1249999999999993894 ) ) ;
#119 = ORIENTED_EDGE ( 'NONE', *, *, #501, .T. ) ;
#120 = AXIS2_PLACEMENT_3D ( 'NONE', #324, #629, #10 ) ;
#121 = VERTEX_POINT ( 'NONE', #381 ) ;
#122 = AXIS2_PLACEMENT_3D ( 'NONE', #195, #625, #447 ) ;
#123 = DIRECTION ( 'NONE',  ( 0.000000000000000000, 0.000000000000000000, -1.000000000000000000 ) ) ;
#124 = ORIENTED_EDGE ( 'NONE', *, *, #513, .T. ) ;
#125 = EDGE_CURVE ( 'NONE', #729, #274, #66, .T. ) ;
#126 = DIRECTION ( 'NONE',  ( 0.000000000000000000, 0.000000000000000000, 1.000000000000000000 ) ) ;
#127 = CARTESIAN_POINT ( 'NONE',  ( -0.9842500000000000693, 0.3749999999999999445, -1.084749999999999881 ) ) ;
#128 = CARTESIAN_POINT ( 'NONE',  ( 6.123233995736732756E-17, 0.7499999999999998890, 1.999999999999999334 ) ) ;
#129 = ORIENTED_EDGE ( 'NONE', *, *, #643, .T. ) ;
#130 = DIRECTION ( 'NONE',  ( 0.000000000000000000, 0.000000000000000000, 1.000000000000000000 ) ) ;
#131 = DIRECTION ( 'NONE',  ( -0.000000000000000000, 1.000000000000000000, -0.000000000000000000 ) ) ;
#132 = AXIS2_PLACEMENT_3D ( 'NONE', #617, #554, #203 ) ;
#133 = DIRECTION ( 'NONE',  ( 0.000000000000000000, 0.000000000000000000, 1.000000000000000000 ) ) ;
#134 = EDGE_LOOP ( 'NONE', ( #90, #382, #553, #233 ) ) ;
#135 = VECTOR ( 'NONE', #661, 39.37007874015748143 ) ;
#136 = CARTESIAN_POINT ( 'NONE',  ( 2.000000000000000000, 0.7499999999999998890, 0.1249999999999998612 ) ) ;
#137 = CARTESIAN_POINT ( 'NONE',  ( -2.000000000000000000, 0.7499999999999998890, -0.1250000000000001110 ) ) ;
#138 = EDGE_LOOP ( 'NONE', ( #658, #577, #581, #216 ) ) ;
#139 = DIRECTION ( 'NONE',  ( 0.000000000000000000, 0.000000000000000000, 1.000000000000000000 ) ) ;
#140 = ORIENTED_EDGE ( 'NONE', *, *, #476, .T. ) ;
#141 = DIRECTION ( 'NONE',  ( -0.000000000000000000, 1.000000000000000000, -0.000000000000000000 ) ) ;
#142 = EDGE_CURVE ( 'NONE', #414, #732, #292, .T. ) ;
#143 = VERTEX_POINT ( 'NONE', #606 ) ;
#144 = CARTESIAN_POINT ( 'NONE',  ( -1.875000000000000000, 0.7499999999999998890, -0.1250000000000001110 ) ) ;
#145 = CARTESIAN_POINT ( 'NONE',  ( -0.9842500000000000693, 0.3749999999999999445, -0.9842500000000000693 ) ) ;
#146 = UNCERTAINTY_MEASURE_WITH_UNIT (LENGTH_MEASURE( 1.000000000000000082E-05 ), #492, 'distance_accuracy_value', 'NONE');
#147 = DIRECTION ( 'NONE',  ( -0.000000000000000000, -1.000000000000000000, -0.000000000000000000 ) ) ;
#148 = DIRECTION ( 'NONE',  ( 0.000000000000000000, 0.000000000000000000, 1.000000000000000000 ) ) ;
#149 = CARTESIAN_POINT ( 'NONE',  ( -2.000000000000000000, 0.8750000000000000000, 0.1249999999999990147 ) ) ;
#150 = AXIS2_PLACEMENT_3D ( 'NONE', #727, #432, #673 ) ;
#151 = DIRECTION ( 'NONE',  ( 0.000000000000000000, 0.5150380749100544886, 0.8571673007021122226 ) ) ;
#152 = ORIENTED_EDGE ( 'NONE', *, *, #565, .T. ) ;
#153 = ORIENTED_EDGE ( 'NONE', *, *, #327, .T. ) ;
#154 = EDGE_CURVE ( 'NONE', #758, #607, #115, .T. ) ;
#155 = LINE ( 'NONE', #526, #471 ) ;
#156 = APPLICATION_PROTOCOL_DEFINITION ( 'draft international standard', 'automotive_design', 1998, #719 ) ;
#157 = EDGE_LOOP ( 'NONE', ( #226, #264, #660, #546 ) ) ;
#158 = CARTESIAN_POINT ( 'NONE',  ( 4.592425496802560660E-17, 0.000000000000000000, -0.1249999999999993894 ) ) ;
#159 = DIRECTION ( 'NONE',  ( 0.000000000000000000, 0.000000000000000000, 1.000000000000000000 ) ) ;
#160 = EDGE_LOOP ( 'NONE', ( #69, #668 ) ) ;
#161 = CONICAL_SURFACE ( 'NONE', #60, 0.1004999999999999227, 1.029744258676654090 ) ;
#162 = AXIS2_PLACEMENT_3D ( 'NONE', #263, #141, #73 ) ;
#163 = EDGE_CURVE ( 'NONE', #743, #607, #490, .T. ) ;
#164 = ORIENTED_EDGE ( 'NONE', *, *, #684, .T. ) ;
#165 = EDGE_CURVE ( 'NONE', #498, #596, #652, .T. ) ;
#166 = FACE_OUTER_BOUND ( 'NONE', #244, .T. ) ;
#167 = LINE ( 'NONE', #602, #738 ) ;
#168 = ORIENTED_EDGE ( 'NONE', *, *, #703, .F. ) ;
#169 = FACE_OUTER_BOUND ( 'NONE', #538, .T. ) ;
#170 = ORIENTED_EDGE ( 'NONE', *, *, #462, .T. ) ;
#171 = MECHANICAL_DESIGN_GEOMETRIC_PRESENTATION_REPRESENTATION (  '', ( #75 ), #769 ) ;
#172 = CIRCLE ( 'NONE', #183, 2.000000000000000000 ) ;
#173 = CIRCLE ( 'NONE', #185, 0.1249999999999999029 ) ;
#174 = CARTESIAN_POINT ( 'NONE',  ( -0.9842500000000000693, 0.8750000000000000000, -0.8837500000000003686 ) ) ;
#175 = EDGE_CURVE ( 'NONE', #679, #71, #537, .T. ) ;
#176 = CARTESIAN_POINT ( 'NONE',  ( 2.000000000000000000, 0.000000000000000000, 0.1249999999999998612 ) ) ;
#177 = ORIENTED_EDGE ( 'NONE', *, *, #507, .T. ) ;
#178 = CARTESIAN_POINT ( 'NONE',  ( 6.123233995736732756E-17, 0.8750000000000000000, 0.1249999999999993894 ) ) ;
#179 = DIRECTION ( 'NONE',  ( 4.097771990496398279E-16, 4.097771990496393842E-16, 1.000000000000000000 ) ) ;
#180 = VERTEX_POINT ( 'NONE', #687 ) ;
#181 = LINE ( 'NONE', #65, #693 ) ;
#182 = DIRECTION ( 'NONE',  ( 0.000000000000000000, 0.000000000000000000, 1.000000000000000000 ) ) ;
#183 = AXIS2_PLACEMENT_3D ( 'NONE', #426, #302, #308 ) ;
#184 = ADVANCED_FACE ( 'NONE', ( #251 ), #640, .F. ) ;
#185 = AXIS2_PLACEMENT_3D ( 'NONE', #128, #13, #636 ) ;
#186 = DIRECTION ( 'NONE',  ( 0.000000000000000000, 0.000000000000000000, 1.000000000000000000 ) ) ;
#187 = EDGE_LOOP ( 'NONE', ( #357, #297, #762 ) ) ;
#188 = CARTESIAN_POINT ( 'NONE',  ( 0.9842500000000558025, 0.3749999999999999445, 0.9842499999999444471 ) ) ;
#189 = CARTESIAN_POINT ( 'NONE',  ( 0.9842500000000000693, 0.3749999999999999445, -0.9842500000000555804 ) ) ;
#190 = LINE ( 'NONE', #127, #283 ) ;
#191 = EDGE_CURVE ( 'NONE', #626, #767, #449, .T. ) ;
#192 = CARTESIAN_POINT ( 'NONE',  ( -0.9842499999999446691, 0.3749999999999999445, 0.9842500000000000693 ) ) ;
#193 = EDGE_LOOP ( 'NONE', ( #103, #779, #549, #360 ) ) ;
#194 = FACE_OUTER_BOUND ( 'NONE', #468, .T. ) ;
#195 = CARTESIAN_POINT ( 'NONE',  ( 6.123233995736732756E-17, 0.7499999999999998890, 0.1249999999999993894 ) ) ;
#196 = CYLINDRICAL_SURFACE ( 'NONE', #705, 0.1004999999999997840 ) ;
#197 = DIRECTION ( 'NONE',  ( -0.000000000000000000, 1.000000000000000000, -0.000000000000000000 ) ) ;
#198 = AXIS2_PLACEMENT_3D ( 'NONE', #463, #700, #403 ) ;
#199 = CARTESIAN_POINT ( 'NONE',  ( -1.875000000000000000, 0.7499999999999998890, -0.1249999999999993894 ) ) ;
#200 = TOROIDAL_SURFACE ( 'NONE', #122, 1.875000000000000000, 0.1250000000000000000 ) ;
#201 = TOROIDAL_SURFACE ( 'NONE', #256, 1.875000000000000000, 0.1250000000000000000 ) ;
#202 = ADVANCED_FACE ( 'NONE', ( #689 ), #567, .F. ) ;
#203 = DIRECTION ( 'NONE',  ( 0.000000000000000000, 0.000000000000000000, 1.000000000000000000 ) ) ;
#204 = DIRECTION ( 'NONE',  ( 0.000000000000000000, 0.5150380749100544886, 0.8571673007021122226 ) ) ;
#205 = ORIENTED_EDGE ( 'NONE', *, *, #513, .F. ) ;
#206 = CARTESIAN_POINT ( 'NONE',  ( 1.875000000000000000, 0.8750000000000000000, -0.1250000000000001388 ) ) ;
#207 = VERTEX_POINT ( 'NONE', #392 ) ;
#208 = CARTESIAN_POINT ( 'NONE',  ( 6.123233995736732756E-17, 0.8750000000000000000, 1.999999999999999334 ) ) ;
#209 = SHAPE_DEFINITION_REPRESENTATION ( #243, #48 ) ;
#210 = CARTESIAN_POINT ( 'NONE',  ( -0.9842500000000000693, 0.8750000000000000000, -0.9842500000000000693 ) ) ;
#211 = ORIENTED_EDGE ( 'NONE', *, *, #429, .F. ) ;
#212 = FACE_OUTER_BOUND ( 'NONE', #604, .T. ) ;
#213 = PRODUCT_DEFINITION ( 'General', '', #440, #313 ) ;
#214 = VECTOR ( 'NONE', #204, 39.37007874015748143 ) ;
#215 = AXIS2_PLACEMENT_3D ( 'NONE', #192, #573, #186 ) ;
#216 = ORIENTED_EDGE ( 'NONE', *, *, #536, .T. ) ;
#217 = LINE ( 'NONE', #709, #514 ) ;
#218 = PRODUCT ( 'Caudal Potting', 'Caudal Potting', '', ( #480 ) ) ;
#219 = ORIENTED_EDGE ( 'NONE', *, *, #96, .T. ) ;
#220 = CIRCLE ( 'NONE', #338, 0.1004999999999999227 ) ;
#221 = AXIS2_PLACEMENT_3D ( 'NONE', #267, #690, #335 ) ;
#222 = CARTESIAN_POINT ( 'NONE',  ( 1.875000000000000000, 0.7499999999999998890, -0.1250000000000000833 ) ) ;
#223 = CIRCLE ( 'NONE', #533, 0.1249999999999999029 ) ;
#224 = ADVANCED_FACE ( 'NONE', ( #262 ), #402, .F. ) ;
#225 = CARTESIAN_POINT ( 'NONE',  ( 4.592425496802560660E-17, 0.000000000000000000, -0.1249999999999993894 ) ) ;
#226 = ORIENTED_EDGE ( 'NONE', *, *, #476, .F. ) ;
#227 = CARTESIAN_POINT ( 'NONE',  ( -0.9842499999999446691, 0.3749999999999999445, 0.8837500000000001465 ) ) ;
#228 = LINE ( 'NONE', #484, #378 ) ;
#229 = DIRECTION ( 'NONE',  ( 0.000000000000000000, 0.000000000000000000, 1.000000000000000000 ) ) ;
#230 = CARTESIAN_POINT ( 'NONE',  ( 2.000000000000000000, 0.8750000000000000000, -0.1250000000000001388 ) ) ;
#231 = EDGE_LOOP ( 'NONE', ( #168, #766, #635, #11 ) ) ;
#232 =( LENGTH_UNIT ( ) NAMED_UNIT ( * ) SI_UNIT ( $, .METRE. ) );
#233 = ORIENTED_EDGE ( 'NONE', *, *, #154, .F. ) ;
#234 = ADVANCED_FACE ( 'NONE', ( #748 ), #196, .F. ) ;
#235 = DIRECTION ( 'NONE',  ( 0.000000000000000000, 0.000000000000000000, 1.000000000000000000 ) ) ;
#236 = LENGTH_MEASURE_WITH_UNIT ( LENGTH_MEASURE( 0.02539999999999999897 ), #232 );
#237 = AXIS2_PLACEMENT_3D ( 'NONE', #474, #147, #470 ) ;
#238 = AXIS2_PLACEMENT_3D ( 'NONE', #503, #740, #386 ) ;
#239 = PLANE ( 'NONE',  #393 ) ;
#240 = FACE_OUTER_BOUND ( 'NONE', #715, .T. ) ;
#241 = CIRCLE ( 'NONE', #695, 1.875000000000000000 ) ;
#242 = ORIENTED_EDGE ( 'NONE', *, *, #163, .F. ) ;
#243 = PRODUCT_DEFINITION_SHAPE ( 'NONE', 'NONE',  #213 ) ;
#244 = EDGE_LOOP ( 'NONE', ( #326, #44, #472, #23 ) ) ;
#245 = ORIENTED_EDGE ( 'NONE', *, *, #615, .F. ) ;
#246 = ADVANCED_FACE ( 'NONE', ( #80 ), #334, .T. ) ;
#247 = CARTESIAN_POINT ( 'NONE',  ( 0.9842500000000000693, 0.8750000000000000000, -0.9842500000000555804 ) ) ;
#248 = CARTESIAN_POINT ( 'NONE',  ( 0.9842499999999998472, 0.3146135077877302288, -0.9842500000000555804 ) ) ;
#249 = ORIENTED_EDGE ( 'NONE', *, *, #747, .F. ) ;
#250 = CARTESIAN_POINT ( 'NONE',  ( -1.875000000000000000, 0.8750000000000000000, 0.1249999999999990147 ) ) ;
#251 = FACE_OUTER_BOUND ( 'NONE', #187, .T. ) ;
#252 = AXIS2_PLACEMENT_3D ( 'NONE', #38, #98, #286 ) ;
#254 = EDGE_CURVE ( 'NONE', #269, #277, #692, .T. ) ;
#253 = DIRECTION ( 'NONE',  ( -0.000000000000000000, -1.000000000000000000, -0.000000000000000000 ) ) ;
#255 = CONICAL_SURFACE ( 'NONE', #681, 0.1004999999999999227, 1.029744258676654090 ) ;
#256 = AXIS2_PLACEMENT_3D ( 'NONE', #29, #500, #532 ) ;
#257 = FACE_OUTER_BOUND ( 'NONE', #572, .T. ) ;
#258 = ORIENTED_EDGE ( 'NONE', *, *, #507, .F. ) ;
#259 = CARTESIAN_POINT ( 'NONE',  ( 0.9842500000000000693, 0.8750000000000000000, -0.8837500000000559908 ) ) ;
#260 = DIRECTION ( 'NONE',  ( -0.000000000000000000, 1.000000000000000000, -0.000000000000000000 ) ) ;
#261 = DIRECTION ( 'NONE',  ( -0.000000000000000000, -1.000000000000000000, -0.000000000000000000 ) ) ;
#262 = FACE_OUTER_BOUND ( 'NONE', #428, .T. ) ;
#263 = CARTESIAN_POINT ( 'NONE',  ( -0.9842499999999446691, 0.8750000000000000000, 0.9842500000000000693 ) ) ;
#264 = ORIENTED_EDGE ( 'NONE', *, *, #466, .T. ) ;
#265 = DIRECTION ( 'NONE',  ( 0.000000000000000000, 0.000000000000000000, 1.000000000000000000 ) ) ;
#266 = DIRECTION ( 'NONE',  ( 0.000000000000000000, 0.000000000000000000, 1.000000000000000000 ) ) ;
#267 = CARTESIAN_POINT ( 'NONE',  ( -1.875000000000000000, 0.7499999999999998890, 0.1249999999999990286 ) ) ;
#268 = CIRCLE ( 'NONE', #784, 0.1004999999999996452 ) ;
#269 = VERTEX_POINT ( 'NONE', #34 ) ;
#270 = CONICAL_SURFACE ( 'NONE', #351, 0.1004999999999999227, 1.029744258676654090 ) ;
#271 = CARTESIAN_POINT ( 'NONE',  ( -0.9842500000000000693, 0.8750000000000000000, -1.084749999999999659 ) ) ;
#272 = ORIENTED_EDGE ( 'NONE', *, *, #657, .F. ) ;
#273 = AXIS2_PLACEMENT_3D ( 'NONE', #576, #644, #33 ) ;
#274 = VERTEX_POINT ( 'NONE', #32 ) ;
#275 = CYLINDRICAL_SURFACE ( 'NONE', #458, 0.1004999999999997840 ) ;
#276 = EDGE_CURVE ( 'NONE', #401, #71, #217, .T. ) ;
#277 = VERTEX_POINT ( 'NONE', #522 ) ;
#278 = EDGE_CURVE ( 'NONE', #654, #269, #155, .T. ) ;
#279 = FACE_OUTER_BOUND ( 'NONE', #460, .T. ) ;
#280 = DIRECTION ( 'NONE',  ( -0.000000000000000000, 1.000000000000000000, -0.000000000000000000 ) ) ;
#281 = ORIENTED_EDGE ( 'NONE', *, *, #278, .F. ) ;
#282 = VECTOR ( 'NONE', #653, 39.37007874015748143 ) ;
#283 = VECTOR ( 'NONE', #78, 39.37007874015748143 ) ;
#284 = EDGE_LOOP ( 'NONE', ( #674, #219, #746 ) ) ;
#285 = AXIS2_PLACEMENT_3D ( 'NONE', #230, #541, #235 ) ;
#286 = DIRECTION ( 'NONE',  ( 0.000000000000000000, 0.000000000000000000, 1.000000000000000000 ) ) ;
#287 = FACE_OUTER_BOUND ( 'NONE', #76, .T. ) ;
#288 = DIRECTION ( 'NONE',  ( 0.000000000000000000, 0.000000000000000000, 1.000000000000000000 ) ) ;
#289 = ORIENTED_EDGE ( 'NONE', *, *, #462, .F. ) ;
#290 = EDGE_CURVE ( 'NONE', #437, #143, #605, .T. ) ;
#291 = ORIENTED_EDGE ( 'NONE', *, *, #254, .T. ) ;
#292 = CIRCLE ( 'NONE', #86, 2.000000000000000000 ) ;
#293 = CIRCLE ( 'NONE', #221, 0.1249999999999999029 ) ;
#294 = DIRECTION ( 'NONE',  ( 1.000000000000000000, 0.000000000000000000, -4.097771990496397786E-16 ) ) ;
#295 = CIRCLE ( 'NONE', #493, 0.1249999999999999029 ) ;
#296 = CYLINDRICAL_SURFACE ( 'NONE', #430, 0.1004999999999997840 ) ;
#297 = ORIENTED_EDGE ( 'NONE', *, *, #756, .T. ) ;
#298 = DIRECTION ( 'NONE',  ( -0.000000000000000000, 0.000000000000000000, 1.000000000000000000 ) ) ;
#299 = ORIENTED_EDGE ( 'NONE', *, *, #536, .F. ) ;
#300 = FILL_AREA_STYLE_COLOUR ( '', #763 ) ;
#301 = DIRECTION ( 'NONE',  ( 0.000000000000000000, 0.000000000000000000, -1.000000000000000000 ) ) ;
#303 = EDGE_CURVE ( 'NONE', #626, #765, #561, .T. ) ;
#302 = DIRECTION ( 'NONE',  ( 0.000000000000000000, 1.000000000000000000, 0.000000000000000000 ) ) ;
#304 = APPLICATION_PROTOCOL_DEFINITION ( 'draft international standard', 'automotive_design', 1998, #28 ) ;
#305 = VERTEX_POINT ( 'NONE', #227 ) ;
#306 = CYLINDRICAL_SURFACE ( 'NONE', #422, 0.1004999999999997840 ) ;
#307 = DIRECTION ( 'NONE',  ( 1.000000000000000000, 0.000000000000000000, 0.000000000000000000 ) ) ;
#308 = DIRECTION ( 'NONE',  ( 0.000000000000000000, 0.000000000000000000, 1.000000000000000000 ) ) ;
#309 = CARTESIAN_POINT ( 'NONE',  ( 6.123233995736732756E-17, 0.8750000000000000000, 0.1249999999999993894 ) ) ;
#310 = AXIS2_PLACEMENT_3D ( 'NONE', #346, #280, #529 ) ;
#311 = DIRECTION ( 'NONE',  ( 0.000000000000000000, 0.000000000000000000, 1.000000000000000000 ) ) ;
#312 = DIMENSIONAL_EXPONENTS ( 1.000000000000000000, 0.000000000000000000, 0.000000000000000000, 0.000000000000000000, 0.000000000000000000, 0.000000000000000000, 0.000000000000000000 ) ;
#313 = PRODUCT_DEFINITION_CONTEXT ( 'detailed design', #28, 'design' ) ;
#314 = EDGE_CURVE ( 'NONE', #377, #596, #483, .T. ) ;
#315 = MANIFOLD_SOLID_BREP ( 'Fillet1', #349 ) ;
#316 = CARTESIAN_POINT ( 'NONE',  ( -0.9842499999999446691, 0.8750000000000000000, 0.9842500000000000693 ) ) ;
#317 = CARTESIAN_POINT ( 'NONE',  ( -2.000000000000000000, 0.000000000000000000, 0.1249999999999990147 ) ) ;
#318 = ADVANCED_FACE ( 'NONE', ( #15 ), #717, .F. ) ;
#319 = CARTESIAN_POINT ( 'NONE',  ( 0.9842500000000000693, 0.8750000000000000000, -1.084750000000055392 ) ) ;
#320 = DIRECTION ( 'NONE',  ( -1.000000000000000000, 0.000000000000000000, 0.000000000000000000 ) ) ;
#321 = DIRECTION ( 'NONE',  ( -0.000000000000000000, 1.000000000000000000, -0.000000000000000000 ) ) ;
#322 = AXIS2_PLACEMENT_3D ( 'NONE', #222, #179, #294 ) ;
#323 = DIMENSIONAL_EXPONENTS ( 1.000000000000000000, 0.000000000000000000, 0.000000000000000000, 0.000000000000000000, 0.000000000000000000, 0.000000000000000000, 0.000000000000000000 ) ;
#324 = CARTESIAN_POINT ( 'NONE',  ( 0.9842500000000000693, 0.8750000000000000000, -0.9842500000000555804 ) ) ;
#325 = VERTEX_POINT ( 'NONE', #259 ) ;
#326 = ORIENTED_EDGE ( 'NONE', *, *, #589, .F. ) ;
#327 = EDGE_CURVE ( 'NONE', #71, #679, #439, .T. ) ;
#328 = DIRECTION ( 'NONE',  ( -0.000000000000000000, -0.000000000000000000, 1.000000000000000000 ) ) ;
#329 = DIRECTION ( 'NONE',  ( -0.000000000000000000, 1.000000000000000000, -0.000000000000000000 ) ) ;
#330 = EDGE_CURVE ( 'NONE', #729, #143, #97, .T. ) ;
#331 = ORIENTED_EDGE ( 'NONE', *, *, #254, .F. ) ;
#332 = CARTESIAN_POINT ( 'NONE',  ( -0.9842500000000000693, 0.3749999999999999445, -0.8837500000000001465 ) ) ;
#333 = ORIENTED_EDGE ( 'NONE', *, *, #5, .T. ) ;
#334 = CYLINDRICAL_SURFACE ( 'NONE', #237, 2.000000000000000000 ) ;
#335 = DIRECTION ( 'NONE',  ( 1.000000000000000000, 0.000000000000000000, 1.365923996832132595E-16 ) ) ;
#336 = DIRECTION ( 'NONE',  ( -1.000000000000000000, 0.000000000000000000, 0.000000000000000000 ) ) ;
#337 = DIRECTION ( 'NONE',  ( 0.000000000000000000, 1.000000000000000000, 0.000000000000000000 ) ) ;
#338 = AXIS2_PLACEMENT_3D ( 'NONE', #528, #713, #159 ) ;
#339 = CARTESIAN_POINT ( 'NONE',  ( 4.592425496802560660E-17, 0.7499999999999998890, -0.1249999999999993894 ) ) ;
#340 = ORIENTED_EDGE ( 'NONE', *, *, #191, .F. ) ;
#341 = AXIS2_PLACEMENT_3D ( 'NONE', #43, #288, #757 ) ;
#342 = CARTESIAN_POINT ( 'NONE',  ( 1.875000000000000000, 0.8750000000000000000, 0.1249999999999998612 ) ) ;
#343 = ADVANCED_FACE ( 'NONE', ( #579 ), #275, .F. ) ;
#344 = DIRECTION ( 'NONE',  ( 0.000000000000000000, 0.000000000000000000, 1.000000000000000000 ) ) ;
#345 = EDGE_CURVE ( 'NONE', #84, #482, #686, .T. ) ;
#346 = CARTESIAN_POINT ( 'NONE',  ( 0.9842500000000000693, 0.8750000000000000000, -0.9842500000000555804 ) ) ;
#347 = VERTEX_POINT ( 'NONE', #208 ) ;
#348 = DIRECTION ( 'NONE',  ( 0.000000000000000000, 1.000000000000000000, 0.000000000000000000 ) ) ;
#349 = CLOSED_SHELL ( 'NONE', ( #772, #343, #355, #375, #318, #417, #448, #52, #105, #246, #519, #102, #678, #663, #31, #83, #586, #224, #184, #621, #383, #234, #39, #202, #722, #694, #716, #391 ) ) ;
#350 = VECTOR ( 'NONE', #363, 39.37007874015748143 ) ;
#351 = AXIS2_PLACEMENT_3D ( 'NONE', #450, #329, #568 ) ;
#352 = LINE ( 'NONE', #149, #491 ) ;
#353 = CIRCLE ( 'NONE', #273, 1.875000000000000000 ) ;
#354 = FACE_BOUND ( 'NONE', #160, .T. ) ;
#355 = ADVANCED_FACE ( 'NONE', ( #465 ), #255, .F. ) ;
#356 =( NAMED_UNIT ( * ) SI_UNIT ( $, .STERADIAN. ) SOLID_ANGLE_UNIT ( ) );
#357 = ORIENTED_EDGE ( 'NONE', *, *, #290, .F. ) ;
#358 = ORIENTED_EDGE ( 'NONE', *, *, #434, .T. ) ;
#359 = CARTESIAN_POINT ( 'NONE',  ( 1.875000000000000000, 0.7499999999999998890, -0.1249999999999993894 ) ) ;
#360 = ORIENTED_EDGE ( 'NONE', *, *, #345, .T. ) ;
#361 = CARTESIAN_POINT ( 'NONE',  ( 4.592425496802560660E-17, 0.7499999999999998890, -2.124999999999999112 ) ) ;
#362 = CIRCLE ( 'NONE', #162, 0.1004999999999995203 ) ;
#363 = DIRECTION ( 'NONE',  ( -0.000000000000000000, 1.000000000000000000, -0.000000000000000000 ) ) ;
#364 = DIRECTION ( 'NONE',  ( 0.000000000000000000, 1.000000000000000000, 0.000000000000000000 ) ) ;
#365 = ORIENTED_EDGE ( 'NONE', *, *, #26, .T. ) ;
#366 = PLANE ( 'NONE',  #285 ) ;
#367 = EDGE_LOOP ( 'NONE', ( #258, #614, #152 ) ) ;
#368 = DIRECTION ( 'NONE',  ( -0.000000000000000000, -1.000000000000000000, -0.000000000000000000 ) ) ;
#369 = CARTESIAN_POINT ( 'NONE',  ( 6.123233995736732756E-17, 0.7499999999999998890, 2.124999999999999112 ) ) ;
#370 = VERTEX_POINT ( 'NONE', #342 ) ;
#371 = DIRECTION ( 'NONE',  ( -0.000000000000000000, 1.000000000000000000, -0.000000000000000000 ) ) ;
#372 = UNCERTAINTY_MEASURE_WITH_UNIT (LENGTH_MEASURE( 1.000000000000000082E-05 ), #711, 'distance_accuracy_value', 'NONE');
#373 =( NAMED_UNIT ( * ) PLANE_ANGLE_UNIT ( ) SI_UNIT ( $, .RADIAN. ) );
#374 = CARTESIAN_POINT ( 'NONE',  ( -0.9842500000000000693, 0.8750000000000000000, -0.8837500000000002576 ) ) ;
#375 = ADVANCED_FACE ( 'NONE', ( #212 ), #469, .F. ) ;
#376 = ORIENTED_EDGE ( 'NONE', *, *, #276, .T. ) ;
#377 = VERTEX_POINT ( 'NONE', #714 ) ;
#378 = VECTOR ( 'NONE', #53, 39.37007874015748143 ) ;
#379 = AXIS2_PLACEMENT_3D ( 'NONE', #534, #100, #656 ) ;
#380 = CIRCLE ( 'NONE', #77, 2.000000000000000000 ) ;
#381 = CARTESIAN_POINT ( 'NONE',  ( -1.875000000000000000, 0.8750000000000000000, 0.1249999999999990286 ) ) ;
#382 = ORIENTED_EDGE ( 'NONE', *, *, #17, .T. ) ;
#383 = ADVANCED_FACE ( 'NONE', ( #287 ), #550, .F. ) ;
#384 = DIRECTION ( 'NONE',  ( 0.000000000000000000, 1.000000000000000000, 0.000000000000000000 ) ) ;
#385 = ORIENTED_EDGE ( 'NONE', *, *, #87, .F. ) ;
#386 = DIRECTION ( 'NONE',  ( 0.000000000000000000, 0.000000000000000000, 1.000000000000000000 ) ) ;
#387 = CARTESIAN_POINT ( 'NONE',  ( 0.9842500000000558025, 0.3749999999999999445, 0.9842499999999444471 ) ) ;
#388 = FACE_OUTER_BOUND ( 'NONE', #231, .T. ) ;
#389 = CARTESIAN_POINT ( 'NONE',  ( 2.000000000000000000, 0.000000000000000000, -0.1250000000000001388 ) ) ;
#390 = CARTESIAN_POINT ( 'NONE',  ( 2.000000000000000000, 0.8750000000000000000, -0.1250000000000001388 ) ) ;
#391 = ADVANCED_FACE ( 'NONE', ( #116 ), #1, .T. ) ;
#392 = CARTESIAN_POINT ( 'NONE',  ( 0.9842500000000558025, 0.8750000000000000000, 0.8837499999999447464 ) ) ;
#393 = AXIS2_PLACEMENT_3D ( 'NONE', #225, #364, #598 ) ;
#394 = CYLINDRICAL_SURFACE ( 'NONE', #593, 2.000000000000000000 ) ;
#395 = AXIS2_PLACEMENT_3D ( 'NONE', #387, #457, #20 ) ;
#396 = CARTESIAN_POINT ( 'NONE',  ( 6.123233995736732756E-17, 0.000000000000000000, 0.1249999999999993894 ) ) ;
#397 = ORIENTED_EDGE ( 'NONE', *, *, #634, .T. ) ;
#398 = DIRECTION ( 'NONE',  ( 0.000000000000000000, 0.000000000000000000, 1.000000000000000000 ) ) ;
#399 = LINE ( 'NONE', #390, #14 ) ;
#400 = DIRECTION ( 'NONE',  ( -8.881784197001252323E-16, 0.000000000000000000, 1.000000000000000000 ) ) ;
#401 = VERTEX_POINT ( 'NONE', #248 ) ;
#402 = CYLINDRICAL_SURFACE ( 'NONE', #591, 0.1004999999999996452 ) ;
#403 = DIRECTION ( 'NONE',  ( 0.000000000000000000, 0.000000000000000000, 1.000000000000000000 ) ) ;
#404 = EDGE_CURVE ( 'NONE', #207, #274, #47, .T. ) ;
#405 = DIRECTION ( 'NONE',  ( 0.000000000000000000, 1.000000000000000000, 0.000000000000000000 ) ) ;
#406 = VERTEX_POINT ( 'NONE', #612 ) ;
#407 = DIRECTION ( 'NONE',  ( 0.000000000000000000, 0.000000000000000000, 1.000000000000000000 ) ) ;
#408 = AXIS2_PLACEMENT_3D ( 'NONE', #425, #307, #301 ) ;
#409 = CIRCLE ( 'NONE', #504, 0.1004999999999996452 ) ;
#410 = ORIENTED_EDGE ( 'NONE', *, *, #615, .T. ) ;
#411 = VECTOR ( 'NONE', #667, 39.37007874015748143 ) ;
#412 = EDGE_CURVE ( 'NONE', #758, #74, #752, .T. ) ;
#413 = DIRECTION ( 'NONE',  ( 0.000000000000000000, -0.000000000000000000, 1.000000000000000000 ) ) ;
#414 = VERTEX_POINT ( 'NONE', #369 ) ;
#415 = CARTESIAN_POINT ( 'NONE',  ( -0.9842500000000000693, 0.8750000000000000000, -1.084749999999999881 ) ) ;
#416 = ORIENTED_EDGE ( 'NONE', *, *, #497, .T. ) ;
#417 = ADVANCED_FACE ( 'NONE', ( #499 ), #296, .F. ) ;
#418 = CARTESIAN_POINT ( 'NONE',  ( -0.9842500000000000693, 0.3749999999999999445, -1.084749999999999881 ) ) ;
#419 = VECTOR ( 'NONE', #151, 39.37007874015748143 ) ;
#420 = VERTEX_POINT ( 'NONE', #317 ) ;
#421 = CONICAL_SURFACE ( 'NONE', #706, 0.1004999999999999227, 1.029744258676654090 ) ;
#422 = AXIS2_PLACEMENT_3D ( 'NONE', #104, #371, #595 ) ;
#423 = ORIENTED_EDGE ( 'NONE', *, *, #96, .F. ) ;
#424 = ORIENTED_EDGE ( 'NONE', *, *, #703, .T. ) ;
#425 = CARTESIAN_POINT ( 'NONE',  ( -2.000000000000000000, 0.8750000000000000000, -0.1250000000000001110 ) ) ;
#426 = CARTESIAN_POINT ( 'NONE',  ( 4.592425496802560660E-17, 0.000000000000000000, -0.1249999999999993894 ) ) ;
#427 = ORIENTED_EDGE ( 'NONE', *, *, #485, .F. ) ;
#428 = EDGE_LOOP ( 'NONE', ( #211, #560, #489, #119 ) ) ;
#429 = EDGE_CURVE ( 'NONE', #305, #498, #167, .T. ) ;
#430 = AXIS2_PLACEMENT_3D ( 'NONE', #67, #721, #229 ) ;
#431 = FACE_OUTER_BOUND ( 'NONE', #284, .T. ) ;
#432 = DIRECTION ( 'NONE',  ( -0.000000000000000000, -1.000000000000000000, -0.000000000000000000 ) ) ;
#433 = CARTESIAN_POINT ( 'NONE',  ( 0.9842500000000000693, 0.3749999999999999445, -1.084750000000055614 ) ) ;
#434 = EDGE_CURVE ( 'NONE', #482, #269, #172, .T. ) ;
#435 = ORIENTED_EDGE ( 'NONE', *, *, #314, .F. ) ;
#436 = CARTESIAN_POINT ( 'NONE',  ( 2.000000000000000000, 0.7499999999999998890, -0.1250000000000001388 ) ) ;
#437 = VERTEX_POINT ( 'NONE', #544 ) ;
#438 = AXIS2_PLACEMENT_3D ( 'NONE', #601, #677, #773 ) ;
#439 = CIRCLE ( 'NONE', #238, 0.1004999999999999227 ) ;
#440 = PRODUCT_DEFINITION_FORMATION_WITH_SPECIFIED_SOURCE ( 'Symmetric', '', #218, .NOT_KNOWN. ) ;
#441 = LINE ( 'NONE', #415, #282 ) ;
#442 = DIRECTION ( 'NONE',  ( 0.000000000000000000, 0.000000000000000000, 1.000000000000000000 ) ) ;
#443 = ORIENTED_EDGE ( 'NONE', *, *, #175, .F. ) ;
#444 = DIRECTION ( 'NONE',  ( -0.000000000000000000, 1.000000000000000000, -0.000000000000000000 ) ) ;
#445 = CARTESIAN_POINT ( 'NONE',  ( 2.000000000000000000, 0.8750000000000000000, 0.1249999999999998612 ) ) ;
#446 = ORIENTED_EDGE ( 'NONE', *, *, #589, .T. ) ;
#447 = DIRECTION ( 'NONE',  ( 0.000000000000000000, 0.000000000000000000, 1.000000000000000000 ) ) ;
#448 = ADVANCED_FACE ( 'NONE', ( #240 ), #421, .F. ) ;
#449 = LINE ( 'NONE', #136, #454 ) ;
#450 = CARTESIAN_POINT ( 'NONE',  ( -0.9842499999999446691, 0.3749999999999999445, 0.9842500000000000693 ) ) ;
#451 = ORIENTED_EDGE ( 'NONE', *, *, #603, .F. ) ;
#452 = FACE_OUTER_BOUND ( 'NONE', #737, .T. ) ;
#453 = ORIENTED_EDGE ( 'NONE', *, *, #412, .F. ) ;
#454 = VECTOR ( 'NONE', #328, 39.37007874015748143 ) ;
#455 = DIRECTION ( 'NONE',  ( -0.000000000000000000, 1.000000000000000000, -0.000000000000000000 ) ) ;
#456 = AXIS2_PLACEMENT_3D ( 'NONE', #61, #774, #311 ) ;
#457 = DIRECTION ( 'NONE',  ( -0.000000000000000000, 1.000000000000000000, -0.000000000000000000 ) ) ;
#458 = AXIS2_PLACEMENT_3D ( 'NONE', #518, #616, #85 ) ;
#459 = VECTOR ( 'NONE', #298, 39.37007874015748143 ) ;
#460 = EDGE_LOOP ( 'NONE', ( #555, #177, #624 ) ) ;
#461 = LINE ( 'NONE', #571, #641 ) ;
#462 = EDGE_CURVE ( 'NONE', #121, #732, #293, .T. ) ;
#463 = CARTESIAN_POINT ( 'NONE',  ( 0.9842500000000000693, 0.8750000000000000000, -0.9842500000000555804 ) ) ;
#464 = CARTESIAN_POINT ( 'NONE',  ( 2.000000000000000000, 0.7499999999999998890, 0.1249999999999998612 ) ) ;
#465 = FACE_OUTER_BOUND ( 'NONE', #367, .T. ) ;
#466 = EDGE_CURVE ( 'NONE', #143, #207, #461, .T. ) ;
#467 = FACE_OUTER_BOUND ( 'NONE', #776, .T. ) ;
#468 = EDGE_LOOP ( 'NONE', ( #423, #365, #95 ) ) ;
#469 = CYLINDRICAL_SURFACE ( 'NONE', #310, 0.1004999999999997840 ) ;
#470 = DIRECTION ( 'NONE',  ( 0.000000000000000000, 0.000000000000000000, -1.000000000000000000 ) ) ;
#471 = VECTOR ( 'NONE', #650, 39.37007874015748143 ) ;
#472 = ORIENTED_EDGE ( 'NONE', *, *, #646, .T. ) ;
#473 = ORIENTED_EDGE ( 'NONE', *, *, #657, .T. ) ;
#474 = CARTESIAN_POINT ( 'NONE',  ( 4.592425496802560660E-17, 0.8750000000000000000, -0.1249999999999993894 ) ) ;
#475 = PRODUCT_RELATED_PRODUCT_CATEGORY ( 'part', '', ( #218 ) ) ;
#476 = EDGE_CURVE ( 'NONE', #143, #729, #562, .T. ) ;
#477 = FACE_OUTER_BOUND ( 'NONE', #521, .T. ) ;
#478 = ORIENTED_EDGE ( 'NONE', *, *, #154, .T. ) ;
#479 = DIRECTION ( 'NONE',  ( 0.000000000000000000, 0.5150380749100544886, 0.8571673007021122226 ) ) ;
#480 = PRODUCT_CONTEXT ( 'NONE', #719, 'mechanical' ) ;
#481 = AXIS2_PLACEMENT_3D ( 'NONE', #309, #112, #730 ) ;
#482 = VERTEX_POINT ( 'NONE', #696 ) ;
#483 = LINE ( 'NONE', #659, #350 ) ;
#484 = CARTESIAN_POINT ( 'NONE',  ( -0.9842499999999446691, 0.3749999999999999445, 0.8837500000000001465 ) ) ;
#485 = EDGE_CURVE ( 'NONE', #767, #84, #21, .T. ) ;
#486 = ORIENTED_EDGE ( 'NONE', *, *, #404, .F. ) ;
#487 = FACE_OUTER_BOUND ( 'NONE', #488, .T. ) ;
#488 = EDGE_LOOP ( 'NONE', ( #427, #164, #685, #446, #645 ) ) ;
#489 = ORIENTED_EDGE ( 'NONE', *, *, #314, .T. ) ;
#490 = CIRCLE ( 'NONE', #24, 0.1004999999999996452 ) ;
#491 = VECTOR ( 'NONE', #761, 39.37007874015748143 ) ;
#492 =( CONVERSION_BASED_UNIT ( 'INCH', #236 ) LENGTH_UNIT ( ) NAMED_UNIT ( #312 ) );
#493 = AXIS2_PLACEMENT_3D ( 'NONE', #3, #556, #8 ) ;
#494 = CARTESIAN_POINT ( 'NONE',  ( 0.9842500000000558025, 0.8750000000000000000, 1.084749999999944148 ) ) ;
#495 = DIRECTION ( 'NONE',  ( -0.000000000000000000, 1.000000000000000000, -0.000000000000000000 ) ) ;
#496 = ORIENTED_EDGE ( 'NONE', *, *, #669, .T. ) ;
#497 = EDGE_CURVE ( 'NONE', #679, #734, #516, .T. ) ;
#498 = VERTEX_POINT ( 'NONE', #753 ) ;
#499 = FACE_OUTER_BOUND ( 'NONE', #157, .T. ) ;
#500 = DIRECTION ( 'NONE',  ( 0.000000000000000000, 1.000000000000000000, 0.000000000000000000 ) ) ;
#501 = EDGE_CURVE ( 'NONE', #596, #498, #362, .T. ) ;
#502 = CIRCLE ( 'NONE', #198, 0.1004999999999996452 ) ;
#503 = CARTESIAN_POINT ( 'NONE',  ( 0.9842500000000000693, 0.3749999999999999445, -0.9842500000000555804 ) ) ;
#504 = AXIS2_PLACEMENT_3D ( 'NONE', #683, #197, #564 ) ;
#505 = CIRCLE ( 'NONE', #594, 1.875000000000000000 ) ;
#506 = CARTESIAN_POINT ( 'NONE',  ( 0.9842500000000000693, 0.8750000000000000000, -0.8837500000000558797 ) ) ;
#507 = EDGE_CURVE ( 'NONE', #406, #758, #511, .T. ) ;
#508 = DIRECTION ( 'NONE',  ( 0.000000000000000000, 0.000000000000000000, 1.000000000000000000 ) ) ;
#509 = VERTEX_POINT ( 'NONE', #558 ) ;
#510 = DIRECTION ( 'NONE',  ( -0.000000000000000000, 1.000000000000000000, -0.000000000000000000 ) ) ;
#511 = LINE ( 'NONE', #688, #214 ) ;
#512 = CARTESIAN_POINT ( 'NONE',  ( -2.000000000000000000, 0.000000000000000000, -0.1250000000000001110 ) ) ;
#513 = EDGE_CURVE ( 'NONE', #274, #207, #409, .T. ) ;
#514 = VECTOR ( 'NONE', #479, 39.37007874015748143 ) ;
#515 = VECTOR ( 'NONE', #741, 39.37007874015748143 ) ;
#516 = LINE ( 'NONE', #319, #515 ) ;
#517 = LINE ( 'NONE', #754, #642 ) ;
#518 = CARTESIAN_POINT ( 'NONE',  ( -0.9842500000000000693, 0.8750000000000000000, -0.9842500000000000693 ) ) ;
#519 = ADVANCED_FACE ( 'NONE', ( #618 ), #394, .T. ) ;
#520 = ORIENTED_EDGE ( 'NONE', *, *, #708, .T. ) ;
#521 = EDGE_LOOP ( 'NONE', ( #397, #588, #524, #101, #473 ) ) ;
#522 = CARTESIAN_POINT ( 'NONE',  ( -2.000000000000000000, 0.000000000000000000, -0.1250000000000001110 ) ) ;
#523 = CARTESIAN_POINT ( 'NONE',  ( -0.9842499999999446691, 0.3749999999999999445, 1.084749999999999881 ) ) ;
#524 = ORIENTED_EDGE ( 'NONE', *, *, #603, .T. ) ;
#525 = ORIENTED_EDGE ( 'NONE', *, *, #278, .T. ) ;
#526 = CARTESIAN_POINT ( 'NONE',  ( 4.592425496802560660E-17, 0.8750000000000000000, -2.124999999999999112 ) ) ;
#527 = PRESENTATION_LAYER_ASSIGNMENT (  '', '', ( #75 ) ) ;
#528 = CARTESIAN_POINT ( 'NONE',  ( -0.9842499999999446691, 0.3749999999999999445, 0.9842500000000000693 ) ) ;
#529 = DIRECTION ( 'NONE',  ( 0.000000000000000000, 0.000000000000000000, 1.000000000000000000 ) ) ;
#530 = VECTOR ( 'NONE', #81, 39.37007874015748143 ) ;
#531 = EDGE_CURVE ( 'NONE', #71, #325, #68, .T. ) ;
#532 = DIRECTION ( 'NONE',  ( 0.000000000000000000, 0.000000000000000000, 1.000000000000000000 ) ) ;
#533 = AXIS2_PLACEMENT_3D ( 'NONE', #144, #70, #320 ) ;
#534 = CARTESIAN_POINT ( 'NONE',  ( 0.9842500000000000693, 0.3749999999999999445, -0.9842500000000555804 ) ) ;
#535 = PLANE ( 'NONE',  #735 ) ;
#536 = EDGE_CURVE ( 'NONE', #325, #734, #37, .T. ) ;
#537 = CIRCLE ( 'NONE', #582, 0.1004999999999999227 ) ;
#538 = EDGE_LOOP ( 'NONE', ( #583, #592, #585, #124 ) ) ;
#539 = PRESENTATION_STYLE_ASSIGNMENT (( #781 ) ) ;
#540 = EDGE_CURVE ( 'NONE', #626, #482, #399, .T. ) ;
#541 = DIRECTION ( 'NONE',  ( -1.000000000000000000, 0.000000000000000000, 0.000000000000000000 ) ) ;
#542 = EDGE_LOOP ( 'NONE', ( #56, #424, #566, #170 ) ) ;
#543 = FILL_AREA_STYLE ('',( #300 ) ) ;
#544 = CARTESIAN_POINT ( 'NONE',  ( 0.9842500000000555804, 0.3146135077877302288, 0.9842499999999444471 ) ) ;
#545 = ORIENTED_EDGE ( 'NONE', *, *, #290, .T. ) ;
#546 = ORIENTED_EDGE ( 'NONE', *, *, #125, .F. ) ;
#547 = CARTESIAN_POINT ( 'NONE',  ( 0.9842500000000558025, 0.3749999999999999445, 0.9842499999999444471 ) ) ;
#548 = EDGE_CURVE ( 'NONE', #732, #41, #633, .T. ) ;
#549 = ORIENTED_EDGE ( 'NONE', *, *, #485, .T. ) ;
#550 = CONICAL_SURFACE ( 'NONE', #379, 0.1004999999999999227, 1.029744258676654090 ) ;
#551 = DIRECTION ( 'NONE',  ( -0.000000000000000000, 1.000000000000000000, -0.000000000000000000 ) ) ;
#552 = LINE ( 'NONE', #109, #135 ) ;
#553 = ORIENTED_EDGE ( 'NONE', *, *, #163, .T. ) ;
#554 = DIRECTION ( 'NONE',  ( -0.000000000000000000, 1.000000000000000000, -0.000000000000000000 ) ) ;
#555 = ORIENTED_EDGE ( 'NONE', *, *, #557, .F. ) ;
#556 = DIRECTION ( 'NONE',  ( 0.000000000000000000, 0.000000000000000000, -1.000000000000000000 ) ) ;
#557 = EDGE_CURVE ( 'NONE', #406, #74, #190, .T. ) ;
#558 = CARTESIAN_POINT ( 'NONE',  ( -1.875000000000000000, 0.8750000000000000000, -0.1250000000000001110 ) ) ;
#559 = CARTESIAN_POINT ( 'NONE',  ( -2.000000000000000000, 0.7499999999999998890, 0.1249999999999990147 ) ) ;
#560 = ORIENTED_EDGE ( 'NONE', *, *, #72, .F. ) ;
#561 = CIRCLE ( 'NONE', #322, 0.1249999999999999029 ) ;
#562 = CIRCLE ( 'NONE', #395, 0.1004999999999999227 ) ;
#563 = CARTESIAN_POINT ( 'NONE',  ( 0.9842500000000558025, 0.3749999999999999445, 0.9842499999999444471 ) ) ;
#565 = EDGE_CURVE ( 'NONE', #74, #758, #665, .T. ) ;
#564 = DIRECTION ( 'NONE',  ( 0.000000000000000000, 0.000000000000000000, 1.000000000000000000 ) ) ;
#566 = ORIENTED_EDGE ( 'NONE', *, *, #634, .F. ) ;
#567 = CYLINDRICAL_SURFACE ( 'NONE', #751, 0.1004999999999997840 ) ;
#568 = DIRECTION ( 'NONE',  ( 0.000000000000000000, 0.000000000000000000, 1.000000000000000000 ) ) ;
#569 = CARTESIAN_POINT ( 'NONE',  ( 4.592425496802560660E-17, 0.8750000000000000000, -0.1249999999999993894 ) ) ;
#570 = ORIENTED_EDGE ( 'NONE', *, *, #303, .F. ) ;
#571 = CARTESIAN_POINT ( 'NONE',  ( 0.9842500000000558025, 0.8750000000000000000, 0.8837499999999446354 ) ) ;
#572 = EDGE_LOOP ( 'NONE', ( #520, #750, #570, #385, #771 ) ) ;
#573 = DIRECTION ( 'NONE',  ( -0.000000000000000000, 1.000000000000000000, -0.000000000000000000 ) ) ;
#574 = ORIENTED_EDGE ( 'NONE', *, *, #718, .F. ) ;
#575 = CIRCLE ( 'NONE', #215, 0.1004999999999999227 ) ;
#576 = CARTESIAN_POINT ( 'NONE',  ( 6.123233995736732756E-17, 0.8750000000000000000, 0.1249999999999993894 ) ) ;
#577 = ORIENTED_EDGE ( 'NONE', *, *, #327, .F. ) ;
#578 = DIRECTION ( 'NONE',  ( 0.000000000000000000, 0.000000000000000000, 1.000000000000000000 ) ) ;
#579 = FACE_OUTER_BOUND ( 'NONE', #134, .T. ) ;
#580 = DIRECTION ( 'NONE',  ( -0.000000000000000000, 1.000000000000000000, -0.000000000000000000 ) ) ;
#581 = ORIENTED_EDGE ( 'NONE', *, *, #531, .T. ) ;
#582 = AXIS2_PLACEMENT_3D ( 'NONE', #189, #622, #182 ) ;
#583 = ORIENTED_EDGE ( 'NONE', *, *, #466, .F. ) ;
#584 = AXIS2_PLACEMENT_3D ( 'NONE', #339, #697, #139 ) ;
#585 = ORIENTED_EDGE ( 'NONE', *, *, #125, .T. ) ;
#586 = ADVANCED_FACE ( 'NONE', ( #194 ), #270, .F. ) ;
#587 = FACE_BOUND ( 'NONE', #82, .T. ) ;
#588 = ORIENTED_EDGE ( 'NONE', *, *, #775, .T. ) ;
#589 = EDGE_CURVE ( 'NONE', #732, #420, #352, .T. ) ;
#590 = DIRECTION ( 'NONE',  ( 0.000000000000000000, -0.000000000000000000, 1.000000000000000000 ) ) ;
#591 = AXIS2_PLACEMENT_3D ( 'NONE', #316, #510, #6 ) ;
#592 = ORIENTED_EDGE ( 'NONE', *, *, #330, .F. ) ;
#593 = AXIS2_PLACEMENT_3D ( 'NONE', #749, #745, #123 ) ;
#594 = AXIS2_PLACEMENT_3D ( 'NONE', #569, #405, #265 ) ;
#595 = DIRECTION ( 'NONE',  ( 0.000000000000000000, 0.000000000000000000, 1.000000000000000000 ) ) ;
#596 = VERTEX_POINT ( 'NONE', #609 ) ;
#597 = SURFACE_STYLE_FILL_AREA ( #543 ) ;
#598 = DIRECTION ( 'NONE',  ( 0.000000000000000000, -0.000000000000000000, 1.000000000000000000 ) ) ;
#599 = ORIENTED_EDGE ( 'NONE', *, *, #646, .F. ) ;
#600 = DIRECTION ( 'NONE',  ( 1.049727191138618449E-16, 0.5150380749100544886, -0.8571673007021122226 ) ) ;
#601 = CARTESIAN_POINT ( 'NONE',  ( 4.592425496802560660E-17, 0.7499999999999998890, -0.1249999999999993894 ) ) ;
#603 = EDGE_CURVE ( 'NONE', #370, #765, #181, .T. ) ;
#602 = CARTESIAN_POINT ( 'NONE',  ( -0.9842499999999446691, 0.8750000000000000000, 0.8837500000000003686 ) ) ;
#604 = EDGE_LOOP ( 'NONE', ( #443, #416, #333, #704 ) ) ;
#605 = LINE ( 'NONE', #57, #106 ) ;
#606 = CARTESIAN_POINT ( 'NONE',  ( 0.9842500000000558025, 0.3749999999999999445, 0.8837499999999445244 ) ) ;
#607 = VERTEX_POINT ( 'NONE', #174 ) ;
#608 = AXIS2_PLACEMENT_3D ( 'NONE', #35, #710, #344 ) ;
#609 = CARTESIAN_POINT ( 'NONE',  ( -0.9842499999999446691, 0.8750000000000000000, 1.084749999999999437 ) ) ;
#610 = AXIS2_PLACEMENT_3D ( 'NONE', #623, #131, #508 ) ;
#611 = AXIS2_PLACEMENT_3D ( 'NONE', #396, #736, #442 ) ;
#612 = CARTESIAN_POINT ( 'NONE',  ( -0.9842500000000001803, 0.3146135077877302288, -0.9842500000000000693 ) ) ;
#613 = DIRECTION ( 'NONE',  ( 0.000000000000000000, 0.000000000000000000, 1.000000000000000000 ) ) ;
#614 = ORIENTED_EDGE ( 'NONE', *, *, #557, .T. ) ;
#615 = EDGE_CURVE ( 'NONE', #401, #679, #552, .T. ) ;
#616 = DIRECTION ( 'NONE',  ( -0.000000000000000000, 1.000000000000000000, -0.000000000000000000 ) ) ;
#617 = CARTESIAN_POINT ( 'NONE',  ( -0.9842499999999446691, 0.8750000000000000000, 0.9842500000000000693 ) ) ;
#618 = FACE_OUTER_BOUND ( 'NONE', #649, .T. ) ;
#619 = DIRECTION ( 'NONE',  ( -0.000000000000000000, -1.000000000000000000, -0.000000000000000000 ) ) ;
#620 = EDGE_LOOP ( 'NONE', ( #676, #453, #478, #778 ) ) ;
#621 = ADVANCED_FACE ( 'NONE', ( #169 ), #306, .F. ) ;
#622 = DIRECTION ( 'NONE',  ( -0.000000000000000000, 1.000000000000000000, -0.000000000000000000 ) ) ;
#623 = CARTESIAN_POINT ( 'NONE',  ( -0.9842500000000000693, 0.3749999999999999445, -0.9842500000000000693 ) ) ;
#624 = ORIENTED_EDGE ( 'NONE', *, *, #412, .T. ) ;
#625 = DIRECTION ( 'NONE',  ( 0.000000000000000000, 1.000000000000000000, 0.000000000000000000 ) ) ;
#626 = VERTEX_POINT ( 'NONE', #436 ) ;
#627 = VECTOR ( 'NONE', #261, 39.37007874015748143 ) ;
#628 =( GEOMETRIC_REPRESENTATION_CONTEXT ( 3 ) GLOBAL_UNCERTAINTY_ASSIGNED_CONTEXT ( ( #372 ) ) GLOBAL_UNIT_ASSIGNED_CONTEXT ( ( #711, #40, #356 ) ) REPRESENTATION_CONTEXT ( 'NONE', 'WORKASPACE' ) );
#629 = DIRECTION ( 'NONE',  ( -0.000000000000000000, 1.000000000000000000, -0.000000000000000000 ) ) ;
#630 = DIRECTION ( 'NONE',  ( 0.000000000000000000, 0.5150380749100544886, 0.8571673007021122226 ) ) ;
#631 = ORIENTED_EDGE ( 'NONE', *, *, #434, .F. ) ;
#632 = DIRECTION ( 'NONE',  ( -0.000000000000000000, 1.000000000000000000, -0.000000000000000000 ) ) ;
#633 = LINE ( 'NONE', #137, #530 ) ;
#634 = EDGE_CURVE ( 'NONE', #121, #347, #241, .T. ) ;
#635 = ORIENTED_EDGE ( 'NONE', *, *, #643, .F. ) ;
#636 = DIRECTION ( 'NONE',  ( 0.000000000000000000, 0.000000000000000000, 1.000000000000000000 ) ) ;
#637 = ORIENTED_EDGE ( 'NONE', *, *, #345, .F. ) ;
#638 = FACE_OUTER_BOUND ( 'NONE', #542, .T. ) ;
#639 = ORIENTED_EDGE ( 'NONE', *, *, #5, .F. ) ;
#640 = CONICAL_SURFACE ( 'NONE', #46, 0.1004999999999999227, 1.029744258676654090 ) ;
#641 = VECTOR ( 'NONE', #699, 39.37007874015748143 ) ;
#642 = VECTOR ( 'NONE', #630, 39.37007874015748143 ) ;
#643 = EDGE_CURVE ( 'NONE', #370, #767, #295, .T. ) ;
#644 = DIRECTION ( 'NONE',  ( 0.000000000000000000, 1.000000000000000000, 0.000000000000000000 ) ) ;
#645 = ORIENTED_EDGE ( 'NONE', *, *, #747, .T. ) ;
#646 = EDGE_CURVE ( 'NONE', #41, #277, #723, .T. ) ;
#647 = CYLINDRICAL_SURFACE ( 'NONE', #252, 0.1004999999999996452 ) ;
#648 =( LENGTH_UNIT ( ) NAMED_UNIT ( * ) SI_UNIT ( $, .METRE. ) );
#649 = EDGE_LOOP ( 'NONE', ( #281, #724, #113, #358 ) ) ;
#650 = DIRECTION ( 'NONE',  ( -0.000000000000000000, -1.000000000000000000, -0.000000000000000000 ) ) ;
#651 = FACE_BOUND ( 'NONE', #30, .T. ) ;
#652 = CIRCLE ( 'NONE', #132, 0.1004999999999995203 ) ;
#653 = DIRECTION ( 'NONE',  ( -0.000000000000000000, 1.000000000000000000, -0.000000000000000000 ) ) ;
#654 = VERTEX_POINT ( 'NONE', #361 ) ;
#655 = LINE ( 'NONE', #523, #419 ) ;
#656 = DIRECTION ( 'NONE',  ( 0.000000000000000000, 0.000000000000000000, 1.000000000000000000 ) ) ;
#657 = EDGE_CURVE ( 'NONE', #509, #121, #50, .T. ) ;
#658 = ORIENTED_EDGE ( 'NONE', *, *, #497, .F. ) ;
#659 = CARTESIAN_POINT ( 'NONE',  ( -0.9842499999999446691, 0.8750000000000000000, 1.084749999999999659 ) ) ;
#660 = ORIENTED_EDGE ( 'NONE', *, *, #404, .T. ) ;
#661 = DIRECTION ( 'NONE',  ( 1.049727191138618449E-16, 0.5150380749100544886, -0.8571673007021122226 ) ) ;
#662 = DIRECTION ( 'NONE',  ( -0.000000000000000000, 1.000000000000000000, -0.000000000000000000 ) ) ;
#663 = ADVANCED_FACE ( 'NONE', ( #786 ), #366, .F. ) ;
#664 = ORIENTED_EDGE ( 'NONE', *, *, #708, .F. ) ;
#665 = CIRCLE ( 'NONE', #610, 0.1004999999999999227 ) ;
#666 = CIRCLE ( 'NONE', #611, 2.000000000000000000 ) ;
#667 = DIRECTION ( 'NONE',  ( -0.000000000000000000, -1.000000000000000000, -0.000000000000000000 ) ) ;
#668 = ORIENTED_EDGE ( 'NONE', *, *, #165, .F. ) ;
#669 = EDGE_CURVE ( 'NONE', #41, #654, #63, .T. ) ;
#670 = DIRECTION ( 'NONE',  ( -0.000000000000000000, 1.000000000000000000, -0.000000000000000000 ) ) ;
#671 = DIRECTION ( 'NONE',  ( 1.000000000000000000, 0.000000000000000000, 0.000000000000000000 ) ) ;
#672 = ORIENTED_EDGE ( 'NONE', *, *, #303, .T. ) ;
#673 = DIRECTION ( 'NONE',  ( 0.000000000000000000, 0.000000000000000000, 1.000000000000000000 ) ) ;
#674 = ORIENTED_EDGE ( 'NONE', *, *, #26, .F. ) ;
#675 = DIRECTION ( 'NONE',  ( 0.000000000000000000, 0.000000000000000000, 1.000000000000000000 ) ) ;
#676 = ORIENTED_EDGE ( 'NONE', *, *, #17, .F. ) ;
#677 = DIRECTION ( 'NONE',  ( -0.000000000000000000, -1.000000000000000000, -0.000000000000000000 ) ) ;
#678 = ADVANCED_FACE ( 'NONE', ( #487 ), #777, .T. ) ;
#679 = VERTEX_POINT ( 'NONE', #433 ) ;
#680 = CONICAL_SURFACE ( 'NONE', #608, 0.1004999999999999227, 1.029744258676654090 ) ;
#681 = AXIS2_PLACEMENT_3D ( 'NONE', #145, #759, #407 ) ;
#682 = DIRECTION ( 'NONE',  ( -0.000000000000000000, 1.000000000000000000, -0.000000000000000000 ) ) ;
#683 = CARTESIAN_POINT ( 'NONE',  ( 0.9842500000000558025, 0.8750000000000000000, 0.9842499999999444471 ) ) ;
#684 = EDGE_CURVE ( 'NONE', #767, #414, #380, .T. ) ;
#685 = ORIENTED_EDGE ( 'NONE', *, *, #142, .T. ) ;
#686 = LINE ( 'NONE', #389, #107 ) ;
#687 = CARTESIAN_POINT ( 'NONE',  ( -0.9842499999999448912, 0.3146135077877302288, 0.9842500000000000693 ) ) ;
#688 = CARTESIAN_POINT ( 'NONE',  ( -0.9842500000000000693, 0.3749999999999999445, -0.8837500000000001465 ) ) ;
#689 = FACE_OUTER_BOUND ( 'NONE', #620, .T. ) ;
#690 = DIRECTION ( 'NONE',  ( -1.365923996832132842E-16, 0.000000000000000000, 1.000000000000000000 ) ) ;
#691 = CYLINDRICAL_SURFACE ( 'NONE', #770, 0.1249999999999999029 ) ;
#692 = CIRCLE ( 'NONE', #12, 2.000000000000000000 ) ;
#693 = VECTOR ( 'NONE', #55, 39.37007874015748143 ) ;
#694 = ADVANCED_FACE ( 'NONE', ( #388 ), #200, .T. ) ;
#695 = AXIS2_PLACEMENT_3D ( 'NONE', #178, #384, #613 ) ;
#696 = CARTESIAN_POINT ( 'NONE',  ( 2.000000000000000000, 0.000000000000000000, -0.1250000000000001388 ) ) ;
#697 = DIRECTION ( 'NONE',  ( 0.000000000000000000, 1.000000000000000000, 0.000000000000000000 ) ) ;
#698 = CARTESIAN_POINT ( 'NONE',  ( -0.9842500000000000693, 0.8750000000000000000, -0.9842500000000000693 ) ) ;
#699 = DIRECTION ( 'NONE',  ( -0.000000000000000000, 1.000000000000000000, -0.000000000000000000 ) ) ;
#700 = DIRECTION ( 'NONE',  ( -0.000000000000000000, 1.000000000000000000, -0.000000000000000000 ) ) ;
#701 =( NAMED_UNIT ( * ) SI_UNIT ( $, .STERADIAN. ) SOLID_ANGLE_UNIT ( ) );
#702 = CARTESIAN_POINT ( 'NONE',  ( 4.592425496802560660E-17, 0.8750000000000000000, -0.1249999999999993894 ) ) ;
#703 = EDGE_CURVE ( 'NONE', #414, #347, #173, .T. ) ;
#704 = ORIENTED_EDGE ( 'NONE', *, *, #531, .F. ) ;
#705 = AXIS2_PLACEMENT_3D ( 'NONE', #247, #455, #398 ) ;
#706 = AXIS2_PLACEMENT_3D ( 'NONE', #547, #495, #728 ) ;
#707 = ORIENTED_EDGE ( 'NONE', *, *, #548, .F. ) ;
#708 = EDGE_CURVE ( 'NONE', #41, #509, #223, .T. ) ;
#709 = CARTESIAN_POINT ( 'NONE',  ( 0.9842500000000000693, 0.3749999999999999445, -0.8837500000000556577 ) ) ;
#710 = DIRECTION ( 'NONE',  ( -0.000000000000000000, 1.000000000000000000, -0.000000000000000000 ) ) ;
#711 =( CONVERSION_BASED_UNIT ( 'INCH', #93 ) LENGTH_UNIT ( ) NAMED_UNIT ( #323 ) );
#712 = EDGE_LOOP ( 'NONE', ( #299, #639 ) ) ;
#713 = DIRECTION ( 'NONE',  ( -0.000000000000000000, 1.000000000000000000, -0.000000000000000000 ) ) ;
#714 = CARTESIAN_POINT ( 'NONE',  ( -0.9842499999999446691, 0.3749999999999999445, 1.084749999999999881 ) ) ;
#715 = EDGE_LOOP ( 'NONE', ( #4, #545, #140 ) ) ;
#716 = ADVANCED_FACE ( 'NONE', ( #257 ), #27, .T. ) ;
#717 = CONICAL_SURFACE ( 'NONE', #726, 0.1004999999999999227, 1.029744258676654090 ) ;
#718 = EDGE_CURVE ( 'NONE', #277, #420, #18, .T. ) ;
#719 = APPLICATION_CONTEXT ( 'automotive_design' ) ;
#720 = FACE_OUTER_BOUND ( 'NONE', #94, .T. ) ;
#721 = DIRECTION ( 'NONE',  ( -0.000000000000000000, 1.000000000000000000, -0.000000000000000000 ) ) ;
#722 = ADVANCED_FACE ( 'NONE', ( #452 ), #691, .T. ) ;
#723 = LINE ( 'NONE', #780, #411 ) ;
#724 = ORIENTED_EDGE ( 'NONE', *, *, #87, .T. ) ;
#725 = ORIENTED_EDGE ( 'NONE', *, *, #429, .T. ) ;
#726 = AXIS2_PLACEMENT_3D ( 'NONE', #45, #682, #91 ) ;
#727 = CARTESIAN_POINT ( 'NONE',  ( 4.592425496802560660E-17, 0.7499999999999998890, -0.1249999999999993894 ) ) ;
#728 = DIRECTION ( 'NONE',  ( 0.000000000000000000, 0.000000000000000000, 1.000000000000000000 ) ) ;
#729 = VERTEX_POINT ( 'NONE', #79 ) ;
#730 = DIRECTION ( 'NONE',  ( 0.000000000000000000, 0.000000000000000000, -1.000000000000000000 ) ) ;
#731 = EDGE_LOOP ( 'NONE', ( #19, #410, #785 ) ) ;
#732 = VERTEX_POINT ( 'NONE', #559 ) ;
#733 = EDGE_CURVE ( 'NONE', #305, #377, #575, .T. ) ;
#734 = VERTEX_POINT ( 'NONE', #22 ) ;
#735 = AXIS2_PLACEMENT_3D ( 'NONE', #702, #348, #413 ) ;
#736 = DIRECTION ( 'NONE',  ( 0.000000000000000000, 1.000000000000000000, 0.000000000000000000 ) ) ;
#737 = EDGE_LOOP ( 'NONE', ( #664, #707, #289, #272 ) ) ;
#738 = VECTOR ( 'NONE', #59, 39.37007874015748143 ) ;
#739 = VECTOR ( 'NONE', #133, 39.37007874015748143 ) ;
#740 = DIRECTION ( 'NONE',  ( -0.000000000000000000, 1.000000000000000000, -0.000000000000000000 ) ) ;
#741 = DIRECTION ( 'NONE',  ( -0.000000000000000000, 1.000000000000000000, -0.000000000000000000 ) ) ;
#742 = DIRECTION ( 'NONE',  ( 0.000000000000000000, 0.000000000000000000, -1.000000000000000000 ) ) ;
#743 = VERTEX_POINT ( 'NONE', #271 ) ;
#744 = DIRECTION ( 'NONE',  ( 0.000000000000000000, 0.000000000000000000, 1.000000000000000000 ) ) ;
#745 = DIRECTION ( 'NONE',  ( -0.000000000000000000, -1.000000000000000000, -0.000000000000000000 ) ) ;
#746 = ORIENTED_EDGE ( 'NONE', *, *, #733, .T. ) ;
#747 = EDGE_CURVE ( 'NONE', #420, #84, #666, .T. ) ;
#748 = FACE_OUTER_BOUND ( 'NONE', #138, .T. ) ;
#749 = CARTESIAN_POINT ( 'NONE',  ( 4.592425496802560660E-17, 0.8750000000000000000, -0.1249999999999993894 ) ) ;
#750 = ORIENTED_EDGE ( 'NONE', *, *, #760, .F. ) ;
#751 = AXIS2_PLACEMENT_3D ( 'NONE', #698, #632, #130 ) ;
#752 = CIRCLE ( 'NONE', #25, 0.1004999999999999227 ) ;
#753 = CARTESIAN_POINT ( 'NONE',  ( -0.9842499999999446691, 0.8750000000000000000, 0.8837500000000004796 ) ) ;
#754 = CARTESIAN_POINT ( 'NONE',  ( 0.9842500000000558025, 0.3749999999999999445, 1.084749999999944370 ) ) ;
#755 = DIRECTION ( 'NONE',  ( -0.000000000000000000, -0.000000000000000000, -1.000000000000000000 ) ) ;
#756 = EDGE_CURVE ( 'NONE', #437, #729, #517, .T. ) ;
#757 = DIRECTION ( 'NONE',  ( 1.000000000000000000, 0.000000000000000000, 0.000000000000000000 ) ) ;
#758 = VERTEX_POINT ( 'NONE', #332 ) ;
#759 = DIRECTION ( 'NONE',  ( -0.000000000000000000, 1.000000000000000000, -0.000000000000000000 ) ) ;
#760 = EDGE_CURVE ( 'NONE', #765, #509, #505, .T. ) ;
#761 = DIRECTION ( 'NONE',  ( -0.000000000000000000, -1.000000000000000000, -0.000000000000000000 ) ) ;
#762 = ORIENTED_EDGE ( 'NONE', *, *, #330, .T. ) ;
#763 = COLOUR_RGB ( '',0.7921568627450980005, 0.8196078431372548767, 0.9333333333333333481 ) ;
#764 = VECTOR ( 'NONE', #16, 39.37007874015748143 ) ;
#765 = VERTEX_POINT ( 'NONE', #206 ) ;
#766 = ORIENTED_EDGE ( 'NONE', *, *, #684, .F. ) ;
#767 = VERTEX_POINT ( 'NONE', #464 ) ;
#768 = CIRCLE ( 'NONE', #438, 2.000000000000000000 ) ;
#769 =( GEOMETRIC_REPRESENTATION_CONTEXT ( 3 ) GLOBAL_UNCERTAINTY_ASSIGNED_CONTEXT ( ( #146 ) ) GLOBAL_UNIT_ASSIGNED_CONTEXT ( ( #492, #373, #701 ) ) REPRESENTATION_CONTEXT ( 'NONE', 'WORKASPACE' ) );
#770 = AXIS2_PLACEMENT_3D ( 'NONE', #199, #742, #336 ) ;
#771 = ORIENTED_EDGE ( 'NONE', *, *, #669, .F. ) ;
#772 = ADVANCED_FACE ( 'NONE', ( #638 ), #201, .T. ) ;
#773 = DIRECTION ( 'NONE',  ( -8.881784197001252323E-16, 0.000000000000000000, 1.000000000000000000 ) ) ;
#775 = EDGE_CURVE ( 'NONE', #347, #370, #353, .T. ) ;
#774 = DIRECTION ( 'NONE',  ( -0.000000000000000000, 1.000000000000000000, -0.000000000000000000 ) ) ;
#776 = EDGE_LOOP ( 'NONE', ( #99, #725, #51, #435 ) ) ;
#777 = CYLINDRICAL_SURFACE ( 'NONE', #481, 2.000000000000000000 ) ;
#778 = ORIENTED_EDGE ( 'NONE', *, *, #64, .T. ) ;
#779 = ORIENTED_EDGE ( 'NONE', *, *, #191, .T. ) ;
#780 = CARTESIAN_POINT ( 'NONE',  ( -2.000000000000000000, 0.8750000000000000000, -0.1250000000000001110 ) ) ;
#781 = SURFACE_STYLE_USAGE ( .BOTH. , #114 ) ;
#782 = CARTESIAN_POINT ( 'NONE',  ( -0.9842499999999446691, 0.3749999999999999445, 0.9842500000000000693 ) ) ;
#783 = VECTOR ( 'NONE', #551, 39.37007874015748143 ) ;
#784 = AXIS2_PLACEMENT_3D ( 'NONE', #210, #580, #148 ) ;
#785 = ORIENTED_EDGE ( 'NONE', *, *, #175, .T. ) ;
#786 = FACE_OUTER_BOUND ( 'NONE', #193, .T. ) ;
ENDSEC;
END-ISO-10303-21;
