ISO-10303-21;
HEADER;
FILE_DESCRIPTION (( 'STEP AP214' ),
    '1' );
FILE_NAME ('Gantry Block.STEP',
    '2026-02-20T19:34:19',
    ( '' ),
    ( '' ),
    'SwSTEP 2.0',
    'SolidWorks 2025',
    '' );
FILE_SCHEMA (( 'AUTOMOTIVE_DESIGN' ));
ENDSEC;

DATA;
#1 = DIRECTION ( 'NONE',  ( 0.000000000000000000, -1.000000000000000000, 0.000000000000000000 ) ) ;
#2 = VERTEX_POINT ( 'NONE', #101 ) ;
#3 = LINE ( 'NONE', #516, #91 ) ;
#4 = ORIENTED_EDGE ( 'NONE', *, *, #582, .F. ) ;
#5 = EDGE_CURVE ( 'NONE', #623, #308, #325, .T. ) ;
#6 = DIRECTION ( 'NONE',  ( 0.8320502943378439431, -0.000000000000000000, -0.5547001962252285923 ) ) ;
#7 = CARTESIAN_POINT ( 'NONE',  ( 1.750000000000000000, 0.8699999999999999956, 0.2499999999999989730 ) ) ;
#8 = ORIENTED_EDGE ( 'NONE', *, *, #526, .T. ) ;
#9 = DIRECTION ( 'NONE',  ( -0.000000000000000000, -0.000000000000000000, 1.000000000000000000 ) ) ;
#10 = CARTESIAN_POINT ( 'NONE',  ( -0.6874999999999998890, 0.000000000000000000, 0.1200411617643741824 ) ) ;
#11 = DIRECTION ( 'NONE',  ( -0.000000000000000000, -0.000000000000000000, 1.000000000000000000 ) ) ;
#12 = FACE_OUTER_BOUND ( 'NONE', #329, .T. ) ;
#13 = DIMENSIONAL_EXPONENTS ( 1.000000000000000000, 0.000000000000000000, 0.000000000000000000, 0.000000000000000000, 0.000000000000000000, 0.000000000000000000, 0.000000000000000000 ) ;
#14 = FACE_OUTER_BOUND ( 'NONE', #555, .T. ) ;
#15 = VECTOR ( 'NONE', #554, 39.37007874015748143 ) ;
#16 = PLANE ( 'NONE',  #445 ) ;
#17 = ORIENTED_EDGE ( 'NONE', *, *, #377, .T. ) ;
#18 = LINE ( 'NONE', #333, #596 ) ;
#19 =( NAMED_UNIT ( * ) SI_UNIT ( $, .STERADIAN. ) SOLID_ANGLE_UNIT ( ) );
#20 = ORIENTED_EDGE ( 'NONE', *, *, #598, .F. ) ;
#21 = EDGE_CURVE ( 'NONE', #299, #494, #425, .T. ) ;
#22 = AXIS2_PLACEMENT_3D ( 'NONE', #217, #435, #210 ) ;
#23 = ORIENTED_EDGE ( 'NONE', *, *, #388, .F. ) ;
#24 = DIRECTION ( 'NONE',  ( -0.000000000000000000, -1.000000000000000000, -0.000000000000000000 ) ) ;
#25 = CARTESIAN_POINT ( 'NONE',  ( -1.375000000000001110, 0.4269999999999999907, -0.2500000000000001110 ) ) ;
#26 = CARTESIAN_POINT ( 'NONE',  ( -1.750000000000000222, 0.4269999999999999907, -0.2500000000000000555 ) ) ;
#27 = DIRECTION ( 'NONE',  ( -0.000000000000000000, -0.000000000000000000, 1.000000000000000000 ) ) ;
#28 = LINE ( 'NONE', #250, #517 ) ;
#29 = AXIS2_PLACEMENT_3D ( 'NONE', #328, #589, #155 ) ;
#30 = ADVANCED_FACE ( 'NONE', ( #12 ), #496, .F. ) ;
#31 = MECHANICAL_DESIGN_GEOMETRIC_PRESENTATION_REPRESENTATION (  '', ( #569 ), #258 ) ;
#32 = ORIENTED_EDGE ( 'NONE', *, *, #305, .T. ) ;
#33 = ORIENTED_EDGE ( 'NONE', *, *, #284, .T. ) ;
#34 = LINE ( 'NONE', #462, #71 ) ;
#35 = ORIENTED_EDGE ( 'NONE', *, *, #535, .F. ) ;
#36 = CYLINDRICAL_SURFACE ( 'NONE', #373, 0.1064999999999996644 ) ;
#37 = DIRECTION ( 'NONE',  ( -0.000000000000000000, -0.000000000000000000, 1.000000000000000000 ) ) ;
#38 = AXIS2_PLACEMENT_3D ( 'NONE', #342, #541, #167 ) ;
#39 = AXIS2_PLACEMENT_3D ( 'NONE', #40, #102, #469 ) ;
#40 = CARTESIAN_POINT ( 'NONE',  ( -1.375000000000000000, 0.8699999999999999956, -0.3750000000000001110 ) ) ;
#41 = DIRECTION ( 'NONE',  ( 2.731847993664263218E-16, -0.000000000000000000, 1.000000000000000000 ) ) ;
#42 = CARTESIAN_POINT ( 'NONE',  ( -1.750000000000000000, 0.8699999999999999956, 0.2500000000000000555 ) ) ;
#43 = DIRECTION ( 'NONE',  ( 0.000000000000000000, 1.000000000000000000, 0.000000000000000000 ) ) ;
#44 = VERTEX_POINT ( 'NONE', #280 ) ;
#45 = CARTESIAN_POINT ( 'NONE',  ( -1.375000000000001110, 0.4269999999999999907, -0.2500000000000001110 ) ) ;
#46 = CARTESIAN_POINT ( 'NONE',  ( 0.6875000000000001110, 0.8699999999999999956, -0.3849588382356259331 ) ) ;
#47 = LINE ( 'NONE', #439, #649 ) ;
#48 = DIRECTION ( 'NONE',  ( 1.000000000000000000, 0.000000000000000000, 0.000000000000000000 ) ) ;
#49 = ADVANCED_FACE ( 'NONE', ( #447 ), #231, .F. ) ;
#50 = VECTOR ( 'NONE', #190, 39.37007874015748143 ) ;
#51 = DIRECTION ( 'NONE',  ( 0.000000000000000000, 0.000000000000000000, 1.000000000000000000 ) ) ;
#52 = CIRCLE ( 'NONE', #548, 0.2524999999999999467 ) ;
#53 = DIRECTION ( 'NONE',  ( 0.000000000000000000, 1.000000000000000000, -0.000000000000000000 ) ) ;
#54 = CARTESIAN_POINT ( 'NONE',  ( -1.750000000000000222, 0.4269999999999999907, -0.7500000000000001110 ) ) ;
#55 = DIRECTION ( 'NONE',  ( -0.000000000000000000, -1.000000000000000000, -0.000000000000000000 ) ) ;
#56 = FACE_BOUND ( 'NONE', #506, .T. ) ;
#57 = DIRECTION ( 'NONE',  ( 0.000000000000000000, 0.000000000000000000, 1.000000000000000000 ) ) ;
#58 = ORIENTED_EDGE ( 'NONE', *, *, #21, .F. ) ;
#59 = EDGE_CURVE ( 'NONE', #202, #326, #557, .T. ) ;
#60 = CARTESIAN_POINT ( 'NONE',  ( -1.750000000000000000, 0.8699999999999999956, 0.2500000000000000555 ) ) ;
#61 = LINE ( 'NONE', #125, #689 ) ;
#62 = ORIENTED_EDGE ( 'NONE', *, *, #100, .F. ) ;
#63 = CIRCLE ( 'NONE', #256, 0.1064999999999995395 ) ;
#64 =( LENGTH_UNIT ( ) NAMED_UNIT ( * ) SI_UNIT ( $, .METRE. ) );
#65 = CARTESIAN_POINT ( 'NONE',  ( -1.750000000000000222, 0.4269999999999999907, -0.7500000000000001110 ) ) ;
#66 = DIRECTION ( 'NONE',  ( 0.000000000000000000, 0.000000000000000000, 1.000000000000000000 ) ) ;
#67 = EDGE_CURVE ( 'NONE', #641, #76, #61, .T. ) ;
#68 = ORIENTED_EDGE ( 'NONE', *, *, #153, .F. ) ;
#69 = DIRECTION ( 'NONE',  ( -0.000000000000000000, -0.000000000000000000, 1.000000000000000000 ) ) ;
#70 = ADVANCED_FACE ( 'NONE', ( #56, #387 ), #132, .F. ) ;
#71 = VECTOR ( 'NONE', #591, 39.37007874015748854 ) ;
#72 = DIRECTION ( 'NONE',  ( 1.000000000000000000, 0.000000000000000000, 0.000000000000000000 ) ) ;
#73 = ORIENTED_EDGE ( 'NONE', *, *, #88, .T. ) ;
#74 = DIRECTION ( 'NONE',  ( 0.000000000000000000, 0.000000000000000000, 1.000000000000000000 ) ) ;
#75 = CARTESIAN_POINT ( 'NONE',  ( -1.750000000000000222, 0.000000000000000000, -0.7500000000000001110 ) ) ;
#76 = VERTEX_POINT ( 'NONE', #75 ) ;
#77 = ADVANCED_FACE ( 'NONE', ( #412, #622, #451, #355 ), #504, .F. ) ;
#78 = DIRECTION ( 'NONE',  ( -0.000000000000000000, -1.000000000000000000, -0.000000000000000000 ) ) ;
#79 = VECTOR ( 'NONE', #154, 39.37007874015748143 ) ;
#80 = AXIS2_PLACEMENT_3D ( 'NONE', #60, #112, #108 ) ;
#81 = ORIENTED_EDGE ( 'NONE', *, *, #59, .F. ) ;
#82 = FACE_BOUND ( 'NONE', #556, .T. ) ;
#83 = ORIENTED_EDGE ( 'NONE', *, *, #644, .T. ) ;
#84 = EDGE_CURVE ( 'NONE', #512, #550, #138, .T. ) ;
#85 = ORIENTED_EDGE ( 'NONE', *, *, #297, .T. ) ;
#86 = ORIENTED_EDGE ( 'NONE', *, *, #671, .T. ) ;
#87 = DIRECTION ( 'NONE',  ( 0.000000000000000000, 0.000000000000000000, 1.000000000000000000 ) ) ;
#88 = EDGE_CURVE ( 'NONE', #422, #558, #105, .T. ) ;
#89 = CARTESIAN_POINT ( 'NONE',  ( -0.6874999999999998890, -4.818985154644824200E-17, 0.6175411617643741247 ) ) ;
#90 = AXIS2_PLACEMENT_3D ( 'NONE', #244, #454, #357 ) ;
#91 = VECTOR ( 'NONE', #271, 39.37007874015748143 ) ;
#92 = UNCERTAINTY_MEASURE_WITH_UNIT (LENGTH_MEASURE( 1.000000000000000082E-05 ), #120, 'distance_accuracy_value', 'NONE');
#93 = CARTESIAN_POINT ( 'NONE',  ( -0.1673228346456691329, 0.4349999999999999978, 0.7499999999999992228 ) ) ;
#94 = LINE ( 'NONE', #472, #303 ) ;
#95 =( CONVERSION_BASED_UNIT ( 'INCH', #267 ) LENGTH_UNIT ( ) NAMED_UNIT ( #13 ) );
#96 = VERTEX_POINT ( 'NONE', #296 ) ;
#97 = CARTESIAN_POINT ( 'NONE',  ( -1.750000000000000222, 0.8699999999999999956, -0.7500000000000001110 ) ) ;
#98 = DIRECTION ( 'NONE',  ( 0.000000000000000000, 0.000000000000000000, -1.000000000000000000 ) ) ;
#100 = EDGE_CURVE ( 'NONE', #149, #682, #339, .T. ) ;
#99 = FILL_AREA_STYLE ('',( #257 ) ) ;
#101 = CARTESIAN_POINT ( 'NONE',  ( 0.1673228346456691051, 0.4349999999999999978, -0.7500000000000001110 ) ) ;
#102 = DIRECTION ( 'NONE',  ( 0.000000000000000000, 1.000000000000000000, -0.000000000000000000 ) ) ;
#103 = ORIENTED_EDGE ( 'NONE', *, *, #284, .F. ) ;
#104 = VERTEX_POINT ( 'NONE', #564 ) ;
#105 = CIRCLE ( 'NONE', #173, 0.1673228346456692439 ) ;
#106 = AXIS2_PLACEMENT_3D ( 'NONE', #514, #37, #48 ) ;
#107 = DIRECTION ( 'NONE',  ( -0.000000000000000000, -0.000000000000000000, 1.000000000000000000 ) ) ;
#108 = DIRECTION ( 'NONE',  ( -2.731847993664263218E-16, 0.000000000000000000, -1.000000000000000000 ) ) ;
#109 = ORIENTED_EDGE ( 'NONE', *, *, #243, .F. ) ;
#110 = EDGE_CURVE ( 'NONE', #96, #247, #28, .T. ) ;
#111 = CYLINDRICAL_SURFACE ( 'NONE', #341, 0.1673228346456691606 ) ;
#112 = DIRECTION ( 'NONE',  ( 1.000000000000000000, 0.000000000000000000, -2.731847993664263218E-16 ) ) ;
#113 = ORIENTED_EDGE ( 'NONE', *, *, #174, .T. ) ;
#114 = DIRECTION ( 'NONE',  ( 1.000000000000000000, 0.000000000000000000, -8.195543980992791628E-16 ) ) ;
#115 = CARTESIAN_POINT ( 'NONE',  ( 0.6875000000000001110, 0.000000000000000000, -0.1324588382356259586 ) ) ;
#116 = ORIENTED_EDGE ( 'NONE', *, *, #360, .T. ) ;
#117 = VECTOR ( 'NONE', #676, 39.37007874015748143 ) ;
#118 = AXIS2_PLACEMENT_3D ( 'NONE', #423, #57, #609 ) ;
#119 = CYLINDRICAL_SURFACE ( 'NONE', #38, 0.1249999999999999584 ) ;
#120 =( CONVERSION_BASED_UNIT ( 'INCH', #123 ) LENGTH_UNIT ( ) NAMED_UNIT ( #286 ) );
#121 = CARTESIAN_POINT ( 'NONE',  ( -0.6874999999999998890, -4.818985154644824200E-17, 0.6175411617643741247 ) ) ;
#122 = ORIENTED_EDGE ( 'NONE', *, *, #324, .T. ) ;
#123 = LENGTH_MEASURE_WITH_UNIT ( LENGTH_MEASURE( 0.02539999999999999897 ), #64 );
#124 = EDGE_CURVE ( 'NONE', #413, #326, #361, .T. ) ;
#125 = CARTESIAN_POINT ( 'NONE',  ( -1.750000000000000222, 0.000000000000000000, -0.7500000000000001110 ) ) ;
#126 = PLANE ( 'NONE',  #518 ) ;
#127 = PRODUCT_DEFINITION_CONTEXT ( 'detailed design', #449, 'design' ) ;
#128 = FACE_OUTER_BOUND ( 'NONE', #410, .T. ) ;
#129 = CARTESIAN_POINT ( 'NONE',  ( 3.414809992080304987E-17, 0.4349999999999999978, 0.7499999999999992228 ) ) ;
#130 = LINE ( 'NONE', #330, #249 ) ;
#131 = CIRCLE ( 'NONE', #187, 0.2524999999999999467 ) ;
#132 = PLANE ( 'NONE',  #151 ) ;
#133 = ORIENTED_EDGE ( 'NONE', *, *, #397, .T. ) ;
#134 = EDGE_CURVE ( 'NONE', #494, #96, #34, .T. ) ;
#135 = CARTESIAN_POINT ( 'NONE',  ( -1.250000000000000000, 0.8699999999999999956, -0.7500000000000001110 ) ) ;
#136 = ORIENTED_EDGE ( 'NONE', *, *, #162, .T. ) ;
#137 = LINE ( 'NONE', #26, #50 ) ;
#138 = LINE ( 'NONE', #614, #490 ) ;
#139 = EDGE_LOOP ( 'NONE', ( #367, #315, #20, #188 ) ) ;
#140 = CIRCLE ( 'NONE', #427, 0.2524999999999999467 ) ;
#141 = ADVANCED_FACE ( 'NONE', ( #524 ), #686, .F. ) ;
#142 = AXIS2_PLACEMENT_3D ( 'NONE', #375, #376, #681 ) ;
#143 = EDGE_LOOP ( 'NONE', ( #566, #331, #259, #651 ) ) ;
#144 = PRODUCT_DEFINITION ( 'General', '', #608, #127 ) ;
#145 = EDGE_LOOP ( 'NONE', ( #321, #618, #366, #639 ) ) ;
#146 = DIRECTION ( 'NONE',  ( 0.000000000000000000, 1.000000000000000000, -0.000000000000000000 ) ) ;
#147 = CARTESIAN_POINT ( 'NONE',  ( -0.9999999999999998890, 0.8699999999999999956, 0.7500000000000001110 ) ) ;
#148 = SURFACE_STYLE_FILL_AREA ( #99 ) ;
#149 = VERTEX_POINT ( 'NONE', #46 ) ;
#150 = EDGE_LOOP ( 'NONE', ( #223, #620 ) ) ;
#151 = AXIS2_PLACEMENT_3D ( 'NONE', #300, #571, #511 ) ;
#152 = CARTESIAN_POINT ( 'NONE',  ( -1.750000000000000222, 0.8699999999999999956, -0.7500000000000001110 ) ) ;
#153 = EDGE_CURVE ( 'NONE', #562, #211, #163, .T. ) ;
#154 = DIRECTION ( 'NONE',  ( -0.000000000000000000, -1.000000000000000000, -0.000000000000000000 ) ) ;
#155 = DIRECTION ( 'NONE',  ( 0.000000000000000000, 0.000000000000000000, -1.000000000000000000 ) ) ;
#156 = EDGE_LOOP ( 'NONE', ( #687, #424, #17, #662 ) ) ;
#157 = CARTESIAN_POINT ( 'NONE',  ( -1.750000000000000000, 0.8699999999999999956, 0.2500000000000000555 ) ) ;
#158 = LINE ( 'NONE', #318, #281 ) ;
#159 = VERTEX_POINT ( 'NONE', #195 ) ;
#160 = CARTESIAN_POINT ( 'NONE',  ( -1.250000000000000000, 0.8699999999999999956, -0.3750000000000009992 ) ) ;
#161 = CARTESIAN_POINT ( 'NONE',  ( -0.6874999999999998890, 0.000000000000000000, -0.3849588382356258220 ) ) ;
#162 = EDGE_CURVE ( 'NONE', #682, #149, #140, .T. ) ;
#163 = CIRCLE ( 'NONE', #595, 0.2524999999999999467 ) ;
#164 = ORIENTED_EDGE ( 'NONE', *, *, #463, .T. ) ;
#165 = VECTOR ( 'NONE', #335, 39.37007874015748143 ) ;
#166 = DIRECTION ( 'NONE',  ( 1.000000000000000000, 0.000000000000000000, 0.000000000000000000 ) ) ;
#167 = DIRECTION ( 'NONE',  ( 0.000000000000000000, 0.000000000000000000, 1.000000000000000000 ) ) ;
#168 = DIRECTION ( 'NONE',  ( 0.8320502943378439431, -0.000000000000000000, -0.5547001962252285923 ) ) ;
#169 = EDGE_CURVE ( 'NONE', #580, #96, #629, .T. ) ;
#170 = ORIENTED_EDGE ( 'NONE', *, *, #671, .F. ) ;
#171 = CARTESIAN_POINT ( 'NONE',  ( 0.6875000000000001110, 0.000000000000000000, -0.3849588382356259331 ) ) ;
#172 = CARTESIAN_POINT ( 'NONE',  ( -1.250000000000000000, 0.4269999999999999907, -0.7500000000000001110 ) ) ;
#173 = AXIS2_PLACEMENT_3D ( 'NONE', #129, #27, #72 ) ;
#174 = EDGE_CURVE ( 'NONE', #509, #358, #269, .T. ) ;
#175 = VECTOR ( 'NONE', #277, 39.37007874015748143 ) ;
#176 = CARTESIAN_POINT ( 'NONE',  ( 1.749999999999999556, 0.8699999999999999956, -0.7500000000000001110 ) ) ;
#177 = CARTESIAN_POINT ( 'NONE',  ( 1.750000000000000000, 0.8699999999999999956, 0.2499999999999989730 ) ) ;
#178 = CARTESIAN_POINT ( 'NONE',  ( -0.6874999999999998890, 0.000000000000000000, -0.1324588382356257921 ) ) ;
#179 = ORIENTED_EDGE ( 'NONE', *, *, #388, .T. ) ;
#180 = DIRECTION ( 'NONE',  ( 1.000000000000000000, 0.000000000000000000, 0.000000000000000000 ) ) ;
#181 = DIRECTION ( 'NONE',  ( 0.000000000000000000, -1.000000000000000000, 0.000000000000000000 ) ) ;
#182 = EDGE_LOOP ( 'NONE', ( #307, #458, #83, #282 ) ) ;
#183 = PLANE ( 'NONE',  #238 ) ;
#184 = EDGE_CURVE ( 'NONE', #326, #202, #63, .T. ) ;
#185 = ORIENTED_EDGE ( 'NONE', *, *, #21, .T. ) ;
#186 = AXIS2_PLACEMENT_3D ( 'NONE', #450, #563, #621 ) ;
#187 = AXIS2_PLACEMENT_3D ( 'NONE', #688, #43, #87 ) ;
#188 = ORIENTED_EDGE ( 'NONE', *, *, #372, .T. ) ;
#189 = ORIENTED_EDGE ( 'NONE', *, *, #553, .T. ) ;
#190 = DIRECTION ( 'NONE',  ( -0.000000000000000000, -0.000000000000000000, 1.000000000000000000 ) ) ;
#191 = ORIENTED_EDGE ( 'NONE', *, *, #627, .F. ) ;
#192 = DIRECTION ( 'NONE',  ( -0.000000000000000000, 1.000000000000000000, -0.000000000000000000 ) ) ;
#193 = EDGE_CURVE ( 'NONE', #76, #494, #584, .T. ) ;
#194 = VECTOR ( 'NONE', #78, 39.37007874015748143 ) ;
#195 = CARTESIAN_POINT ( 'NONE',  ( -1.250000000000000000, 0.4269999999999999907, -0.3750000000000009992 ) ) ;
#196 = VECTOR ( 'NONE', #168, 39.37007874015748854 ) ;
#197 = ORIENTED_EDGE ( 'NONE', *, *, #559, .T. ) ;
#198 = CARTESIAN_POINT ( 'NONE',  ( -1.375000000000000000, 0.4269999999999999907, -0.3750000000000001110 ) ) ;
#199 = DIRECTION ( 'NONE',  ( 0.000000000000000000, 0.000000000000000000, -1.000000000000000000 ) ) ;
#200 = DIRECTION ( 'NONE',  ( -0.000000000000000000, 1.000000000000000000, -0.000000000000000000 ) ) ;
#201 = DIRECTION ( 'NONE',  ( 0.8320502943378436100, 0.000000000000000000, 0.5547001962252290364 ) ) ;
#202 = VERTEX_POINT ( 'NONE', #479 ) ;
#203 = DIRECTION ( 'NONE',  ( 0.000000000000000000, 0.000000000000000000, -1.000000000000000000 ) ) ;
#204 = DIRECTION ( 'NONE',  ( -0.000000000000000000, -0.000000000000000000, -1.000000000000000000 ) ) ;
#205 = EDGE_CURVE ( 'NONE', #340, #422, #263, .T. ) ;
#206 = FACE_OUTER_BOUND ( 'NONE', #261, .T. ) ;
#207 = PRODUCT ( 'Gantry Block', 'Gantry Block', '', ( #290 ) ) ;
#208 = LINE ( 'NONE', #426, #79 ) ;
#209 = DIRECTION ( 'NONE',  ( 0.000000000000000000, 0.000000000000000000, -1.000000000000000000 ) ) ;
#210 = DIRECTION ( 'NONE',  ( 0.000000000000000000, 0.000000000000000000, 1.000000000000000000 ) ) ;
#211 = VERTEX_POINT ( 'NONE', #323 ) ;
#212 = VECTOR ( 'NONE', #114, 39.37007874015748143 ) ;
#213 = VERTEX_POINT ( 'NONE', #529 ) ;
#214 = ORIENTED_EDGE ( 'NONE', *, *, #631, .F. ) ;
#215 = EDGE_CURVE ( 'NONE', #159, #417, #233, .T. ) ;
#216 = DIRECTION ( 'NONE',  ( -0.000000000000000000, 0.000000000000000000, -1.000000000000000000 ) ) ;
#217 = CARTESIAN_POINT ( 'NONE',  ( 0.6875000000000001110, 0.000000000000000000, -0.1324588382356259586 ) ) ;
#218 = ORIENTED_EDGE ( 'NONE', *, *, #215, .F. ) ;
#219 = LINE ( 'NONE', #157, #314 ) ;
#220 = CARTESIAN_POINT ( 'NONE',  ( 0.9999999999999998890, 0.000000000000000000, 0.7499999999999984457 ) ) ;
#222 = ADVANCED_FACE ( 'NONE', ( #601 ), #119, .F. ) ;
#221 = CARTESIAN_POINT ( 'NONE',  ( 0.1673228346456692717, 0.4349999999999999978, 0.7499999999999992228 ) ) ;
#223 = ORIENTED_EDGE ( 'NONE', *, *, #336, .T. ) ;
#224 = AXIS2_PLACEMENT_3D ( 'NONE', #386, #11, #390 ) ;
#225 = FACE_OUTER_BOUND ( 'NONE', #292, .T. ) ;
#226 = CARTESIAN_POINT ( 'NONE',  ( -0.6874999999999998890, 0.8699999999999999956, -0.1324588382356257921 ) ) ;
#227 = CARTESIAN_POINT ( 'NONE',  ( 1.750000000000000000, 0.8699999999999999956, 0.2499999999999989730 ) ) ;
#228 = UNCERTAINTY_MEASURE_WITH_UNIT (LENGTH_MEASURE( 1.000000000000000082E-05 ), #95, 'distance_accuracy_value', 'NONE');
#229 = DIRECTION ( 'NONE',  ( -0.8320502943378439431, 0.000000000000000000, 0.5547001962252287033 ) ) ;
#230 = LINE ( 'NONE', #665, #354 ) ;
#231 = CYLINDRICAL_SURFACE ( 'NONE', #617, 0.2524999999999999467 ) ;
#232 =( NAMED_UNIT ( * ) PLANE_ANGLE_UNIT ( ) SI_UNIT ( $, .RADIAN. ) );
#233 = LINE ( 'NONE', #172, #457 ) ;
#234 = FACE_OUTER_BOUND ( 'NONE', #616, .T. ) ;
#235 = DIRECTION ( 'NONE',  ( -0.000000000000000000, -1.000000000000000000, -0.000000000000000000 ) ) ;
#236 = VERTEX_POINT ( 'NONE', #176 ) ;
#237 = CIRCLE ( 'NONE', #383, 0.1673228346456690774 ) ;
#238 = AXIS2_PLACEMENT_3D ( 'NONE', #25, #660, #434 ) ;
#239 = VERTEX_POINT ( 'NONE', #161 ) ;
#240 = LINE ( 'NONE', #446, #478 ) ;
#241 = EDGE_CURVE ( 'NONE', #417, #308, #441, .T. ) ;
#242 = ORIENTED_EDGE ( 'NONE', *, *, #468, .F. ) ;
#243 = EDGE_CURVE ( 'NONE', #587, #213, #288, .T. ) ;
#244 = CARTESIAN_POINT ( 'NONE',  ( 0.6875000000000001110, 0.8699999999999999956, -0.1324588382356259586 ) ) ;
#245 = FACE_OUTER_BOUND ( 'NONE', #670, .T. ) ;
#246 = ORIENTED_EDGE ( 'NONE', *, *, #655, .F. ) ;
#247 = VERTEX_POINT ( 'NONE', #220 ) ;
#248 = CLOSED_SHELL ( 'NONE', ( #348, #30, #486, #510, #605, #661, #540, #295, #70, #278, #77, #456, #275, #222, #421, #442, #432, #400, #49, #141 ) ) ;
#249 = VECTOR ( 'NONE', #684, 39.37007874015748143 ) ;
#250 = CARTESIAN_POINT ( 'NONE',  ( -0.9999999999999998890, 0.000000000000000000, 0.7500000000000001110 ) ) ;
#251 = DIRECTION ( 'NONE',  ( 0.000000000000000000, -1.000000000000000000, 0.000000000000000000 ) ) ;
#252 = ORIENTED_EDGE ( 'NONE', *, *, #476, .F. ) ;
#253 = EDGE_CURVE ( 'NONE', #213, #44, #273, .T. ) ;
#254 = ORIENTED_EDGE ( 'NONE', *, *, #438, .F. ) ;
#255 = CARTESIAN_POINT ( 'NONE',  ( -0.6874999999999998890, 0.000000000000000000, 0.6175411617643741247 ) ) ;
#256 = AXIS2_PLACEMENT_3D ( 'NONE', #89, #428, #98 ) ;
#257 = FILL_AREA_STYLE_COLOUR ( '', #408 ) ;
#258 =( GEOMETRIC_REPRESENTATION_CONTEXT ( 3 ) GLOBAL_UNCERTAINTY_ASSIGNED_CONTEXT ( ( #92 ) ) GLOBAL_UNIT_ASSIGNED_CONTEXT ( ( #120, #343, #19 ) ) REPRESENTATION_CONTEXT ( 'NONE', 'WORKASPACE' ) );
#259 = ORIENTED_EDGE ( 'NONE', *, *, #397, .F. ) ;
#260 = CARTESIAN_POINT ( 'NONE',  ( 0.6875000000000001110, 0.8699999999999999956, 0.1200411617643740020 ) ) ;
#261 = EDGE_LOOP ( 'NONE', ( #103, #505, #287, #189, #673, #23 ) ) ;
#262 = DIRECTION ( 'NONE',  ( 0.000000000000000000, 0.000000000000000000, -1.000000000000000000 ) ) ;
#263 = LINE ( 'NONE', #93, #568 ) ;
#265 = EDGE_CURVE ( 'NONE', #580, #306, #393, .T. ) ;
#264 = CARTESIAN_POINT ( 'NONE',  ( 1.750000000000000000, 0.8699999999999999956, 0.2499999999999989730 ) ) ;
#266 = CARTESIAN_POINT ( 'NONE',  ( -1.250000000000000000, 0.8699999999999999956, -0.7500000000000001110 ) ) ;
#267 = LENGTH_MEASURE_WITH_UNIT ( LENGTH_MEASURE( 0.02539999999999999897 ), #632 );
#268 = DIRECTION ( 'NONE',  ( -0.000000000000000000, -1.000000000000000000, -0.000000000000000000 ) ) ;
#269 = LINE ( 'NONE', #577, #498 ) ;
#270 = FACE_OUTER_BOUND ( 'NONE', #675, .T. ) ;
#271 = DIRECTION ( 'NONE',  ( -0.000000000000000000, 1.000000000000000000, -0.000000000000000000 ) ) ;
#272 = SURFACE_SIDE_STYLE ('',( #148 ) ) ;
#273 = CIRCLE ( 'NONE', #444, 0.2524999999999999467 ) ;
#274 = CIRCLE ( 'NONE', #142, 0.2524999999999999467 ) ;
#275 = ADVANCED_FACE ( 'NONE', ( #337 ), #346, .F. ) ;
#276 = CARTESIAN_POINT ( 'NONE',  ( -1.250000000000000000, 0.4269999999999999907, -0.7500000000000001110 ) ) ;
#277 = DIRECTION ( 'NONE',  ( 2.731847993664263218E-16, -0.000000000000000000, 1.000000000000000000 ) ) ;
#278 = ADVANCED_FACE ( 'NONE', ( #493 ), #483, .F. ) ;
#279 = DIRECTION ( 'NONE',  ( -0.000000000000000000, 1.000000000000000000, -0.000000000000000000 ) ) ;
#280 = CARTESIAN_POINT ( 'NONE',  ( -0.6874999999999998890, 0.8699999999999999956, -0.3849588382356258220 ) ) ;
#281 = VECTOR ( 'NONE', #192, 39.37007874015748143 ) ;
#282 = ORIENTED_EDGE ( 'NONE', *, *, #535, .T. ) ;
#283 = DIRECTION ( 'NONE',  ( 1.000000000000000000, 0.000000000000000000, -0.000000000000000000 ) ) ;
#284 = EDGE_CURVE ( 'NONE', #417, #474, #656, .T. ) ;
#285 = DIRECTION ( 'NONE',  ( -0.000000000000000000, 1.000000000000000000, -0.000000000000000000 ) ) ;
#286 = DIMENSIONAL_EXPONENTS ( 1.000000000000000000, 0.000000000000000000, 0.000000000000000000, 0.000000000000000000, 0.000000000000000000, 0.000000000000000000, 0.000000000000000000 ) ;
#287 = ORIENTED_EDGE ( 'NONE', *, *, #526, .F. ) ;
#288 = LINE ( 'NONE', #10, #465 ) ;
#289 = CARTESIAN_POINT ( 'NONE',  ( -1.375000000000001110, 0.8699999999999999956, -0.2500000000000001110 ) ) ;
#290 = PRODUCT_CONTEXT ( 'NONE', #418, 'mechanical' ) ;
#291 = DIRECTION ( 'NONE',  ( 0.000000000000000000, 0.000000000000000000, -1.000000000000000000 ) ) ;
#292 = EDGE_LOOP ( 'NONE', ( #646, #254, #484, #461 ) ) ;
#293 = CYLINDRICAL_SURFACE ( 'NONE', #628, 0.2524999999999999467 ) ;
#294 = AXIS2_PLACEMENT_3D ( 'NONE', #276, #283, #216 ) ;
#295 = ADVANCED_FACE ( 'NONE', ( #128 ), #502, .F. ) ;
#296 = CARTESIAN_POINT ( 'NONE',  ( -0.9999999999999998890, 0.000000000000000000, 0.7500000000000001110 ) ) ;
#297 = EDGE_CURVE ( 'NONE', #474, #509, #137, .T. ) ;
#298 = FACE_BOUND ( 'NONE', #150, .T. ) ;
#299 = VERTEX_POINT ( 'NONE', #414 ) ;
#300 = CARTESIAN_POINT ( 'NONE',  ( -0.9999999999999998890, 0.8699999999999999956, 0.7500000000000001110 ) ) ;
#301 = DIRECTION ( 'NONE',  ( -0.000000000000000000, 1.000000000000000000, -0.000000000000000000 ) ) ;
#302 = AXIS2_PLACEMENT_3D ( 'NONE', #198, #146, #262 ) ;
#303 = VECTOR ( 'NONE', #200, 39.37007874015748143 ) ;
#304 = DIRECTION ( 'NONE',  ( 1.000000000000000000, 0.000000000000000000, -8.195543980992791628E-16 ) ) ;
#305 = EDGE_CURVE ( 'NONE', #104, #413, #395, .T. ) ;
#306 = VERTEX_POINT ( 'NONE', #409 ) ;
#307 = ORIENTED_EDGE ( 'NONE', *, *, #205, .F. ) ;
#308 = VERTEX_POINT ( 'NONE', #135 ) ;
#309 = DIRECTION ( 'NONE',  ( -0.000000000000000000, -1.000000000000000000, -0.000000000000000000 ) ) ;
#310 = ORIENTED_EDGE ( 'NONE', *, *, #360, .F. ) ;
#311 = DIRECTION ( 'NONE',  ( -2.731847993664266177E-16, 0.000000000000000000, -1.000000000000000000 ) ) ;
#312 = CARTESIAN_POINT ( 'NONE',  ( -0.6874999999999998890, -4.818985154644824200E-17, 0.7240411617643737197 ) ) ;
#313 = CARTESIAN_POINT ( 'NONE',  ( 0.6875000000000001110, 0.000000000000000000, -0.1324588382356259586 ) ) ;
#314 = VECTOR ( 'NONE', #201, 39.37007874015748854 ) ;
#315 = ORIENTED_EDGE ( 'NONE', *, *, #553, .F. ) ;
#316 = PLANE ( 'NONE',  #491 ) ;
#317 = ORIENTED_EDGE ( 'NONE', *, *, #352, .T. ) ;
#318 = CARTESIAN_POINT ( 'NONE',  ( -1.250000000000000000, 0.4269999999999999907, -0.3750000000000009992 ) ) ;
#319 = DIRECTION ( 'NONE',  ( -0.000000000000000000, -0.000000000000000000, 1.000000000000000000 ) ) ;
#320 = LINE ( 'NONE', #42, #175 ) ;
#321 = ORIENTED_EDGE ( 'NONE', *, *, #110, .T. ) ;
#322 = CARTESIAN_POINT ( 'NONE',  ( 0.6875000000000001110, 0.000000000000000000, -0.3849588382356259331 ) ) ;
#323 = CARTESIAN_POINT ( 'NONE',  ( 0.6875000000000001110, 0.000000000000000000, 0.1200411617643740020 ) ) ;
#324 = EDGE_CURVE ( 'NONE', #159, #623, #158, .T. ) ;
#325 = LINE ( 'NONE', #266, #415 ) ;
#326 = VERTEX_POINT ( 'NONE', #312 ) ;
#327 = PRODUCT_DEFINITION_SHAPE ( 'NONE', 'NONE',  #144 ) ;
#328 = CARTESIAN_POINT ( 'NONE',  ( -0.6874999999999998890, 0.000000000000000000, 0.6175411617643741247 ) ) ;
#329 = EDGE_LOOP ( 'NONE', ( #482, #371, #86, #109 ) ) ;
#330 = CARTESIAN_POINT ( 'NONE',  ( 0.9999999999999998890, 0.8699999999999999956, 0.7499999999999984457 ) ) ;
#331 = ORIENTED_EDGE ( 'NONE', *, *, #372, .F. ) ;
#332 = LINE ( 'NONE', #350, #667 ) ;
#333 = CARTESIAN_POINT ( 'NONE',  ( 1.749999999999999556, 0.8699999999999999956, -0.7500000000000001110 ) ) ;
#334 = CARTESIAN_POINT ( 'NONE',  ( 3.414809992080304987E-17, 0.4349999999999999978, 0.7499999999999992228 ) ) ;
#335 = DIRECTION ( 'NONE',  ( -2.731847993664266177E-16, 0.000000000000000000, -1.000000000000000000 ) ) ;
#336 = EDGE_CURVE ( 'NONE', #587, #239, #666, .T. ) ;
#337 = FACE_OUTER_BOUND ( 'NONE', #477, .T. ) ;
#338 = DIRECTION ( 'NONE',  ( 0.000000000000000000, 1.000000000000000000, -0.000000000000000000 ) ) ;
#339 = CIRCLE ( 'NONE', #90, 0.2524999999999999467 ) ;
#340 = VERTEX_POINT ( 'NONE', #574 ) ;
#341 = AXIS2_PLACEMENT_3D ( 'NONE', #334, #107, #180 ) ;
#342 = CARTESIAN_POINT ( 'NONE',  ( -1.375000000000000000, 0.4269999999999999907, -0.3750000000000001110 ) ) ;
#343 =( NAMED_UNIT ( * ) PLANE_ANGLE_UNIT ( ) SI_UNIT ( $, .RADIAN. ) );
#344 = APPLICATION_PROTOCOL_DEFINITION ( 'draft international standard', 'automotive_design', 1998, #449 ) ;
#345 = ORIENTED_EDGE ( 'NONE', *, *, #5, .F. ) ;
#346 = PLANE ( 'NONE',  #294 ) ;
#347 = DIRECTION ( 'NONE',  ( -1.000000000000000000, -0.000000000000000000, -0.000000000000000000 ) ) ;
#348 = ADVANCED_FACE ( 'NONE', ( #519 ), #36, .F. ) ;
#349 = ORIENTED_EDGE ( 'NONE', *, *, #463, .F. ) ;
#350 = CARTESIAN_POINT ( 'NONE',  ( -1.375000000000001110, 0.4269999999999999907, -0.2500000000000001110 ) ) ;
#351 = ORIENTED_EDGE ( 'NONE', *, *, #352, .F. ) ;
#352 = EDGE_CURVE ( 'NONE', #562, #149, #528, .T. ) ;
#353 = VECTOR ( 'NONE', #368, 39.37007874015748143 ) ;
#354 = VECTOR ( 'NONE', #301, 39.37007874015748143 ) ;
#355 = FACE_OUTER_BOUND ( 'NONE', #642, .T. ) ;
#356 = ORIENTED_EDGE ( 'NONE', *, *, #655, .T. ) ;
#357 = DIRECTION ( 'NONE',  ( 0.000000000000000000, 0.000000000000000000, -1.000000000000000000 ) ) ;
#358 = VERTEX_POINT ( 'NONE', #45 ) ;
#359 = EDGE_LOOP ( 'NONE', ( #392, #370, #73, #416 ) ) ;
#360 = EDGE_CURVE ( 'NONE', #358, #159, #507, .T. ) ;
#361 = LINE ( 'NONE', #565, #194 ) ;
#362 = ORIENTED_EDGE ( 'NONE', *, *, #679, .F. ) ;
#363 = AXIS2_PLACEMENT_3D ( 'NONE', #7, #551, #229 ) ;
#364 = VECTOR ( 'NONE', #311, 39.37007874015748143 ) ;
#365 = AXIS2_PLACEMENT_3D ( 'NONE', #475, #309, #532 ) ;
#366 = ORIENTED_EDGE ( 'NONE', *, *, #265, .F. ) ;
#367 = ORIENTED_EDGE ( 'NONE', *, *, #631, .T. ) ;
#368 = DIRECTION ( 'NONE',  ( -0.000000000000000000, -1.000000000000000000, -0.000000000000000000 ) ) ;
#369 = CARTESIAN_POINT ( 'NONE',  ( -1.750000000000000000, 0.000000000000000000, 0.2500000000000000555 ) ) ;
#370 = ORIENTED_EDGE ( 'NONE', *, *, #205, .T. ) ;
#371 = ORIENTED_EDGE ( 'NONE', *, *, #627, .T. ) ;
#372 = EDGE_CURVE ( 'NONE', #501, #672, #471, .T. ) ;
#373 = AXIS2_PLACEMENT_3D ( 'NONE', #255, #467, #203 ) ;
#374 = DIRECTION ( 'NONE',  ( 1.000000000000000000, -0.000000000000000000, -9.106159978880899582E-17 ) ) ;
#375 = CARTESIAN_POINT ( 'NONE',  ( -0.6874999999999998890, 0.8699999999999999956, -0.1324588382356257921 ) ) ;
#376 = DIRECTION ( 'NONE',  ( 0.000000000000000000, 1.000000000000000000, 0.000000000000000000 ) ) ;
#377 = EDGE_CURVE ( 'NONE', #104, #202, #208, .T. ) ;
#378 = ORIENTED_EDGE ( 'NONE', *, *, #297, .F. ) ;
#379 = CARTESIAN_POINT ( 'NONE',  ( 1.750000000000000000, 0.000000000000000000, 0.2499999999999989730 ) ) ;
#380 = ORIENTED_EDGE ( 'NONE', *, *, #438, .T. ) ;
#381 = AXIS2_PLACEMENT_3D ( 'NONE', #570, #685, #419 ) ;
#382 = DIRECTION ( 'NONE',  ( 0.000000000000000000, 0.000000000000000000, -1.000000000000000000 ) ) ;
#383 = AXIS2_PLACEMENT_3D ( 'NONE', #663, #69, #166 ) ;
#384 = ORIENTED_EDGE ( 'NONE', *, *, #253, .F. ) ;
#385 = CARTESIAN_POINT ( 'NONE',  ( -0.6874999999999998890, 0.8699999999999999956, 0.7240411617643739417 ) ) ;
#386 = CARTESIAN_POINT ( 'NONE',  ( 3.414809992080304987E-17, 0.4349999999999999978, -0.7500000000000001110 ) ) ;
#387 = FACE_OUTER_BOUND ( 'NONE', #145, .T. ) ;
#388 = EDGE_CURVE ( 'NONE', #474, #76, #588, .T. ) ;
#389 = DIRECTION ( 'NONE',  ( 0.000000000000000000, 0.000000000000000000, 1.000000000000000000 ) ) ;
#390 = DIRECTION ( 'NONE',  ( 1.000000000000000000, 0.000000000000000000, 0.000000000000000000 ) ) ;
#391 = DIRECTION ( 'NONE',  ( -0.000000000000000000, 1.000000000000000000, -0.000000000000000000 ) ) ;
#392 = ORIENTED_EDGE ( 'NONE', *, *, #411, .F. ) ;
#393 = LINE ( 'NONE', #603, #212 ) ;
#394 = DIRECTION ( 'NONE',  ( 1.000000000000000000, 0.000000000000000000, 0.000000000000000000 ) ) ;
#395 = CIRCLE ( 'NONE', #581, 0.1064999999999998032 ) ;
#396 = ORIENTED_EDGE ( 'NONE', *, *, #468, .T. ) ;
#397 = EDGE_CURVE ( 'NONE', #306, #501, #240, .T. ) ;
#398 = DIRECTION ( 'NONE',  ( 0.000000000000000000, 0.000000000000000000, 1.000000000000000000 ) ) ;
#399 = DIRECTION ( 'NONE',  ( -0.000000000000000000, -1.000000000000000000, -0.000000000000000000 ) ) ;
#400 = ADVANCED_FACE ( 'NONE', ( #14 ), #293, .F. ) ;
#401 = DIRECTION ( 'NONE',  ( 1.000000000000000000, -0.000000000000000000, -9.106159978880899582E-17 ) ) ;
#402 = ORIENTED_EDGE ( 'NONE', *, *, #110, .F. ) ;
#403 = DIRECTION ( 'NONE',  ( -0.000000000000000000, 1.000000000000000000, -0.000000000000000000 ) ) ;
#404 = DIRECTION ( 'NONE',  ( -1.000000000000000000, -0.000000000000000000, -0.000000000000000000 ) ) ;
#405 = ORIENTED_EDGE ( 'NONE', *, *, #324, .F. ) ;
#406 = VECTOR ( 'NONE', #279, 39.37007874015748143 ) ;
#407 = ORIENTED_EDGE ( 'NONE', *, *, #84, .F. ) ;
#408 = COLOUR_RGB ( '',0.7921568627450980005, 0.8196078431372548767, 0.9333333333333333481 ) ;
#409 = CARTESIAN_POINT ( 'NONE',  ( 0.9999999999999998890, 0.8699999999999999956, 0.7499999999999984457 ) ) ;
#410 = EDGE_LOOP ( 'NONE', ( #534, #488, #246, #185 ) ) ;
#411 = EDGE_CURVE ( 'NONE', #340, #2, #237, .T. ) ;
#412 = FACE_BOUND ( 'NONE', #492, .T. ) ;
#413 = VERTEX_POINT ( 'NONE', #385 ) ;
#414 = CARTESIAN_POINT ( 'NONE',  ( -1.750000000000000000, 0.8699999999999999956, 0.2500000000000000555 ) ) ;
#415 = VECTOR ( 'NONE', #204, 39.37007874015748143 ) ;
#416 = ORIENTED_EDGE ( 'NONE', *, *, #644, .F. ) ;
#417 = VERTEX_POINT ( 'NONE', #503 ) ;
#418 = APPLICATION_CONTEXT ( 'automotive_design' ) ;
#419 = DIRECTION ( 'NONE',  ( 0.000000000000000000, 0.000000000000000000, 1.000000000000000000 ) ) ;
#420 = DIRECTION ( 'NONE',  ( 0.000000000000000000, 1.000000000000000000, -0.000000000000000000 ) ) ;
#421 = ADVANCED_FACE ( 'NONE', ( #225 ), #183, .F. ) ;
#422 = VERTEX_POINT ( 'NONE', #600 ) ;
#423 = CARTESIAN_POINT ( 'NONE',  ( 0.000000000000000000, 0.000000000000000000, 0.000000000000000000 ) ) ;
#424 = ORIENTED_EDGE ( 'NONE', *, *, #305, .F. ) ;
#425 = LINE ( 'NONE', #543, #15 ) ;
#426 = CARTESIAN_POINT ( 'NONE',  ( -0.6874999999999998890, 0.000000000000000000, 0.5110411617643745297 ) ) ;
#427 = AXIS2_PLACEMENT_3D ( 'NONE', #677, #420, #209 ) ;
#428 = DIRECTION ( 'NONE',  ( -0.000000000000000000, -1.000000000000000000, -0.000000000000000000 ) ) ;
#429 = CARTESIAN_POINT ( 'NONE',  ( -1.750000000000000222, 0.4269999999999999907, -0.2500000000000000555 ) ) ;
#430 = CIRCLE ( 'NONE', #224, 0.1673228346456690774 ) ;
#431 = ORIENTED_EDGE ( 'NONE', *, *, #336, .F. ) ;
#432 = ADVANCED_FACE ( 'NONE', ( #594 ), #111, .F. ) ;
#433 = ORIENTED_EDGE ( 'NONE', *, *, #193, .F. ) ;
#434 = DIRECTION ( 'NONE',  ( 1.000000000000000000, 0.000000000000000000, -9.106159978880899582E-17 ) ) ;
#435 = DIRECTION ( 'NONE',  ( -0.000000000000000000, 1.000000000000000000, -0.000000000000000000 ) ) ;
#436 = CARTESIAN_POINT ( 'NONE',  ( 0.6875000000000001110, 0.000000000000000000, -0.1324588382356259586 ) ) ;
#437 = AXIS2_PLACEMENT_3D ( 'NONE', #178, #285, #66 ) ;
#438 = EDGE_CURVE ( 'NONE', #358, #550, #332, .T. ) ;
#439 = CARTESIAN_POINT ( 'NONE',  ( -1.750000000000000222, 0.8699999999999999956, -0.7500000000000001110 ) ) ;
#440 = ORIENTED_EDGE ( 'NONE', *, *, #100, .T. ) ;
#441 = LINE ( 'NONE', #489, #406 ) ;
#442 = ADVANCED_FACE ( 'NONE', ( #613 ), #126, .F. ) ;
#443 = CARTESIAN_POINT ( 'NONE',  ( -0.6874999999999998890, 0.000000000000000000, 0.1200411617643741824 ) ) ;
#444 = AXIS2_PLACEMENT_3D ( 'NONE', #226, #652, #389 ) ;
#445 = AXIS2_PLACEMENT_3D ( 'NONE', #227, #653, #604 ) ;
#446 = CARTESIAN_POINT ( 'NONE',  ( 1.750000000000000000, 0.8699999999999999956, 0.2499999999999989730 ) ) ;
#447 = FACE_OUTER_BOUND ( 'NONE', #668, .T. ) ;
#448 = ORIENTED_EDGE ( 'NONE', *, *, #184, .F. ) ;
#449 = APPLICATION_CONTEXT ( 'automotive_design' ) ;
#450 = CARTESIAN_POINT ( 'NONE',  ( -1.750000000000000000, 0.8699999999999999956, 0.2500000000000000555 ) ) ;
#451 = FACE_BOUND ( 'NONE', #586, .T. ) ;
#452 = ORIENTED_EDGE ( 'NONE', *, *, #559, .F. ) ;
#453 = CARTESIAN_POINT ( 'NONE',  ( -0.6874999999999998890, 0.8699999999999999956, 0.6175411617643741247 ) ) ;
#454 = DIRECTION ( 'NONE',  ( 0.000000000000000000, 1.000000000000000000, -0.000000000000000000 ) ) ;
#455 = PLANE ( 'NONE',  #466 ) ;
#456 = ADVANCED_FACE ( 'NONE', ( #572, #298, #82, #245 ), #455, .T. ) ;
#457 = VECTOR ( 'NONE', #537, 39.37007874015748143 ) ;
#458 = ORIENTED_EDGE ( 'NONE', *, *, #592, .F. ) ;
#459 = VECTOR ( 'NONE', #9, 39.37007874015748143 ) ;
#460 = DIRECTION ( 'NONE',  ( 0.000000000000000000, -0.000000000000000000, -1.000000000000000000 ) ) ;
#461 = ORIENTED_EDGE ( 'NONE', *, *, #615, .T. ) ;
#462 = CARTESIAN_POINT ( 'NONE',  ( -1.750000000000000000, 0.000000000000000000, 0.2500000000000000555 ) ) ;
#463 = EDGE_CURVE ( 'NONE', #211, #682, #94, .T. ) ;
#464 = EDGE_LOOP ( 'NONE', ( #578, #405, #310, #380 ) ) ;
#465 = VECTOR ( 'NONE', #610, 39.37007874015748143 ) ;
#466 = AXIS2_PLACEMENT_3D ( 'NONE', #625, #1, #585 ) ;
#467 = DIRECTION ( 'NONE',  ( -0.000000000000000000, -1.000000000000000000, -0.000000000000000000 ) ) ;
#468 = EDGE_CURVE ( 'NONE', #413, #104, #480, .T. ) ;
#469 = DIRECTION ( 'NONE',  ( 0.000000000000000000, 0.000000000000000000, -1.000000000000000000 ) ) ;
#470 = ORIENTED_EDGE ( 'NONE', *, *, #5, .T. ) ;
#471 = LINE ( 'NONE', #523, #674 ) ;
#472 = CARTESIAN_POINT ( 'NONE',  ( 0.6875000000000001110, 0.000000000000000000, 0.1200411617643740020 ) ) ;
#473 = ORIENTED_EDGE ( 'NONE', *, *, #598, .T. ) ;
#474 = VERTEX_POINT ( 'NONE', #54 ) ;
#475 = CARTESIAN_POINT ( 'NONE',  ( -0.6874999999999998890, 0.8699999999999999956, 0.6175411617643741247 ) ) ;
#476 = EDGE_CURVE ( 'NONE', #512, #299, #320, .T. ) ;
#477 = EDGE_LOOP ( 'NONE', ( #470, #522, #218, #122 ) ) ;
#478 = VECTOR ( 'NONE', #6, 39.37007874015748854 ) ;
#479 = CARTESIAN_POINT ( 'NONE',  ( -0.6874999999999998890, -4.818985154644824200E-17, 0.5110411617643746407 ) ) ;
#480 = CIRCLE ( 'NONE', #365, 0.1064999999999998032 ) ;
#481 = DIRECTION ( 'NONE',  ( 1.000000000000000000, 0.000000000000000000, -0.000000000000000000 ) ) ;
#482 = ORIENTED_EDGE ( 'NONE', *, *, #664, .F. ) ;
#483 = PLANE ( 'NONE',  #363 ) ;
#484 = ORIENTED_EDGE ( 'NONE', *, *, #174, .F. ) ;
#485 = CARTESIAN_POINT ( 'NONE',  ( 0.1673228346456692162, 0.4349999999999999978, 0.7499999999999992228 ) ) ;
#486 = ADVANCED_FACE ( 'NONE', ( #270 ), #678, .F. ) ;
#487 = CARTESIAN_POINT ( 'NONE',  ( -0.9999999999999998890, 0.8699999999999999956, 0.7500000000000001110 ) ) ;
#488 = ORIENTED_EDGE ( 'NONE', *, *, #169, .F. ) ;
#489 = CARTESIAN_POINT ( 'NONE',  ( -1.250000000000000000, 0.4269999999999999907, -0.7500000000000001110 ) ) ;
#490 = VECTOR ( 'NONE', #401, 39.37007874015748143 ) ;
#491 = AXIS2_PLACEMENT_3D ( 'NONE', #152, #51, #481 ) ;
#492 = EDGE_LOOP ( 'NONE', ( #32, #396 ) ) ;
#493 = FACE_OUTER_BOUND ( 'NONE', #143, .T. ) ;
#494 = VERTEX_POINT ( 'NONE', #369 ) ;
#495 = LINE ( 'NONE', #546, #196 ) ;
#496 = CYLINDRICAL_SURFACE ( 'NONE', #437, 0.2524999999999999467 ) ;
#497 = ORIENTED_EDGE ( 'NONE', *, *, #162, .F. ) ;
#498 = VECTOR ( 'NONE', #374, 39.37007874015748143 ) ;
#499 = CIRCLE ( 'NONE', #583, 0.1673228346456692439 ) ;
#500 = SHAPE_DEFINITION_REPRESENTATION ( #327, #643 ) ;
#501 = VERTEX_POINT ( 'NONE', #264 ) ;
#502 = PLANE ( 'NONE',  #186 ) ;
#503 = CARTESIAN_POINT ( 'NONE',  ( -1.250000000000000000, 0.4269999999999999907, -0.7500000000000001110 ) ) ;
#504 = PLANE ( 'NONE',  #547 ) ;
#505 = ORIENTED_EDGE ( 'NONE', *, *, #241, .T. ) ;
#506 = EDGE_LOOP ( 'NONE', ( #35, #539 ) ) ;
#507 = CIRCLE ( 'NONE', #302, 0.1249999999999999584 ) ;
#508 = ORIENTED_EDGE ( 'NONE', *, *, #193, .T. ) ;
#509 = VERTEX_POINT ( 'NONE', #429 ) ;
#510 = ADVANCED_FACE ( 'NONE', ( #638 ), #630, .F. ) ;
#511 = DIRECTION ( 'NONE',  ( -1.000000000000000000, 0.000000000000000000, 8.195543980992791628E-16 ) ) ;
#512 = VERTEX_POINT ( 'NONE', #525 ) ;
#513 = PRODUCT_RELATED_PRODUCT_CATEGORY ( 'part', '', ( #207 ) ) ;
#514 = CARTESIAN_POINT ( 'NONE',  ( 3.414809992080304987E-17, 0.4349999999999999978, 0.7499999999999992228 ) ) ;
#515 = ORIENTED_EDGE ( 'NONE', *, *, #615, .F. ) ;
#516 = CARTESIAN_POINT ( 'NONE',  ( -0.6874999999999998890, 0.000000000000000000, -0.3849588382356257110 ) ) ;
#517 = VECTOR ( 'NONE', #304, 39.37007874015748143 ) ;
#518 = AXIS2_PLACEMENT_3D ( 'NONE', #536, #251, #460 ) ;
#519 = FACE_OUTER_BOUND ( 'NONE', #599, .T. ) ;
#520 = CARTESIAN_POINT ( 'NONE',  ( -1.750000000000000000, 0.000000000000000000, 0.2500000000000000555 ) ) ;
#521 = MANIFOLD_SOLID_BREP ( '1/4-28 Tapped Hole1', #248 ) ;
#522 = ORIENTED_EDGE ( 'NONE', *, *, #241, .F. ) ;
#523 = CARTESIAN_POINT ( 'NONE',  ( 1.750000000000000000, 0.8699999999999999956, 0.2499999999999989730 ) ) ;
#524 = FACE_OUTER_BOUND ( 'NONE', #156, .T. ) ;
#526 = EDGE_CURVE ( 'NONE', #236, #308, #47, .T. ) ;
#525 = CARTESIAN_POINT ( 'NONE',  ( -1.750000000000000000, 0.8699999999999999956, -0.2499999999999999167 ) ) ;
#527 = ORIENTED_EDGE ( 'NONE', *, *, #124, .T. ) ;
#528 = LINE ( 'NONE', #322, #117 ) ;
#529 = CARTESIAN_POINT ( 'NONE',  ( -0.6874999999999998890, 0.8699999999999999956, 0.1200411617643741824 ) ) ;
#530 = ORIENTED_EDGE ( 'NONE', *, *, #411, .T. ) ;
#531 = CIRCLE ( 'NONE', #39, 0.1249999999999999584 ) ;
#532 = DIRECTION ( 'NONE',  ( 0.000000000000000000, 0.000000000000000000, -1.000000000000000000 ) ) ;
#533 = LINE ( 'NONE', #485, #459 ) ;
#534 = ORIENTED_EDGE ( 'NONE', *, *, #134, .T. ) ;
#535 = EDGE_CURVE ( 'NONE', #558, #422, #499, .T. ) ;
#536 = CARTESIAN_POINT ( 'NONE',  ( -1.375000000000000000, 0.4269999999999999907, -0.3750000000000001110 ) ) ;
#537 = DIRECTION ( 'NONE',  ( -0.000000000000000000, -0.000000000000000000, -1.000000000000000000 ) ) ;
#538 = PRESENTATION_STYLE_ASSIGNMENT (( #597 ) ) ;
#539 = ORIENTED_EDGE ( 'NONE', *, *, #88, .F. ) ;
#540 = ADVANCED_FACE ( 'NONE', ( #234 ), #606, .F. ) ;
#541 = DIRECTION ( 'NONE',  ( -0.000000000000000000, 1.000000000000000000, -0.000000000000000000 ) ) ;
#542 = FACE_OUTER_BOUND ( 'NONE', #139, .T. ) ;
#543 = CARTESIAN_POINT ( 'NONE',  ( -1.750000000000000000, 0.8699999999999999956, 0.2500000000000000555 ) ) ;
#544 =( NAMED_UNIT ( * ) SI_UNIT ( $, .STERADIAN. ) SOLID_ANGLE_UNIT ( ) );
#545 = ORIENTED_EDGE ( 'NONE', *, *, #476, .T. ) ;
#546 = CARTESIAN_POINT ( 'NONE',  ( 1.750000000000000000, 0.000000000000000000, 0.2499999999999989730 ) ) ;
#547 = AXIS2_PLACEMENT_3D ( 'NONE', #560, #181, #624 ) ;
#548 = AXIS2_PLACEMENT_3D ( 'NONE', #115, #338, #650 ) ;
#549 = APPLICATION_PROTOCOL_DEFINITION ( 'draft international standard', 'automotive_design', 1998, #418 ) ;
#550 = VERTEX_POINT ( 'NONE', #289 ) ;
#551 = DIRECTION ( 'NONE',  ( -0.5547001962252287033, 0.000000000000000000, -0.8320502943378439431 ) ) ;
#552 = DIRECTION ( 'NONE',  ( -1.000000000000000000, -0.000000000000000000, -0.000000000000000000 ) ) ;
#553 = EDGE_CURVE ( 'NONE', #236, #641, #18, .T. ) ;
#554 = DIRECTION ( 'NONE',  ( -0.000000000000000000, -1.000000000000000000, -0.000000000000000000 ) ) ;
#555 = EDGE_LOOP ( 'NONE', ( #351, #452, #164, #136 ) ) ;
#556 = EDGE_LOOP ( 'NONE', ( #197, #575 ) ) ;
#557 = CIRCLE ( 'NONE', #636, 0.1064999999999995395 ) ;
#558 = VERTEX_POINT ( 'NONE', #221 ) ;
#559 = EDGE_CURVE ( 'NONE', #211, #562, #52, .T. ) ;
#560 = CARTESIAN_POINT ( 'NONE',  ( 0.000000000000000000, 0.8699999999999999956, 0.000000000000000000 ) ) ;
#561 = ORIENTED_EDGE ( 'NONE', *, *, #253, .T. ) ;
#562 = VERTEX_POINT ( 'NONE', #171 ) ;
#563 = DIRECTION ( 'NONE',  ( 0.5547001962252291474, 0.000000000000000000, -0.8320502943378437211 ) ) ;
#564 = CARTESIAN_POINT ( 'NONE',  ( -0.6874999999999998890, 0.8699999999999999956, 0.5110411617643743076 ) ) ;
#565 = CARTESIAN_POINT ( 'NONE',  ( -0.6874999999999998890, 0.000000000000000000, 0.7240411617643738307 ) ) ;
#566 = ORIENTED_EDGE ( 'NONE', *, *, #582, .T. ) ;
#567 = VECTOR ( 'NONE', #399, 39.37007874015748143 ) ;
#568 = VECTOR ( 'NONE', #319, 39.37007874015748143 ) ;
#569 = STYLED_ITEM ( 'NONE', ( #538 ), #521 ) ;
#570 = CARTESIAN_POINT ( 'NONE',  ( -0.6874999999999998890, 0.000000000000000000, -0.1324588382356257921 ) ) ;
#571 = DIRECTION ( 'NONE',  ( -8.195543980992791628E-16, 0.000000000000000000, -1.000000000000000000 ) ) ;
#572 = FACE_BOUND ( 'NONE', #634, .T. ) ;
#573 = ORIENTED_EDGE ( 'NONE', *, *, #134, .F. ) ;
#574 = CARTESIAN_POINT ( 'NONE',  ( -0.1673228346456690219, 0.4349999999999999978, -0.7500000000000001110 ) ) ;
#575 = ORIENTED_EDGE ( 'NONE', *, *, #153, .T. ) ;
#576 = FACE_BOUND ( 'NONE', #590, .T. ) ;
#577 = CARTESIAN_POINT ( 'NONE',  ( -1.375000000000001110, 0.4269999999999999907, -0.2500000000000001110 ) ) ;
#578 = ORIENTED_EDGE ( 'NONE', *, *, #679, .T. ) ;
#579 = CARTESIAN_POINT ( 'NONE',  ( 1.750000000000000000, 0.000000000000000000, 0.2499999999999989730 ) ) ;
#580 = VERTEX_POINT ( 'NONE', #487 ) ;
#581 = AXIS2_PLACEMENT_3D ( 'NONE', #453, #24, #291 ) ;
#582 = EDGE_CURVE ( 'NONE', #247, #672, #495, .T. ) ;
#583 = AXIS2_PLACEMENT_3D ( 'NONE', #658, #611, #394 ) ;
#584 = LINE ( 'NONE', #520, #607 ) ;
#585 = DIRECTION ( 'NONE',  ( 0.000000000000000000, 0.000000000000000000, -1.000000000000000000 ) ) ;
#586 = EDGE_LOOP ( 'NONE', ( #497, #62 ) ) ;
#587 = VERTEX_POINT ( 'NONE', #443 ) ;
#588 = LINE ( 'NONE', #97, #567 ) ;
#589 = DIRECTION ( 'NONE',  ( -0.000000000000000000, -1.000000000000000000, -0.000000000000000000 ) ) ;
#590 = EDGE_LOOP ( 'NONE', ( #633, #530 ) ) ;
#591 = DIRECTION ( 'NONE',  ( 0.8320502943378436100, 0.000000000000000000, 0.5547001962252290364 ) ) ;
#592 = EDGE_CURVE ( 'NONE', #2, #340, #430, .T. ) ;
#593 = ORIENTED_EDGE ( 'NONE', *, *, #215, .T. ) ;
#594 = FACE_OUTER_BOUND ( 'NONE', #182, .T. ) ;
#595 = AXIS2_PLACEMENT_3D ( 'NONE', #313, #53, #199 ) ;
#596 = VECTOR ( 'NONE', #55, 39.37007874015748143 ) ;
#597 = SURFACE_STYLE_USAGE ( .BOTH. , #272 ) ;
#598 = EDGE_CURVE ( 'NONE', #501, #236, #602, .T. ) ;
#599 = EDGE_LOOP ( 'NONE', ( #242, #527, #669, #626 ) ) ;
#600 = CARTESIAN_POINT ( 'NONE',  ( -0.1673228346456692162, 0.4349999999999999978, 0.7499999999999992228 ) ) ;
#601 = FACE_OUTER_BOUND ( 'NONE', #464, .T. ) ;
#602 = LINE ( 'NONE', #177, #165 ) ;
#603 = CARTESIAN_POINT ( 'NONE',  ( -0.9999999999999998890, 0.8699999999999999956, 0.7500000000000001110 ) ) ;
#604 = DIRECTION ( 'NONE',  ( 2.731847993664266177E-16, 0.000000000000000000, 1.000000000000000000 ) ) ;
#605 = ADVANCED_FACE ( 'NONE', ( #542 ), #16, .F. ) ;
#606 = PLANE ( 'NONE',  #80 ) ;
#607 = VECTOR ( 'NONE', #41, 39.37007874015748143 ) ;
#608 = PRODUCT_DEFINITION_FORMATION_WITH_SPECIFIED_SOURCE ( 'Symmetric', '', #207, .NOT_KNOWN. ) ;
#609 = DIRECTION ( 'NONE',  ( 1.000000000000000000, 0.000000000000000000, 0.000000000000000000 ) ) ;
#610 = DIRECTION ( 'NONE',  ( -0.000000000000000000, 1.000000000000000000, -0.000000000000000000 ) ) ;
#611 = DIRECTION ( 'NONE',  ( -0.000000000000000000, -0.000000000000000000, 1.000000000000000000 ) ) ;
#612 = CARTESIAN_POINT ( 'NONE',  ( -0.6874999999999998890, 0.000000000000000000, -0.1324588382356257921 ) ) ;
#613 = FACE_OUTER_BOUND ( 'NONE', #645, .T. ) ;
#614 = CARTESIAN_POINT ( 'NONE',  ( -1.375000000000001110, 0.8699999999999999956, -0.2500000000000001110 ) ) ;
#615 = EDGE_CURVE ( 'NONE', #509, #512, #230, .T. ) ;
#616 = EDGE_LOOP ( 'NONE', ( #252, #515, #378, #179, #508, #58 ) ) ;
#617 = AXIS2_PLACEMENT_3D ( 'NONE', #612, #391, #398 ) ;
#618 = ORIENTED_EDGE ( 'NONE', *, *, #619, .F. ) ;
#619 = EDGE_CURVE ( 'NONE', #306, #247, #130, .T. ) ;
#620 = ORIENTED_EDGE ( 'NONE', *, *, #664, .T. ) ;
#621 = DIRECTION ( 'NONE',  ( -0.8320502943378437211, 0.000000000000000000, -0.5547001962252291474 ) ) ;
#622 = FACE_BOUND ( 'NONE', #654, .T. ) ;
#623 = VERTEX_POINT ( 'NONE', #160 ) ;
#624 = DIRECTION ( 'NONE',  ( 0.000000000000000000, 0.000000000000000000, -1.000000000000000000 ) ) ;
#625 = CARTESIAN_POINT ( 'NONE',  ( 0.000000000000000000, 0.000000000000000000, 0.000000000000000000 ) ) ;
#626 = ORIENTED_EDGE ( 'NONE', *, *, #377, .F. ) ;
#627 = EDGE_CURVE ( 'NONE', #239, #44, #3, .T. ) ;
#628 = AXIS2_PLACEMENT_3D ( 'NONE', #436, #647, #74 ) ;
#629 = LINE ( 'NONE', #147, #353 ) ;
#630 = CYLINDRICAL_SURFACE ( 'NONE', #106, 0.1673228346456691606 ) ;
#631 = EDGE_CURVE ( 'NONE', #672, #641, #635, .T. ) ;
#632 =( LENGTH_UNIT ( ) NAMED_UNIT ( * ) SI_UNIT ( $, .METRE. ) );
#633 = ORIENTED_EDGE ( 'NONE', *, *, #592, .T. ) ;
#634 = EDGE_LOOP ( 'NONE', ( #81, #448 ) ) ;
#635 = LINE ( 'NONE', #379, #364 ) ;
#636 = AXIS2_PLACEMENT_3D ( 'NONE', #121, #235, #382 ) ;
#637 =( GEOMETRIC_REPRESENTATION_CONTEXT ( 3 ) GLOBAL_UNCERTAINTY_ASSIGNED_CONTEXT ( ( #228 ) ) GLOBAL_UNIT_ASSIGNED_CONTEXT ( ( #95, #232, #544 ) ) REPRESENTATION_CONTEXT ( 'NONE', 'WORKASPACE' ) );
#638 = FACE_OUTER_BOUND ( 'NONE', #359, .T. ) ;
#639 = ORIENTED_EDGE ( 'NONE', *, *, #169, .T. ) ;
#640 = CARTESIAN_POINT ( 'NONE',  ( 1.749999999999999556, 0.000000000000000000, -0.7500000000000001110 ) ) ;
#641 = VERTEX_POINT ( 'NONE', #640 ) ;
#642 = EDGE_LOOP ( 'NONE', ( #8, #345, #362, #407, #545, #356, #657, #133, #473 ) ) ;
#643 = ADVANCED_BREP_SHAPE_REPRESENTATION ( 'Gantry Block', ( #521, #118 ), #637 ) ;
#644 = EDGE_CURVE ( 'NONE', #2, #558, #533, .T. ) ;
#645 = EDGE_LOOP ( 'NONE', ( #33, #85, #113, #116, #593 ) ) ;
#646 = ORIENTED_EDGE ( 'NONE', *, *, #84, .T. ) ;
#647 = DIRECTION ( 'NONE',  ( -0.000000000000000000, 1.000000000000000000, -0.000000000000000000 ) ) ;
#648 = VECTOR ( 'NONE', #404, 39.37007874015748143 ) ;
#649 = VECTOR ( 'NONE', #552, 39.37007874015748143 ) ;
#650 = DIRECTION ( 'NONE',  ( 0.000000000000000000, 0.000000000000000000, -1.000000000000000000 ) ) ;
#651 = ORIENTED_EDGE ( 'NONE', *, *, #619, .T. ) ;
#652 = DIRECTION ( 'NONE',  ( 0.000000000000000000, 1.000000000000000000, 0.000000000000000000 ) ) ;
#653 = DIRECTION ( 'NONE',  ( -1.000000000000000000, 0.000000000000000000, 2.731847993664266177E-16 ) ) ;
#654 = EDGE_LOOP ( 'NONE', ( #384, #170 ) ) ;
#655 = EDGE_CURVE ( 'NONE', #299, #580, #219, .T. ) ;
#656 = LINE ( 'NONE', #65, #648 ) ;
#657 = ORIENTED_EDGE ( 'NONE', *, *, #265, .T. ) ;
#658 = CARTESIAN_POINT ( 'NONE',  ( 3.414809992080304987E-17, 0.4349999999999999978, 0.7499999999999992228 ) ) ;
#659 = PRESENTATION_LAYER_ASSIGNMENT (  '', '', ( #569 ) ) ;
#660 = DIRECTION ( 'NONE',  ( 9.106159978880899582E-17, 0.000000000000000000, 1.000000000000000000 ) ) ;
#661 = ADVANCED_FACE ( 'NONE', ( #576, #206 ), #316, .F. ) ;
#662 = ORIENTED_EDGE ( 'NONE', *, *, #59, .T. ) ;
#663 = CARTESIAN_POINT ( 'NONE',  ( 3.414809992080304987E-17, 0.4349999999999999978, -0.7500000000000001110 ) ) ;
#664 = EDGE_CURVE ( 'NONE', #239, #587, #131, .T. ) ;
#665 = CARTESIAN_POINT ( 'NONE',  ( -1.750000000000000222, 0.4269999999999999907, -0.2500000000000000555 ) ) ;
#666 = CIRCLE ( 'NONE', #381, 0.2524999999999999467 ) ;
#667 = VECTOR ( 'NONE', #403, 39.37007874015748143 ) ;
#668 = EDGE_LOOP ( 'NONE', ( #191, #431, #683, #561 ) ) ;
#669 = ORIENTED_EDGE ( 'NONE', *, *, #184, .T. ) ;
#670 = EDGE_LOOP ( 'NONE', ( #214, #4, #402, #573, #433, #680 ) ) ;
#671 = EDGE_CURVE ( 'NONE', #44, #213, #274, .T. ) ;
#672 = VERTEX_POINT ( 'NONE', #579 ) ;
#673 = ORIENTED_EDGE ( 'NONE', *, *, #67, .T. ) ;
#674 = VECTOR ( 'NONE', #268, 39.37007874015748143 ) ;
#675 = EDGE_LOOP ( 'NONE', ( #68, #317, #440, #349 ) ) ;
#676 = DIRECTION ( 'NONE',  ( -0.000000000000000000, 1.000000000000000000, -0.000000000000000000 ) ) ;
#677 = CARTESIAN_POINT ( 'NONE',  ( 0.6875000000000001110, 0.8699999999999999956, -0.1324588382356259586 ) ) ;
#679 = EDGE_CURVE ( 'NONE', #550, #623, #531, .T. ) ;
#678 = CYLINDRICAL_SURFACE ( 'NONE', #22, 0.2524999999999999467 ) ;
#680 = ORIENTED_EDGE ( 'NONE', *, *, #67, .F. ) ;
#681 = DIRECTION ( 'NONE',  ( 0.000000000000000000, 0.000000000000000000, 1.000000000000000000 ) ) ;
#682 = VERTEX_POINT ( 'NONE', #260 ) ;
#683 = ORIENTED_EDGE ( 'NONE', *, *, #243, .T. ) ;
#684 = DIRECTION ( 'NONE',  ( -0.000000000000000000, -1.000000000000000000, -0.000000000000000000 ) ) ;
#685 = DIRECTION ( 'NONE',  ( 0.000000000000000000, 1.000000000000000000, 0.000000000000000000 ) ) ;
#686 = CYLINDRICAL_SURFACE ( 'NONE', #29, 0.1064999999999996644 ) ;
#687 = ORIENTED_EDGE ( 'NONE', *, *, #124, .F. ) ;
#688 = CARTESIAN_POINT ( 'NONE',  ( -0.6874999999999998890, 0.000000000000000000, -0.1324588382356257921 ) ) ;
#689 = VECTOR ( 'NONE', #347, 39.37007874015748143 ) ;
ENDSEC;
END-ISO-10303-21;
