ISO-10303-21;
HEADER;
FILE_DESCRIPTION (( 'STEP AP214' ),
    '1' );
FILE_NAME ('Gantry Rod.STEP',
    '2026-02-20T19:34:19',
    ( '' ),
    ( '' ),
    'SwSTEP 2.0',
    'SolidWorks 2025',
    '' );
FILE_SCHEMA (( 'AUTOMOTIVE_DESIGN' ));
ENDSEC;

DATA;
#1 = DIMENSIONAL_EXPONENTS ( 1.000000000000000000, 0.000000000000000000, 0.000000000000000000, 0.000000000000000000, 0.000000000000000000, 0.000000000000000000, 0.000000000000000000 ) ;
#2 = ORIENTED_EDGE ( 'NONE', *, *, #190, .F. ) ;
#3 = PRODUCT_DEFINITION_FORMATION_WITH_SPECIFIED_SOURCE ( 'Symmetric', '', #193, .NOT_KNOWN. ) ;
#4 = CARTESIAN_POINT ( 'NONE',  ( 0.04000000000000011879, 0.000000000000000000, -0.2100000000000000200 ) ) ;
#5 = ORIENTED_EDGE ( 'NONE', *, *, #56, .T. ) ;
#6 =( NAMED_UNIT ( * ) SI_UNIT ( $, .STERADIAN. ) SOLID_ANGLE_UNIT ( ) );
#7 = FACE_OUTER_BOUND ( 'NONE', #203, .T. ) ;
#8 = AXIS2_PLACEMENT_3D ( 'NONE', #92, #129, #214 ) ;
#9 = ORIENTED_EDGE ( 'NONE', *, *, #116, .F. ) ;
#10 = DIRECTION ( 'NONE',  ( 0.000000000000000000, 0.000000000000000000, -1.000000000000000000 ) ) ;
#11 = AXIS2_PLACEMENT_3D ( 'NONE', #32, #98, #31 ) ;
#12 = EDGE_CURVE ( 'NONE', #160, #155, #205, .T. ) ;
#13 = CARTESIAN_POINT ( 'NONE',  ( 4.290708661417323100, 0.000000000000000000, 0.000000000000000000 ) ) ;
#14 = DIRECTION ( 'NONE',  ( 0.000000000000000000, 0.000000000000000000, -1.000000000000000000 ) ) ;
#15 = ADVANCED_FACE ( 'NONE', ( #7 ), #181, .T. ) ;
#16 = DIRECTION ( 'NONE',  ( 0.000000000000000000, 0.000000000000000000, -1.000000000000000000 ) ) ;
#17 = DIRECTION ( 'NONE',  ( 0.000000000000000000, 0.000000000000000000, -1.000000000000000000 ) ) ;
#18 = DIRECTION ( 'NONE',  ( 1.000000000000000000, 0.000000000000000000, 0.000000000000000000 ) ) ;
#19 = ORIENTED_EDGE ( 'NONE', *, *, #82, .T. ) ;
#20 = DIRECTION ( 'NONE',  ( -1.000000000000000000, -0.000000000000000000, -0.000000000000000000 ) ) ;
#21 = ORIENTED_EDGE ( 'NONE', *, *, #233, .T. ) ;
#22 = DIRECTION ( 'NONE',  ( 0.000000000000000000, 0.000000000000000000, 1.000000000000000000 ) ) ;
#23 = CIRCLE ( 'NONE', #144, 0.2500000000000000000 ) ;
#24 = VERTEX_POINT ( 'NONE', #106 ) ;
#25 = DIRECTION ( 'NONE',  ( 0.000000000000000000, 0.000000000000000000, -1.000000000000000000 ) ) ;
#26 = AXIS2_PLACEMENT_3D ( 'NONE', #207, #188, #22 ) ;
#27 = ADVANCED_FACE ( 'NONE', ( #109 ), #69, .T. ) ;
#28 = FACE_OUTER_BOUND ( 'NONE', #38, .T. ) ;
#29 = AXIS2_PLACEMENT_3D ( 'NONE', #72, #229, #130 ) ;
#30 = ORIENTED_EDGE ( 'NONE', *, *, #12, .F. ) ;
#31 = DIRECTION ( 'NONE',  ( 0.000000000000000000, 1.224646799147353947E-16, 1.000000000000000000 ) ) ;
#32 = CARTESIAN_POINT ( 'NONE',  ( 0.04000000000000011879, 2.571758278209442203E-17, 0.2100000000000000200 ) ) ;
#33 = EDGE_CURVE ( 'NONE', #47, #24, #189, .T. ) ;
#34 = ORIENTED_EDGE ( 'NONE', *, *, #156, .T. ) ;
#35 = DIMENSIONAL_EXPONENTS ( 1.000000000000000000, 0.000000000000000000, 0.000000000000000000, 0.000000000000000000, 0.000000000000000000, 0.000000000000000000, 0.000000000000000000 ) ;
#36 = DIRECTION ( 'NONE',  ( 1.000000000000000000, 0.000000000000000000, 0.000000000000000000 ) ) ;
#37 = ORIENTED_EDGE ( 'NONE', *, *, #204, .F. ) ;
#38 = EDGE_LOOP ( 'NONE', ( #19, #120 ) ) ;
#39 =( LENGTH_UNIT ( ) NAMED_UNIT ( * ) SI_UNIT ( $, .METRE. ) );
#40 = ORIENTED_EDGE ( 'NONE', *, *, #104, .T. ) ;
#41 = UNCERTAINTY_MEASURE_WITH_UNIT (LENGTH_MEASURE( 1.000000000000000082E-05 ), #150, 'distance_accuracy_value', 'NONE');
#42 = DIRECTION ( 'NONE',  ( 0.000000000000000000, 0.000000000000000000, -1.000000000000000000 ) ) ;
#43 = AXIS2_PLACEMENT_3D ( 'NONE', #111, #113, #148 ) ;
#44 = DIRECTION ( 'NONE',  ( 0.000000000000000000, 0.000000000000000000, -1.000000000000000000 ) ) ;
#45 = AXIS2_PLACEMENT_3D ( 'NONE', #94, #114, #172 ) ;
#46 = LINE ( 'NONE', #132, #133 ) ;
#47 = VERTEX_POINT ( 'NONE', #147 ) ;
#48 = TOROIDAL_SURFACE ( 'NONE', #153, 0.2100000000000000200, 0.04000000000000000083 ) ;
#49 = CLOSED_SHELL ( 'NONE', ( #119, #65, #137, #27, #63, #184, #58, #15 ) ) ;
#50 = PRESENTATION_STYLE_ASSIGNMENT (( #118 ) ) ;
#51 = DIRECTION ( 'NONE',  ( 0.000000000000000000, -1.000000000000000000, 0.000000000000000000 ) ) ;
#52 = VERTEX_POINT ( 'NONE', #89 ) ;
#53 = UNCERTAINTY_MEASURE_WITH_UNIT (LENGTH_MEASURE( 1.000000000000000082E-05 ), #182, 'distance_accuracy_value', 'NONE');
#54 = ORIENTED_EDGE ( 'NONE', *, *, #212, .F. ) ;
#55 = AXIS2_PLACEMENT_3D ( 'NONE', #164, #18, #142 ) ;
#56 = EDGE_CURVE ( 'NONE', #52, #223, #213, .T. ) ;
#57 = FACE_OUTER_BOUND ( 'NONE', #163, .T. ) ;
#58 = ADVANCED_FACE ( 'NONE', ( #170 ), #198, .T. ) ;
#59 = FACE_OUTER_BOUND ( 'NONE', #220, .T. ) ;
#60 = DIRECTION ( 'NONE',  ( 0.000000000000000000, 0.000000000000000000, -1.000000000000000000 ) ) ;
#61 = PRESENTATION_LAYER_ASSIGNMENT (  '', '', ( #167 ) ) ;
#62 = CARTESIAN_POINT ( 'NONE',  ( 4.290708661417323100, 3.061616997868383018E-17, -0.2500000000000000000 ) ) ;
#63 = ADVANCED_FACE ( 'NONE', ( #28 ), #196, .T. ) ;
#64 = MECHANICAL_DESIGN_GEOMETRIC_PRESENTATION_REPRESENTATION (  '', ( #167 ), #79 ) ;
#65 = ADVANCED_FACE ( 'NONE', ( #59 ), #48, .T. ) ;
#66 = CARTESIAN_POINT ( 'NONE',  ( 4.290708661417323100, 0.000000000000000000, 0.000000000000000000 ) ) ;
#67 = ORIENTED_EDGE ( 'NONE', *, *, #176, .T. ) ;
#68 = AXIS2_PLACEMENT_3D ( 'NONE', #103, #186, #42 ) ;
#69 = CYLINDRICAL_SURFACE ( 'NONE', #26, 0.2500000000000000000 ) ;
#70 = DIRECTION ( 'NONE',  ( 1.000000000000000000, 0.000000000000000000, 0.000000000000000000 ) ) ;
#71 = ORIENTED_EDGE ( 'NONE', *, *, #33, .T. ) ;
#72 = CARTESIAN_POINT ( 'NONE',  ( 0.04000000000000011879, 0.000000000000000000, 0.000000000000000000 ) ) ;
#73 = AXIS2_PLACEMENT_3D ( 'NONE', #93, #191, #25 ) ;
#74 = DIRECTION ( 'NONE',  ( 1.000000000000000000, 0.000000000000000000, 0.000000000000000000 ) ) ;
#75 = DIRECTION ( 'NONE',  ( 0.000000000000000000, 0.000000000000000000, 1.000000000000000000 ) ) ;
#76 = EDGE_CURVE ( 'NONE', #122, #52, #46, .T. ) ;
#77 = CIRCLE ( 'NONE', #108, 0.2500000000000000000 ) ;
#78 =( LENGTH_UNIT ( ) NAMED_UNIT ( * ) SI_UNIT ( $, .METRE. ) );
#79 =( GEOMETRIC_REPRESENTATION_CONTEXT ( 3 ) GLOBAL_UNCERTAINTY_ASSIGNED_CONTEXT ( ( #41 ) ) GLOBAL_UNIT_ASSIGNED_CONTEXT ( ( #150, #216, #151 ) ) REPRESENTATION_CONTEXT ( 'NONE', 'WORKASPACE' ) );
#80 = CIRCLE ( 'NONE', #221, 0.03999999999999998002 ) ;
#81 = PRODUCT_DEFINITION_CONTEXT ( 'detailed design', #101, 'design' ) ;
#82 = EDGE_CURVE ( 'NONE', #155, #125, #100, .T. ) ;
#83 = DIRECTION ( 'NONE',  ( 1.000000000000000000, 0.000000000000000000, 0.000000000000000000 ) ) ;
#84 = ORIENTED_EDGE ( 'NONE', *, *, #140, .F. ) ;
#85 = ORIENTED_EDGE ( 'NONE', *, *, #156, .F. ) ;
#86 = ORIENTED_EDGE ( 'NONE', *, *, #56, .F. ) ;
#87 = CARTESIAN_POINT ( 'NONE',  ( 4.330708661417323135, 3.061616997868383018E-17, -0.2500000000000000000 ) ) ;
#88 = AXIS2_PLACEMENT_3D ( 'NONE', #187, #83, #16 ) ;
#89 = CARTESIAN_POINT ( 'NONE',  ( 0.04000000000000011879, 0.000000000000000000, 0.2500000000000000000 ) ) ;
#90 = AXIS2_PLACEMENT_3D ( 'NONE', #173, #36, #17 ) ;
#91 = PRODUCT_RELATED_PRODUCT_CATEGORY ( 'part', '', ( #193 ) ) ;
#92 = CARTESIAN_POINT ( 'NONE',  ( 4.290708661417323100, 2.571758278209442203E-17, 0.2100000000000000200 ) ) ;
#93 = CARTESIAN_POINT ( 'NONE',  ( 0.04000000000000011879, 0.000000000000000000, 0.000000000000000000 ) ) ;
#94 = CARTESIAN_POINT ( 'NONE',  ( 4.330708661417323135, 0.000000000000000000, 0.000000000000000000 ) ) ;
#95 = ORIENTED_EDGE ( 'NONE', *, *, #76, .T. ) ;
#96 = SURFACE_STYLE_FILL_AREA ( #152 ) ;
#97 = AXIS2_PLACEMENT_3D ( 'NONE', #134, #166, #14 ) ;
#98 = DIRECTION ( 'NONE',  ( 0.000000000000000000, 1.000000000000000000, -1.224646799147353207E-16 ) ) ;
#99 = ORIENTED_EDGE ( 'NONE', *, *, #233, .F. ) ;
#100 = CIRCLE ( 'NONE', #231, 0.2100000000000000200 ) ;
#101 = APPLICATION_CONTEXT ( 'automotive_design' ) ;
#102 = EDGE_LOOP ( 'NONE', ( #202, #162, #67, #158 ) ) ;
#103 = CARTESIAN_POINT ( 'NONE',  ( 4.290708661417323100, 0.000000000000000000, -0.2100000000000000200 ) ) ;
#104 = EDGE_CURVE ( 'NONE', #122, #125, #141, .T. ) ;
#105 = LINE ( 'NONE', #87, #226 ) ;
#106 = CARTESIAN_POINT ( 'NONE',  ( 0.000000000000000000, 2.816687638038912303E-17, 0.2100000000000000200 ) ) ;
#107 = PLANE ( 'NONE',  #117 ) ;
#108 = AXIS2_PLACEMENT_3D ( 'NONE', #66, #157, #159 ) ;
#109 = FACE_OUTER_BOUND ( 'NONE', #115, .T. ) ;
#110 = CARTESIAN_POINT ( 'NONE',  ( 4.290708661417323100, 0.000000000000000000, 0.2500000000000000000 ) ) ;
#111 = CARTESIAN_POINT ( 'NONE',  ( 4.290708661417323100, 0.000000000000000000, 0.000000000000000000 ) ) ;
#112 = APPLICATION_PROTOCOL_DEFINITION ( 'draft international standard', 'automotive_design', 1998, #168 ) ;
#113 = DIRECTION ( 'NONE',  ( 1.000000000000000000, 0.000000000000000000, 0.000000000000000000 ) ) ;
#114 = DIRECTION ( 'NONE',  ( -1.000000000000000000, -0.000000000000000000, -0.000000000000000000 ) ) ;
#115 = EDGE_LOOP ( 'NONE', ( #2, #183, #95, #5 ) ) ;
#116 = EDGE_CURVE ( 'NONE', #122, #160, #23, .T. ) ;
#117 = AXIS2_PLACEMENT_3D ( 'NONE', #124, #185, #209 ) ;
#118 = SURFACE_STYLE_USAGE ( .BOTH. , #154 ) ;
#119 = ADVANCED_FACE ( 'NONE', ( #146 ), #217, .T. ) ;
#120 = ORIENTED_EDGE ( 'NONE', *, *, #204, .T. ) ;
#121 = CARTESIAN_POINT ( 'NONE',  ( 0.04000000000000011879, 3.061616997868383018E-17, -0.2500000000000000000 ) ) ;
#122 = VERTEX_POINT ( 'NONE', #110 ) ;
#123 = AXIS2_PLACEMENT_3D ( 'NONE', #222, #75, #70 ) ;
#124 = CARTESIAN_POINT ( 'NONE',  ( 0.000000000000000000, 0.000000000000000000, 0.000000000000000000 ) ) ;
#125 = VERTEX_POINT ( 'NONE', #195 ) ;
#126 = ORIENTED_EDGE ( 'NONE', *, *, #12, .T. ) ;
#127 = EDGE_LOOP ( 'NONE', ( #178, #54, #126, #37 ) ) ;
#128 = SHAPE_DEFINITION_REPRESENTATION ( #180, #197 ) ;
#129 = DIRECTION ( 'NONE',  ( 0.000000000000000000, 1.000000000000000000, -1.224646799147353207E-16 ) ) ;
#130 = DIRECTION ( 'NONE',  ( 0.000000000000000000, 0.000000000000000000, -1.000000000000000000 ) ) ;
#131 = APPLICATION_PROTOCOL_DEFINITION ( 'draft international standard', 'automotive_design', 1998, #101 ) ;
#132 = CARTESIAN_POINT ( 'NONE',  ( 4.330708661417323135, 0.000000000000000000, 0.2500000000000000000 ) ) ;
#133 = VECTOR ( 'NONE', #143, 39.37007874015748143 ) ;
#134 = CARTESIAN_POINT ( 'NONE',  ( 4.330708661417323135, 0.000000000000000000, 0.000000000000000000 ) ) ;
#135 = COLOUR_RGB ( '',0.7921568627450980005, 0.8196078431372548767, 0.9333333333333333481 ) ;
#136 = CARTESIAN_POINT ( 'NONE',  ( 0.000000000000000000, 0.000000000000000000, 0.000000000000000000 ) ) ;
#137 = ADVANCED_FACE ( 'NONE', ( #199 ), #177, .T. ) ;
#138 = DIRECTION ( 'NONE',  ( 0.000000000000000000, 0.000000000000000000, -1.000000000000000000 ) ) ;
#139 = ORIENTED_EDGE ( 'NONE', *, *, #82, .F. ) ;
#140 = EDGE_CURVE ( 'NONE', #24, #52, #192, .T. ) ;
#141 = CIRCLE ( 'NONE', #8, 0.03999999999999998002 ) ;
#142 = DIRECTION ( 'NONE',  ( 0.000000000000000000, 0.000000000000000000, -1.000000000000000000 ) ) ;
#143 = DIRECTION ( 'NONE',  ( -1.000000000000000000, -0.000000000000000000, -0.000000000000000000 ) ) ;
#144 = AXIS2_PLACEMENT_3D ( 'NONE', #169, #211, #44 ) ;
#145 = CARTESIAN_POINT ( 'NONE',  ( 4.330708661417323135, 0.000000000000000000, 0.000000000000000000 ) ) ;
#146 = FACE_OUTER_BOUND ( 'NONE', #179, .T. ) ;
#147 = CARTESIAN_POINT ( 'NONE',  ( 0.000000000000000000, 0.000000000000000000, -0.2100000000000000200 ) ) ;
#148 = DIRECTION ( 'NONE',  ( 0.000000000000000000, 0.000000000000000000, -1.000000000000000000 ) ) ;
#149 = AXIS2_PLACEMENT_3D ( 'NONE', #136, #219, #234 ) ;
#150 =( CONVERSION_BASED_UNIT ( 'INCH', #218 ) LENGTH_UNIT ( ) NAMED_UNIT ( #1 ) );
#151 =( NAMED_UNIT ( * ) SI_UNIT ( $, .STERADIAN. ) SOLID_ANGLE_UNIT ( ) );
#152 = FILL_AREA_STYLE ('',( #201 ) ) ;
#153 = AXIS2_PLACEMENT_3D ( 'NONE', #13, #74, #215 ) ;
#154 = SURFACE_SIDE_STYLE ('',( #96 ) ) ;
#155 = VERTEX_POINT ( 'NONE', #175 ) ;
#156 = EDGE_CURVE ( 'NONE', #24, #47, #210, .T. ) ;
#157 = DIRECTION ( 'NONE',  ( -1.000000000000000000, -0.000000000000000000, -0.000000000000000000 ) ) ;
#158 = ORIENTED_EDGE ( 'NONE', *, *, #76, .F. ) ;
#159 = DIRECTION ( 'NONE',  ( 0.000000000000000000, 0.000000000000000000, -1.000000000000000000 ) ) ;
#160 = VERTEX_POINT ( 'NONE', #62 ) ;
#161 = LENGTH_MEASURE_WITH_UNIT ( LENGTH_MEASURE( 0.02539999999999999897 ), #39 );
#162 = ORIENTED_EDGE ( 'NONE', *, *, #190, .T. ) ;
#163 = EDGE_LOOP ( 'NONE', ( #71, #34 ) ) ;
#164 = CARTESIAN_POINT ( 'NONE',  ( 0.04000000000000011879, 0.000000000000000000, 0.000000000000000000 ) ) ;
#165 = ORIENTED_EDGE ( 'NONE', *, *, #176, .F. ) ;
#166 = DIRECTION ( 'NONE',  ( 1.000000000000000000, 0.000000000000000000, 0.000000000000000000 ) ) ;
#167 = STYLED_ITEM ( 'NONE', ( #50 ), #174 ) ;
#168 = APPLICATION_CONTEXT ( 'automotive_design' ) ;
#169 = CARTESIAN_POINT ( 'NONE',  ( 4.290708661417323100, 0.000000000000000000, 0.000000000000000000 ) ) ;
#170 = FACE_OUTER_BOUND ( 'NONE', #127, .T. ) ;
#171 =( GEOMETRIC_REPRESENTATION_CONTEXT ( 3 ) GLOBAL_UNCERTAINTY_ASSIGNED_CONTEXT ( ( #53 ) ) GLOBAL_UNIT_ASSIGNED_CONTEXT ( ( #182, #224, #6 ) ) REPRESENTATION_CONTEXT ( 'NONE', 'WORKASPACE' ) );
#172 = DIRECTION ( 'NONE',  ( 0.000000000000000000, 0.000000000000000000, 1.000000000000000000 ) ) ;
#173 = CARTESIAN_POINT ( 'NONE',  ( 0.04000000000000011879, 0.000000000000000000, 0.000000000000000000 ) ) ;
#174 = MANIFOLD_SOLID_BREP ( 'Fillet1', #49 ) ;
#175 = CARTESIAN_POINT ( 'NONE',  ( 4.330708661417323135, 0.000000000000000000, -0.2100000000000000200 ) ) ;
#176 = EDGE_CURVE ( 'NONE', #223, #52, #194, .T. ) ;
#177 = CYLINDRICAL_SURFACE ( 'NONE', #45, 0.2500000000000000000 ) ;
#178 = ORIENTED_EDGE ( 'NONE', *, *, #104, .F. ) ;
#179 = EDGE_LOOP ( 'NONE', ( #85, #206, #165, #99 ) ) ;
#180 = PRODUCT_DEFINITION_SHAPE ( 'NONE', 'NONE',  #208 ) ;
#181 = TOROIDAL_SURFACE ( 'NONE', #55, 0.2100000000000000200, 0.04000000000000000083 ) ;
#182 =( CONVERSION_BASED_UNIT ( 'INCH', #161 ) LENGTH_UNIT ( ) NAMED_UNIT ( #35 ) );
#183 = ORIENTED_EDGE ( 'NONE', *, *, #212, .T. ) ;
#184 = ADVANCED_FACE ( 'NONE', ( #57 ), #107, .F. ) ;
#185 = DIRECTION ( 'NONE',  ( 1.000000000000000000, 0.000000000000000000, 0.000000000000000000 ) ) ;
#186 = DIRECTION ( 'NONE',  ( 0.000000000000000000, -1.000000000000000000, 0.000000000000000000 ) ) ;
#187 = CARTESIAN_POINT ( 'NONE',  ( 4.330708661417323135, 0.000000000000000000, 0.000000000000000000 ) ) ;
#188 = DIRECTION ( 'NONE',  ( -1.000000000000000000, -0.000000000000000000, -0.000000000000000000 ) ) ;
#189 = CIRCLE ( 'NONE', #200, 0.2100000000000000200 ) ;
#190 = EDGE_CURVE ( 'NONE', #160, #223, #105, .T. ) ;
#191 = DIRECTION ( 'NONE',  ( 1.000000000000000000, 0.000000000000000000, 0.000000000000000000 ) ) ;
#192 = CIRCLE ( 'NONE', #11, 0.03999999999999998002 ) ;
#193 = PRODUCT ( 'Gantry Rod', 'Gantry Rod', '', ( #230 ) ) ;
#194 = CIRCLE ( 'NONE', #90, 0.2500000000000000000 ) ;
#195 = CARTESIAN_POINT ( 'NONE',  ( 4.330708661417323135, 2.816687638038912303E-17, 0.2100000000000000200 ) ) ;
#196 = PLANE ( 'NONE',  #97 ) ;
#197 = ADVANCED_BREP_SHAPE_REPRESENTATION ( 'Gantry Rod', ( #174, #123 ), #171 ) ;
#198 = TOROIDAL_SURFACE ( 'NONE', #43, 0.2100000000000000200, 0.04000000000000000083 ) ;
#199 = FACE_OUTER_BOUND ( 'NONE', #102, .T. ) ;
#200 = AXIS2_PLACEMENT_3D ( 'NONE', #227, #232, #60 ) ;
#201 = FILL_AREA_STYLE_COLOUR ( '', #135 ) ;
#202 = ORIENTED_EDGE ( 'NONE', *, *, #116, .T. ) ;
#203 = EDGE_LOOP ( 'NONE', ( #84, #225, #21, #86 ) ) ;
#204 = EDGE_CURVE ( 'NONE', #125, #155, #235, .T. ) ;
#205 = CIRCLE ( 'NONE', #68, 0.03999999999999998002 ) ;
#206 = ORIENTED_EDGE ( 'NONE', *, *, #140, .T. ) ;
#207 = CARTESIAN_POINT ( 'NONE',  ( 4.330708661417323135, 0.000000000000000000, 0.000000000000000000 ) ) ;
#208 = PRODUCT_DEFINITION ( 'General', '', #3, #81 ) ;
#209 = DIRECTION ( 'NONE',  ( 0.000000000000000000, 0.000000000000000000, -1.000000000000000000 ) ) ;
#210 = CIRCLE ( 'NONE', #149, 0.2100000000000000200 ) ;
#211 = DIRECTION ( 'NONE',  ( -1.000000000000000000, -0.000000000000000000, -0.000000000000000000 ) ) ;
#212 = EDGE_CURVE ( 'NONE', #160, #122, #77, .T. ) ;
#213 = CIRCLE ( 'NONE', #73, 0.2500000000000000000 ) ;
#214 = DIRECTION ( 'NONE',  ( 0.000000000000000000, 1.224646799147353947E-16, 1.000000000000000000 ) ) ;
#215 = DIRECTION ( 'NONE',  ( 0.000000000000000000, 0.000000000000000000, -1.000000000000000000 ) ) ;
#216 =( NAMED_UNIT ( * ) PLANE_ANGLE_UNIT ( ) SI_UNIT ( $, .RADIAN. ) );
#217 = TOROIDAL_SURFACE ( 'NONE', #29, 0.2100000000000000200, 0.04000000000000000083 ) ;
#218 = LENGTH_MEASURE_WITH_UNIT ( LENGTH_MEASURE( 0.02539999999999999897 ), #78 );
#219 = DIRECTION ( 'NONE',  ( -1.000000000000000000, -0.000000000000000000, -0.000000000000000000 ) ) ;
#220 = EDGE_LOOP ( 'NONE', ( #9, #40, #139, #30 ) ) ;
#221 = AXIS2_PLACEMENT_3D ( 'NONE', #4, #51, #138 ) ;
#222 = CARTESIAN_POINT ( 'NONE',  ( 0.000000000000000000, 0.000000000000000000, 0.000000000000000000 ) ) ;
#223 = VERTEX_POINT ( 'NONE', #121 ) ;
#224 =( NAMED_UNIT ( * ) PLANE_ANGLE_UNIT ( ) SI_UNIT ( $, .RADIAN. ) );
#225 = ORIENTED_EDGE ( 'NONE', *, *, #33, .F. ) ;
#226 = VECTOR ( 'NONE', #20, 39.37007874015748143 ) ;
#227 = CARTESIAN_POINT ( 'NONE',  ( 0.000000000000000000, 0.000000000000000000, 0.000000000000000000 ) ) ;
#228 = DIRECTION ( 'NONE',  ( 1.000000000000000000, 0.000000000000000000, 0.000000000000000000 ) ) ;
#229 = DIRECTION ( 'NONE',  ( 1.000000000000000000, 0.000000000000000000, 0.000000000000000000 ) ) ;
#230 = PRODUCT_CONTEXT ( 'NONE', #168, 'mechanical' ) ;
#231 = AXIS2_PLACEMENT_3D ( 'NONE', #145, #228, #10 ) ;
#232 = DIRECTION ( 'NONE',  ( -1.000000000000000000, -0.000000000000000000, -0.000000000000000000 ) ) ;
#233 = EDGE_CURVE ( 'NONE', #47, #223, #80, .T. ) ;
#234 = DIRECTION ( 'NONE',  ( 0.000000000000000000, 0.000000000000000000, -1.000000000000000000 ) ) ;
#235 = CIRCLE ( 'NONE', #88, 0.2100000000000000200 ) ;
ENDSEC;
END-ISO-10303-21;
