ISO-10303-21;
HEADER;
FILE_DESCRIPTION (( 'STEP AP214' ),
    '1' );
FILE_NAME ('Inner gantry bracket, upper.STEP',
    '2026-02-20T19:34:19',
    ( '' ),
    ( '' ),
    'SwSTEP 2.0',
    'SolidWorks 2025',
    '' );
FILE_SCHEMA (( 'AUTOMOTIVE_DESIGN' ));
ENDSEC;

DATA;
#1 = CYLINDRICAL_SURFACE ( 'NONE', #9, 0.2500000000000000555 ) ;
#2 = CARTESIAN_POINT ( 'NONE',  ( -1.199999999999999956, 0.9730000000000001981, 0.2500000000000003331 ) ) ;
#3 = ORIENTED_EDGE ( 'NONE', *, *, #19, .F. ) ;
#4 = PLANE ( 'NONE',  #170 ) ;
#5 = ORIENTED_EDGE ( 'NONE', *, *, #294, .T. ) ;
#6 = DIRECTION ( 'NONE',  ( -0.000000000000000000, 1.000000000000000000, -0.000000000000000000 ) ) ;
#7 = EDGE_CURVE ( 'NONE', #99, #126, #204, .T. ) ;
#8 = CARTESIAN_POINT ( 'NONE',  ( -1.499999999999999778, 0.9730000000000001981, 0.000000000000000000 ) ) ;
#9 = AXIS2_PLACEMENT_3D ( 'NONE', #63, #543, #11 ) ;
#10 = AXIS2_PLACEMENT_3D ( 'NONE', #287, #101, #141 ) ;
#11 = DIRECTION ( 'NONE',  ( -1.000000000000000000, 0.000000000000000000, 0.000000000000000000 ) ) ;
#12 = ORIENTED_EDGE ( 'NONE', *, *, #251, .T. ) ;
#13 = VERTEX_POINT ( 'NONE', #354 ) ;
#14 = ORIENTED_EDGE ( 'NONE', *, *, #54, .F. ) ;
#15 = DIRECTION ( 'NONE',  ( 0.000000000000000000, 1.000000000000000000, 0.000000000000000000 ) ) ;
#16 = VERTEX_POINT ( 'NONE', #308 ) ;
#17 = ORIENTED_EDGE ( 'NONE', *, *, #140, .F. ) ;
#18 = FACE_BOUND ( 'NONE', #65, .T. ) ;
#19 = EDGE_CURVE ( 'NONE', #470, #317, #437, .T. ) ;
#20 = ORIENTED_EDGE ( 'NONE', *, *, #193, .T. ) ;
#21 = CIRCLE ( 'NONE', #107, 0.09674999999999989164 ) ;
#22 = CARTESIAN_POINT ( 'NONE',  ( -1.499999999999999778, 1.323000000000000176, 0.3750000000000001110 ) ) ;
#23 = UNCERTAINTY_MEASURE_WITH_UNIT (LENGTH_MEASURE( 1.000000000000000082E-05 ), #386, 'distance_accuracy_value', 'NONE');
#24 = CARTESIAN_POINT ( 'NONE',  ( -1.499999999999999778, 0.9730000000000001981, 0.5000000000000000000 ) ) ;
#25 = CARTESIAN_POINT ( 'NONE',  ( 1.500000000000000444, 1.323000000000000176, 0.5000000000000000000 ) ) ;
#26 = FACE_BOUND ( 'NONE', #296, .T. ) ;
#27 = DIRECTION ( 'NONE',  ( -0.000000000000000000, -0.000000000000000000, 1.000000000000000000 ) ) ;
#28 = EDGE_CURVE ( 'NONE', #216, #13, #124, .T. ) ;
#29 = ORIENTED_EDGE ( 'NONE', *, *, #165, .T. ) ;
#30 = DIRECTION ( 'NONE',  ( 1.000000000000000000, 0.000000000000000000, 0.000000000000000000 ) ) ;
#31 = AXIS2_PLACEMENT_3D ( 'NONE', #284, #436, #616 ) ;
#32 = CARTESIAN_POINT ( 'NONE',  ( -1.750000000000000000, 0.9730000000000001981, 0.5000000000000000000 ) ) ;
#33 = ORIENTED_EDGE ( 'NONE', *, *, #464, .T. ) ;
#34 = DIRECTION ( 'NONE',  ( -1.000000000000000000, 0.000000000000000000, 0.000000000000000000 ) ) ;
#35 = CARTESIAN_POINT ( 'NONE',  ( -1.199999999999999956, 0.9730000000000001981, 0.2500000000000003331 ) ) ;
#36 = ORIENTED_EDGE ( 'NONE', *, *, #571, .T. ) ;
#37 = DIRECTION ( 'NONE',  ( -0.000000000000000000, 1.000000000000000000, -0.000000000000000000 ) ) ;
#38 = ORIENTED_EDGE ( 'NONE', *, *, #203, .F. ) ;
#39 = FACE_OUTER_BOUND ( 'NONE', #209, .T. ) ;
#40 = CIRCLE ( 'NONE', #615, 0.09674999999999989164 ) ;
#41 = AXIS2_PLACEMENT_3D ( 'NONE', #440, #91, #293 ) ;
#42 = ORIENTED_EDGE ( 'NONE', *, *, #569, .F. ) ;
#43 = CARTESIAN_POINT ( 'NONE',  ( 1.200000000000000400, 1.323000000000000176, 0.1532500000000001639 ) ) ;
#44 = ADVANCED_FACE ( 'NONE', ( #412 ), #552, .F. ) ;
#45 = CARTESIAN_POINT ( 'NONE',  ( -1.199999999999999956, 1.323000000000000176, 0.1532500000000004692 ) ) ;
#46 = LINE ( 'NONE', #8, #328 ) ;
#47 = CARTESIAN_POINT ( 'NONE',  ( -1.499999999999999778, 1.323000000000000176, 0.3750000000000000555 ) ) ;
#48 = EDGE_CURVE ( 'NONE', #173, #185, #509, .T. ) ;
#49 = CIRCLE ( 'NONE', #157, 0.09674999999999989164 ) ;
#50 = CARTESIAN_POINT ( 'NONE',  ( 8.195543980992789655E-16, 0.9730000000000001981, 0.3467499999999998361 ) ) ;
#51 = VERTEX_POINT ( 'NONE', #424 ) ;
#52 = EDGE_CURVE ( 'NONE', #414, #219, #589, .T. ) ;
#53 = ORIENTED_EDGE ( 'NONE', *, *, #137, .T. ) ;
#54 = EDGE_CURVE ( 'NONE', #216, #85, #428, .T. ) ;
#55 = DIRECTION ( 'NONE',  ( -0.000000000000000000, 1.000000000000000000, -0.000000000000000000 ) ) ;
#56 = ORIENTED_EDGE ( 'NONE', *, *, #294, .F. ) ;
#57 = CARTESIAN_POINT ( 'NONE',  ( 1.500000000000000444, 1.323000000000000176, 0.000000000000000000 ) ) ;
#58 = AXIS2_PLACEMENT_3D ( 'NONE', #264, #360, #34 ) ;
#59 = DIMENSIONAL_EXPONENTS ( 1.000000000000000000, 0.000000000000000000, 0.000000000000000000, 0.000000000000000000, 0.000000000000000000, 0.000000000000000000, 0.000000000000000000 ) ;
#60 = ORIENTED_EDGE ( 'NONE', *, *, #7, .F. ) ;
#61 = PLANE ( 'NONE',  #230 ) ;
#62 = ORIENTED_EDGE ( 'NONE', *, *, #19, .T. ) ;
#63 = CARTESIAN_POINT ( 'NONE',  ( 0.6875000000000000000, 0.8240000000000003988, 0.5000000000000000000 ) ) ;
#64 = EDGE_LOOP ( 'NONE', ( #334, #353, #229, #150, #524, #72 ) ) ;
#65 = EDGE_LOOP ( 'NONE', ( #475, #612 ) ) ;
#66 = CARTESIAN_POINT ( 'NONE',  ( 1.200000000000000400, 0.9730000000000001981, 0.1532500000000001639 ) ) ;
#67 = ORIENTED_EDGE ( 'NONE', *, *, #7, .T. ) ;
#68 = AXIS2_PLACEMENT_3D ( 'NONE', #432, #613, #84 ) ;
#69 = CARTESIAN_POINT ( 'NONE',  ( -0.6875000000000000000, 0.8240000000000002878, 0.5000000000000000000 ) ) ;
#70 = DIRECTION ( 'NONE',  ( 0.000000000000000000, -0.000000000000000000, 1.000000000000000000 ) ) ;
#71 = SHAPE_DEFINITION_REPRESENTATION ( #179, #342 ) ;
#72 = ORIENTED_EDGE ( 'NONE', *, *, #416, .T. ) ;
#73 = DIRECTION ( 'NONE',  ( 1.000000000000000000, 0.000000000000000000, 0.000000000000000000 ) ) ;
#74 = EDGE_CURVE ( 'NONE', #317, #173, #266, .T. ) ;
#75 = CARTESIAN_POINT ( 'NONE',  ( 0.4867538916940103988, 0.9730000000000001981, 0.5000000000000000000 ) ) ;
#76 = ORIENTED_EDGE ( 'NONE', *, *, #502, .T. ) ;
#77 = EDGE_CURVE ( 'NONE', #185, #429, #275, .T. ) ;
#78 = DIRECTION ( 'NONE',  ( -0.000000000000000000, 1.000000000000000000, -0.000000000000000000 ) ) ;
#79 = ORIENTED_EDGE ( 'NONE', *, *, #131, .F. ) ;
#80 = VECTOR ( 'NONE', #73, 39.37007874015748143 ) ;
#81 = CIRCLE ( 'NONE', #305, 0.09674999999999986389 ) ;
#82 = FACE_OUTER_BOUND ( 'NONE', #592, .T. ) ;
#83 = ORIENTED_EDGE ( 'NONE', *, *, #538, .F. ) ;
#84 = DIRECTION ( 'NONE',  ( 0.000000000000000000, 0.000000000000000000, 1.000000000000000000 ) ) ;
#85 = VERTEX_POINT ( 'NONE', #214 ) ;
#86 = DIRECTION ( 'NONE',  ( 1.000000000000000000, 0.000000000000000000, -0.000000000000000000 ) ) ;
#87 = EDGE_LOOP ( 'NONE', ( #244, #331, #62, #195, #255, #442, #336, #300 ) ) ;
#88 = DIRECTION ( 'NONE',  ( 1.000000000000000000, 0.000000000000000000, 0.000000000000000000 ) ) ;
#89 = AXIS2_PLACEMENT_3D ( 'NONE', #409, #313, #504 ) ;
#90 = VECTOR ( 'NONE', #484, 39.37007874015748143 ) ;
#91 = DIRECTION ( 'NONE',  ( 0.000000000000000000, 0.000000000000000000, 1.000000000000000000 ) ) ;
#92 = LINE ( 'NONE', #483, #272 ) ;
#93 = PRODUCT_RELATED_PRODUCT_CATEGORY ( 'part', '', ( #333 ) ) ;
#94 = CARTESIAN_POINT ( 'NONE',  ( -1.199999999999999956, 1.323000000000000176, 0.1532500000000004692 ) ) ;
#95 = DIRECTION ( 'NONE',  ( 0.000000000000000000, 0.000000000000000000, 1.000000000000000000 ) ) ;
#96 = MANIFOLD_SOLID_BREP ( '#10 (0.1935) Diameter Hole1', #447 ) ;
#97 = VECTOR ( 'NONE', #468, 39.37007874015748143 ) ;
#98 = EDGE_CURVE ( 'NONE', #135, #148, #21, .T. ) ;
#99 = VERTEX_POINT ( 'NONE', #500 ) ;
#100 = ADVANCED_FACE ( 'NONE', ( #259 ), #604, .F. ) ;
#101 = DIRECTION ( 'NONE',  ( -0.000000000000000000, 1.000000000000000000, -0.000000000000000000 ) ) ;
#102 = LINE ( 'NONE', #109, #208 ) ;
#103 = VERTEX_POINT ( 'NONE', #22 ) ;
#104 = DIRECTION ( 'NONE',  ( 1.000000000000000000, 0.000000000000000000, 0.000000000000000000 ) ) ;
#105 = ORIENTED_EDGE ( 'NONE', *, *, #584, .T. ) ;
#106 = CARTESIAN_POINT ( 'NONE',  ( 1.200000000000000400, 1.323000000000000176, 0.3467499999999999472 ) ) ;
#107 = AXIS2_PLACEMENT_3D ( 'NONE', #166, #593, #512 ) ;
#108 = ORIENTED_EDGE ( 'NONE', *, *, #164, .T. ) ;
#109 = CARTESIAN_POINT ( 'NONE',  ( -1.199999999999999956, 1.323000000000000176, 0.3467500000000002247 ) ) ;
#110 = ORIENTED_EDGE ( 'NONE', *, *, #435, .T. ) ;
#111 = DIRECTION ( 'NONE',  ( 0.000000000000000000, 0.000000000000000000, 1.000000000000000000 ) ) ;
#112 = VERTEX_POINT ( 'NONE', #210 ) ;
#113 = DIRECTION ( 'NONE',  ( -1.000000000000000000, -0.000000000000000000, -0.000000000000000000 ) ) ;
#114 = DIRECTION ( 'NONE',  ( 0.000000000000000000, 0.000000000000000000, 1.000000000000000000 ) ) ;
#115 = DIRECTION ( 'NONE',  ( 0.000000000000000000, 0.000000000000000000, 1.000000000000000000 ) ) ;
#116 = DIRECTION ( 'NONE',  ( 0.000000000000000000, 0.000000000000000000, 1.000000000000000000 ) ) ;
#117 = ORIENTED_EDGE ( 'NONE', *, *, #444, .F. ) ;
#118 = AXIS2_PLACEMENT_3D ( 'NONE', #491, #582, #349 ) ;
#119 = CIRCLE ( 'NONE', #31, 0.2500000000000000555 ) ;
#120 = EDGE_CURVE ( 'NONE', #541, #16, #304, .T. ) ;
#121 =( NAMED_UNIT ( * ) PLANE_ANGLE_UNIT ( ) SI_UNIT ( $, .RADIAN. ) );
#122 = CARTESIAN_POINT ( 'NONE',  ( -1.199999999999999956, 0.9730000000000001981, 0.3467500000000002247 ) ) ;
#123 = ADVANCED_FACE ( 'NONE', ( #39 ), #184, .F. ) ;
#124 = LINE ( 'NONE', #368, #260 ) ;
#125 = PLANE ( 'NONE',  #575 ) ;
#126 = VERTEX_POINT ( 'NONE', #335 ) ;
#127 =( NAMED_UNIT ( * ) SI_UNIT ( $, .STERADIAN. ) SOLID_ANGLE_UNIT ( ) );
#128 = DIRECTION ( 'NONE',  ( 1.000000000000000000, 0.000000000000000000, 0.000000000000000000 ) ) ;
#129 = ORIENTED_EDGE ( 'NONE', *, *, #341, .F. ) ;
#130 = VECTOR ( 'NONE', #330, 39.37007874015748143 ) ;
#131 = EDGE_CURVE ( 'NONE', #586, #451, #404, .T. ) ;
#132 = CYLINDRICAL_SURFACE ( 'NONE', #68, 0.09674999999999986389 ) ;
#133 = ORIENTED_EDGE ( 'NONE', *, *, #165, .F. ) ;
#134 = LINE ( 'NONE', #523, #139 ) ;
#135 = VERTEX_POINT ( 'NONE', #43 ) ;
#136 = DIRECTION ( 'NONE',  ( 0.000000000000000000, 1.951319995474474714E-16, 1.000000000000000000 ) ) ;
#137 = EDGE_CURVE ( 'NONE', #151, #511, #439, .T. ) ;
#138 = DIRECTION ( 'NONE',  ( 0.000000000000000000, 0.000000000000000000, 1.000000000000000000 ) ) ;
#139 = VECTOR ( 'NONE', #88, 39.37007874015748143 ) ;
#140 = EDGE_CURVE ( 'NONE', #99, #103, #231, .T. ) ;
#141 = DIRECTION ( 'NONE',  ( 0.000000000000000000, 0.000000000000000000, 1.000000000000000000 ) ) ;
#142 = CARTESIAN_POINT ( 'NONE',  ( 0.4867538916940103988, 0.9730000000000001981, 0.000000000000000000 ) ) ;
#143 = CARTESIAN_POINT ( 'NONE',  ( 1.200000000000000400, 0.9730000000000001981, 0.3467499999999999472 ) ) ;
#144 = FACE_BOUND ( 'NONE', #397, .T. ) ;
#145 = ORIENTED_EDGE ( 'NONE', *, *, #502, .F. ) ;
#146 = AXIS2_PLACEMENT_3D ( 'NONE', #332, #288, #188 ) ;
#147 = LINE ( 'NONE', #57, #449 ) ;
#148 = VERTEX_POINT ( 'NONE', #563 ) ;
#149 = FACE_OUTER_BOUND ( 'NONE', #501, .T. ) ;
#150 = ORIENTED_EDGE ( 'NONE', *, *, #464, .F. ) ;
#151 = VERTEX_POINT ( 'NONE', #485 ) ;
#152 = CYLINDRICAL_SURFACE ( 'NONE', #329, 0.09674999999999989164 ) ;
#153 = DIRECTION ( 'NONE',  ( 0.000000000000000000, -1.000000000000000000, 1.951319995474474714E-16 ) ) ;
#154 = CARTESIAN_POINT ( 'NONE',  ( -1.499999999999999778, 1.323000000000000176, 0.5000000000000000000 ) ) ;
#155 = MECHANICAL_DESIGN_GEOMETRIC_PRESENTATION_REPRESENTATION (  '', ( #236 ), #418 ) ;
#156 = EDGE_CURVE ( 'NONE', #85, #381, #427, .T. ) ;
#157 = AXIS2_PLACEMENT_3D ( 'NONE', #591, #369, #116 ) ;
#158 = ORIENTED_EDGE ( 'NONE', *, *, #549, .T. ) ;
#159 = ORIENTED_EDGE ( 'NONE', *, *, #584, .F. ) ;
#160 = DIRECTION ( 'NONE',  ( -1.000000000000000000, 0.000000000000000000, 0.000000000000000000 ) ) ;
#161 = EDGE_CURVE ( 'NONE', #381, #362, #134, .T. ) ;
#162 =( LENGTH_UNIT ( ) NAMED_UNIT ( * ) SI_UNIT ( $, .METRE. ) );
#163 = DIRECTION ( 'NONE',  ( -0.000000000000000000, -0.000000000000000000, -1.000000000000000000 ) ) ;
#164 = EDGE_CURVE ( 'NONE', #103, #536, #285, .T. ) ;
#165 = EDGE_CURVE ( 'NONE', #201, #521, #492, .T. ) ;
#166 = CARTESIAN_POINT ( 'NONE',  ( 1.200000000000000400, 1.323000000000000176, 0.2500000000000000555 ) ) ;
#167 = CARTESIAN_POINT ( 'NONE',  ( -0.4867538916940105653, 0.9730000000000001981, 0.5000000000000000000 ) ) ;
#168 = ORIENTED_EDGE ( 'NONE', *, *, #137, .F. ) ;
#169 = VECTOR ( 'NONE', #375, 39.37007874015748143 ) ;
#170 = AXIS2_PLACEMENT_3D ( 'NONE', #337, #136, #246 ) ;
#171 = CARTESIAN_POINT ( 'NONE',  ( -1.499999999999999778, 0.9730000000000001981, 0.5000000000000000000 ) ) ;
#172 = CARTESIAN_POINT ( 'NONE',  ( -0.4867538916940105653, 0.9730000000000001981, 0.5000000000000000000 ) ) ;
#173 = VERTEX_POINT ( 'NONE', #338 ) ;
#174 = LENGTH_MEASURE_WITH_UNIT ( LENGTH_MEASURE( 0.02539999999999999897 ), #162 );
#175 = FACE_BOUND ( 'NONE', #371, .T. ) ;
#176 = CARTESIAN_POINT ( 'NONE',  ( -0.4867538916940105653, 0.9730000000000001981, 0.5000000000000000000 ) ) ;
#177 = ORIENTED_EDGE ( 'NONE', *, *, #540, .F. ) ;
#178 = CIRCLE ( 'NONE', #290, 0.09674999999999986389 ) ;
#179 = PRODUCT_DEFINITION_SHAPE ( 'NONE', 'NONE',  #324 ) ;
#180 = AXIS2_PLACEMENT_3D ( 'NONE', #270, #602, #222 ) ;
#181 = CARTESIAN_POINT ( 'NONE',  ( 8.195543980992789655E-16, 1.323000000000000176, 0.3467499999999999472 ) ) ;
#182 = EDGE_CURVE ( 'NONE', #185, #112, #237, .T. ) ;
#183 = ORIENTED_EDGE ( 'NONE', *, *, #203, .T. ) ;
#184 = CYLINDRICAL_SURFACE ( 'NONE', #189, 0.09674999999999986389 ) ;
#185 = VERTEX_POINT ( 'NONE', #234 ) ;
#186 = ADVANCED_FACE ( 'NONE', ( #339 ), #132, .F. ) ;
#187 = LINE ( 'NONE', #45, #503 ) ;
#188 = DIRECTION ( 'NONE',  ( 0.000000000000000000, 0.000000000000000000, 1.000000000000000000 ) ) ;
#189 = AXIS2_PLACEMENT_3D ( 'NONE', #380, #518, #283 ) ;
#190 = VECTOR ( 'NONE', #322, 39.37007874015748143 ) ;
#191 = CARTESIAN_POINT ( 'NONE',  ( 0.000000000000000000, 0.000000000000000000, 0.000000000000000000 ) ) ;
#192 = CARTESIAN_POINT ( 'NONE',  ( -1.199999999999999956, 1.323000000000000176, 0.2500000000000003331 ) ) ;
#193 = EDGE_CURVE ( 'NONE', #455, #429, #92, .T. ) ;
#194 = DIRECTION ( 'NONE',  ( 0.000000000000000000, 0.000000000000000000, 1.000000000000000000 ) ) ;
#195 = ORIENTED_EDGE ( 'NONE', *, *, #74, .T. ) ;
#196 = EDGE_LOOP ( 'NONE', ( #377, #212, #159, #42, #519, #168, #401, #271 ) ) ;
#197 = VECTOR ( 'NONE', #78, 39.37007874015748143 ) ;
#198 = LINE ( 'NONE', #352, #366 ) ;
#199 = LINE ( 'NONE', #578, #553 ) ;
#200 = FACE_OUTER_BOUND ( 'NONE', #609, .T. ) ;
#201 = VERTEX_POINT ( 'NONE', #94 ) ;
#202 = ORIENTED_EDGE ( 'NONE', *, *, #348, .F. ) ;
#203 = EDGE_CURVE ( 'NONE', #517, #201, #187, .T. ) ;
#204 = LINE ( 'NONE', #253, #514 ) ;
#205 = PRODUCT_CONTEXT ( 'NONE', #382, 'mechanical' ) ;
#206 = EDGE_LOOP ( 'NONE', ( #357, #494, #76, #110 ) ) ;
#207 = EDGE_LOOP ( 'NONE', ( #108, #177, #60, #498 ) ) ;
#208 = VECTOR ( 'NONE', #579, 39.37007874015748143 ) ;
#209 = EDGE_LOOP ( 'NONE', ( #38, #481, #490, #5 ) ) ;
#210 = CARTESIAN_POINT ( 'NONE',  ( 1.500000000000000444, 1.323000000000000176, 0.000000000000000000 ) ) ;
#211 = DIRECTION ( 'NONE',  ( 1.000000000000000000, -0.000000000000000000, -0.000000000000000000 ) ) ;
#212 = ORIENTED_EDGE ( 'NONE', *, *, #610, .F. ) ;
#213 = EDGE_CURVE ( 'NONE', #173, #511, #474, .T. ) ;
#214 = CARTESIAN_POINT ( 'NONE',  ( -0.4867538916940105653, 0.9730000000000001981, 0.5000000000000000000 ) ) ;
#215 = CARTESIAN_POINT ( 'NONE',  ( 0.4867538916940103988, 0.9730000000000001981, 0.5000000000000000000 ) ) ;
#216 = VERTEX_POINT ( 'NONE', #606 ) ;
#217 = CARTESIAN_POINT ( 'NONE',  ( 1.200000000000000400, 1.323000000000000176, 0.2500000000000000555 ) ) ;
#218 = CARTESIAN_POINT ( 'NONE',  ( -1.750000000000000000, 1.323000000000000176, 0.5000000000000000000 ) ) ;
#219 = VERTEX_POINT ( 'NONE', #181 ) ;
#220 = AXIS2_PLACEMENT_3D ( 'NONE', #398, #445, #495 ) ;
#221 = CARTESIAN_POINT ( 'NONE',  ( 0.8882461083059896012, 0.9730000000000001981, 0.5000000000000000000 ) ) ;
#222 = DIRECTION ( 'NONE',  ( -1.000000000000000000, 0.000000000000000000, 0.000000000000000000 ) ) ;
#223 = ORIENTED_EDGE ( 'NONE', *, *, #131, .T. ) ;
#224 = FILL_AREA_STYLE ('',( #421 ) ) ;
#225 = DIRECTION ( 'NONE',  ( -0.000000000000000000, 1.000000000000000000, -0.000000000000000000 ) ) ;
#226 = EDGE_CURVE ( 'NONE', #148, #135, #40, .T. ) ;
#227 = ORIENTED_EDGE ( 'NONE', *, *, #213, .T. ) ;
#228 = CARTESIAN_POINT ( 'NONE',  ( 1.500000000000000444, 0.9730000000000001981, 0.5000000000000000000 ) ) ;
#229 = ORIENTED_EDGE ( 'NONE', *, *, #370, .F. ) ;
#230 = AXIS2_PLACEMENT_3D ( 'NONE', #454, #15, #515 ) ;
#231 = LINE ( 'NONE', #476, #607 ) ;
#232 = ADVANCED_FACE ( 'NONE', ( #567 ), #235, .F. ) ;
#233 = ORIENTED_EDGE ( 'NONE', *, *, #348, .T. ) ;
#234 = CARTESIAN_POINT ( 'NONE',  ( 1.500000000000000444, 1.323000000000000176, 0.5000000000000000000 ) ) ;
#235 = PLANE ( 'NONE',  #486 ) ;
#236 = STYLED_ITEM ( 'NONE', ( #559 ), #96 ) ;
#237 = LINE ( 'NONE', #527, #130 ) ;
#238 = AXIS2_PLACEMENT_3D ( 'NONE', #69, #596, #30 ) ;
#239 = VECTOR ( 'NONE', #128, 39.37007874015748143 ) ;
#240 = FACE_OUTER_BOUND ( 'NONE', #87, .T. ) ;
#241 = CARTESIAN_POINT ( 'NONE',  ( 0.8882461083059896012, 0.9730000000000001981, 0.5000000000000000000 ) ) ;
#242 = ORIENTED_EDGE ( 'NONE', *, *, #182, .F. ) ;
#243 =( LENGTH_UNIT ( ) NAMED_UNIT ( * ) SI_UNIT ( $, .METRE. ) );
#244 = ORIENTED_EDGE ( 'NONE', *, *, #54, .T. ) ;
#245 = DIRECTION ( 'NONE',  ( -0.000000000000000000, 1.000000000000000000, -0.000000000000000000 ) ) ;
#246 = DIRECTION ( 'NONE',  ( 0.000000000000000000, -1.000000000000000000, 1.951319995474474714E-16 ) ) ;
#247 = FACE_OUTER_BOUND ( 'NONE', #506, .T. ) ;
#248 = AXIS2_PLACEMENT_3D ( 'NONE', #585, #307, #252 ) ;
#249 = AXIS2_PLACEMENT_3D ( 'NONE', #191, #111, #457 ) ;
#250 = CARTESIAN_POINT ( 'NONE',  ( 1.200000000000000400, 1.323000000000000176, 0.1532500000000001639 ) ) ;
#251 = EDGE_CURVE ( 'NONE', #429, #99, #614, .T. ) ;
#252 = DIRECTION ( 'NONE',  ( 0.000000000000000000, 0.000000000000000000, -1.000000000000000000 ) ) ;
#253 = CARTESIAN_POINT ( 'NONE',  ( -1.750000000000000000, 1.323000000000000176, 0.3750000000000000555 ) ) ;
#254 = LINE ( 'NONE', #306, #516 ) ;
#255 = ORIENTED_EDGE ( 'NONE', *, *, #48, .T. ) ;
#256 = CARTESIAN_POINT ( 'NONE',  ( 1.200000000000000400, 1.323000000000000176, 0.2500000000000000555 ) ) ;
#257 = ORIENTED_EDGE ( 'NONE', *, *, #164, .F. ) ;
#258 = DIRECTION ( 'NONE',  ( -0.000000000000000000, -0.000000000000000000, -1.000000000000000000 ) ) ;
#259 = FACE_OUTER_BOUND ( 'NONE', #558, .T. ) ;
#260 = VECTOR ( 'NONE', #269, 39.37007874015748143 ) ;
#261 = CARTESIAN_POINT ( 'NONE',  ( -1.750000000000000000, 0.9730000000000001981, 0.5000000000000000000 ) ) ;
#262 = APPLICATION_PROTOCOL_DEFINITION ( 'draft international standard', 'automotive_design', 1998, #382 ) ;
#263 = ADVANCED_FACE ( 'NONE', ( #144, #390 ), #291, .F. ) ;
#264 = CARTESIAN_POINT ( 'NONE',  ( 0.6875000000000000000, 0.8240000000000003988, 0.5000000000000000000 ) ) ;
#265 = CARTESIAN_POINT ( 'NONE',  ( 8.195543980992789655E-16, 1.323000000000000176, 0.3467499999999999472 ) ) ;
#266 = LINE ( 'NONE', #221, #80 ) ;
#267 = FACE_BOUND ( 'NONE', #420, .T. ) ;
#268 = ORIENTED_EDGE ( 'NONE', *, *, #120, .T. ) ;
#269 = DIRECTION ( 'NONE',  ( -0.000000000000000000, -0.000000000000000000, -1.000000000000000000 ) ) ;
#270 = CARTESIAN_POINT ( 'NONE',  ( -0.6875000000000000000, 0.8240000000000002878, 0.5000000000000000000 ) ) ;
#271 = ORIENTED_EDGE ( 'NONE', *, *, #161, .F. ) ;
#272 = VECTOR ( 'NONE', #278, 39.37007874015748143 ) ;
#273 = VECTOR ( 'NONE', #245, 39.37007874015748143 ) ;
#274 = EDGE_CURVE ( 'NONE', #408, #521, #102, .T. ) ;
#275 = LINE ( 'NONE', #556, #395 ) ;
#276 = CARTESIAN_POINT ( 'NONE',  ( 1.500000000000000444, 1.323000000000000176, 0.5000000000000000000 ) ) ;
#277 = EDGE_LOOP ( 'NONE', ( #83, #183, #29, #583 ) ) ;
#278 = DIRECTION ( 'NONE',  ( -0.000000000000000000, 1.000000000000000000, -0.000000000000000000 ) ) ;
#279 = ADVANCED_FACE ( 'NONE', ( #448 ), #295, .F. ) ;
#280 = CARTESIAN_POINT ( 'NONE',  ( -1.750000000000000000, 1.323000000000000176, 0.5000000000000000000 ) ) ;
#281 = ORIENTED_EDGE ( 'NONE', *, *, #182, .T. ) ;
#282 = AXIS2_PLACEMENT_3D ( 'NONE', #365, #410, #469 ) ;
#283 = DIRECTION ( 'NONE',  ( 0.000000000000000000, 0.000000000000000000, 1.000000000000000000 ) ) ;
#284 = CARTESIAN_POINT ( 'NONE',  ( -0.6875000000000000000, 0.8240000000000002878, 0.000000000000000000 ) ) ;
#285 = LINE ( 'NONE', #47, #169 ) ;
#286 = EDGE_CURVE ( 'NONE', #408, #517, #178, .T. ) ;
#287 = CARTESIAN_POINT ( 'NONE',  ( 8.195543980992789655E-16, 0.9730000000000001981, 0.2500000000000000000 ) ) ;
#288 = DIRECTION ( 'NONE',  ( -0.000000000000000000, 1.000000000000000000, -0.000000000000000000 ) ) ;
#289 = DIRECTION ( 'NONE',  ( -1.000000000000000000, 0.000000000000000000, 0.000000000000000000 ) ) ;
#290 = AXIS2_PLACEMENT_3D ( 'NONE', #2, #493, #95 ) ;
#291 = PLANE ( 'NONE',  #118 ) ;
#292 = PRODUCT_DEFINITION_CONTEXT ( 'detailed design', #415, 'design' ) ;
#293 = DIRECTION ( 'NONE',  ( 1.000000000000000000, 0.000000000000000000, -0.000000000000000000 ) ) ;
#294 = EDGE_CURVE ( 'NONE', #521, #201, #531, .T. ) ;
#295 = CYLINDRICAL_SURFACE ( 'NONE', #376, 0.09674999999999993328 ) ;
#296 = EDGE_LOOP ( 'NONE', ( #268, #532 ) ) ;
#297 = DIRECTION ( 'NONE',  ( -1.000000000000000000, -0.000000000000000000, -0.000000000000000000 ) ) ;
#298 = CARTESIAN_POINT ( 'NONE',  ( 8.195543980992789655E-16, 1.323000000000000176, 0.2500000000000000000 ) ) ;
#299 = ADVANCED_FACE ( 'NONE', ( #247 ), #1, .F. ) ;
#300 = ORIENTED_EDGE ( 'NONE', *, *, #370, .T. ) ;
#301 = ADVANCED_FACE ( 'NONE', ( #200 ), #400, .F. ) ;
#302 = DIRECTION ( 'NONE',  ( 0.000000000000000000, 0.000000000000000000, 1.000000000000000000 ) ) ;
#303 = ORIENTED_EDGE ( 'NONE', *, *, #156, .T. ) ;
#304 = CIRCLE ( 'NONE', #89, 0.09674999999999986389 ) ;
#305 = AXIS2_PLACEMENT_3D ( 'NONE', #35, #225, #114 ) ;
#306 = CARTESIAN_POINT ( 'NONE',  ( 0.8882461083059896012, 0.9730000000000001981, 0.5000000000000000000 ) ) ;
#307 = DIRECTION ( 'NONE',  ( 1.000000000000000000, 0.000000000000000000, 0.000000000000000000 ) ) ;
#308 = CARTESIAN_POINT ( 'NONE',  ( 8.314028558810295785E-16, 0.9730000000000001981, 0.1532500000000001084 ) ) ;
#309 = ORIENTED_EDGE ( 'NONE', *, *, #318, .T. ) ;
#310 = ADVANCED_FACE ( 'NONE', ( #452 ), #152, .F. ) ;
#311 = LINE ( 'NONE', #461, #316 ) ;
#312 = EDGE_LOOP ( 'NONE', ( #327, #79, #233, #568 ) ) ;
#313 = DIRECTION ( 'NONE',  ( -0.000000000000000000, 1.000000000000000000, -0.000000000000000000 ) ) ;
#314 = VECTOR ( 'NONE', #573, 39.37007874015748143 ) ;
#315 = FACE_OUTER_BOUND ( 'NONE', #595, .T. ) ;
#316 = VECTOR ( 'NONE', #211, 39.37007874015748143 ) ;
#317 = VERTEX_POINT ( 'NONE', #241 ) ;
#318 = EDGE_CURVE ( 'NONE', #103, #51, #441, .T. ) ;
#319 = LINE ( 'NONE', #32, #581 ) ;
#320 = DIRECTION ( 'NONE',  ( -0.000000000000000000, 1.000000000000000000, -0.000000000000000000 ) ) ;
#321 = EDGE_CURVE ( 'NONE', #511, #112, #147, .T. ) ;
#322 = DIRECTION ( 'NONE',  ( -0.000000000000000000, -0.000000000000000000, -1.000000000000000000 ) ) ;
#323 = ORIENTED_EDGE ( 'NONE', *, *, #161, .T. ) ;
#324 = PRODUCT_DEFINITION ( 'General', '', #384, #292 ) ;
#325 = PLANE ( 'NONE',  #564 ) ;
#326 = PRESENTATION_LAYER_ASSIGNMENT (  '', '', ( #236 ) ) ;
#327 = ORIENTED_EDGE ( 'NONE', *, *, #351, .F. ) ;
#328 = VECTOR ( 'NONE', #443, 39.37007874015748143 ) ;
#329 = AXIS2_PLACEMENT_3D ( 'NONE', #256, #577, #194 ) ;
#330 = DIRECTION ( 'NONE',  ( -0.000000000000000000, -0.000000000000000000, -1.000000000000000000 ) ) ;
#331 = ORIENTED_EDGE ( 'NONE', *, *, #522, .T. ) ;
#332 = CARTESIAN_POINT ( 'NONE',  ( 1.200000000000000400, 0.9730000000000001981, 0.2500000000000000555 ) ) ;
#333 = PRODUCT ( 'Inner gantry bracket, upper', 'Inner gantry bracket, upper', '', ( #205 ) ) ;
#334 = ORIENTED_EDGE ( 'NONE', *, *, #610, .T. ) ;
#335 = CARTESIAN_POINT ( 'NONE',  ( -1.750000000000000000, 0.9730000000000001981, 0.3750000000000001110 ) ) ;
#336 = ORIENTED_EDGE ( 'NONE', *, *, #193, .F. ) ;
#337 = CARTESIAN_POINT ( 'NONE',  ( -1.750000000000000000, 1.323000000000000176, 0.3750000000000000555 ) ) ;
#338 = CARTESIAN_POINT ( 'NONE',  ( 1.500000000000000444, 0.9730000000000001981, 0.5000000000000000000 ) ) ;
#339 = FACE_OUTER_BOUND ( 'NONE', #277, .T. ) ;
#340 =( NAMED_UNIT ( * ) PLANE_ANGLE_UNIT ( ) SI_UNIT ( $, .RADIAN. ) );
#341 = EDGE_CURVE ( 'NONE', #317, #151, #254, .T. ) ;
#342 = ADVANCED_BREP_SHAPE_REPRESENTATION ( 'Inner gantry bracket, upper', ( #96, #249 ), #487 ) ;
#343 = CARTESIAN_POINT ( 'NONE',  ( 0.6875000000000000000, 0.8240000000000003988, 0.000000000000000000 ) ) ;
#344 = VECTOR ( 'NONE', #570, 39.37007874015748143 ) ;
#345 = EDGE_LOOP ( 'NONE', ( #117, #374, #603, #202 ) ) ;
#346 = DIRECTION ( 'NONE',  ( -0.000000000000000000, -0.000000000000000000, -1.000000000000000000 ) ) ;
#347 = CARTESIAN_POINT ( 'NONE',  ( -1.499999999999999778, 0.9730000000000001981, 0.000000000000000000 ) ) ;
#348 = EDGE_CURVE ( 'NONE', #586, #148, #407, .T. ) ;
#349 = DIRECTION ( 'NONE',  ( 0.000000000000000000, -0.000000000000000000, 1.000000000000000000 ) ) ;
#350 = ORIENTED_EDGE ( 'NONE', *, *, #341, .T. ) ;
#351 = EDGE_CURVE ( 'NONE', #451, #135, #356, .T. ) ;
#352 = CARTESIAN_POINT ( 'NONE',  ( -1.499999999999999778, 0.9730000000000001981, 0.5000000000000000000 ) ) ;
#353 = ORIENTED_EDGE ( 'NONE', *, *, #28, .F. ) ;
#354 = CARTESIAN_POINT ( 'NONE',  ( -0.8882461083059893792, 0.9730000000000001981, 0.000000000000000000 ) ) ;
#355 = AXIS2_PLACEMENT_3D ( 'NONE', #358, #320, #115 ) ;
#356 = LINE ( 'NONE', #250, #273 ) ;
#357 = ORIENTED_EDGE ( 'NONE', *, *, #571, .F. ) ;
#358 = CARTESIAN_POINT ( 'NONE',  ( 8.195543980992789655E-16, 1.323000000000000176, 0.2500000000000000000 ) ) ;
#359 = DIRECTION ( 'NONE',  ( 0.000000000000000000, 0.000000000000000000, 1.000000000000000000 ) ) ;
#360 = DIRECTION ( 'NONE',  ( -0.000000000000000000, -0.000000000000000000, -1.000000000000000000 ) ) ;
#361 = CYLINDRICAL_SURFACE ( 'NONE', #180, 0.2500000000000000555 ) ;
#362 = VERTEX_POINT ( 'NONE', #142 ) ;
#363 =( CONVERSION_BASED_UNIT ( 'INCH', #174 ) LENGTH_UNIT ( ) NAMED_UNIT ( #393 ) );
#364 = AXIS2_PLACEMENT_3D ( 'NONE', #217, #463, #372 ) ;
#365 = CARTESIAN_POINT ( 'NONE',  ( 8.195543980992789655E-16, 1.323000000000000176, 0.2500000000000000000 ) ) ;
#366 = VECTOR ( 'NONE', #104, 39.37007874015748143 ) ;
#367 = ADVANCED_FACE ( 'NONE', ( #149 ), #545, .F. ) ;
#368 = CARTESIAN_POINT ( 'NONE',  ( -0.8882461083059893792, 0.9730000000000001981, 0.5000000000000000000 ) ) ;
#369 = DIRECTION ( 'NONE',  ( -0.000000000000000000, 1.000000000000000000, -0.000000000000000000 ) ) ;
#370 = EDGE_CURVE ( 'NONE', #455, #216, #198, .T. ) ;
#371 = EDGE_LOOP ( 'NONE', ( #566, #423 ) ) ;
#372 = DIRECTION ( 'NONE',  ( 0.000000000000000000, 0.000000000000000000, 1.000000000000000000 ) ) ;
#373 = LINE ( 'NONE', #75, #617 ) ;
#374 = ORIENTED_EDGE ( 'NONE', *, *, #351, .T. ) ;
#375 = DIRECTION ( 'NONE',  ( 0.000000000000000000, -1.000000000000000000, 1.951319995474474714E-16 ) ) ;
#376 = AXIS2_PLACEMENT_3D ( 'NONE', #298, #529, #302 ) ;
#377 = ORIENTED_EDGE ( 'NONE', *, *, #549, .F. ) ;
#378 = DIRECTION ( 'NONE',  ( -0.000000000000000000, 1.000000000000000000, -0.000000000000000000 ) ) ;
#379 = ORIENTED_EDGE ( 'NONE', *, *, #522, .F. ) ;
#380 = CARTESIAN_POINT ( 'NONE',  ( -1.199999999999999956, 1.323000000000000176, 0.2500000000000003331 ) ) ;
#381 = VERTEX_POINT ( 'NONE', #456 ) ;
#382 = APPLICATION_CONTEXT ( 'automotive_design' ) ;
#383 = DIRECTION ( 'NONE',  ( -0.000000000000000000, 1.000000000000000000, -0.000000000000000000 ) ) ;
#384 = PRODUCT_DEFINITION_FORMATION_WITH_SPECIFIED_SOURCE ( 'Symmetric', '', #333, .NOT_KNOWN. ) ;
#385 = CARTESIAN_POINT ( 'NONE',  ( 0.8882461083059896012, 0.9730000000000001981, 0.000000000000000000 ) ) ;
#386 =( CONVERSION_BASED_UNIT ( 'INCH', #394 ) LENGTH_UNIT ( ) NAMED_UNIT ( #59 ) );
#387 = DIRECTION ( 'NONE',  ( 0.000000000000000000, 0.000000000000000000, 1.000000000000000000 ) ) ;
#388 = UNCERTAINTY_MEASURE_WITH_UNIT (LENGTH_MEASURE( 1.000000000000000082E-05 ), #363, 'distance_accuracy_value', 'NONE');
#389 = PLANE ( 'NONE',  #41 ) ;
#390 = FACE_OUTER_BOUND ( 'NONE', #580, .T. ) ;
#391 = ORIENTED_EDGE ( 'NONE', *, *, #435, .F. ) ;
#392 = ADVANCED_FACE ( 'NONE', ( #18, #450 ), #61, .F. ) ;
#393 = DIMENSIONAL_EXPONENTS ( 1.000000000000000000, 0.000000000000000000, 0.000000000000000000, 0.000000000000000000, 0.000000000000000000, 0.000000000000000000, 0.000000000000000000 ) ;
#394 = LENGTH_MEASURE_WITH_UNIT ( LENGTH_MEASURE( 0.02539999999999999897 ), #243 );
#395 = VECTOR ( 'NONE', #113, 39.37007874015748143 ) ;
#396 = VECTOR ( 'NONE', #533, 39.37007874015748143 ) ;
#397 = EDGE_LOOP ( 'NONE', ( #223, #508 ) ) ;
#398 = CARTESIAN_POINT ( 'NONE',  ( 8.195543980992789655E-16, 1.323000000000000176, 0.2500000000000000000 ) ) ;
#399 = LINE ( 'NONE', #482, #90 ) ;
#400 = PLANE ( 'NONE',  #248 ) ;
#401 = ORIENTED_EDGE ( 'NONE', *, *, #587, .F. ) ;
#402 = ADVANCED_FACE ( 'NONE', ( #82 ), #361, .F. ) ;
#403 = ORIENTED_EDGE ( 'NONE', *, *, #569, .T. ) ;
#404 = CIRCLE ( 'NONE', #146, 0.09674999999999989164 ) ;
#405 = ORIENTED_EDGE ( 'NONE', *, *, #77, .F. ) ;
#406 = AXIS2_PLACEMENT_3D ( 'NONE', #343, #530, #289 ) ;
#407 = LINE ( 'NONE', #106, #396 ) ;
#408 = VERTEX_POINT ( 'NONE', #122 ) ;
#409 = CARTESIAN_POINT ( 'NONE',  ( 8.195543980992789655E-16, 0.9730000000000001981, 0.2500000000000000000 ) ) ;
#410 = DIRECTION ( 'NONE',  ( -0.000000000000000000, 1.000000000000000000, -0.000000000000000000 ) ) ;
#411 = VERTEX_POINT ( 'NONE', #560 ) ;
#412 = FACE_OUTER_BOUND ( 'NONE', #312, .T. ) ;
#413 = CARTESIAN_POINT ( 'NONE',  ( 1.500000000000000444, 0.9730000000000001981, 0.000000000000000000 ) ) ;
#414 = VERTEX_POINT ( 'NONE', #550 ) ;
#415 = APPLICATION_CONTEXT ( 'automotive_design' ) ;
#416 = EDGE_CURVE ( 'NONE', #536, #411, #465, .T. ) ;
#417 = SURFACE_SIDE_STYLE ('',( #601 ) ) ;
#418 =( GEOMETRIC_REPRESENTATION_CONTEXT ( 3 ) GLOBAL_UNCERTAINTY_ASSIGNED_CONTEXT ( ( #388 ) ) GLOBAL_UNIT_ASSIGNED_CONTEXT ( ( #363, #121, #127 ) ) REPRESENTATION_CONTEXT ( 'NONE', 'WORKASPACE' ) );
#419 = CARTESIAN_POINT ( 'NONE',  ( -1.199999999999999956, 1.323000000000000176, 0.3467500000000002247 ) ) ;
#420 = EDGE_LOOP ( 'NONE', ( #391, #588 ) ) ;
#421 = FILL_AREA_STYLE_COLOUR ( '', #513 ) ;
#422 = CARTESIAN_POINT ( 'NONE',  ( -1.499999999999999778, 1.323000000000000176, 0.5000000000000000000 ) ) ;
#423 = ORIENTED_EDGE ( 'NONE', *, *, #98, .F. ) ;
#424 = CARTESIAN_POINT ( 'NONE',  ( -1.499999999999999778, 1.323000000000000176, 0.000000000000000000 ) ) ;
#425 = ORIENTED_EDGE ( 'NONE', *, *, #52, .T. ) ;
#426 = ADVANCED_FACE ( 'NONE', ( #26, #315 ), #125, .F. ) ;
#427 = LINE ( 'NONE', #176, #344 ) ;
#428 = CIRCLE ( 'NONE', #238, 0.2500000000000000555 ) ;
#429 = VERTEX_POINT ( 'NONE', #218 ) ;
#430 = CARTESIAN_POINT ( 'NONE',  ( -1.199999999999999956, 1.323000000000000176, 0.2500000000000003331 ) ) ;
#431 = ORIENTED_EDGE ( 'NONE', *, *, #318, .F. ) ;
#432 = CARTESIAN_POINT ( 'NONE',  ( -1.199999999999999956, 1.323000000000000176, 0.2500000000000003331 ) ) ;
#433 = ADVANCED_FACE ( 'NONE', ( #597, #267, #594, #175 ), #548, .F. ) ;
#434 = CARTESIAN_POINT ( 'NONE',  ( -0.6875000000000000000, 0.8240000000000002878, 0.000000000000000000 ) ) ;
#435 = EDGE_CURVE ( 'NONE', #219, #414, #438, .T. ) ;
#436 = DIRECTION ( 'NONE',  ( -0.000000000000000000, -0.000000000000000000, -1.000000000000000000 ) ) ;
#437 = CIRCLE ( 'NONE', #58, 0.2500000000000000555 ) ;
#438 = CIRCLE ( 'NONE', #282, 0.09674999999999993328 ) ;
#439 = LINE ( 'NONE', #385, #551 ) ;
#440 = CARTESIAN_POINT ( 'NONE',  ( -0.6875000000000000000, 0.8240000000000002878, 0.5000000000000000000 ) ) ;
#441 = LINE ( 'NONE', #154, #598 ) ;
#442 = ORIENTED_EDGE ( 'NONE', *, *, #77, .T. ) ;
#443 = DIRECTION ( 'NONE',  ( -0.000000000000000000, -1.000000000000000000, -0.000000000000000000 ) ) ;
#444 = EDGE_CURVE ( 'NONE', #451, #586, #49, .T. ) ;
#445 = DIRECTION ( 'NONE',  ( -0.000000000000000000, 1.000000000000000000, -0.000000000000000000 ) ) ;
#446 = LINE ( 'NONE', #347, #526 ) ;
#447 = CLOSED_SHELL ( 'NONE', ( #186, #367, #310, #433, #100, #402, #426, #299, #263, #535, #392, #565, #232, #608, #301, #44, #279, #123 ) ) ;
#448 = FACE_OUTER_BOUND ( 'NONE', #206, .T. ) ;
#449 = VECTOR ( 'NONE', #6, 39.37007874015748143 ) ;
#450 = FACE_OUTER_BOUND ( 'NONE', #64, .T. ) ;
#451 = VERTEX_POINT ( 'NONE', #66 ) ;
#452 = FACE_OUTER_BOUND ( 'NONE', #345, .T. ) ;
#453 = ORIENTED_EDGE ( 'NONE', *, *, #74, .F. ) ;
#454 = CARTESIAN_POINT ( 'NONE',  ( -1.499999999999999778, 0.9730000000000001981, 0.5000000000000000000 ) ) ;
#455 = VERTEX_POINT ( 'NONE', #261 ) ;
#456 = CARTESIAN_POINT ( 'NONE',  ( -0.4867538916940105653, 0.9730000000000001981, 0.000000000000000000 ) ) ;
#457 = DIRECTION ( 'NONE',  ( 1.000000000000000000, 0.000000000000000000, 0.000000000000000000 ) ) ;
#458 = VECTOR ( 'NONE', #497, 39.37007874015748143 ) ;
#459 = DIRECTION ( 'NONE',  ( 0.000000000000000000, 0.000000000000000000, -1.000000000000000000 ) ) ;
#460 = CIRCLE ( 'NONE', #406, 0.2500000000000000555 ) ;
#461 = CARTESIAN_POINT ( 'NONE',  ( -1.750000000000000000, 0.9730000000000001981, 0.3750000000000001110 ) ) ;
#462 = ORIENTED_EDGE ( 'NONE', *, *, #488, .T. ) ;
#463 = DIRECTION ( 'NONE',  ( -0.000000000000000000, 1.000000000000000000, -0.000000000000000000 ) ) ;
#464 = EDGE_CURVE ( 'NONE', #126, #455, #319, .T. ) ;
#465 = LINE ( 'NONE', #24, #190 ) ;
#466 = DIRECTION ( 'NONE',  ( 0.000000000000000000, 1.000000000000000000, 0.000000000000000000 ) ) ;
#467 = ORIENTED_EDGE ( 'NONE', *, *, #48, .F. ) ;
#468 = DIRECTION ( 'NONE',  ( -0.000000000000000000, 1.000000000000000000, -0.000000000000000000 ) ) ;
#469 = DIRECTION ( 'NONE',  ( 0.000000000000000000, 0.000000000000000000, 1.000000000000000000 ) ) ;
#470 = VERTEX_POINT ( 'NONE', #215 ) ;
#471 = DIRECTION ( 'NONE',  ( 1.000000000000000000, 0.000000000000000000, 0.000000000000000000 ) ) ;
#472 = CARTESIAN_POINT ( 'NONE',  ( -1.499999999999999778, 0.9730000000000001981, 0.3750000000000001110 ) ) ;
#473 = ORIENTED_EDGE ( 'NONE', *, *, #321, .T. ) ;
#474 = LINE ( 'NONE', #228, #314 ) ;
#475 = ORIENTED_EDGE ( 'NONE', *, *, #286, .T. ) ;
#476 = CARTESIAN_POINT ( 'NONE',  ( -1.750000000000000000, 1.323000000000000176, 0.3750000000000000555 ) ) ;
#477 = AXIS2_PLACEMENT_3D ( 'NONE', #192, #55, #387 ) ;
#478 = ORIENTED_EDGE ( 'NONE', *, *, #251, .F. ) ;
#479 = AXIS2_PLACEMENT_3D ( 'NONE', #422, #507, #510 ) ;
#480 = DIRECTION ( 'NONE',  ( 1.000000000000000000, -0.000000000000000000, -0.000000000000000000 ) ) ;
#481 = ORIENTED_EDGE ( 'NONE', *, *, #286, .F. ) ;
#482 = CARTESIAN_POINT ( 'NONE',  ( 8.314028558810295785E-16, 1.323000000000000176, 0.1532500000000001084 ) ) ;
#483 = CARTESIAN_POINT ( 'NONE',  ( -1.750000000000000000, 1.323000000000000176, 0.5000000000000000000 ) ) ;
#484 = DIRECTION ( 'NONE',  ( -0.000000000000000000, 1.000000000000000000, -0.000000000000000000 ) ) ;
#485 = CARTESIAN_POINT ( 'NONE',  ( 0.8882461083059896012, 0.9730000000000001981, 0.000000000000000000 ) ) ;
#486 = AXIS2_PLACEMENT_3D ( 'NONE', #434, #520, #86 ) ;
#487 =( GEOMETRIC_REPRESENTATION_CONTEXT ( 3 ) GLOBAL_UNCERTAINTY_ASSIGNED_CONTEXT ( ( #23 ) ) GLOBAL_UNIT_ASSIGNED_CONTEXT ( ( #386, #340, #534 ) ) REPRESENTATION_CONTEXT ( 'NONE', 'WORKASPACE' ) );
#488 = EDGE_CURVE ( 'NONE', #470, #362, #373, .T. ) ;
#489 = DIRECTION ( 'NONE',  ( 1.000000000000000000, 0.000000000000000000, 0.000000000000000000 ) ) ;
#490 = ORIENTED_EDGE ( 'NONE', *, *, #274, .T. ) ;
#491 = CARTESIAN_POINT ( 'NONE',  ( 0.8882461083059896012, 0.9730000000000001981, 0.5000000000000000000 ) ) ;
#492 = CIRCLE ( 'NONE', #542, 0.09674999999999986389 ) ;
#493 = DIRECTION ( 'NONE',  ( -0.000000000000000000, 1.000000000000000000, -0.000000000000000000 ) ) ;
#494 = ORIENTED_EDGE ( 'NONE', *, *, #120, .F. ) ;
#495 = DIRECTION ( 'NONE',  ( 0.000000000000000000, 0.000000000000000000, 1.000000000000000000 ) ) ;
#496 = ORIENTED_EDGE ( 'NONE', *, *, #28, .T. ) ;
#497 = DIRECTION ( 'NONE',  ( 0.000000000000000000, 0.000000000000000000, -1.000000000000000000 ) ) ;
#498 = ORIENTED_EDGE ( 'NONE', *, *, #140, .T. ) ;
#499 = ORIENTED_EDGE ( 'NONE', *, *, #562, .F. ) ;
#500 = CARTESIAN_POINT ( 'NONE',  ( -1.750000000000000000, 1.323000000000000176, 0.3750000000000000555 ) ) ;
#501 = EDGE_LOOP ( 'NONE', ( #499, #36, #425, #145 ) ) ;
#502 = EDGE_CURVE ( 'NONE', #541, #219, #505, .T. ) ;
#503 = VECTOR ( 'NONE', #383, 39.37007874015748143 ) ;
#504 = DIRECTION ( 'NONE',  ( 0.000000000000000000, 0.000000000000000000, 1.000000000000000000 ) ) ;
#505 = LINE ( 'NONE', #265, #197 ) ;
#506 = EDGE_LOOP ( 'NONE', ( #605, #129, #3, #462 ) ) ;
#507 = DIRECTION ( 'NONE',  ( 0.000000000000000000, -1.000000000000000000, 0.000000000000000000 ) ) ;
#508 = ORIENTED_EDGE ( 'NONE', *, *, #444, .T. ) ;
#509 = LINE ( 'NONE', #25, #97 ) ;
#510 = DIRECTION ( 'NONE',  ( 0.000000000000000000, -0.000000000000000000, -1.000000000000000000 ) ) ;
#511 = VERTEX_POINT ( 'NONE', #413 ) ;
#512 = DIRECTION ( 'NONE',  ( 0.000000000000000000, 0.000000000000000000, 1.000000000000000000 ) ) ;
#513 = COLOUR_RGB ( '',0.7921568627450980005, 0.8196078431372548767, 0.9333333333333333481 ) ;
#514 = VECTOR ( 'NONE', #153, 39.37007874015748143 ) ;
#515 = DIRECTION ( 'NONE',  ( 0.000000000000000000, -0.000000000000000000, 1.000000000000000000 ) ) ;
#516 = VECTOR ( 'NONE', #346, 39.37007874015748143 ) ;
#517 = VERTEX_POINT ( 'NONE', #554 ) ;
#518 = DIRECTION ( 'NONE',  ( -0.000000000000000000, 1.000000000000000000, -0.000000000000000000 ) ) ;
#519 = ORIENTED_EDGE ( 'NONE', *, *, #321, .F. ) ;
#520 = DIRECTION ( 'NONE',  ( 0.000000000000000000, 0.000000000000000000, 1.000000000000000000 ) ) ;
#521 = VERTEX_POINT ( 'NONE', #419 ) ;
#522 = EDGE_CURVE ( 'NONE', #85, #470, #599, .T. ) ;
#523 = CARTESIAN_POINT ( 'NONE',  ( -0.4867538916940105653, 0.9730000000000001981, 0.000000000000000000 ) ) ;
#524 = ORIENTED_EDGE ( 'NONE', *, *, #540, .T. ) ;
#525 = FACE_OUTER_BOUND ( 'NONE', #207, .T. ) ;
#526 = VECTOR ( 'NONE', #489, 39.37007874015748143 ) ;
#527 = CARTESIAN_POINT ( 'NONE',  ( 1.500000000000000444, 1.323000000000000176, 0.5000000000000000000 ) ) ;
#528 = DIRECTION ( 'NONE',  ( 0.000000000000000000, 0.000000000000000000, 1.000000000000000000 ) ) ;
#529 = DIRECTION ( 'NONE',  ( -0.000000000000000000, 1.000000000000000000, -0.000000000000000000 ) ) ;
#530 = DIRECTION ( 'NONE',  ( -0.000000000000000000, -0.000000000000000000, -1.000000000000000000 ) ) ;
#531 = CIRCLE ( 'NONE', #477, 0.09674999999999986389 ) ;
#532 = ORIENTED_EDGE ( 'NONE', *, *, #562, .T. ) ;
#533 = DIRECTION ( 'NONE',  ( -0.000000000000000000, 1.000000000000000000, -0.000000000000000000 ) ) ;
#534 =( NAMED_UNIT ( * ) SI_UNIT ( $, .STERADIAN. ) SOLID_ANGLE_UNIT ( ) );
#535 = ADVANCED_FACE ( 'NONE', ( #557 ), #325, .F. ) ;
#536 = VERTEX_POINT ( 'NONE', #472 ) ;
#537 = APPLICATION_PROTOCOL_DEFINITION ( 'draft international standard', 'automotive_design', 1998, #415 ) ;
#538 = EDGE_CURVE ( 'NONE', #517, #408, #81, .T. ) ;
#539 = EDGE_LOOP ( 'NONE', ( #56, #133 ) ) ;
#540 = EDGE_CURVE ( 'NONE', #126, #536, #311, .T. ) ;
#541 = VERTEX_POINT ( 'NONE', #50 ) ;
#542 = AXIS2_PLACEMENT_3D ( 'NONE', #430, #37, #528 ) ;
#543 = DIRECTION ( 'NONE',  ( -0.000000000000000000, -0.000000000000000000, -1.000000000000000000 ) ) ;
#544 = ORIENTED_EDGE ( 'NONE', *, *, #416, .F. ) ;
#545 = CYLINDRICAL_SURFACE ( 'NONE', #220, 0.09674999999999993328 ) ;
#546 = ORIENTED_EDGE ( 'NONE', *, *, #156, .F. ) ;
#547 = SURFACE_STYLE_USAGE ( .BOTH. , #417 ) ;
#548 = PLANE ( 'NONE',  #479 ) ;
#549 = EDGE_CURVE ( 'NONE', #13, #381, #119, .T. ) ;
#550 = CARTESIAN_POINT ( 'NONE',  ( 8.314028558810295785E-16, 1.323000000000000176, 0.1532500000000000528 ) ) ;
#551 = VECTOR ( 'NONE', #576, 39.37007874015748143 ) ;
#552 = CYLINDRICAL_SURFACE ( 'NONE', #364, 0.09674999999999989164 ) ;
#553 = VECTOR ( 'NONE', #297, 39.37007874015748143 ) ;
#554 = CARTESIAN_POINT ( 'NONE',  ( -1.199999999999999956, 0.9730000000000001981, 0.1532500000000004692 ) ) ;
#555 = EDGE_LOOP ( 'NONE', ( #403, #431, #17, #478, #405, #281 ) ) ;
#556 = CARTESIAN_POINT ( 'NONE',  ( -1.499999999999999778, 1.323000000000000176, 0.5000000000000000000 ) ) ;
#557 = FACE_OUTER_BOUND ( 'NONE', #600, .T. ) ;
#558 = EDGE_LOOP ( 'NONE', ( #257, #309, #105, #544 ) ) ;
#559 = PRESENTATION_STYLE_ASSIGNMENT (( #547 ) ) ;
#560 = CARTESIAN_POINT ( 'NONE',  ( -1.499999999999999778, 0.9730000000000001981, 0.000000000000000000 ) ) ;
#561 = ORIENTED_EDGE ( 'NONE', *, *, #488, .F. ) ;
#562 = EDGE_CURVE ( 'NONE', #16, #541, #590, .T. ) ;
#563 = CARTESIAN_POINT ( 'NONE',  ( 1.200000000000000400, 1.323000000000000176, 0.3467499999999999472 ) ) ;
#564 = AXIS2_PLACEMENT_3D ( 'NONE', #276, #160, #359 ) ;
#565 = ADVANCED_FACE ( 'NONE', ( #240 ), #389, .T. ) ;
#566 = ORIENTED_EDGE ( 'NONE', *, *, #226, .F. ) ;
#567 = FACE_OUTER_BOUND ( 'NONE', #196, .T. ) ;
#568 = ORIENTED_EDGE ( 'NONE', *, *, #226, .T. ) ;
#569 = EDGE_CURVE ( 'NONE', #112, #51, #199, .T. ) ;
#570 = DIRECTION ( 'NONE',  ( -0.000000000000000000, -0.000000000000000000, -1.000000000000000000 ) ) ;
#571 = EDGE_CURVE ( 'NONE', #16, #414, #399, .T. ) ;
#572 = ORIENTED_EDGE ( 'NONE', *, *, #213, .F. ) ;
#573 = DIRECTION ( 'NONE',  ( -0.000000000000000000, -0.000000000000000000, -1.000000000000000000 ) ) ;
#574 = AXIS2_PLACEMENT_3D ( 'NONE', #171, #471, #459 ) ;
#575 = AXIS2_PLACEMENT_3D ( 'NONE', #167, #466, #70 ) ;
#576 = DIRECTION ( 'NONE',  ( 1.000000000000000000, 0.000000000000000000, 0.000000000000000000 ) ) ;
#577 = DIRECTION ( 'NONE',  ( -0.000000000000000000, 1.000000000000000000, -0.000000000000000000 ) ) ;
#578 = CARTESIAN_POINT ( 'NONE',  ( -1.499999999999999778, 1.323000000000000176, 0.000000000000000000 ) ) ;
#579 = DIRECTION ( 'NONE',  ( -0.000000000000000000, 1.000000000000000000, -0.000000000000000000 ) ) ;
#580 = EDGE_LOOP ( 'NONE', ( #53, #572, #453, #350 ) ) ;
#581 = VECTOR ( 'NONE', #27, 39.37007874015748143 ) ;
#582 = DIRECTION ( 'NONE',  ( 0.000000000000000000, 1.000000000000000000, 0.000000000000000000 ) ) ;
#583 = ORIENTED_EDGE ( 'NONE', *, *, #274, .F. ) ;
#584 = EDGE_CURVE ( 'NONE', #51, #411, #46, .T. ) ;
#585 = CARTESIAN_POINT ( 'NONE',  ( -1.750000000000000000, 0.000000000000000000, 0.000000000000000000 ) ) ;
#586 = VERTEX_POINT ( 'NONE', #143 ) ;
#587 = EDGE_CURVE ( 'NONE', #362, #151, #460, .T. ) ;
#588 = ORIENTED_EDGE ( 'NONE', *, *, #52, .F. ) ;
#589 = CIRCLE ( 'NONE', #355, 0.09674999999999993328 ) ;
#590 = CIRCLE ( 'NONE', #10, 0.09674999999999986389 ) ;
#591 = CARTESIAN_POINT ( 'NONE',  ( 1.200000000000000400, 0.9730000000000001981, 0.2500000000000000555 ) ) ;
#592 = EDGE_LOOP ( 'NONE', ( #158, #546, #14, #496 ) ) ;
#593 = DIRECTION ( 'NONE',  ( -0.000000000000000000, 1.000000000000000000, -0.000000000000000000 ) ) ;
#594 = FACE_OUTER_BOUND ( 'NONE', #555, .T. ) ;
#595 = EDGE_LOOP ( 'NONE', ( #323, #561, #379, #303 ) ) ;
#596 = DIRECTION ( 'NONE',  ( -0.000000000000000000, -0.000000000000000000, -1.000000000000000000 ) ) ;
#597 = FACE_BOUND ( 'NONE', #539, .T. ) ;
#598 = VECTOR ( 'NONE', #258, 39.37007874015748143 ) ;
#599 = LINE ( 'NONE', #172, #239 ) ;
#600 = EDGE_LOOP ( 'NONE', ( #473, #242, #467, #227 ) ) ;
#601 = SURFACE_STYLE_FILL_AREA ( #224 ) ;
#602 = DIRECTION ( 'NONE',  ( -0.000000000000000000, -0.000000000000000000, -1.000000000000000000 ) ) ;
#603 = ORIENTED_EDGE ( 'NONE', *, *, #98, .T. ) ;
#604 = PLANE ( 'NONE',  #574 ) ;
#605 = ORIENTED_EDGE ( 'NONE', *, *, #587, .T. ) ;
#606 = CARTESIAN_POINT ( 'NONE',  ( -0.8882461083059893792, 0.9730000000000001981, 0.5000000000000000000 ) ) ;
#607 = VECTOR ( 'NONE', #480, 39.37007874015748143 ) ;
#608 = ADVANCED_FACE ( 'NONE', ( #525 ), #4, .F. ) ;
#609 = EDGE_LOOP ( 'NONE', ( #20, #12, #67, #33 ) ) ;
#610 = EDGE_CURVE ( 'NONE', #411, #13, #446, .T. ) ;
#611 = CARTESIAN_POINT ( 'NONE',  ( 1.200000000000000400, 1.323000000000000176, 0.2500000000000000555 ) ) ;
#612 = ORIENTED_EDGE ( 'NONE', *, *, #538, .T. ) ;
#613 = DIRECTION ( 'NONE',  ( -0.000000000000000000, 1.000000000000000000, -0.000000000000000000 ) ) ;
#614 = LINE ( 'NONE', #280, #458 ) ;
#615 = AXIS2_PLACEMENT_3D ( 'NONE', #611, #378, #138 ) ;
#616 = DIRECTION ( 'NONE',  ( 1.000000000000000000, 0.000000000000000000, 0.000000000000000000 ) ) ;
#617 = VECTOR ( 'NONE', #163, 39.37007874015748143 ) ;
ENDSEC;
END-ISO-10303-21;
