ISO-10303-21;
HEADER;
FILE_DESCRIPTION (( 'STEP AP214' ),
    '1' );
FILE_NAME ('Inner gantry bracket, lower.STEP',
    '2026-02-20T19:34:19',
    ( '' ),
    ( '' ),
    'SwSTEP 2.0',
    'SolidWorks 2025',
    '' );
FILE_SCHEMA (( 'AUTOMOTIVE_DESIGN' ));
ENDSEC;

DATA;
#1 = AXIS2_PLACEMENT_3D ( 'NONE', #732, #399, #782 ) ;
#2 = LINE ( 'NONE', #267, #439 ) ;
#3 = ORIENTED_EDGE ( 'NONE', *, *, #742, .T. ) ;
#4 = CYLINDRICAL_SURFACE ( 'NONE', #576, 0.1349999999999999256 ) ;
#5 = EDGE_LOOP ( 'NONE', ( #699, #705, #293, #408 ) ) ;
#6 = ADVANCED_FACE ( 'NONE', ( #729 ), #848, .F. ) ;
#7 = DIRECTION ( 'NONE',  ( 0.000000000000000000, 0.000000000000000000, 1.000000000000000000 ) ) ;
#8 = CYLINDRICAL_SURFACE ( 'NONE', #567, 0.07474999999999948352 ) ;
#9 = ORIENTED_EDGE ( 'NONE', *, *, #134, .T. ) ;
#10 = LINE ( 'NONE', #386, #662 ) ;
#11 = CARTESIAN_POINT ( 'NONE',  ( -1.499999999999999778, -0.6749999999999997113, 0.5000000000000000000 ) ) ;
#12 = FILL_AREA_STYLE ('',( #543 ) ) ;
#13 = VERTEX_POINT ( 'NONE', #125 ) ;
#14 = DIRECTION ( 'NONE',  ( -0.000000000000000000, -0.000000000000000000, -1.000000000000000000 ) ) ;
#15 = CARTESIAN_POINT ( 'NONE',  ( -1.199999999999999956, -0.07499999999999960865, 0.3247499999999998721 ) ) ;
#16 = AXIS2_PLACEMENT_3D ( 'NONE', #156, #434, #364 ) ;
#17 = VECTOR ( 'NONE', #80, 39.37007874015748143 ) ;
#18 = LENGTH_MEASURE_WITH_UNIT ( LENGTH_MEASURE( 0.02539999999999999897 ), #220 );
#19 = VECTOR ( 'NONE', #243, 39.37007874015748143 ) ;
#20 = EDGE_CURVE ( 'NONE', #163, #31, #189, .T. ) ;
#21 = CARTESIAN_POINT ( 'NONE',  ( -1.499999999999999778, 0.6750000000000002665, 0.5000000000000000000 ) ) ;
#22 = EDGE_LOOP ( 'NONE', ( #739, #686, #460, #76 ) ) ;
#23 = CARTESIAN_POINT ( 'NONE',  ( -0.8882461083059893792, 0.6750000000000002665, 0.000000000000000000 ) ) ;
#24 = CYLINDRICAL_SURFACE ( 'NONE', #548, 0.07474999999999952516 ) ;
#25 = CARTESIAN_POINT ( 'NONE',  ( -1.499999999999999778, 0.6750000000000002665, 0.000000000000000000 ) ) ;
#26 = EDGE_LOOP ( 'NONE', ( #581, #394 ) ) ;
#27 = EDGE_CURVE ( 'NONE', #724, #405, #515, .T. ) ;
#28 = AXIS2_PLACEMENT_3D ( 'NONE', #472, #491, #744 ) ;
#29 = CARTESIAN_POINT ( 'NONE',  ( 0.4867538916940105653, 0.6750000000000002665, 0.000000000000000000 ) ) ;
#30 = CARTESIAN_POINT ( 'NONE',  ( -0.4867538916940105653, 0.6750000000000002665, 0.5000000000000000000 ) ) ;
#31 = VERTEX_POINT ( 'NONE', #328 ) ;
#32 = ADVANCED_FACE ( 'NONE', ( #239 ), #536, .F. ) ;
#33 = LINE ( 'NONE', #558, #766 ) ;
#34 = DIRECTION ( 'NONE',  ( -0.000000000000000000, -0.000000000000000000, -1.000000000000000000 ) ) ;
#35 = DIRECTION ( 'NONE',  ( -0.000000000000000000, 1.000000000000000000, -0.000000000000000000 ) ) ;
#36 = DIRECTION ( 'NONE',  ( 0.000000000000000000, 0.000000000000000000, 1.000000000000000000 ) ) ;
#37 = LINE ( 'NONE', #582, #499 ) ;
#38 = ORIENTED_EDGE ( 'NONE', *, *, #697, .T. ) ;
#39 = PRODUCT_DEFINITION ( 'General', '', #262, #191 ) ;
#40 = DIRECTION ( 'NONE',  ( 0.000000000000000000, 0.000000000000000000, -1.000000000000000000 ) ) ;
#41 = ORIENTED_EDGE ( 'NONE', *, *, #94, .F. ) ;
#42 = AXIS2_PLACEMENT_3D ( 'NONE', #796, #730, #75 ) ;
#43 = ADVANCED_FACE ( 'NONE', ( #648 ), #52, .F. ) ;
#44 = DIRECTION ( 'NONE',  ( -0.000000000000000000, -0.000000000000000000, -1.000000000000000000 ) ) ;
#45 = ORIENTED_EDGE ( 'NONE', *, *, #831, .F. ) ;
#46 = VERTEX_POINT ( 'NONE', #116 ) ;
#47 = DIRECTION ( 'NONE',  ( 0.000000000000000000, 0.000000000000000000, 1.000000000000000000 ) ) ;
#48 = ORIENTED_EDGE ( 'NONE', *, *, #366, .T. ) ;
#49 =( NAMED_UNIT ( * ) SI_UNIT ( $, .STERADIAN. ) SOLID_ANGLE_UNIT ( ) );
#50 = CARTESIAN_POINT ( 'NONE',  ( -0.4867538916940105653, 0.6750000000000002665, 0.000000000000000000 ) ) ;
#51 = CARTESIAN_POINT ( 'NONE',  ( -2.731847993664263218E-16, -0.07499999999999960865, 0.3247499999999994280 ) ) ;
#52 = CONICAL_SURFACE ( 'NONE', #146, 0.07474999999999948352, 1.029744258676650537 ) ;
#53 = CIRCLE ( 'NONE', #646, 0.07474999999999948352 ) ;
#54 = SHAPE_DEFINITION_REPRESENTATION ( #640, #369 ) ;
#55 = CARTESIAN_POINT ( 'NONE',  ( 1.200000000000000400, 0.6750000000000002665, 0.2500000000000003886 ) ) ;
#56 = AXIS2_PLACEMENT_3D ( 'NONE', #700, #165, #566 ) ;
#57 = ADVANCED_FACE ( 'NONE', ( #524 ), #592, .F. ) ;
#58 = CARTESIAN_POINT ( 'NONE',  ( -0.6875000000000000000, -0.4250000000000001554, 0.5000000000000000000 ) ) ;
#59 = DIRECTION ( 'NONE',  ( -0.000000000000000000, 1.000000000000000000, -0.000000000000000000 ) ) ;
#60 = PRODUCT ( 'Inner gantry bracket, lower', 'Inner gantry bracket, lower', '', ( #643 ) ) ;
#61 = DIRECTION ( 'NONE',  ( 0.000000000000000000, 0.5150380749100575972, 0.8571673007021102242 ) ) ;
#62 = VERTEX_POINT ( 'NONE', #674 ) ;
#63 = CARTESIAN_POINT ( 'NONE',  ( -1.199999999999999956, -0.07499999999999960865, 0.1752500000000008495 ) ) ;
#64 = DIRECTION ( 'NONE',  ( -0.000000000000000000, -1.000000000000000000, -0.000000000000000000 ) ) ;
#65 = CARTESIAN_POINT ( 'NONE',  ( 1.200000000000000400, 0.6750000000000002665, 0.1752500000000008495 ) ) ;
#66 =( LENGTH_UNIT ( ) NAMED_UNIT ( * ) SI_UNIT ( $, .METRE. ) );
#67 = DIRECTION ( 'NONE',  ( 0.000000000000000000, 0.000000000000000000, 1.000000000000000000 ) ) ;
#68 = EDGE_CURVE ( 'NONE', #611, #98, #343, .T. ) ;
#69 = AXIS2_PLACEMENT_3D ( 'NONE', #561, #172, #360 ) ;
#70 = CARTESIAN_POINT ( 'NONE',  ( 0.6875000000000000000, 0.8240000000000003988, 0.5000000000000000000 ) ) ;
#71 = AXIS2_PLACEMENT_3D ( 'NONE', #199, #718, #114 ) ;
#72 = VECTOR ( 'NONE', #169, 39.37007874015748143 ) ;
#73 = VECTOR ( 'NONE', #655, 39.37007874015748143 ) ;
#74 = CARTESIAN_POINT ( 'NONE',  ( -0.6875000000000000000, -0.4250000000000001554, 0.000000000000000000 ) ) ;
#75 = DIRECTION ( 'NONE',  ( 0.000000000000000000, 0.000000000000000000, 1.000000000000000000 ) ) ;
#76 = ORIENTED_EDGE ( 'NONE', *, *, #271, .T. ) ;
#77 = CARTESIAN_POINT ( 'NONE',  ( 1.500000000000000444, -0.6749999999999997113, 0.000000000000000000 ) ) ;
#78 = VERTEX_POINT ( 'NONE', #200 ) ;
#79 = ADVANCED_FACE ( 'NONE', ( #429 ), #8, .F. ) ;
#80 = DIRECTION ( 'NONE',  ( -0.000000000000000000, -0.000000000000000000, -1.000000000000000000 ) ) ;
#81 = EDGE_LOOP ( 'NONE', ( #597, #211, #382, #800 ) ) ;
#82 = ORIENTED_EDGE ( 'NONE', *, *, #604, .T. ) ;
#83 = AXIS2_PLACEMENT_3D ( 'NONE', #596, #266, #36 ) ;
#84 = CIRCLE ( 'NONE', #147, 0.07474999999999959455 ) ;
#85 = CARTESIAN_POINT ( 'NONE',  ( -2.640305645427999046E-16, -0.07499999999999960865, 0.1752500000000005442 ) ) ;
#86 = LINE ( 'NONE', #681, #314 ) ;
#87 = CARTESIAN_POINT ( 'NONE',  ( -1.199999999999999956, -0.07499999999999960865, 0.2500000000000003886 ) ) ;
#88 = DIRECTION ( 'NONE',  ( -0.000000000000000000, -0.000000000000000000, -1.000000000000000000 ) ) ;
#89 = EDGE_LOOP ( 'NONE', ( #128, #308, #672, #814 ) ) ;
#90 = EDGE_CURVE ( 'NONE', #557, #242, #333, .T. ) ;
#91 = VERTEX_POINT ( 'NONE', #542 ) ;
#92 = CARTESIAN_POINT ( 'NONE',  ( -0.6875000000000000000, 0.8240000000000002878, 0.5000000000000000000 ) ) ;
#93 = FACE_OUTER_BOUND ( 'NONE', #81, .T. ) ;
#94 = EDGE_CURVE ( 'NONE', #611, #520, #812, .T. ) ;
#95 = CIRCLE ( 'NONE', #240, 0.2500000000000002220 ) ;
#96 = LINE ( 'NONE', #623, #728 ) ;
#97 = EDGE_LOOP ( 'NONE', ( #471, #715, #701 ) ) ;
#98 = VERTEX_POINT ( 'NONE', #816 ) ;
#99 = CARTESIAN_POINT ( 'NONE',  ( -0.6875000000000000000, 0.07499999999999988620, 0.5000000000000000000 ) ) ;
#100 = ORIENTED_EDGE ( 'NONE', *, *, #353, .T. ) ;
#101 = CARTESIAN_POINT ( 'NONE',  ( -0.6875000000000000000, 0.07499999999999988620, 0.000000000000000000 ) ) ;
#102 = EDGE_LOOP ( 'NONE', ( #615, #82, #9 ) ) ;
#103 = EDGE_CURVE ( 'NONE', #405, #627, #207, .T. ) ;
#104 = FACE_BOUND ( 'NONE', #310, .T. ) ;
#105 = VERTEX_POINT ( 'NONE', #142 ) ;
#106 = CARTESIAN_POINT ( 'NONE',  ( 1.200000000000000400, -0.07499999999999960865, 0.2500000000000003886 ) ) ;
#107 = ORIENTED_EDGE ( 'NONE', *, *, #763, .T. ) ;
#108 = CIRCLE ( 'NONE', #741, 0.07474999999999948352 ) ;
#109 = LINE ( 'NONE', #663, #725 ) ;
#110 = ORIENTED_EDGE ( 'NONE', *, *, #504, .F. ) ;
#111 = EDGE_CURVE ( 'NONE', #839, #171, #419, .T. ) ;
#112 = LINE ( 'NONE', #181, #350 ) ;
#113 = VERTEX_POINT ( 'NONE', #608 ) ;
#114 = DIRECTION ( 'NONE',  ( 0.000000000000000000, 0.000000000000000000, 1.000000000000000000 ) ) ;
#115 = EDGE_CURVE ( 'NONE', #347, #166, #482, .T. ) ;
#116 = CARTESIAN_POINT ( 'NONE',  ( -4.678826576442250105E-16, -0.1199143312723097848, 0.2500000000000000000 ) ) ;
#117 = AXIS2_PLACEMENT_3D ( 'NONE', #55, #462, #466 ) ;
#118 = FACE_OUTER_BOUND ( 'NONE', #130, .T. ) ;
#119 = AXIS2_PLACEMENT_3D ( 'NONE', #158, #435, #236 ) ;
#120 = DIRECTION ( 'NONE',  ( 0.000000000000000000, 0.000000000000000000, 1.000000000000000000 ) ) ;
#121 = FACE_OUTER_BOUND ( 'NONE', #818, .T. ) ;
#122 = CARTESIAN_POINT ( 'NONE',  ( -1.499999999999999778, -0.6749999999999997113, 0.000000000000000000 ) ) ;
#123 = DIRECTION ( 'NONE',  ( -1.000000000000000000, 0.000000000000000000, 0.000000000000000000 ) ) ;
#124 = DIRECTION ( 'NONE',  ( 0.000000000000000000, 0.000000000000000000, 1.000000000000000000 ) ) ;
#125 = CARTESIAN_POINT ( 'NONE',  ( -0.8224999999999998979, -0.4250000000000001554, 0.5000000000000000000 ) ) ;
#127 = EDGE_CURVE ( 'NONE', #204, #235, #661, .T. ) ;
#126 = CARTESIAN_POINT ( 'NONE',  ( -2.731847993664263218E-16, -0.07499999999999960865, 0.2500000000000000000 ) ) ;
#128 = ORIENTED_EDGE ( 'NONE', *, *, #840, .T. ) ;
#129 = DIRECTION ( 'NONE',  ( -0.000000000000000000, 1.000000000000000000, -0.000000000000000000 ) ) ;
#130 = EDGE_LOOP ( 'NONE', ( #602, #174, #223, #268 ) ) ;
#131 = COLOUR_RGB ( '',0.7921568627450980005, 0.8196078431372548767, 0.9333333333333333481 ) ;
#132 = CONICAL_SURFACE ( 'NONE', #276, 0.07474999999999948352, 1.029744258676650537 ) ;
#133 = DIRECTION ( 'NONE',  ( 0.000000000000000000, 0.000000000000000000, 1.000000000000000000 ) ) ;
#134 = EDGE_CURVE ( 'NONE', #799, #451, #806, .T. ) ;
#135 = DIRECTION ( 'NONE',  ( -0.000000000000000000, 1.000000000000000000, -0.000000000000000000 ) ) ;
#136 = ORIENTED_EDGE ( 'NONE', *, *, #167, .F. ) ;
#137 = EDGE_CURVE ( 'NONE', #527, #356, #217, .T. ) ;
#138 = CYLINDRICAL_SURFACE ( 'NONE', #365, 0.1349999999999999256 ) ;
#139 = CARTESIAN_POINT ( 'NONE',  ( 0.8882461083059893792, 0.6750000000000002665, 0.5000000000000000000 ) ) ;
#140 = LINE ( 'NONE', #210, #538 ) ;
#141 = EDGE_LOOP ( 'NONE', ( #530, #467, #442, #402 ) ) ;
#142 = CARTESIAN_POINT ( 'NONE',  ( -0.5525000000000001021, -0.4250000000000001554, 0.5000000000000000000 ) ) ;
#143 = CARTESIAN_POINT ( 'NONE',  ( 1.200000000000000400, -0.07499999999999960865, 0.3247499999999998721 ) ) ;
#144 = DIRECTION ( 'NONE',  ( 0.000000000000000000, 1.000000000000000000, 0.000000000000000000 ) ) ;
#145 = ORIENTED_EDGE ( 'NONE', *, *, #418, .F. ) ;
#146 = AXIS2_PLACEMENT_3D ( 'NONE', #859, #454, #257 ) ;
#147 = AXIS2_PLACEMENT_3D ( 'NONE', #400, #676, #359 ) ;
#148 = DIRECTION ( 'NONE',  ( -1.000000000000000000, 0.000000000000000000, 0.000000000000000000 ) ) ;
#149 = DIRECTION ( 'NONE',  ( 1.000000000000000000, 0.000000000000000000, 0.000000000000000000 ) ) ;
#150 = VERTEX_POINT ( 'NONE', #234 ) ;
#151 = FACE_BOUND ( 'NONE', #26, .T. ) ;
#152 = EDGE_LOOP ( 'NONE', ( #301, #446 ) ) ;
#153 = ADVANCED_FACE ( 'NONE', ( #500, #622, #507, #496 ), #770, .T. ) ;
#154 = EDGE_LOOP ( 'NONE', ( #319, #385 ) ) ;
#155 = CARTESIAN_POINT ( 'NONE',  ( -1.200000000000000178, -0.1199143312723097848, 0.2500000000000003886 ) ) ;
#156 = CARTESIAN_POINT ( 'NONE',  ( 0.6875000000000000000, 0.8240000000000003988, 0.5000000000000000000 ) ) ;
#157 = CARTESIAN_POINT ( 'NONE',  ( -0.6875000000000000000, 0.8240000000000002878, 0.5000000000000000000 ) ) ;
#158 = CARTESIAN_POINT ( 'NONE',  ( -0.6875000000000000000, 0.8240000000000002878, 0.000000000000000000 ) ) ;
#159 = ORIENTED_EDGE ( 'NONE', *, *, #492, .F. ) ;
#160 = AXIS2_PLACEMENT_3D ( 'NONE', #58, #321, #745 ) ;
#161 = EDGE_CURVE ( 'NONE', #573, #839, #33, .T. ) ;
#162 = DIRECTION ( 'NONE',  ( 1.000000000000000000, 0.000000000000000000, 0.000000000000000000 ) ) ;
#163 = VERTEX_POINT ( 'NONE', #244 ) ;
#164 = AXIS2_PLACEMENT_3D ( 'NONE', #373, #47, #307 ) ;
#165 = DIRECTION ( 'NONE',  ( -0.000000000000000000, -0.000000000000000000, -1.000000000000000000 ) ) ;
#166 = VERTEX_POINT ( 'NONE', #197 ) ;
#167 = EDGE_CURVE ( 'NONE', #790, #441, #734, .T. ) ;
#168 = DIRECTION ( 'NONE',  ( 0.000000000000000000, 0.000000000000000000, 1.000000000000000000 ) ) ;
#169 = DIRECTION ( 'NONE',  ( 1.049727191138616107E-16, 0.5150380749100575972, -0.8571673007021102242 ) ) ;
#170 = LINE ( 'NONE', #841, #539 ) ;
#171 = VERTEX_POINT ( 'NONE', #395 ) ;
#172 = DIRECTION ( 'NONE',  ( -0.000000000000000000, 1.000000000000000000, -0.000000000000000000 ) ) ;
#173 = VERTEX_POINT ( 'NONE', #387 ) ;
#174 = ORIENTED_EDGE ( 'NONE', *, *, #788, .T. ) ;
#175 = AXIS2_PLACEMENT_3D ( 'NONE', #658, #786, #183 ) ;
#176 = EDGE_CURVE ( 'NONE', #451, #527, #237, .T. ) ;
#177 = VECTOR ( 'NONE', #817, 39.37007874015748143 ) ;
#178 = DIRECTION ( 'NONE',  ( -0.000000000000000000, 1.000000000000000000, -0.000000000000000000 ) ) ;
#179 = VERTEX_POINT ( 'NONE', #312 ) ;
#180 = EDGE_CURVE ( 'NONE', #179, #790, #577, .T. ) ;
#181 = CARTESIAN_POINT ( 'NONE',  ( 1.200000000000000400, 0.6750000000000002665, 0.1752500000000008495 ) ) ;
#182 = DIRECTION ( 'NONE',  ( 0.000000000000000000, 0.000000000000000000, 1.000000000000000000 ) ) ;
#183 = DIRECTION ( 'NONE',  ( 0.000000000000000000, 0.000000000000000000, 1.000000000000000000 ) ) ;
#184 = DIRECTION ( 'NONE',  ( 1.049727191138615491E-16, 0.5150380749100583744, -0.8571673007021097801 ) ) ;
#185 = ORIENTED_EDGE ( 'NONE', *, *, #27, .F. ) ;
#186 = CARTESIAN_POINT ( 'NONE',  ( 1.200000000000000400, -0.07499999999999960865, 0.3247499999999998721 ) ) ;
#187 = ORIENTED_EDGE ( 'NONE', *, *, #188, .T. ) ;
#188 = EDGE_CURVE ( 'NONE', #489, #173, #547, .T. ) ;
#189 = CIRCLE ( 'NONE', #819, 0.1349999999999999256 ) ;
#190 = DIRECTION ( 'NONE',  ( 0.000000000000000000, 0.5150380749100583744, 0.8571673007021097801 ) ) ;
#191 = PRODUCT_DEFINITION_CONTEXT ( 'detailed design', #832, 'design' ) ;
#192 = EDGE_CURVE ( 'NONE', #392, #347, #377, .T. ) ;
#193 = DIRECTION ( 'NONE',  ( -0.000000000000000000, -1.000000000000000000, -0.000000000000000000 ) ) ;
#194 = ORIENTED_EDGE ( 'NONE', *, *, #323, .T. ) ;
#195 = ORIENTED_EDGE ( 'NONE', *, *, #127, .F. ) ;
#196 = DIRECTION ( 'NONE',  ( -0.000000000000000000, 1.000000000000000000, -0.000000000000000000 ) ) ;
#197 = CARTESIAN_POINT ( 'NONE',  ( -2.731847993664263218E-16, 0.6750000000000002665, 0.3247499999999995945 ) ) ;
#198 = ORIENTED_EDGE ( 'NONE', *, *, #488, .T. ) ;
#199 = CARTESIAN_POINT ( 'NONE',  ( -2.731847993664263218E-16, 0.6750000000000002665, 0.2500000000000000000 ) ) ;
#200 = CARTESIAN_POINT ( 'NONE',  ( 1.200000000000000178, -0.1199143312723097848, 0.2500000000000003886 ) ) ;
#201 = EDGE_CURVE ( 'NONE', #842, #720, #334, .T. ) ;
#202 = VECTOR ( 'NONE', #281, 39.37007874015748143 ) ;
#203 = CARTESIAN_POINT ( 'NONE',  ( 1.500000000000000444, -0.6749999999999997113, 0.5000000000000000000 ) ) ;
#204 = VERTEX_POINT ( 'NONE', #63 ) ;
#205 = AXIS2_PLACEMENT_3D ( 'NONE', #614, #810, #619 ) ;
#206 = FACE_OUTER_BOUND ( 'NONE', #851, .T. ) ;
#207 = LINE ( 'NONE', #11, #708 ) ;
#208 = SURFACE_SIDE_STYLE ('',( #286 ) ) ;
#209 = ADVANCED_FACE ( 'NONE', ( #858 ), #709, .F. ) ;
#210 = CARTESIAN_POINT ( 'NONE',  ( -1.499999999999999778, 0.6750000000000002665, 0.5000000000000000000 ) ) ;
#211 = ORIENTED_EDGE ( 'NONE', *, *, #529, .T. ) ;
#212 = CARTESIAN_POINT ( 'NONE',  ( 1.500000000000000444, -0.6749999999999997113, 0.5000000000000000000 ) ) ;
#213 = DIRECTION ( 'NONE',  ( -1.000000000000000000, 0.000000000000000000, 0.000000000000000000 ) ) ;
#214 = CARTESIAN_POINT ( 'NONE',  ( -1.499999999999999778, -0.6749999999999997113, 0.000000000000000000 ) ) ;
#215 = FACE_BOUND ( 'NONE', #389, .T. ) ;
#216 = CARTESIAN_POINT ( 'NONE',  ( -1.199999999999999956, -0.07499999999999960865, 0.2500000000000003886 ) ) ;
#217 = CIRCLE ( 'NONE', #69, 0.07474999999999948352 ) ;
#218 = EDGE_CURVE ( 'NONE', #433, #573, #760, .T. ) ;
#219 = DIRECTION ( 'NONE',  ( 0.000000000000000000, 0.000000000000000000, 1.000000000000000000 ) ) ;
#220 =( LENGTH_UNIT ( ) NAMED_UNIT ( * ) SI_UNIT ( $, .METRE. ) );
#221 = ORIENTED_EDGE ( 'NONE', *, *, #473, .F. ) ;
#222 = DIRECTION ( 'NONE',  ( -1.000000000000000000, -0.000000000000000000, -0.000000000000000000 ) ) ;
#223 = ORIENTED_EDGE ( 'NONE', *, *, #20, .F. ) ;
#224 = FACE_OUTER_BOUND ( 'NONE', #762, .T. ) ;
#225 = FACE_BOUND ( 'NONE', #264, .T. ) ;
#226 = ORIENTED_EDGE ( 'NONE', *, *, #418, .T. ) ;
#227 = ORIENTED_EDGE ( 'NONE', *, *, #504, .T. ) ;
#228 = DIRECTION ( 'NONE',  ( -1.000000000000000000, 0.000000000000000000, 0.000000000000000000 ) ) ;
#229 = ADVANCED_FACE ( 'NONE', ( #93 ), #829, .F. ) ;
#230 = DIRECTION ( 'NONE',  ( 0.000000000000000000, 0.000000000000000000, 1.000000000000000000 ) ) ;
#231 = AXIS2_PLACEMENT_3D ( 'NONE', #564, #569, #776 ) ;
#232 = DIRECTION ( 'NONE',  ( 0.000000000000000000, 0.000000000000000000, 1.000000000000000000 ) ) ;
#233 = ORIENTED_EDGE ( 'NONE', *, *, #572, .F. ) ;
#234 = CARTESIAN_POINT ( 'NONE',  ( -0.8224999999999998979, 0.07499999999999988620, 0.000000000000000000 ) ) ;
#235 = VERTEX_POINT ( 'NONE', #15 ) ;
#236 = DIRECTION ( 'NONE',  ( 1.000000000000000000, 0.000000000000000000, -0.000000000000000000 ) ) ;
#237 = LINE ( 'NONE', #327, #753 ) ;
#238 = EDGE_CURVE ( 'NONE', #105, #13, #407, .T. ) ;
#239 = FACE_OUTER_BOUND ( 'NONE', #325, .T. ) ;
#240 = AXIS2_PLACEMENT_3D ( 'NONE', #426, #88, #358 ) ;
#241 = CIRCLE ( 'NONE', #305, 0.1349999999999999256 ) ;
#242 = VERTEX_POINT ( 'NONE', #668 ) ;
#243 = DIRECTION ( 'NONE',  ( -0.000000000000000000, -0.000000000000000000, -1.000000000000000000 ) ) ;
#244 = CARTESIAN_POINT ( 'NONE',  ( -0.8224999999999998979, -0.4250000000000001554, 0.000000000000000000 ) ) ;
#245 = DIRECTION ( 'NONE',  ( 1.000000000000000000, 0.000000000000000000, 0.000000000000000000 ) ) ;
#246 = DIRECTION ( 'NONE',  ( -0.000000000000000000, 1.000000000000000000, -0.000000000000000000 ) ) ;
#247 = DIRECTION ( 'NONE',  ( -0.000000000000000000, 1.000000000000000000, -0.000000000000000000 ) ) ;
#248 = ORIENTED_EDGE ( 'NONE', *, *, #572, .T. ) ;
#249 = UNCERTAINTY_MEASURE_WITH_UNIT (LENGTH_MEASURE( 1.000000000000000082E-05 ), #757, 'distance_accuracy_value', 'NONE');
#250 = FACE_BOUND ( 'NONE', #802, .T. ) ;
#251 = DIRECTION ( 'NONE',  ( 1.000000000000000000, 0.000000000000000000, 0.000000000000000000 ) ) ;
#252 = ADVANCED_FACE ( 'NONE', ( #206 ), #805, .F. ) ;
#253 = ORIENTED_EDGE ( 'NONE', *, *, #742, .F. ) ;
#254 = ADVANCED_FACE ( 'NONE', ( #224 ), #138, .F. ) ;
#255 = DIRECTION ( 'NONE',  ( -0.000000000000000000, -0.000000000000000000, -1.000000000000000000 ) ) ;
#256 = CARTESIAN_POINT ( 'NONE',  ( -1.199999999999999956, -0.07499999999999960865, 0.2500000000000003886 ) ) ;
#257 = DIRECTION ( 'NONE',  ( 0.000000000000000000, 0.000000000000000000, 1.000000000000000000 ) ) ;
#258 = LINE ( 'NONE', #332, #177 ) ;
#259 = ORIENTED_EDGE ( 'NONE', *, *, #738, .T. ) ;
#260 = AXIS2_PLACEMENT_3D ( 'NONE', #337, #756, #148 ) ;
#261 = CIRCLE ( 'NONE', #205, 0.1349999999999999256 ) ;
#262 = PRODUCT_DEFINITION_FORMATION_WITH_SPECIFIED_SOURCE ( 'Symmetric', '', #60, .NOT_KNOWN. ) ;
#263 = ORIENTED_EDGE ( 'NONE', *, *, #176, .T. ) ;
#264 = EDGE_LOOP ( 'NONE', ( #541, #691 ) ) ;
#265 = ADVANCED_FACE ( 'NONE', ( #495 ), #824, .F. ) ;
#266 = DIRECTION ( 'NONE',  ( -0.000000000000000000, 1.000000000000000000, -0.000000000000000000 ) ) ;
#267 = CARTESIAN_POINT ( 'NONE',  ( -0.8224999999999998979, -0.4250000000000001554, 0.5000000000000000000 ) ) ;
#268 = ORIENTED_EDGE ( 'NONE', *, *, #349, .F. ) ;
#269 = CARTESIAN_POINT ( 'NONE',  ( -0.6875000000000000000, -0.4250000000000001554, 0.5000000000000000000 ) ) ;
#270 = CARTESIAN_POINT ( 'NONE',  ( 1.500000000000000444, 0.6750000000000002665, 0.5000000000000000000 ) ) ;
#271 = EDGE_CURVE ( 'NONE', #166, #304, #605, .T. ) ;
#272 = AXIS2_PLACEMENT_3D ( 'NONE', #157, #168, #702 ) ;
#273 = DIRECTION ( 'NONE',  ( 0.000000000000000000, -1.000000000000000000, 0.000000000000000000 ) ) ;
#274 = ORIENTED_EDGE ( 'NONE', *, *, #309, .T. ) ;
#275 =( GEOMETRIC_REPRESENTATION_CONTEXT ( 3 ) GLOBAL_UNCERTAINTY_ASSIGNED_CONTEXT ( ( #249 ) ) GLOBAL_UNIT_ASSIGNED_CONTEXT ( ( #757, #670, #341 ) ) REPRESENTATION_CONTEXT ( 'NONE', 'WORKASPACE' ) );
#276 = AXIS2_PLACEMENT_3D ( 'NONE', #216, #687, #475 ) ;
#277 = APPLICATION_CONTEXT ( 'automotive_design' ) ;
#278 = CARTESIAN_POINT ( 'NONE',  ( -0.6875000000000000000, -0.4250000000000001554, 0.5000000000000000000 ) ) ;
#279 = DIRECTION ( 'NONE',  ( -0.000000000000000000, 1.000000000000000000, -0.000000000000000000 ) ) ;
#280 = DIRECTION ( 'NONE',  ( 0.000000000000000000, 0.000000000000000000, 1.000000000000000000 ) ) ;
#281 = DIRECTION ( 'NONE',  ( -1.000000000000000000, -0.000000000000000000, -0.000000000000000000 ) ) ;
#282 = PLANE ( 'NONE',  #837 ) ;
#283 = VERTEX_POINT ( 'NONE', #300 ) ;
#284 = CARTESIAN_POINT ( 'NONE',  ( 0.5524999999999995470, -0.4249999999999991007, 0.000000000000000000 ) ) ;
#285 = DIRECTION ( 'NONE',  ( -0.000000000000000000, -0.000000000000000000, -1.000000000000000000 ) ) ;
#286 = SURFACE_STYLE_FILL_AREA ( #12 ) ;
#287 = ORIENTED_EDGE ( 'NONE', *, *, #590, .T. ) ;
#288 = CARTESIAN_POINT ( 'NONE',  ( 1.500000000000000444, 0.6750000000000002665, 0.5000000000000000000 ) ) ;
#289 = ORIENTED_EDGE ( 'NONE', *, *, #111, .T. ) ;
#290 = VECTOR ( 'NONE', #64, 39.37007874015748143 ) ;
#291 = CIRCLE ( 'NONE', #781, 0.1349999999999999256 ) ;
#292 = CARTESIAN_POINT ( 'NONE',  ( -1.199999999999999956, -0.07499999999999960865, 0.1752500000000008495 ) ) ;
#293 = ORIENTED_EDGE ( 'NONE', *, *, #349, .T. ) ;
#294 = DIRECTION ( 'NONE',  ( -1.000000000000000000, -0.000000000000000000, -0.000000000000000000 ) ) ;
#295 = ADVANCED_FACE ( 'NONE', ( #713 ), #306, .F. ) ;
#296 = CARTESIAN_POINT ( 'NONE',  ( -0.5525000000000001021, 0.07499999999999990008, 0.000000000000000000 ) ) ;
#297 = ORIENTED_EDGE ( 'NONE', *, *, #488, .F. ) ;
#298 = EDGE_CURVE ( 'NONE', #46, #392, #109, .T. ) ;
#299 = EDGE_LOOP ( 'NONE', ( #375, #450, #198, #493 ) ) ;
#300 = CARTESIAN_POINT ( 'NONE',  ( 0.8882461083059896012, 0.6750000000000002665, 0.000000000000000000 ) ) ;
#301 = ORIENTED_EDGE ( 'NONE', *, *, #553, .F. ) ;
#302 = VECTOR ( 'NONE', #320, 39.37007874015748143 ) ;
#303 = CIRCLE ( 'NONE', #795, 0.1349999999999999256 ) ;
#304 = VERTEX_POINT ( 'NONE', #384 ) ;
#305 = AXIS2_PLACEMENT_3D ( 'NONE', #575, #232, #162 ) ;
#306 = CYLINDRICAL_SURFACE ( 'NONE', #231, 0.1349999999999999256 ) ;
#307 = DIRECTION ( 'NONE',  ( -1.000000000000000000, 0.000000000000000000, 0.000000000000000000 ) ) ;
#308 = ORIENTED_EDGE ( 'NONE', *, *, #697, .F. ) ;
#309 = EDGE_CURVE ( 'NONE', #347, #392, #346, .T. ) ;
#310 = EDGE_LOOP ( 'NONE', ( #736, #145 ) ) ;
#311 = DIRECTION ( 'NONE',  ( 0.000000000000000000, 1.000000000000000000, 0.000000000000000000 ) ) ;
#312 = CARTESIAN_POINT ( 'NONE',  ( 0.4867538916940105653, 0.6750000000000002665, 0.5000000000000000000 ) ) ;
#313 = DIRECTION ( 'NONE',  ( 0.000000000000000000, 0.000000000000000000, 1.000000000000000000 ) ) ;
#314 = VECTOR ( 'NONE', #14, 39.37007874015748143 ) ;
#315 = AXIS2_PLACEMENT_3D ( 'NONE', #101, #230, #503 ) ;
#316 = ORIENTED_EDGE ( 'NONE', *, *, #103, .F. ) ;
#317 = DIRECTION ( 'NONE',  ( -0.000000000000000000, 1.000000000000000000, -0.000000000000000000 ) ) ;
#318 = FACE_OUTER_BOUND ( 'NONE', #141, .T. ) ;
#319 = ORIENTED_EDGE ( 'NONE', *, *, #20, .T. ) ;
#320 = DIRECTION ( 'NONE',  ( -0.000000000000000000, -0.000000000000000000, -1.000000000000000000 ) ) ;
#321 = DIRECTION ( 'NONE',  ( -0.000000000000000000, -0.000000000000000000, -1.000000000000000000 ) ) ;
#323 = EDGE_CURVE ( 'NONE', #235, #204, #421, .T. ) ;
#322 = DIRECTION ( 'NONE',  ( -0.000000000000000000, 1.000000000000000000, -0.000000000000000000 ) ) ;
#324 = LINE ( 'NONE', #521, #621 ) ;
#325 = EDGE_LOOP ( 'NONE', ( #221, #613, #443 ) ) ;
#326 = CARTESIAN_POINT ( 'NONE',  ( -0.5525000000000001021, 0.07499999999999990008, 0.5000000000000000000 ) ) ;
#327 = CARTESIAN_POINT ( 'NONE',  ( 1.200000000000000400, 0.6750000000000002665, 0.3247499999999998721 ) ) ;
#328 = CARTESIAN_POINT ( 'NONE',  ( -0.5525000000000001021, -0.4250000000000001554, 0.000000000000000000 ) ) ;
#329 = LINE ( 'NONE', #589, #807 ) ;
#330 = LENGTH_MEASURE_WITH_UNIT ( LENGTH_MEASURE( 0.02539999999999999897 ), #66 );
#331 = CARTESIAN_POINT ( 'NONE',  ( -0.5525000000000001021, 0.07499999999999990008, 0.5000000000000000000 ) ) ;
#332 = CARTESIAN_POINT ( 'NONE',  ( -0.8224999999999998979, 0.07499999999999988620, 0.5000000000000000000 ) ) ;
#333 = CIRCLE ( 'NONE', #260, 0.1349999999999999256 ) ;
#334 = CIRCLE ( 'NONE', #862, 0.07474999999999948352 ) ;
#335 = AXIS2_PLACEMENT_3D ( 'NONE', #92, #803, #750 ) ;
#336 = ADVANCED_FACE ( 'NONE', ( #121 ), #455, .F. ) ;
#337 = CARTESIAN_POINT ( 'NONE',  ( 0.6874999999999994449, -0.4249999999999991007, 0.000000000000000000 ) ) ;
#338 = FACE_OUTER_BOUND ( 'NONE', #456, .T. ) ;
#339 = DIMENSIONAL_EXPONENTS ( 1.000000000000000000, 0.000000000000000000, 0.000000000000000000, 0.000000000000000000, 0.000000000000000000, 0.000000000000000000, 0.000000000000000000 ) ;
#340 = ADVANCED_FACE ( 'NONE', ( #338 ), #618, .F. ) ;
#341 =( NAMED_UNIT ( * ) SI_UNIT ( $, .STERADIAN. ) SOLID_ANGLE_UNIT ( ) );
#342 = FACE_OUTER_BOUND ( 'NONE', #368, .T. ) ;
#343 = LINE ( 'NONE', #270, #591 ) ;
#344 = FACE_OUTER_BOUND ( 'NONE', #570, .T. ) ;
#345 = ORIENTED_EDGE ( 'NONE', *, *, #850, .F. ) ;
#346 = CIRCLE ( 'NONE', #794, 0.07474999999999945577 ) ;
#347 = VERTEX_POINT ( 'NONE', #51 ) ;
#348 = CIRCLE ( 'NONE', #693, 0.2500000000000002220 ) ;
#349 = EDGE_CURVE ( 'NONE', #13, #163, #2, .T. ) ;
#350 = VECTOR ( 'NONE', #317, 39.37007874015748143 ) ;
#351 = DIRECTION ( 'NONE',  ( 1.000000000000000000, 0.000000000000000000, 0.000000000000000000 ) ) ;
#352 = DIRECTION ( 'NONE',  ( -0.000000000000000000, -0.000000000000000000, -1.000000000000000000 ) ) ;
#353 = EDGE_CURVE ( 'NONE', #587, #91, #424, .T. ) ;
#354 = ORIENTED_EDGE ( 'NONE', *, *, #801, .F. ) ;
#355 = LINE ( 'NONE', #21, #526 ) ;
#356 = VERTEX_POINT ( 'NONE', #65 ) ;
#357 = DIRECTION ( 'NONE',  ( -0.000000000000000000, 1.000000000000000000, -0.000000000000000000 ) ) ;
#358 = DIRECTION ( 'NONE',  ( -1.000000000000000000, 0.000000000000000000, 0.000000000000000000 ) ) ;
#359 = DIRECTION ( 'NONE',  ( 0.000000000000000000, 0.000000000000000000, 1.000000000000000000 ) ) ;
#360 = DIRECTION ( 'NONE',  ( 0.000000000000000000, 0.000000000000000000, 1.000000000000000000 ) ) ;
#361 = DIRECTION ( 'NONE',  ( 0.000000000000000000, 0.000000000000000000, 1.000000000000000000 ) ) ;
#362 = DIRECTION ( 'NONE',  ( -1.000000000000000000, -0.000000000000000000, -0.000000000000000000 ) ) ;
#363 = ORIENTED_EDGE ( 'NONE', *, *, #768, .T. ) ;
#364 = DIRECTION ( 'NONE',  ( -1.000000000000000000, 0.000000000000000000, 0.000000000000000000 ) ) ;
#365 = AXIS2_PLACEMENT_3D ( 'NONE', #416, #550, #228 ) ;
#366 = EDGE_CURVE ( 'NONE', #204, #720, #329, .T. ) ;
#367 = CIRCLE ( 'NONE', #117, 0.07474999999999948352 ) ;
#368 = EDGE_LOOP ( 'NONE', ( #354, #3, #194 ) ) ;
#369 = ADVANCED_BREP_SHAPE_REPRESENTATION ( 'Inner gantry bracket, lower', ( #453, #552 ), #551 ) ;
#370 = EDGE_CURVE ( 'NONE', #173, #150, #258, .T. ) ;
#371 = CARTESIAN_POINT ( 'NONE',  ( -2.640305645427999046E-16, 0.6750000000000002665, 0.1752500000000004610 ) ) ;
#372 = DIRECTION ( 'NONE',  ( 0.000000000000000000, 0.000000000000000000, 1.000000000000000000 ) ) ;
#373 = CARTESIAN_POINT ( 'NONE',  ( 0.6874999999999994449, -0.4249999999999991007, 0.000000000000000000 ) ) ;
#374 = FACE_OUTER_BOUND ( 'NONE', #486, .T. ) ;
#375 = ORIENTED_EDGE ( 'NONE', *, *, #134, .F. ) ;
#376 = FACE_OUTER_BOUND ( 'NONE', #22, .T. ) ;
#377 = CIRCLE ( 'NONE', #510, 0.07474999999999945577 ) ;
#378 = AXIS2_PLACEMENT_3D ( 'NONE', #808, #135, #746 ) ;
#379 = ORIENTED_EDGE ( 'NONE', *, *, #726, .T. ) ;
#380 = ADVANCED_FACE ( 'NONE', ( #344 ), #678, .F. ) ;
#381 = CARTESIAN_POINT ( 'NONE',  ( -1.499999999999999778, 0.6750000000000002665, 0.5000000000000000000 ) ) ;
#382 = ORIENTED_EDGE ( 'NONE', *, *, #685, .F. ) ;
#383 = ORIENTED_EDGE ( 'NONE', *, *, #366, .F. ) ;
#384 = CARTESIAN_POINT ( 'NONE',  ( -2.640305645427999046E-16, 0.6750000000000002665, 0.1752500000000004055 ) ) ;
#385 = ORIENTED_EDGE ( 'NONE', *, *, #779, .T. ) ;
#386 = CARTESIAN_POINT ( 'NONE',  ( -1.199999999999999956, 0.6750000000000002665, 0.3247499999999998721 ) ) ;
#387 = CARTESIAN_POINT ( 'NONE',  ( -0.8224999999999998979, 0.07499999999999988620, 0.5000000000000000000 ) ) ;
#388 = AXIS2_PLACEMENT_3D ( 'NONE', #278, #133, #413 ) ;
#389 = EDGE_LOOP ( 'NONE', ( #717, #297 ) ) ;
#390 = VECTOR ( 'NONE', #190, 39.37007874015748143 ) ;
#391 = CONICAL_SURFACE ( 'NONE', #696, 0.07474999999999948352, 1.029744258676650537 ) ;
#392 = VERTEX_POINT ( 'NONE', #85 ) ;
#393 = CARTESIAN_POINT ( 'NONE',  ( -0.6875000000000000000, -0.4250000000000001554, 0.5000000000000000000 ) ) ;
#394 = ORIENTED_EDGE ( 'NONE', *, *, #545, .F. ) ;
#395 = CARTESIAN_POINT ( 'NONE',  ( 1.500000000000000444, -0.6749999999999997113, 0.000000000000000000 ) ) ;
#396 = CARTESIAN_POINT ( 'NONE',  ( -1.499999999999999778, -0.6749999999999997113, 0.5000000000000000000 ) ) ;
#397 = DIRECTION ( 'NONE',  ( -0.000000000000000000, -0.000000000000000000, -1.000000000000000000 ) ) ;
#398 = ORIENTED_EDGE ( 'NONE', *, *, #590, .F. ) ;
#399 = DIRECTION ( 'NONE',  ( -0.000000000000000000, -0.000000000000000000, -1.000000000000000000 ) ) ;
#400 = CARTESIAN_POINT ( 'NONE',  ( -2.731847993664263218E-16, 0.6750000000000002665, 0.2500000000000000000 ) ) ;
#401 = DIRECTION ( 'NONE',  ( -0.000000000000000000, 1.000000000000000000, -0.000000000000000000 ) ) ;
#402 = ORIENTED_EDGE ( 'NONE', *, *, #115, .F. ) ;
#403 = EDGE_CURVE ( 'NONE', #764, #150, #511, .T. ) ;
#404 = ORIENTED_EDGE ( 'NONE', *, *, #409, .F. ) ;
#405 = VERTEX_POINT ( 'NONE', #540 ) ;
#406 = DIRECTION ( 'NONE',  ( 0.000000000000000000, -0.000000000000000000, 1.000000000000000000 ) ) ;
#407 = CIRCLE ( 'NONE', #388, 0.1349999999999999256 ) ;
#408 = ORIENTED_EDGE ( 'NONE', *, *, #779, .F. ) ;
#409 = EDGE_CURVE ( 'NONE', #627, #171, #417, .T. ) ;
#410 = VECTOR ( 'NONE', #694, 39.37007874015748143 ) ;
#411 = CARTESIAN_POINT ( 'NONE',  ( -2.731847993664263218E-16, -0.07499999999999960865, 0.3247499999999994280 ) ) ;
#412 = ORIENTED_EDGE ( 'NONE', *, *, #370, .T. ) ;
#413 = DIRECTION ( 'NONE',  ( 1.000000000000000000, 0.000000000000000000, 0.000000000000000000 ) ) ;
#414 = CARTESIAN_POINT ( 'NONE',  ( -0.4867538916940105653, 0.6750000000000002665, 0.000000000000000000 ) ) ;
#415 = DIRECTION ( 'NONE',  ( 1.049727191138616107E-16, 0.5150380749100575972, -0.8571673007021102242 ) ) ;
#416 = CARTESIAN_POINT ( 'NONE',  ( -0.6875000000000000000, 0.07499999999999988620, 0.5000000000000000000 ) ) ;
#417 = LINE ( 'NONE', #212, #863 ) ;
#418 = EDGE_CURVE ( 'NONE', #720, #842, #53, .T. ) ;
#419 = LINE ( 'NONE', #214, #645 ) ;
#420 = PRESENTATION_STYLE_ASSIGNMENT (( #820 ) ) ;
#421 = CIRCLE ( 'NONE', #42, 0.07474999999999948352 ) ;
#422 = CARTESIAN_POINT ( 'NONE',  ( -0.4867538916940105653, 0.6750000000000002665, 0.5000000000000000000 ) ) ;
#423 = ORIENTED_EDGE ( 'NONE', *, *, #578, .F. ) ;
#424 = CIRCLE ( 'NONE', #606, 0.1349999999999999256 ) ;
#425 = CARTESIAN_POINT ( 'NONE',  ( -2.731847993664263218E-16, 0.6750000000000002665, 0.3247499999999995390 ) ) ;
#426 = CARTESIAN_POINT ( 'NONE',  ( 0.6875000000000000000, 0.8240000000000003988, 0.000000000000000000 ) ) ;
#427 = LINE ( 'NONE', #480, #630 ) ;
#428 = ORIENTED_EDGE ( 'NONE', *, *, #768, .F. ) ;
#429 = FACE_OUTER_BOUND ( 'NONE', #828, .T. ) ;
#430 = ORIENTED_EDGE ( 'NONE', *, *, #840, .F. ) ;
#431 = EDGE_CURVE ( 'NONE', #587, #242, #748, .T. ) ;
#432 = DIRECTION ( 'NONE',  ( -1.000000000000000000, -0.000000000000000000, -0.000000000000000000 ) ) ;
#433 = VERTEX_POINT ( 'NONE', #23 ) ;
#434 = DIRECTION ( 'NONE',  ( -0.000000000000000000, -0.000000000000000000, -1.000000000000000000 ) ) ;
#435 = DIRECTION ( 'NONE',  ( 0.000000000000000000, 0.000000000000000000, 1.000000000000000000 ) ) ;
#436 = EDGE_LOOP ( 'NONE', ( #159, #585 ) ) ;
#437 = EDGE_CURVE ( 'NONE', #283, #790, #95, .T. ) ;
#438 = CLOSED_SHELL ( 'NONE', ( #380, #209, #464, #32, #501, #721, #229, #673, #537, #153, #825, #445, #265, #565, #639, #815, #751, #6, #252, #57, #295, #254, #43, #336, #340, #458, #667, #79 ) ) ;
#439 = VECTOR ( 'NONE', #397, 39.37007874015748143 ) ;
#440 = CIRCLE ( 'NONE', #315, 0.1349999999999999256 ) ;
#441 = VERTEX_POINT ( 'NONE', #414 ) ;
#442 = ORIENTED_EDGE ( 'NONE', *, *, #545, .T. ) ;
#443 = ORIENTED_EDGE ( 'NONE', *, *, #192, .T. ) ;
#444 = EDGE_LOOP ( 'NONE', ( #804, #227, #505, #656, #457, #560, #792, #107 ) ) ;
#445 = ADVANCED_FACE ( 'NONE', ( #215, #612 ), #282, .F. ) ;
#446 = ORIENTED_EDGE ( 'NONE', *, *, #188, .F. ) ;
#447 = ORIENTED_EDGE ( 'NONE', *, *, #437, .F. ) ;
#448 = VECTOR ( 'NONE', #683, 39.37007874015748143 ) ;
#449 = PRESENTATION_LAYER_ASSIGNMENT (  '', '', ( #498 ) ) ;
#450 = ORIENTED_EDGE ( 'NONE', *, *, #831, .T. ) ;
#451 = VERTEX_POINT ( 'NONE', #143 ) ;
#452 = DIRECTION ( 'NONE',  ( 0.000000000000000000, -1.000000000000000000, 0.000000000000000000 ) ) ;
#453 = MANIFOLD_SOLID_BREP ( '#10-24 Tapped Hole1', #438 ) ;
#454 = DIRECTION ( 'NONE',  ( -0.000000000000000000, 1.000000000000000000, -0.000000000000000000 ) ) ;
#455 = CYLINDRICAL_SURFACE ( 'NONE', #469, 0.07474999999999948352 ) ;
#456 = EDGE_LOOP ( 'NONE', ( #712, #774, #274 ) ) ;
#457 = ORIENTED_EDGE ( 'NONE', *, *, #578, .T. ) ;
#458 = ADVANCED_FACE ( 'NONE', ( #376 ), #24, .F. ) ;
#459 = AXIS2_PLACEMENT_3D ( 'NONE', #87, #357, #219 ) ;
#460 = ORIENTED_EDGE ( 'NONE', *, *, #115, .T. ) ;
#461 = AXIS2_PLACEMENT_3D ( 'NONE', #857, #247, #519 ) ;
#462 = DIRECTION ( 'NONE',  ( -0.000000000000000000, 1.000000000000000000, -0.000000000000000000 ) ) ;
#463 = LINE ( 'NONE', #186, #679 ) ;
#464 = ADVANCED_FACE ( 'NONE', ( #318 ), #861, .F. ) ;
#465 = ORIENTED_EDGE ( 'NONE', *, *, #634, .F. ) ;
#466 = DIRECTION ( 'NONE',  ( 0.000000000000000000, 0.000000000000000000, 1.000000000000000000 ) ) ;
#467 = ORIENTED_EDGE ( 'NONE', *, *, #749, .T. ) ;
#468 = ORIENTED_EDGE ( 'NONE', *, *, #218, .T. ) ;
#469 = AXIS2_PLACEMENT_3D ( 'NONE', #849, #322, #313 ) ;
#470 = CARTESIAN_POINT ( 'NONE',  ( 0.8882461083059893792, 0.6750000000000002665, 0.000000000000000000 ) ) ;
#471 = ORIENTED_EDGE ( 'NONE', *, *, #604, .F. ) ;
#472 = CARTESIAN_POINT ( 'NONE',  ( 1.500000000000000444, -0.6749999999999997113, 0.5000000000000000000 ) ) ;
#473 = EDGE_CURVE ( 'NONE', #46, #347, #798, .T. ) ;
#474 = ORIENTED_EDGE ( 'NONE', *, *, #68, .F. ) ;
#475 = DIRECTION ( 'NONE',  ( 0.000000000000000000, 0.000000000000000000, 1.000000000000000000 ) ) ;
#476 = EDGE_CURVE ( 'NONE', #235, #842, #10, .T. ) ;
#477 = CARTESIAN_POINT ( 'NONE',  ( 0.8882461083059893792, 0.6750000000000002665, 0.5000000000000000000 ) ) ;
#478 = DIRECTION ( 'NONE',  ( 0.000000000000000000, 0.000000000000000000, 1.000000000000000000 ) ) ;
#479 = ORIENTED_EDGE ( 'NONE', *, *, #529, .F. ) ;
#480 = CARTESIAN_POINT ( 'NONE',  ( 1.200000000000000400, -0.07499999999999960865, 0.1752500000000008495 ) ) ;
#481 = ORIENTED_EDGE ( 'NONE', *, *, #218, .F. ) ;
#482 = LINE ( 'NONE', #425, #448 ) ;
#483 = DIMENSIONAL_EXPONENTS ( 1.000000000000000000, 0.000000000000000000, 0.000000000000000000, 0.000000000000000000, 0.000000000000000000, 0.000000000000000000, 0.000000000000000000 ) ;
#484 = DIRECTION ( 'NONE',  ( 0.000000000000000000, -1.000000000000000000, 0.000000000000000000 ) ) ;
#485 = AXIS2_PLACEMENT_3D ( 'NONE', #583, #124, #251 ) ;
#486 = EDGE_LOOP ( 'NONE', ( #468, #398, #423, #38 ) ) ;
#487 = AXIS2_PLACEMENT_3D ( 'NONE', #126, #641, #584 ) ;
#488 = EDGE_CURVE ( 'NONE', #356, #527, #367, .T. ) ;
#489 = VERTEX_POINT ( 'NONE', #331 ) ;
#490 = CARTESIAN_POINT ( 'NONE',  ( 0.8224999999999993427, -0.4249999999999991007, 0.5000000000000000000 ) ) ;
#491 = DIRECTION ( 'NONE',  ( -1.000000000000000000, 0.000000000000000000, 0.000000000000000000 ) ) ;
#492 = EDGE_CURVE ( 'NONE', #13, #105, #291, .T. ) ;
#493 = ORIENTED_EDGE ( 'NONE', *, *, #176, .F. ) ;
#494 = ORIENTED_EDGE ( 'NONE', *, *, #476, .T. ) ;
#495 = FACE_OUTER_BOUND ( 'NONE', #620, .T. ) ;
#496 = FACE_BOUND ( 'NONE', #152, .T. ) ;
#497 = ORIENTED_EDGE ( 'NONE', *, *, #68, .T. ) ;
#498 = STYLED_ITEM ( 'NONE', ( #420 ), #453 ) ;
#499 = VECTOR ( 'NONE', #616, 39.37007874015748143 ) ;
#500 = FACE_BOUND ( 'NONE', #677, .T. ) ;
#501 = ADVANCED_FACE ( 'NONE', ( #580 ), #852, .F. ) ;
#502 = DIRECTION ( 'NONE',  ( 1.000000000000000000, 0.000000000000000000, 0.000000000000000000 ) ) ;
#503 = DIRECTION ( 'NONE',  ( 1.000000000000000000, 0.000000000000000000, 0.000000000000000000 ) ) ;
#504 = EDGE_CURVE ( 'NONE', #520, #179, #348, .T. ) ;
#505 = ORIENTED_EDGE ( 'NONE', *, *, #624, .T. ) ;
#506 = ORIENTED_EDGE ( 'NONE', *, *, #437, .T. ) ;
#507 = FACE_BOUND ( 'NONE', #436, .T. ) ;
#508 = FACE_OUTER_BOUND ( 'NONE', #102, .T. ) ;
#509 = CARTESIAN_POINT ( 'NONE',  ( -0.4867538916940105653, 0.6750000000000002665, 0.5000000000000000000 ) ) ;
#510 = AXIS2_PLACEMENT_3D ( 'NONE', #847, #401, #514 ) ;
#511 = CIRCLE ( 'NONE', #727, 0.1349999999999999256 ) ;
#512 = ORIENTED_EDGE ( 'NONE', *, *, #127, .T. ) ;
#513 =( NAMED_UNIT ( * ) PLANE_ANGLE_UNIT ( ) SI_UNIT ( $, .RADIAN. ) );
#514 = DIRECTION ( 'NONE',  ( 0.000000000000000000, 0.000000000000000000, 1.000000000000000000 ) ) ;
#515 = LINE ( 'NONE', #652, #290 ) ;
#516 = EDGE_CURVE ( 'NONE', #78, #451, #463, .T. ) ;
#517 = ORIENTED_EDGE ( 'NONE', *, *, #111, .F. ) ;
#518 = DIRECTION ( 'NONE',  ( 0.000000000000000000, 0.000000000000000000, 1.000000000000000000 ) ) ;
#519 = DIRECTION ( 'NONE',  ( 0.000000000000000000, 0.000000000000000000, 1.000000000000000000 ) ) ;
#520 = VERTEX_POINT ( 'NONE', #660 ) ;
#521 = CARTESIAN_POINT ( 'NONE',  ( -1.199999999999999956, -0.07499999999999960865, 0.3247499999999998721 ) ) ;
#522 = EDGE_LOOP ( 'NONE', ( #707, #704, #559, #428 ) ) ;
#523 = DIRECTION ( 'NONE',  ( -0.000000000000000000, 1.000000000000000000, -0.000000000000000000 ) ) ;
#524 = FACE_OUTER_BOUND ( 'NONE', #5, .T. ) ;
#525 = DIRECTION ( 'NONE',  ( 0.000000000000000000, 0.000000000000000000, 1.000000000000000000 ) ) ;
#526 = VECTOR ( 'NONE', #222, 39.37007874015748143 ) ;
#527 = VERTEX_POINT ( 'NONE', #793 ) ;
#528 = APPLICATION_PROTOCOL_DEFINITION ( 'draft international standard', 'automotive_design', 1998, #277 ) ;
#529 = EDGE_CURVE ( 'NONE', #489, #764, #723, .T. ) ;
#530 = ORIENTED_EDGE ( 'NONE', *, *, #192, .F. ) ;
#531 = UNCERTAINTY_MEASURE_WITH_UNIT (LENGTH_MEASURE( 1.000000000000000082E-05 ), #638, 'distance_accuracy_value', 'NONE');
#532 = CARTESIAN_POINT ( 'NONE',  ( -1.499999999999999778, 0.6750000000000002665, 0.000000000000000000 ) ) ;
#533 = DIRECTION ( 'NONE',  ( -1.000000000000000000, 0.000000000000000000, 0.000000000000000000 ) ) ;
#534 = LINE ( 'NONE', #470, #593 ) ;
#535 = DIRECTION ( 'NONE',  ( -1.000000000000000000, 0.000000000000000000, 0.000000000000000000 ) ) ;
#536 = CONICAL_SURFACE ( 'NONE', #175, 0.07474999999999945577, 1.029744258676649649 ) ;
#537 = ADVANCED_FACE ( 'NONE', ( #118 ), #4, .F. ) ;
#538 = VECTOR ( 'NONE', #759, 39.37007874015748143 ) ;
#539 = VECTOR ( 'NONE', #34, 39.37007874015748143 ) ;
#540 = CARTESIAN_POINT ( 'NONE',  ( -1.499999999999999778, -0.6749999999999997113, 0.5000000000000000000 ) ) ;
#541 = ORIENTED_EDGE ( 'NONE', *, *, #685, .T. ) ;
#542 = CARTESIAN_POINT ( 'NONE',  ( 0.5524999999999995470, -0.4249999999999991007, 0.5000000000000000000 ) ) ;
#543 = FILL_AREA_STYLE_COLOUR ( '', #131 ) ;
#544 = LINE ( 'NONE', #30, #754 ) ;
#545 = EDGE_CURVE ( 'NONE', #304, #166, #84, .T. ) ;
#546 = CARTESIAN_POINT ( 'NONE',  ( -0.6875000000000000000, 0.07499999999999988620, 0.000000000000000000 ) ) ;
#547 = CIRCLE ( 'NONE', #485, 0.1349999999999999256 ) ;
#548 = AXIS2_PLACEMENT_3D ( 'NONE', #834, #129, #598 ) ;
#549 = FACE_OUTER_BOUND ( 'NONE', #666, .T. ) ;
#550 = DIRECTION ( 'NONE',  ( -0.000000000000000000, -0.000000000000000000, -1.000000000000000000 ) ) ;
#551 =( GEOMETRIC_REPRESENTATION_CONTEXT ( 3 ) GLOBAL_UNCERTAINTY_ASSIGNED_CONTEXT ( ( #531 ) ) GLOBAL_UNIT_ASSIGNED_CONTEXT ( ( #638, #513, #49 ) ) REPRESENTATION_CONTEXT ( 'NONE', 'WORKASPACE' ) );
#552 = AXIS2_PLACEMENT_3D ( 'NONE', #586, #518, #649 ) ;
#553 = EDGE_CURVE ( 'NONE', #173, #489, #261, .T. ) ;
#554 = CARTESIAN_POINT ( 'NONE',  ( -1.499999999999999778, 0.6750000000000002665, 0.5000000000000000000 ) ) ;
#555 = ORIENTED_EDGE ( 'NONE', *, *, #738, .F. ) ;
#556 = LINE ( 'NONE', #827, #410 ) ;
#557 = VERTEX_POINT ( 'NONE', #284 ) ;
#558 = CARTESIAN_POINT ( 'NONE',  ( -1.499999999999999778, -0.6749999999999997113, 0.000000000000000000 ) ) ;
#559 = ORIENTED_EDGE ( 'NONE', *, *, #90, .F. ) ;
#560 = ORIENTED_EDGE ( 'NONE', *, *, #27, .T. ) ;
#561 = CARTESIAN_POINT ( 'NONE',  ( 1.200000000000000400, 0.6750000000000002665, 0.2500000000000003886 ) ) ;
#562 = DIRECTION ( 'NONE',  ( 0.000000000000000000, 0.5150380749100575972, 0.8571673007021102242 ) ) ;
#563 = ORIENTED_EDGE ( 'NONE', *, *, #654, .F. ) ;
#564 = CARTESIAN_POINT ( 'NONE',  ( 0.6874999999999994449, -0.4249999999999991007, 0.5000000000000000000 ) ) ;
#565 = ADVANCED_FACE ( 'NONE', ( #151, #549 ), #823, .F. ) ;
#566 = DIRECTION ( 'NONE',  ( -1.000000000000000000, 0.000000000000000000, 0.000000000000000000 ) ) ;
#567 = AXIS2_PLACEMENT_3D ( 'NONE', #603, #279, #669 ) ;
#568 = AXIS2_PLACEMENT_3D ( 'NONE', #422, #273, #601 ) ;
#569 = DIRECTION ( 'NONE',  ( -0.000000000000000000, -0.000000000000000000, -1.000000000000000000 ) ) ;
#570 = EDGE_LOOP ( 'NONE', ( #195, #48, #226, #860 ) ) ;
#571 = APPLICATION_PROTOCOL_DEFINITION ( 'draft international standard', 'automotive_design', 1998, #832 ) ;
#572 = EDGE_CURVE ( 'NONE', #405, #839, #86, .T. ) ;
#573 = VERTEX_POINT ( 'NONE', #25 ) ;
#574 = AXIS2_PLACEMENT_3D ( 'NONE', #99, #740, #535 ) ;
#575 = CARTESIAN_POINT ( 'NONE',  ( -0.6875000000000000000, -0.4250000000000001554, 0.000000000000000000 ) ) ;
#576 = AXIS2_PLACEMENT_3D ( 'NONE', #393, #255, #123 ) ;
#577 = LINE ( 'NONE', #711, #302 ) ;
#578 = EDGE_CURVE ( 'NONE', #62, #724, #355, .T. ) ;
#579 = LINE ( 'NONE', #509, #73 ) ;
#580 = FACE_OUTER_BOUND ( 'NONE', #299, .T. ) ;
#581 = ORIENTED_EDGE ( 'NONE', *, *, #271, .F. ) ;
#582 = CARTESIAN_POINT ( 'NONE',  ( -0.5525000000000001021, -0.4250000000000001554, 0.5000000000000000000 ) ) ;
#583 = CARTESIAN_POINT ( 'NONE',  ( -0.6875000000000000000, 0.07499999999999988620, 0.5000000000000000000 ) ) ;
#584 = DIRECTION ( 'NONE',  ( 0.000000000000000000, 0.000000000000000000, 1.000000000000000000 ) ) ;
#585 = ORIENTED_EDGE ( 'NONE', *, *, #238, .F. ) ;
#586 = CARTESIAN_POINT ( 'NONE',  ( 0.000000000000000000, 0.000000000000000000, 0.000000000000000000 ) ) ;
#587 = VERTEX_POINT ( 'NONE', #490 ) ;
#588 = PRODUCT_RELATED_PRODUCT_CATEGORY ( 'part', '', ( #60 ) ) ;
#589 = CARTESIAN_POINT ( 'NONE',  ( -1.199999999999999956, 0.6750000000000002665, 0.1752500000000008495 ) ) ;
#590 = EDGE_CURVE ( 'NONE', #724, #573, #140, .T. ) ;
#591 = VECTOR ( 'NONE', #285, 39.37007874015748143 ) ;
#592 = CYLINDRICAL_SURFACE ( 'NONE', #160, 0.1349999999999999256 ) ;
#593 = VECTOR ( 'NONE', #432, 39.37007874015748143 ) ;
#594 = DIRECTION ( 'NONE',  ( 0.000000000000000000, 0.000000000000000000, 1.000000000000000000 ) ) ;
#595 = ORIENTED_EDGE ( 'NONE', *, *, #431, .F. ) ;
#596 = CARTESIAN_POINT ( 'NONE',  ( 1.200000000000000400, -0.07499999999999960865, 0.2500000000000003886 ) ) ;
#597 = ORIENTED_EDGE ( 'NONE', *, *, #553, .T. ) ;
#598 = DIRECTION ( 'NONE',  ( 0.000000000000000000, 0.000000000000000000, 1.000000000000000000 ) ) ;
#599 = EDGE_CURVE ( 'NONE', #91, #587, #303, .T. ) ;
#600 = CARTESIAN_POINT ( 'NONE',  ( -1.199999999999999956, 0.6750000000000002665, 0.2500000000000003886 ) ) ;
#601 = DIRECTION ( 'NONE',  ( 0.000000000000000000, -0.000000000000000000, -1.000000000000000000 ) ) ;
#602 = ORIENTED_EDGE ( 'NONE', *, *, #492, .T. ) ;
#603 = CARTESIAN_POINT ( 'NONE',  ( -1.199999999999999956, 0.6750000000000002665, 0.2500000000000003886 ) ) ;
#604 = EDGE_CURVE ( 'NONE', #78, #799, #427, .T. ) ;
#605 = CIRCLE ( 'NONE', #617, 0.07474999999999959455 ) ;
#606 = AXIS2_PLACEMENT_3D ( 'NONE', #653, #67, #533 ) ;
#607 = ORIENTED_EDGE ( 'NONE', *, *, #801, .T. ) ;
#608 = CARTESIAN_POINT ( 'NONE',  ( -0.4867538916940105653, 0.6750000000000002665, 0.5000000000000000000 ) ) ;
#609 = DIRECTION ( 'NONE',  ( -0.000000000000000000, 1.000000000000000000, -0.000000000000000000 ) ) ;
#610 = CARTESIAN_POINT ( 'NONE',  ( 0.6874999999999994449, -0.4249999999999991007, 0.5000000000000000000 ) ) ;
#611 = VERTEX_POINT ( 'NONE', #288 ) ;
#612 = FACE_OUTER_BOUND ( 'NONE', #778, .T. ) ;
#613 = ORIENTED_EDGE ( 'NONE', *, *, #298, .T. ) ;
#614 = CARTESIAN_POINT ( 'NONE',  ( -0.6875000000000000000, 0.07499999999999988620, 0.5000000000000000000 ) ) ;
#615 = ORIENTED_EDGE ( 'NONE', *, *, #516, .F. ) ;
#616 = DIRECTION ( 'NONE',  ( -0.000000000000000000, -0.000000000000000000, -1.000000000000000000 ) ) ;
#617 = AXIS2_PLACEMENT_3D ( 'NONE', #625, #35, #372 ) ;
#618 = CONICAL_SURFACE ( 'NONE', #487, 0.07474999999999945577, 1.029744258676649649 ) ;
#619 = DIRECTION ( 'NONE',  ( 1.000000000000000000, 0.000000000000000000, 0.000000000000000000 ) ) ;
#620 = EDGE_LOOP ( 'NONE', ( #506, #675, #110, #259 ) ) ;
#621 = VECTOR ( 'NONE', #562, 39.37007874015748143 ) ;
#622 = FACE_OUTER_BOUND ( 'NONE', #444, .T. ) ;
#623 = CARTESIAN_POINT ( 'NONE',  ( 1.500000000000000444, -0.6749999999999997113, 0.5000000000000000000 ) ) ;
#624 = EDGE_CURVE ( 'NONE', #179, #113, #544, .T. ) ;
#625 = CARTESIAN_POINT ( 'NONE',  ( -2.731847993664263218E-16, 0.6750000000000002665, 0.2500000000000000000 ) ) ;
#626 = LINE ( 'NONE', #765, #19 ) ;
#627 = VERTEX_POINT ( 'NONE', #203 ) ;
#628 = FACE_OUTER_BOUND ( 'NONE', #737, .T. ) ;
#629 = ORIENTED_EDGE ( 'NONE', *, *, #353, .F. ) ;
#630 = VECTOR ( 'NONE', #415, 39.37007874015748143 ) ;
#631 = VECTOR ( 'NONE', #689, 39.37007874015748143 ) ;
#632 = CARTESIAN_POINT ( 'NONE',  ( -0.6875000000000000000, 0.8240000000000002878, 0.5000000000000000000 ) ) ;
#633 = VERTEX_POINT ( 'NONE', #155 ) ;
#634 = EDGE_CURVE ( 'NONE', #98, #283, #534, .T. ) ;
#635 = ORIENTED_EDGE ( 'NONE', *, *, #403, .F. ) ;
#636 = DIRECTION ( 'NONE',  ( 0.000000000000000000, 0.000000000000000000, 1.000000000000000000 ) ) ;
#637 = ORIENTED_EDGE ( 'NONE', *, *, #654, .T. ) ;
#638 =( CONVERSION_BASED_UNIT ( 'INCH', #330 ) LENGTH_UNIT ( ) NAMED_UNIT ( #339 ) );
#639 = ADVANCED_FACE ( 'NONE', ( #755 ), #690, .F. ) ;
#640 = PRODUCT_DEFINITION_SHAPE ( 'NONE', 'NONE',  #39 ) ;
#641 = DIRECTION ( 'NONE',  ( -0.000000000000000000, 1.000000000000000000, -0.000000000000000000 ) ) ;
#642 = EDGE_LOOP ( 'NONE', ( #465, #563, #517, #688, #481, #430, #136, #447 ) ) ;
#643 = PRODUCT_CONTEXT ( 'NONE', #277, 'mechanical' ) ;
#644 = DIRECTION ( 'NONE',  ( 1.000000000000000000, 0.000000000000000000, 0.000000000000000000 ) ) ;
#645 = VECTOR ( 'NONE', #351, 39.37007874015748143 ) ;
#646 = AXIS2_PLACEMENT_3D ( 'NONE', #600, #609, #280 ) ;
#647 = DIRECTION ( 'NONE',  ( -0.000000000000000000, 1.000000000000000000, -0.000000000000000000 ) ) ;
#648 = FACE_OUTER_BOUND ( 'NONE', #97, .T. ) ;
#649 = DIRECTION ( 'NONE',  ( 1.000000000000000000, 0.000000000000000000, 0.000000000000000000 ) ) ;
#650 = EDGE_LOOP ( 'NONE', ( #289, #404, #316, #248 ) ) ;
#651 = CARTESIAN_POINT ( 'NONE',  ( -1.199999999999999956, 0.6750000000000002665, 0.2500000000000003886 ) ) ;
#652 = CARTESIAN_POINT ( 'NONE',  ( -1.499999999999999778, -0.6749999999999997113, 0.5000000000000000000 ) ) ;
#654 = EDGE_CURVE ( 'NONE', #171, #98, #671, .T. ) ;
#653 = CARTESIAN_POINT ( 'NONE',  ( 0.6874999999999994449, -0.4249999999999991007, 0.5000000000000000000 ) ) ;
#655 = DIRECTION ( 'NONE',  ( -0.000000000000000000, -0.000000000000000000, -1.000000000000000000 ) ) ;
#656 = ORIENTED_EDGE ( 'NONE', *, *, #714, .T. ) ;
#657 = DIRECTION ( 'NONE',  ( -0.000000000000000000, 1.000000000000000000, -0.000000000000000000 ) ) ;
#658 = CARTESIAN_POINT ( 'NONE',  ( -2.731847993664263218E-16, -0.07499999999999960865, 0.2500000000000000000 ) ) ;
#659 = ORIENTED_EDGE ( 'NONE', *, *, #201, .T. ) ;
#660 = CARTESIAN_POINT ( 'NONE',  ( 0.8882461083059896012, 0.6750000000000002665, 0.5000000000000000000 ) ) ;
#661 = CIRCLE ( 'NONE', #459, 0.07474999999999948352 ) ;
#662 = VECTOR ( 'NONE', #196, 39.37007874015748143 ) ;
#663 = CARTESIAN_POINT ( 'NONE',  ( -2.640305645427999046E-16, -0.07499999999999960865, 0.1752500000000005442 ) ) ;
#664 = CIRCLE ( 'NONE', #769, 0.2500000000000000555 ) ;
#665 = DIRECTION ( 'NONE',  ( -0.000000000000000000, -0.000000000000000000, -1.000000000000000000 ) ) ;
#666 = EDGE_LOOP ( 'NONE', ( #838, #345, #855, #743 ) ) ;
#667 = ADVANCED_FACE ( 'NONE', ( #342 ), #132, .F. ) ;
#668 = CARTESIAN_POINT ( 'NONE',  ( 0.8224999999999993427, -0.4249999999999991007, 0.000000000000000000 ) ) ;
#669 = DIRECTION ( 'NONE',  ( 0.000000000000000000, 0.000000000000000000, 1.000000000000000000 ) ) ;
#670 =( NAMED_UNIT ( * ) PLANE_ANGLE_UNIT ( ) SI_UNIT ( $, .RADIAN. ) );
#671 = LINE ( 'NONE', #77, #710 ) ;
#672 = ORIENTED_EDGE ( 'NONE', *, *, #714, .F. ) ;
#673 = ADVANCED_FACE ( 'NONE', ( #833 ), #706, .F. ) ;
#674 = CARTESIAN_POINT ( 'NONE',  ( -0.8882461083059893792, 0.6750000000000002665, 0.5000000000000000000 ) ) ;
#675 = ORIENTED_EDGE ( 'NONE', *, *, #180, .F. ) ;
#676 = DIRECTION ( 'NONE',  ( -0.000000000000000000, 1.000000000000000000, -0.000000000000000000 ) ) ;
#677 = EDGE_LOOP ( 'NONE', ( #758, #629 ) ) ;
#678 = CYLINDRICAL_SURFACE ( 'NONE', #378, 0.07474999999999948352 ) ;
#679 = VECTOR ( 'NONE', #61, 39.37007874015748143 ) ;
#680 = AXIS2_PLACEMENT_3D ( 'NONE', #554, #452, #826 ) ;
#681 = CARTESIAN_POINT ( 'NONE',  ( -1.499999999999999778, -0.6749999999999997113, 0.5000000000000000000 ) ) ;
#682 = ORIENTED_EDGE ( 'NONE', *, *, #634, .T. ) ;
#683 = DIRECTION ( 'NONE',  ( -0.000000000000000000, 1.000000000000000000, -0.000000000000000000 ) ) ;
#684 = CARTESIAN_POINT ( 'NONE',  ( 0.8224999999999993427, -0.4249999999999991007, 0.5000000000000000000 ) ) ;
#685 = EDGE_CURVE ( 'NONE', #150, #764, #440, .T. ) ;
#686 = ORIENTED_EDGE ( 'NONE', *, *, #309, .F. ) ;
#687 = DIRECTION ( 'NONE',  ( -0.000000000000000000, 1.000000000000000000, -0.000000000000000000 ) ) ;
#688 = ORIENTED_EDGE ( 'NONE', *, *, #161, .F. ) ;
#689 = DIRECTION ( 'NONE',  ( -0.000000000000000000, 1.000000000000000000, -0.000000000000000000 ) ) ;
#690 = CYLINDRICAL_SURFACE ( 'NONE', #335, 0.2500000000000000555 ) ;
#691 = ORIENTED_EDGE ( 'NONE', *, *, #403, .T. ) ;
#692 = VECTOR ( 'NONE', #294, 39.37007874015748143 ) ;
#693 = AXIS2_PLACEMENT_3D ( 'NONE', #70, #665, #789 ) ;
#694 = DIRECTION ( 'NONE',  ( -0.000000000000000000, -0.000000000000000000, -1.000000000000000000 ) ) ;
#695 = ORIENTED_EDGE ( 'NONE', *, *, #409, .T. ) ;
#696 = AXIS2_PLACEMENT_3D ( 'NONE', #106, #178, #636 ) ;
#697 = EDGE_CURVE ( 'NONE', #62, #433, #170, .T. ) ;
#698 = CARTESIAN_POINT ( 'NONE',  ( -1.499999999999999778, -0.6749999999999997113, 0.5000000000000000000 ) ) ;
#699 = ORIENTED_EDGE ( 'NONE', *, *, #788, .F. ) ;
#700 = CARTESIAN_POINT ( 'NONE',  ( 0.6874999999999994449, -0.4249999999999991007, 0.5000000000000000000 ) ) ;
#701 = ORIENTED_EDGE ( 'NONE', *, *, #785, .T. ) ;
#702 = DIRECTION ( 'NONE',  ( 1.000000000000000000, 0.000000000000000000, -0.000000000000000000 ) ) ;
#703 = PLANE ( 'NONE',  #809 ) ;
#704 = ORIENTED_EDGE ( 'NONE', *, *, #431, .T. ) ;
#705 = ORIENTED_EDGE ( 'NONE', *, *, #238, .T. ) ;
#706 = CYLINDRICAL_SURFACE ( 'NONE', #56, 0.1349999999999999256 ) ;
#707 = ORIENTED_EDGE ( 'NONE', *, *, #599, .T. ) ;
#708 = VECTOR ( 'NONE', #747, 39.37007874015748143 ) ;
#709 = CONICAL_SURFACE ( 'NONE', #780, 0.07474999999999948352, 1.029744258676650537 ) ;
#710 = VECTOR ( 'NONE', #144, 39.37007874015748143 ) ;
#711 = CARTESIAN_POINT ( 'NONE',  ( 0.4867538916940105653, 0.6750000000000002665, 0.5000000000000000000 ) ) ;
#712 = ORIENTED_EDGE ( 'NONE', *, *, #298, .F. ) ;
#713 = FACE_OUTER_BOUND ( 'NONE', #811, .T. ) ;
#714 = EDGE_CURVE ( 'NONE', #113, #62, #664, .T. ) ;
#715 = ORIENTED_EDGE ( 'NONE', *, *, #516, .T. ) ;
#716 = DIRECTION ( 'NONE',  ( -1.000000000000000000, -0.000000000000000000, -0.000000000000000000 ) ) ;
#717 = ORIENTED_EDGE ( 'NONE', *, *, #137, .F. ) ;
#718 = DIRECTION ( 'NONE',  ( -0.000000000000000000, 1.000000000000000000, -0.000000000000000000 ) ) ;
#719 = FACE_OUTER_BOUND ( 'NONE', #642, .T. ) ;
#720 = VERTEX_POINT ( 'NONE', #773 ) ;
#721 = ADVANCED_FACE ( 'NONE', ( #508 ), #391, .F. ) ;
#722 = ORIENTED_EDGE ( 'NONE', *, *, #785, .F. ) ;
#723 = LINE ( 'NONE', #326, #845 ) ;
#724 = VERTEX_POINT ( 'NONE', #381 ) ;
#725 = VECTOR ( 'NONE', #184, 39.37007874015748143 ) ;
#726 = EDGE_CURVE ( 'NONE', #242, #557, #783, .T. ) ;
#727 = AXIS2_PLACEMENT_3D ( 'NONE', #546, #478, #149 ) ;
#728 = VECTOR ( 'NONE', #311, 39.37007874015748143 ) ;
#729 = FACE_OUTER_BOUND ( 'NONE', #650, .T. ) ;
#730 = DIRECTION ( 'NONE',  ( -0.000000000000000000, 1.000000000000000000, -0.000000000000000000 ) ) ;
#731 = EDGE_LOOP ( 'NONE', ( #253, #607, #512 ) ) ;
#732 = CARTESIAN_POINT ( 'NONE',  ( -0.6875000000000000000, 0.8240000000000002878, 0.000000000000000000 ) ) ;
#733 = DIRECTION ( 'NONE',  ( -0.000000000000000000, -0.000000000000000000, -1.000000000000000000 ) ) ;
#734 = LINE ( 'NONE', #50, #844 ) ;
#735 = DIRECTION ( 'NONE',  ( 0.000000000000000000, 1.000000000000000000, 0.000000000000000000 ) ) ;
#736 = ORIENTED_EDGE ( 'NONE', *, *, #201, .F. ) ;
#737 = EDGE_LOOP ( 'NONE', ( #853, #233, #185, #287 ) ) ;
#738 = EDGE_CURVE ( 'NONE', #520, #283, #556, .T. ) ;
#739 = ORIENTED_EDGE ( 'NONE', *, *, #749, .F. ) ;
#740 = DIRECTION ( 'NONE',  ( -0.000000000000000000, -0.000000000000000000, -1.000000000000000000 ) ) ;
#741 = AXIS2_PLACEMENT_3D ( 'NONE', #791, #830, #361 ) ;
#742 = EDGE_CURVE ( 'NONE', #633, #235, #324, .T. ) ;
#743 = ORIENTED_EDGE ( 'NONE', *, *, #180, .T. ) ;
#744 = DIRECTION ( 'NONE',  ( 0.000000000000000000, 0.000000000000000000, 1.000000000000000000 ) ) ;
#745 = DIRECTION ( 'NONE',  ( -1.000000000000000000, 0.000000000000000000, 0.000000000000000000 ) ) ;
#746 = DIRECTION ( 'NONE',  ( 0.000000000000000000, 0.000000000000000000, 1.000000000000000000 ) ) ;
#747 = DIRECTION ( 'NONE',  ( 1.000000000000000000, 0.000000000000000000, 0.000000000000000000 ) ) ;
#748 = LINE ( 'NONE', #684, #17 ) ;
#749 = EDGE_CURVE ( 'NONE', #392, #304, #846, .T. ) ;
#750 = DIRECTION ( 'NONE',  ( -1.000000000000000000, 0.000000000000000000, 0.000000000000000000 ) ) ;
#751 = ADVANCED_FACE ( 'NONE', ( #628 ), #703, .F. ) ;
#752 = DIRECTION ( 'NONE',  ( 0.000000000000000000, -0.000000000000000000, -1.000000000000000000 ) ) ;
#753 = VECTOR ( 'NONE', #647, 39.37007874015748143 ) ;
#754 = VECTOR ( 'NONE', #362, 39.37007874015748143 ) ;
#755 = FACE_OUTER_BOUND ( 'NONE', #89, .T. ) ;
#756 = DIRECTION ( 'NONE',  ( 0.000000000000000000, 0.000000000000000000, 1.000000000000000000 ) ) ;
#757 =( CONVERSION_BASED_UNIT ( 'INCH', #18 ) LENGTH_UNIT ( ) NAMED_UNIT ( #483 ) );
#758 = ORIENTED_EDGE ( 'NONE', *, *, #599, .F. ) ;
#759 = DIRECTION ( 'NONE',  ( -0.000000000000000000, -0.000000000000000000, -1.000000000000000000 ) ) ;
#760 = LINE ( 'NONE', #532, #692 ) ;
#761 = PLANE ( 'NONE',  #119 ) ;
#762 = EDGE_LOOP ( 'NONE', ( #479, #187, #412, #635 ) ) ;
#763 = EDGE_CURVE ( 'NONE', #627, #611, #96, .T. ) ;
#764 = VERTEX_POINT ( 'NONE', #296 ) ;
#765 = CARTESIAN_POINT ( 'NONE',  ( 0.5524999999999995470, -0.4249999999999991007, 0.5000000000000000000 ) ) ;
#766 = VECTOR ( 'NONE', #193, 39.37007874015748143 ) ;
#767 = ORIENTED_EDGE ( 'NONE', *, *, #763, .F. ) ;
#768 = EDGE_CURVE ( 'NONE', #91, #557, #626, .T. ) ;
#769 = AXIS2_PLACEMENT_3D ( 'NONE', #632, #44, #777 ) ;
#770 = PLANE ( 'NONE',  #272 ) ;
#771 = LINE ( 'NONE', #292, #72 ) ;
#772 = ORIENTED_EDGE ( 'NONE', *, *, #323, .F. ) ;
#773 = CARTESIAN_POINT ( 'NONE',  ( -1.199999999999999956, 0.6750000000000002665, 0.1752500000000008495 ) ) ;
#774 = ORIENTED_EDGE ( 'NONE', *, *, #473, .T. ) ;
#775 = ORIENTED_EDGE ( 'NONE', *, *, #90, .T. ) ;
#776 = DIRECTION ( 'NONE',  ( -1.000000000000000000, 0.000000000000000000, 0.000000000000000000 ) ) ;
#777 = DIRECTION ( 'NONE',  ( 1.000000000000000000, 0.000000000000000000, 0.000000000000000000 ) ) ;
#778 = EDGE_LOOP ( 'NONE', ( #682, #555, #41, #497 ) ) ;
#779 = EDGE_CURVE ( 'NONE', #31, #163, #241, .T. ) ;
#780 = AXIS2_PLACEMENT_3D ( 'NONE', #256, #523, #7 ) ;
#781 = AXIS2_PLACEMENT_3D ( 'NONE', #269, #594, #644 ) ;
#782 = DIRECTION ( 'NONE',  ( 1.000000000000000000, 0.000000000000000000, 0.000000000000000000 ) ) ;
#783 = CIRCLE ( 'NONE', #164, 0.1349999999999999256 ) ;
#784 = PLANE ( 'NONE',  #680 ) ;
#785 = EDGE_CURVE ( 'NONE', #451, #799, #108, .T. ) ;
#786 = DIRECTION ( 'NONE',  ( -0.000000000000000000, 1.000000000000000000, -0.000000000000000000 ) ) ;
#787 = CARTESIAN_POINT ( 'NONE',  ( -2.731847993664263218E-16, -0.07499999999999960865, 0.2500000000000000000 ) ) ;
#788 = EDGE_CURVE ( 'NONE', #105, #31, #37, .T. ) ;
#789 = DIRECTION ( 'NONE',  ( -1.000000000000000000, 0.000000000000000000, 0.000000000000000000 ) ) ;
#790 = VERTEX_POINT ( 'NONE', #29 ) ;
#791 = CARTESIAN_POINT ( 'NONE',  ( 1.200000000000000400, -0.07499999999999960865, 0.2500000000000003886 ) ) ;
#792 = ORIENTED_EDGE ( 'NONE', *, *, #103, .T. ) ;
#793 = CARTESIAN_POINT ( 'NONE',  ( 1.200000000000000400, 0.6750000000000002665, 0.3247499999999998721 ) ) ;
#794 = AXIS2_PLACEMENT_3D ( 'NONE', #787, #59, #525 ) ;
#795 = AXIS2_PLACEMENT_3D ( 'NONE', #610, #813, #213 ) ;
#796 = CARTESIAN_POINT ( 'NONE',  ( -1.199999999999999956, -0.07499999999999960865, 0.2500000000000003886 ) ) ;
#797 = ORIENTED_EDGE ( 'NONE', *, *, #137, .T. ) ;
#798 = LINE ( 'NONE', #411, #390 ) ;
#799 = VERTEX_POINT ( 'NONE', #835 ) ;
#800 = ORIENTED_EDGE ( 'NONE', *, *, #370, .F. ) ;
#801 = EDGE_CURVE ( 'NONE', #633, #204, #771, .T. ) ;
#802 = EDGE_LOOP ( 'NONE', ( #775, #379 ) ) ;
#803 = DIRECTION ( 'NONE',  ( -0.000000000000000000, -0.000000000000000000, -1.000000000000000000 ) ) ;
#804 = ORIENTED_EDGE ( 'NONE', *, *, #94, .T. ) ;
#805 = PLANE ( 'NONE',  #28 ) ;
#806 = CIRCLE ( 'NONE', #83, 0.07474999999999948352 ) ;
#807 = VECTOR ( 'NONE', #246, 39.37007874015748143 ) ;
#808 = CARTESIAN_POINT ( 'NONE',  ( -1.199999999999999956, 0.6750000000000002665, 0.2500000000000003886 ) ) ;
#809 = AXIS2_PLACEMENT_3D ( 'NONE', #698, #502, #40 ) ;
#810 = DIRECTION ( 'NONE',  ( 0.000000000000000000, 0.000000000000000000, 1.000000000000000000 ) ) ;
#811 = EDGE_LOOP ( 'NONE', ( #595, #100, #363, #843 ) ) ;
#812 = LINE ( 'NONE', #477, #202 ) ;
#813 = DIRECTION ( 'NONE',  ( 0.000000000000000000, 0.000000000000000000, 1.000000000000000000 ) ) ;
#814 = ORIENTED_EDGE ( 'NONE', *, *, #850, .T. ) ;
#815 = ADVANCED_FACE ( 'NONE', ( #104, #374 ), #784, .F. ) ;
#816 = CARTESIAN_POINT ( 'NONE',  ( 1.500000000000000444, 0.6750000000000002665, 0.000000000000000000 ) ) ;
#817 = DIRECTION ( 'NONE',  ( -0.000000000000000000, -0.000000000000000000, -1.000000000000000000 ) ) ;
#818 = EDGE_LOOP ( 'NONE', ( #45, #722, #263, #797 ) ) ;
#819 = AXIS2_PLACEMENT_3D ( 'NONE', #74, #120, #245 ) ;
#820 = SURFACE_STYLE_USAGE ( .BOTH. , #208 ) ;
#821 = MECHANICAL_DESIGN_GEOMETRIC_PRESENTATION_REPRESENTATION (  '', ( #498 ), #275 ) ;
#822 = CIRCLE ( 'NONE', #1, 0.2500000000000000555 ) ;
#823 = PLANE ( 'NONE',  #568 ) ;
#824 = CYLINDRICAL_SURFACE ( 'NONE', #16, 0.2500000000000002220 ) ;
#825 = ADVANCED_FACE ( 'NONE', ( #719, #854, #250, #225 ), #761, .F. ) ;
#826 = DIRECTION ( 'NONE',  ( 0.000000000000000000, -0.000000000000000000, -1.000000000000000000 ) ) ;
#827 = CARTESIAN_POINT ( 'NONE',  ( 0.8882461083059896012, 0.6750000000000002665, 0.5000000000000000000 ) ) ;
#828 = EDGE_LOOP ( 'NONE', ( #383, #772, #494, #659 ) ) ;
#829 = CYLINDRICAL_SURFACE ( 'NONE', #574, 0.1349999999999999256 ) ;
#830 = DIRECTION ( 'NONE',  ( -0.000000000000000000, 1.000000000000000000, -0.000000000000000000 ) ) ;
#831 = EDGE_CURVE ( 'NONE', #799, #356, #112, .T. ) ;
#832 = APPLICATION_CONTEXT ( 'automotive_design' ) ;
#833 = FACE_OUTER_BOUND ( 'NONE', #522, .T. ) ;
#834 = CARTESIAN_POINT ( 'NONE',  ( -2.731847993664263218E-16, 0.6750000000000002665, 0.2500000000000000000 ) ) ;
#835 = CARTESIAN_POINT ( 'NONE',  ( 1.200000000000000400, -0.07499999999999960865, 0.1752500000000008495 ) ) ;
#836 = AXIS2_PLACEMENT_3D ( 'NONE', #396, #735, #406 ) ;
#837 = AXIS2_PLACEMENT_3D ( 'NONE', #139, #484, #752 ) ;
#838 = ORIENTED_EDGE ( 'NONE', *, *, #167, .T. ) ;
#839 = VERTEX_POINT ( 'NONE', #122 ) ;
#840 = EDGE_CURVE ( 'NONE', #441, #433, #822, .T. ) ;
#841 = CARTESIAN_POINT ( 'NONE',  ( -0.8882461083059893792, 0.6750000000000002665, 0.5000000000000000000 ) ) ;
#842 = VERTEX_POINT ( 'NONE', #856 ) ;
#843 = ORIENTED_EDGE ( 'NONE', *, *, #726, .F. ) ;
#844 = VECTOR ( 'NONE', #716, 39.37007874015748143 ) ;
#845 = VECTOR ( 'NONE', #733, 39.37007874015748143 ) ;
#846 = LINE ( 'NONE', #371, #631 ) ;
#847 = CARTESIAN_POINT ( 'NONE',  ( -2.731847993664263218E-16, -0.07499999999999960865, 0.2500000000000000000 ) ) ;
#848 = PLANE ( 'NONE',  #836 ) ;
#850 = EDGE_CURVE ( 'NONE', #113, #441, #579, .T. ) ;
#849 = CARTESIAN_POINT ( 'NONE',  ( 1.200000000000000400, 0.6750000000000002665, 0.2500000000000003886 ) ) ;
#851 = EDGE_LOOP ( 'NONE', ( #637, #474, #767, #695 ) ) ;
#852 = CYLINDRICAL_SURFACE ( 'NONE', #461, 0.07474999999999948352 ) ;
#853 = ORIENTED_EDGE ( 'NONE', *, *, #161, .T. ) ;
#854 = FACE_BOUND ( 'NONE', #154, .T. ) ;
#855 = ORIENTED_EDGE ( 'NONE', *, *, #624, .F. ) ;
#856 = CARTESIAN_POINT ( 'NONE',  ( -1.199999999999999956, 0.6750000000000002665, 0.3247499999999998721 ) ) ;
#857 = CARTESIAN_POINT ( 'NONE',  ( 1.200000000000000400, 0.6750000000000002665, 0.2500000000000003886 ) ) ;
#858 = FACE_OUTER_BOUND ( 'NONE', #731, .T. ) ;
#859 = CARTESIAN_POINT ( 'NONE',  ( 1.200000000000000400, -0.07499999999999960865, 0.2500000000000003886 ) ) ;
#860 = ORIENTED_EDGE ( 'NONE', *, *, #476, .F. ) ;
#861 = CYLINDRICAL_SURFACE ( 'NONE', #71, 0.07474999999999952516 ) ;
#862 = AXIS2_PLACEMENT_3D ( 'NONE', #651, #657, #182 ) ;
#863 = VECTOR ( 'NONE', #352, 39.37007874015748143 ) ;
ENDSEC;
END-ISO-10303-21;
