ISO-10303-21;
HEADER;
FILE_DESCRIPTION (( 'STEP AP214' ),
    '1' );
FILE_NAME ('Lower retainer.STEP',
    '2026-02-20T19:34:29',
    ( '' ),
    ( '' ),
    'SwSTEP 2.0',
    'SolidWorks 2025',
    '' );
FILE_SCHEMA (( 'AUTOMOTIVE_DESIGN' ));
ENDSEC;

DATA;
#1 = PLANE ( 'NONE',  #640 ) ;
#2 = ORIENTED_EDGE ( 'NONE', *, *, #480, .T. ) ;
#3 = DIRECTION ( 'NONE',  ( -0.000000000000000000, 1.000000000000000000, 1.365923996832131609E-16 ) ) ;
#4 = EDGE_CURVE ( 'NONE', #279, #694, #673, .T. ) ;
#5 = FACE_OUTER_BOUND ( 'NONE', #150, .T. ) ;
#6 = FACE_OUTER_BOUND ( 'NONE', #138, .T. ) ;
#7 = ORIENTED_EDGE ( 'NONE', *, *, #800, .F. ) ;
#8 = DIRECTION ( 'NONE',  ( 0.000000000000000000, 0.000000000000000000, 1.000000000000000000 ) ) ;
#9 = PLANE ( 'NONE',  #451 ) ;
#10 = LENGTH_MEASURE_WITH_UNIT ( LENGTH_MEASURE( 0.02539999999999999897 ), #778 );
#11 = ORIENTED_EDGE ( 'NONE', *, *, #381, .F. ) ;
#12 = VECTOR ( 'NONE', #17, 39.37007874015748854 ) ;
#13 = DIMENSIONAL_EXPONENTS ( 1.000000000000000000, 0.000000000000000000, 0.000000000000000000, 0.000000000000000000, 0.000000000000000000, 0.000000000000000000, 0.000000000000000000 ) ;
#14 = FACE_OUTER_BOUND ( 'NONE', #753, .T. ) ;
#15 = CARTESIAN_POINT ( 'NONE',  ( 4.719999999999999751, 0.7499999999999998890, 1.000000000000000000 ) ) ;
#16 = DIRECTION ( 'NONE',  ( 1.000000000000000000, 0.000000000000000000, 0.000000000000000000 ) ) ;
#17 = DIRECTION ( 'NONE',  ( -0.000000000000000000, 0.4897172662270175003, -0.8718812987781859869 ) ) ;
#18 = EDGE_CURVE ( 'NONE', #706, #454, #268, .T. ) ;
#19 = CARTESIAN_POINT ( 'NONE',  ( 4.321749999999999758, 0.7500000000000001110, 0.5000000000000000000 ) ) ;
#20 = ORIENTED_EDGE ( 'NONE', *, *, #770, .F. ) ;
#21 = CARTESIAN_POINT ( 'NONE',  ( 4.719999999999999751, 0.000000000000000000, 0.000000000000000000 ) ) ;
#22 = CARTESIAN_POINT ( 'NONE',  ( 0.8862342670700011915, 0.7500000000000002220, 0.3670224380869659409 ) ) ;
#23 = CYLINDRICAL_SURFACE ( 'NONE', #108, 0.1329999999999999238 ) ;
#24 = ORIENTED_EDGE ( 'NONE', *, *, #657, .T. ) ;
#25 = VECTOR ( 'NONE', #774, 39.37007874015748143 ) ;
#26 = CIRCLE ( 'NONE', #377, 0.1284999999999996978 ) ;
#27 = ADVANCED_FACE ( 'NONE', ( #344, #441, #216 ), #9, .F. ) ;
#28 = LINE ( 'NONE', #791, #558 ) ;
#29 = CARTESIAN_POINT ( 'NONE',  ( 3.513553390593274095, 0.4632637202445592517, 0.000000000000000000 ) ) ;
#30 = VERTEX_POINT ( 'NONE', #777 ) ;
#31 = EDGE_CURVE ( 'NONE', #462, #694, #287, .T. ) ;
#32 = CARTESIAN_POINT ( 'NONE',  ( 1.233765732929999137, 0.7500000000000002220, 0.3670224380869659409 ) ) ;
#33 = CARTESIAN_POINT ( 'NONE',  ( 4.719999999999999751, 0.7500000000000001110, 0.3670224380869658853 ) ) ;
#34 = CARTESIAN_POINT ( 'NONE',  ( 0.000000000000000000, 0.000000000000000000, 0.7921788335660883140 ) ) ;
#35 = CARTESIAN_POINT ( 'NONE',  ( 1.310000000000000275, 0.7500000000000001110, -2.212896545247408677E-16 ) ) ;
#36 = CARTESIAN_POINT ( 'NONE',  ( 0.000000000000000000, 0.3699999999999999400, 1.000000000000000000 ) ) ;
#37 = ORIENTED_EDGE ( 'NONE', *, *, #764, .F. ) ;
#38 = AXIS2_PLACEMENT_3D ( 'NONE', #209, #196, #8 ) ;
#39 = VECTOR ( 'NONE', #537, 39.37007874015748143 ) ;
#40 = DIRECTION ( 'NONE',  ( 0.000000000000000000, 0.8718812987781862089, 0.4897172662270170562 ) ) ;
#41 = ORIENTED_EDGE ( 'NONE', *, *, #89, .T. ) ;
#42 = EDGE_CURVE ( 'NONE', #799, #163, #473, .T. ) ;
#43 = DIRECTION ( 'NONE',  ( 0.000000000000000000, 0.8718812987781860979, 0.4897172662270174448 ) ) ;
#44 = VERTEX_POINT ( 'NONE', #358 ) ;
#45 = VERTEX_POINT ( 'NONE', #628 ) ;
#46 = FACE_BOUND ( 'NONE', #872, .T. ) ;
#47 =( BOUNDED_CURVE ( )  B_SPLINE_CURVE ( 3, ( #755, #332, #877, #123 ),
 .UNSPECIFIED., .F., .F. ) 
 B_SPLINE_CURVE_WITH_KNOTS ( ( 4, 4 ),
 ( 0.7685074300496738120, 1.570796326794900333 ),
 .UNSPECIFIED. ) 
 CURVE ( )  GEOMETRIC_REPRESENTATION_ITEM ( )  RATIONAL_B_SPLINE_CURVE ( ( 1.000000000000000000, 0.9470764811511573900, 0.9470764811511573900, 1.000000000000000000 ) ) 
 REPRESENTATION_ITEM ( '' )  );
#48 = ORIENTED_EDGE ( 'NONE', *, *, #874, .F. ) ;
#49 = CARTESIAN_POINT ( 'NONE',  ( 0.000000000000000000, 0.7500000000000001110, 0.000000000000000000 ) ) ;
#50 = DIRECTION ( 'NONE',  ( -0.000000000000000000, -0.4897172662270175003, 0.8718812987781859869 ) ) ;
#51 = CIRCLE ( 'NONE', #767, 0.2187499999999999445 ) ;
#52 = CARTESIAN_POINT ( 'NONE',  ( 0.3982500000000000484, 0.7500000000000001110, 0.5000000000000000000 ) ) ;
#53 = CARTESIAN_POINT ( 'NONE',  ( 0.8862342670700011915, 0.7500000000000002220, 0.3670224380869659409 ) ) ;
#54 = LINE ( 'NONE', #59, #727 ) ;
#55 = ADVANCED_FACE ( 'NONE', ( #6 ), #151, .F. ) ;
#56 = ORIENTED_EDGE ( 'NONE', *, *, #172, .F. ) ;
#57 = CARTESIAN_POINT ( 'NONE',  ( 0.3982500000000000484, -1.184256105253458495E-16, 0.3670000000000000484 ) ) ;
#58 = DIRECTION ( 'NONE',  ( 0.000000000000000000, -1.365923996832131609E-16, 1.000000000000000000 ) ) ;
#59 = CARTESIAN_POINT ( 'NONE',  ( 4.719999999999999751, 0.7500000000000001110, 0.000000000000000000 ) ) ;
#60 = ORIENTED_EDGE ( 'NONE', *, *, #460, .T. ) ;
#61 = DIRECTION ( 'NONE',  ( 1.000000000000000000, -0.000000000000000000, 0.000000000000000000 ) ) ;
#62 = CARTESIAN_POINT ( 'NONE',  ( 4.719999999999999751, 0.3699999999999999400, 1.000000000000000000 ) ) ;
#63 = CARTESIAN_POINT ( 'NONE',  ( 0.5312500000000001110, 0.5000000000000001110, 0.5000000000000000000 ) ) ;
#64 = LINE ( 'NONE', #607, #570 ) ;
#65 = AXIS2_PLACEMENT_3D ( 'NONE', #629, #704, #84 ) ;
#66 = CARTESIAN_POINT ( 'NONE',  ( 1.060000000000000275, 0.3439286804613544968, 0.9853562917919123088 ) ) ;
#67 = AXIS2_PLACEMENT_3D ( 'NONE', #327, #539, #720 ) ;
#68 = EDGE_CURVE ( 'NONE', #30, #861, #886, .T. ) ;
#69 = FACE_OUTER_BOUND ( 'NONE', #765, .T. ) ;
#70 = CARTESIAN_POINT ( 'NONE',  ( 0.000000000000000000, 0.000000000000000000, 0.000000000000000000 ) ) ;
#71 = ORIENTED_EDGE ( 'NONE', *, *, #573, .F. ) ;
#72 = DIRECTION ( 'NONE',  ( 0.000000000000000000, 0.000000000000000000, 1.000000000000000000 ) ) ;
#73 = PRODUCT_DEFINITION_SHAPE ( 'NONE', 'NONE',  #257 ) ;
#74 = SURFACE_STYLE_USAGE ( .BOTH. , #769 ) ;
#75 = ORIENTED_EDGE ( 'NONE', *, *, #297, .F. ) ;
#76 = EDGE_CURVE ( 'NONE', #168, #44, #798, .T. ) ;
#77 = DIRECTION ( 'NONE',  ( -0.000000000000000000, 1.000000000000000000, 1.365923996832131609E-16 ) ) ;
#78 = ORIENTED_EDGE ( 'NONE', *, *, #144, .F. ) ;
#79 = ADVANCED_FACE ( 'NONE', ( #786 ), #632, .F. ) ;
#80 = CARTESIAN_POINT ( 'NONE',  ( 0.3982500000000000484, 0.5000000000000001110, 0.2812500000000000555 ) ) ;
#81 = ORIENTED_EDGE ( 'NONE', *, *, #4, .T. ) ;
#82 = ORIENTED_EDGE ( 'NONE', *, *, #831, .T. ) ;
#83 = AXIS2_PLACEMENT_3D ( 'NONE', #532, #467, #814 ) ;
#84 = DIRECTION ( 'NONE',  ( 0.000000000000000000, -0.8718812987781858759, -0.4897172662270174448 ) ) ;
#85 = CARTESIAN_POINT ( 'NONE',  ( 1.060000000000000275, 0.5932904748073550838, 0.2790020156090200487 ) ) ;
#86 = DIRECTION ( 'NONE',  ( -0.000000000000000000, -0.4897172662270175003, 0.8718812987781859869 ) ) ;
#87 = FILL_AREA_STYLE_COLOUR ( '', #625 ) ;
#88 = ORIENTED_EDGE ( 'NONE', *, *, #103, .T. ) ;
#89 = EDGE_CURVE ( 'NONE', #531, #306, #478, .T. ) ;
#90 = ORIENTED_EDGE ( 'NONE', *, *, #455, .F. ) ;
#91 = CYLINDRICAL_SURFACE ( 'NONE', #568, 0.1284999999999997533 ) ;
#92 = CARTESIAN_POINT ( 'NONE',  ( 4.719999999999999751, 0.7500000000000001110, 0.000000000000000000 ) ) ;
#93 = VECTOR ( 'NONE', #130, 39.37007874015748143 ) ;
#94 = EDGE_CURVE ( 'NONE', #44, #665, #371, .T. ) ;
#95 = CIRCLE ( 'NONE', #210, 0.1329999999999997851 ) ;
#96 = DIRECTION ( 'NONE',  ( -0.000000000000000000, 1.000000000000000000, 1.365923996832131609E-16 ) ) ;
#97 = ORIENTED_EDGE ( 'NONE', *, *, #190, .F. ) ;
#98 = ORIENTED_EDGE ( 'NONE', *, *, #455, .T. ) ;
#99 = CYLINDRICAL_SURFACE ( 'NONE', #317, 0.1284999999999997811 ) ;
#100 = ORIENTED_EDGE ( 'NONE', *, *, #227, .T. ) ;
#101 = CARTESIAN_POINT ( 'NONE',  ( 3.909999999999999698, 0.7500000000000001110, -2.212896545247408677E-16 ) ) ;
#102 = EDGE_LOOP ( 'NONE', ( #619, #806 ) ) ;
#103 = EDGE_CURVE ( 'NONE', #45, #183, #581, .T. ) ;
#104 = EDGE_CURVE ( 'NONE', #109, #799, #519, .T. ) ;
#105 = CARTESIAN_POINT ( 'NONE',  ( 3.659999999999999698, 0.3753201501128087259, 0.1565726990522657569 ) ) ;
#106 = AXIS2_PLACEMENT_3D ( 'NONE', #385, #315, #807 ) ;
#107 = VECTOR ( 'NONE', #576, 39.37007874015748143 ) ;
#108 = AXIS2_PLACEMENT_3D ( 'NONE', #833, #439, #705 ) ;
#109 = VERTEX_POINT ( 'NONE', #801 ) ;
#110 = DIRECTION ( 'NONE',  ( 0.000000000000000000, 0.8718812987781858759, 0.4897172662270174448 ) ) ;
#111 = ORIENTED_EDGE ( 'NONE', *, *, #819, .F. ) ;
#112 = FACE_OUTER_BOUND ( 'NONE', #710, .T. ) ;
#113 = ORIENTED_EDGE ( 'NONE', *, *, #31, .T. ) ;
#114 = EDGE_CURVE ( 'NONE', #677, #869, #178, .T. ) ;
#115 = DIRECTION ( 'NONE',  ( 0.000000000000000000, -0.8718812987781862089, -0.4897172662270174448 ) ) ;
#116 = ORIENTED_EDGE ( 'NONE', *, *, #550, .T. ) ;
#117 = CARTESIAN_POINT ( 'NONE',  ( 0.3982500000000000484, 0.5000000000000001110, 0.7187500000000000000 ) ) ;
#118 = ADVANCED_FACE ( 'NONE', ( #251 ), #207, .F. ) ;
#119 = AXIS2_PLACEMENT_3D ( 'NONE', #296, #161, #697 ) ;
#120 = VECTOR ( 'NONE', #149, 39.37007874015748143 ) ;
#121 = DIRECTION ( 'NONE',  ( -1.000000000000000000, -0.000000000000000000, -0.000000000000000000 ) ) ;
#122 = CARTESIAN_POINT ( 'NONE',  ( 3.659999999999999698, 0.5932904748073550838, 0.2790020156090200487 ) ) ;
#123 = CARTESIAN_POINT ( 'NONE',  ( 3.410000000000000142, 0.7500000000000001110, -2.212896545247408677E-16 ) ) ;
#124 = UNCERTAINTY_MEASURE_WITH_UNIT (LENGTH_MEASURE( 1.000000000000000082E-05 ), #615, 'distance_accuracy_value', 'NONE');
#125 = EDGE_LOOP ( 'NONE', ( #299, #100, #82, #7 ) ) ;
#126 = CARTESIAN_POINT ( 'NONE',  ( 1.233765732929999137, 0.7500000000000002220, 0.3670224380869659409 ) ) ;
#127 = APPLICATION_CONTEXT ( 'automotive_design' ) ;
#128 = DIRECTION ( 'NONE',  ( -0.000000000000000000, 1.000000000000000000, 1.365923996832131609E-16 ) ) ;
#129 = CARTESIAN_POINT ( 'NONE',  ( 3.410000000000000142, 0.7500000000000001110, -2.212896545247408677E-16 ) ) ;
#130 = DIRECTION ( 'NONE',  ( 0.000000000000000000, -0.8718812987781859869, -0.4897172662270175558 ) ) ;
#131 =( BOUNDED_CURVE ( )  B_SPLINE_CURVE ( 3, ( #164, #714, #29, #717 ),
 .UNSPECIFIED., .F., .T. ) 
 B_SPLINE_CURVE_WITH_KNOTS ( ( 4, 4 ),
 ( 4.712388980384693227, 6.283185307179586232 ),
 .UNSPECIFIED. ) 
 CURVE ( )  GEOMETRIC_REPRESENTATION_ITEM ( )  RATIONAL_B_SPLINE_CURVE ( ( 1.000000000000000000, 0.8047378541243658256, 0.8047378541243658256, 1.000000000000000000 ) ) 
 REPRESENTATION_ITEM ( '' )  );
#132 = PRODUCT_CONTEXT ( 'NONE', #590, 'mechanical' ) ;
#133 = EDGE_LOOP ( 'NONE', ( #457, #308 ) ) ;
#134 = DIRECTION ( 'NONE',  ( -0.000000000000000000, 1.000000000000000000, 1.365923996832131609E-16 ) ) ;
#135 = EDGE_LOOP ( 'NONE', ( #269, #637, #483, #418 ) ) ;
#136 = CARTESIAN_POINT ( 'NONE',  ( 4.719999999999999751, 0.7499999999999998890, 1.000000000000000000 ) ) ;
#137 = CARTESIAN_POINT ( 'NONE',  ( 0.3982500000000000484, 0.5000000000000001110, 0.5000000000000000000 ) ) ;
#138 = EDGE_LOOP ( 'NONE', ( #195, #245, #382, #584, #749, #486, #319, #514, #116, #534 ) ) ;
#139 = CARTESIAN_POINT ( 'NONE',  ( 4.719999999999999751, 0.3699999999999999400, 1.000000000000000000 ) ) ;
#140 = ADVANCED_FACE ( 'NONE', ( #598 ), #259, .F. ) ;
#141 = PRESENTATION_STYLE_ASSIGNMENT (( #74 ) ) ;
#142 = ORIENTED_EDGE ( 'NONE', *, *, #841, .T. ) ;
#143 = PRODUCT ( 'Lower retainer', 'Lower retainer', '', ( #132 ) ) ;
#144 = EDGE_CURVE ( 'NONE', #694, #183, #731, .T. ) ;
#145 = DIRECTION ( 'NONE',  ( -0.000000000000000000, 1.000000000000000000, 1.365923996832131609E-16 ) ) ;
#146 = CARTESIAN_POINT ( 'NONE',  ( 0.3982500000000000484, 0.7500000000000001110, 0.5000000000000000000 ) ) ;
#147 = DIMENSIONAL_EXPONENTS ( 1.000000000000000000, 0.000000000000000000, 0.000000000000000000, 0.000000000000000000, 0.000000000000000000, 0.000000000000000000, 0.000000000000000000 ) ;
#148 = CARTESIAN_POINT ( 'NONE',  ( 1.060000000000000275, 0.6379632531070040802, -0.06292866871017117891 ) ) ;
#149 = DIRECTION ( 'NONE',  ( -0.000000000000000000, 1.000000000000000000, 1.365923996832131609E-16 ) ) ;
#150 = EDGE_LOOP ( 'NONE', ( #546, #322, #236, #878 ) ) ;
#151 = PLANE ( 'NONE',  #484 ) ;
#152 = CYLINDRICAL_SURFACE ( 'NONE', #824, 0.2187499999999999445 ) ;
#153 = VECTOR ( 'NONE', #578, 39.37007874015748854 ) ;
#154 = FACE_BOUND ( 'NONE', #230, .T. ) ;
#155 = VERTEX_POINT ( 'NONE', #273 ) ;
#156 = AXIS2_PLACEMENT_3D ( 'NONE', #122, #661, #739 ) ;
#157 = CIRCLE ( 'NONE', #846, 0.2187499999999999445 ) ;
#158 = DIRECTION ( 'NONE',  ( 1.000000000000000000, 0.000000000000000000, -0.000000000000000000 ) ) ;
#159 = ORIENTED_EDGE ( 'NONE', *, *, #103, .F. ) ;
#160 = ORIENTED_EDGE ( 'NONE', *, *, #94, .F. ) ;
#161 = DIRECTION ( 'NONE',  ( -0.000000000000000000, 1.000000000000000000, 1.365923996832131609E-16 ) ) ;
#162 = ADVANCED_FACE ( 'NONE', ( #883 ), #604, .T. ) ;
#163 = VERTEX_POINT ( 'NONE', #737 ) ;
#164 = CARTESIAN_POINT ( 'NONE',  ( 3.410000000000000142, 0.7500000000000001110, -2.212896545247408677E-16 ) ) ;
#165 = LINE ( 'NONE', #92, #403 ) ;
#166 = DIRECTION ( 'NONE',  ( -1.000000000000000000, -0.000000000000000000, -0.000000000000000000 ) ) ;
#167 = DIRECTION ( 'NONE',  ( 0.000000000000000000, 0.000000000000000000, 1.000000000000000000 ) ) ;
#168 = VERTEX_POINT ( 'NONE', #416 ) ;
#169 = VECTOR ( 'NONE', #166, 39.37007874015748143 ) ;
#170 = AXIS2_PLACEMENT_3D ( 'NONE', #520, #179, #724 ) ;
#171 =( NAMED_UNIT ( * ) SI_UNIT ( $, .STERADIAN. ) SOLID_ANGLE_UNIT ( ) );
#172 = EDGE_CURVE ( 'NONE', #293, #832, #681, .T. ) ;
#173 = DIRECTION ( 'NONE',  ( 0.000000000000000000, 0.000000000000000000, 1.000000000000000000 ) ) ;
#174 = ORIENTED_EDGE ( 'NONE', *, *, #144, .T. ) ;
#175 = CARTESIAN_POINT ( 'NONE',  ( 4.719999999999999751, 0.000000000000000000, 0.000000000000000000 ) ) ;
#176 = ORIENTED_EDGE ( 'NONE', *, *, #599, .T. ) ;
#177 = EDGE_CURVE ( 'NONE', #840, #109, #594, .T. ) ;
#178 = LINE ( 'NONE', #723, #500 ) ;
#179 = DIRECTION ( 'NONE',  ( -0.000000000000000000, -0.4897172662270175003, 0.8718812987781859869 ) ) ;
#180 = LINE ( 'NONE', #33, #107 ) ;
#181 = ORIENTED_EDGE ( 'NONE', *, *, #507, .F. ) ;
#182 = CARTESIAN_POINT ( 'NONE',  ( 1.310000000000000719, 0.7500000000000001110, 0.1403163870759580600 ) ) ;
#183 = VERTEX_POINT ( 'NONE', #34 ) ;
#184 = EDGE_LOOP ( 'NONE', ( #875, #260, #389, #644 ) ) ;
#185 = CIRCLE ( 'NONE', #641, 0.2187499999999999445 ) ;
#186 = EDGE_CURVE ( 'NONE', #279, #45, #450, .T. ) ;
#187 = FACE_OUTER_BOUND ( 'NONE', #771, .T. ) ;
#188 = VERTEX_POINT ( 'NONE', #15 ) ;
#189 = CARTESIAN_POINT ( 'NONE',  ( 4.454749999999999766, 0.5000000000000001110, 0.5000000000000000000 ) ) ;
#190 = EDGE_CURVE ( 'NONE', #861, #30, #274, .T. ) ;
#191 = CARTESIAN_POINT ( 'NONE',  ( 0.3982500000000000484, 0.7500000000000001110, 0.7187500000000000000 ) ) ;
#192 = DIRECTION ( 'NONE',  ( 1.000000000000000000, -0.000000000000000000, 0.000000000000000000 ) ) ;
#193 = ORIENTED_EDGE ( 'NONE', *, *, #238, .T. ) ;
#194 = DIRECTION ( 'NONE',  ( -0.000000000000000000, 1.000000000000000000, 1.365923996832131609E-16 ) ) ;
#195 = ORIENTED_EDGE ( 'NONE', *, *, #743, .F. ) ;
#196 = DIRECTION ( 'NONE',  ( -0.000000000000000000, 1.000000000000000000, 1.365923996832131609E-16 ) ) ;
#197 = CIRCLE ( 'NONE', #726, 0.2187499999999999445 ) ;
#198 = MECHANICAL_DESIGN_GEOMETRIC_PRESENTATION_REPRESENTATION (  '', ( #249 ), #361 ) ;
#199 = PRODUCT_DEFINITION_FORMATION_WITH_SPECIFIED_SOURCE ( 'Symmetric', '', #143, .NOT_KNOWN. ) ;
#200 = DIRECTION ( 'NONE',  ( 0.000000000000000000, 0.000000000000000000, 1.000000000000000000 ) ) ;
#201 = ADVANCED_FACE ( 'NONE', ( #5 ), #99, .F. ) ;
#202 = CARTESIAN_POINT ( 'NONE',  ( 3.659999999999999698, 0.2318919335683578553, 0.9224276230817405331 ) ) ;
#203 = ORIENTED_EDGE ( 'NONE', *, *, #566, .T. ) ;
#204 = VERTEX_POINT ( 'NONE', #380 ) ;
#205 = CARTESIAN_POINT ( 'NONE',  ( 4.321749999999999758, 0.7500000000000001110, 0.5000000000000000000 ) ) ;
#206 = DIRECTION ( 'NONE',  ( 0.000000000000000000, 0.000000000000000000, 1.000000000000000000 ) ) ;
#207 = CYLINDRICAL_SURFACE ( 'NONE', #744, 0.2500000000000001665 ) ;
#208 = ORIENTED_EDGE ( 'NONE', *, *, #447, .F. ) ;
#209 = CARTESIAN_POINT ( 'NONE',  ( 4.321749999999999758, 0.7500000000000001110, 0.5000000000000000000 ) ) ;
#210 = AXIS2_PLACEMENT_3D ( 'NONE', #311, #855, #797 ) ;
#211 = ADVANCED_FACE ( 'NONE', ( #690 ), #648, .F. ) ;
#212 = CARTESIAN_POINT ( 'NONE',  ( 4.719999999999999751, 0.000000000000000000, 0.000000000000000000 ) ) ;
#213 = ORIENTED_EDGE ( 'NONE', *, *, #819, .T. ) ;
#214 = DIRECTION ( 'NONE',  ( -1.000000000000000000, -0.000000000000000000, -0.000000000000000000 ) ) ;
#215 = CARTESIAN_POINT ( 'NONE',  ( 0.000000000000000000, 0.000000000000000000, 0.000000000000000000 ) ) ;
#216 = FACE_OUTER_BOUND ( 'NONE', #469, .T. ) ;
#217 = FACE_OUTER_BOUND ( 'NONE', #763, .T. ) ;
#218 = EDGE_CURVE ( 'NONE', #444, #531, #165, .T. ) ;
#219 = DIRECTION ( 'NONE',  ( -0.000000000000000000, 0.4897172662270175558, -0.8718812987781860979 ) ) ;
#220 = VERTEX_POINT ( 'NONE', #489 ) ;
#221 = LINE ( 'NONE', #775, #390 ) ;
#222 = FACE_BOUND ( 'NONE', #794, .T. ) ;
#223 = DIRECTION ( 'NONE',  ( 0.000000000000000000, 0.8718812987781858759, 0.4897172662270174448 ) ) ;
#224 = AXIS2_PLACEMENT_3D ( 'NONE', #533, #192, #668 ) ;
#225 = CARTESIAN_POINT ( 'NONE',  ( 0.3982500000000000484, 0.7500000000000001110, 0.6329999999999998961 ) ) ;
#226 = CIRCLE ( 'NONE', #684, 0.2187499999999999445 ) ;
#227 = EDGE_CURVE ( 'NONE', #580, #745, #772, .T. ) ;
#228 = CARTESIAN_POINT ( 'NONE',  ( 1.060000000000000275, 0.4632637202445588631, 0.000000000000000000 ) ) ;
#229 = DIRECTION ( 'NONE',  ( 0.000000000000000000, 1.000000000000000000, 0.000000000000000000 ) ) ;
#230 = EDGE_LOOP ( 'NONE', ( #608, #255 ) ) ;
#231 = CARTESIAN_POINT ( 'NONE',  ( 3.659999999999999698, 0.7500000000000007772, 4.780733988912460139E-16 ) ) ;
#232 = ORIENTED_EDGE ( 'NONE', *, *, #593, .T. ) ;
#233 = DIRECTION ( 'NONE',  ( 0.000000000000000000, -1.000000000000000000, 0.000000000000000000 ) ) ;
#234 = DIRECTION ( 'NONE',  ( -0.000000000000000000, 1.000000000000000000, 1.365923996832131609E-16 ) ) ;
#235 = EDGE_LOOP ( 'NONE', ( #362, #406, #2, #459 ) ) ;
#236 = ORIENTED_EDGE ( 'NONE', *, *, #381, .T. ) ;
#237 = PLANE ( 'NONE',  #106 ) ;
#238 = EDGE_CURVE ( 'NONE', #188, #279, #309, .T. ) ;
#239 = ADVANCED_FACE ( 'NONE', ( #510 ), #237, .F. ) ;
#240 = DIRECTION ( 'NONE',  ( 0.000000000000000000, -0.4897172662270175003, 0.8718812987781859869 ) ) ;
#241 = PRESENTATION_LAYER_ASSIGNMENT (  '', '', ( #249 ) ) ;
#242 = VECTOR ( 'NONE', #549, 39.37007874015748143 ) ;
#243 = AXIS2_PLACEMENT_3D ( 'NONE', #773, #286, #479 ) ;
#244 = CYLINDRICAL_SURFACE ( 'NONE', #170, 0.2499999999999998612 ) ;
#245 = ORIENTED_EDGE ( 'NONE', *, *, #76, .T. ) ;
#246 = CARTESIAN_POINT ( 'NONE',  ( 1.060000000000000275, 0.5320296753054541972, -0.1224293165567542224 ) ) ;
#247 = ORIENTED_EDGE ( 'NONE', *, *, #42, .F. ) ;
#248 = CARTESIAN_POINT ( 'NONE',  ( 3.659999999999999698, 0.3439286804613544968, 0.9853562917919123088 ) ) ;
#249 = STYLED_ITEM ( 'NONE', ( #141 ), #386 ) ;
#250 = CIRCLE ( 'NONE', #613, 0.2499999999999998335 ) ;
#251 = FACE_OUTER_BOUND ( 'NONE', #449, .T. ) ;
#252 = AXIS2_PLACEMENT_3D ( 'NONE', #189, #670, #820 ) ;
#253 = EDGE_CURVE ( 'NONE', #759, #398, #858, .T. ) ;
#254 = EDGE_LOOP ( 'NONE', ( #397, #142, #409, #324 ) ) ;
#255 = ORIENTED_EDGE ( 'NONE', *, *, #831, .F. ) ;
#256 = LINE ( 'NONE', #191, #242 ) ;
#257 = PRODUCT_DEFINITION ( 'General', '', #199, #552 ) ;
#258 = CARTESIAN_POINT ( 'NONE',  ( 4.719999999999999751, 0.7500000000000001110, 0.000000000000000000 ) ) ;
#259 = PLANE ( 'NONE',  #224 ) ;
#260 = ORIENTED_EDGE ( 'NONE', *, *, #104, .T. ) ;
#261 = FACE_OUTER_BOUND ( 'NONE', #330, .T. ) ;
#262 = LINE ( 'NONE', #136, #39 ) ;
#263 = DIRECTION ( 'NONE',  ( 0.000000000000000000, -1.365923996832131609E-16, 1.000000000000000000 ) ) ;
#264 = ORIENTED_EDGE ( 'NONE', *, *, #238, .F. ) ;
#265 = CYLINDRICAL_SURFACE ( 'NONE', #746, 0.1329999999999999238 ) ;
#266 = CARTESIAN_POINT ( 'NONE',  ( 4.719999999999999751, 0.000000000000000000, 0.000000000000000000 ) ) ;
#267 = ADVANCED_FACE ( 'NONE', ( #112 ), #589, .F. ) ;
#268 =( BOUNDED_CURVE ( )  B_SPLINE_CURVE ( 3, ( #669, #885, #276, #679 ),
 .UNSPECIFIED., .F., .F. ) 
 B_SPLINE_CURVE_WITH_KNOTS ( ( 4, 4 ),
 ( 0.000000000000000000, 1.570796326794893227 ),
 .UNSPECIFIED. ) 
 CURVE ( )  GEOMETRIC_REPRESENTATION_ITEM ( )  RATIONAL_B_SPLINE_CURVE ( ( 1.000000000000000000, 0.8047378541243658256, 0.8047378541243658256, 1.000000000000000000 ) ) 
 REPRESENTATION_ITEM ( '' )  );
#269 = ORIENTED_EDGE ( 'NONE', *, *, #227, .F. ) ;
#270 = ADVANCED_FACE ( 'NONE', ( #261 ), #470, .F. ) ;
#271 = CARTESIAN_POINT ( 'NONE',  ( 1.060000000000000275, 0.1198551866753611445, 0.8594989543715689795 ) ) ;
#272 = CARTESIAN_POINT ( 'NONE',  ( 0.000000000000000000, 0.7499999999999998890, 1.000000000000000000 ) ) ;
#273 = CARTESIAN_POINT ( 'NONE',  ( 0.000000000000000000, 0.000000000000000000, 0.000000000000000000 ) ) ;
#274 = CIRCLE ( 'NONE', #701, 0.1329999999999999238 ) ;
#275 = AXIS2_PLACEMENT_3D ( 'NONE', #538, #346, #342 ) ;
#276 = CARTESIAN_POINT ( 'NONE',  ( 3.909999999999998810, 0.5820337761436685797, 0.000000000000000000 ) ) ;
#277 = CARTESIAN_POINT ( 'NONE',  ( 3.659999999999999698, 0.5320296753054545302, -0.1224293165567540698 ) ) ;
#278 = VERTEX_POINT ( 'NONE', #57 ) ;
#279 = VERTEX_POINT ( 'NONE', #752 ) ;
#280 = EDGE_CURVE ( 'NONE', #706, #725, #337, .T. ) ;
#281 = DIRECTION ( 'NONE',  ( 0.000000000000000000, 0.000000000000000000, 1.000000000000000000 ) ) ;
#282 = DIRECTION ( 'NONE',  ( -0.000000000000000000, 1.000000000000000000, 1.365923996832131609E-16 ) ) ;
#283 = CARTESIAN_POINT ( 'NONE',  ( 1.060000000000000275, 0.4632637202445588631, 0.000000000000000000 ) ) ;
#284 = ORIENTED_EDGE ( 'NONE', *, *, #841, .F. ) ;
#285 = CARTESIAN_POINT ( 'NONE',  ( 0.3982500000000000484, 0.7500000000000001110, 0.5000000000000000000 ) ) ;
#286 = DIRECTION ( 'NONE',  ( -0.000000000000000000, 1.000000000000000000, 1.365923996832131609E-16 ) ) ;
#287 = LINE ( 'NONE', #618, #25 ) ;
#288 = AXIS2_PLACEMENT_3D ( 'NONE', #320, #585, #733 ) ;
#290 = EDGE_CURVE ( 'NONE', #44, #531, #654, .T. ) ;
#289 = DIRECTION ( 'NONE',  ( 0.000000000000000000, -0.4897172662270175003, 0.8718812987781859869 ) ) ;
#291 = VECTOR ( 'NONE', #754, 39.37007874015748143 ) ;
#292 = CARTESIAN_POINT ( 'NONE',  ( 4.321749999999999758, 0.7500000000000001110, 0.6329999999999998961 ) ) ;
#293 = VERTEX_POINT ( 'NONE', #66 ) ;
#294 = DIRECTION ( 'NONE',  ( 0.000000000000000000, 0.000000000000000000, 1.000000000000000000 ) ) ;
#295 = DIRECTION ( 'NONE',  ( 0.000000000000000000, -0.4897172662270175003, 0.8718812987781859869 ) ) ;
#296 = CARTESIAN_POINT ( 'NONE',  ( 4.321749999999999758, 0.5000000000000001110, 0.5000000000000000000 ) ) ;
#297 = EDGE_CURVE ( 'NONE', #368, #420, #197, .T. ) ;
#298 = DIRECTION ( 'NONE',  ( 0.000000000000000000, -0.000000000000000000, 1.000000000000000000 ) ) ;
#299 = ORIENTED_EDGE ( 'NONE', *, *, #364, .F. ) ;
#300 = LINE ( 'NONE', #785, #845 ) ;
#301 = DIRECTION ( 'NONE',  ( 0.000000000000000000, -0.8718812987781859869, -0.4897172662270175558 ) ) ;
#302 = CARTESIAN_POINT ( 'NONE',  ( 1.060000000000000275, 0.7500000000000007772, 4.780733988912460139E-16 ) ) ;
#303 = ORIENTED_EDGE ( 'NONE', *, *, #657, .F. ) ;
#304 = AXIS2_PLACEMENT_3D ( 'NONE', #574, #234, #167 ) ;
#305 = DIRECTION ( 'NONE',  ( -0.000000000000000000, 1.000000000000000000, 1.365923996832131609E-16 ) ) ;
#306 = VERTEX_POINT ( 'NONE', #126 ) ;
#307 = DIRECTION ( 'NONE',  ( 0.000000000000000000, 0.8718812987781859869, 0.4897172662270175558 ) ) ;
#308 = ORIENTED_EDGE ( 'NONE', *, *, #770, .T. ) ;
#309 = LINE ( 'NONE', #849, #780 ) ;
#310 = ADVANCED_FACE ( 'NONE', ( #412, #674 ), #1, .F. ) ;
#311 = CARTESIAN_POINT ( 'NONE',  ( 0.3982500000000000484, -1.365923996832131609E-16, 0.4999999999999998335 ) ) ;
#312 = EDGE_LOOP ( 'NONE', ( #458, #730, #176, #828 ) ) ;
#313 = EDGE_CURVE ( 'NONE', #792, #168, #761, .T. ) ;
#314 = ORIENTED_EDGE ( 'NONE', *, *, #460, .F. ) ;
#315 = DIRECTION ( 'NONE',  ( 0.000000000000000000, 0.000000000000000000, -1.000000000000000000 ) ) ;
#316 = ORIENTED_EDGE ( 'NONE', *, *, #31, .F. ) ;
#317 = AXIS2_PLACEMENT_3D ( 'NONE', #854, #768, #553 ) ;
#318 = AXIS2_PLACEMENT_3D ( 'NONE', #890, #407, #401 ) ;
#319 = ORIENTED_EDGE ( 'NONE', *, *, #333, .F. ) ;
#320 = CARTESIAN_POINT ( 'NONE',  ( 1.060000000000000275, 0.5932904748073550838, 0.2790020156090200487 ) ) ;
#321 = FACE_BOUND ( 'NONE', #853, .T. ) ;
#322 = ORIENTED_EDGE ( 'NONE', *, *, #338, .T. ) ;
#323 = ADVANCED_FACE ( 'NONE', ( #351 ), #360, .F. ) ;
#324 = ORIENTED_EDGE ( 'NONE', *, *, #490, .F. ) ;
#325 = AXIS2_PLACEMENT_3D ( 'NONE', #633, #289, #692 ) ;
#326 = CIRCLE ( 'NONE', #702, 0.1329999999999999238 ) ;
#327 = CARTESIAN_POINT ( 'NONE',  ( 4.321749999999999758, -1.365923996832131609E-16, 0.4999999999999998335 ) ) ;
#328 = DIRECTION ( 'NONE',  ( 0.000000000000000000, -0.8718812987781859869, -0.4897172662270175558 ) ) ;
#329 = CARTESIAN_POINT ( 'NONE',  ( 1.310000000000000275, 0.7500000000000001110, -2.212896545247408677E-16 ) ) ;
#330 = EDGE_LOOP ( 'NONE', ( #181, #548, #488, #591 ) ) ;
#331 = FACE_OUTER_BOUND ( 'NONE', #653, .T. ) ;
#332 = CARTESIAN_POINT ( 'NONE',  ( 3.436831436385982208, 0.7500000000000001110, 0.2694937187175929227 ) ) ;
#333 = EDGE_CURVE ( 'NONE', #334, #454, #221, .T. ) ;
#334 = VERTEX_POINT ( 'NONE', #372 ) ;
#335 = CARTESIAN_POINT ( 'NONE',  ( 0.000000000000000000, 0.3699999999999999400, 1.000000000000000000 ) ) ;
#336 = ORIENTED_EDGE ( 'NONE', *, *, #290, .F. ) ;
#338 = EDGE_CURVE ( 'NONE', #832, #398, #491, .T. ) ;
#337 = LINE ( 'NONE', #277, #716 ) ;
#339 = CARTESIAN_POINT ( 'NONE',  ( 4.719999999999999751, 0.3699999999999999400, 1.000000000000000000 ) ) ;
#340 = ORIENTED_EDGE ( 'NONE', *, *, #354, .T. ) ;
#341 = CARTESIAN_POINT ( 'NONE',  ( 3.659999999999999698, 0.4812537279143583868, 0.2160733468988483841 ) ) ;
#342 = DIRECTION ( 'NONE',  ( 0.000000000000000000, 0.8718812987781858759, 0.4897172662270174448 ) ) ;
#343 = DIRECTION ( 'NONE',  ( 0.000000000000000000, 0.4897172662270175558, -0.8718812987781859869 ) ) ;
#344 = FACE_BOUND ( 'NONE', #843, .T. ) ;
#345 = CARTESIAN_POINT ( 'NONE',  ( 1.060000000000000275, 0.5932904748073550838, 0.2790020156090200487 ) ) ;
#346 = DIRECTION ( 'NONE',  ( 0.000000000000000000, -0.4897172662270175003, 0.8718812987781859869 ) ) ;
#347 = CIRCLE ( 'NONE', #65, 0.1284999999999997811 ) ;
#348 = VECTOR ( 'NONE', #821, 39.37007874015748143 ) ;
#349 = LENGTH_MEASURE_WITH_UNIT ( LENGTH_MEASURE( 0.02539999999999999897 ), #417 );
#350 = CIRCLE ( 'NONE', #783, 0.2500000000000001110 ) ;
#351 = FACE_OUTER_BOUND ( 'NONE', #650, .T. ) ;
#352 = ADVANCED_FACE ( 'NONE', ( #217 ), #432, .F. ) ;
#353 = CARTESIAN_POINT ( 'NONE',  ( 0.3982500000000000484, 0.5000000000000001110, 0.5000000000000000000 ) ) ;
#354 = EDGE_CURVE ( 'NONE', #792, #665, #610, .T. ) ;
#355 = DIRECTION ( 'NONE',  ( -0.000000000000000000, 0.4897172662270175558, -0.8718812987781860979 ) ) ;
#356 = LINE ( 'NONE', #848, #889 ) ;
#357 =( NAMED_UNIT ( * ) SI_UNIT ( $, .STERADIAN. ) SOLID_ANGLE_UNIT ( ) );
#358 = CARTESIAN_POINT ( 'NONE',  ( 1.060000000000000275, 0.4632637202445588631, 0.000000000000000000 ) ) ;
#359 = VECTOR ( 'NONE', #121, 39.37007874015748143 ) ;
#360 = CYLINDRICAL_SURFACE ( 'NONE', #887, 0.1284999999999997533 ) ;
#361 =( GEOMETRIC_REPRESENTATION_CONTEXT ( 3 ) GLOBAL_UNCERTAINTY_ASSIGNED_CONTEXT ( ( #428 ) ) GLOBAL_UNIT_ASSIGNED_CONTEXT ( ( #835, #784, #171 ) ) REPRESENTATION_CONTEXT ( 'NONE', 'WORKASPACE' ) );
#362 = ORIENTED_EDGE ( 'NONE', *, *, #434, .F. ) ;
#363 = ORIENTED_EDGE ( 'NONE', *, *, #364, .T. ) ;
#364 = EDGE_CURVE ( 'NONE', #580, #788, #517, .T. ) ;
#365 = DIRECTION ( 'NONE',  ( 0.000000000000000000, 0.000000000000000000, 1.000000000000000000 ) ) ;
#366 = FILL_AREA_STYLE ('',( #87 ) ) ;
#367 = EDGE_CURVE ( 'NONE', #293, #759, #569, .T. ) ;
#368 = VERTEX_POINT ( 'NONE', #80 ) ;
#369 = DIRECTION ( 'NONE',  ( 0.000000000000000000, -0.4897172662270175003, 0.8718812987781860979 ) ) ;
#370 = ORIENTED_EDGE ( 'NONE', *, *, #599, .F. ) ;
#371 = LINE ( 'NONE', #246, #811 ) ;
#372 = CARTESIAN_POINT ( 'NONE',  ( 4.719999999999999751, 0.7500000000000001110, 0.000000000000000000 ) ) ;
#373 = DIRECTION ( 'NONE',  ( 0.000000000000000000, 1.365923996832131609E-16, -1.000000000000000000 ) ) ;
#374 = CARTESIAN_POINT ( 'NONE',  ( 1.283168563614018431, 0.7500000000000001110, 0.2694937187175926452 ) ) ;
#375 = VECTOR ( 'NONE', #557, 39.37007874015748143 ) ;
#376 = CYLINDRICAL_SURFACE ( 'NONE', #859, 0.1329999999999999238 ) ;
#377 = AXIS2_PLACEMENT_3D ( 'NONE', #808, #527, #110 ) ;
#378 = DIRECTION ( 'NONE',  ( 0.000000000000000000, 0.000000000000000000, 1.000000000000000000 ) ) ;
#379 = ORIENTED_EDGE ( 'NONE', *, *, #480, .F. ) ;
#380 = CARTESIAN_POINT ( 'NONE',  ( 0.3982500000000000484, -1.547591888410804724E-16, 0.6329999999999996740 ) ) ;
#381 = EDGE_CURVE ( 'NONE', #398, #759, #347, .T. ) ;
#382 = ORIENTED_EDGE ( 'NONE', *, *, #290, .T. ) ;
#383 = EDGE_CURVE ( 'NONE', #616, #334, #562, .T. ) ;
#384 = DIRECTION ( 'NONE',  ( 0.000000000000000000, 0.000000000000000000, 1.000000000000000000 ) ) ;
#385 = CARTESIAN_POINT ( 'NONE',  ( 4.719999999999999751, 0.7499999999999998890, 1.000000000000000000 ) ) ;
#386 = MANIFOLD_SOLID_BREP ( 'Cut-Extrude1', #795 ) ;
#387 = CARTESIAN_POINT ( 'NONE',  ( 3.883168563614017188, 0.7500000000000001110, 0.2694937187175928672 ) ) ;
#388 = CARTESIAN_POINT ( 'NONE',  ( 1.060000000000000275, 0.2318919335683578553, 0.9224276230817405331 ) ) ;
#389 = ORIENTED_EDGE ( 'NONE', *, *, #461, .F. ) ;
#390 = VECTOR ( 'NONE', #636, 39.37007874015748143 ) ;
#391 = AXIS2_PLACEMENT_3D ( 'NONE', #52, #818, #72 ) ;
#392 = CIRCLE ( 'NONE', #275, 0.1284999999999997811 ) ;
#393 =( GEOMETRIC_REPRESENTATION_CONTEXT ( 3 ) GLOBAL_UNCERTAINTY_ASSIGNED_CONTEXT ( ( #124 ) ) GLOBAL_UNIT_ASSIGNED_CONTEXT ( ( #615, #776, #357 ) ) REPRESENTATION_CONTEXT ( 'NONE', 'WORKASPACE' ) );
#394 = ORIENTED_EDGE ( 'NONE', *, *, #425, .F. ) ;
#395 = ADVANCED_FACE ( 'NONE', ( #620 ), #152, .F. ) ;
#396 = CARTESIAN_POINT ( 'NONE',  ( 3.909999999999999698, 0.7500000000000001110, 0.1403163870759581711 ) ) ;
#397 = ORIENTED_EDGE ( 'NONE', *, *, #522, .F. ) ;
#398 = VERTEX_POINT ( 'NONE', #892 ) ;
#399 = DIRECTION ( 'NONE',  ( 0.000000000000000000, 0.000000000000000000, 1.000000000000000000 ) ) ;
#400 = ORIENTED_EDGE ( 'NONE', *, *, #186, .T. ) ;
#401 = DIRECTION ( 'NONE',  ( 0.000000000000000000, -1.365923996832131609E-16, 1.000000000000000000 ) ) ;
#402 = LINE ( 'NONE', #617, #596 ) ;
#403 = VECTOR ( 'NONE', #214, 39.37007874015748143 ) ;
#404 = AXIS2_PLACEMENT_3D ( 'NONE', #85, #369, #634 ) ;
#405 = DIRECTION ( 'NONE',  ( 1.000000000000000000, 0.000000000000000000, 0.000000000000000000 ) ) ;
#406 = ORIENTED_EDGE ( 'NONE', *, *, #709, .F. ) ;
#407 = DIRECTION ( 'NONE',  ( -0.000000000000000000, 1.000000000000000000, 1.365923996832131609E-16 ) ) ;
#408 = DIRECTION ( 'NONE',  ( -0.000000000000000000, 1.000000000000000000, 1.365923996832131609E-16 ) ) ;
#409 = ORIENTED_EDGE ( 'NONE', *, *, #190, .T. ) ;
#410 = DIRECTION ( 'NONE',  ( 0.000000000000000000, 0.000000000000000000, -1.000000000000000000 ) ) ;
#411 = VERTEX_POINT ( 'NONE', #882 ) ;
#412 = FACE_BOUND ( 'NONE', #728, .T. ) ;
#413 = ORIENTED_EDGE ( 'NONE', *, *, #874, .T. ) ;
#414 = CARTESIAN_POINT ( 'NONE',  ( 0.3982500000000000484, 0.7500000000000001110, 0.7187500000000000000 ) ) ;
#415 = CARTESIAN_POINT ( 'NONE',  ( 3.909999999999999698, 0.7500000000000001110, -2.212896545247408677E-16 ) ) ;
#416 = CARTESIAN_POINT ( 'NONE',  ( 0.8100000000000000533, 0.7500000000000001110, -2.212896545247408677E-16 ) ) ;
#417 =( LENGTH_UNIT ( ) NAMED_UNIT ( * ) SI_UNIT ( $, .METRE. ) );
#418 = ORIENTED_EDGE ( 'NONE', *, *, #494, .T. ) ;
#419 = EDGE_CURVE ( 'NONE', #420, #368, #51, .T. ) ;
#420 = VERTEX_POINT ( 'NONE', #117 ) ;
#421 = LINE ( 'NONE', #49, #545 ) ;
#422 = AXIS2_PLACEMENT_3D ( 'NONE', #498, #509, #373 ) ;
#423 = VERTEX_POINT ( 'NONE', #682 ) ;
#424 = ORIENTED_EDGE ( 'NONE', *, *, #812, .T. ) ;
#425 = EDGE_CURVE ( 'NONE', #155, #712, #482, .T. ) ;
#426 = DIRECTION ( 'NONE',  ( 0.000000000000000000, 0.000000000000000000, 1.000000000000000000 ) ) ;
#427 = ORIENTED_EDGE ( 'NONE', *, *, #675, .T. ) ;
#428 = UNCERTAINTY_MEASURE_WITH_UNIT (LENGTH_MEASURE( 1.000000000000000082E-05 ), #835, 'distance_accuracy_value', 'NONE');
#429 = CARTESIAN_POINT ( 'NONE',  ( 4.321749999999999758, 0.5000000000000001110, 0.5000000000000000000 ) ) ;
#430 = FACE_OUTER_BOUND ( 'NONE', #524, .T. ) ;
#431 = CARTESIAN_POINT ( 'NONE',  ( 4.321749999999999758, 0.7500000000000001110, 0.2812500000000000555 ) ) ;
#432 = CYLINDRICAL_SURFACE ( 'NONE', #542, 0.1284999999999997811 ) ;
#433 = ADVANCED_FACE ( 'NONE', ( #687 ), #601, .F. ) ;
#434 = EDGE_CURVE ( 'NONE', #278, #742, #402, .T. ) ;
#435 = APPLICATION_PROTOCOL_DEFINITION ( 'draft international standard', 'automotive_design', 1998, #127 ) ;
#436 = DIRECTION ( 'NONE',  ( 0.000000000000000000, 0.000000000000000000, 1.000000000000000000 ) ) ;
#437 = AXIS2_PLACEMENT_3D ( 'NONE', #515, #834, #294 ) ;
#438 = DIRECTION ( 'NONE',  ( 0.000000000000000000, 0.8718812987781860979, 0.4897172662270174448 ) ) ;
#439 = DIRECTION ( 'NONE',  ( -0.000000000000000000, 1.000000000000000000, 1.365923996832131609E-16 ) ) ;
#440 = ORIENTED_EDGE ( 'NONE', *, *, #816, .F. ) ;
#441 = FACE_BOUND ( 'NONE', #133, .T. ) ;
#442 = CARTESIAN_POINT ( 'NONE',  ( 3.659999999999999698, 0.7500000000000007772, 4.780733988912460139E-16 ) ) ;
#443 = CARTESIAN_POINT ( 'NONE',  ( 4.321749999999999758, 0.5000000000000001110, 0.2812500000000000555 ) ) ;
#444 = VERTEX_POINT ( 'NONE', #129 ) ;
#445 = CARTESIAN_POINT ( 'NONE',  ( 3.659999999999999698, 0.7500000000000008882, 2.390366994456230070E-16 ) ) ;
#446 = ORIENTED_EDGE ( 'NONE', *, *, #338, .F. ) ;
#447 = EDGE_CURVE ( 'NONE', #817, #471, #185, .T. ) ;
#448 = FACE_BOUND ( 'NONE', #523, .T. ) ;
#449 = EDGE_LOOP ( 'NONE', ( #336, #624, #606, #631 ) ) ;
#450 = LINE ( 'NONE', #139, #375 ) ;
#451 = AXIS2_PLACEMENT_3D ( 'NONE', #696, #838, #298 ) ;
#452 = DIRECTION ( 'NONE',  ( -0.000000000000000000, 1.000000000000000000, 1.365923996832131609E-16 ) ) ;
#453 = CIRCLE ( 'NONE', #67, 0.1329999999999999238 ) ;
#454 = VERTEX_POINT ( 'NONE', #415 ) ;
#455 = EDGE_CURVE ( 'NONE', #677, #444, #47, .T. ) ;
#456 = ORIENTED_EDGE ( 'NONE', *, *, #490, .T. ) ;
#457 = ORIENTED_EDGE ( 'NONE', *, *, #709, .T. ) ;
#458 = ORIENTED_EDGE ( 'NONE', *, *, #18, .F. ) ;
#459 = ORIENTED_EDGE ( 'NONE', *, *, #689, .T. ) ;
#460 = EDGE_CURVE ( 'NONE', #334, #188, #54, .T. ) ;
#461 = EDGE_CURVE ( 'NONE', #163, #799, #392, .T. ) ;
#462 = VERTEX_POINT ( 'NONE', #272 ) ;
#463 = AXIS2_PLACEMENT_3D ( 'NONE', #501, #282, #365 ) ;
#464 = ORIENTED_EDGE ( 'NONE', *, *, #68, .F. ) ;
#465 = ORIENTED_EDGE ( 'NONE', *, *, #550, .F. ) ;
#466 = ORIENTED_EDGE ( 'NONE', *, *, #507, .T. ) ;
#467 = DIRECTION ( 'NONE',  ( -0.000000000000000000, -0.4897172662270175003, 0.8718812987781859869 ) ) ;
#468 = LINE ( 'NONE', #741, #813 ) ;
#469 = EDGE_LOOP ( 'NONE', ( #203, #465, #595, #88 ) ) ;
#470 = CYLINDRICAL_SURFACE ( 'NONE', #391, 0.2187499999999999445 ) ;
#471 = VERTEX_POINT ( 'NONE', #825 ) ;
#472 = ORIENTED_EDGE ( 'NONE', *, *, #850, .T. ) ;
#473 = CIRCLE ( 'NONE', #651, 0.1284999999999997811 ) ;
#474 = ADVANCED_FACE ( 'NONE', ( #487 ), #91, .F. ) ;
#475 = ORIENTED_EDGE ( 'NONE', *, *, #253, .F. ) ;
#476 = DIRECTION ( 'NONE',  ( -0.000000000000000000, 1.000000000000000000, 1.365923996832131609E-16 ) ) ;
#477 = DIRECTION ( 'NONE',  ( -0.000000000000000000, 1.000000000000000000, 1.365923996832131609E-16 ) ) ;
#478 =( BOUNDED_CURVE ( )  B_SPLINE_CURVE ( 3, ( #35, #182, #374, #32 ),
 .UNSPECIFIED., .F., .F. ) 
 B_SPLINE_CURVE_WITH_KNOTS ( ( 4, 4 ),
 ( 4.712388980384686121, 5.514677877129910755 ),
 .UNSPECIFIED. ) 
 CURVE ( )  GEOMETRIC_REPRESENTATION_ITEM ( )  RATIONAL_B_SPLINE_CURVE ( ( 1.000000000000000000, 0.9470764811511577230, 0.9470764811511577230, 1.000000000000000000 ) ) 
 REPRESENTATION_ITEM ( '' )  );
#479 = DIRECTION ( 'NONE',  ( 0.000000000000000000, 0.000000000000000000, 1.000000000000000000 ) ) ;
#480 = EDGE_CURVE ( 'NONE', #204, #423, #565, .T. ) ;
#481 = EDGE_LOOP ( 'NONE', ( #113, #735, #264, #424 ) ) ;
#482 = LINE ( 'NONE', #70, #348 ) ;
#483 = ORIENTED_EDGE ( 'NONE', *, *, #800, .T. ) ;
#484 = AXIS2_PLACEMENT_3D ( 'NONE', #495, #436, #158 ) ;
#485 = CIRCLE ( 'NONE', #304, 0.1330000000000000626 ) ;
#486 = ORIENTED_EDGE ( 'NONE', *, *, #18, .T. ) ;
#487 = FACE_OUTER_BOUND ( 'NONE', #184, .T. ) ;
#488 = ORIENTED_EDGE ( 'NONE', *, *, #764, .T. ) ;
#489 = CARTESIAN_POINT ( 'NONE',  ( 4.321749999999999758, -1.547591888410805217E-16, 0.6329999999999997851 ) ) ;
#490 = EDGE_CURVE ( 'NONE', #220, #30, #839, .T. ) ;
#491 = LINE ( 'NONE', #148, #12 ) ;
#492 = ORIENTED_EDGE ( 'NONE', *, *, #850, .F. ) ;
#493 = PLANE ( 'NONE',  #422 ) ;
#494 = EDGE_CURVE ( 'NONE', #864, #745, #781, .T. ) ;
#495 = CARTESIAN_POINT ( 'NONE',  ( 4.719999999999999751, 0.000000000000000000, 0.000000000000000000 ) ) ;
#496 = CARTESIAN_POINT ( 'NONE',  ( 0.8099999999999998312, 0.7500000000000001110, 0.1403163870759581155 ) ) ;
#497 = EDGE_LOOP ( 'NONE', ( #536, #71, #90, #700 ) ) ;
#498 = CARTESIAN_POINT ( 'NONE',  ( 4.719999999999999751, 0.7500000000000001110, 0.000000000000000000 ) ) ;
#499 = ORIENTED_EDGE ( 'NONE', *, *, #253, .T. ) ;
#500 = VECTOR ( 'NONE', #405, 39.37007874015748143 ) ;
#501 = CARTESIAN_POINT ( 'NONE',  ( 4.321749999999999758, 0.5000000000000001110, 0.5000000000000000000 ) ) ;
#502 = AXIS2_PLACEMENT_3D ( 'NONE', #521, #804, #729 ) ;
#503 = CARTESIAN_POINT ( 'NONE',  ( 0.8368314363859818972, 0.7500000000000001110, 0.2694937187175927562 ) ) ;
#504 = VECTOR ( 'NONE', #128, 39.37007874015748143 ) ;
#505 = ORIENTED_EDGE ( 'NONE', *, *, #354, .F. ) ;
#506 = DIRECTION ( 'NONE',  ( -0.000000000000000000, 0.4897172662270175558, -0.8718812987781860979 ) ) ;
#507 = EDGE_CURVE ( 'NONE', #368, #471, #356, .T. ) ;
#508 = EDGE_LOOP ( 'NONE', ( #232, #680, #563, #213, #738, #314, #718, #602, #577, #98, #579, #41 ) ) ;
#509 = DIRECTION ( 'NONE',  ( 0.000000000000000000, -1.000000000000000000, -1.365923996832131609E-16 ) ) ;
#510 = FACE_OUTER_BOUND ( 'NONE', #481, .T. ) ;
#511 =( BOUNDED_CURVE ( )  B_SPLINE_CURVE ( 3, ( #101, #396, #387, #655 ),
 .UNSPECIFIED., .F., .T. ) 
 B_SPLINE_CURVE_WITH_KNOTS ( ( 4, 4 ),
 ( 4.712388980384686121, 5.514677877129912531 ),
 .UNSPECIFIED. ) 
 CURVE ( )  GEOMETRIC_REPRESENTATION_ITEM ( )  RATIONAL_B_SPLINE_CURVE ( ( 1.000000000000000000, 0.9470764811511573900, 0.9470764811511573900, 1.000000000000000000 ) ) 
 REPRESENTATION_ITEM ( '' )  );
#512 = ADVANCED_FACE ( 'NONE', ( #154, #222, #836 ), #493, .F. ) ;
#513 = ORIENTED_EDGE ( 'NONE', *, *, #522, .T. ) ;
#514 = ORIENTED_EDGE ( 'NONE', *, *, #383, .F. ) ;
#515 = CARTESIAN_POINT ( 'NONE',  ( 4.321749999999999758, 0.7500000000000001110, 0.5000000000000000000 ) ) ;
#516 = CARTESIAN_POINT ( 'NONE',  ( 3.659999999999999698, 0.6379632531070040802, -0.06292866871017115116 ) ) ;
#517 = CIRCLE ( 'NONE', #119, 0.2187499999999999445 ) ;
#518 = ORIENTED_EDGE ( 'NONE', *, *, #461, .T. ) ;
#519 = LINE ( 'NONE', #516, #153 ) ;
#520 = CARTESIAN_POINT ( 'NONE',  ( 3.659999999999999698, 0.7500000000000008882, 2.390366994456230070E-16 ) ) ;
#521 = CARTESIAN_POINT ( 'NONE',  ( 3.659999999999999698, 0.5932904748073550838, 0.2790020156090200487 ) ) ;
#522 = EDGE_CURVE ( 'NONE', #411, #220, #326, .T. ) ;
#523 = EDGE_LOOP ( 'NONE', ( #475, #11 ) ) ;
#524 = EDGE_LOOP ( 'NONE', ( #505, #732, #440 ) ) ;
#525 = CARTESIAN_POINT ( 'NONE',  ( 4.719999999999999751, 0.000000000000000000, 0.7921788335660883140 ) ) ;
#526 = VECTOR ( 'NONE', #572, 39.37007874015748143 ) ;
#527 = DIRECTION ( 'NONE',  ( 0.000000000000000000, 0.4897172662270175558, -0.8718812987781859869 ) ) ;
#528 = VECTOR ( 'NONE', #571, 39.37007874015748143 ) ;
#529 = CARTESIAN_POINT ( 'NONE',  ( 4.321749999999999758, 0.7500000000000001110, 0.2812500000000000555 ) ) ;
#530 = AXIS2_PLACEMENT_3D ( 'NONE', #541, #827, #281 ) ;
#531 = VERTEX_POINT ( 'NONE', #623 ) ;
#532 = CARTESIAN_POINT ( 'NONE',  ( 1.060000000000000275, 0.7500000000000008882, 2.390366994456230070E-16 ) ) ;
#533 = CARTESIAN_POINT ( 'NONE',  ( 0.000000000000000000, 0.000000000000000000, 0.000000000000000000 ) ) ;
#534 = ORIENTED_EDGE ( 'NONE', *, *, #425, .T. ) ;
#535 = ADVANCED_FACE ( 'NONE', ( #14 ), #23, .F. ) ;
#536 = ORIENTED_EDGE ( 'NONE', *, *, #280, .F. ) ;
#537 = DIRECTION ( 'NONE',  ( -1.000000000000000000, -0.000000000000000000, -0.000000000000000000 ) ) ;
#538 = CARTESIAN_POINT ( 'NONE',  ( 3.659999999999999698, 0.5932904748073550838, 0.2790020156090200487 ) ) ;
#539 = DIRECTION ( 'NONE',  ( -0.000000000000000000, 1.000000000000000000, 1.365923996832131609E-16 ) ) ;
#540 = ORIENTED_EDGE ( 'NONE', *, *, #434, .T. ) ;
#541 = CARTESIAN_POINT ( 'NONE',  ( 0.3982500000000000484, 0.5000000000000001110, 0.5000000000000000000 ) ) ;
#542 = AXIS2_PLACEMENT_3D ( 'NONE', #302, #506, #708 ) ;
#543 = CIRCLE ( 'NONE', #156, 0.2499999999999998335 ) ;
#544 = DIRECTION ( 'NONE',  ( 0.000000000000000000, 0.8718812987781862089, 0.4897172662270170562 ) ) ;
#545 = VECTOR ( 'NONE', #58, 39.37007874015748143 ) ;
#546 = ORIENTED_EDGE ( 'NONE', *, *, #734, .F. ) ;
#547 = DIRECTION ( 'NONE',  ( 0.000000000000000000, 1.365923996832131609E-16, -1.000000000000000000 ) ) ;
#548 = ORIENTED_EDGE ( 'NONE', *, *, #419, .F. ) ;
#549 = DIRECTION ( 'NONE',  ( -0.000000000000000000, 1.000000000000000000, 1.365923996832131609E-16 ) ) ;
#550 = EDGE_CURVE ( 'NONE', #616, #155, #643, .T. ) ;
#551 = ORIENTED_EDGE ( 'NONE', *, *, #313, .F. ) ;
#552 = PRODUCT_DEFINITION_CONTEXT ( 'detailed design', #127, 'design' ) ;
#553 = DIRECTION ( 'NONE',  ( 0.000000000000000000, 0.8718812987781858759, 0.4897172662270176668 ) ) ;
#554 = DIRECTION ( 'NONE',  ( -0.000000000000000000, -0.4897172662270175558, 0.8718812987781859869 ) ) ;
#555 = DIRECTION ( 'NONE',  ( -0.000000000000000000, 1.000000000000000000, 1.365923996832131609E-16 ) ) ;
#556 = AXIS2_PLACEMENT_3D ( 'NONE', #266, #61, #410 ) ;
#557 = DIRECTION ( 'NONE',  ( 0.000000000000000000, -0.8718812987781859869, -0.4897172662270175558 ) ) ;
#558 = VECTOR ( 'NONE', #851, 39.37007874015748143 ) ;
#559 = SURFACE_STYLE_FILL_AREA ( #366 ) ;
#560 = ADVANCED_FACE ( 'NONE', ( #448, #430 ), #693, .F. ) ;
#561 = APPLICATION_PROTOCOL_DEFINITION ( 'draft international standard', 'automotive_design', 1998, #590 ) ;
#562 = LINE ( 'NONE', #21, #567 ) ;
#563 = ORIENTED_EDGE ( 'NONE', *, *, #743, .T. ) ;
#564 = CARTESIAN_POINT ( 'NONE',  ( 0.8100000000000000533, 0.7500000000000001110, -2.212896545247408677E-16 ) ) ;
#565 = LINE ( 'NONE', #225, #626 ) ;
#566 = EDGE_CURVE ( 'NONE', #183, #155, #300, .T. ) ;
#567 = VECTOR ( 'NONE', #229, 39.37007874015748143 ) ;
#568 = AXIS2_PLACEMENT_3D ( 'NONE', #231, #219, #638 ) ;
#569 = LINE ( 'NONE', #787, #844 ) ;
#570 = VECTOR ( 'NONE', #881, 39.37007874015748143 ) ;
#571 = DIRECTION ( 'NONE',  ( -1.000000000000000000, -0.000000000000000000, -0.000000000000000000 ) ) ;
#572 = DIRECTION ( 'NONE',  ( -0.000000000000000000, 1.000000000000000000, 1.365923996832131609E-16 ) ) ;
#573 = EDGE_CURVE ( 'NONE', #444, #706, #131, .T. ) ;
#574 = CARTESIAN_POINT ( 'NONE',  ( 0.3982500000000000484, 0.5000000000000001110, 0.5000000000000000000 ) ) ;
#575 = ORIENTED_EDGE ( 'NONE', *, *, #76, .F. ) ;
#576 = DIRECTION ( 'NONE',  ( -1.000000000000000000, 0.000000000000000000, 0.000000000000000000 ) ) ;
#577 = ORIENTED_EDGE ( 'NONE', *, *, #114, .F. ) ;
#578 = DIRECTION ( 'NONE',  ( -0.000000000000000000, 0.4897172662270175003, -0.8718812987781859869 ) ) ;
#579 = ORIENTED_EDGE ( 'NONE', *, *, #218, .T. ) ;
#580 = VERTEX_POINT ( 'NONE', #443 ) ;
#581 = LINE ( 'NONE', #525, #169 ) ;
#582 = AXIS2_PLACEMENT_3D ( 'NONE', #202, #756, #678 ) ;
#583 = FACE_OUTER_BOUND ( 'NONE', #497, .T. ) ;
#584 = ORIENTED_EDGE ( 'NONE', *, *, #218, .F. ) ;
#585 = DIRECTION ( 'NONE',  ( -0.000000000000000000, 0.4897172662270175003, -0.8718812987781859869 ) ) ;
#586 = CIRCLE ( 'NONE', #318, 0.1329999999999997851 ) ;
#587 = ADVANCED_FACE ( 'NONE', ( #588, #863 ), #852, .T. ) ;
#588 = FACE_BOUND ( 'NONE', #688, .T. ) ;
#589 = CYLINDRICAL_SURFACE ( 'NONE', #866, 0.1329999999999999238 ) ;
#590 = APPLICATION_CONTEXT ( 'automotive_design' ) ;
#591 = ORIENTED_EDGE ( 'NONE', *, *, #447, .T. ) ;
#592 = CYLINDRICAL_SURFACE ( 'NONE', #83, 0.2500000000000001665 ) ;
#593 = EDGE_CURVE ( 'NONE', #306, #792, #180, .T. ) ;
#594 = CIRCLE ( 'NONE', #582, 0.1284999999999996978 ) ;
#595 = ORIENTED_EDGE ( 'NONE', *, *, #675, .F. ) ;
#596 = VECTOR ( 'NONE', #3, 39.37007874015748143 ) ;
#597 = CARTESIAN_POINT ( 'NONE',  ( 0.3982500000000000484, 0.5000000000000001110, 0.3669999999999999374 ) ) ;
#598 = FACE_OUTER_BOUND ( 'NONE', #862, .T. ) ;
#599 = EDGE_CURVE ( 'NONE', #725, #869, #250, .T. ) ;
#600 = PLANE ( 'NONE',  #252 ) ;
#601 = CYLINDRICAL_SURFACE ( 'NONE', #38, 0.2187499999999999445 ) ;
#602 = ORIENTED_EDGE ( 'NONE', *, *, #621, .T. ) ;
#603 = DIRECTION ( 'NONE',  ( 0.000000000000000000, 0.4897172662270175558, -0.8718812987781859869 ) ) ;
#604 = PLANE ( 'NONE',  #556 ) ;
#605 = CARTESIAN_POINT ( 'NONE',  ( 1.206446609406726100, 0.4632637202445589186, 0.000000000000000000 ) ) ;
#606 = ORIENTED_EDGE ( 'NONE', *, *, #816, .T. ) ;
#607 = CARTESIAN_POINT ( 'NONE',  ( 4.321749999999999758, 0.7500000000000001110, 0.3670000000000000484 ) ) ;
#608 = ORIENTED_EDGE ( 'NONE', *, *, #494, .F. ) ;
#609 = DIRECTION ( 'NONE',  ( 0.000000000000000000, -1.000000000000000000, -1.365923996832131609E-16 ) ) ;
#610 = CIRCLE ( 'NONE', #325, 0.2500000000000001110 ) ;
#611 = EDGE_CURVE ( 'NONE', #109, #840, #26, .T. ) ;
#612 = DIRECTION ( 'NONE',  ( 0.000000000000000000, -0.4897172662270175003, 0.8718812987781859869 ) ) ;
#613 = AXIS2_PLACEMENT_3D ( 'NONE', #857, #240, #43 ) ;
#614 = CIRCLE ( 'NONE', #530, 0.1330000000000000626 ) ;
#615 =( CONVERSION_BASED_UNIT ( 'INCH', #349 ) LENGTH_UNIT ( ) NAMED_UNIT ( #147 ) );
#616 = VERTEX_POINT ( 'NONE', #175 ) ;
#617 = CARTESIAN_POINT ( 'NONE',  ( 0.3982500000000000484, 0.7500000000000001110, 0.3670000000000000484 ) ) ;
#618 = CARTESIAN_POINT ( 'NONE',  ( 0.000000000000000000, 0.7499999999999998890, 1.000000000000000000 ) ) ;
#619 = ORIENTED_EDGE ( 'NONE', *, *, #419, .T. ) ;
#620 = FACE_OUTER_BOUND ( 'NONE', #826, .T. ) ;
#621 = EDGE_CURVE ( 'NONE', #454, #869, #511, .T. ) ;
#622 = CARTESIAN_POINT ( 'NONE',  ( 0.8100000000000000533, 0.7500000000000001110, -2.212896545247408677E-16 ) ) ;
#623 = CARTESIAN_POINT ( 'NONE',  ( 1.310000000000000275, 0.7500000000000001110, -2.212896545247408677E-16 ) ) ;
#624 = ORIENTED_EDGE ( 'NONE', *, *, #94, .T. ) ;
#625 = COLOUR_RGB ( '',0.7921568627450980005, 0.8196078431372548767, 0.9333333333333333481 ) ;
#626 = VECTOR ( 'NONE', #555, 39.37007874015748143 ) ;
#627 = DIRECTION ( 'NONE',  ( 0.000000000000000000, 0.000000000000000000, 1.000000000000000000 ) ) ;
#628 = CARTESIAN_POINT ( 'NONE',  ( 4.719999999999999751, 0.000000000000000000, 0.7921788335660883140 ) ) ;
#630 = ADVANCED_FACE ( 'NONE', ( #46, #321, #187 ), #659, .F. ) ;
#629 = CARTESIAN_POINT ( 'NONE',  ( 1.060000000000000275, 0.5932904748073550838, 0.2790020156090200487 ) ) ;
#631 = ORIENTED_EDGE ( 'NONE', *, *, #89, .F. ) ;
#632 = CYLINDRICAL_SURFACE ( 'NONE', #766, 0.2499999999999998612 ) ;
#633 = CARTESIAN_POINT ( 'NONE',  ( 1.060000000000000275, 0.5932904748073550838, 0.2790020156090200487 ) ) ;
#634 = DIRECTION ( 'NONE',  ( 0.000000000000000000, -0.8718812987781859869, -0.4897172662270174448 ) ) ;
#635 = ORIENTED_EDGE ( 'NONE', *, *, #172, .T. ) ;
#636 = DIRECTION ( 'NONE',  ( -1.000000000000000000, -0.000000000000000000, -0.000000000000000000 ) ) ;
#637 = ORIENTED_EDGE ( 'NONE', *, *, #856, .F. ) ;
#638 = DIRECTION ( 'NONE',  ( 0.000000000000000000, 0.8718812987781860979, 0.4897172662270174448 ) ) ;
#639 = ORIENTED_EDGE ( 'NONE', *, *, #104, .F. ) ;
#640 = AXIS2_PLACEMENT_3D ( 'NONE', #63, #609, #547 ) ;
#641 = AXIS2_PLACEMENT_3D ( 'NONE', #285, #740, #200 ) ;
#642 = CARTESIAN_POINT ( 'NONE',  ( 4.321749999999999758, 0.7500000000000001110, 0.5000000000000000000 ) ) ;
#643 = LINE ( 'NONE', #212, #528 ) ;
#644 = ORIENTED_EDGE ( 'NONE', *, *, #695, .F. ) ;
#645 = DIRECTION ( 'NONE',  ( -0.000000000000000000, -0.4897172662270175558, 0.8718812987781859869 ) ) ;
#646 = DIRECTION ( 'NONE',  ( -0.000000000000000000, 0.4897172662270175003, -0.8718812987781859869 ) ) ;
#647 = ADVANCED_FACE ( 'NONE', ( #879 ), #265, .F. ) ;
#648 = CYLINDRICAL_SURFACE ( 'NONE', #437, 0.2187499999999999445 ) ;
#649 = CARTESIAN_POINT ( 'NONE',  ( 0.000000000000000000, 0.7500000000000001110, 0.000000000000000000 ) ) ;
#650 = EDGE_LOOP ( 'NONE', ( #639, #721, #658, #247 ) ) ;
#651 = AXIS2_PLACEMENT_3D ( 'NONE', #691, #295, #223 ) ;
#652 = DIRECTION ( 'NONE',  ( 0.000000000000000000, 0.4897172662270175558, -0.8718812987781859869 ) ) ;
#653 = EDGE_LOOP ( 'NONE', ( #715, #363 ) ) ;
#654 =( BOUNDED_CURVE ( )  B_SPLINE_CURVE ( 3, ( #283, #605, #663, #329 ),
 .UNSPECIFIED., .F., .T. ) 
 B_SPLINE_CURVE_WITH_KNOTS ( ( 4, 4 ),
 ( 0.000000000000000000, 1.570796326794893227 ),
 .UNSPECIFIED. ) 
 CURVE ( )  GEOMETRIC_REPRESENTATION_ITEM ( )  RATIONAL_B_SPLINE_CURVE ( ( 1.000000000000000000, 0.8047378541243658256, 0.8047378541243658256, 1.000000000000000000 ) ) 
 REPRESENTATION_ITEM ( '' )  );
#655 = CARTESIAN_POINT ( 'NONE',  ( 3.833765732929998116, 0.7500000000000002220, 0.3670224380869659409 ) ) ;
#656 = ORIENTED_EDGE ( 'NONE', *, *, #782, .F. ) ;
#657 = EDGE_CURVE ( 'NONE', #220, #411, #453, .T. ) ;
#658 = ORIENTED_EDGE ( 'NONE', *, *, #695, .T. ) ;
#659 = PLANE ( 'NONE',  #867 ) ;
#660 = ORIENTED_EDGE ( 'NONE', *, *, #186, .F. ) ;
#661 = DIRECTION ( 'NONE',  ( 0.000000000000000000, -0.4897172662270175003, 0.8718812987781859869 ) ) ;
#662 = ADVANCED_FACE ( 'NONE', ( #822 ), #376, .F. ) ;
#663 = CARTESIAN_POINT ( 'NONE',  ( 1.309999999999999609, 0.5820337761436684687, 0.000000000000000000 ) ) ;
#664 = AXIS2_PLACEMENT_3D ( 'NONE', #672, #343, #544 ) ;
#665 = VERTEX_POINT ( 'NONE', #802 ) ;
#666 = AXIS2_PLACEMENT_3D ( 'NONE', #388, #652, #40 ) ;
#667 = CARTESIAN_POINT ( 'NONE',  ( 4.321749999999999758, 0.5000000000000001110, 0.7187500000000000000 ) ) ;
#668 = DIRECTION ( 'NONE',  ( 0.000000000000000000, 0.000000000000000000, -1.000000000000000000 ) ) ;
#669 = CARTESIAN_POINT ( 'NONE',  ( 3.659999999999999698, 0.4632637202445592517, 0.000000000000000000 ) ) ;
#670 = DIRECTION ( 'NONE',  ( 0.000000000000000000, -1.000000000000000000, -1.365923996832131609E-16 ) ) ;
#671 = ORIENTED_EDGE ( 'NONE', *, *, #177, .T. ) ;
#672 = CARTESIAN_POINT ( 'NONE',  ( 1.060000000000000275, 0.2318919335683578553, 0.9224276230817405331 ) ) ;
#673 = LINE ( 'NONE', #62, #359 ) ;
#675 = EDGE_CURVE ( 'NONE', #45, #616, #28, .T. ) ;
#674 = FACE_OUTER_BOUND ( 'NONE', #102, .T. ) ;
#676 = FACE_BOUND ( 'NONE', #809, .T. ) ;
#677 = VERTEX_POINT ( 'NONE', #815 ) ;
#678 = DIRECTION ( 'NONE',  ( 0.000000000000000000, 0.8718812987781858759, 0.4897172662270174448 ) ) ;
#679 = CARTESIAN_POINT ( 'NONE',  ( 3.909999999999999698, 0.7500000000000001110, -2.212896545247408677E-16 ) ) ;
#680 = ORIENTED_EDGE ( 'NONE', *, *, #313, .T. ) ;
#681 = CIRCLE ( 'NONE', #664, 0.1284999999999998088 ) ;
#682 = CARTESIAN_POINT ( 'NONE',  ( 0.3982500000000000484, 0.5000000000000001110, 0.6330000000000000071 ) ) ;
#683 = AXIS2_PLACEMENT_3D ( 'NONE', #19, #77, #378 ) ;
#684 = AXIS2_PLACEMENT_3D ( 'NONE', #146, #477, #762 ) ;
#685 = PRODUCT_RELATED_PRODUCT_CATEGORY ( 'part', '', ( #143 ) ) ;
#686 = CARTESIAN_POINT ( 'NONE',  ( 0.3982500000000000484, 0.7500000000000001110, 0.5000000000000000000 ) ) ;
#687 = FACE_OUTER_BOUND ( 'NONE', #125, .T. ) ;
#688 = EDGE_LOOP ( 'NONE', ( #518, #880 ) ) ;
#689 = EDGE_CURVE ( 'NONE', #423, #742, #485, .T. ) ;
#690 = FACE_OUTER_BOUND ( 'NONE', #135, .T. ) ;
#691 = CARTESIAN_POINT ( 'NONE',  ( 3.659999999999999698, 0.5932904748073550838, 0.2790020156090200487 ) ) ;
#692 = DIRECTION ( 'NONE',  ( 0.000000000000000000, -0.8718812987781862089, -0.4897172662270174448 ) ) ;
#693 = PLANE ( 'NONE',  #404 ) ;
#694 = VERTEX_POINT ( 'NONE', #36 ) ;
#695 = EDGE_CURVE ( 'NONE', #840, #163, #468, .T. ) ;
#696 = CARTESIAN_POINT ( 'NONE',  ( 4.719999999999999751, 0.000000000000000000, 0.7921788335660883140 ) ) ;
#697 = DIRECTION ( 'NONE',  ( 0.000000000000000000, 0.000000000000000000, 1.000000000000000000 ) ) ;
#698 = ORIENTED_EDGE ( 'NONE', *, *, #383, .T. ) ;
#699 = DIRECTION ( 'NONE',  ( 0.000000000000000000, -1.365923996832132595E-16, 1.000000000000000000 ) ) ;
#700 = ORIENTED_EDGE ( 'NONE', *, *, #782, .T. ) ;
#701 = AXIS2_PLACEMENT_3D ( 'NONE', #429, #145, #790 ) ;
#702 = AXIS2_PLACEMENT_3D ( 'NONE', #779, #711, #699 ) ;
#703 = SHAPE_DEFINITION_REPRESENTATION ( #73, #810 ) ;
#704 = DIRECTION ( 'NONE',  ( -0.000000000000000000, 0.4897172662270175003, -0.8718812987781859869 ) ) ;
#705 = DIRECTION ( 'NONE',  ( 0.000000000000000000, 0.000000000000000000, 1.000000000000000000 ) ) ;
#706 = VERTEX_POINT ( 'NONE', #860 ) ;
#707 = CARTESIAN_POINT ( 'NONE',  ( 0.9135533905932742282, 0.4632637202445589186, 0.000000000000000000 ) ) ;
#708 = DIRECTION ( 'NONE',  ( 0.000000000000000000, 0.8718812987781858759, 0.4897172662270176668 ) ) ;
#709 = EDGE_CURVE ( 'NONE', #204, #278, #95, .T. ) ;
#710 = EDGE_LOOP ( 'NONE', ( #20, #540, #472, #379 ) ) ;
#711 = DIRECTION ( 'NONE',  ( -0.000000000000000000, 1.000000000000000000, 1.365923996832131609E-16 ) ) ;
#712 = VERTEX_POINT ( 'NONE', #649 ) ;
#713 = CARTESIAN_POINT ( 'NONE',  ( 0.3982500000000000484, 0.7500000000000001110, 0.5000000000000000000 ) ) ;
#714 = CARTESIAN_POINT ( 'NONE',  ( 3.410000000000000586, 0.5820337761436686908, 0.000000000000000000 ) ) ;
#715 = ORIENTED_EDGE ( 'NONE', *, *, #856, .T. ) ;
#716 = VECTOR ( 'NONE', #554, 39.37007874015748854 ) ;
#717 = CARTESIAN_POINT ( 'NONE',  ( 3.659999999999999698, 0.4632637202445592517, 0.000000000000000000 ) ) ;
#718 = ORIENTED_EDGE ( 'NONE', *, *, #333, .T. ) ;
#719 = ADVANCED_FACE ( 'NONE', ( #583 ), #244, .F. ) ;
#720 = DIRECTION ( 'NONE',  ( 0.000000000000000000, -1.365923996832132595E-16, 1.000000000000000000 ) ) ;
#721 = ORIENTED_EDGE ( 'NONE', *, *, #177, .F. ) ;
#722 = ORIENTED_EDGE ( 'NONE', *, *, #611, .T. ) ;
#723 = CARTESIAN_POINT ( 'NONE',  ( 4.719999999999999751, 0.7500000000000001110, 0.3670224380869658853 ) ) ;
#724 = DIRECTION ( 'NONE',  ( 0.000000000000000000, -0.8718812987781859869, -0.4897172662270175558 ) ) ;
#725 = VERTEX_POINT ( 'NONE', #105 ) ;
#726 = AXIS2_PLACEMENT_3D ( 'NONE', #353, #194, #873 ) ;
#727 = VECTOR ( 'NONE', #263, 39.37007874015748143 ) ;
#728 = EDGE_LOOP ( 'NONE', ( #758, #492 ) ) ;
#729 = DIRECTION ( 'NONE',  ( 0.000000000000000000, 0.8718812987781859869, 0.4897172662270174448 ) ) ;
#730 = ORIENTED_EDGE ( 'NONE', *, *, #280, .T. ) ;
#731 = LINE ( 'NONE', #335, #93 ) ;
#732 = ORIENTED_EDGE ( 'NONE', *, *, #593, .F. ) ;
#733 = DIRECTION ( 'NONE',  ( 0.000000000000000000, -0.8718812987781858759, -0.4897172662270174448 ) ) ;
#734 = EDGE_CURVE ( 'NONE', #832, #293, #796, .T. ) ;
#735 = ORIENTED_EDGE ( 'NONE', *, *, #4, .F. ) ;
#736 = DIRECTION ( 'NONE',  ( -0.000000000000000000, 1.000000000000000000, 1.365923996832131609E-16 ) ) ;
#737 = CARTESIAN_POINT ( 'NONE',  ( 3.659999999999999698, 0.7053272217003517808, 0.3419306843191916578 ) ) ;
#738 = ORIENTED_EDGE ( 'NONE', *, *, #812, .F. ) ;
#739 = DIRECTION ( 'NONE',  ( 0.000000000000000000, 0.8718812987781860979, 0.4897172662270174448 ) ) ;
#740 = DIRECTION ( 'NONE',  ( -0.000000000000000000, 1.000000000000000000, 1.365923996832131609E-16 ) ) ;
#741 = CARTESIAN_POINT ( 'NONE',  ( 3.659999999999999698, 0.8620367468929974741, 0.06292866871017210872 ) ) ;
#742 = VERTEX_POINT ( 'NONE', #597 ) ;
#743 = EDGE_CURVE ( 'NONE', #168, #712, #870, .T. ) ;
#744 = AXIS2_PLACEMENT_3D ( 'NONE', #871, #50, #328 ) ;
#745 = VERTEX_POINT ( 'NONE', #529 ) ;
#746 = AXIS2_PLACEMENT_3D ( 'NONE', #713, #452, #173 ) ;
#747 = LINE ( 'NONE', #876, #504 ) ;
#748 = CARTESIAN_POINT ( 'NONE',  ( 0.3982500000000000484, 0.7500000000000001110, 0.5000000000000000000 ) ) ;
#749 = ORIENTED_EDGE ( 'NONE', *, *, #573, .T. ) ;
#750 = ADVANCED_FACE ( 'NONE', ( #69 ), #592, .F. ) ;
#751 = ORIENTED_EDGE ( 'NONE', *, *, #114, .T. ) ;
#752 = CARTESIAN_POINT ( 'NONE',  ( 4.719999999999999751, 0.3699999999999999400, 1.000000000000000000 ) ) ;
#753 = EDGE_LOOP ( 'NONE', ( #284, #303, #456, #829 ) ) ;
#754 = DIRECTION ( 'NONE',  ( -1.000000000000000000, -0.000000000000000000, -0.000000000000000000 ) ) ;
#755 = CARTESIAN_POINT ( 'NONE',  ( 3.486234267070001280, 0.7500000000000002220, 0.3670224380869659409 ) ) ;
#756 = DIRECTION ( 'NONE',  ( 0.000000000000000000, 0.4897172662270175558, -0.8718812987781859869 ) ) ;
#757 = CARTESIAN_POINT ( 'NONE',  ( 3.833765732929998116, 0.7500000000000002220, 0.3670224380869659409 ) ) ;
#758 = ORIENTED_EDGE ( 'NONE', *, *, #689, .F. ) ;
#759 = VERTEX_POINT ( 'NONE', #760 ) ;
#760 = CARTESIAN_POINT ( 'NONE',  ( 1.060000000000000275, 0.7053272217003517808, 0.3419306843191916023 ) ) ;
#761 =( BOUNDED_CURVE ( )  B_SPLINE_CURVE ( 3, ( #22, #503, #496, #622 ),
 .UNSPECIFIED., .F., .F. ) 
 B_SPLINE_CURVE_WITH_KNOTS ( ( 4, 4 ),
 ( 0.7685074300496753663, 1.570796326794900333 ),
 .UNSPECIFIED. ) 
 CURVE ( )  GEOMETRIC_REPRESENTATION_ITEM ( )  RATIONAL_B_SPLINE_CURVE ( ( 1.000000000000000000, 0.9470764811511577230, 0.9470764811511577230, 1.000000000000000000 ) ) 
 REPRESENTATION_ITEM ( '' )  );
#762 = DIRECTION ( 'NONE',  ( 0.000000000000000000, 0.000000000000000000, 1.000000000000000000 ) ) ;
#763 = EDGE_LOOP ( 'NONE', ( #446, #56, #823, #499 ) ) ;
#764 = EDGE_CURVE ( 'NONE', #420, #817, #256, .T. ) ;
#765 = EDGE_LOOP ( 'NONE', ( #160, #575, #551, #340 ) ) ;
#766 = AXIS2_PLACEMENT_3D ( 'NONE', #445, #86, #301 ) ;
#767 = AXIS2_PLACEMENT_3D ( 'NONE', #137, #408, #426 ) ;
#768 = DIRECTION ( 'NONE',  ( -0.000000000000000000, 0.4897172662270175558, -0.8718812987781860979 ) ) ;
#769 = SURFACE_SIDE_STYLE ('',( #559 ) ) ;
#770 = EDGE_CURVE ( 'NONE', #278, #204, #586, .T. ) ;
#771 = EDGE_LOOP ( 'NONE', ( #174, #159, #660, #81 ) ) ;
#772 = LINE ( 'NONE', #431, #526 ) ;
#773 = CARTESIAN_POINT ( 'NONE',  ( 4.321749999999999758, 0.5000000000000001110, 0.5000000000000000000 ) ) ;
#774 = DIRECTION ( 'NONE',  ( 0.000000000000000000, -1.000000000000000000, 0.000000000000000000 ) ) ;
#775 = CARTESIAN_POINT ( 'NONE',  ( 4.719999999999999751, 0.7500000000000001110, 0.000000000000000000 ) ) ;
#776 =( NAMED_UNIT ( * ) PLANE_ANGLE_UNIT ( ) SI_UNIT ( $, .RADIAN. ) );
#777 = CARTESIAN_POINT ( 'NONE',  ( 4.321749999999999758, 0.5000000000000001110, 0.6329999999999998961 ) ) ;
#778 =( LENGTH_UNIT ( ) NAMED_UNIT ( * ) SI_UNIT ( $, .METRE. ) );
#779 = CARTESIAN_POINT ( 'NONE',  ( 4.321749999999999758, -1.365923996832131609E-16, 0.4999999999999998335 ) ) ;
#780 = VECTOR ( 'NONE', #233, 39.37007874015748143 ) ;
#781 = CIRCLE ( 'NONE', #683, 0.2187499999999999445 ) ;
#782 = EDGE_CURVE ( 'NONE', #677, #725, #543, .T. ) ;
#783 = AXIS2_PLACEMENT_3D ( 'NONE', #345, #612, #115 ) ;
#784 =( NAMED_UNIT ( * ) PLANE_ANGLE_UNIT ( ) SI_UNIT ( $, .RADIAN. ) );
#785 = CARTESIAN_POINT ( 'NONE',  ( 0.000000000000000000, 0.000000000000000000, 0.7921788335660883140 ) ) ;
#786 = FACE_OUTER_BOUND ( 'NONE', #312, .T. ) ;
#787 = CARTESIAN_POINT ( 'NONE',  ( 1.060000000000000275, 0.8620367468929974741, 0.06292866871017213648 ) ) ;
#788 = VERTEX_POINT ( 'NONE', #667 ) ;
#789 = DIRECTION ( 'NONE',  ( 0.000000000000000000, 0.000000000000000000, -1.000000000000000000 ) ) ;
#790 = DIRECTION ( 'NONE',  ( 0.000000000000000000, 0.000000000000000000, 1.000000000000000000 ) ) ;
#791 = CARTESIAN_POINT ( 'NONE',  ( 4.719999999999999751, 0.000000000000000000, 0.7921788335660883140 ) ) ;
#792 = VERTEX_POINT ( 'NONE', #53 ) ;
#793 = ADVANCED_FACE ( 'NONE', ( #676, #331 ), #600, .F. ) ;
#794 = EDGE_LOOP ( 'NONE', ( #208, #48 ) ) ;
#795 = CLOSED_SHELL ( 'NONE', ( #118, #79, #201, #433, #662, #395, #267, #474, #323, #27, #55, #512, #239, #630, #162, #140, #647, #310, #270, #535, #793, #211, #352, #719, #587, #750, #560 ) ) ;
#796 = CIRCLE ( 'NONE', #666, 0.1284999999999998088 ) ;
#797 = DIRECTION ( 'NONE',  ( 0.000000000000000000, -1.365923996832131609E-16, 1.000000000000000000 ) ) ;
#798 =( BOUNDED_CURVE ( )  B_SPLINE_CURVE ( 3, ( #564, #842, #707, #228 ),
 .UNSPECIFIED., .F., .F. ) 
 B_SPLINE_CURVE_WITH_KNOTS ( ( 4, 4 ),
 ( 4.712388980384693227, 6.283185307179586232 ),
 .UNSPECIFIED. ) 
 CURVE ( )  GEOMETRIC_REPRESENTATION_ITEM ( )  RATIONAL_B_SPLINE_CURVE ( ( 1.000000000000000000, 0.8047378541243658256, 0.8047378541243658256, 1.000000000000000000 ) ) 
 REPRESENTATION_ITEM ( '' )  );
#799 = VERTEX_POINT ( 'NONE', #341 ) ;
#800 = EDGE_CURVE ( 'NONE', #788, #864, #747, .T. ) ;
#801 = CARTESIAN_POINT ( 'NONE',  ( 3.659999999999999698, 0.1198551866753611445, 0.8594989543715689795 ) ) ;
#802 = CARTESIAN_POINT ( 'NONE',  ( 1.060000000000000275, 0.3753201501128084483, 0.1565726990522656181 ) ) ;
#803 = EDGE_LOOP ( 'NONE', ( #427, #698, #60, #193, #400 ) ) ;
#804 = DIRECTION ( 'NONE',  ( -0.000000000000000000, 0.4897172662270175003, -0.8718812987781860979 ) ) ;
#805 = ORIENTED_EDGE ( 'NONE', *, *, #566, .F. ) ;
#806 = ORIENTED_EDGE ( 'NONE', *, *, #297, .T. ) ;
#807 = DIRECTION ( 'NONE',  ( -1.000000000000000000, 0.000000000000000000, -0.000000000000000000 ) ) ;
#808 = CARTESIAN_POINT ( 'NONE',  ( 3.659999999999999698, 0.2318919335683578553, 0.9224276230817405331 ) ) ;
#809 = EDGE_LOOP ( 'NONE', ( #464, #97 ) ) ;
#810 = ADVANCED_BREP_SHAPE_REPRESENTATION ( 'Lower retainer', ( #386, #891 ), #393 ) ;
#811 = VECTOR ( 'NONE', #645, 39.37007874015748854 ) ;
#812 = EDGE_CURVE ( 'NONE', #188, #462, #262, .T. ) ;
#813 = VECTOR ( 'NONE', #646, 39.37007874015748854 ) ;
#814 = DIRECTION ( 'NONE',  ( 0.000000000000000000, -0.8718812987781859869, -0.4897172662270175558 ) ) ;
#815 = CARTESIAN_POINT ( 'NONE',  ( 3.486234267070001280, 0.7500000000000002220, 0.3670224380869659409 ) ) ;
#816 = EDGE_CURVE ( 'NONE', #665, #306, #350, .T. ) ;
#817 = VERTEX_POINT ( 'NONE', #414 ) ;
#818 = DIRECTION ( 'NONE',  ( -0.000000000000000000, 1.000000000000000000, 1.365923996832131609E-16 ) ) ;
#819 = EDGE_CURVE ( 'NONE', #712, #462, #421, .T. ) ;
#820 = DIRECTION ( 'NONE',  ( 0.000000000000000000, 1.365923996832131609E-16, -1.000000000000000000 ) ) ;
#821 = DIRECTION ( 'NONE',  ( 0.000000000000000000, 1.000000000000000000, 0.000000000000000000 ) ) ;
#822 = FACE_OUTER_BOUND ( 'NONE', #254, .T. ) ;
#823 = ORIENTED_EDGE ( 'NONE', *, *, #367, .T. ) ;
#824 = AXIS2_PLACEMENT_3D ( 'NONE', #748, #476, #206 ) ;
#825 = CARTESIAN_POINT ( 'NONE',  ( 0.3982500000000000484, 0.7500000000000001110, 0.2812500000000000555 ) ) ;
#826 = EDGE_LOOP ( 'NONE', ( #75, #466, #413, #37 ) ) ;
#827 = DIRECTION ( 'NONE',  ( -0.000000000000000000, 1.000000000000000000, 1.365923996832131609E-16 ) ) ;
#828 = ORIENTED_EDGE ( 'NONE', *, *, #621, .F. ) ;
#829 = ORIENTED_EDGE ( 'NONE', *, *, #68, .T. ) ;
#830 = CARTESIAN_POINT ( 'NONE',  ( 4.321749999999999758, 0.7500000000000001110, 0.7187500000000000000 ) ) ;
#831 = EDGE_CURVE ( 'NONE', #745, #864, #157, .T. ) ;
#832 = VERTEX_POINT ( 'NONE', #271 ) ;
#833 = CARTESIAN_POINT ( 'NONE',  ( 4.321749999999999758, 0.7500000000000001110, 0.5000000000000000000 ) ) ;
#834 = DIRECTION ( 'NONE',  ( -0.000000000000000000, 1.000000000000000000, 1.365923996832131609E-16 ) ) ;
#835 =( CONVERSION_BASED_UNIT ( 'INCH', #10 ) LENGTH_UNIT ( ) NAMED_UNIT ( #13 ) );
#836 = FACE_OUTER_BOUND ( 'NONE', #508, .T. ) ;
#837 = EDGE_LOOP ( 'NONE', ( #751, #370, #656 ) ) ;
#838 = DIRECTION ( 'NONE',  ( -0.000000000000000000, 1.000000000000000000, 0.000000000000000000 ) ) ;
#839 = LINE ( 'NONE', #292, #120 ) ;
#840 = VERTEX_POINT ( 'NONE', #248 ) ;
#841 = EDGE_CURVE ( 'NONE', #411, #861, #64, .T. ) ;
#842 = CARTESIAN_POINT ( 'NONE',  ( 0.8100000000000008304, 0.5820337761436684687, 0.000000000000000000 ) ) ;
#843 = EDGE_LOOP ( 'NONE', ( #24, #513 ) ) ;
#844 = VECTOR ( 'NONE', #847, 39.37007874015748854 ) ;
#845 = VECTOR ( 'NONE', #789, 39.37007874015748143 ) ;
#846 = AXIS2_PLACEMENT_3D ( 'NONE', #205, #736, #865 ) ;
#847 = DIRECTION ( 'NONE',  ( -0.000000000000000000, 0.4897172662270175003, -0.8718812987781859869 ) ) ;
#848 = CARTESIAN_POINT ( 'NONE',  ( 0.3982500000000000484, 0.7500000000000001110, 0.2812500000000000555 ) ) ;
#849 = CARTESIAN_POINT ( 'NONE',  ( 4.719999999999999751, 0.7499999999999998890, 1.000000000000000000 ) ) ;
#850 = EDGE_CURVE ( 'NONE', #742, #423, #614, .T. ) ;
#851 = DIRECTION ( 'NONE',  ( 0.000000000000000000, 0.000000000000000000, -1.000000000000000000 ) ) ;
#852 = PLANE ( 'NONE',  #502 ) ;
#853 = EDGE_LOOP ( 'NONE', ( #635, #888 ) ) ;
#854 = CARTESIAN_POINT ( 'NONE',  ( 1.060000000000000275, 0.7500000000000007772, 4.780733988912460139E-16 ) ) ;
#855 = DIRECTION ( 'NONE',  ( -0.000000000000000000, 1.000000000000000000, 1.365923996832131609E-16 ) ) ;
#856 = EDGE_CURVE ( 'NONE', #788, #580, #868, .T. ) ;
#857 = CARTESIAN_POINT ( 'NONE',  ( 3.659999999999999698, 0.5932904748073550838, 0.2790020156090200487 ) ) ;
#858 = CIRCLE ( 'NONE', #288, 0.1284999999999997811 ) ;
#859 = AXIS2_PLACEMENT_3D ( 'NONE', #642, #96, #384 ) ;
#860 = CARTESIAN_POINT ( 'NONE',  ( 3.659999999999999698, 0.4632637202445592517, 0.000000000000000000 ) ) ;
#861 = VERTEX_POINT ( 'NONE', #884 ) ;
#862 = EDGE_LOOP ( 'NONE', ( #805, #78, #316, #111, #394 ) ) ;
#863 = FACE_OUTER_BOUND ( 'NONE', #837, .T. ) ;
#864 = VERTEX_POINT ( 'NONE', #830 ) ;
#865 = DIRECTION ( 'NONE',  ( 0.000000000000000000, 0.000000000000000000, 1.000000000000000000 ) ) ;
#866 = AXIS2_PLACEMENT_3D ( 'NONE', #686, #134, #399 ) ;
#867 = AXIS2_PLACEMENT_3D ( 'NONE', #339, #603, #307 ) ;
#868 = CIRCLE ( 'NONE', #243, 0.2187499999999999445 ) ;
#869 = VERTEX_POINT ( 'NONE', #757 ) ;
#870 = LINE ( 'NONE', #258, #291 ) ;
#871 = CARTESIAN_POINT ( 'NONE',  ( 1.060000000000000275, 0.7500000000000008882, 2.390366994456230070E-16 ) ) ;
#872 = EDGE_LOOP ( 'NONE', ( #671, #722 ) ) ;
#874 = EDGE_CURVE ( 'NONE', #471, #817, #226, .T. ) ;
#873 = DIRECTION ( 'NONE',  ( 0.000000000000000000, 0.000000000000000000, 1.000000000000000000 ) ) ;
#875 = ORIENTED_EDGE ( 'NONE', *, *, #611, .F. ) ;
#876 = CARTESIAN_POINT ( 'NONE',  ( 4.321749999999999758, 0.7500000000000001110, 0.7187500000000000000 ) ) ;
#877 = CARTESIAN_POINT ( 'NONE',  ( 3.410000000000000586, 0.7500000000000001110, 0.1403163870759582266 ) ) ;
#878 = ORIENTED_EDGE ( 'NONE', *, *, #367, .F. ) ;
#879 = FACE_OUTER_BOUND ( 'NONE', #235, .T. ) ;
#880 = ORIENTED_EDGE ( 'NONE', *, *, #42, .T. ) ;
#881 = DIRECTION ( 'NONE',  ( -0.000000000000000000, 1.000000000000000000, 1.365923996832131609E-16 ) ) ;
#882 = CARTESIAN_POINT ( 'NONE',  ( 4.321749999999999758, -1.184256105253458495E-16, 0.3669999999999999374 ) ) ;
#883 = FACE_OUTER_BOUND ( 'NONE', #803, .T. ) ;
#884 = CARTESIAN_POINT ( 'NONE',  ( 4.321749999999999758, 0.5000000000000001110, 0.3670000000000000484 ) ) ;
#885 = CARTESIAN_POINT ( 'NONE',  ( 3.806446609406725301, 0.4632637202445592517, 0.000000000000000000 ) ) ;
#886 = CIRCLE ( 'NONE', #463, 0.1329999999999999238 ) ;
#887 = AXIS2_PLACEMENT_3D ( 'NONE', #442, #355, #438 ) ;
#888 = ORIENTED_EDGE ( 'NONE', *, *, #734, .T. ) ;
#889 = VECTOR ( 'NONE', #305, 39.37007874015748143 ) ;
#890 = CARTESIAN_POINT ( 'NONE',  ( 0.3982500000000000484, -1.365923996832131609E-16, 0.4999999999999998335 ) ) ;
#891 = AXIS2_PLACEMENT_3D ( 'NONE', #215, #627, #16 ) ;
#892 = CARTESIAN_POINT ( 'NONE',  ( 1.060000000000000275, 0.4812537279143583868, 0.2160733468988483841 ) ) ;
ENDSEC;
END-ISO-10303-21;
