ISO-10303-21;
HEADER;
FILE_DESCRIPTION (( 'STEP AP214' ),
    '1' );
FILE_NAME ('Outer gantry bracket, lower.STEP',
    '2026-02-20T19:34:19',
    ( '' ),
    ( '' ),
    'SwSTEP 2.0',
    'SolidWorks 2025',
    '' );
FILE_SCHEMA (( 'AUTOMOTIVE_DESIGN' ));
ENDSEC;

DATA;
#1 = AXIS2_PLACEMENT_3D ( 'NONE', #612, #686, #680 ) ;
#2 = CARTESIAN_POINT ( 'NONE',  ( 0.6874999999999994449, -0.4249999999999991007, 0.5000000000000000000 ) ) ;
#3 = ORIENTED_EDGE ( 'NONE', *, *, #631, .T. ) ;
#4 = FACE_OUTER_BOUND ( 'NONE', #7, .T. ) ;
#5 = EDGE_CURVE ( 'NONE', #817, #589, #938, .T. ) ;
#6 = VERTEX_POINT ( 'NONE', #731 ) ;
#7 = EDGE_LOOP ( 'NONE', ( #766, #413, #595 ) ) ;
#8 = EDGE_LOOP ( 'NONE', ( #405, #74 ) ) ;
#9 = DIRECTION ( 'NONE',  ( 0.000000000000000000, 0.000000000000000000, 1.000000000000000000 ) ) ;
#10 = DIRECTION ( 'NONE',  ( 0.000000000000000000, 0.000000000000000000, 1.000000000000000000 ) ) ;
#11 = ORIENTED_EDGE ( 'NONE', *, *, #415, .F. ) ;
#12 = CARTESIAN_POINT ( 'NONE',  ( -0.4867538916940105653, 0.6750000000000002665, 0.5000000000000000000 ) ) ;
#13 = EDGE_LOOP ( 'NONE', ( #832, #808 ) ) ;
#14 = CARTESIAN_POINT ( 'NONE',  ( -1.499999999999999778, -0.6749999999999997113, 0.000000000000000000 ) ) ;
#15 = EDGE_CURVE ( 'NONE', #576, #144, #570, .T. ) ;
#16 = DIRECTION ( 'NONE',  ( -0.000000000000000000, 1.000000000000000000, -0.000000000000000000 ) ) ;
#17 = DIRECTION ( 'NONE',  ( 0.8384436163006373510, 0.5449883505954135066, -0.000000000000000000 ) ) ;
#18 = AXIS2_PLACEMENT_3D ( 'NONE', #830, #701, #480 ) ;
#19 = VECTOR ( 'NONE', #265, 39.37007874015748143 ) ;
#20 = LINE ( 'NONE', #693, #696 ) ;
#21 = CARTESIAN_POINT ( 'NONE',  ( -1.199999999999999956, -0.07499999999999960865, 0.2500000000000003886 ) ) ;
#22 = EDGE_CURVE ( 'NONE', #303, #828, #556, .T. ) ;
#23 = DIRECTION ( 'NONE',  ( 0.000000000000000000, 0.000000000000000000, 1.000000000000000000 ) ) ;
#24 = CARTESIAN_POINT ( 'NONE',  ( -1.199999999999999956, 0.6750000000000002665, 0.2500000000000003886 ) ) ;
#25 = DIRECTION ( 'NONE',  ( -1.000000000000000000, 0.000000000000000000, 0.000000000000000000 ) ) ;
#26 = CARTESIAN_POINT ( 'NONE',  ( -1.499999999999999778, 0.6750000000000002665, 0.5000000000000000000 ) ) ;
#27 = CARTESIAN_POINT ( 'NONE',  ( 0.4999999999999990563, -1.324999999999999734, 0.5000000000000000000 ) ) ;
#28 = CYLINDRICAL_SURFACE ( 'NONE', #512, 0.07474999999999962230 ) ;
#29 = ADVANCED_FACE ( 'NONE', ( #487 ), #409, .F. ) ;
#30 = CARTESIAN_POINT ( 'NONE',  ( 2.731847993664263218E-16, -1.025000000000000355, 0.5000000000000000000 ) ) ;
#31 = CIRCLE ( 'NONE', #207, 0.1349999999999999256 ) ;
#32 = CIRCLE ( 'NONE', #571, 0.07474999999999948352 ) ;
#33 = FACE_OUTER_BOUND ( 'NONE', #700, .T. ) ;
#34 = VECTOR ( 'NONE', #849, 39.37007874015748143 ) ;
#35 = CIRCLE ( 'NONE', #212, 0.07474999999999976108 ) ;
#36 = LINE ( 'NONE', #647, #19 ) ;
#37 = ADVANCED_FACE ( 'NONE', ( #958 ), #266, .F. ) ;
#38 = CARTESIAN_POINT ( 'NONE',  ( -2.731847993664263218E-16, 0.6750000000000002665, 0.2500000000000000000 ) ) ;
#39 = ORIENTED_EDGE ( 'NONE', *, *, #944, .F. ) ;
#40 = CARTESIAN_POINT ( 'NONE',  ( -0.6875000000000000000, 0.8240000000000002878, 0.000000000000000000 ) ) ;
#41 = DIRECTION ( 'NONE',  ( -1.000000000000000000, 0.000000000000000000, 0.000000000000000000 ) ) ;
#42 = CARTESIAN_POINT ( 'NONE',  ( -1.200000000000000178, -0.1199143312723097848, 0.2500000000000003886 ) ) ;
#43 = ORIENTED_EDGE ( 'NONE', *, *, #642, .T. ) ;
#44 = FACE_BOUND ( 'NONE', #254, .T. ) ;
#45 = ORIENTED_EDGE ( 'NONE', *, *, #164, .T. ) ;
#46 = ADVANCED_FACE ( 'NONE', ( #507 ), #737, .F. ) ;
#47 = DIRECTION ( 'NONE',  ( 1.000000000000000000, 0.000000000000000000, 0.000000000000000000 ) ) ;
#48 = CARTESIAN_POINT ( 'NONE',  ( 1.500000000000000444, -0.6749999999999997113, 0.000000000000000000 ) ) ;
#49 = ORIENTED_EDGE ( 'NONE', *, *, #22, .T. ) ;
#50 = AXIS2_PLACEMENT_3D ( 'NONE', #65, #990, #376 ) ;
#51 = ADVANCED_FACE ( 'NONE', ( #271 ), #435, .F. ) ;
#52 = AXIS2_PLACEMENT_3D ( 'NONE', #560, #717, #640 ) ;
#53 = DIRECTION ( 'NONE',  ( 0.000000000000000000, 0.000000000000000000, 1.000000000000000000 ) ) ;
#54 = EDGE_LOOP ( 'NONE', ( #607, #638, #843, #468 ) ) ;
#55 = AXIS2_PLACEMENT_3D ( 'NONE', #774, #707, #160 ) ;
#56 = ORIENTED_EDGE ( 'NONE', *, *, #122, .F. ) ;
#57 = CARTESIAN_POINT ( 'NONE',  ( -0.5525000000000001021, -0.4250000000000001554, 0.5000000000000000000 ) ) ;
#58 = VERTEX_POINT ( 'NONE', #668 ) ;
#59 = LINE ( 'NONE', #670, #34 ) ;
#60 = ORIENTED_EDGE ( 'NONE', *, *, #944, .T. ) ;
#61 = CARTESIAN_POINT ( 'NONE',  ( 0.5524999999999995470, -0.4249999999999991007, 0.000000000000000000 ) ) ;
#62 = CIRCLE ( 'NONE', #939, 0.1349999999999999256 ) ;
#63 = VECTOR ( 'NONE', #345, 39.37007874015748143 ) ;
#64 = DIRECTION ( 'NONE',  ( -0.000000000000000000, -0.000000000000000000, -1.000000000000000000 ) ) ;
#65 = CARTESIAN_POINT ( 'NONE',  ( 0.6874999999999994449, -0.4249999999999991007, 0.5000000000000000000 ) ) ;
#66 = AXIS2_PLACEMENT_3D ( 'NONE', #273, #502, #797 ) ;
#67 = EDGE_CURVE ( 'NONE', #900, #440, #902, .T. ) ;
#68 = ORIENTED_EDGE ( 'NONE', *, *, #520, .F. ) ;
#69 = DIRECTION ( 'NONE',  ( 0.8384436163006373510, 0.5449883505954135066, -0.000000000000000000 ) ) ;
#70 = DIRECTION ( 'NONE',  ( 0.5449883505954140617, 0.8384436163006372400, -0.000000000000000000 ) ) ;
#71 = DIRECTION ( 'NONE',  ( 1.000000000000000000, 0.000000000000000000, 0.000000000000000000 ) ) ;
#72 = EDGE_CURVE ( 'NONE', #187, #565, #62, .T. ) ;
#73 = ORIENTED_EDGE ( 'NONE', *, *, #824, .T. ) ;
#74 = ORIENTED_EDGE ( 'NONE', *, *, #441, .F. ) ;
#75 = DIRECTION ( 'NONE',  ( -0.000000000000000000, 1.000000000000000000, -0.000000000000000000 ) ) ;
#76 = CARTESIAN_POINT ( 'NONE',  ( 1.500000000000000444, 0.6750000000000002665, 0.000000000000000000 ) ) ;
#77 = DIRECTION ( 'NONE',  ( -0.000000000000000000, 1.000000000000000000, -0.000000000000000000 ) ) ;
#78 = DIRECTION ( 'NONE',  ( 0.000000000000000000, 0.000000000000000000, 1.000000000000000000 ) ) ;
#79 = EDGE_CURVE ( 'NONE', #90, #367, #319, .T. ) ;
#80 = PLANE ( 'NONE',  #244 ) ;
#81 = LINE ( 'NONE', #135, #359 ) ;
#82 = CIRCLE ( 'NONE', #646, 0.1349999999999999256 ) ;
#83 = CARTESIAN_POINT ( 'NONE',  ( 1.200000000000000400, 0.6750000000000002665, 0.2500000000000003886 ) ) ;
#84 = VECTOR ( 'NONE', #530, 39.37007874015748143 ) ;
#85 = AXIS2_PLACEMENT_3D ( 'NONE', #762, #690, #750 ) ;
#86 = EDGE_LOOP ( 'NONE', ( #784, #228, #102, #988 ) ) ;
#87 = DIRECTION ( 'NONE',  ( 1.000000000000000000, 0.000000000000000000, 0.000000000000000000 ) ) ;
#88 = DIRECTION ( 'NONE',  ( -0.000000000000000000, 1.000000000000000000, -0.000000000000000000 ) ) ;
#89 = DIRECTION ( 'NONE',  ( -1.000000000000000000, 0.000000000000000000, 0.000000000000000000 ) ) ;
#90 = VERTEX_POINT ( 'NONE', #684 ) ;
#91 = EDGE_CURVE ( 'NONE', #261, #476, #768, .T. ) ;
#92 = CARTESIAN_POINT ( 'NONE',  ( -1.199999999999999956, 0.6750000000000002665, 0.2500000000000003886 ) ) ;
#93 = EDGE_CURVE ( 'NONE', #535, #238, #446, .T. ) ;
#94 =( NAMED_UNIT ( * ) SI_UNIT ( $, .STERADIAN. ) SOLID_ANGLE_UNIT ( ) );
#95 = DIRECTION ( 'NONE',  ( 1.000000000000000000, 0.000000000000000000, 0.000000000000000000 ) ) ;
#96 = ORIENTED_EDGE ( 'NONE', *, *, #123, .F. ) ;
#97 = VECTOR ( 'NONE', #462, 39.37007874015748854 ) ;
#98 = AXIS2_PLACEMENT_3D ( 'NONE', #621, #391, #691 ) ;
#99 = CARTESIAN_POINT ( 'NONE',  ( -0.4999999999999996114, -1.324999999999999734, 0.5000000000000000000 ) ) ;
#100 = FACE_OUTER_BOUND ( 'NONE', #318, .T. ) ;
#101 = DIRECTION ( 'NONE',  ( -1.000000000000000000, 0.000000000000000000, 0.000000000000000000 ) ) ;
#102 = ORIENTED_EDGE ( 'NONE', *, *, #180, .T. ) ;
#103 = CARTESIAN_POINT ( 'NONE',  ( 0.4867538916940105653, 0.6750000000000002665, 0.000000000000000000 ) ) ;
#104 = ORIENTED_EDGE ( 'NONE', *, *, #837, .F. ) ;
#105 = EDGE_CURVE ( 'NONE', #193, #503, #748, .T. ) ;
#106 = CYLINDRICAL_SURFACE ( 'NONE', #588, 0.1349999999999999811 ) ;
#107 = VECTOR ( 'NONE', #341, 39.37007874015748143 ) ;
#108 = FACE_BOUND ( 'NONE', #580, .T. ) ;
#109 = DIRECTION ( 'NONE',  ( 0.000000000000000000, 0.000000000000000000, 1.000000000000000000 ) ) ;
#110 = EDGE_CURVE ( 'NONE', #984, #825, #692, .T. ) ;
#111 = DIRECTION ( 'NONE',  ( 0.000000000000000000, 0.000000000000000000, 1.000000000000000000 ) ) ;
#112 = AXIS2_PLACEMENT_3D ( 'NONE', #332, #648, #109 ) ;
#113 = CONICAL_SURFACE ( 'NONE', #209, 0.07474999999999976108, 1.029744258676652091 ) ;
#114 = CARTESIAN_POINT ( 'NONE',  ( -2.640305645427999046E-16, -0.07499999999999960865, 0.1752500000000001279 ) ) ;
#115 = ORIENTED_EDGE ( 'NONE', *, *, #872, .F. ) ;
#116 = AXIS2_PLACEMENT_3D ( 'NONE', #83, #862, #397 ) ;
#117 = ORIENTED_EDGE ( 'NONE', *, *, #72, .F. ) ;
#118 = EDGE_LOOP ( 'NONE', ( #945, #887, #694 ) ) ;
#119 = EDGE_LOOP ( 'NONE', ( #387, #229, #915, #169 ) ) ;
#120 = DIRECTION ( 'NONE',  ( -0.000000000000000000, 1.000000000000000000, -0.000000000000000000 ) ) ;
#121 = VERTEX_POINT ( 'NONE', #61 ) ;
#122 = EDGE_CURVE ( 'NONE', #720, #138, #986, .T. ) ;
#123 = EDGE_CURVE ( 'NONE', #565, #187, #394, .T. ) ;
#124 = FACE_OUTER_BOUND ( 'NONE', #504, .T. ) ;
#125 = ORIENTED_EDGE ( 'NONE', *, *, #631, .F. ) ;
#126 = AXIS2_PLACEMENT_3D ( 'NONE', #151, #688, #388 ) ;
#127 = CARTESIAN_POINT ( 'NONE',  ( -1.199999999999999956, -0.07499999999999960865, 0.2500000000000003886 ) ) ;
#128 = ORIENTED_EDGE ( 'NONE', *, *, #747, .F. ) ;
#129 = AXIS2_PLACEMENT_3D ( 'NONE', #852, #392, #704 ) ;
#130 = DIRECTION ( 'NONE',  ( 0.000000000000000000, 0.5150380749100561539, 0.8571673007021108903 ) ) ;
#131 = ORIENTED_EDGE ( 'NONE', *, *, #687, .T. ) ;
#132 = EDGE_CURVE ( 'NONE', #138, #261, #916, .T. ) ;
#133 = CARTESIAN_POINT ( 'NONE',  ( 1.200000000000000400, 0.6750000000000002665, 0.2500000000000003886 ) ) ;
#134 = ORIENTED_EDGE ( 'NONE', *, *, #197, .T. ) ;
#135 = CARTESIAN_POINT ( 'NONE',  ( -1.499999999999999778, -0.6749999999999997113, 0.5000000000000000000 ) ) ;
#136 = ADVANCED_FACE ( 'NONE', ( #534 ), #924, .F. ) ;
#137 = DIRECTION ( 'NONE',  ( 0.000000000000000000, 0.000000000000000000, 1.000000000000000000 ) ) ;
#138 = VERTEX_POINT ( 'NONE', #343 ) ;
#139 = AXIS2_PLACEMENT_3D ( 'NONE', #231, #9, #71 ) ;
#140 = CARTESIAN_POINT ( 'NONE',  ( -0.8224999999999998979, -0.4250000000000001554, 0.000000000000000000 ) ) ;
#141 = DIRECTION ( 'NONE',  ( -1.000000000000000000, 0.000000000000000000, 0.000000000000000000 ) ) ;
#142 = CIRCLE ( 'NONE', #362, 0.07474999999999959455 ) ;
#143 = CYLINDRICAL_SURFACE ( 'NONE', #373, 0.07474999999999973332 ) ;
#144 = VERTEX_POINT ( 'NONE', #103 ) ;
#145 = CARTESIAN_POINT ( 'NONE',  ( 1.200000000000000400, -0.07499999999999960865, 0.3247500000000001497 ) ) ;
#146 = CARTESIAN_POINT ( 'NONE',  ( -0.8224999999999998979, 0.07499999999999988620, 0.000000000000000000 ) ) ;
#147 = PLANE ( 'NONE',  #553 ) ;
#148 = EDGE_LOOP ( 'NONE', ( #950, #270, #60, #374 ) ) ;
#149 = LENGTH_MEASURE_WITH_UNIT ( LENGTH_MEASURE( 0.02539999999999999897 ), #323 );
#150 = EDGE_LOOP ( 'NONE', ( #759, #602, #822, #594 ) ) ;
#152 = EDGE_CURVE ( 'NONE', #552, #896, #402, .T. ) ;
#151 = CARTESIAN_POINT ( 'NONE',  ( 1.200000000000000400, 0.6750000000000002665, 0.2500000000000003886 ) ) ;
#153 = ORIENTED_EDGE ( 'NONE', *, *, #522, .T. ) ;
#154 = FACE_OUTER_BOUND ( 'NONE', #408, .T. ) ;
#155 = CARTESIAN_POINT ( 'NONE',  ( -0.4867538916940105653, 0.6750000000000002665, 0.000000000000000000 ) ) ;
#156 = CYLINDRICAL_SURFACE ( 'NONE', #116, 0.07474999999999962230 ) ;
#157 = EDGE_LOOP ( 'NONE', ( #117, #96 ) ) ;
#158 = AXIS2_PLACEMENT_3D ( 'NONE', #170, #574, #414 ) ;
#159 = VECTOR ( 'NONE', #354, 39.37007874015748143 ) ;
#160 = DIRECTION ( 'NONE',  ( -1.000000000000000000, 0.000000000000000000, 0.000000000000000000 ) ) ;
#161 = ORIENTED_EDGE ( 'NONE', *, *, #191, .T. ) ;
#162 = EDGE_CURVE ( 'NONE', #58, #90, #705, .T. ) ;
#163 = CARTESIAN_POINT ( 'NONE',  ( 0.8882461083059893792, 0.6750000000000002665, 0.5000000000000000000 ) ) ;
#164 = EDGE_CURVE ( 'NONE', #855, #653, #248, .T. ) ;
#165 = CARTESIAN_POINT ( 'NONE',  ( -2.640305645427999046E-16, 0.6750000000000002665, 0.1752500000000002667 ) ) ;
#166 = DIRECTION ( 'NONE',  ( -0.000000000000000000, -0.000000000000000000, -1.000000000000000000 ) ) ;
#167 = DIRECTION ( 'NONE',  ( -0.000000000000000000, 1.000000000000000000, -0.000000000000000000 ) ) ;
#168 = CARTESIAN_POINT ( 'NONE',  ( -1.199999999999999956, 0.6750000000000002665, 0.2500000000000003886 ) ) ;
#169 = ORIENTED_EDGE ( 'NONE', *, *, #302, .T. ) ;
#170 = CARTESIAN_POINT ( 'NONE',  ( 2.731847993664263218E-16, -1.025000000000000355, 0.5000000000000000000 ) ) ;
#171 = DIRECTION ( 'NONE',  ( -0.000000000000000000, 1.000000000000000000, -0.000000000000000000 ) ) ;
#172 = AXIS2_PLACEMENT_3D ( 'NONE', #961, #735, #807 ) ;
#173 = DIRECTION ( 'NONE',  ( 0.8384436163006371290, -0.5449883505954139506, 0.000000000000000000 ) ) ;
#174 = ORIENTED_EDGE ( 'NONE', *, *, #975, .T. ) ;
#175 = CARTESIAN_POINT ( 'NONE',  ( -0.4999999999999996114, -1.324999999999999734, 0.5000000000000000000 ) ) ;
#176 = ORIENTED_EDGE ( 'NONE', *, *, #679, .F. ) ;
#177 = CARTESIAN_POINT ( 'NONE',  ( 1.200000000000000400, 0.6750000000000002665, 0.1752500000000008495 ) ) ;
#178 = FACE_OUTER_BOUND ( 'NONE', #467, .T. ) ;
#179 = DIRECTION ( 'NONE',  ( -1.000000000000000000, 0.000000000000000000, 0.000000000000000000 ) ) ;
#180 = EDGE_CURVE ( 'NONE', #628, #6, #558, .T. ) ;
#181 = ORIENTED_EDGE ( 'NONE', *, *, #215, .T. ) ;
#182 = FACE_OUTER_BOUND ( 'NONE', #423, .T. ) ;
#183 = DIRECTION ( 'NONE',  ( -1.000000000000000000, 0.000000000000000000, 0.000000000000000000 ) ) ;
#184 = UNCERTAINTY_MEASURE_WITH_UNIT (LENGTH_MEASURE( 1.000000000000000082E-05 ), #732, 'distance_accuracy_value', 'NONE');
#185 = ORIENTED_EDGE ( 'NONE', *, *, #870, .F. ) ;
#186 = DIRECTION ( 'NONE',  ( 0.000000000000000000, 0.000000000000000000, 1.000000000000000000 ) ) ;
#187 = VERTEX_POINT ( 'NONE', #420 ) ;
#188 = CARTESIAN_POINT ( 'NONE',  ( -0.6875000000000000000, 0.8240000000000002878, 0.000000000000000000 ) ) ;
#189 = DIRECTION ( 'NONE',  ( 1.000000000000000000, 0.000000000000000000, 0.000000000000000000 ) ) ;
#190 = AXIS2_PLACEMENT_3D ( 'NONE', #168, #340, #417 ) ;
#191 = EDGE_CURVE ( 'NONE', #121, #715, #31, .T. ) ;
#192 = LINE ( 'NONE', #652, #738 ) ;
#193 = VERTEX_POINT ( 'NONE', #27 ) ;
#194 = CIRCLE ( 'NONE', #455, 0.1349999999999999811 ) ;
#195 = CARTESIAN_POINT ( 'NONE',  ( -0.6875000000000000000, -0.4250000000000001554, 0.000000000000000000 ) ) ;
#196 = ORIENTED_EDGE ( 'NONE', *, *, #742, .F. ) ;
#197 = EDGE_CURVE ( 'NONE', #440, #618, #941, .T. ) ;
#198 = FACE_OUTER_BOUND ( 'NONE', #150, .T. ) ;
#199 = ORIENTED_EDGE ( 'NONE', *, *, #861, .T. ) ;
#200 = DIRECTION ( 'NONE',  ( 1.049727191138617093E-16, 0.5150380749100561539, -0.8571673007021108903 ) ) ;
#201 = CARTESIAN_POINT ( 'NONE',  ( -2.731847993664263218E-16, -0.07499999999999960865, 0.2500000000000000000 ) ) ;
#202 = EDGE_LOOP ( 'NONE', ( #333, #623 ) ) ;
#203 = APPLICATION_PROTOCOL_DEFINITION ( 'draft international standard', 'automotive_design', 1998, #291 ) ;
#204 = VERTEX_POINT ( 'NONE', #488 ) ;
#205 = ORIENTED_EDGE ( 'NONE', *, *, #861, .F. ) ;
#206 = ORIENTED_EDGE ( 'NONE', *, *, #590, .F. ) ;
#207 = AXIS2_PLACEMENT_3D ( 'NONE', #629, #954, #179 ) ;
#208 = EDGE_CURVE ( 'NONE', #552, #193, #946, .T. ) ;
#209 = AXIS2_PLACEMENT_3D ( 'NONE', #425, #947, #252 ) ;
#210 = LINE ( 'NONE', #816, #259 ) ;
#211 = ORIENTED_EDGE ( 'NONE', *, *, #761, .F. ) ;
#212 = AXIS2_PLACEMENT_3D ( 'NONE', #253, #873, #791 ) ;
#213 = FACE_OUTER_BOUND ( 'NONE', #339, .T. ) ;
#214 = PRODUCT_DEFINITION_SHAPE ( 'NONE', 'NONE',  #769 ) ;
#215 = EDGE_CURVE ( 'NONE', #503, #656, #644, .T. ) ;
#216 = FACE_OUTER_BOUND ( 'NONE', #386, .T. ) ;
#217 = ORIENTED_EDGE ( 'NONE', *, *, #917, .T. ) ;
#218 = ORIENTED_EDGE ( 'NONE', *, *, #490, .T. ) ;
#219 = CARTESIAN_POINT ( 'NONE',  ( 1.200000000000000400, 0.6750000000000002665, 0.3247499999999999831 ) ) ;
#220 = ORIENTED_EDGE ( 'NONE', *, *, #326, .T. ) ;
#221 = DIRECTION ( 'NONE',  ( 0.000000000000000000, 0.000000000000000000, 1.000000000000000000 ) ) ;
#222 = DIRECTION ( 'NONE',  ( -0.000000000000000000, 1.000000000000000000, -0.000000000000000000 ) ) ;
#223 = EDGE_CURVE ( 'NONE', #656, #398, #710, .T. ) ;
#224 = AXIS2_PLACEMENT_3D ( 'NONE', #334, #636, #89 ) ;
#225 = LINE ( 'NONE', #543, #372 ) ;
#226 = EDGE_CURVE ( 'NONE', #440, #204, #346, .T. ) ;
#227 = ORIENTED_EDGE ( 'NONE', *, *, #432, .F. ) ;
#228 = ORIENTED_EDGE ( 'NONE', *, *, #522, .F. ) ;
#229 = ORIENTED_EDGE ( 'NONE', *, *, #356, .F. ) ;
#230 = CARTESIAN_POINT ( 'NONE',  ( -0.8882461083059893792, 0.6750000000000002665, 0.5000000000000000000 ) ) ;
#231 = CARTESIAN_POINT ( 'NONE',  ( 2.731847993664263218E-16, -1.025000000000000355, 0.5000000000000000000 ) ) ;
#232 = DIRECTION ( 'NONE',  ( -0.000000000000000000, -0.000000000000000000, -1.000000000000000000 ) ) ;
#233 = VERTEX_POINT ( 'NONE', #793 ) ;
#234 = ORIENTED_EDGE ( 'NONE', *, *, #15, .T. ) ;
#235 = CARTESIAN_POINT ( 'NONE',  ( -0.8882461083059893792, 0.6750000000000002665, 0.5000000000000000000 ) ) ;
#236 = DIRECTION ( 'NONE',  ( 0.000000000000000000, 0.000000000000000000, 1.000000000000000000 ) ) ;
#237 = FILL_AREA_STYLE ('',( #996 ) ) ;
#238 = VERTEX_POINT ( 'NONE', #951 ) ;
#239 = EDGE_CURVE ( 'NONE', #470, #301, #475, .T. ) ;
#240 = VECTOR ( 'NONE', #624, 39.37007874015748143 ) ;
#241 = LINE ( 'NONE', #506, #632 ) ;
#242 = CIRCLE ( 'NONE', #875, 0.1349999999999999256 ) ;
#243 = CARTESIAN_POINT ( 'NONE',  ( 1.500000000000000444, 0.6750000000000002665, 0.5000000000000000000 ) ) ;
#244 = AXIS2_PLACEMENT_3D ( 'NONE', #835, #70, #471 ) ;
#245 = DIRECTION ( 'NONE',  ( -0.000000000000000000, -0.000000000000000000, -1.000000000000000000 ) ) ;
#246 = LINE ( 'NONE', #867, #633 ) ;
#247 = ORIENTED_EDGE ( 'NONE', *, *, #226, .F. ) ;
#248 = LINE ( 'NONE', #859, #370 ) ;
#249 = ADVANCED_FACE ( 'NONE', ( #262 ), #869, .F. ) ;
#250 = CARTESIAN_POINT ( 'NONE',  ( -0.5525000000000001021, 0.07499999999999990008, 0.000000000000000000 ) ) ;
#251 = CARTESIAN_POINT ( 'NONE',  ( 2.731847993664263218E-16, -1.025000000000000355, 0.000000000000000000 ) ) ;
#252 = DIRECTION ( 'NONE',  ( 0.000000000000000000, 0.000000000000000000, 1.000000000000000000 ) ) ;
#253 = CARTESIAN_POINT ( 'NONE',  ( -1.199999999999999956, -0.07499999999999960865, 0.2500000000000003886 ) ) ;
#254 = EDGE_LOOP ( 'NONE', ( #764, #834 ) ) ;
#255 = DIRECTION ( 'NONE',  ( 1.000000000000000000, 0.000000000000000000, 0.000000000000000000 ) ) ;
#256 = CARTESIAN_POINT ( 'NONE',  ( 0.1350000000000002587, -1.025000000000000355, 0.000000000000000000 ) ) ;
#257 = VECTOR ( 'NONE', #130, 39.37007874015748854 ) ;
#258 = ADVANCED_FACE ( 'NONE', ( #874 ), #493, .F. ) ;
#259 = VECTOR ( 'NONE', #967, 39.37007874015748143 ) ;
#260 = LINE ( 'NONE', #348, #601 ) ;
#261 = VERTEX_POINT ( 'NONE', #881 ) ;
#262 = FACE_OUTER_BOUND ( 'NONE', #448, .T. ) ;
#263 = CIRCLE ( 'NONE', #55, 0.1349999999999999256 ) ;
#264 = ORIENTED_EDGE ( 'NONE', *, *, #122, .T. ) ;
#265 = DIRECTION ( 'NONE',  ( -0.000000000000000000, -0.000000000000000000, -1.000000000000000000 ) ) ;
#266 = CYLINDRICAL_SURFACE ( 'NONE', #818, 0.2500000000000002220 ) ;
#267 = PRODUCT_RELATED_PRODUCT_CATEGORY ( 'part', '', ( #597 ) ) ;
#268 = DIRECTION ( 'NONE',  ( 0.000000000000000000, -0.000000000000000000, -1.000000000000000000 ) ) ;
#269 = LINE ( 'NONE', #798, #159 ) ;
#270 = ORIENTED_EDGE ( 'NONE', *, *, #730, .T. ) ;
#271 = FACE_OUTER_BOUND ( 'NONE', #848, .T. ) ;
#272 = EDGE_CURVE ( 'NONE', #367, #281, #891, .T. ) ;
#273 = CARTESIAN_POINT ( 'NONE',  ( -1.499999999999999778, -0.6749999999999997113, 0.5000000000000000000 ) ) ;
#274 = EDGE_CURVE ( 'NONE', #90, #847, #427, .T. ) ;
#275 = DIRECTION ( 'NONE',  ( 0.000000000000000000, 0.000000000000000000, 1.000000000000000000 ) ) ;
#276 = CARTESIAN_POINT ( 'NONE',  ( -0.6875000000000000000, 0.8240000000000002878, 0.5000000000000000000 ) ) ;
#277 = AXIS2_PLACEMENT_3D ( 'NONE', #775, #245, #41 ) ;
#278 = AXIS2_PLACEMENT_3D ( 'NONE', #763, #77, #236 ) ;
#279 = CARTESIAN_POINT ( 'NONE',  ( -0.6875000000000000000, 0.8240000000000002878, 0.5000000000000000000 ) ) ;
#280 = EDGE_LOOP ( 'NONE', ( #282, #264, #337 ) ) ;
#281 = VERTEX_POINT ( 'NONE', #306 ) ;
#282 = ORIENTED_EDGE ( 'NONE', *, *, #396, .F. ) ;
#283 = CARTESIAN_POINT ( 'NONE',  ( -0.6875000000000000000, -0.4250000000000001554, 0.5000000000000000000 ) ) ;
#284 = PRODUCT_CONTEXT ( 'NONE', #291, 'mechanical' ) ;
#285 = ORIENTED_EDGE ( 'NONE', *, *, #411, .T. ) ;
#286 = EDGE_CURVE ( 'NONE', #674, #605, #586, .T. ) ;
#287 = VECTOR ( 'NONE', #17, 39.37007874015748854 ) ;
#288 = ORIENTED_EDGE ( 'NONE', *, *, #824, .F. ) ;
#289 = CONICAL_SURFACE ( 'NONE', #525, 0.07474999999999985822, 1.029744258676652091 ) ;
#290 = AXIS2_PLACEMENT_3D ( 'NONE', #133, #829, #746 ) ;
#291 = APPLICATION_CONTEXT ( 'automotive_design' ) ;
#292 = VERTEX_POINT ( 'NONE', #772 ) ;
#293 = CYLINDRICAL_SURFACE ( 'NONE', #527, 0.1349999999999999256 ) ;
#294 = CARTESIAN_POINT ( 'NONE',  ( -1.199999999999999956, 0.6750000000000002665, 0.3247499999999998721 ) ) ;
#295 = ORIENTED_EDGE ( 'NONE', *, *, #93, .F. ) ;
#296 = EDGE_LOOP ( 'NONE', ( #128, #247, #134, #499 ) ) ;
#297 = CARTESIAN_POINT ( 'NONE',  ( -0.6875000000000000000, 0.07499999999999988620, 0.5000000000000000000 ) ) ;
#298 = DIRECTION ( 'NONE',  ( -1.000000000000000000, 0.000000000000000000, 0.000000000000000000 ) ) ;
#299 = CARTESIAN_POINT ( 'NONE',  ( -0.1349999999999997313, -1.025000000000000355, 0.5000000000000000000 ) ) ;
#300 = DIRECTION ( 'NONE',  ( 0.000000000000000000, 0.000000000000000000, 1.000000000000000000 ) ) ;
#301 = VERTEX_POINT ( 'NONE', #1000 ) ;
#302 = EDGE_CURVE ( 'NONE', #847, #281, #321, .T. ) ;
#303 = VERTEX_POINT ( 'NONE', #836 ) ;
#304 = EDGE_CURVE ( 'NONE', #292, #855, #81, .T. ) ;
#305 = FACE_OUTER_BOUND ( 'NONE', #749, .T. ) ;
#306 = CARTESIAN_POINT ( 'NONE',  ( -0.8882461083059893792, 0.6750000000000002665, 0.000000000000000000 ) ) ;
#307 = ORIENTED_EDGE ( 'NONE', *, *, #428, .F. ) ;
#308 = ORIENTED_EDGE ( 'NONE', *, *, #91, .T. ) ;
#309 = DIRECTION ( 'NONE',  ( -0.000000000000000000, -0.000000000000000000, -1.000000000000000000 ) ) ;
#310 = ORIENTED_EDGE ( 'NONE', *, *, #590, .T. ) ;
#311 = AXIS2_PLACEMENT_3D ( 'NONE', #2, #393, #371 ) ;
#312 = AXIS2_PLACEMENT_3D ( 'NONE', #201, #442, #740 ) ;
#313 = VECTOR ( 'NONE', #910, 39.37007874015748143 ) ;
#314 = DIRECTION ( 'NONE',  ( 1.000000000000000000, 0.000000000000000000, 0.000000000000000000 ) ) ;
#315 = VERTEX_POINT ( 'NONE', #994 ) ;
#316 = ADVANCED_FACE ( 'NONE', ( #385 ), #751, .F. ) ;
#317 = CARTESIAN_POINT ( 'NONE',  ( 1.200000000000000400, -0.07499999999999960865, 0.1752500000000005720 ) ) ;
#318 = EDGE_LOOP ( 'NONE', ( #815, #660, #125, #699 ) ) ;
#319 = LINE ( 'NONE', #399, #240 ) ;
#320 = ORIENTED_EDGE ( 'NONE', *, *, #593, .F. ) ;
#321 = LINE ( 'NONE', #235, #712 ) ;
#322 = CARTESIAN_POINT ( 'NONE',  ( 1.200000000000000178, -0.1199143312723097848, 0.2500000000000003886 ) ) ;
#323 =( LENGTH_UNIT ( ) NAMED_UNIT ( * ) SI_UNIT ( $, .METRE. ) );
#324 = ORIENTED_EDGE ( 'NONE', *, *, #536, .T. ) ;
#326 = EDGE_CURVE ( 'NONE', #674, #301, #681, .T. ) ;
#325 = DIRECTION ( 'NONE',  ( -0.000000000000000000, -0.000000000000000000, -1.000000000000000000 ) ) ;
#327 = AXIS2_PLACEMENT_3D ( 'NONE', #188, #439, #968 ) ;
#328 = DIRECTION ( 'NONE',  ( 0.000000000000000000, 0.000000000000000000, 1.000000000000000000 ) ) ;
#329 = CONICAL_SURFACE ( 'NONE', #677, 0.07474999999999976108, 1.029744258676652091 ) ;
#330 = CARTESIAN_POINT ( 'NONE',  ( -1.499999999999999778, 0.6750000000000002665, 0.5000000000000000000 ) ) ;
#331 = CIRCLE ( 'NONE', #942, 0.2500000000000002220 ) ;
#332 = CARTESIAN_POINT ( 'NONE',  ( -1.199999999999999956, -0.07499999999999960865, 0.2500000000000003886 ) ) ;
#333 = ORIENTED_EDGE ( 'NONE', *, *, #91, .F. ) ;
#334 = CARTESIAN_POINT ( 'NONE',  ( -0.6875000000000000000, 0.07499999999999988620, 0.5000000000000000000 ) ) ;
#335 = DIRECTION ( 'NONE',  ( 0.000000000000000000, 0.000000000000000000, 1.000000000000000000 ) ) ;
#336 = EDGE_CURVE ( 'NONE', #6, #921, #614, .T. ) ;
#337 = ORIENTED_EDGE ( 'NONE', *, *, #626, .T. ) ;
#338 = DIRECTION ( 'NONE',  ( -0.000000000000000000, 1.000000000000000000, -0.000000000000000000 ) ) ;
#339 = EDGE_LOOP ( 'NONE', ( #288, #443, #792, #613 ) ) ;
#340 = DIRECTION ( 'NONE',  ( -0.000000000000000000, 1.000000000000000000, -0.000000000000000000 ) ) ;
#341 = DIRECTION ( 'NONE',  ( -0.000000000000000000, -0.000000000000000000, -1.000000000000000000 ) ) ;
#342 = ORIENTED_EDGE ( 'NONE', *, *, #679, .T. ) ;
#343 = CARTESIAN_POINT ( 'NONE',  ( 1.200000000000000400, -0.07499999999999960865, 0.3247500000000001497 ) ) ;
#344 = ORIENTED_EDGE ( 'NONE', *, *, #894, .T. ) ;
#345 = DIRECTION ( 'NONE',  ( 0.000000000000000000, 1.000000000000000000, 0.000000000000000000 ) ) ;
#346 = CIRCLE ( 'NONE', #908, 0.07474999999999976108 ) ;
#347 = CIRCLE ( 'NONE', #540, 0.1349999999999999256 ) ;
#348 = CARTESIAN_POINT ( 'NONE',  ( 0.8882461083059896012, 0.6750000000000002665, 0.5000000000000000000 ) ) ;
#349 = CIRCLE ( 'NONE', #912, 0.1349999999999999811 ) ;
#350 = DIRECTION ( 'NONE',  ( 1.000000000000000000, 0.000000000000000000, -0.000000000000000000 ) ) ;
#351 = DIRECTION ( 'NONE',  ( 0.000000000000000000, 0.000000000000000000, 1.000000000000000000 ) ) ;
#352 = DIRECTION ( 'NONE',  ( -0.000000000000000000, -0.000000000000000000, -1.000000000000000000 ) ) ;
#353 = EDGE_CURVE ( 'NONE', #715, #121, #695, .T. ) ;
#354 = DIRECTION ( 'NONE',  ( -1.000000000000000000, -0.000000000000000000, -0.000000000000000000 ) ) ;
#355 = CARTESIAN_POINT ( 'NONE',  ( 0.8224999999999993427, -0.4249999999999991007, 0.5000000000000000000 ) ) ;
#356 = EDGE_CURVE ( 'NONE', #292, #604, #225, .T. ) ;
#357 = ORIENTED_EDGE ( 'NONE', *, *, #987, .T. ) ;
#358 = DIRECTION ( 'NONE',  ( -0.000000000000000000, -0.000000000000000000, -1.000000000000000000 ) ) ;
#359 = VECTOR ( 'NONE', #450, 39.37007874015748143 ) ;
#360 = AXIS2_PLACEMENT_3D ( 'NONE', #919, #465, #221 ) ;
#361 = EDGE_LOOP ( 'NONE', ( #307, #539, #378, #308 ) ) ;
#362 = AXIS2_PLACEMENT_3D ( 'NONE', #38, #885, #335 ) ;
#363 = CARTESIAN_POINT ( 'NONE',  ( 0.6874999999999994449, -0.4249999999999991007, 0.5000000000000000000 ) ) ;
#364 = CARTESIAN_POINT ( 'NONE',  ( -0.6875000000000000000, -0.4250000000000001554, 0.5000000000000000000 ) ) ;
#365 = ORIENTED_EDGE ( 'NONE', *, *, #780, .F. ) ;
#366 = ADVANCED_FACE ( 'NONE', ( #458, #845 ), #147, .F. ) ;
#367 = VERTEX_POINT ( 'NONE', #155 ) ;
#368 = CARTESIAN_POINT ( 'NONE',  ( 1.500000000000000444, -0.6749999999999997113, 0.5000000000000000000 ) ) ;
#369 = EDGE_LOOP ( 'NONE', ( #324, #492, #736, #777 ) ) ;
#370 = VECTOR ( 'NONE', #325, 39.37007874015748143 ) ;
#371 = DIRECTION ( 'NONE',  ( -1.000000000000000000, 0.000000000000000000, 0.000000000000000000 ) ) ;
#372 = VECTOR ( 'NONE', #541, 39.37007874015748143 ) ;
#373 = AXIS2_PLACEMENT_3D ( 'NONE', #781, #88, #850 ) ;
#374 = ORIENTED_EDGE ( 'NONE', *, *, #180, .F. ) ;
#375 = CARTESIAN_POINT ( 'NONE',  ( 0.4999999999999990563, -1.324999999999999734, 0.000000000000000000 ) ) ;
#376 = DIRECTION ( 'NONE',  ( -1.000000000000000000, 0.000000000000000000, 0.000000000000000000 ) ) ;
#377 = ADVANCED_FACE ( 'NONE', ( #4 ), #289, .F. ) ;
#378 = ORIENTED_EDGE ( 'NONE', *, *, #132, .T. ) ;
#379 = ORIENTED_EDGE ( 'NONE', *, *, #536, .F. ) ;
#381 = EDGE_CURVE ( 'NONE', #438, #765, #82, .T. ) ;
#380 = DIRECTION ( 'NONE',  ( 1.000000000000000000, 0.000000000000000000, 0.000000000000000000 ) ) ;
#382 = FACE_OUTER_BOUND ( 'NONE', #86, .T. ) ;
#383 = ORIENTED_EDGE ( 'NONE', *, *, #837, .T. ) ;
#384 = CARTESIAN_POINT ( 'NONE',  ( 0.5524999999999995470, -0.4249999999999991007, 0.5000000000000000000 ) ) ;
#385 = FACE_OUTER_BOUND ( 'NONE', #985, .T. ) ;
#386 = EDGE_LOOP ( 'NONE', ( #461, #482, #685, #596 ) ) ;
#387 = ORIENTED_EDGE ( 'NONE', *, *, #432, .T. ) ;
#388 = DIRECTION ( 'NONE',  ( 0.000000000000000000, 0.000000000000000000, 1.000000000000000000 ) ) ;
#389 = LINE ( 'NONE', #978, #497 ) ;
#390 = DIRECTION ( 'NONE',  ( 0.000000000000000000, -0.000000000000000000, -1.000000000000000000 ) ) ;
#391 = DIRECTION ( 'NONE',  ( 0.000000000000000000, -1.000000000000000000, 0.000000000000000000 ) ) ;
#392 = DIRECTION ( 'NONE',  ( 0.000000000000000000, 0.000000000000000000, 1.000000000000000000 ) ) ;
#393 = DIRECTION ( 'NONE',  ( 0.000000000000000000, 0.000000000000000000, 1.000000000000000000 ) ) ;
#394 = CIRCLE ( 'NONE', #675, 0.1349999999999999256 ) ;
#395 = VECTOR ( 'NONE', #69, 39.37007874015748854 ) ;
#396 = EDGE_CURVE ( 'NONE', #720, #857, #241, .T. ) ;
#397 = DIRECTION ( 'NONE',  ( 0.000000000000000000, 0.000000000000000000, 1.000000000000000000 ) ) ;
#398 = VERTEX_POINT ( 'NONE', #943 ) ;
#399 = CARTESIAN_POINT ( 'NONE',  ( -0.4867538916940105653, 0.6750000000000002665, 0.5000000000000000000 ) ) ;
#400 = ADVANCED_FACE ( 'NONE', ( #779 ), #113, .F. ) ;
#401 = CARTESIAN_POINT ( 'NONE',  ( 1.500000000000000444, -0.6749999999999997113, 0.5000000000000000000 ) ) ;
#402 = LINE ( 'NONE', #175, #953 ) ;
#403 = DIRECTION ( 'NONE',  ( -1.000000000000000000, -0.000000000000000000, -0.000000000000000000 ) ) ;
#404 = DIRECTION ( 'NONE',  ( 0.000000000000000000, 0.000000000000000000, 1.000000000000000000 ) ) ;
#405 = ORIENTED_EDGE ( 'NONE', *, *, #650, .F. ) ;
#406 = DIMENSIONAL_EXPONENTS ( 1.000000000000000000, 0.000000000000000000, 0.000000000000000000, 0.000000000000000000, 0.000000000000000000, 0.000000000000000000, 0.000000000000000000 ) ;
#407 = DIRECTION ( 'NONE',  ( 0.000000000000000000, 1.000000000000000000, 0.000000000000000000 ) ) ;
#408 = EDGE_LOOP ( 'NONE', ( #344, #584, #196, #45 ) ) ;
#409 = CONICAL_SURFACE ( 'NONE', #112, 0.07474999999999976108, 1.029744258676652091 ) ;
#410 = AXIS2_PLACEMENT_3D ( 'NONE', #537, #222, #404 ) ;
#411 = EDGE_CURVE ( 'NONE', #604, #653, #577, .T. ) ;
#412 = CARTESIAN_POINT ( 'NONE',  ( -2.640305645427999046E-16, 0.6750000000000002665, 0.1752500000000004055 ) ) ;
#413 = ORIENTED_EDGE ( 'NONE', *, *, #593, .T. ) ;
#414 = DIRECTION ( 'NONE',  ( -1.000000000000000000, 0.000000000000000000, 0.000000000000000000 ) ) ;
#415 = EDGE_CURVE ( 'NONE', #984, #715, #36, .T. ) ;
#416 = EDGE_LOOP ( 'NONE', ( #205, #174, #220, #669 ) ) ;
#417 = DIRECTION ( 'NONE',  ( 0.000000000000000000, 0.000000000000000000, 1.000000000000000000 ) ) ;
#418 = DIRECTION ( 'NONE',  ( 0.000000000000000000, 0.000000000000000000, 1.000000000000000000 ) ) ;
#419 = ORIENTED_EDGE ( 'NONE', *, *, #105, .T. ) ;
#420 = CARTESIAN_POINT ( 'NONE',  ( -0.8224999999999998979, 0.07499999999999988620, 0.5000000000000000000 ) ) ;
#421 = CARTESIAN_POINT ( 'NONE',  ( -2.731847993664263218E-16, -0.07499999999999960865, 0.2500000000000000000 ) ) ;
#422 = DIRECTION ( 'NONE',  ( -0.000000000000000000, -0.000000000000000000, -1.000000000000000000 ) ) ;
#423 = EDGE_LOOP ( 'NONE', ( #206, #814, #615, #185, #979, #841, #227, #930, #882, #758 ) ) ;
#424 = CARTESIAN_POINT ( 'NONE',  ( 0.8882461083059896012, 0.6750000000000002665, 0.000000000000000000 ) ) ;
#425 = CARTESIAN_POINT ( 'NONE',  ( 1.200000000000000400, -0.07499999999999960865, 0.2500000000000003886 ) ) ;
#426 = CARTESIAN_POINT ( 'NONE',  ( -2.731847993664263218E-16, -0.07499999999999960865, 0.2500000000000000000 ) ) ;
#427 = CIRCLE ( 'NONE', #18, 0.2500000000000000555 ) ;
#428 = EDGE_CURVE ( 'NONE', #857, #476, #790, .T. ) ;
#429 = VECTOR ( 'NONE', #831, 39.37007874015748854 ) ;
#430 = CARTESIAN_POINT ( 'NONE',  ( -1.499999999999999778, -0.6749999999999997113, 0.000000000000000000 ) ) ;
#431 = ORIENTED_EDGE ( 'NONE', *, *, #223, .F. ) ;
#432 = EDGE_CURVE ( 'NONE', #281, #604, #796, .T. ) ;
#433 = LENGTH_MEASURE_WITH_UNIT ( LENGTH_MEASURE( 0.02539999999999999897 ), #806 );
#434 = CARTESIAN_POINT ( 'NONE',  ( 1.200000000000000400, -0.07499999999999960865, 0.2500000000000003886 ) ) ;
#435 = CYLINDRICAL_SURFACE ( 'NONE', #971, 0.1349999999999999256 ) ;
#436 = DIRECTION ( 'NONE',  ( 0.000000000000000000, 0.000000000000000000, 1.000000000000000000 ) ) ;
#437 = PLANE ( 'NONE',  #858 ) ;
#438 = VERTEX_POINT ( 'NONE', #250 ) ;
#439 = DIRECTION ( 'NONE',  ( -0.000000000000000000, -0.000000000000000000, -1.000000000000000000 ) ) ;
#440 = VERTEX_POINT ( 'NONE', #883 ) ;
#441 = EDGE_CURVE ( 'NONE', #974, #618, #477, .T. ) ;
#442 = DIRECTION ( 'NONE',  ( -0.000000000000000000, 1.000000000000000000, -0.000000000000000000 ) ) ;
#443 = ORIENTED_EDGE ( 'NONE', *, *, #428, .T. ) ;
#444 = ORIENTED_EDGE ( 'NONE', *, *, #274, .T. ) ;
#445 = APPLICATION_CONTEXT ( 'automotive_design' ) ;
#446 = LINE ( 'NONE', #842, #980 ) ;
#447 = ADVANCED_FACE ( 'NONE', ( #721 ), #28, .F. ) ;
#448 = EDGE_LOOP ( 'NONE', ( #523, #199, #925, #460 ) ) ;
#449 = PLANE ( 'NONE',  #85 ) ;
#450 = DIRECTION ( 'NONE',  ( -0.000000000000000000, -1.000000000000000000, -0.000000000000000000 ) ) ;
#451 = EDGE_LOOP ( 'NONE', ( #3, #728 ) ) ;
#452 = VECTOR ( 'NONE', #166, 39.37007874015748143 ) ;
#453 = ORIENTED_EDGE ( 'NONE', *, *, #239, .T. ) ;
#454 = CIRCLE ( 'NONE', #278, 0.07474999999999948352 ) ;
#455 = AXIS2_PLACEMENT_3D ( 'NONE', #952, #111, #508 ) ;
#456 = ORIENTED_EDGE ( 'NONE', *, *, #353, .T. ) ;
#457 = PLANE ( 'NONE',  #840 ) ;
#458 = FACE_BOUND ( 'NONE', #868, .T. ) ;
#459 = FACE_OUTER_BOUND ( 'NONE', #754, .T. ) ;
#460 = ORIENTED_EDGE ( 'NONE', *, *, #326, .F. ) ;
#461 = ORIENTED_EDGE ( 'NONE', *, *, #870, .T. ) ;
#462 = DIRECTION ( 'NONE',  ( 0.000000000000000000, 0.5150380749100561539, 0.8571673007021108903 ) ) ;
#463 = ORIENTED_EDGE ( 'NONE', *, *, #966, .T. ) ;
#464 = CARTESIAN_POINT ( 'NONE',  ( 0.4867538916940105653, 0.6750000000000002665, 0.5000000000000000000 ) ) ;
#465 = DIRECTION ( 'NONE',  ( -0.000000000000000000, 1.000000000000000000, -0.000000000000000000 ) ) ;
#466 = DIRECTION ( 'NONE',  ( -1.000000000000000000, -0.000000000000000000, -0.000000000000000000 ) ) ;
#467 = EDGE_LOOP ( 'NONE', ( #285, #901, #743, #880 ) ) ;
#468 = ORIENTED_EDGE ( 'NONE', *, *, #197, .F. ) ;
#469 = ADVANCED_FACE ( 'NONE', ( #100 ), #706, .F. ) ;
#470 = VERTEX_POINT ( 'NONE', #256 ) ;
#471 = DIRECTION ( 'NONE',  ( -0.8384436163006371290, 0.5449883505954139506, 0.000000000000000000 ) ) ;
#472 = AXIS2_PLACEMENT_3D ( 'NONE', #583, #137, #47 ) ;
#473 = CARTESIAN_POINT ( 'NONE',  ( -0.6875000000000000000, 0.07499999999999988620, 0.000000000000000000 ) ) ;
#474 = ORIENTED_EDGE ( 'NONE', *, *, #742, .T. ) ;
#475 = CIRCLE ( 'NONE', #600, 0.1349999999999999811 ) ;
#476 = VERTEX_POINT ( 'NONE', #177 ) ;
#477 = CIRCLE ( 'NONE', #190, 0.07474999999999948352 ) ;
#478 = EDGE_CURVE ( 'NONE', #589, #745, #501, .T. ) ;
#479 = VECTOR ( 'NONE', #567, 39.37007874015748854 ) ;
#480 = DIRECTION ( 'NONE',  ( 1.000000000000000000, 0.000000000000000000, 0.000000000000000000 ) ) ;
#481 = CARTESIAN_POINT ( 'NONE',  ( -2.731847993664263218E-16, -0.07499999999999960865, 0.3247499999999998721 ) ) ;
#482 = ORIENTED_EDGE ( 'NONE', *, *, #490, .F. ) ;
#483 = CARTESIAN_POINT ( 'NONE',  ( -1.499999999999999778, -0.6749999999999997113, 0.5000000000000000000 ) ) ;
#484 = DIRECTION ( 'NONE',  ( -1.000000000000000000, -0.000000000000000000, -0.000000000000000000 ) ) ;
#485 = DIRECTION ( 'NONE',  ( -0.000000000000000000, 1.000000000000000000, -0.000000000000000000 ) ) ;
#486 = DIRECTION ( 'NONE',  ( -0.000000000000000000, 1.000000000000000000, -0.000000000000000000 ) ) ;
#487 = FACE_OUTER_BOUND ( 'NONE', #568, .T. ) ;
#488 = CARTESIAN_POINT ( 'NONE',  ( -1.199999999999999956, -0.07499999999999960865, 0.1752500000000005720 ) ) ;
#489 = ADVANCED_FACE ( 'NONE', ( #182, #108, #625, #554, #903 ), #804, .F. ) ;
#490 = EDGE_CURVE ( 'NONE', #193, #817, #210, .T. ) ;
#491 = SURFACE_STYLE_USAGE ( .BOTH. , #542 ) ;
#492 = ORIENTED_EDGE ( 'NONE', *, *, #93, .T. ) ;
#493 = CYLINDRICAL_SURFACE ( 'NONE', #752, 0.1349999999999999256 ) ;
#494 = VECTOR ( 'NONE', #609, 39.37007874015748143 ) ;
#495 = DIRECTION ( 'NONE',  ( 0.000000000000000000, 0.000000000000000000, 1.000000000000000000 ) ) ;
#496 = AXIS2_PLACEMENT_3D ( 'NONE', #195, #275, #962 ) ;
#497 = VECTOR ( 'NONE', #64, 39.37007874015748143 ) ;
#498 = LINE ( 'NONE', #889, #479 ) ;
#499 = ORIENTED_EDGE ( 'NONE', *, *, #650, .T. ) ;
#500 = DIRECTION ( 'NONE',  ( 0.000000000000000000, 0.000000000000000000, 1.000000000000000000 ) ) ;
#501 = LINE ( 'NONE', #936, #63 ) ;
#502 = DIRECTION ( 'NONE',  ( 1.000000000000000000, 0.000000000000000000, 0.000000000000000000 ) ) ;
#503 = VERTEX_POINT ( 'NONE', #654 ) ;
#504 = EDGE_LOOP ( 'NONE', ( #547, #782, #518, #218 ) ) ;
#505 = EDGE_CURVE ( 'NONE', #828, #238, #526, .T. ) ;
#506 = CARTESIAN_POINT ( 'NONE',  ( 1.200000000000000400, -0.07499999999999960865, 0.1752500000000005720 ) ) ;
#507 = FACE_OUTER_BOUND ( 'NONE', #516, .T. ) ;
#508 = DIRECTION ( 'NONE',  ( 1.000000000000000000, 0.000000000000000000, 0.000000000000000000 ) ) ;
#509 = LINE ( 'NONE', #114, #724 ) ;
#510 = ADVANCED_FACE ( 'NONE', ( #809 ), #587, .F. ) ;
#511 = VECTOR ( 'NONE', #95, 39.37007874015748143 ) ;
#512 = AXIS2_PLACEMENT_3D ( 'NONE', #92, #171, #495 ) ;
#513 =( GEOMETRIC_REPRESENTATION_CONTEXT ( 3 ) GLOBAL_UNCERTAINTY_ASSIGNED_CONTEXT ( ( #641 ) ) GLOBAL_UNIT_ASSIGNED_CONTEXT ( ( #786, #929, #94 ) ) REPRESENTATION_CONTEXT ( 'NONE', 'WORKASPACE' ) );
#514 = FACE_OUTER_BOUND ( 'NONE', #119, .T. ) ;
#515 = EDGE_LOOP ( 'NONE', ( #365, #611, #357, #678 ) ) ;
#516 = EDGE_LOOP ( 'NONE', ( #320, #217, #153 ) ) ;
#517 = LINE ( 'NONE', #430, #649 ) ;
#518 = ORIENTED_EDGE ( 'NONE', *, *, #105, .F. ) ;
#519 = ORIENTED_EDGE ( 'NONE', *, *, #191, .F. ) ;
#520 = EDGE_CURVE ( 'NONE', #535, #303, #347, .T. ) ;
#521 = SHAPE_DEFINITION_REPRESENTATION ( #214, #582 ) ;
#522 = EDGE_CURVE ( 'NONE', #628, #233, #753, .T. ) ;
#523 = ORIENTED_EDGE ( 'NONE', *, *, #286, .T. ) ;
#524 = ORIENTED_EDGE ( 'NONE', *, *, #304, .T. ) ;
#525 = AXIS2_PLACEMENT_3D ( 'NONE', #421, #485, #23 ) ;
#526 = CIRCLE ( 'NONE', #496, 0.1349999999999999256 ) ;
#527 = AXIS2_PLACEMENT_3D ( 'NONE', #283, #603, #599 ) ;
#528 = ORIENTED_EDGE ( 'NONE', *, *, #689, .T. ) ;
#529 = ORIENTED_EDGE ( 'NONE', *, *, #520, .T. ) ;
#530 = DIRECTION ( 'NONE',  ( -0.000000000000000000, -0.000000000000000000, -1.000000000000000000 ) ) ;
#531 = APPLICATION_PROTOCOL_DEFINITION ( 'draft international standard', 'automotive_design', 1998, #445 ) ;
#532 = CARTESIAN_POINT ( 'NONE',  ( -1.199999999999999956, -0.07499999999999960865, 0.1752500000000005720 ) ) ;
#533 = ORIENTED_EDGE ( 'NONE', *, *, #761, .T. ) ;
#534 = FACE_OUTER_BOUND ( 'NONE', #515, .T. ) ;
#535 = VERTEX_POINT ( 'NONE', #57 ) ;
#536 = EDGE_CURVE ( 'NONE', #303, #535, #242, .T. ) ;
#537 = CARTESIAN_POINT ( 'NONE',  ( -2.731847993664263218E-16, -0.07499999999999960865, 0.2500000000000000000 ) ) ;
#538 = AXIS2_PLACEMENT_3D ( 'NONE', #426, #963, #351 ) ;
#539 = ORIENTED_EDGE ( 'NONE', *, *, #626, .F. ) ;
#540 = AXIS2_PLACEMENT_3D ( 'NONE', #665, #592, #899 ) ;
#541 = DIRECTION ( 'NONE',  ( -0.000000000000000000, -0.000000000000000000, -1.000000000000000000 ) ) ;
#542 = SURFACE_SIDE_STYLE ('',( #550 ) ) ;
#543 = CARTESIAN_POINT ( 'NONE',  ( -1.499999999999999778, 0.6750000000000002665, 0.5000000000000000000 ) ) ;
#544 = FACE_OUTER_BOUND ( 'NONE', #148, .T. ) ;
#545 = DIRECTION ( 'NONE',  ( -0.000000000000000000, -0.000000000000000000, -1.000000000000000000 ) ) ;
#546 = ADVANCED_FACE ( 'NONE', ( #382 ), #890, .F. ) ;
#547 = ORIENTED_EDGE ( 'NONE', *, *, #5, .T. ) ;
#548 = DIRECTION ( 'NONE',  ( -0.000000000000000000, -0.000000000000000000, -1.000000000000000000 ) ) ;
#549 = LINE ( 'NONE', #401, #739 ) ;
#550 = SURFACE_STYLE_FILL_AREA ( #237 ) ;
#551 = CLOSED_SHELL ( 'NONE', ( #703, #377, #801, #561, #960, #29, #249, #469, #51, #794, #579, #489, #672, #37, #366, #888, #982, #907, #773, #805, #606, #833, #258, #316, #136, #934, #510, #447, #400, #711, #46, #546 ) ) ;
#552 = VERTEX_POINT ( 'NONE', #661 ) ;
#553 = AXIS2_PLACEMENT_3D ( 'NONE', #767, #697, #390 ) ;
#554 = FACE_BOUND ( 'NONE', #451, .T. ) ;
#555 = LINE ( 'NONE', #243, #667 ) ;
#556 = LINE ( 'NONE', #863, #452 ) ;
#557 = EDGE_CURVE ( 'NONE', #476, #261, #32, .T. ) ;
#558 = LINE ( 'NONE', #569, #802 ) ;
#559 = ORIENTED_EDGE ( 'NONE', *, *, #872, .T. ) ;
#560 = CARTESIAN_POINT ( 'NONE',  ( -0.6875000000000000000, 0.07499999999999988620, 0.5000000000000000000 ) ) ;
#561 = ADVANCED_FACE ( 'NONE', ( #682 ), #329, .F. ) ;
#562 = DIRECTION ( 'NONE',  ( -1.000000000000000000, 0.000000000000000000, 0.000000000000000000 ) ) ;
#563 = ORIENTED_EDGE ( 'NONE', *, *, #854, .T. ) ;
#564 = DIRECTION ( 'NONE',  ( 0.000000000000000000, 0.000000000000000000, 1.000000000000000000 ) ) ;
#565 = VERTEX_POINT ( 'NONE', #610 ) ;
#566 = DIRECTION ( 'NONE',  ( -0.000000000000000000, -1.000000000000000000, -0.000000000000000000 ) ) ;
#567 = DIRECTION ( 'NONE',  ( 0.000000000000000000, 0.5150380749100561539, 0.8571673007021108903 ) ) ;
#568 = EDGE_LOOP ( 'NONE', ( #865, #741, #463 ) ) ;
#569 = CARTESIAN_POINT ( 'NONE',  ( -2.731847993664263218E-16, 0.6750000000000002665, 0.3247499999999997056 ) ) ;
#570 = CIRCLE ( 'NONE', #277, 0.2500000000000002220 ) ;
#571 = AXIS2_PLACEMENT_3D ( 'NONE', #886, #965, #186 ) ;
#572 = VECTOR ( 'NONE', #926, 39.37007874015748143 ) ;
#573 = DIRECTION ( 'NONE',  ( -1.000000000000000000, 0.000000000000000000, 0.000000000000000000 ) ) ;
#574 = DIRECTION ( 'NONE',  ( -0.000000000000000000, -0.000000000000000000, -1.000000000000000000 ) ) ;
#575 = EDGE_CURVE ( 'NONE', #144, #367, #269, .T. ) ;
#576 = VERTEX_POINT ( 'NONE', #424 ) ;
#577 = LINE ( 'NONE', #14, #972 ) ;
#578 = CARTESIAN_POINT ( 'NONE',  ( 0.6875000000000000000, 0.8240000000000003988, 0.5000000000000000000 ) ) ;
#579 = ADVANCED_FACE ( 'NONE', ( #723, #920, #33, #733, #44 ), #970, .T. ) ;
#580 = EDGE_LOOP ( 'NONE', ( #657, #563 ) ) ;
#581 = CARTESIAN_POINT ( 'NONE',  ( 1.500000000000000444, -0.6749999999999997113, 0.000000000000000000 ) ) ;
#582 = ADVANCED_BREP_SHAPE_REPRESENTATION ( 'Outer gantry bracket, lower', ( #878, #472 ), #905 ) ;
#583 = CARTESIAN_POINT ( 'NONE',  ( 0.000000000000000000, 0.000000000000000000, 0.000000000000000000 ) ) ;
#584 = ORIENTED_EDGE ( 'NONE', *, *, #152, .F. ) ;
#585 = ORIENTED_EDGE ( 'NONE', *, *, #336, .F. ) ;
#586 = CIRCLE ( 'NONE', #139, 0.1349999999999999811 ) ;
#587 = CONICAL_SURFACE ( 'NONE', #909, 0.07474999999999976108, 1.029744258676652091 ) ;
#588 = AXIS2_PLACEMENT_3D ( 'NONE', #30, #959, #573 ) ;
#589 = VERTEX_POINT ( 'NONE', #48 ) ;
#590 = EDGE_CURVE ( 'NONE', #745, #576, #192, .T. ) ;
#591 = DIRECTION ( 'NONE',  ( 0.000000000000000000, 0.000000000000000000, 1.000000000000000000 ) ) ;
#592 = DIRECTION ( 'NONE',  ( 0.000000000000000000, 0.000000000000000000, 1.000000000000000000 ) ) ;
#593 = EDGE_CURVE ( 'NONE', #315, #233, #509, .T. ) ;
#594 = ORIENTED_EDGE ( 'NONE', *, *, #79, .T. ) ;
#595 = ORIENTED_EDGE ( 'NONE', *, *, #664, .T. ) ;
#596 = ORIENTED_EDGE ( 'NONE', *, *, #152, .T. ) ;
#597 = PRODUCT ( 'Outer gantry bracket, lower', 'Outer gantry bracket, lower', '', ( #284 ) ) ;
#598 = DIRECTION ( 'NONE',  ( 1.000000000000000000, 0.000000000000000000, 0.000000000000000000 ) ) ;
#599 = DIRECTION ( 'NONE',  ( -1.000000000000000000, 0.000000000000000000, 0.000000000000000000 ) ) ;
#600 = AXIS2_PLACEMENT_3D ( 'NONE', #251, #564, #255 ) ;
#601 = VECTOR ( 'NONE', #352, 39.37007874015748143 ) ;
#602 = ORIENTED_EDGE ( 'NONE', *, *, #302, .F. ) ;
#603 = DIRECTION ( 'NONE',  ( -0.000000000000000000, -0.000000000000000000, -1.000000000000000000 ) ) ;
#604 = VERTEX_POINT ( 'NONE', #813 ) ;
#605 = VERTEX_POINT ( 'NONE', #729 ) ;
#606 = ADVANCED_FACE ( 'NONE', ( #124 ), #437, .F. ) ;
#607 = ORIENTED_EDGE ( 'NONE', *, *, #966, .F. ) ;
#608 = DIRECTION ( 'NONE',  ( 0.000000000000000000, 0.000000000000000000, 1.000000000000000000 ) ) ;
#609 = DIRECTION ( 'NONE',  ( -0.000000000000000000, -0.000000000000000000, -1.000000000000000000 ) ) ;
#610 = CARTESIAN_POINT ( 'NONE',  ( -0.5525000000000001021, 0.07499999999999990008, 0.5000000000000000000 ) ) ;
#611 = ORIENTED_EDGE ( 'NONE', *, *, #123, .T. ) ;
#612 = CARTESIAN_POINT ( 'NONE',  ( 1.200000000000000400, -0.07499999999999960865, 0.2500000000000003886 ) ) ;
#613 = ORIENTED_EDGE ( 'NONE', *, *, #132, .F. ) ;
#614 = CIRCLE ( 'NONE', #360, 0.07474999999999959455 ) ;
#615 = ORIENTED_EDGE ( 'NONE', *, *, #5, .F. ) ;
#616 = CARTESIAN_POINT ( 'NONE',  ( 1.500000000000000444, -0.6749999999999997113, 0.5000000000000000000 ) ) ;
#617 = AXIS2_PLACEMENT_3D ( 'NONE', #279, #591, #350 ) ;
#618 = VERTEX_POINT ( 'NONE', #294 ) ;
#619 = CYLINDRICAL_SURFACE ( 'NONE', #290, 0.07474999999999962230 ) ;
#620 = EDGE_CURVE ( 'NONE', #900, #204, #913, .T. ) ;
#621 = CARTESIAN_POINT ( 'NONE',  ( 0.8882461083059893792, 0.6750000000000002665, 0.5000000000000000000 ) ) ;
#622 = CARTESIAN_POINT ( 'NONE',  ( 1.200000000000000400, -0.07499999999999960865, 0.2500000000000003886 ) ) ;
#623 = ORIENTED_EDGE ( 'NONE', *, *, #557, .F. ) ;
#624 = DIRECTION ( 'NONE',  ( -0.000000000000000000, -0.000000000000000000, -1.000000000000000000 ) ) ;
#625 = FACE_BOUND ( 'NONE', #683, .T. ) ;
#626 = EDGE_CURVE ( 'NONE', #138, #857, #713, .T. ) ;
#627 = FACE_BOUND ( 'NONE', #202, .T. ) ;
#628 = VERTEX_POINT ( 'NONE', #481 ) ;
#629 = CARTESIAN_POINT ( 'NONE',  ( 0.6874999999999994449, -0.4249999999999991007, 0.000000000000000000 ) ) ;
#630 = VECTOR ( 'NONE', #484, 39.37007874015748143 ) ;
#631 = EDGE_CURVE ( 'NONE', #765, #438, #981, .T. ) ;
#632 = VECTOR ( 'NONE', #957, 39.37007874015748854 ) ;
#633 = VECTOR ( 'NONE', #545, 39.37007874015748143 ) ;
#634 = CARTESIAN_POINT ( 'NONE',  ( 1.500000000000000444, 0.6750000000000002665, 0.5000000000000000000 ) ) ;
#635 = DIRECTION ( 'NONE',  ( -0.000000000000000000, -0.000000000000000000, -1.000000000000000000 ) ) ;
#636 = DIRECTION ( 'NONE',  ( -0.000000000000000000, -0.000000000000000000, -1.000000000000000000 ) ) ;
#637 = CYLINDRICAL_SURFACE ( 'NONE', #771, 0.07474999999999962230 ) ;
#638 = ORIENTED_EDGE ( 'NONE', *, *, #747, .T. ) ;
#639 = CARTESIAN_POINT ( 'NONE',  ( -1.199999999999999956, 0.6750000000000002665, 0.3247499999999999831 ) ) ;
#640 = DIRECTION ( 'NONE',  ( -1.000000000000000000, 0.000000000000000000, 0.000000000000000000 ) ) ;
#641 = UNCERTAINTY_MEASURE_WITH_UNIT (LENGTH_MEASURE( 1.000000000000000082E-05 ), #786, 'distance_accuracy_value', 'NONE');
#642 = EDGE_CURVE ( 'NONE', #847, #292, #1002, .T. ) ;
#643 = CARTESIAN_POINT ( 'NONE',  ( -0.4999999999999996114, -1.324999999999999734, 0.000000000000000000 ) ) ;
#644 = LINE ( 'NONE', #783, #788 ) ;
#645 = VECTOR ( 'NONE', #719, 39.37007874015748143 ) ;
#646 = AXIS2_PLACEMENT_3D ( 'NONE', #799, #328, #785 ) ;
#647 = CARTESIAN_POINT ( 'NONE',  ( 0.8224999999999993427, -0.4249999999999991007, 0.5000000000000000000 ) ) ;
#648 = DIRECTION ( 'NONE',  ( -0.000000000000000000, 1.000000000000000000, -0.000000000000000000 ) ) ;
#649 = VECTOR ( 'NONE', #173, 39.37007874015748143 ) ;
#650 = EDGE_CURVE ( 'NONE', #618, #974, #454, .T. ) ;
#651 = DIRECTION ( 'NONE',  ( 0.000000000000000000, -1.000000000000000000, 0.000000000000000000 ) ) ;
#652 = CARTESIAN_POINT ( 'NONE',  ( 0.8882461083059893792, 0.6750000000000002665, 0.000000000000000000 ) ) ;
#653 = VERTEX_POINT ( 'NONE', #698 ) ;
#654 = CARTESIAN_POINT ( 'NONE',  ( 1.500000000000000444, -0.6749999999999997113, 0.5000000000000000000 ) ) ;
#655 = CARTESIAN_POINT ( 'NONE',  ( -1.199999999999999956, 0.6750000000000002665, 0.1752500000000008495 ) ) ;
#656 = VERTEX_POINT ( 'NONE', #634 ) ;
#657 = ORIENTED_EDGE ( 'NONE', *, *, #505, .T. ) ;
#658 = ORIENTED_EDGE ( 'NONE', *, *, #854, .F. ) ;
#659 = CARTESIAN_POINT ( 'NONE',  ( -0.8224999999999998979, 0.07499999999999988620, 0.5000000000000000000 ) ) ;
#660 = ORIENTED_EDGE ( 'NONE', *, *, #780, .T. ) ;
#661 = CARTESIAN_POINT ( 'NONE',  ( -0.4999999999999996114, -1.324999999999999734, 0.5000000000000000000 ) ) ;
#662 = ORIENTED_EDGE ( 'NONE', *, *, #223, .T. ) ;
#663 = DIRECTION ( 'NONE',  ( -1.000000000000000000, 0.000000000000000000, 0.000000000000000000 ) ) ;
#664 = EDGE_CURVE ( 'NONE', #233, #628, #839, .T. ) ;
#665 = CARTESIAN_POINT ( 'NONE',  ( -0.6875000000000000000, -0.4250000000000001554, 0.5000000000000000000 ) ) ;
#666 = VECTOR ( 'NONE', #75, 39.37007874015748143 ) ;
#667 = VECTOR ( 'NONE', #232, 39.37007874015748143 ) ;
#668 = CARTESIAN_POINT ( 'NONE',  ( 0.4867538916940105653, 0.6750000000000002665, 0.5000000000000000000 ) ) ;
#669 = ORIENTED_EDGE ( 'NONE', *, *, #239, .F. ) ;
#670 = CARTESIAN_POINT ( 'NONE',  ( -1.199999999999999956, 0.6750000000000002665, 0.1752500000000007108 ) ) ;
#671 =( NAMED_UNIT ( * ) PLANE_ANGLE_UNIT ( ) SI_UNIT ( $, .RADIAN. ) );
#672 = ADVANCED_FACE ( 'NONE', ( #627, #459 ), #838, .F. ) ;
#673 = PRODUCT_DEFINITION_FORMATION_WITH_SPECIFIED_SOURCE ( 'Symmetric', '', #597, .NOT_KNOWN. ) ;
#674 = VERTEX_POINT ( 'NONE', #928 ) ;
#675 = AXIS2_PLACEMENT_3D ( 'NONE', #297, #78, #380 ) ;
#676 = DIRECTION ( 'NONE',  ( -0.5449883505954136176, 0.8384436163006374620, 0.000000000000000000 ) ) ;
#677 = AXIS2_PLACEMENT_3D ( 'NONE', #434, #991, #300 ) ;
#678 = ORIENTED_EDGE ( 'NONE', *, *, #381, .F. ) ;
#679 = EDGE_CURVE ( 'NONE', #656, #745, #555, .T. ) ;
#680 = DIRECTION ( 'NONE',  ( 0.000000000000000000, 0.000000000000000000, 1.000000000000000000 ) ) ;
#681 = LINE ( 'NONE', #299, #494 ) ;
#682 = FACE_OUTER_BOUND ( 'NONE', #904, .T. ) ;
#683 = EDGE_LOOP ( 'NONE', ( #161, #456 ) ) ;
#684 = CARTESIAN_POINT ( 'NONE',  ( -0.4867538916940105653, 0.6750000000000002665, 0.5000000000000000000 ) ) ;
#685 = ORIENTED_EDGE ( 'NONE', *, *, #208, .F. ) ;
#686 = DIRECTION ( 'NONE',  ( -0.000000000000000000, 1.000000000000000000, -0.000000000000000000 ) ) ;
#687 = EDGE_CURVE ( 'NONE', #503, #589, #549, .T. ) ;
#688 = DIRECTION ( 'NONE',  ( -0.000000000000000000, 1.000000000000000000, -0.000000000000000000 ) ) ;
#689 = EDGE_CURVE ( 'NONE', #825, #984, #263, .T. ) ;
#690 = DIRECTION ( 'NONE',  ( 0.000000000000000000, 1.000000000000000000, 0.000000000000000000 ) ) ;
#691 = DIRECTION ( 'NONE',  ( 0.000000000000000000, -0.000000000000000000, -1.000000000000000000 ) ) ;
#692 = CIRCLE ( 'NONE', #311, 0.1349999999999999256 ) ;
#693 = CARTESIAN_POINT ( 'NONE',  ( -0.4999999999999996114, -1.324999999999999734, 0.000000000000000000 ) ) ;
#694 = ORIENTED_EDGE ( 'NONE', *, *, #226, .T. ) ;
#695 = CIRCLE ( 'NONE', #955, 0.1349999999999999256 ) ;
#696 = VECTOR ( 'NONE', #776, 39.37007874015748143 ) ;
#697 = DIRECTION ( 'NONE',  ( 0.000000000000000000, -1.000000000000000000, 0.000000000000000000 ) ) ;
#698 = CARTESIAN_POINT ( 'NONE',  ( -1.499999999999999778, -0.6749999999999997113, 0.000000000000000000 ) ) ;
#699 = ORIENTED_EDGE ( 'NONE', *, *, #987, .F. ) ;
#700 = EDGE_LOOP ( 'NONE', ( #662, #559, #997, #444, #43, #524, #474, #846, #419, #181 ) ) ;
#701 = DIRECTION ( 'NONE',  ( -0.000000000000000000, -0.000000000000000000, -1.000000000000000000 ) ) ;
#702 = FACE_OUTER_BOUND ( 'NONE', #361, .T. ) ;
#703 = ADVANCED_FACE ( 'NONE', ( #544 ), #143, .F. ) ;
#704 = DIRECTION ( 'NONE',  ( 1.000000000000000000, 0.000000000000000000, 0.000000000000000000 ) ) ;
#705 = LINE ( 'NONE', #12, #645 ) ;
#706 = CYLINDRICAL_SURFACE ( 'NONE', #52, 0.1349999999999999256 ) ;
#707 = DIRECTION ( 'NONE',  ( 0.000000000000000000, 0.000000000000000000, 1.000000000000000000 ) ) ;
#708 = CYLINDRICAL_SURFACE ( 'NONE', #911, 0.2500000000000000555 ) ;
#709 = ORIENTED_EDGE ( 'NONE', *, *, #110, .T. ) ;
#711 = ADVANCED_FACE ( 'NONE', ( #702 ), #156, .F. ) ;
#710 = LINE ( 'NONE', #163, #630 ) ;
#712 = VECTOR ( 'NONE', #548, 39.37007874015748143 ) ;
#713 = CIRCLE ( 'NONE', #892, 0.07474999999999976108 ) ;
#714 = FACE_OUTER_BOUND ( 'NONE', #54, .T. ) ;
#715 = VERTEX_POINT ( 'NONE', #757 ) ;
#716 = DIRECTION ( 'NONE',  ( -0.000000000000000000, -0.000000000000000000, -1.000000000000000000 ) ) ;
#717 = DIRECTION ( 'NONE',  ( -0.000000000000000000, -0.000000000000000000, -1.000000000000000000 ) ) ;
#718 = FACE_BOUND ( 'NONE', #8, .T. ) ;
#719 = DIRECTION ( 'NONE',  ( -1.000000000000000000, -0.000000000000000000, -0.000000000000000000 ) ) ;
#720 = VERTEX_POINT ( 'NONE', #322 ) ;
#721 = FACE_OUTER_BOUND ( 'NONE', #296, .T. ) ;
#722 = CARTESIAN_POINT ( 'NONE',  ( 2.731847993664263218E-16, -1.025000000000000355, 0.5000000000000000000 ) ) ;
#723 = FACE_BOUND ( 'NONE', #157, .T. ) ;
#724 = VECTOR ( 'NONE', #200, 39.37007874015748854 ) ;
#725 = DIRECTION ( 'NONE',  ( -0.000000000000000000, 1.000000000000000000, -0.000000000000000000 ) ) ;
#726 = MECHANICAL_DESIGN_GEOMETRIC_PRESENTATION_REPRESENTATION (  '', ( #895 ), #513 ) ;
#727 = FACE_OUTER_BOUND ( 'NONE', #416, .T. ) ;
#728 = ORIENTED_EDGE ( 'NONE', *, *, #381, .T. ) ;
#729 = CARTESIAN_POINT ( 'NONE',  ( 0.1350000000000002587, -1.025000000000000355, 0.5000000000000000000 ) ) ;
#730 = EDGE_CURVE ( 'NONE', #233, #921, #937, .T. ) ;
#731 = CARTESIAN_POINT ( 'NONE',  ( -2.731847993664263218E-16, 0.6750000000000002665, 0.3247499999999995945 ) ) ;
#732 =( CONVERSION_BASED_UNIT ( 'INCH', #433 ) LENGTH_UNIT ( ) NAMED_UNIT ( #406 ) );
#733 = FACE_BOUND ( 'NONE', #13, .T. ) ;
#734 = EDGE_LOOP ( 'NONE', ( #977, #453 ) ) ;
#735 = DIRECTION ( 'NONE',  ( -0.000000000000000000, 1.000000000000000000, -0.000000000000000000 ) ) ;
#736 = ORIENTED_EDGE ( 'NONE', *, *, #505, .F. ) ;
#737 = CONICAL_SURFACE ( 'NONE', #538, 0.07474999999999985822, 1.029744258676652091 ) ;
#738 = VECTOR ( 'NONE', #897, 39.37007874015748143 ) ;
#739 = VECTOR ( 'NONE', #856, 39.37007874015748143 ) ;
#740 = DIRECTION ( 'NONE',  ( 0.000000000000000000, 0.000000000000000000, 1.000000000000000000 ) ) ;
#741 = ORIENTED_EDGE ( 'NONE', *, *, #620, .T. ) ;
#742 = EDGE_CURVE ( 'NONE', #855, #552, #844, .T. ) ;
#743 = ORIENTED_EDGE ( 'NONE', *, *, #304, .F. ) ;
#744 = DIRECTION ( 'NONE',  ( 1.000000000000000000, 0.000000000000000000, -0.000000000000000000 ) ) ;
#745 = VERTEX_POINT ( 'NONE', #76 ) ;
#746 = DIRECTION ( 'NONE',  ( 0.000000000000000000, 0.000000000000000000, 1.000000000000000000 ) ) ;
#747 = EDGE_CURVE ( 'NONE', #204, #974, #59, .T. ) ;
#748 = LINE ( 'NONE', #616, #395 ) ;
#749 = EDGE_LOOP ( 'NONE', ( #810, #176, #973, #131 ) ) ;
#750 = DIRECTION ( 'NONE',  ( 0.000000000000000000, -0.000000000000000000, 1.000000000000000000 ) ) ;
#751 = CYLINDRICAL_SURFACE ( 'NONE', #50, 0.1349999999999999256 ) ;
#752 = AXIS2_PLACEMENT_3D ( 'NONE', #787, #716, #25 ) ;
#753 = CIRCLE ( 'NONE', #312, 0.07474999999999985822 ) ;
#754 = EDGE_LOOP ( 'NONE', ( #310, #853, #431, #342 ) ) ;
#755 = EDGE_LOOP ( 'NONE', ( #935, #821, #893, #533 ) ) ;
#756 = LINE ( 'NONE', #384, #572 ) ;
#757 = CARTESIAN_POINT ( 'NONE',  ( 0.8224999999999993427, -0.4249999999999991007, 0.000000000000000000 ) ) ;
#758 = ORIENTED_EDGE ( 'NONE', *, *, #15, .F. ) ;
#759 = ORIENTED_EDGE ( 'NONE', *, *, #272, .T. ) ;
#761 = EDGE_CURVE ( 'NONE', #58, #144, #826, .T. ) ;
#760 = CARTESIAN_POINT ( 'NONE',  ( -0.6875000000000000000, 0.07499999999999988620, 0.5000000000000000000 ) ) ;
#762 = CARTESIAN_POINT ( 'NONE',  ( -0.4999999999999996114, -1.324999999999999734, 0.5000000000000000000 ) ) ;
#763 = CARTESIAN_POINT ( 'NONE',  ( -1.199999999999999956, 0.6750000000000002665, 0.2500000000000003886 ) ) ;
#764 = ORIENTED_EDGE ( 'NONE', *, *, #286, .F. ) ;
#765 = VERTEX_POINT ( 'NONE', #146 ) ;
#766 = ORIENTED_EDGE ( 'NONE', *, *, #917, .F. ) ;
#767 = CARTESIAN_POINT ( 'NONE',  ( -0.4867538916940105653, 0.6750000000000002665, 0.5000000000000000000 ) ) ;
#768 = CIRCLE ( 'NONE', #126, 0.07474999999999948352 ) ;
#769 = PRODUCT_DEFINITION ( 'General', '', #673, #800 ) ;
#770 = DIRECTION ( 'NONE',  ( 0.000000000000000000, 0.000000000000000000, 1.000000000000000000 ) ) ;
#771 = AXIS2_PLACEMENT_3D ( 'NONE', #24, #949, #969 ) ;
#772 = CARTESIAN_POINT ( 'NONE',  ( -1.499999999999999778, 0.6750000000000002665, 0.5000000000000000000 ) ) ;
#773 = ADVANCED_FACE ( 'NONE', ( #154 ), #80, .F. ) ;
#774 = CARTESIAN_POINT ( 'NONE',  ( 0.6874999999999994449, -0.4249999999999991007, 0.5000000000000000000 ) ) ;
#775 = CARTESIAN_POINT ( 'NONE',  ( 0.6875000000000000000, 0.8240000000000003988, 0.000000000000000000 ) ) ;
#776 = DIRECTION ( 'NONE',  ( 1.000000000000000000, 0.000000000000000000, 0.000000000000000000 ) ) ;
#777 = ORIENTED_EDGE ( 'NONE', *, *, #22, .F. ) ;
#778 = DIRECTION ( 'NONE',  ( -0.000000000000000000, -0.000000000000000000, -1.000000000000000000 ) ) ;
#779 = FACE_OUTER_BOUND ( 'NONE', #280, .T. ) ;
#780 = EDGE_CURVE ( 'NONE', #565, #438, #389, .T. ) ;
#781 = CARTESIAN_POINT ( 'NONE',  ( -2.731847993664263218E-16, 0.6750000000000002665, 0.2500000000000000000 ) ) ;
#782 = ORIENTED_EDGE ( 'NONE', *, *, #687, .F. ) ;
#783 = CARTESIAN_POINT ( 'NONE',  ( 1.500000000000000444, -0.6749999999999997113, 0.5000000000000000000 ) ) ;
#784 = ORIENTED_EDGE ( 'NONE', *, *, #730, .F. ) ;
#785 = DIRECTION ( 'NONE',  ( 1.000000000000000000, 0.000000000000000000, 0.000000000000000000 ) ) ;
#786 =( CONVERSION_BASED_UNIT ( 'INCH', #149 ) LENGTH_UNIT ( ) NAMED_UNIT ( #931 ) );
#787 = CARTESIAN_POINT ( 'NONE',  ( -0.6875000000000000000, -0.4250000000000001554, 0.5000000000000000000 ) ) ;
#788 = VECTOR ( 'NONE', #407, 39.37007874015748143 ) ;
#789 = VECTOR ( 'NONE', #486, 39.37007874015748143 ) ;
#790 = LINE ( 'NONE', #871, #923 ) ;
#791 = DIRECTION ( 'NONE',  ( 0.000000000000000000, 0.000000000000000000, 1.000000000000000000 ) ) ;
#792 = ORIENTED_EDGE ( 'NONE', *, *, #557, .T. ) ;
#793 = CARTESIAN_POINT ( 'NONE',  ( -2.640305645427999046E-16, -0.07499999999999960865, 0.1752500000000001279 ) ) ;
#794 = ADVANCED_FACE ( 'NONE', ( #993 ), #293, .F. ) ;
#795 = EDGE_LOOP ( 'NONE', ( #295, #529, #49, #658 ) ) ;
#796 = LINE ( 'NONE', #877, #819 ) ;
#797 = DIRECTION ( 'NONE',  ( 0.000000000000000000, 0.000000000000000000, -1.000000000000000000 ) ) ;
#798 = CARTESIAN_POINT ( 'NONE',  ( -0.4867538916940105653, 0.6750000000000002665, 0.000000000000000000 ) ) ;
#799 = CARTESIAN_POINT ( 'NONE',  ( -0.6875000000000000000, 0.07499999999999988620, 0.000000000000000000 ) ) ;
#800 = PRODUCT_DEFINITION_CONTEXT ( 'detailed design', #445, 'design' ) ;
#801 = ADVANCED_FACE ( 'NONE', ( #213 ), #619, .F. ) ;
#802 = VECTOR ( 'NONE', #167, 39.37007874015748143 ) ;
#803 = AXIS2_PLACEMENT_3D ( 'NONE', #473, #10, #314 ) ;
#804 = PLANE ( 'NONE',  #1003 ) ;
#805 = ADVANCED_FACE ( 'NONE', ( #216 ), #449, .F. ) ;
#806 =( LENGTH_UNIT ( ) NAMED_UNIT ( * ) SI_UNIT ( $, .METRE. ) );
#807 = DIRECTION ( 'NONE',  ( 0.000000000000000000, 0.000000000000000000, 1.000000000000000000 ) ) ;
#808 = ORIENTED_EDGE ( 'NONE', *, *, #110, .F. ) ;
#809 = FACE_OUTER_BOUND ( 'NONE', #118, .T. ) ;
#810 = ORIENTED_EDGE ( 'NONE', *, *, #478, .T. ) ;
#811 = PLANE ( 'NONE',  #66 ) ;
#812 = EDGE_LOOP ( 'NONE', ( #234, #211, #115, #827 ) ) ;
#813 = CARTESIAN_POINT ( 'NONE',  ( -1.499999999999999778, 0.6750000000000002665, 0.000000000000000000 ) ) ;
#814 = ORIENTED_EDGE ( 'NONE', *, *, #478, .F. ) ;
#815 = ORIENTED_EDGE ( 'NONE', *, *, #72, .T. ) ;
#816 = CARTESIAN_POINT ( 'NONE',  ( 0.4999999999999990563, -1.324999999999999734, 0.5000000000000000000 ) ) ;
#817 = VERTEX_POINT ( 'NONE', #375 ) ;
#818 = AXIS2_PLACEMENT_3D ( 'NONE', #578, #884, #183 ) ;
#819 = VECTOR ( 'NONE', #403, 39.37007874015748143 ) ;
#820 = COLOUR_RGB ( '',0.7921568627450980005, 0.8196078431372548767, 0.9333333333333333481 ) ;
#821 = ORIENTED_EDGE ( 'NONE', *, *, #79, .F. ) ;
#822 = ORIENTED_EDGE ( 'NONE', *, *, #274, .F. ) ;
#823 = CARTESIAN_POINT ( 'NONE',  ( -1.199999999999999956, -0.07499999999999960865, 0.3247500000000001497 ) ) ;
#824 = EDGE_CURVE ( 'NONE', #857, #138, #876, .T. ) ;
#825 = VERTEX_POINT ( 'NONE', #999 ) ;
#826 = LINE ( 'NONE', #464, #84 ) ;
#827 = ORIENTED_EDGE ( 'NONE', *, *, #948, .T. ) ;
#828 = VERTEX_POINT ( 'NONE', #140 ) ;
#829 = DIRECTION ( 'NONE',  ( -0.000000000000000000, 1.000000000000000000, -0.000000000000000000 ) ) ;
#830 = CARTESIAN_POINT ( 'NONE',  ( -0.6875000000000000000, 0.8240000000000002878, 0.5000000000000000000 ) ) ;
#831 = DIRECTION ( 'NONE',  ( 1.049727191138617093E-16, 0.5150380749100561539, -0.8571673007021108903 ) ) ;
#832 = ORIENTED_EDGE ( 'NONE', *, *, #689, .F. ) ;
#833 = ADVANCED_FACE ( 'NONE', ( #305 ), #457, .F. ) ;
#834 = ORIENTED_EDGE ( 'NONE', *, *, #975, .F. ) ;
#835 = CARTESIAN_POINT ( 'NONE',  ( -1.499999999999999778, -0.6749999999999997113, 0.5000000000000000000 ) ) ;
#836 = CARTESIAN_POINT ( 'NONE',  ( -0.8224999999999998979, -0.4250000000000001554, 0.5000000000000000000 ) ) ;
#837 = EDGE_CURVE ( 'NONE', #825, #121, #756, .T. ) ;
#838 = PLANE ( 'NONE',  #98 ) ;
#839 = CIRCLE ( 'NONE', #410, 0.07474999999999985822 ) ;
#840 = AXIS2_PLACEMENT_3D ( 'NONE', #989, #298, #608 ) ;
#841 = ORIENTED_EDGE ( 'NONE', *, *, #411, .F. ) ;
#842 = CARTESIAN_POINT ( 'NONE',  ( -0.5525000000000001021, -0.4250000000000001554, 0.5000000000000000000 ) ) ;
#843 = ORIENTED_EDGE ( 'NONE', *, *, #441, .T. ) ;
#844 = LINE ( 'NONE', #918, #313 ) ;
#845 = FACE_OUTER_BOUND ( 'NONE', #755, .T. ) ;
#846 = ORIENTED_EDGE ( 'NONE', *, *, #208, .T. ) ;
#847 = VERTEX_POINT ( 'NONE', #230 ) ;
#848 = EDGE_LOOP ( 'NONE', ( #528, #992, #519, #104 ) ) ;
#849 = DIRECTION ( 'NONE',  ( -0.000000000000000000, 1.000000000000000000, -0.000000000000000000 ) ) ;
#850 = DIRECTION ( 'NONE',  ( 0.000000000000000000, 0.000000000000000000, 1.000000000000000000 ) ) ;
#851 = AXIS2_PLACEMENT_3D ( 'NONE', #26, #651, #268 ) ;
#852 = CARTESIAN_POINT ( 'NONE',  ( -0.6875000000000000000, -0.4250000000000001554, 0.000000000000000000 ) ) ;
#853 = ORIENTED_EDGE ( 'NONE', *, *, #948, .F. ) ;
#854 = EDGE_CURVE ( 'NONE', #238, #828, #860, .T. ) ;
#855 = VERTEX_POINT ( 'NONE', #483 ) ;
#856 = DIRECTION ( 'NONE',  ( -0.000000000000000000, -0.000000000000000000, -1.000000000000000000 ) ) ;
#857 = VERTEX_POINT ( 'NONE', #317 ) ;
#858 = AXIS2_PLACEMENT_3D ( 'NONE', #368, #676, #983 ) ;
#859 = CARTESIAN_POINT ( 'NONE',  ( -1.499999999999999778, -0.6749999999999997113, 0.5000000000000000000 ) ) ;
#860 = CIRCLE ( 'NONE', #129, 0.1349999999999999256 ) ;
#861 = EDGE_CURVE ( 'NONE', #605, #470, #246, .T. ) ;
#862 = DIRECTION ( 'NONE',  ( -0.000000000000000000, 1.000000000000000000, -0.000000000000000000 ) ) ;
#863 = CARTESIAN_POINT ( 'NONE',  ( -0.8224999999999998979, -0.4250000000000001554, 0.5000000000000000000 ) ) ;
#864 = PRESENTATION_STYLE_ASSIGNMENT (( #491 ) ) ;
#865 = ORIENTED_EDGE ( 'NONE', *, *, #67, .F. ) ;
#866 = DIRECTION ( 'NONE',  ( -0.000000000000000000, 1.000000000000000000, -0.000000000000000000 ) ) ;
#867 = CARTESIAN_POINT ( 'NONE',  ( 0.1350000000000002587, -1.025000000000000355, 0.5000000000000000000 ) ) ;
#868 = EDGE_LOOP ( 'NONE', ( #585, #39 ) ) ;
#869 = CYLINDRICAL_SURFACE ( 'NONE', #158, 0.1349999999999999811 ) ;
#870 = EDGE_CURVE ( 'NONE', #896, #817, #20, .T. ) ;
#871 = CARTESIAN_POINT ( 'NONE',  ( 1.200000000000000400, 0.6750000000000002665, 0.1752500000000007108 ) ) ;
#872 = EDGE_CURVE ( 'NONE', #398, #58, #331, .T. ) ;
#873 = DIRECTION ( 'NONE',  ( -0.000000000000000000, 1.000000000000000000, -0.000000000000000000 ) ) ;
#874 = FACE_OUTER_BOUND ( 'NONE', #795, .T. ) ;
#875 = AXIS2_PLACEMENT_3D ( 'NONE', #364, #976, #598 ) ;
#876 = CIRCLE ( 'NONE', #1, 0.07474999999999976108 ) ;
#877 = CARTESIAN_POINT ( 'NONE',  ( -1.499999999999999778, 0.6750000000000002665, 0.000000000000000000 ) ) ;
#878 = MANIFOLD_SOLID_BREP ( '#10-24 Tapped Hole1', #551 ) ;
#879 = PLANE ( 'NONE',  #851 ) ;
#880 = ORIENTED_EDGE ( 'NONE', *, *, #356, .T. ) ;
#881 = CARTESIAN_POINT ( 'NONE',  ( 1.200000000000000400, 0.6750000000000002665, 0.3247499999999998721 ) ) ;
#882 = ORIENTED_EDGE ( 'NONE', *, *, #575, .F. ) ;
#883 = CARTESIAN_POINT ( 'NONE',  ( -1.199999999999999956, -0.07499999999999960865, 0.3247500000000001497 ) ) ;
#884 = DIRECTION ( 'NONE',  ( -0.000000000000000000, -0.000000000000000000, -1.000000000000000000 ) ) ;
#885 = DIRECTION ( 'NONE',  ( -0.000000000000000000, 1.000000000000000000, -0.000000000000000000 ) ) ;
#886 = CARTESIAN_POINT ( 'NONE',  ( 1.200000000000000400, 0.6750000000000002665, 0.2500000000000003886 ) ) ;
#887 = ORIENTED_EDGE ( 'NONE', *, *, #67, .T. ) ;
#888 = ADVANCED_FACE ( 'NONE', ( #198 ), #708, .F. ) ;
#889 = CARTESIAN_POINT ( 'NONE',  ( -2.731847993664263218E-16, -0.07499999999999960865, 0.3247499999999998721 ) ) ;
#890 = CYLINDRICAL_SURFACE ( 'NONE', #172, 0.07474999999999973332 ) ;
#891 = CIRCLE ( 'NONE', #327, 0.2500000000000000555 ) ;
#892 = AXIS2_PLACEMENT_3D ( 'NONE', #622, #16, #932 ) ;
#893 = ORIENTED_EDGE ( 'NONE', *, *, #162, .F. ) ;
#894 = EDGE_CURVE ( 'NONE', #653, #896, #517, .T. ) ;
#895 = STYLED_ITEM ( 'NONE', ( #864 ), #878 ) ;
#896 = VERTEX_POINT ( 'NONE', #643 ) ;
#897 = DIRECTION ( 'NONE',  ( -1.000000000000000000, -0.000000000000000000, -0.000000000000000000 ) ) ;
#898 = ORIENTED_EDGE ( 'NONE', *, *, #396, .T. ) ;
#899 = DIRECTION ( 'NONE',  ( 1.000000000000000000, 0.000000000000000000, 0.000000000000000000 ) ) ;
#900 = VERTEX_POINT ( 'NONE', #42 ) ;
#901 = ORIENTED_EDGE ( 'NONE', *, *, #164, .F. ) ;
#902 = LINE ( 'NONE', #823, #257 ) ;
#903 = FACE_BOUND ( 'NONE', #734, .T. ) ;
#904 = EDGE_LOOP ( 'NONE', ( #56, #898, #73 ) ) ;
#905 =( GEOMETRIC_REPRESENTATION_CONTEXT ( 3 ) GLOBAL_UNCERTAINTY_ASSIGNED_CONTEXT ( ( #184 ) ) GLOBAL_UNIT_ASSIGNED_CONTEXT ( ( #732, #671, #906 ) ) REPRESENTATION_CONTEXT ( 'NONE', 'WORKASPACE' ) );
#906 =( NAMED_UNIT ( * ) SI_UNIT ( $, .STERADIAN. ) SOLID_ANGLE_UNIT ( ) );
#907 = ADVANCED_FACE ( 'NONE', ( #178 ), #811, .F. ) ;
#908 = AXIS2_PLACEMENT_3D ( 'NONE', #21, #338, #500 ) ;
#909 = AXIS2_PLACEMENT_3D ( 'NONE', #127, #120, #436 ) ;
#910 = DIRECTION ( 'NONE',  ( 0.8384436163006371290, -0.5449883505954139506, 0.000000000000000000 ) ) ;
#911 = AXIS2_PLACEMENT_3D ( 'NONE', #276, #422, #101 ) ;
#912 = AXIS2_PLACEMENT_3D ( 'NONE', #722, #418, #189 ) ;
#913 = LINE ( 'NONE', #532, #429 ) ;
#914 = EDGE_CURVE ( 'NONE', #301, #470, #194, .T. ) ;
#915 = ORIENTED_EDGE ( 'NONE', *, *, #642, .F. ) ;
#916 = LINE ( 'NONE', #219, #666 ) ;
#917 = EDGE_CURVE ( 'NONE', #315, #628, #498, .T. ) ;
#918 = CARTESIAN_POINT ( 'NONE',  ( -1.499999999999999778, -0.6749999999999997113, 0.5000000000000000000 ) ) ;
#919 = CARTESIAN_POINT ( 'NONE',  ( -2.731847993664263218E-16, 0.6750000000000002665, 0.2500000000000000000 ) ) ;
#920 = FACE_BOUND ( 'NONE', #995, .T. ) ;
#921 = VERTEX_POINT ( 'NONE', #412 ) ;
#922 = CARTESIAN_POINT ( 'NONE',  ( 0.6874999999999994449, -0.4249999999999991007, 0.000000000000000000 ) ) ;
#923 = VECTOR ( 'NONE', #725, 39.37007874015748143 ) ;
#924 = CYLINDRICAL_SURFACE ( 'NONE', #224, 0.1349999999999999256 ) ;
#925 = ORIENTED_EDGE ( 'NONE', *, *, #914, .F. ) ;
#926 = DIRECTION ( 'NONE',  ( -0.000000000000000000, -0.000000000000000000, -1.000000000000000000 ) ) ;
#927 = DIRECTION ( 'NONE',  ( 0.000000000000000000, 0.000000000000000000, 1.000000000000000000 ) ) ;
#928 = CARTESIAN_POINT ( 'NONE',  ( -0.1349999999999997313, -1.025000000000000355, 0.5000000000000000000 ) ) ;
#929 =( NAMED_UNIT ( * ) PLANE_ANGLE_UNIT ( ) SI_UNIT ( $, .RADIAN. ) );
#930 = ORIENTED_EDGE ( 'NONE', *, *, #272, .F. ) ;
#931 = DIMENSIONAL_EXPONENTS ( 1.000000000000000000, 0.000000000000000000, 0.000000000000000000, 0.000000000000000000, 0.000000000000000000, 0.000000000000000000, 0.000000000000000000 ) ;
#932 = DIRECTION ( 'NONE',  ( 0.000000000000000000, 0.000000000000000000, 1.000000000000000000 ) ) ;
#933 = CARTESIAN_POINT ( 'NONE',  ( 0.6875000000000000000, 0.8240000000000003988, 0.5000000000000000000 ) ) ;
#934 = ADVANCED_FACE ( 'NONE', ( #727 ), #106, .F. ) ;
#935 = ORIENTED_EDGE ( 'NONE', *, *, #575, .T. ) ;
#936 = CARTESIAN_POINT ( 'NONE',  ( 1.500000000000000444, -0.6749999999999997113, 0.000000000000000000 ) ) ;
#937 = LINE ( 'NONE', #165, #789 ) ;
#938 = LINE ( 'NONE', #581, #287 ) ;
#939 = AXIS2_PLACEMENT_3D ( 'NONE', #760, #770, #87 ) ;
#940 = VECTOR ( 'NONE', #466, 39.37007874015748143 ) ;
#941 = LINE ( 'NONE', #639, #1001 ) ;
#942 = AXIS2_PLACEMENT_3D ( 'NONE', #933, #635, #562 ) ;
#943 = CARTESIAN_POINT ( 'NONE',  ( 0.8882461083059896012, 0.6750000000000002665, 0.5000000000000000000 ) ) ;
#944 = EDGE_CURVE ( 'NONE', #921, #6, #142, .T. ) ;
#945 = ORIENTED_EDGE ( 'NONE', *, *, #620, .F. ) ;
#946 = LINE ( 'NONE', #99, #511 ) ;
#947 = DIRECTION ( 'NONE',  ( -0.000000000000000000, 1.000000000000000000, -0.000000000000000000 ) ) ;
#948 = EDGE_CURVE ( 'NONE', #398, #576, #260, .T. ) ;
#949 = DIRECTION ( 'NONE',  ( -0.000000000000000000, 1.000000000000000000, -0.000000000000000000 ) ) ;
#950 = ORIENTED_EDGE ( 'NONE', *, *, #664, .F. ) ;
#951 = CARTESIAN_POINT ( 'NONE',  ( -0.5525000000000001021, -0.4250000000000001554, 0.000000000000000000 ) ) ;
#952 = CARTESIAN_POINT ( 'NONE',  ( 2.731847993664263218E-16, -1.025000000000000355, 0.000000000000000000 ) ) ;
#953 = VECTOR ( 'NONE', #778, 39.37007874015748143 ) ;
#954 = DIRECTION ( 'NONE',  ( 0.000000000000000000, 0.000000000000000000, 1.000000000000000000 ) ) ;
#955 = AXIS2_PLACEMENT_3D ( 'NONE', #922, #927, #141 ) ;
#956 = PRESENTATION_LAYER_ASSIGNMENT (  '', '', ( #895 ) ) ;
#957 = DIRECTION ( 'NONE',  ( 1.049727191138617093E-16, 0.5150380749100561539, -0.8571673007021108903 ) ) ;
#958 = FACE_OUTER_BOUND ( 'NONE', #812, .T. ) ;
#959 = DIRECTION ( 'NONE',  ( -0.000000000000000000, -0.000000000000000000, -1.000000000000000000 ) ) ;
#960 = ADVANCED_FACE ( 'NONE', ( #714 ), #637, .F. ) ;
#961 = CARTESIAN_POINT ( 'NONE',  ( -2.731847993664263218E-16, 0.6750000000000002665, 0.2500000000000000000 ) ) ;
#962 = DIRECTION ( 'NONE',  ( 1.000000000000000000, 0.000000000000000000, 0.000000000000000000 ) ) ;
#963 = DIRECTION ( 'NONE',  ( -0.000000000000000000, 1.000000000000000000, -0.000000000000000000 ) ) ;
#964 = LINE ( 'NONE', #659, #107 ) ;
#965 = DIRECTION ( 'NONE',  ( -0.000000000000000000, 1.000000000000000000, -0.000000000000000000 ) ) ;
#966 = EDGE_CURVE ( 'NONE', #204, #440, #35, .T. ) ;
#967 = DIRECTION ( 'NONE',  ( -0.000000000000000000, -0.000000000000000000, -1.000000000000000000 ) ) ;
#968 = DIRECTION ( 'NONE',  ( 1.000000000000000000, 0.000000000000000000, 0.000000000000000000 ) ) ;
#969 = DIRECTION ( 'NONE',  ( 0.000000000000000000, 0.000000000000000000, 1.000000000000000000 ) ) ;
#970 = PLANE ( 'NONE',  #617 ) ;
#971 = AXIS2_PLACEMENT_3D ( 'NONE', #363, #358, #663 ) ;
#972 = VECTOR ( 'NONE', #566, 39.37007874015748143 ) ;
#973 = ORIENTED_EDGE ( 'NONE', *, *, #215, .F. ) ;
#974 = VERTEX_POINT ( 'NONE', #655 ) ;
#975 = EDGE_CURVE ( 'NONE', #605, #674, #349, .T. ) ;
#976 = DIRECTION ( 'NONE',  ( 0.000000000000000000, 0.000000000000000000, 1.000000000000000000 ) ) ;
#977 = ORIENTED_EDGE ( 'NONE', *, *, #914, .T. ) ;
#978 = CARTESIAN_POINT ( 'NONE',  ( -0.5525000000000001021, 0.07499999999999990008, 0.5000000000000000000 ) ) ;
#979 = ORIENTED_EDGE ( 'NONE', *, *, #894, .F. ) ;
#980 = VECTOR ( 'NONE', #309, 39.37007874015748143 ) ;
#981 = CIRCLE ( 'NONE', #803, 0.1349999999999999256 ) ;
#982 = ADVANCED_FACE ( 'NONE', ( #718, #514 ), #879, .F. ) ;
#983 = DIRECTION ( 'NONE',  ( -0.8384436163006373510, -0.5449883505954135066, 0.000000000000000000 ) ) ;
#984 = VERTEX_POINT ( 'NONE', #355 ) ;
#985 = EDGE_LOOP ( 'NONE', ( #11, #709, #383, #998 ) ) ;
#987 = EDGE_CURVE ( 'NONE', #187, #765, #964, .T. ) ;
#986 = LINE ( 'NONE', #145, #97 ) ;
#988 = ORIENTED_EDGE ( 'NONE', *, *, #336, .T. ) ;
#989 = CARTESIAN_POINT ( 'NONE',  ( 1.500000000000000444, -0.6749999999999997113, 0.5000000000000000000 ) ) ;
#990 = DIRECTION ( 'NONE',  ( -0.000000000000000000, -0.000000000000000000, -1.000000000000000000 ) ) ;
#991 = DIRECTION ( 'NONE',  ( -0.000000000000000000, 1.000000000000000000, -0.000000000000000000 ) ) ;
#992 = ORIENTED_EDGE ( 'NONE', *, *, #415, .T. ) ;
#993 = FACE_OUTER_BOUND ( 'NONE', #369, .T. ) ;
#994 = CARTESIAN_POINT ( 'NONE',  ( -4.678826576442250105E-16, -0.1199143312723097848, 0.2500000000000000000 ) ) ;
#995 = EDGE_LOOP ( 'NONE', ( #379, #68 ) ) ;
#996 = FILL_AREA_STYLE_COLOUR ( '', #820 ) ;
#997 = ORIENTED_EDGE ( 'NONE', *, *, #162, .T. ) ;
#998 = ORIENTED_EDGE ( 'NONE', *, *, #353, .F. ) ;
#999 = CARTESIAN_POINT ( 'NONE',  ( 0.5524999999999995470, -0.4249999999999991007, 0.5000000000000000000 ) ) ;
#1000 = CARTESIAN_POINT ( 'NONE',  ( -0.1349999999999997313, -1.025000000000000355, 0.000000000000000000 ) ) ;
#1001 = VECTOR ( 'NONE', #866, 39.37007874015748143 ) ;
#1002 = LINE ( 'NONE', #330, #940 ) ;
#1003 = AXIS2_PLACEMENT_3D ( 'NONE', #40, #53, #744 ) ;
ENDSEC;
END-ISO-10303-21;
