ISO-10303-21;
HEADER;
FILE_DESCRIPTION (( 'STEP AP214' ),
    '1' );
FILE_NAME ('Outer gantry bracket, upper.STEP',
    '2026-02-20T19:34:19',
    ( '' ),
    ( '' ),
    'SwSTEP 2.0',
    'SolidWorks 2025',
    '' );
FILE_SCHEMA (( 'AUTOMOTIVE_DESIGN' ));
ENDSEC;

DATA;
#1 = LINE ( 'NONE', #344, #365 ) ;
#2 = CARTESIAN_POINT ( 'NONE',  ( -0.6875000000000000000, 0.8240000000000002878, 0.000000000000000000 ) ) ;
#3 = ORIENTED_EDGE ( 'NONE', *, *, #347, .F. ) ;
#4 = DIRECTION ( 'NONE',  ( -0.000000000000000000, -0.000000000000000000, -1.000000000000000000 ) ) ;
#5 = EDGE_CURVE ( 'NONE', #400, #421, #244, .T. ) ;
#6 = VECTOR ( 'NONE', #448, 39.37007874015748143 ) ;
#7 = CARTESIAN_POINT ( 'NONE',  ( -0.6875000000000000000, 0.8240000000000002878, 0.5000000000000000000 ) ) ;
#8 = DIRECTION ( 'NONE',  ( 1.000000000000000000, 0.000000000000000000, -0.000000000000000000 ) ) ;
#9 = EDGE_CURVE ( 'NONE', #200, #221, #163, .T. ) ;
#10 =( NAMED_UNIT ( * ) PLANE_ANGLE_UNIT ( ) SI_UNIT ( $, .RADIAN. ) );
#11 = ORIENTED_EDGE ( 'NONE', *, *, #38, .T. ) ;
#12 = DIRECTION ( 'NONE',  ( -1.000000000000000000, -0.000000000000000000, -0.000000000000000000 ) ) ;
#13 = CARTESIAN_POINT ( 'NONE',  ( -1.199999999999999956, 0.9730000000000001981, 0.3467500000000002247 ) ) ;
#14 = DIRECTION ( 'NONE',  ( 1.000000000000000000, 0.000000000000000000, 0.000000000000000000 ) ) ;
#15 = CARTESIAN_POINT ( 'NONE',  ( 1.200000000000000400, 0.9730000000000001981, 0.3467499999999999472 ) ) ;
#16 = ORIENTED_EDGE ( 'NONE', *, *, #255, .F. ) ;
#17 = FACE_OUTER_BOUND ( 'NONE', #330, .T. ) ;
#18 = PLANE ( 'NONE',  #34 ) ;
#19 = ORIENTED_EDGE ( 'NONE', *, *, #138, .T. ) ;
#20 = DIRECTION ( 'NONE',  ( -0.000000000000000000, 1.000000000000000000, -0.000000000000000000 ) ) ;
#21 = VERTEX_POINT ( 'NONE', #289 ) ;
#22 = LINE ( 'NONE', #286, #203 ) ;
#23 = ADVANCED_FACE ( 'NONE', ( #508, #120 ), #378, .F. ) ;
#24 = CIRCLE ( 'NONE', #43, 0.09674999999999986389 ) ;
#25 = VERTEX_POINT ( 'NONE', #517 ) ;
#26 = CIRCLE ( 'NONE', #114, 0.09674999999999986389 ) ;
#27 = DIRECTION ( 'NONE',  ( -1.000000000000000000, 0.000000000000000000, 0.000000000000000000 ) ) ;
#28 = EDGE_LOOP ( 'NONE', ( #127, #260, #73, #397, #410, #291, #68, #459 ) ) ;
#29 = CARTESIAN_POINT ( 'NONE',  ( -1.199999999999999956, 1.323000000000000176, 0.1532500000000004692 ) ) ;
#30 = DIRECTION ( 'NONE',  ( 1.000000000000000000, 0.000000000000000000, 0.000000000000000000 ) ) ;
#31 = LINE ( 'NONE', #290, #551 ) ;
#32 = ORIENTED_EDGE ( 'NONE', *, *, #5, .T. ) ;
#33 = VECTOR ( 'NONE', #30, 39.37007874015748143 ) ;
#34 = AXIS2_PLACEMENT_3D ( 'NONE', #487, #175, #361 ) ;
#35 = FACE_OUTER_BOUND ( 'NONE', #106, .T. ) ;
#36 = EDGE_LOOP ( 'NONE', ( #238, #172, #541, #317 ) ) ;
#37 = DIRECTION ( 'NONE',  ( -0.000000000000000000, 1.000000000000000000, -0.000000000000000000 ) ) ;
#38 = EDGE_CURVE ( 'NONE', #204, #359, #491, .T. ) ;
#39 = CARTESIAN_POINT ( 'NONE',  ( -1.499999999999999778, 1.323000000000000176, 0.5000000000000000000 ) ) ;
#40 = LINE ( 'NONE', #339, #287 ) ;
#41 = ORIENTED_EDGE ( 'NONE', *, *, #544, .F. ) ;
#42 = CYLINDRICAL_SURFACE ( 'NONE', #542, 0.09674999999999989164 ) ;
#43 = AXIS2_PLACEMENT_3D ( 'NONE', #173, #216, #396 ) ;
#44 = EDGE_CURVE ( 'NONE', #21, #25, #137, .T. ) ;
#45 = ORIENTED_EDGE ( 'NONE', *, *, #85, .T. ) ;
#46 = ADVANCED_FACE ( 'NONE', ( #346 ), #262, .F. ) ;
#47 = DIRECTION ( 'NONE',  ( -0.000000000000000000, 1.000000000000000000, -0.000000000000000000 ) ) ;
#48 = DIRECTION ( 'NONE',  ( 0.000000000000000000, 0.000000000000000000, 1.000000000000000000 ) ) ;
#49 = CARTESIAN_POINT ( 'NONE',  ( -1.499999999999999778, 0.9730000000000001981, 0.000000000000000000 ) ) ;
#50 = AXIS2_PLACEMENT_3D ( 'NONE', #2, #434, #352 ) ;
#51 = CARTESIAN_POINT ( 'NONE',  ( 8.195543980992789655E-16, 0.9730000000000001981, 0.2500000000000000000 ) ) ;
#52 = ORIENTED_EDGE ( 'NONE', *, *, #259, .F. ) ;
#53 = DIRECTION ( 'NONE',  ( 1.000000000000000000, 0.000000000000000000, 0.000000000000000000 ) ) ;
#54 = APPLICATION_PROTOCOL_DEFINITION ( 'draft international standard', 'automotive_design', 1998, #209 ) ;
#55 = DIRECTION ( 'NONE',  ( 0.000000000000000000, 1.000000000000000000, 0.000000000000000000 ) ) ;
#56 = ADVANCED_FACE ( 'NONE', ( #168 ), #470, .F. ) ;
#57 = ORIENTED_EDGE ( 'NONE', *, *, #313, .T. ) ;
#58 = CARTESIAN_POINT ( 'NONE',  ( 1.200000000000000400, 1.323000000000000176, 0.1532500000000001639 ) ) ;
#59 = CARTESIAN_POINT ( 'NONE',  ( 8.195543980992789655E-16, 0.9730000000000001981, 0.3467499999999998361 ) ) ;
#60 = VECTOR ( 'NONE', #12, 39.37007874015748143 ) ;
#61 = VECTOR ( 'NONE', #383, 39.37007874015748143 ) ;
#62 = ORIENTED_EDGE ( 'NONE', *, *, #145, .T. ) ;
#63 = CARTESIAN_POINT ( 'NONE',  ( -0.8882461083059893792, 0.9730000000000001981, 0.5000000000000000000 ) ) ;
#64 =( LENGTH_UNIT ( ) NAMED_UNIT ( * ) SI_UNIT ( $, .METRE. ) );
#65 = ORIENTED_EDGE ( 'NONE', *, *, #214, .F. ) ;
#66 = EDGE_CURVE ( 'NONE', #293, #86, #207, .T. ) ;
#67 = CARTESIAN_POINT ( 'NONE',  ( 0.6875000000000000000, 0.8240000000000003988, 0.5000000000000000000 ) ) ;
#68 = ORIENTED_EDGE ( 'NONE', *, *, #183, .F. ) ;
#69 = CARTESIAN_POINT ( 'NONE',  ( -1.499999999999999778, 0.9730000000000001981, 0.000000000000000000 ) ) ;
#70 = CIRCLE ( 'NONE', #411, 0.2500000000000000555 ) ;
#71 = ORIENTED_EDGE ( 'NONE', *, *, #284, .T. ) ;
#72 = CARTESIAN_POINT ( 'NONE',  ( 1.500000000000000444, 1.323000000000000176, 0.000000000000000000 ) ) ;
#73 = ORIENTED_EDGE ( 'NONE', *, *, #328, .F. ) ;
#74 = ORIENTED_EDGE ( 'NONE', *, *, #423, .T. ) ;
#75 = ORIENTED_EDGE ( 'NONE', *, *, #44, .F. ) ;
#76 = AXIS2_PLACEMENT_3D ( 'NONE', #67, #283, #489 ) ;
#77 = DIRECTION ( 'NONE',  ( -0.000000000000000000, 1.000000000000000000, -0.000000000000000000 ) ) ;
#78 = CARTESIAN_POINT ( 'NONE',  ( 0.8882461083059896012, 0.9730000000000001981, 0.5000000000000000000 ) ) ;
#79 = DIRECTION ( 'NONE',  ( 0.000000000000000000, -0.000000000000000000, 1.000000000000000000 ) ) ;
#80 = EDGE_CURVE ( 'NONE', #326, #447, #253, .T. ) ;
#81 = ORIENTED_EDGE ( 'NONE', *, *, #176, .F. ) ;
#82 = DIRECTION ( 'NONE',  ( -0.000000000000000000, 1.000000000000000000, -0.000000000000000000 ) ) ;
#83 = LINE ( 'NONE', #170, #205 ) ;
#84 = PRESENTATION_LAYER_ASSIGNMENT (  '', '', ( #334 ) ) ;
#85 = EDGE_CURVE ( 'NONE', #385, #375, #273, .T. ) ;
#86 = VERTEX_POINT ( 'NONE', #215 ) ;
#87 = PRODUCT_RELATED_PRODUCT_CATEGORY ( 'part', '', ( #329 ) ) ;
#88 = FACE_OUTER_BOUND ( 'NONE', #373, .T. ) ;
#89 = DIRECTION ( 'NONE',  ( 1.000000000000000000, 0.000000000000000000, 0.000000000000000000 ) ) ;
#90 = ORIENTED_EDGE ( 'NONE', *, *, #248, .T. ) ;
#91 = CARTESIAN_POINT ( 'NONE',  ( 1.200000000000000400, 1.323000000000000176, 0.3467499999999999472 ) ) ;
#92 = LINE ( 'NONE', #469, #224 ) ;
#93 = LINE ( 'NONE', #264, #222 ) ;
#94 = VECTOR ( 'NONE', #318, 39.37007874015748143 ) ;
#95 = DIRECTION ( 'NONE',  ( 1.000000000000000000, 0.000000000000000000, 0.000000000000000000 ) ) ;
#96 = DIRECTION ( 'NONE',  ( -0.000000000000000000, 1.000000000000000000, -0.000000000000000000 ) ) ;
#97 = ORIENTED_EDGE ( 'NONE', *, *, #477, .T. ) ;
#98 = CARTESIAN_POINT ( 'NONE',  ( 0.6875000000000000000, 0.8240000000000003988, 0.5000000000000000000 ) ) ;
#99 = ORIENTED_EDGE ( 'NONE', *, *, #439, .T. ) ;
#100 = CARTESIAN_POINT ( 'NONE',  ( 1.200000000000000400, 0.9730000000000001981, 0.1532500000000001639 ) ) ;
#101 = ORIENTED_EDGE ( 'NONE', *, *, #429, .F. ) ;
#102 = CARTESIAN_POINT ( 'NONE',  ( -1.499999999999999778, 0.9730000000000001981, 0.5000000000000000000 ) ) ;
#103 = CARTESIAN_POINT ( 'NONE',  ( 1.200000000000000400, 1.323000000000000176, 0.2500000000000000555 ) ) ;
#104 = CIRCLE ( 'NONE', #300, 0.2500000000000000555 ) ;
#105 = ADVANCED_FACE ( 'NONE', ( #519, #438 ), #395, .F. ) ;
#106 = EDGE_LOOP ( 'NONE', ( #236, #332, #186, #462 ) ) ;
#107 = CARTESIAN_POINT ( 'NONE',  ( -1.499999999999999778, 1.323000000000000176, 0.000000000000000000 ) ) ;
#108 = DIRECTION ( 'NONE',  ( -0.000000000000000000, 1.000000000000000000, -0.000000000000000000 ) ) ;
#109 = EDGE_LOOP ( 'NONE', ( #441, #407, #81, #74 ) ) ;
#110 = DIRECTION ( 'NONE',  ( 0.000000000000000000, 0.000000000000000000, 1.000000000000000000 ) ) ;
#111 = EDGE_LOOP ( 'NONE', ( #16, #3 ) ) ;
#112 = DIRECTION ( 'NONE',  ( -0.000000000000000000, 1.000000000000000000, -0.000000000000000000 ) ) ;
#113 = COLOUR_RGB ( '',0.7921568627450980005, 0.8196078431372548767, 0.9333333333333333481 ) ;
#114 = AXIS2_PLACEMENT_3D ( 'NONE', #268, #442, #182 ) ;
#115 = ORIENTED_EDGE ( 'NONE', *, *, #353, .F. ) ;
#116 =( CONVERSION_BASED_UNIT ( 'INCH', #422 ) LENGTH_UNIT ( ) NAMED_UNIT ( #513 ) );
#117 = DIRECTION ( 'NONE',  ( -0.000000000000000000, -0.000000000000000000, -1.000000000000000000 ) ) ;
#118 = ORIENTED_EDGE ( 'NONE', *, *, #347, .T. ) ;
#119 = EDGE_CURVE ( 'NONE', #314, #147, #1, .T. ) ;
#120 = FACE_OUTER_BOUND ( 'NONE', #36, .T. ) ;
#121 = VECTOR ( 'NONE', #415, 39.37007874015748143 ) ;
#122 = EDGE_CURVE ( 'NONE', #421, #447, #83, .T. ) ;
#123 = FACE_BOUND ( 'NONE', #431, .T. ) ;
#124 = DIRECTION ( 'NONE',  ( 0.000000000000000000, -1.000000000000000000, 0.000000000000000000 ) ) ;
#125 = DIRECTION ( 'NONE',  ( -0.000000000000000000, -0.000000000000000000, -1.000000000000000000 ) ) ;
#126 = CARTESIAN_POINT ( 'NONE',  ( 0.4867538916940103988, 0.9730000000000001981, 0.5000000000000000000 ) ) ;
#127 = ORIENTED_EDGE ( 'NONE', *, *, #85, .F. ) ;
#128 = AXIS2_PLACEMENT_3D ( 'NONE', #514, #96, #135 ) ;
#129 = MECHANICAL_DESIGN_GEOMETRIC_PRESENTATION_REPRESENTATION (  '', ( #334 ), #342 ) ;
#130 = FACE_BOUND ( 'NONE', #485, .T. ) ;
#131 = CARTESIAN_POINT ( 'NONE',  ( -1.499999999999999778, 0.9730000000000001981, 0.5000000000000000000 ) ) ;
#132 = DIRECTION ( 'NONE',  ( -0.000000000000000000, 1.000000000000000000, -0.000000000000000000 ) ) ;
#133 = DIRECTION ( 'NONE',  ( 0.000000000000000000, 0.000000000000000000, 1.000000000000000000 ) ) ;
#134 = ADVANCED_BREP_SHAPE_REPRESENTATION ( 'Outer gantry bracket, upper', ( #409, #356 ), #167 ) ;
#135 = DIRECTION ( 'NONE',  ( 0.000000000000000000, 0.000000000000000000, 1.000000000000000000 ) ) ;
#136 = CARTESIAN_POINT ( 'NONE',  ( -1.499999999999999778, 1.323000000000000176, 0.5000000000000000000 ) ) ;
#137 = CIRCLE ( 'NONE', #128, 0.09674999999999986389 ) ;
#138 = EDGE_CURVE ( 'NONE', #314, #204, #93, .T. ) ;
#139 = AXIS2_PLACEMENT_3D ( 'NONE', #466, #261, #307 ) ;
#140 = CARTESIAN_POINT ( 'NONE',  ( 0.8882461083059896012, 0.9730000000000001981, 0.5000000000000000000 ) ) ;
#141 = ADVANCED_FACE ( 'NONE', ( #130, #302, #357, #472 ), #436, .F. ) ;
#142 = FACE_OUTER_BOUND ( 'NONE', #403, .T. ) ;
#143 = ORIENTED_EDGE ( 'NONE', *, *, #183, .T. ) ;
#144 = DIRECTION ( 'NONE',  ( 0.000000000000000000, 0.000000000000000000, 1.000000000000000000 ) ) ;
#145 = EDGE_CURVE ( 'NONE', #359, #293, #213, .T. ) ;
#146 = DIRECTION ( 'NONE',  ( -0.000000000000000000, 1.000000000000000000, -0.000000000000000000 ) ) ;
#147 = VERTEX_POINT ( 'NONE', #49 ) ;
#148 = CARTESIAN_POINT ( 'NONE',  ( -0.6875000000000000000, 0.8240000000000002878, 0.5000000000000000000 ) ) ;
#149 = CIRCLE ( 'NONE', #355, 0.09674999999999989164 ) ;
#150 = EDGE_LOOP ( 'NONE', ( #530, #226, #240, #196 ) ) ;
#151 = CARTESIAN_POINT ( 'NONE',  ( 0.8882461083059896012, 0.9730000000000001981, 0.000000000000000000 ) ) ;
#152 = EDGE_LOOP ( 'NONE', ( #295, #90 ) ) ;
#153 = DIRECTION ( 'NONE',  ( -0.000000000000000000, 1.000000000000000000, -0.000000000000000000 ) ) ;
#154 = EDGE_LOOP ( 'NONE', ( #160, #367 ) ) ;
#155 = CARTESIAN_POINT ( 'NONE',  ( 1.500000000000000444, 1.323000000000000176, 0.5000000000000000000 ) ) ;
#156 = VECTOR ( 'NONE', #270, 39.37007874015748143 ) ;
#157 = ORIENTED_EDGE ( 'NONE', *, *, #387, .F. ) ;
#158 = CARTESIAN_POINT ( 'NONE',  ( -0.4867538916940105653, 0.9730000000000001981, 0.000000000000000000 ) ) ;
#159 = EDGE_CURVE ( 'NONE', #483, #475, #24, .T. ) ;
#160 = ORIENTED_EDGE ( 'NONE', *, *, #518, .T. ) ;
#161 =( NAMED_UNIT ( * ) PLANE_ANGLE_UNIT ( ) SI_UNIT ( $, .RADIAN. ) );
#162 = EDGE_CURVE ( 'NONE', #191, #362, #501, .T. ) ;
#163 = LINE ( 'NONE', #39, #188 ) ;
#164 = SURFACE_SIDE_STYLE ('',( #374 ) ) ;
#165 = ORIENTED_EDGE ( 'NONE', *, *, #159, .T. ) ;
#166 = CIRCLE ( 'NONE', #178, 0.09674999999999989164 ) ;
#167 =( GEOMETRIC_REPRESENTATION_CONTEXT ( 3 ) GLOBAL_UNCERTAINTY_ASSIGNED_CONTEXT ( ( #345 ) ) GLOBAL_UNIT_ASSIGNED_CONTEXT ( ( #532, #10, #179 ) ) REPRESENTATION_CONTEXT ( 'NONE', 'WORKASPACE' ) );
#168 = FACE_OUTER_BOUND ( 'NONE', #28, .T. ) ;
#169 = DIRECTION ( 'NONE',  ( -0.000000000000000000, 1.000000000000000000, -0.000000000000000000 ) ) ;
#170 = CARTESIAN_POINT ( 'NONE',  ( 1.500000000000000444, 0.9730000000000001981, 0.5000000000000000000 ) ) ;
#171 = PLANE ( 'NONE',  #335 ) ;
#172 = ORIENTED_EDGE ( 'NONE', *, *, #122, .F. ) ;
#173 = CARTESIAN_POINT ( 'NONE',  ( 8.195543980992789655E-16, 0.9730000000000001981, 0.2500000000000000000 ) ) ;
#174 = DIRECTION ( 'NONE',  ( 1.000000000000000000, 0.000000000000000000, 0.000000000000000000 ) ) ;
#175 = DIRECTION ( 'NONE',  ( -1.000000000000000000, 0.000000000000000000, 0.000000000000000000 ) ) ;
#176 = EDGE_CURVE ( 'NONE', #338, #200, #311, .T. ) ;
#177 = DIRECTION ( 'NONE',  ( -1.000000000000000000, 0.000000000000000000, 0.000000000000000000 ) ) ;
#178 = AXIS2_PLACEMENT_3D ( 'NONE', #327, #112, #455 ) ;
#179 =( NAMED_UNIT ( * ) SI_UNIT ( $, .STERADIAN. ) SOLID_ANGLE_UNIT ( ) );
#180 = VERTEX_POINT ( 'NONE', #91 ) ;
#181 = LINE ( 'NONE', #72, #6 ) ;
#182 = DIRECTION ( 'NONE',  ( 0.000000000000000000, 0.000000000000000000, 1.000000000000000000 ) ) ;
#183 = EDGE_CURVE ( 'NONE', #86, #326, #70, .T. ) ;
#184 = ORIENTED_EDGE ( 'NONE', *, *, #255, .T. ) ;
#185 = DIRECTION ( 'NONE',  ( 0.000000000000000000, 0.000000000000000000, 1.000000000000000000 ) ) ;
#186 = ORIENTED_EDGE ( 'NONE', *, *, #145, .F. ) ;
#187 = DIRECTION ( 'NONE',  ( -0.000000000000000000, 1.000000000000000000, -0.000000000000000000 ) ) ;
#188 = VECTOR ( 'NONE', #340, 39.37007874015748143 ) ;
#189 = ORIENTED_EDGE ( 'NONE', *, *, #503, .T. ) ;
#190 = CARTESIAN_POINT ( 'NONE',  ( -1.199999999999999956, 0.9730000000000001981, 0.2500000000000003331 ) ) ;
#191 = VERTEX_POINT ( 'NONE', #315 ) ;
#192 = DIRECTION ( 'NONE',  ( -0.000000000000000000, 1.000000000000000000, -0.000000000000000000 ) ) ;
#193 = ORIENTED_EDGE ( 'NONE', *, *, #277, .T. ) ;
#194 = AXIS2_PLACEMENT_3D ( 'NONE', #256, #304, #89 ) ;
#195 = AXIS2_PLACEMENT_3D ( 'NONE', #51, #202, #296 ) ;
#196 = ORIENTED_EDGE ( 'NONE', *, *, #162, .T. ) ;
#197 = DIRECTION ( 'NONE',  ( 0.000000000000000000, 1.000000000000000000, 0.000000000000000000 ) ) ;
#198 = EDGE_CURVE ( 'NONE', #495, #221, #22, .T. ) ;
#199 = ORIENTED_EDGE ( 'NONE', *, *, #214, .T. ) ;
#200 = VERTEX_POINT ( 'NONE', #237 ) ;
#201 = DIRECTION ( 'NONE',  ( 0.000000000000000000, 0.000000000000000000, 1.000000000000000000 ) ) ;
#202 = DIRECTION ( 'NONE',  ( -0.000000000000000000, 1.000000000000000000, -0.000000000000000000 ) ) ;
#203 = VECTOR ( 'NONE', #528, 39.37007874015748143 ) ;
#204 = VERTEX_POINT ( 'NONE', #412 ) ;
#205 = VECTOR ( 'NONE', #4, 39.37007874015748143 ) ;
#206 = DIMENSIONAL_EXPONENTS ( 1.000000000000000000, 0.000000000000000000, 0.000000000000000000, 0.000000000000000000, 0.000000000000000000, 0.000000000000000000, 0.000000000000000000 ) ;
#207 = LINE ( 'NONE', #126, #509 ) ;
#208 = DIRECTION ( 'NONE',  ( 0.000000000000000000, -0.000000000000000000, -1.000000000000000000 ) ) ;
#209 = APPLICATION_CONTEXT ( 'automotive_design' ) ;
#210 = CARTESIAN_POINT ( 'NONE',  ( 8.314028558810295785E-16, 0.9730000000000001981, 0.1532500000000001084 ) ) ;
#211 = CARTESIAN_POINT ( 'NONE',  ( -0.6875000000000000000, 0.8240000000000002878, 0.000000000000000000 ) ) ;
#212 = AXIS2_PLACEMENT_3D ( 'NONE', #190, #498, #185 ) ;
#213 = LINE ( 'NONE', #351, #263 ) ;
#214 = EDGE_CURVE ( 'NONE', #267, #25, #446, .T. ) ;
#215 = CARTESIAN_POINT ( 'NONE',  ( 0.4867538916940103988, 0.9730000000000001981, 0.000000000000000000 ) ) ;
#216 = DIRECTION ( 'NONE',  ( -0.000000000000000000, 1.000000000000000000, -0.000000000000000000 ) ) ;
#217 = FACE_OUTER_BOUND ( 'NONE', #506, .T. ) ;
#218 = DIRECTION ( 'NONE',  ( 0.000000000000000000, -0.000000000000000000, 1.000000000000000000 ) ) ;
#219 = ORIENTED_EDGE ( 'NONE', *, *, #520, .T. ) ;
#220 = DIRECTION ( 'NONE',  ( -0.000000000000000000, -0.000000000000000000, -1.000000000000000000 ) ) ;
#221 = VERTEX_POINT ( 'NONE', #107 ) ;
#222 = VECTOR ( 'NONE', #53, 39.37007874015748143 ) ;
#223 = LINE ( 'NONE', #537, #243 ) ;
#224 = VECTOR ( 'NONE', #169, 39.37007874015748143 ) ;
#225 = DIRECTION ( 'NONE',  ( -0.000000000000000000, 1.000000000000000000, -0.000000000000000000 ) ) ;
#226 = ORIENTED_EDGE ( 'NONE', *, *, #159, .F. ) ;
#227 = CARTESIAN_POINT ( 'NONE',  ( -1.499999999999999778, 0.9730000000000001981, 0.5000000000000000000 ) ) ;
#228 = EDGE_LOOP ( 'NONE', ( #452, #539, #101, #416 ) ) ;
#229 = DIRECTION ( 'NONE',  ( -0.000000000000000000, 1.000000000000000000, -0.000000000000000000 ) ) ;
#230 = ORIENTED_EDGE ( 'NONE', *, *, #387, .T. ) ;
#231 = CARTESIAN_POINT ( 'NONE',  ( 1.500000000000000444, 1.323000000000000176, 0.5000000000000000000 ) ) ;
#232 = PRODUCT_DEFINITION_SHAPE ( 'NONE', 'NONE',  #478 ) ;
#233 = VECTOR ( 'NONE', #174, 39.37007874015748143 ) ;
#234 = AXIS2_PLACEMENT_3D ( 'NONE', #103, #276, #324 ) ;
#235 = EDGE_CURVE ( 'NONE', #497, #21, #331, .T. ) ;
#236 = ORIENTED_EDGE ( 'NONE', *, *, #377, .T. ) ;
#237 = CARTESIAN_POINT ( 'NONE',  ( -1.499999999999999778, 1.323000000000000176, 0.5000000000000000000 ) ) ;
#238 = ORIENTED_EDGE ( 'NONE', *, *, #80, .T. ) ;
#239 = ADVANCED_FACE ( 'NONE', ( #17 ), #493, .F. ) ;
#240 = ORIENTED_EDGE ( 'NONE', *, *, #443, .T. ) ;
#241 = CARTESIAN_POINT ( 'NONE',  ( 1.200000000000000400, 1.323000000000000176, 0.2500000000000000555 ) ) ;
#242 = PRODUCT_DEFINITION_CONTEXT ( 'detailed design', #209, 'design' ) ;
#243 = VECTOR ( 'NONE', #20, 39.37007874015748143 ) ;
#244 = LINE ( 'NONE', #500, #33 ) ;
#245 =( LENGTH_UNIT ( ) NAMED_UNIT ( * ) SI_UNIT ( $, .METRE. ) );
#246 = DIRECTION ( 'NONE',  ( 0.000000000000000000, 1.000000000000000000, 0.000000000000000000 ) ) ;
#247 = CARTESIAN_POINT ( 'NONE',  ( -0.4867538916940105653, 0.9730000000000001981, 0.5000000000000000000 ) ) ;
#248 = EDGE_CURVE ( 'NONE', #267, #497, #523, .T. ) ;
#249 = LINE ( 'NONE', #388, #435 ) ;
#250 = ORIENTED_EDGE ( 'NONE', *, *, #66, .T. ) ;
#251 = DIRECTION ( 'NONE',  ( -0.000000000000000000, -1.000000000000000000, -0.000000000000000000 ) ) ;
#252 = VECTOR ( 'NONE', #153, 39.37007874015748143 ) ;
#253 = LINE ( 'NONE', #481, #233 ) ;
#254 = DIRECTION ( 'NONE',  ( -0.000000000000000000, -1.000000000000000000, -0.000000000000000000 ) ) ;
#255 = EDGE_CURVE ( 'NONE', #180, #301, #299, .T. ) ;
#256 = CARTESIAN_POINT ( 'NONE',  ( -0.6875000000000000000, 0.8240000000000002878, 0.5000000000000000000 ) ) ;
#257 = CARTESIAN_POINT ( 'NONE',  ( -1.199999999999999956, 1.323000000000000176, 0.2500000000000003331 ) ) ;
#258 = CARTESIAN_POINT ( 'NONE',  ( 8.195543980992789655E-16, 1.323000000000000176, 0.2500000000000000000 ) ) ;
#259 = EDGE_CURVE ( 'NONE', #288, #522, #166, .T. ) ;
#260 = ORIENTED_EDGE ( 'NONE', *, *, #439, .F. ) ;
#261 = DIRECTION ( 'NONE',  ( -0.000000000000000000, 1.000000000000000000, -0.000000000000000000 ) ) ;
#262 = CYLINDRICAL_SURFACE ( 'NONE', #515, 0.09674999999999993328 ) ;
#263 = VECTOR ( 'NONE', #14, 39.37007874015748143 ) ;
#264 = CARTESIAN_POINT ( 'NONE',  ( -1.499999999999999778, 0.9730000000000001981, 0.5000000000000000000 ) ) ;
#265 = PRODUCT_CONTEXT ( 'NONE', #380, 'mechanical' ) ;
#266 = CARTESIAN_POINT ( 'NONE',  ( -1.499999999999999778, 0.9730000000000001981, 0.5000000000000000000 ) ) ;
#267 = VERTEX_POINT ( 'NONE', #363 ) ;
#268 = CARTESIAN_POINT ( 'NONE',  ( -1.199999999999999956, 0.9730000000000001981, 0.2500000000000003331 ) ) ;
#269 = ORIENTED_EDGE ( 'NONE', *, *, #443, .F. ) ;
#270 = DIRECTION ( 'NONE',  ( -0.000000000000000000, -0.000000000000000000, -1.000000000000000000 ) ) ;
#271 = DIRECTION ( 'NONE',  ( 0.000000000000000000, 0.000000000000000000, 1.000000000000000000 ) ) ;
#272 = ORIENTED_EDGE ( 'NONE', *, *, #303, .T. ) ;
#273 = CIRCLE ( 'NONE', #50, 0.2500000000000000555 ) ;
#274 = FACE_OUTER_BOUND ( 'NONE', #228, .T. ) ;
#275 = AXIS2_PLACEMENT_3D ( 'NONE', #402, #108, #271 ) ;
#276 = DIRECTION ( 'NONE',  ( -0.000000000000000000, 1.000000000000000000, -0.000000000000000000 ) ) ;
#277 = EDGE_CURVE ( 'NONE', #204, #385, #405, .T. ) ;
#278 = EDGE_LOOP ( 'NONE', ( #309, #492 ) ) ;
#279 = LINE ( 'NONE', #231, #321 ) ;
#280 = LINE ( 'NONE', #521, #323 ) ;
#281 = EDGE_LOOP ( 'NONE', ( #99, #471, #427, #457 ) ) ;
#282 = EDGE_CURVE ( 'NONE', #362, #191, #533, .T. ) ;
#283 = DIRECTION ( 'NONE',  ( -0.000000000000000000, -0.000000000000000000, -1.000000000000000000 ) ) ;
#284 = EDGE_CURVE ( 'NONE', #447, #495, #181, .T. ) ;
#285 = ORIENTED_EDGE ( 'NONE', *, *, #423, .F. ) ;
#286 = CARTESIAN_POINT ( 'NONE',  ( -1.499999999999999778, 1.323000000000000176, 0.000000000000000000 ) ) ;
#287 = VECTOR ( 'NONE', #77, 39.37007874015748143 ) ;
#288 = VERTEX_POINT ( 'NONE', #100 ) ;
#289 = CARTESIAN_POINT ( 'NONE',  ( -1.199999999999999956, 1.323000000000000176, 0.3467500000000002247 ) ) ;
#290 = CARTESIAN_POINT ( 'NONE',  ( -0.4867538916940105653, 0.9730000000000001981, 0.000000000000000000 ) ) ;
#291 = ORIENTED_EDGE ( 'NONE', *, *, #80, .F. ) ;
#292 = VECTOR ( 'NONE', #117, 39.37007874015748143 ) ;
#293 = VERTEX_POINT ( 'NONE', #525 ) ;
#294 = FACE_OUTER_BOUND ( 'NONE', #547, .T. ) ;
#295 = ORIENTED_EDGE ( 'NONE', *, *, #499, .T. ) ;
#296 = DIRECTION ( 'NONE',  ( 0.000000000000000000, 0.000000000000000000, 1.000000000000000000 ) ) ;
#297 = EDGE_CURVE ( 'NONE', #400, #326, #366, .T. ) ;
#298 = FACE_OUTER_BOUND ( 'NONE', #343, .T. ) ;
#299 = CIRCLE ( 'NONE', #420, 0.09674999999999989164 ) ;
#300 = AXIS2_PLACEMENT_3D ( 'NONE', #98, #406, #177 ) ;
#301 = VERTEX_POINT ( 'NONE', #58 ) ;
#302 = FACE_BOUND ( 'NONE', #278, .T. ) ;
#303 = EDGE_CURVE ( 'NONE', #475, #362, #223, .T. ) ;
#304 = DIRECTION ( 'NONE',  ( -0.000000000000000000, -0.000000000000000000, -1.000000000000000000 ) ) ;
#305 = ADVANCED_FACE ( 'NONE', ( #401 ), #368, .F. ) ;
#306 = DIRECTION ( 'NONE',  ( 0.000000000000000000, 0.000000000000000000, 1.000000000000000000 ) ) ;
#307 = DIRECTION ( 'NONE',  ( 0.000000000000000000, 0.000000000000000000, 1.000000000000000000 ) ) ;
#308 = CARTESIAN_POINT ( 'NONE',  ( -1.199999999999999956, 1.323000000000000176, 0.2500000000000003331 ) ) ;
#309 = ORIENTED_EDGE ( 'NONE', *, *, #162, .F. ) ;
#310 = AXIS2_PLACEMENT_3D ( 'NONE', #370, #197, #79 ) ;
#311 = LINE ( 'NONE', #394, #60 ) ;
#312 = CARTESIAN_POINT ( 'NONE',  ( 1.500000000000000444, 1.323000000000000176, 0.000000000000000000 ) ) ;
#313 = EDGE_CURVE ( 'NONE', #421, #338, #279, .T. ) ;
#314 = VERTEX_POINT ( 'NONE', #102 ) ;
#315 = CARTESIAN_POINT ( 'NONE',  ( 8.195543980992789655E-16, 1.323000000000000176, 0.3467499999999999472 ) ) ;
#316 = CYLINDRICAL_SURFACE ( 'NONE', #275, 0.09674999999999993328 ) ;
#317 = ORIENTED_EDGE ( 'NONE', *, *, #297, .T. ) ;
#318 = DIRECTION ( 'NONE',  ( -0.000000000000000000, -0.000000000000000000, -1.000000000000000000 ) ) ;
#319 = FACE_OUTER_BOUND ( 'NONE', #510, .T. ) ;
#320 = ORIENTED_EDGE ( 'NONE', *, *, #297, .F. ) ;
#321 = VECTOR ( 'NONE', #229, 39.37007874015748143 ) ;
#322 = DIRECTION ( 'NONE',  ( -0.000000000000000000, -0.000000000000000000, -1.000000000000000000 ) ) ;
#323 = VECTOR ( 'NONE', #479, 39.37007874015748143 ) ;
#324 = DIRECTION ( 'NONE',  ( 0.000000000000000000, 0.000000000000000000, 1.000000000000000000 ) ) ;
#325 = ADVANCED_FACE ( 'NONE', ( #274 ), #451, .F. ) ;
#326 = VERTEX_POINT ( 'NONE', #151 ) ;
#327 = CARTESIAN_POINT ( 'NONE',  ( 1.200000000000000400, 0.9730000000000001981, 0.2500000000000000555 ) ) ;
#328 = EDGE_CURVE ( 'NONE', #221, #147, #496, .T. ) ;
#329 = PRODUCT ( 'Outer gantry bracket, upper', 'Outer gantry bracket, upper', '', ( #265 ) ) ;
#330 = EDGE_LOOP ( 'NONE', ( #45, #115, #440, #193 ) ) ;
#331 = LINE ( 'NONE', #360, #252 ) ;
#332 = ORIENTED_EDGE ( 'NONE', *, *, #66, .F. ) ;
#333 = FILL_AREA_STYLE ('',( #540 ) ) ;
#334 = STYLED_ITEM ( 'NONE', ( #546 ), #409 ) ;
#335 = AXIS2_PLACEMENT_3D ( 'NONE', #7, #348, #473 ) ;
#336 = EDGE_LOOP ( 'NONE', ( #143, #320, #41, #250 ) ) ;
#337 = DIRECTION ( 'NONE',  ( 1.000000000000000000, 0.000000000000000000, 0.000000000000000000 ) ) ;
#338 = VERTEX_POINT ( 'NONE', #155 ) ;
#339 = CARTESIAN_POINT ( 'NONE',  ( 1.200000000000000400, 1.323000000000000176, 0.3467499999999999472 ) ) ;
#340 = DIRECTION ( 'NONE',  ( -0.000000000000000000, -0.000000000000000000, -1.000000000000000000 ) ) ;
#341 = AXIS2_PLACEMENT_3D ( 'NONE', #266, #55, #218 ) ;
#342 =( GEOMETRIC_REPRESENTATION_CONTEXT ( 3 ) GLOBAL_UNCERTAINTY_ASSIGNED_CONTEXT ( ( #350 ) ) GLOBAL_UNIT_ASSIGNED_CONTEXT ( ( #116, #161, #549 ) ) REPRESENTATION_CONTEXT ( 'NONE', 'WORKASPACE' ) );
#343 = EDGE_LOOP ( 'NONE', ( #11, #62, #534, #32, #57, #369, #418, #19 ) ) ;
#344 = CARTESIAN_POINT ( 'NONE',  ( -1.499999999999999778, 0.9730000000000001981, 0.5000000000000000000 ) ) ;
#345 = UNCERTAINTY_MEASURE_WITH_UNIT (LENGTH_MEASURE( 1.000000000000000082E-05 ), #532, 'distance_accuracy_value', 'NONE');
#346 = FACE_OUTER_BOUND ( 'NONE', #150, .T. ) ;
#347 = EDGE_CURVE ( 'NONE', #301, #180, #149, .T. ) ;
#348 = DIRECTION ( 'NONE',  ( 0.000000000000000000, 0.000000000000000000, 1.000000000000000000 ) ) ;
#349 = AXIS2_PLACEMENT_3D ( 'NONE', #136, #124, #208 ) ;
#350 = UNCERTAINTY_MEASURE_WITH_UNIT (LENGTH_MEASURE( 1.000000000000000082E-05 ), #116, 'distance_accuracy_value', 'NONE');
#351 = CARTESIAN_POINT ( 'NONE',  ( -0.4867538916940105653, 0.9730000000000001981, 0.5000000000000000000 ) ) ;
#352 = DIRECTION ( 'NONE',  ( 1.000000000000000000, 0.000000000000000000, 0.000000000000000000 ) ) ;
#353 = EDGE_CURVE ( 'NONE', #359, #375, #465, .T. ) ;
#354 = SHAPE_DEFINITION_REPRESENTATION ( #232, #134 ) ;
#355 = AXIS2_PLACEMENT_3D ( 'NONE', #417, #82, #458 ) ;
#356 = AXIS2_PLACEMENT_3D ( 'NONE', #449, #133, #95 ) ;
#357 = FACE_BOUND ( 'NONE', #111, .T. ) ;
#358 = DIRECTION ( 'NONE',  ( 0.000000000000000000, 0.000000000000000000, 1.000000000000000000 ) ) ;
#359 = VERTEX_POINT ( 'NONE', #247 ) ;
#360 = CARTESIAN_POINT ( 'NONE',  ( -1.199999999999999956, 1.323000000000000176, 0.3467500000000002247 ) ) ;
#361 = DIRECTION ( 'NONE',  ( 0.000000000000000000, 0.000000000000000000, 1.000000000000000000 ) ) ;
#362 = VERTEX_POINT ( 'NONE', #463 ) ;
#363 = CARTESIAN_POINT ( 'NONE',  ( -1.199999999999999956, 0.9730000000000001981, 0.1532500000000004692 ) ) ;
#364 = ORIENTED_EDGE ( 'NONE', *, *, #520, .F. ) ;
#365 = VECTOR ( 'NONE', #512, 39.37007874015748143 ) ;
#366 = LINE ( 'NONE', #140, #156 ) ;
#367 = ORIENTED_EDGE ( 'NONE', *, *, #259, .T. ) ;
#368 = CYLINDRICAL_SURFACE ( 'NONE', #76, 0.2500000000000000555 ) ;
#369 = ORIENTED_EDGE ( 'NONE', *, *, #176, .T. ) ;
#370 = CARTESIAN_POINT ( 'NONE',  ( -0.4867538916940105653, 0.9730000000000001981, 0.5000000000000000000 ) ) ;
#371 = ORIENTED_EDGE ( 'NONE', *, *, #44, .T. ) ;
#372 = AXIS2_PLACEMENT_3D ( 'NONE', #531, #187, #110 ) ;
#373 = EDGE_LOOP ( 'NONE', ( #65, #545, #413, #371 ) ) ;
#374 = SURFACE_STYLE_FILL_AREA ( #333 ) ;
#375 = VERTEX_POINT ( 'NONE', #158 ) ;
#376 = PLANE ( 'NONE',  #310 ) ;
#377 = EDGE_CURVE ( 'NONE', #375, #86, #31, .T. ) ;
#378 = PLANE ( 'NONE',  #382 ) ;
#379 = ADVANCED_FACE ( 'NONE', ( #460 ), #42, .F. ) ;
#380 = APPLICATION_CONTEXT ( 'automotive_design' ) ;
#381 = CYLINDRICAL_SURFACE ( 'NONE', #139, 0.09674999999999986389 ) ;
#382 = AXIS2_PLACEMENT_3D ( 'NONE', #78, #246, #550 ) ;
#383 = DIRECTION ( 'NONE',  ( 1.000000000000000000, 0.000000000000000000, 0.000000000000000000 ) ) ;
#384 = AXIS2_PLACEMENT_3D ( 'NONE', #529, #146, #358 ) ;
#385 = VERTEX_POINT ( 'NONE', #425 ) ;
#386 = DIRECTION ( 'NONE',  ( -0.000000000000000000, -0.000000000000000000, -1.000000000000000000 ) ) ;
#387 = EDGE_CURVE ( 'NONE', #522, #180, #40, .T. ) ;
#388 = CARTESIAN_POINT ( 'NONE',  ( 1.500000000000000444, 1.323000000000000176, 0.5000000000000000000 ) ) ;
#389 = CARTESIAN_POINT ( 'NONE',  ( 8.195543980992789655E-16, 1.323000000000000176, 0.2500000000000000000 ) ) ;
#390 = LINE ( 'NONE', #511, #61 ) ;
#391 = AXIS2_PLACEMENT_3D ( 'NONE', #227, #408, #535 ) ;
#392 = DIRECTION ( 'NONE',  ( 0.000000000000000000, 0.000000000000000000, 1.000000000000000000 ) ) ;
#393 = VECTOR ( 'NONE', #254, 39.37007874015748143 ) ;
#394 = CARTESIAN_POINT ( 'NONE',  ( -1.499999999999999778, 1.323000000000000176, 0.5000000000000000000 ) ) ;
#395 = PLANE ( 'NONE',  #341 ) ;
#396 = DIRECTION ( 'NONE',  ( 0.000000000000000000, 0.000000000000000000, 1.000000000000000000 ) ) ;
#397 = ORIENTED_EDGE ( 'NONE', *, *, #198, .F. ) ;
#398 = DIRECTION ( 'NONE',  ( -1.000000000000000000, 0.000000000000000000, 0.000000000000000000 ) ) ;
#399 = AXIS2_PLACEMENT_3D ( 'NONE', #148, #322, #27 ) ;
#400 = VERTEX_POINT ( 'NONE', #419 ) ;
#401 = FACE_OUTER_BOUND ( 'NONE', #336, .T. ) ;
#402 = CARTESIAN_POINT ( 'NONE',  ( 8.195543980992789655E-16, 1.323000000000000176, 0.2500000000000000000 ) ) ;
#403 = EDGE_LOOP ( 'NONE', ( #536, #272, #467, #269 ) ) ;
#404 = ADVANCED_FACE ( 'NONE', ( #123, #35 ), #376, .F. ) ;
#405 = LINE ( 'NONE', #63, #94 ) ;
#406 = DIRECTION ( 'NONE',  ( -0.000000000000000000, -0.000000000000000000, -1.000000000000000000 ) ) ;
#407 = ORIENTED_EDGE ( 'NONE', *, *, #9, .F. ) ;
#408 = DIRECTION ( 'NONE',  ( 1.000000000000000000, 0.000000000000000000, 0.000000000000000000 ) ) ;
#409 = MANIFOLD_SOLID_BREP ( '#10 (0.1935) Diameter Hole1', #454 ) ;
#410 = ORIENTED_EDGE ( 'NONE', *, *, #284, .F. ) ;
#411 = AXIS2_PLACEMENT_3D ( 'NONE', #484, #220, #398 ) ;
#412 = CARTESIAN_POINT ( 'NONE',  ( -0.8882461083059893792, 0.9730000000000001981, 0.5000000000000000000 ) ) ;
#413 = ORIENTED_EDGE ( 'NONE', *, *, #235, .T. ) ;
#414 = ADVANCED_FACE ( 'NONE', ( #294 ), #381, .F. ) ;
#415 = DIRECTION ( 'NONE',  ( -0.000000000000000000, 1.000000000000000000, -0.000000000000000000 ) ) ;
#416 = ORIENTED_EDGE ( 'NONE', *, *, #9, .T. ) ;
#417 = CARTESIAN_POINT ( 'NONE',  ( 1.200000000000000400, 1.323000000000000176, 0.2500000000000000555 ) ) ;
#418 = ORIENTED_EDGE ( 'NONE', *, *, #429, .T. ) ;
#419 = CARTESIAN_POINT ( 'NONE',  ( 0.8882461083059896012, 0.9730000000000001981, 0.5000000000000000000 ) ) ;
#420 = AXIS2_PLACEMENT_3D ( 'NONE', #486, #192, #144 ) ;
#421 = VERTEX_POINT ( 'NONE', #476 ) ;
#422 = LENGTH_MEASURE_WITH_UNIT ( LENGTH_MEASURE( 0.02539999999999999897 ), #245 );
#423 = EDGE_CURVE ( 'NONE', #338, #495, #249, .T. ) ;
#424 = ORIENTED_EDGE ( 'NONE', *, *, #518, .F. ) ;
#425 = CARTESIAN_POINT ( 'NONE',  ( -0.8882461083059893792, 0.9730000000000001981, 0.000000000000000000 ) ) ;
#426 = DIRECTION ( 'NONE',  ( 0.000000000000000000, 0.000000000000000000, 1.000000000000000000 ) ) ;
#427 = ORIENTED_EDGE ( 'NONE', *, *, #138, .F. ) ;
#428 = AXIS2_PLACEMENT_3D ( 'NONE', #308, #225, #526 ) ;
#429 = EDGE_CURVE ( 'NONE', #200, #314, #516, .T. ) ;
#430 = CARTESIAN_POINT ( 'NONE',  ( 1.500000000000000444, 0.9730000000000001981, 0.000000000000000000 ) ) ;
#431 = EDGE_LOOP ( 'NONE', ( #165, #97 ) ) ;
#432 = DIRECTION ( 'NONE',  ( -0.000000000000000000, 1.000000000000000000, -0.000000000000000000 ) ) ;
#433 = CYLINDRICAL_SURFACE ( 'NONE', #482, 0.09674999999999986389 ) ;
#434 = DIRECTION ( 'NONE',  ( -0.000000000000000000, -0.000000000000000000, -1.000000000000000000 ) ) ;
#435 = VECTOR ( 'NONE', #125, 39.37007874015748143 ) ;
#436 = PLANE ( 'NONE',  #349 ) ;
#437 = APPLICATION_PROTOCOL_DEFINITION ( 'draft international standard', 'automotive_design', 1998, #380 ) ;
#438 = FACE_OUTER_BOUND ( 'NONE', #281, .T. ) ;
#439 = EDGE_CURVE ( 'NONE', #147, #385, #390, .T. ) ;
#440 = ORIENTED_EDGE ( 'NONE', *, *, #38, .F. ) ;
#441 = ORIENTED_EDGE ( 'NONE', *, *, #198, .T. ) ;
#442 = DIRECTION ( 'NONE',  ( -0.000000000000000000, 1.000000000000000000, -0.000000000000000000 ) ) ;
#443 = EDGE_CURVE ( 'NONE', #483, #191, #92, .T. ) ;
#444 = AXIS2_PLACEMENT_3D ( 'NONE', #211, #392, #8 ) ;
#445 = EDGE_LOOP ( 'NONE', ( #364, #424, #230, #184 ) ) ;
#446 = LINE ( 'NONE', #29, #121 ) ;
#447 = VERTEX_POINT ( 'NONE', #430 ) ;
#448 = DIRECTION ( 'NONE',  ( -0.000000000000000000, 1.000000000000000000, -0.000000000000000000 ) ) ;
#449 = CARTESIAN_POINT ( 'NONE',  ( 0.000000000000000000, 0.000000000000000000, 0.000000000000000000 ) ) ;
#450 = ORIENTED_EDGE ( 'NONE', *, *, #313, .F. ) ;
#451 = PLANE ( 'NONE',  #391 ) ;
#452 = ORIENTED_EDGE ( 'NONE', *, *, #328, .T. ) ;
#453 = AXIS2_PLACEMENT_3D ( 'NONE', #389, #132, #306 ) ;
#454 = CLOSED_SHELL ( 'NONE', ( #414, #505, #538, #239, #404, #305, #23, #507, #141, #325, #105, #461, #56, #379, #46, #474 ) ) ;
#455 = DIRECTION ( 'NONE',  ( 0.000000000000000000, 0.000000000000000000, 1.000000000000000000 ) ) ;
#456 = PRODUCT_DEFINITION_FORMATION_WITH_SPECIFIED_SOURCE ( 'Symmetric', '', #329, .NOT_KNOWN. ) ;
#457 = ORIENTED_EDGE ( 'NONE', *, *, #119, .T. ) ;
#458 = DIRECTION ( 'NONE',  ( 0.000000000000000000, 0.000000000000000000, 1.000000000000000000 ) ) ;
#459 = ORIENTED_EDGE ( 'NONE', *, *, #377, .F. ) ;
#460 = FACE_OUTER_BOUND ( 'NONE', #445, .T. ) ;
#461 = ADVANCED_FACE ( 'NONE', ( #298 ), #171, .T. ) ;
#462 = ORIENTED_EDGE ( 'NONE', *, *, #353, .T. ) ;
#463 = CARTESIAN_POINT ( 'NONE',  ( 8.314028558810295785E-16, 1.323000000000000176, 0.1532500000000000528 ) ) ;
#464 = ORIENTED_EDGE ( 'NONE', *, *, #503, .F. ) ;
#465 = LINE ( 'NONE', #468, #292 ) ;
#466 = CARTESIAN_POINT ( 'NONE',  ( -1.199999999999999956, 1.323000000000000176, 0.2500000000000003331 ) ) ;
#467 = ORIENTED_EDGE ( 'NONE', *, *, #282, .T. ) ;
#468 = CARTESIAN_POINT ( 'NONE',  ( -0.4867538916940105653, 0.9730000000000001981, 0.5000000000000000000 ) ) ;
#469 = CARTESIAN_POINT ( 'NONE',  ( 8.195543980992789655E-16, 1.323000000000000176, 0.3467499999999999472 ) ) ;
#470 = PLANE ( 'NONE',  #444 ) ;
#471 = ORIENTED_EDGE ( 'NONE', *, *, #277, .F. ) ;
#472 = FACE_OUTER_BOUND ( 'NONE', #109, .T. ) ;
#473 = DIRECTION ( 'NONE',  ( 1.000000000000000000, 0.000000000000000000, -0.000000000000000000 ) ) ;
#474 = ADVANCED_FACE ( 'NONE', ( #88 ), #433, .F. ) ;
#475 = VERTEX_POINT ( 'NONE', #210 ) ;
#476 = CARTESIAN_POINT ( 'NONE',  ( 1.500000000000000444, 0.9730000000000001981, 0.5000000000000000000 ) ) ;
#477 = EDGE_CURVE ( 'NONE', #475, #483, #543, .T. ) ;
#478 = PRODUCT_DEFINITION ( 'General', '', #456, #242 ) ;
#479 = DIRECTION ( 'NONE',  ( -0.000000000000000000, 1.000000000000000000, -0.000000000000000000 ) ) ;
#480 = VECTOR ( 'NONE', #251, 39.37007874015748143 ) ;
#481 = CARTESIAN_POINT ( 'NONE',  ( 0.8882461083059896012, 0.9730000000000001981, 0.000000000000000000 ) ) ;
#482 = AXIS2_PLACEMENT_3D ( 'NONE', #257, #47, #426 ) ;
#483 = VERTEX_POINT ( 'NONE', #59 ) ;
#484 = CARTESIAN_POINT ( 'NONE',  ( 0.6875000000000000000, 0.8240000000000003988, 0.000000000000000000 ) ) ;
#485 = EDGE_LOOP ( 'NONE', ( #75, #464 ) ) ;
#486 = CARTESIAN_POINT ( 'NONE',  ( 1.200000000000000400, 1.323000000000000176, 0.2500000000000000555 ) ) ;
#487 = CARTESIAN_POINT ( 'NONE',  ( 1.500000000000000444, 1.323000000000000176, 0.5000000000000000000 ) ) ;
#488 = ORIENTED_EDGE ( 'NONE', *, *, #122, .T. ) ;
#489 = DIRECTION ( 'NONE',  ( -1.000000000000000000, 0.000000000000000000, 0.000000000000000000 ) ) ;
#490 = CYLINDRICAL_SURFACE ( 'NONE', #234, 0.09674999999999989164 ) ;
#491 = CIRCLE ( 'NONE', #194, 0.2500000000000000555 ) ;
#492 = ORIENTED_EDGE ( 'NONE', *, *, #282, .F. ) ;
#493 = CYLINDRICAL_SURFACE ( 'NONE', #399, 0.2500000000000000555 ) ;
#494 = LENGTH_MEASURE_WITH_UNIT ( LENGTH_MEASURE( 0.02539999999999999897 ), #64 );
#495 = VERTEX_POINT ( 'NONE', #312 ) ;
#496 = LINE ( 'NONE', #69, #480 ) ;
#497 = VERTEX_POINT ( 'NONE', #13 ) ;
#498 = DIRECTION ( 'NONE',  ( -0.000000000000000000, 1.000000000000000000, -0.000000000000000000 ) ) ;
#499 = EDGE_CURVE ( 'NONE', #497, #267, #26, .T. ) ;
#500 = CARTESIAN_POINT ( 'NONE',  ( 0.8882461083059896012, 0.9730000000000001981, 0.5000000000000000000 ) ) ;
#501 = CIRCLE ( 'NONE', #453, 0.09674999999999993328 ) ;
#502 = CIRCLE ( 'NONE', #384, 0.09674999999999989164 ) ;
#503 = EDGE_CURVE ( 'NONE', #25, #21, #524, .T. ) ;
#504 = ORIENTED_EDGE ( 'NONE', *, *, #248, .F. ) ;
#505 = ADVANCED_FACE ( 'NONE', ( #142 ), #316, .F. ) ;
#506 = EDGE_LOOP ( 'NONE', ( #71, #285, #450, #488 ) ) ;
#507 = ADVANCED_FACE ( 'NONE', ( #217 ), #18, .F. ) ;
#508 = FACE_BOUND ( 'NONE', #154, .T. ) ;
#509 = VECTOR ( 'NONE', #386, 39.37007874015748143 ) ;
#510 = EDGE_LOOP ( 'NONE', ( #52, #219, #118, #157 ) ) ;
#511 = CARTESIAN_POINT ( 'NONE',  ( -1.499999999999999778, 0.9730000000000001981, 0.000000000000000000 ) ) ;
#512 = DIRECTION ( 'NONE',  ( -0.000000000000000000, -0.000000000000000000, -1.000000000000000000 ) ) ;
#513 = DIMENSIONAL_EXPONENTS ( 1.000000000000000000, 0.000000000000000000, 0.000000000000000000, 0.000000000000000000, 0.000000000000000000, 0.000000000000000000, 0.000000000000000000 ) ;
#514 = CARTESIAN_POINT ( 'NONE',  ( -1.199999999999999956, 1.323000000000000176, 0.2500000000000003331 ) ) ;
#515 = AXIS2_PLACEMENT_3D ( 'NONE', #258, #432, #48 ) ;
#516 = LINE ( 'NONE', #131, #393 ) ;
#517 = CARTESIAN_POINT ( 'NONE',  ( -1.199999999999999956, 1.323000000000000176, 0.1532500000000004692 ) ) ;
#518 = EDGE_CURVE ( 'NONE', #522, #288, #502, .T. ) ;
#519 = FACE_BOUND ( 'NONE', #152, .T. ) ;
#520 = EDGE_CURVE ( 'NONE', #288, #301, #280, .T. ) ;
#521 = CARTESIAN_POINT ( 'NONE',  ( 1.200000000000000400, 1.323000000000000176, 0.1532500000000001639 ) ) ;
#522 = VERTEX_POINT ( 'NONE', #15 ) ;
#523 = CIRCLE ( 'NONE', #212, 0.09674999999999986389 ) ;
#524 = CIRCLE ( 'NONE', #428, 0.09674999999999986389 ) ;
#525 = CARTESIAN_POINT ( 'NONE',  ( 0.4867538916940103988, 0.9730000000000001981, 0.5000000000000000000 ) ) ;
#526 = DIRECTION ( 'NONE',  ( 0.000000000000000000, 0.000000000000000000, 1.000000000000000000 ) ) ;
#527 = ORIENTED_EDGE ( 'NONE', *, *, #235, .F. ) ;
#528 = DIRECTION ( 'NONE',  ( -1.000000000000000000, -0.000000000000000000, -0.000000000000000000 ) ) ;
#529 = CARTESIAN_POINT ( 'NONE',  ( 1.200000000000000400, 0.9730000000000001981, 0.2500000000000000555 ) ) ;
#530 = ORIENTED_EDGE ( 'NONE', *, *, #303, .F. ) ;
#531 = CARTESIAN_POINT ( 'NONE',  ( 8.195543980992789655E-16, 1.323000000000000176, 0.2500000000000000000 ) ) ;
#532 =( CONVERSION_BASED_UNIT ( 'INCH', #494 ) LENGTH_UNIT ( ) NAMED_UNIT ( #206 ) );
#533 = CIRCLE ( 'NONE', #372, 0.09674999999999993328 ) ;
#534 = ORIENTED_EDGE ( 'NONE', *, *, #544, .T. ) ;
#535 = DIRECTION ( 'NONE',  ( 0.000000000000000000, 0.000000000000000000, -1.000000000000000000 ) ) ;
#536 = ORIENTED_EDGE ( 'NONE', *, *, #477, .F. ) ;
#537 = CARTESIAN_POINT ( 'NONE',  ( 8.314028558810295785E-16, 1.323000000000000176, 0.1532500000000001084 ) ) ;
#538 = ADVANCED_FACE ( 'NONE', ( #319 ), #490, .F. ) ;
#539 = ORIENTED_EDGE ( 'NONE', *, *, #119, .F. ) ;
#540 = FILL_AREA_STYLE_COLOUR ( '', #113 ) ;
#541 = ORIENTED_EDGE ( 'NONE', *, *, #5, .F. ) ;
#542 = AXIS2_PLACEMENT_3D ( 'NONE', #241, #37, #201 ) ;
#543 = CIRCLE ( 'NONE', #195, 0.09674999999999986389 ) ;
#544 = EDGE_CURVE ( 'NONE', #293, #400, #104, .T. ) ;
#545 = ORIENTED_EDGE ( 'NONE', *, *, #499, .F. ) ;
#546 = PRESENTATION_STYLE_ASSIGNMENT (( #548 ) ) ;
#547 = EDGE_LOOP ( 'NONE', ( #504, #199, #189, #527 ) ) ;
#548 = SURFACE_STYLE_USAGE ( .BOTH. , #164 ) ;
#549 =( NAMED_UNIT ( * ) SI_UNIT ( $, .STERADIAN. ) SOLID_ANGLE_UNIT ( ) );
#550 = DIRECTION ( 'NONE',  ( 0.000000000000000000, -0.000000000000000000, 1.000000000000000000 ) ) ;
#551 = VECTOR ( 'NONE', #337, 39.37007874015748143 ) ;
ENDSEC;
END-ISO-10303-21;
