ISO-10303-21;
HEADER;
FILE_DESCRIPTION (( 'STEP AP214' ),
    '1' );
FILE_NAME ('Spacer, small.STEP',
    '2026-02-20T19:34:19',
    ( '' ),
    ( '' ),
    'SwSTEP 2.0',
    'SolidWorks 2025',
    '' );
FILE_SCHEMA (( 'AUTOMOTIVE_DESIGN' ));
ENDSEC;

DATA;
#1 = DIRECTION ( 'NONE',  ( 0.000000000000000000, 0.000000000000000000, -1.000000000000000000 ) ) ;
#2 = PRESENTATION_STYLE_ASSIGNMENT (( #263 ) ) ;
#3 = ORIENTED_EDGE ( 'NONE', *, *, #31, .F. ) ;
#4 = DIMENSIONAL_EXPONENTS ( 1.000000000000000000, 0.000000000000000000, 0.000000000000000000, 0.000000000000000000, 0.000000000000000000, 0.000000000000000000, 0.000000000000000000 ) ;
#5 = VERTEX_POINT ( 'NONE', #273 ) ;
#6 = LINE ( 'NONE', #209, #142 ) ;
#7 = CARTESIAN_POINT ( 'NONE',  ( -0.01765154914195886382, 0.1944300917067234569, 0.1867157342061862291 ) ) ;
#8 = PRODUCT_RELATED_PRODUCT_CATEGORY ( 'part', '', ( #304 ) ) ;
#9 = ORIENTED_EDGE ( 'NONE', *, *, #334, .F. ) ;
#10 = ORIENTED_EDGE ( 'NONE', *, *, #136, .F. ) ;
#11 = CARTESIAN_POINT ( 'NONE',  ( -0.01770706262020931704, 0.2555421693919432413, 0.1238139216469382187 ) ) ;
#12 = ORIENTED_EDGE ( 'NONE', *, *, #152, .T. ) ;
#13 = LINE ( 'NONE', #245, #295 ) ;
#14 = CARTESIAN_POINT ( 'NONE',  ( -0.009175913854353833291, 0.2590873493779947134, 0.1873237315486177557 ) ) ;
#15 = CARTESIAN_POINT ( 'NONE',  ( 2.296212748401287726E-17, 0.4499999999999999556, 0.1875000000000000278 ) ) ;
#16 = CARTESIAN_POINT ( 'NONE',  ( -0.004591053148049987521, 0.1900000000000027223, 0.1249999999999992506 ) ) ;
#17 = VERTEX_POINT ( 'NONE', #367 ) ;
#18 = CARTESIAN_POINT ( 'NONE',  ( 0.000000000000000000, 0.000000000000000000, 0.000000000000000000 ) ) ;
#19 = AXIS2_PLACEMENT_3D ( 'NONE', #75, #216, #362 ) ;
#20 = EDGE_CURVE ( 'NONE', #17, #236, #81, .T. ) ;
#21 = EDGE_LOOP ( 'NONE', ( #178, #33 ) ) ;
#22 = B_SPLINE_CURVE_WITH_KNOTS ( 'NONE', 3,
 ( #58, #205, #55, #259, #59, #257, #286, #293, #229, #28 ),
 .UNSPECIFIED., .F., .F.,
 ( 4, 2, 2, 2, 4 ),
 ( 0.000000000000000000, 0.0003482762799307284021, 0.0006965525598614568043, 0.001044828839792185261, 0.001393105119722913609 ),
 .UNSPECIFIED. ) ;
#23 = CARTESIAN_POINT ( 'NONE',  ( 0.004613961021298779337, 0.2599999999999999534, 0.1249999999999999861 ) ) ;
#24 = CARTESIAN_POINT ( 'NONE',  ( 0.01763640707172878588, 0.1944265522781082056, 0.1238219876880718856 ) ) ;
#25 = DIRECTION ( 'NONE',  ( 0.000000000000000000, 1.000000000000000000, 0.000000000000000000 ) ) ;
#26 = CARTESIAN_POINT ( 'NONE',  ( 0.02795800817303183486, 0.2465418085286612826, 0.1854323076069607223 ) ) ;
#27 = VECTOR ( 'NONE', #169, 39.37007874015748143 ) ;
#28 = CARTESIAN_POINT ( 'NONE',  ( -2.861173082466002682E-14, 0.1899999999997455946, 0.1875000000000475175 ) ) ;
#29 = DIRECTION ( 'NONE',  ( 0.000000000000000000, 1.000000000000000000, 0.000000000000000000 ) ) ;
#30 = CARTESIAN_POINT ( 'NONE',  ( 0.03499999999999992700, 0.2249999999999999778, 0.1842043701978864911 ) ) ;
#31 = EDGE_CURVE ( 'NONE', #156, #17, #369, .T. ) ;
#32 = AXIS2_PLACEMENT_3D ( 'NONE', #372, #110, #288 ) ;
#33 = ORIENTED_EDGE ( 'NONE', *, *, #181, .T. ) ;
#34 = ORIENTED_EDGE ( 'NONE', *, *, #166, .F. ) ;
#35 = EDGE_CURVE ( 'NONE', #183, #303, #191, .T. ) ;
#36 = CARTESIAN_POINT ( 'NONE',  ( -0.03057863818573286832, 0.2073668770518995452, 0.1849982898515522556 ) ) ;
#37 = ORIENTED_EDGE ( 'NONE', *, *, #223, .F. ) ;
#38 =( CONVERSION_BASED_UNIT ( 'INCH', #91 ) LENGTH_UNIT ( ) NAMED_UNIT ( #4 ) );
#39 = VERTEX_POINT ( 'NONE', #250 ) ;
#40 = CARTESIAN_POINT ( 'NONE',  ( -0.03499999999999985761, 0.2249999999999999778, 0.1200000000000000372 ) ) ;
#41 = ADVANCED_FACE ( 'NONE', ( #225 ), #340, .F. ) ;
#42 = ORIENTED_EDGE ( 'NONE', *, *, #346, .T. ) ;
#43 = ORIENTED_EDGE ( 'NONE', *, *, #223, .T. ) ;
#44 = CARTESIAN_POINT ( 'NONE',  ( 0.004593526948631218403, 0.1899999999999973932, 0.1250000000000007494 ) ) ;
#45 = AXIS2_PLACEMENT_3D ( 'NONE', #342, #227, #347 ) ;
#46 = CARTESIAN_POINT ( 'NONE',  ( -0.02799702775230069468, 0.2035036427886204313, 0.1218689609036212318 ) ) ;
#47 =( LENGTH_UNIT ( ) NAMED_UNIT ( * ) SI_UNIT ( $, .METRE. ) );
#48 = CARTESIAN_POINT ( 'NONE',  ( 2.296209493245332877E-17, 0.2599999999999998979, 0.1875000000000000278 ) ) ;
#49 = DIRECTION ( 'NONE',  ( 0.000000000000000000, 0.000000000000000000, 1.000000000000000000 ) ) ;
#50 = EDGE_CURVE ( 'NONE', #167, #156, #287, .T. ) ;
#51 = CARTESIAN_POINT ( 'NONE',  ( 3.414809992080329023E-17, 0.2249999999999999778, 0.1875000000000000278 ) ) ;
#52 = MECHANICAL_DESIGN_GEOMETRIC_PRESENTATION_REPRESENTATION (  '', ( #96 ), #318 ) ;
#53 = DIRECTION ( 'NONE',  ( -0.000000000000000000, -1.000000000000000000, -0.000000000000000000 ) ) ;
#54 = APPLICATION_PROTOCOL_DEFINITION ( 'draft international standard', 'automotive_design', 1998, #224 ) ;
#55 = CARTESIAN_POINT ( 'NONE',  ( 0.03408304426166273299, 0.2158132731681502436, 0.1843848893409594514 ) ) ;
#56 = FACE_OUTER_BOUND ( 'NONE', #327, .T. ) ;
#57 = PLANE ( 'NONE',  #243 ) ;
#58 = CARTESIAN_POINT ( 'NONE',  ( 0.03499999999999992700, 0.2249999999999999778, 0.1842043701978864911 ) ) ;
#59 = CARTESIAN_POINT ( 'NONE',  ( 0.02796193373519799755, 0.2034618395901841847, 0.1854318037064326408 ) ) ;
#60 = FACE_OUTER_BOUND ( 'NONE', #300, .T. ) ;
#61 = AXIS2_PLACEMENT_3D ( 'NONE', #308, #281, #159 ) ;
#62 = ORIENTED_EDGE ( 'NONE', *, *, #292, .T. ) ;
#63 = EDGE_CURVE ( 'NONE', #147, #5, #309, .T. ) ;
#64 = CARTESIAN_POINT ( 'NONE',  ( -0.009166254369765338555, 0.1909107603341011761, 0.1873241104825936476 ) ) ;
#65 = ORIENTED_EDGE ( 'NONE', *, *, #63, .T. ) ;
#66 = B_SPLINE_CURVE_WITH_KNOTS ( 'NONE', 3,
 ( #40, #154, #119, #67, #272, #150, #11, #267, #270, #332 ),
 .UNSPECIFIED., .F., .F.,
 ( 4, 2, 2, 2, 4 ),
 ( 0.002793414268840549788, 0.003142530658243390933, 0.003491647047646232078, 0.003840763437049073224, 0.004189879826451914369 ),
 .UNSPECIFIED. ) ;
#67 = CARTESIAN_POINT ( 'NONE',  ( -0.03057100829101956976, 0.2426427296710356729, 0.1212175793350602770 ) ) ;
#68 = ORIENTED_EDGE ( 'NONE', *, *, #302, .F. ) ;
#69 = AXIS2_PLACEMENT_3D ( 'NONE', #77, #157, #277 ) ;
#70 = CARTESIAN_POINT ( 'NONE',  ( 1.530808498934191509E-17, 0.4499999999999999556, 0.1250000000000000000 ) ) ;
#71 = ORIENTED_EDGE ( 'NONE', *, *, #166, .T. ) ;
#72 = DIRECTION ( 'NONE',  ( -0.000000000000000000, -0.000000000000000000, 1.000000000000000000 ) ) ;
#73 = UNCERTAINTY_MEASURE_WITH_UNIT (LENGTH_MEASURE( 1.000000000000000082E-05 ), #161, 'distance_accuracy_value', 'NONE');
#74 = CARTESIAN_POINT ( 'NONE',  ( 0.02795213859837181528, 0.2465470501979231122, 0.1218786377420522649 ) ) ;
#75 = CARTESIAN_POINT ( 'NONE',  ( 0.000000000000000000, 0.4499999999999999556, 0.000000000000000000 ) ) ;
#76 = CIRCLE ( 'NONE', #289, 0.1875000000000000278 ) ;
#77 = CARTESIAN_POINT ( 'NONE',  ( 0.000000000000000000, 0.000000000000000000, 0.000000000000000000 ) ) ;
#78 = CARTESIAN_POINT ( 'NONE',  ( -0.02153165201060985509, 0.1970301072934428077, 0.1231757490595671162 ) ) ;
#79 = ORIENTED_EDGE ( 'NONE', *, *, #324, .F. ) ;
#80 = CARTESIAN_POINT ( 'NONE',  ( 2.296212748401287726E-17, 0.4499999999999999556, 0.1875000000000000278 ) ) ;
#81 = B_SPLINE_CURVE_WITH_KNOTS ( 'NONE', 3,
 ( #135, #338, #221, #371, #307, #134, #215, #14, #106, #48 ),
 .UNSPECIFIED., .F., .F.,
 ( 4, 2, 2, 2, 4 ),
 ( 0.002785528575972148670, 0.003133749537669167345, 0.003481970499366186453, 0.003830191461063205127, 0.004178412422760223802 ),
 .UNSPECIFIED. ) ;
#82 = DIRECTION ( 'NONE',  ( 0.000000000000000000, 1.000000000000000000, 0.000000000000000000 ) ) ;
#83 = CARTESIAN_POINT ( 'NONE',  ( -1.173627113474192957E-14, 0.1899999999998891465, 0.1250000000000310862 ) ) ;
#84 =( GEOMETRIC_REPRESENTATION_CONTEXT ( 3 ) GLOBAL_UNCERTAINTY_ASSIGNED_CONTEXT ( ( #73 ) ) GLOBAL_UNIT_ASSIGNED_CONTEXT ( ( #161, #251, #339 ) ) REPRESENTATION_CONTEXT ( 'NONE', 'WORKASPACE' ) );
#85 = EDGE_CURVE ( 'NONE', #5, #244, #231, .T. ) ;
#86 = DIRECTION ( 'NONE',  ( -0.000000000000000000, -1.000000000000000000, -0.000000000000000000 ) ) ;
#87 = CARTESIAN_POINT ( 'NONE',  ( -0.02150128090843461681, 0.1970020845305535395, 0.1862920323951880175 ) ) ;
#88 = VERTEX_POINT ( 'NONE', #109 ) ;
#89 =( NAMED_UNIT ( * ) PLANE_ANGLE_UNIT ( ) SI_UNIT ( $, .RADIAN. ) );
#90 = ORIENTED_EDGE ( 'NONE', *, *, #206, .T. ) ;
#91 = LENGTH_MEASURE_WITH_UNIT ( LENGTH_MEASURE( 0.02539999999999999897 ), #239 );
#92 = ORIENTED_EDGE ( 'NONE', *, *, #63, .F. ) ;
#93 = DIRECTION ( 'NONE',  ( -0.000000000000000000, -1.000000000000000000, -0.000000000000000000 ) ) ;
#94 = EDGE_LOOP ( 'NONE', ( #328, #65, #117, #271, #43, #162, #213 ) ) ;
#95 = DIRECTION ( 'NONE',  ( -0.000000000000000000, -1.000000000000000000, -0.000000000000000000 ) ) ;
#96 = STYLED_ITEM ( 'NONE', ( #2 ), #282 ) ;
#97 = ADVANCED_FACE ( 'NONE', ( #315 ), #322, .F. ) ;
#98 = ORIENTED_EDGE ( 'NONE', *, *, #302, .T. ) ;
#99 = CARTESIAN_POINT ( 'NONE',  ( 0.03055190144400387470, 0.2073192604333273792, 0.1212225535306009350 ) ) ;
#100 = VERTEX_POINT ( 'NONE', #30 ) ;
#101 = DIRECTION ( 'NONE',  ( 0.000000000000000000, -0.000000000000000000, 1.000000000000000000 ) ) ;
#102 = PRODUCT_DEFINITION ( 'General', '', #171, #359 ) ;
#103 = CARTESIAN_POINT ( 'NONE',  ( -0.01768919866207389890, 0.1944501521470189953, 0.1238159094564756368 ) ) ;
#104 = LENGTH_MEASURE_WITH_UNIT ( LENGTH_MEASURE( 0.02539999999999999897 ), #47 );
#105 = CIRCLE ( 'NONE', #214, 0.1875000000000000278 ) ;
#106 = CARTESIAN_POINT ( 'NONE',  ( -0.004623916200334685089, 0.2599999999999998979, 0.1875000000000000278 ) ) ;
#107 = APPLICATION_PROTOCOL_DEFINITION ( 'draft international standard', 'automotive_design', 1998, #266 ) ;
#108 = CARTESIAN_POINT ( 'NONE',  ( -1.173627113474192957E-14, 0.1899999999998891465, 0.1250000000000310862 ) ) ;
#109 = CARTESIAN_POINT ( 'NONE',  ( 2.296212748401287726E-17, 0.000000000000000000, 0.1875000000000000278 ) ) ;
#110 = DIRECTION ( 'NONE',  ( -0.000000000000000000, -1.000000000000000000, -0.000000000000000000 ) ) ;
#111 = CARTESIAN_POINT ( 'NONE',  ( 0.000000000000000000, 0.4499999999999999556, 0.000000000000000000 ) ) ;
#112 = CARTESIAN_POINT ( 'NONE',  ( 0.03499999999999992700, 0.2249999999999999778, 0.1875000000000000278 ) ) ;
#113 = ADVANCED_FACE ( 'NONE', ( #56 ), #344, .T. ) ;
#114 = CARTESIAN_POINT ( 'NONE',  ( 0.000000000000000000, 0.4499999999999999556, 0.000000000000000000 ) ) ;
#115 = VECTOR ( 'NONE', #235, 39.37007874015748143 ) ;
#116 = CARTESIAN_POINT ( 'NONE',  ( -0.03499999999999985761, 0.2249999999999999778, 0.1842043701978864911 ) ) ;
#117 = ORIENTED_EDGE ( 'NONE', *, *, #292, .F. ) ;
#118 = EDGE_LOOP ( 'NONE', ( #10, #79, #98, #230, #9, #269, #279 ) ) ;
#119 = CARTESIAN_POINT ( 'NONE',  ( -0.03407428239615054727, 0.2342084600972266784, 0.1202798044850781484 ) ) ;
#120 = DIRECTION ( 'NONE',  ( 0.000000000000000000, 1.000000000000000000, 0.000000000000000000 ) ) ;
#121 = VERTEX_POINT ( 'NONE', #316 ) ;
#122 = UNCERTAINTY_MEASURE_WITH_UNIT (LENGTH_MEASURE( 1.000000000000000082E-05 ), #38, 'distance_accuracy_value', 'NONE');
#123 = EDGE_LOOP ( 'NONE', ( #187, #34 ) ) ;
#124 = ORIENTED_EDGE ( 'NONE', *, *, #20, .F. ) ;
#125 = CIRCLE ( 'NONE', #19, 0.1250000000000000000 ) ;
#126 = CARTESIAN_POINT ( 'NONE',  ( -0.03499999999999985761, 0.2249999999999999778, 0.1875000000000000278 ) ) ;
#127 = CARTESIAN_POINT ( 'NONE',  ( 0.009217227980809331034, 0.1909291727668264715, 0.1247315926210137843 ) ) ;
#128 = EDGE_CURVE ( 'NONE', #236, #100, #348, .T. ) ;
#129 = CARTESIAN_POINT ( 'NONE',  ( -0.03407707931978309901, 0.2158007085297369287, 0.1202790131312772709 ) ) ;
#130 = CARTESIAN_POINT ( 'NONE',  ( -0.03057369491968178407, 0.2073613073761157721, 0.1212169027560058704 ) ) ;
#131 = CARTESIAN_POINT ( 'NONE',  ( 0.000000000000000000, 0.4499999999999999556, 0.000000000000000000 ) ) ;
#132 = PRODUCT_DEFINITION_SHAPE ( 'NONE', 'NONE',  #102 ) ;
#133 = COLOUR_RGB ( '',0.7921568627450980005, 0.8196078431372548767, 0.9333333333333333481 ) ;
#134 = CARTESIAN_POINT ( 'NONE',  ( -0.02153134381932762798, 0.2529683774129693474, 0.1862880647997777750 ) ) ;
#135 = CARTESIAN_POINT ( 'NONE',  ( -0.03499999999999985761, 0.2249999999999999778, 0.1842043701978864911 ) ) ;
#136 = EDGE_CURVE ( 'NONE', #121, #236, #140, .T. ) ;
#137 = DIRECTION ( 'NONE',  ( 0.000000000000000000, 0.000000000000000000, 1.000000000000000000 ) ) ;
#138 = CARTESIAN_POINT ( 'NONE',  ( 0.03499999999999992700, 0.2296332735683637716, 0.1842043701978864911 ) ) ;
#139 = EDGE_CURVE ( 'NONE', #100, #264, #22, .T. ) ;
#140 = LINE ( 'NONE', #80, #313 ) ;
#141 = CARTESIAN_POINT ( 'NONE',  ( 0.000000000000000000, 0.000000000000000000, 0.000000000000000000 ) ) ;
#142 = VECTOR ( 'NONE', #95, 39.37007874015748143 ) ;
#143 = CARTESIAN_POINT ( 'NONE',  ( -0.03499999999999985761, 0.2249999999999999778, 0.1200000000000000372 ) ) ;
#144 = AXIS2_PLACEMENT_3D ( 'NONE', #265, #120, #299 ) ;
#145 = B_SPLINE_CURVE_WITH_KNOTS ( 'NONE', 3,
 ( #163, #276, #220, #99, #195, #370, #24, #127, #44, #336 ),
 .UNSPECIFIED., .F., .F.,
 ( 4, 2, 2, 2, 4 ),
 ( 0.000000000000000000, 0.0003492708318615149964, 0.0006985416637230299928, 0.001047812495584544935, 0.001397083327446059986 ),
 .UNSPECIFIED. ) ;
#146 = SURFACE_SIDE_STYLE ('',( #350 ) ) ;
#147 = VERTEX_POINT ( 'NONE', #375 ) ;
#148 = ORIENTED_EDGE ( 'NONE', *, *, #254, .F. ) ;
#149 = CARTESIAN_POINT ( 'NONE',  ( 0.03499999999999992700, 0.2249999999999999778, 0.1200000000000000233 ) ) ;
#150 = CARTESIAN_POINT ( 'NONE',  ( -0.02152819434616297725, 0.2529711732647428879, 0.1231762189263979484 ) ) ;
#151 = DIRECTION ( 'NONE',  ( 0.000000000000000000, 1.000000000000000000, 0.000000000000000000 ) ) ;
#152 = EDGE_CURVE ( 'NONE', #244, #100, #262, .T. ) ;
#153 = ORIENTED_EDGE ( 'NONE', *, *, #249, .F. ) ;
#154 = CARTESIAN_POINT ( 'NONE',  ( -0.03499999999999985068, 0.2295820054920897912, 0.1200000000000000372 ) ) ;
#155 = FILL_AREA_STYLE_COLOUR ( '', #133 ) ;
#156 = VERTEX_POINT ( 'NONE', #143 ) ;
#157 = DIRECTION ( 'NONE',  ( 0.000000000000000000, 1.000000000000000000, 0.000000000000000000 ) ) ;
#158 = AXIS2_PLACEMENT_3D ( 'NONE', #240, #151, #357 ) ;
#159 = DIRECTION ( 'NONE',  ( 0.000000000000000000, 0.000000000000000000, -1.000000000000000000 ) ) ;
#160 = CARTESIAN_POINT ( 'NONE',  ( 0.03406511951411029387, 0.2342422651630026720, 0.1202824638995880768 ) ) ;
#161 =( CONVERSION_BASED_UNIT ( 'INCH', #104 ) LENGTH_UNIT ( ) NAMED_UNIT ( #351 ) );
#162 = ORIENTED_EDGE ( 'NONE', *, *, #35, .F. ) ;
#163 = CARTESIAN_POINT ( 'NONE',  ( 0.03499999999999992700, 0.2249999999999999778, 0.1200000000000000233 ) ) ;
#164 = CARTESIAN_POINT ( 'NONE',  ( 7.340096770991224680E-18, 0.2600000000000000089, 0.1250000000000000555 ) ) ;
#165 = CARTESIAN_POINT ( 'NONE',  ( 0.000000000000000000, 0.4499999999999999556, -0.1250000000000000000 ) ) ;
#166 = EDGE_CURVE ( 'NONE', #147, #356, #237, .T. ) ;
#167 = VERTEX_POINT ( 'NONE', #83 ) ;
#168 = CARTESIAN_POINT ( 'NONE',  ( 1.530808498934191509E-17, 0.000000000000000000, 0.1250000000000000000 ) ) ;
#169 = DIRECTION ( 'NONE',  ( -0.000000000000000000, -0.000000000000000000, 1.000000000000000000 ) ) ;
#170 = CARTESIAN_POINT ( 'NONE',  ( 2.296209493245332877E-17, 0.2599999999999998979, 0.1875000000000000278 ) ) ;
#171 = PRODUCT_DEFINITION_FORMATION_WITH_SPECIFIED_SOURCE ( 'Symmetric', '', #304, .NOT_KNOWN. ) ;
#172 = CARTESIAN_POINT ( 'NONE',  ( 0.01763804757709445253, 0.2555752830079017768, 0.1867166688597612922 ) ) ;
#173 = CARTESIAN_POINT ( 'NONE',  ( 0.004620759174362019071, 0.2599999999999998979, 0.1874999999999999445 ) ) ;
#174 = CARTESIAN_POINT ( 'NONE',  ( 0.000000000000000000, 0.000000000000000000, -0.1250000000000000000 ) ) ;
#175 = AXIS2_PLACEMENT_3D ( 'NONE', #268, #93, #1 ) ;
#176 = CYLINDRICAL_SURFACE ( 'NONE', #175, 0.1250000000000000000 ) ;
#177 = CARTESIAN_POINT ( 'NONE',  ( -2.861173082466002682E-14, 0.1899999999997455946, 0.1875000000000475175 ) ) ;
#178 = ORIENTED_EDGE ( 'NONE', *, *, #324, .T. ) ;
#179 = CARTESIAN_POINT ( 'NONE',  ( -0.02800929631436213652, 0.2035135467954354571, 0.1854252025335484944 ) ) ;
#180 = ORIENTED_EDGE ( 'NONE', *, *, #284, .T. ) ;
#181 = EDGE_CURVE ( 'NONE', #121, #39, #314, .T. ) ;
#182 = CARTESIAN_POINT ( 'NONE',  ( -0.03499999999999986455, 0.2204271731155982017, 0.1842043701978864911 ) ) ;
#183 = VERTEX_POINT ( 'NONE', #174 ) ;
#184 = AXIS2_PLACEMENT_3D ( 'NONE', #18, #364, #101 ) ;
#185 =( NAMED_UNIT ( * ) SI_UNIT ( $, .STERADIAN. ) SOLID_ANGLE_UNIT ( ) );
#186 = CARTESIAN_POINT ( 'NONE',  ( -0.004575957956499703515, 0.1900000000000059419, 0.1874999999999989453 ) ) ;
#187 = ORIENTED_EDGE ( 'NONE', *, *, #360, .F. ) ;
#188 = CARTESIAN_POINT ( 'NONE',  ( 0.01764979627518992525, 0.2555671240811669964, 0.1238203702208562768 ) ) ;
#189 = FACE_OUTER_BOUND ( 'NONE', #118, .T. ) ;
#190 = CARTESIAN_POINT ( 'NONE',  ( 0.03055354667634992832, 0.2426729346275590671, 0.1212220453331918635 ) ) ;
#191 = CIRCLE ( 'NONE', #69, 0.1250000000000000000 ) ;
#192 = CYLINDRICAL_SURFACE ( 'NONE', #61, 0.1875000000000000278 ) ;
#193 = DIRECTION ( 'NONE',  ( -0.000000000000000000, -0.000000000000000000, 1.000000000000000000 ) ) ;
#194 = CARTESIAN_POINT ( 'NONE',  ( 1.530808498934191509E-17, 0.4499999999999999556, 0.1250000000000000000 ) ) ;
#195 = CARTESIAN_POINT ( 'NONE',  ( 0.02795157339618374592, 0.2034513687025539530, 0.1218788587986464611 ) ) ;
#196 = ADVANCED_FACE ( 'NONE', ( #374 ), #255, .F. ) ;
#197 = ORIENTED_EDGE ( 'NONE', *, *, #136, .T. ) ;
#198 = PLANE ( 'NONE',  #184 ) ;
#199 = CLOSED_SHELL ( 'NONE', ( #41, #196, #113, #212, #329, #373, #260, #97 ) ) ;
#200 = DIRECTION ( 'NONE',  ( -0.000000000000000000, -1.000000000000000000, -0.000000000000000000 ) ) ;
#201 = CARTESIAN_POINT ( 'NONE',  ( 0.000000000000000000, 0.4499999999999999556, 0.000000000000000000 ) ) ;
#202 = FACE_OUTER_BOUND ( 'NONE', #21, .T. ) ;
#203 = ORIENTED_EDGE ( 'NONE', *, *, #50, .T. ) ;
#204 = CARTESIAN_POINT ( 'NONE',  ( 3.414809992080329023E-17, 0.2249999999999999778, 0.1875000000000000278 ) ) ;
#205 = CARTESIAN_POINT ( 'NONE',  ( 0.03499999999999992006, 0.2203628243127472297, 0.1842043701978865189 ) ) ;
#206 = EDGE_CURVE ( 'NONE', #88, #208, #105, .T. ) ;
#207 = VECTOR ( 'NONE', #72, 39.37007874015748143 ) ;
#208 = VERTEX_POINT ( 'NONE', #376 ) ;
#209 = CARTESIAN_POINT ( 'NONE',  ( 0.000000000000000000, 0.4499999999999999556, -0.1250000000000000000 ) ) ;
#210 = LINE ( 'NONE', #70, #115 ) ;
#211 = ORIENTED_EDGE ( 'NONE', *, *, #85, .F. ) ;
#212 = ADVANCED_FACE ( 'NONE', ( #202, #317 ), #57, .T. ) ;
#213 = ORIENTED_EDGE ( 'NONE', *, *, #284, .F. ) ;
#214 = AXIS2_PLACEMENT_3D ( 'NONE', #141, #82, #228 ) ;
#215 = CARTESIAN_POINT ( 'NONE',  ( -0.01766941618258975263, 0.2555603749068368624, 0.1867141385330194914 ) ) ;
#216 = DIRECTION ( 'NONE',  ( 0.000000000000000000, 1.000000000000000000, 0.000000000000000000 ) ) ;
#217 = CARTESIAN_POINT ( 'NONE',  ( 0.009213787405142738127, 0.2590730172541558241, 0.1247321350408083368 ) ) ;
#218 = DIRECTION ( 'NONE',  ( -0.000000000000000000, -1.000000000000000000, -0.000000000000000000 ) ) ;
#219 = ORIENTED_EDGE ( 'NONE', *, *, #139, .T. ) ;
#220 = CARTESIAN_POINT ( 'NONE',  ( 0.03407547240374497050, 0.2157864548663262216, 0.1202796256511681899 ) ) ;
#221 = CARTESIAN_POINT ( 'NONE',  ( -0.03407856950056682710, 0.2341903737338437153, 0.1843855941004139409 ) ) ;
#222 = SHAPE_DEFINITION_REPRESENTATION ( #132, #352 ) ;
#223 = EDGE_CURVE ( 'NONE', #167, #303, #210, .T. ) ;
#224 = APPLICATION_CONTEXT ( 'automotive_design' ) ;
#225 = FACE_OUTER_BOUND ( 'NONE', #353, .T. ) ;
#226 = PRODUCT_CONTEXT ( 'NONE', #266, 'mechanical' ) ;
#227 = DIRECTION ( 'NONE',  ( -0.000000000000000000, -1.000000000000000000, -0.000000000000000000 ) ) ;
#228 = DIRECTION ( 'NONE',  ( 0.000000000000000000, 0.000000000000000000, 1.000000000000000000 ) ) ;
#229 = CARTESIAN_POINT ( 'NONE',  ( 0.004578198125076290807, 0.1899999999999942846, 0.1875000000000011380 ) ) ;
#230 = ORIENTED_EDGE ( 'NONE', *, *, #254, .T. ) ;
#231 = B_SPLINE_CURVE_WITH_KNOTS ( 'NONE', 3,
 ( #164, #23, #217, #188, #335, #74, #190, #160, #248, #365 ),
 .UNSPECIFIED., .F., .F.,
 ( 4, 2, 2, 2, 4 ),
 ( 0.004189879826451914369, 0.004538924706587496583, 0.004887969586723078796, 0.005237014466858660143, 0.005586059346994242357 ),
 .UNSPECIFIED. ) ;
#232 = DIRECTION ( 'NONE',  ( 0.000000000000000000, 0.000000000000000000, 1.000000000000000000 ) ) ;
#233 = CARTESIAN_POINT ( 'NONE',  ( 0.03056645675237018925, 0.2426480356758862478, 0.1850002629447305147 ) ) ;
#234 = FILL_AREA_STYLE ('',( #155 ) ) ;
#235 = DIRECTION ( 'NONE',  ( -0.000000000000000000, -1.000000000000000000, -0.000000000000000000 ) ) ;
#236 = VERTEX_POINT ( 'NONE', #330 ) ;
#237 = CIRCLE ( 'NONE', #280, 0.1250000000000000000 ) ;
#238 = ORIENTED_EDGE ( 'NONE', *, *, #85, .T. ) ;
#239 =( LENGTH_UNIT ( ) NAMED_UNIT ( * ) SI_UNIT ( $, .METRE. ) );
#240 = CARTESIAN_POINT ( 'NONE',  ( 0.000000000000000000, 0.000000000000000000, 0.000000000000000000 ) ) ;
#241 = ORIENTED_EDGE ( 'NONE', *, *, #152, .F. ) ;
#242 = EDGE_CURVE ( 'NONE', #264, #17, #321, .T. ) ;
#243 = AXIS2_PLACEMENT_3D ( 'NONE', #114, #355, #297 ) ;
#244 = VERTEX_POINT ( 'NONE', #149 ) ;
#245 = CARTESIAN_POINT ( 'NONE',  ( 0.000000000000000000, 0.4499999999999999556, -0.1875000000000000278 ) ) ;
#246 = EDGE_LOOP ( 'NONE', ( #148, #275 ) ) ;
#247 = DIRECTION ( 'NONE',  ( 0.000000000000000000, 0.000000000000000000, 1.000000000000000000 ) ) ;
#248 = CARTESIAN_POINT ( 'NONE',  ( 0.03499999999999992700, 0.2296485237837203597, 0.1200000000000000233 ) ) ;
#249 = EDGE_CURVE ( 'NONE', #303, #183, #256, .T. ) ;
#250 = CARTESIAN_POINT ( 'NONE',  ( 0.000000000000000000, 0.4499999999999999556, -0.1875000000000000278 ) ) ;
#251 =( NAMED_UNIT ( * ) PLANE_ANGLE_UNIT ( ) SI_UNIT ( $, .RADIAN. ) );
#252 = EDGE_LOOP ( 'NONE', ( #3, #62, #238, #12, #319, #124 ) ) ;
#253 = EDGE_LOOP ( 'NONE', ( #291, #333 ) ) ;
#254 = EDGE_CURVE ( 'NONE', #208, #88, #325, .T. ) ;
#255 = CYLINDRICAL_SURFACE ( 'NONE', #32, 0.1250000000000000000 ) ;
#256 = CIRCLE ( 'NONE', #144, 0.1250000000000000000 ) ;
#257 = CARTESIAN_POINT ( 'NONE',  ( 0.02151538456468202881, 0.1970205375483301546, 0.1862898596034320287 ) ) ;
#258 = DIRECTION ( 'NONE',  ( 1.000000000000000000, 0.000000000000000000, 0.000000000000000000 ) ) ;
#259 = CARTESIAN_POINT ( 'NONE',  ( 0.03056367995350808831, 0.2073389885984686654, 0.1850008183525679861 ) ) ;
#260 = ADVANCED_FACE ( 'NONE', ( #60 ), #176, .F. ) ;
#261 = VECTOR ( 'NONE', #218, 39.37007874015748143 ) ;
#262 = LINE ( 'NONE', #112, #27 ) ;
#263 = SURFACE_STYLE_USAGE ( .BOTH. , #146 ) ;
#264 = VERTEX_POINT ( 'NONE', #301 ) ;
#265 = CARTESIAN_POINT ( 'NONE',  ( 0.000000000000000000, 0.000000000000000000, 0.000000000000000000 ) ) ;
#266 = APPLICATION_CONTEXT ( 'automotive_design' ) ;
#267 = CARTESIAN_POINT ( 'NONE',  ( -0.009171430283482747206, 0.2590917738517282687, 0.1247369717717461551 ) ) ;
#268 = CARTESIAN_POINT ( 'NONE',  ( 0.000000000000000000, 0.4499999999999999556, 0.000000000000000000 ) ) ;
#269 = ORIENTED_EDGE ( 'NONE', *, *, #242, .T. ) ;
#270 = CARTESIAN_POINT ( 'NONE',  ( -0.004614906289344779255, 0.2599999999999998979, 0.1250000000000000278 ) ) ;
#271 = ORIENTED_EDGE ( 'NONE', *, *, #50, .F. ) ;
#272 = CARTESIAN_POINT ( 'NONE',  ( -0.02798380403970869568, 0.2465117734526843241, 0.1218718621022804316 ) ) ;
#273 = CARTESIAN_POINT ( 'NONE',  ( 7.340096770991224680E-18, 0.2600000000000000089, 0.1250000000000000555 ) ) ;
#274 = FACE_BOUND ( 'NONE', #253, .T. ) ;
#275 = ORIENTED_EDGE ( 'NONE', *, *, #206, .F. ) ;
#276 = CARTESIAN_POINT ( 'NONE',  ( 0.03499999999999992006, 0.2203484670273995472, 0.1200000000000000233 ) ) ;
#277 = DIRECTION ( 'NONE',  ( 0.000000000000000000, 0.000000000000000000, 1.000000000000000000 ) ) ;
#278 = DIRECTION ( 'NONE',  ( 0.000000000000000000, 1.000000000000000000, 0.000000000000000000 ) ) ;
#279 = ORIENTED_EDGE ( 'NONE', *, *, #20, .T. ) ;
#280 = AXIS2_PLACEMENT_3D ( 'NONE', #111, #25, #232 ) ;
#281 = DIRECTION ( 'NONE',  ( -0.000000000000000000, -1.000000000000000000, -0.000000000000000000 ) ) ;
#282 = MANIFOLD_SOLID_BREP ( '#2-56 Tapped Hole1', #199 ) ;
#283 = CARTESIAN_POINT ( 'NONE',  ( -0.009186058411737458781, 0.1909145590610484833, 0.1247353338661369160 ) ) ;
#284 = EDGE_CURVE ( 'NONE', #356, #183, #6, .T. ) ;
#285 = LINE ( 'NONE', #15, #261 ) ;
#286 = CARTESIAN_POINT ( 'NONE',  ( 0.01761623165302687172, 0.1944147947748015581, 0.1867183625795810209 ) ) ;
#287 = B_SPLINE_CURVE_WITH_KNOTS ( 'NONE', 3,
 ( #108, #16, #283, #103, #78, #46, #130, #129, #363, #341 ),
 .UNSPECIFIED., .F., .F.,
 ( 4, 2, 2, 2, 4 ),
 ( 0.001397083327446059986, 0.001746166062794682382, 0.002095248798143304995, 0.002444331533491927392, 0.002793414268840549788 ),
 .UNSPECIFIED. ) ;
#288 = DIRECTION ( 'NONE',  ( 0.000000000000000000, 0.000000000000000000, -1.000000000000000000 ) ) ;
#289 = AXIS2_PLACEMENT_3D ( 'NONE', #131, #278, #247 ) ;
#290 = CARTESIAN_POINT ( 'NONE',  ( 0.03406607367930465646, 0.2342338543246067217, 0.1843879285422181102 ) ) ;
#291 = ORIENTED_EDGE ( 'NONE', *, *, #35, .T. ) ;
#292 = EDGE_CURVE ( 'NONE', #156, #5, #66, .T. ) ;
#293 = CARTESIAN_POINT ( 'NONE',  ( 0.009193068389062477100, 0.1909225310518132268, 0.1873220916914152545 ) ) ;
#294 = DIRECTION ( 'NONE',  ( -0.000000000000000000, -0.000000000000000000, 1.000000000000000000 ) ) ;
#295 = VECTOR ( 'NONE', #86, 39.37007874015748143 ) ;
#296 = ORIENTED_EDGE ( 'NONE', *, *, #346, .F. ) ;
#297 = DIRECTION ( 'NONE',  ( 0.000000000000000000, -0.000000000000000000, 1.000000000000000000 ) ) ;
#298 = AXIS2_PLACEMENT_3D ( 'NONE', #204, #294, #258 ) ;
#299 = DIRECTION ( 'NONE',  ( 0.000000000000000000, 0.000000000000000000, 1.000000000000000000 ) ) ;
#300 = EDGE_LOOP ( 'NONE', ( #92, #71, #180, #153, #37, #296, #211 ) ) ;
#301 = CARTESIAN_POINT ( 'NONE',  ( -2.861173082466002682E-14, 0.1899999999997455946, 0.1875000000000475175 ) ) ;
#302 = EDGE_CURVE ( 'NONE', #39, #208, #13, .T. ) ;
#303 = VERTEX_POINT ( 'NONE', #168 ) ;
#304 = PRODUCT ( 'Spacer, small', 'Spacer, small', '', ( #226 ) ) ;
#305 = DIRECTION ( 'NONE',  ( 1.000000000000000000, 0.000000000000000000, 0.000000000000000000 ) ) ;
#306 = VECTOR ( 'NONE', #53, 39.37007874015748143 ) ;
#307 = CARTESIAN_POINT ( 'NONE',  ( -0.02798337954557675311, 0.2465118425753952403, 0.1854286178633722248 ) ) ;
#308 = CARTESIAN_POINT ( 'NONE',  ( 0.000000000000000000, 0.4499999999999999556, 0.000000000000000000 ) ) ;
#309 = LINE ( 'NONE', #194, #306 ) ;
#310 = CARTESIAN_POINT ( 'NONE',  ( 0.000000000000000000, 0.000000000000000000, 0.000000000000000000 ) ) ;
#311 = ORIENTED_EDGE ( 'NONE', *, *, #334, .T. ) ;
#312 = ORIENTED_EDGE ( 'NONE', *, *, #242, .F. ) ;
#313 = VECTOR ( 'NONE', #200, 39.37007874015748143 ) ;
#314 = CIRCLE ( 'NONE', #343, 0.1875000000000000278 ) ;
#315 = FACE_OUTER_BOUND ( 'NONE', #252, .T. ) ;
#316 = CARTESIAN_POINT ( 'NONE',  ( 2.296212748401287726E-17, 0.4499999999999999556, 0.1875000000000000278 ) ) ;
#317 = FACE_BOUND ( 'NONE', #123, .T. ) ;
#318 =( GEOMETRIC_REPRESENTATION_CONTEXT ( 3 ) GLOBAL_UNCERTAINTY_ASSIGNED_CONTEXT ( ( #122 ) ) GLOBAL_UNIT_ASSIGNED_CONTEXT ( ( #38, #89, #185 ) ) REPRESENTATION_CONTEXT ( 'NONE', 'WORKASPACE' ) );
#319 = ORIENTED_EDGE ( 'NONE', *, *, #128, .F. ) ;
#320 = CARTESIAN_POINT ( 'NONE',  ( 0.009182693391270051533, 0.2590826465437627846, 0.1873229652084857089 ) ) ;
#321 = B_SPLINE_CURVE_WITH_KNOTS ( 'NONE', 3,
 ( #177, #186, #64, #7, #87, #179, #36, #323, #182, #116 ),
 .UNSPECIFIED., .F., .F.,
 ( 4, 2, 2, 2, 4 ),
 ( 0.001393105119722913609, 0.001741210983785222320, 0.002089316847847531248, 0.002437422711909839959, 0.002785528575972148670 ),
 .UNSPECIFIED. ) ;
#322 = CYLINDRICAL_SURFACE ( 'NONE', #298, 0.03499999999999989231 ) ;
#323 = CARTESIAN_POINT ( 'NONE',  ( -0.03408639459071335226, 0.2158295124446421853, 0.1843842131666892092 ) ) ;
#324 = EDGE_CURVE ( 'NONE', #39, #121, #76, .T. ) ;
#325 = CIRCLE ( 'NONE', #158, 0.1875000000000000278 ) ;
#326 = ORIENTED_EDGE ( 'NONE', *, *, #181, .F. ) ;
#327 = EDGE_LOOP ( 'NONE', ( #326, #197, #331, #219, #311, #90, #68 ) ) ;
#328 = ORIENTED_EDGE ( 'NONE', *, *, #360, .T. ) ;
#329 = ADVANCED_FACE ( 'NONE', ( #366, #274 ), #198, .F. ) ;
#330 = CARTESIAN_POINT ( 'NONE',  ( 2.296209493245332877E-17, 0.2599999999999998979, 0.1875000000000000278 ) ) ;
#331 = ORIENTED_EDGE ( 'NONE', *, *, #128, .T. ) ;
#332 = CARTESIAN_POINT ( 'NONE',  ( 7.340096770991224680E-18, 0.2600000000000000089, 0.1250000000000000555 ) ) ;
#333 = ORIENTED_EDGE ( 'NONE', *, *, #249, .T. ) ;
#334 = EDGE_CURVE ( 'NONE', #264, #88, #285, .T. ) ;
#335 = CARTESIAN_POINT ( 'NONE',  ( 0.02153210159902572973, 0.2529636554331445852, 0.1231750501960938021 ) ) ;
#336 = CARTESIAN_POINT ( 'NONE',  ( -1.173627113474192957E-14, 0.1899999999998891465, 0.1250000000000310862 ) ) ;
#337 = AXIS2_PLACEMENT_3D ( 'NONE', #310, #49, #368 ) ;
#338 = CARTESIAN_POINT ( 'NONE',  ( -0.03499999999999985068, 0.2295743388427243514, 0.1842043701978865189 ) ) ;
#339 =( NAMED_UNIT ( * ) SI_UNIT ( $, .STERADIAN. ) SOLID_ANGLE_UNIT ( ) );
#340 = CYLINDRICAL_SURFACE ( 'NONE', #377, 0.03499999999999989231 ) ;
#341 = CARTESIAN_POINT ( 'NONE',  ( -0.03499999999999985761, 0.2249999999999999778, 0.1200000000000000372 ) ) ;
#342 = CARTESIAN_POINT ( 'NONE',  ( 0.000000000000000000, 0.4499999999999999556, 0.000000000000000000 ) ) ;
#343 = AXIS2_PLACEMENT_3D ( 'NONE', #201, #29, #137 ) ;
#344 = CYLINDRICAL_SURFACE ( 'NONE', #45, 0.1875000000000000278 ) ;
#345 = CARTESIAN_POINT ( 'NONE',  ( 0.03499999999999992700, 0.2249999999999999778, 0.1842043701978864911 ) ) ;
#346 = EDGE_CURVE ( 'NONE', #244, #167, #145, .T. ) ;
#347 = DIRECTION ( 'NONE',  ( 0.000000000000000000, 0.000000000000000000, -1.000000000000000000 ) ) ;
#348 = B_SPLINE_CURVE_WITH_KNOTS ( 'NONE', 3,
 ( #170, #173, #320, #172, #349, #26, #233, #290, #138, #345 ),
 .UNSPECIFIED., .F., .F.,
 ( 4, 2, 2, 2, 4 ),
 ( 0.004178412422760223802, 0.004526395633042058775, 0.004874378843323893748, 0.005222362053605729589, 0.005570345263887564562 ),
 .UNSPECIFIED. ) ;
#349 = CARTESIAN_POINT ( 'NONE',  ( 0.02152142119548512700, 0.2529737048925476128, 0.1862890747069519126 ) ) ;
#350 = SURFACE_STYLE_FILL_AREA ( #234 ) ;
#351 = DIMENSIONAL_EXPONENTS ( 1.000000000000000000, 0.000000000000000000, 0.000000000000000000, 0.000000000000000000, 0.000000000000000000, 0.000000000000000000, 0.000000000000000000 ) ;
#352 = ADVANCED_BREP_SHAPE_REPRESENTATION ( 'Spacer, small', ( #282, #337 ), #84 ) ;
#353 = EDGE_LOOP ( 'NONE', ( #203, #358, #312, #361, #241, #42 ) ) ;
#354 = PRESENTATION_LAYER_ASSIGNMENT (  '', '', ( #96 ) ) ;
#355 = DIRECTION ( 'NONE',  ( 0.000000000000000000, 1.000000000000000000, 0.000000000000000000 ) ) ;
#356 = VERTEX_POINT ( 'NONE', #165 ) ;
#357 = DIRECTION ( 'NONE',  ( 0.000000000000000000, 0.000000000000000000, 1.000000000000000000 ) ) ;
#358 = ORIENTED_EDGE ( 'NONE', *, *, #31, .T. ) ;
#359 = PRODUCT_DEFINITION_CONTEXT ( 'detailed design', #224, 'design' ) ;
#360 = EDGE_CURVE ( 'NONE', #356, #147, #125, .T. ) ;
#361 = ORIENTED_EDGE ( 'NONE', *, *, #139, .F. ) ;
#362 = DIRECTION ( 'NONE',  ( 0.000000000000000000, 0.000000000000000000, 1.000000000000000000 ) ) ;
#363 = CARTESIAN_POINT ( 'NONE',  ( -0.03499999999999985068, 0.2204184362031896827, 0.1200000000000000511 ) ) ;
#364 = DIRECTION ( 'NONE',  ( 0.000000000000000000, 1.000000000000000000, 0.000000000000000000 ) ) ;
#365 = CARTESIAN_POINT ( 'NONE',  ( 0.03499999999999992700, 0.2249999999999999778, 0.1200000000000000233 ) ) ;
#366 = FACE_OUTER_BOUND ( 'NONE', #246, .T. ) ;
#367 = CARTESIAN_POINT ( 'NONE',  ( -0.03499999999999985761, 0.2249999999999999778, 0.1842043701978864911 ) ) ;
#368 = DIRECTION ( 'NONE',  ( 1.000000000000000000, 0.000000000000000000, 0.000000000000000000 ) ) ;
#369 = LINE ( 'NONE', #126, #207 ) ;
#370 = CARTESIAN_POINT ( 'NONE',  ( 0.02152482732336678806, 0.1970300916194786256, 0.1231764120523157896 ) ) ;
#371 = CARTESIAN_POINT ( 'NONE',  ( -0.03058419510121439255, 0.2426187081984899907, 0.1849973059830288535 ) ) ;
#372 = CARTESIAN_POINT ( 'NONE',  ( 0.000000000000000000, 0.4499999999999999556, 0.000000000000000000 ) ) ;
#373 = ADVANCED_FACE ( 'NONE', ( #189 ), #192, .T. ) ;
#374 = FACE_OUTER_BOUND ( 'NONE', #94, .T. ) ;
#375 = CARTESIAN_POINT ( 'NONE',  ( 1.530808498934191509E-17, 0.4499999999999999556, 0.1250000000000000000 ) ) ;
#376 = CARTESIAN_POINT ( 'NONE',  ( 0.000000000000000000, 0.000000000000000000, -0.1875000000000000278 ) ) ;
#377 = AXIS2_PLACEMENT_3D ( 'NONE', #51, #193, #305 ) ;
ENDSEC;
END-ISO-10303-21;
