ISO-10303-21;
HEADER;
FILE_DESCRIPTION (( 'STEP AP214' ),
    '1' );
FILE_NAME ('Spacer, large.STEP',
    '2026-02-20T19:34:19',
    ( '' ),
    ( '' ),
    'SwSTEP 2.0',
    'SolidWorks 2025',
    '' );
FILE_SCHEMA (( 'AUTOMOTIVE_DESIGN' ));
ENDSEC;

DATA;
#1 = CARTESIAN_POINT ( 'NONE',  ( 0.2500004380520107206, 0.2600031289436391946, -0.004603253987981844632 ) ) ;
#2 = CARTESIAN_POINT ( 'NONE',  ( 0.000000000000000000, 0.4499999999999999556, 0.000000000000000000 ) ) ;
#3 = VERTEX_POINT ( 'NONE', #81 ) ;
#4 = ORIENTED_EDGE ( 'NONE', *, *, #169, .F. ) ;
#5 = CARTESIAN_POINT ( 'NONE',  ( 0.2500000000000000000, 0.2249999999999999778, -0.03499999999999953842 ) ) ;
#6 = CARTESIAN_POINT ( 'NONE',  ( 0.2475378758897312792, 0.2295703047465154079, 0.03499999999999953842 ) ) ;
#7 = ORIENTED_EDGE ( 'NONE', *, *, #89, .F. ) ;
#8 = DIRECTION ( 'NONE',  ( -0.000000000000000000, -1.000000000000000000, -0.000000000000000000 ) ) ;
#9 = ORIENTED_EDGE ( 'NONE', *, *, #239, .T. ) ;
#10 = FACE_OUTER_BOUND ( 'NONE', #24, .T. ) ;
#11 = EDGE_CURVE ( 'NONE', #111, #83, #173, .T. ) ;
#12 = AXIS2_PLACEMENT_3D ( 'NONE', #140, #129, #102 ) ;
#13 = CARTESIAN_POINT ( 'NONE',  ( 0.1200000000000001343, 0.2249999999999999778, -0.03499999999999953842 ) ) ;
#14 = CARTESIAN_POINT ( 'NONE',  ( 0.000000000000000000, 0.4499999999999999556, -0.2500000000000000000 ) ) ;
#15 = DIRECTION ( 'NONE',  ( 0.000000000000000000, 1.000000000000000000, 0.000000000000000000 ) ) ;
#16 = DIRECTION ( 'NONE',  ( 0.000000000000000000, 1.000000000000000000, 0.000000000000000000 ) ) ;
#17 = CARTESIAN_POINT ( 'NONE',  ( 0.2498686286793362632, 0.1909065392864407185, 0.009149183105033240754 ) ) ;
#18 = FACE_OUTER_BOUND ( 'NONE', #307, .T. ) ;
#19 = ORIENTED_EDGE ( 'NONE', *, *, #55, .F. ) ;
#20 = CARTESIAN_POINT ( 'NONE',  ( 3.061616997868383018E-17, 0.4499999999999999556, 0.2500000000000000000 ) ) ;
#21 =( GEOMETRIC_REPRESENTATION_CONTEXT ( 3 ) GLOBAL_UNCERTAINTY_ASSIGNED_CONTEXT ( ( #219 ) ) GLOBAL_UNIT_ASSIGNED_CONTEXT ( ( #157, #332, #98 ) ) REPRESENTATION_CONTEXT ( 'NONE', 'WORKASPACE' ) );
#22 = CARTESIAN_POINT ( 'NONE',  ( 0.1200000000000001482, 0.2249999999999999778, 0.03499999999999953842 ) ) ;
#23 = AXIS2_PLACEMENT_3D ( 'NONE', #66, #40, #251 ) ;
#24 = EDGE_LOOP ( 'NONE', ( #264, #262, #255, #194 ) ) ;
#25 = VERTEX_POINT ( 'NONE', #192 ) ;
#26 = PRODUCT_DEFINITION ( 'General', '', #266, #106 ) ;
#27 = FACE_OUTER_BOUND ( 'NONE', #189, .T. ) ;
#28 = EDGE_LOOP ( 'NONE', ( #36, #149, #222, #61 ) ) ;
#29 = CARTESIAN_POINT ( 'NONE',  ( 0.2500000000000000000, 0.2249999999999999778, 0.000000000000000000 ) ) ;
#30 = AXIS2_PLACEMENT_3D ( 'NONE', #193, #146, #174 ) ;
#31 = DIMENSIONAL_EXPONENTS ( 1.000000000000000000, 0.000000000000000000, 0.000000000000000000, 0.000000000000000000, 0.000000000000000000, 0.000000000000000000, 0.000000000000000000 ) ;
#32 = EDGE_LOOP ( 'NONE', ( #113, #79 ) ) ;
#33 = DIRECTION ( 'NONE',  ( 1.000000000000000000, -0.000000000000000000, -0.000000000000000000 ) ) ;
#34 = CARTESIAN_POINT ( 'NONE',  ( 0.2494109247080579239, 0.2555591121098759189, 0.01766932509651446270 ) ) ;
#35 = EDGE_CURVE ( 'NONE', #83, #283, #165, .T. ) ;
#36 = ORIENTED_EDGE ( 'NONE', *, *, #124, .F. ) ;
#37 = DIRECTION ( 'NONE',  ( 0.000000000000000000, 0.000000000000000000, 1.000000000000000000 ) ) ;
#38 = APPLICATION_PROTOCOL_DEFINITION ( 'draft international standard', 'automotive_design', 1998, #133 ) ;
#39 = CYLINDRICAL_SURFACE ( 'NONE', #23, 0.2500000000000000000 ) ;
#40 = DIRECTION ( 'NONE',  ( -0.000000000000000000, -1.000000000000000000, -0.000000000000000000 ) ) ;
#41 = APPLICATION_PROTOCOL_DEFINITION ( 'draft international standard', 'automotive_design', 1998, #209 ) ;
#42 = EDGE_CURVE ( 'NONE', #105, #130, #45, .T. ) ;
#43 = CARTESIAN_POINT ( 'NONE',  ( 0.2476717202074006363, 0.2158247677973982592, -0.03408610524773385969 ) ) ;
#44 = ORIENTED_EDGE ( 'NONE', *, *, #75, .T. ) ;
#45 = CIRCLE ( 'NONE', #254, 0.1250000000000000000 ) ;
#46 = CARTESIAN_POINT ( 'NONE',  ( 0.2499997622678688802, 0.1900016980867657579, -0.004584912223283613836 ) ) ;
#47 = CARTESIAN_POINT ( 'NONE',  ( 0.1212222729033035074, 0.2426745757575472229, -0.03055266472721938215 ) ) ;
#48 = EDGE_CURVE ( 'NONE', #123, #283, #77, .T. ) ;
#49 = LINE ( 'NONE', #20, #215 ) ;
#50 = AXIS2_PLACEMENT_3D ( 'NONE', #152, #327, #256 ) ;
#51 = LINE ( 'NONE', #153, #241 ) ;
#52 = CARTESIAN_POINT ( 'NONE',  ( 0.1202797457963376976, 0.2342075302652026070, 0.03407447038935706302 ) ) ;
#53 = CARTESIAN_POINT ( 'NONE',  ( 0.2498684586420846787, 0.2590920836099794289, -0.009151427233961719962 ) ) ;
#54 = VERTEX_POINT ( 'NONE', #175 ) ;
#55 = EDGE_CURVE ( 'NONE', #76, #287, #206, .T. ) ;
#56 = CARTESIAN_POINT ( 'NONE',  ( 0.2484494101126106802, 0.2465041248545574437, 0.02798905050058230967 ) ) ;
#57 = ORIENTED_EDGE ( 'NONE', *, *, #169, .T. ) ;
#58 = CARTESIAN_POINT ( 'NONE',  ( 0.000000000000000000, 0.4499999999999999556, 0.000000000000000000 ) ) ;
#59 = CARTESIAN_POINT ( 'NONE',  ( 0.000000000000000000, 0.000000000000000000, -0.1250000000000000000 ) ) ;
#60 = DIRECTION ( 'NONE',  ( 0.000000000000000000, 1.000000000000000000, 0.000000000000000000 ) ) ;
#61 = ORIENTED_EDGE ( 'NONE', *, *, #234, .T. ) ;
#62 = PRODUCT_DEFINITION_SHAPE ( 'NONE', 'NONE',  #26 ) ;
#63 = CYLINDRICAL_SURFACE ( 'NONE', #221, 0.1250000000000000000 ) ;
#64 = CARTESIAN_POINT ( 'NONE',  ( 0.1218779745927552199, 0.2034563901671743169, -0.02795525081712622872 ) ) ;
#65 = PRESENTATION_LAYER_ASSIGNMENT (  '', '', ( #286 ) ) ;
#66 = CARTESIAN_POINT ( 'NONE',  ( 0.000000000000000000, 0.4499999999999999556, 0.000000000000000000 ) ) ;
#67 = ADVANCED_FACE ( 'NONE', ( #275 ), #39, .T. ) ;
#68 = CARTESIAN_POINT ( 'NONE',  ( 0.2490932959404570934, 0.1970221145170629184, -0.02151827623552402327 ) ) ;
#69 = CARTESIAN_POINT ( 'NONE',  ( 1.530808498934191509E-17, 0.000000000000000000, 0.1250000000000000000 ) ) ;
#70 = CARTESIAN_POINT ( 'NONE',  ( 0.1238208508077623393, 0.2555690536797078916, -0.01764658478139520190 ) ) ;
#71 = PRESENTATION_STYLE_ASSIGNMENT (( #333 ) ) ;
#72 = CARTESIAN_POINT ( 'NONE',  ( 0.1250002092476920068, 0.2600007473131942803, -0.004608854292631000930 ) ) ;
#73 = CLOSED_SHELL ( 'NONE', ( #138, #115, #257, #144, #203, #67, #187, #320 ) ) ;
#74 = CARTESIAN_POINT ( 'NONE',  ( 0.2498669743722455594, 0.2590815910889712192, 0.009192906567263377585 ) ) ;
#75 = EDGE_CURVE ( 'NONE', #280, #54, #237, .T. ) ;
#76 = VERTEX_POINT ( 'NONE', #69 ) ;
#77 = CIRCLE ( 'NONE', #158, 0.2500000000000000000 ) ;
#78 = CARTESIAN_POINT ( 'NONE',  ( 0.1200000000000001343, 0.2249999999999999778, -0.03499999999999953842 ) ) ;
#79 = ORIENTED_EDGE ( 'NONE', *, *, #55, .T. ) ;
#80 = LINE ( 'NONE', #109, #278 ) ;
#81 = CARTESIAN_POINT ( 'NONE',  ( 0.2475378758897313347, 0.2249999999999999778, 0.03499999999999953842 ) ) ;
#82 = CARTESIAN_POINT ( 'NONE',  ( 0.2499995596956923194, 0.2599968549685232611, 0.004650712357805230311 ) ) ;
#83 = VERTEX_POINT ( 'NONE', #14 ) ;
#84 = DIRECTION ( 'NONE',  ( 1.000000000000000000, -0.000000000000000000, -0.000000000000000000 ) ) ;
#85 = AXIS2_PLACEMENT_3D ( 'NONE', #296, #16, #37 ) ;
#86 = EDGE_CURVE ( 'NONE', #130, #105, #201, .T. ) ;
#87 = ORIENTED_EDGE ( 'NONE', *, *, #124, .T. ) ;
#88 = CARTESIAN_POINT ( 'NONE',  ( 0.1200000000000001343, 0.2203497195470088543, -0.03499999999999953842 ) ) ;
#89 = EDGE_CURVE ( 'NONE', #25, #3, #95, .T. ) ;
#90 = CARTESIAN_POINT ( 'NONE',  ( 0.1250005443922662940, 0.1899980557417452198, 0.004577300336469666657 ) ) ;
#91 = SHAPE_DEFINITION_REPRESENTATION ( #62, #198 ) ;
#92 = AXIS2_PLACEMENT_3D ( 'NONE', #29, #240, #269 ) ;
#93 = CARTESIAN_POINT ( 'NONE',  ( 0.1202791655695813478, 0.2157982778236232635, 0.03407659214352943416 ) ) ;
#94 = CARTESIAN_POINT ( 'NONE',  ( 0.1238207228136332799, 0.1944316298594703785, -0.01764487640673163479 ) ) ;
#95 = B_SPLINE_CURVE_WITH_KNOTS ( 'NONE', 3,
 ( #298, #114, #43, #202, #299, #68, #205, #145, #46, #148, #17, #176, #253, #118, #272, #325, #178, #277 ),
 .UNSPECIFIED., .F., .F.,
 ( 4, 2, 2, 2, 2, 2, 2, 2, 4 ),
 ( 0.000000000000000000, 0.0003478543610017856280, 0.0006957087220035712560, 0.001043563083005356884, 0.001391417444007142512, 0.001739271805008928140, 0.002087126166010713768, 0.002434980527012499396, 0.002782834888014285024 ),
 .UNSPECIFIED. ) ;
#96 = CARTESIAN_POINT ( 'NONE',  ( 0.1247324949300938762, 0.2590743193563805336, -0.009209221341634842017 ) ) ;
#97 = CARTESIAN_POINT ( 'NONE',  ( 0.1247366016352305235, 0.2590904342383588688, 0.009176116001104432304 ) ) ;
#98 =( NAMED_UNIT ( * ) SI_UNIT ( $, .STERADIAN. ) SOLID_ANGLE_UNIT ( ) );
#99 = ORIENTED_EDGE ( 'NONE', *, *, #86, .F. ) ;
#100 = CARTESIAN_POINT ( 'NONE',  ( 0.1212173499096211443, 0.2426410681044131601, 0.03057189660513796176 ) ) ;
#101 = FACE_OUTER_BOUND ( 'NONE', #181, .T. ) ;
#102 = DIRECTION ( 'NONE',  ( 0.000000000000000000, 0.000000000000000000, 1.000000000000000000 ) ) ;
#103 = EDGE_CURVE ( 'NONE', #287, #76, #291, .T. ) ;
#104 = DIRECTION ( 'NONE',  ( -0.000000000000000000, -1.000000000000000000, -0.000000000000000000 ) ) ;
#105 = VERTEX_POINT ( 'NONE', #197 ) ;
#106 = PRODUCT_DEFINITION_CONTEXT ( 'detailed design', #133, 'design' ) ;
#107 = ORIENTED_EDGE ( 'NONE', *, *, #42, .F. ) ;
#108 = CIRCLE ( 'NONE', #12, 0.2500000000000000000 ) ;
#109 = CARTESIAN_POINT ( 'NONE',  ( 0.2500000000000000000, 0.2249999999999999778, 0.03499999999999953842 ) ) ;
#110 = CARTESIAN_POINT ( 'NONE',  ( 0.2490912848808834179, 0.2529604399834045614, 0.02154131216103087609 ) ) ;
#111 = VERTEX_POINT ( 'NONE', #224 ) ;
#112 = EDGE_LOOP ( 'NONE', ( #107, #99 ) ) ;
#113 = ORIENTED_EDGE ( 'NONE', *, *, #103, .T. ) ;
#114 = CARTESIAN_POINT ( 'NONE',  ( 0.2475378758897312514, 0.2203688056564875319, -0.03499999999999953842 ) ) ;
#115 = ADVANCED_FACE ( 'NONE', ( #294 ), #63, .F. ) ;
#116 = DIRECTION ( 'NONE',  ( 0.000000000000000000, 0.000000000000000000, 1.000000000000000000 ) ) ;
#117 = CARTESIAN_POINT ( 'NONE',  ( 0.000000000000000000, 0.4499999999999999556, 0.000000000000000000 ) ) ;
#118 = CARTESIAN_POINT ( 'NONE',  ( 0.2484474890983163209, 0.2035128487460568791, 0.02801073903154925604 ) ) ;
#119 = CARTESIAN_POINT ( 'NONE',  ( 0.1200000000000001482, 0.2204172018594561522, 0.03499999999999953842 ) ) ;
#120 = FACE_BOUND ( 'NONE', #131, .T. ) ;
#121 = AXIS2_PLACEMENT_3D ( 'NONE', #167, #242, #267 ) ;
#122 = SURFACE_SIDE_STYLE ('',( #233 ) ) ;
#123 = VERTEX_POINT ( 'NONE', #331 ) ;
#124 = EDGE_CURVE ( 'NONE', #111, #123, #49, .T. ) ;
#125 = LENGTH_MEASURE_WITH_UNIT ( LENGTH_MEASURE( 0.02539999999999999897 ), #259 );
#126 = MANIFOLD_SOLID_BREP ( '#2-56 Tapped Hole1', #73 ) ;
#127 = AXIS2_PLACEMENT_3D ( 'NONE', #213, #135, #244 ) ;
#128 = CARTESIAN_POINT ( 'NONE',  ( 0.1231757477988231070, 0.2529690885890443774, 0.02153079510619597403 ) ) ;
#129 = DIRECTION ( 'NONE',  ( 0.000000000000000000, 1.000000000000000000, 0.000000000000000000 ) ) ;
#130 = VERTEX_POINT ( 'NONE', #154 ) ;
#131 = EDGE_LOOP ( 'NONE', ( #216, #312 ) ) ;
#132 = CYLINDRICAL_SURFACE ( 'NONE', #92, 0.03499999999999953842 ) ;
#133 = APPLICATION_CONTEXT ( 'automotive_design' ) ;
#134 = DIMENSIONAL_EXPONENTS ( 1.000000000000000000, 0.000000000000000000, 0.000000000000000000, 0.000000000000000000, 0.000000000000000000, 0.000000000000000000, 0.000000000000000000 ) ;
#135 = DIRECTION ( 'NONE',  ( -0.000000000000000000, -1.000000000000000000, -0.000000000000000000 ) ) ;
#136 = LENGTH_MEASURE_WITH_UNIT ( LENGTH_MEASURE( 0.02539999999999999897 ), #248 );
#137 = CARTESIAN_POINT ( 'NONE',  ( 0.2476723288328425976, 0.2341801178994387111, 0.03408097580522888997 ) ) ;
#138 = ADVANCED_FACE ( 'NONE', ( #101 ), #186, .F. ) ;
#139 = ORIENTED_EDGE ( 'NONE', *, *, #89, .T. ) ;
#140 = CARTESIAN_POINT ( 'NONE',  ( 0.000000000000000000, 0.4499999999999999556, 0.000000000000000000 ) ) ;
#141 = ORIENTED_EDGE ( 'NONE', *, *, #326, .T. ) ;
#142 = CARTESIAN_POINT ( 'NONE',  ( 0.000000000000000000, 0.000000000000000000, -0.2500000000000000000 ) ) ;
#143 = CARTESIAN_POINT ( 'NONE',  ( 0.1202794633562914162, 0.2157889758191144647, -0.03407599574138248794 ) ) ;
#144 = ADVANCED_FACE ( 'NONE', ( #302, #309 ), #279, .T. ) ;
#145 = CARTESIAN_POINT ( 'NONE',  ( 0.2498664239099347151, 0.1909232108715156473, -0.009195291553186799721 ) ) ;
#146 = DIRECTION ( 'NONE',  ( 0.000000000000000000, 0.000000000000000000, 1.000000000000000000 ) ) ;
#147 = CARTESIAN_POINT ( 'NONE',  ( 0.1212219541920902810, 0.2073235795667601189, -0.03055422414159647201 ) ) ;
#148 = CARTESIAN_POINT ( 'NONE',  ( 0.2500002370580934330, 0.1899983067277904170, 0.004558949986923157421 ) ) ;
#149 = ORIENTED_EDGE ( 'NONE', *, *, #239, .F. ) ;
#150 = VECTOR ( 'NONE', #288, 39.37007874015748143 ) ;
#151 = EDGE_CURVE ( 'NONE', #54, #280, #226, .T. ) ;
#152 = CARTESIAN_POINT ( 'NONE',  ( 0.000000000000000000, 0.000000000000000000, 0.000000000000000000 ) ) ;
#153 = CARTESIAN_POINT ( 'NONE',  ( 1.530808498934191509E-17, 0.4499999999999999556, 0.1250000000000000000 ) ) ;
#154 = CARTESIAN_POINT ( 'NONE',  ( 1.530808498934191509E-17, 0.4499999999999999556, 0.1250000000000000000 ) ) ;
#155 = VECTOR ( 'NONE', #8, 39.37007874015748143 ) ;
#156 = DIRECTION ( 'NONE',  ( 0.000000000000000000, 0.000000000000000000, -1.000000000000000000 ) ) ;
#157 =( CONVERSION_BASED_UNIT ( 'INCH', #125 ) LENGTH_UNIT ( ) NAMED_UNIT ( #134 ) );
#158 = AXIS2_PLACEMENT_3D ( 'NONE', #300, #15, #116 ) ;
#159 = CARTESIAN_POINT ( 'NONE',  ( 0.2475378758897312792, 0.2342601373617992921, -0.03499999999999953149 ) ) ;
#160 = CARTESIAN_POINT ( 'NONE',  ( 0.2475378758897313070, 0.2249999999999999778, -0.03499999999999953842 ) ) ;
#161 = ORIENTED_EDGE ( 'NONE', *, *, #295, .F. ) ;
#162 = CARTESIAN_POINT ( 'NONE',  ( 0.2490942980867514589, 0.2529864512923542530, -0.02150666089062329769 ) ) ;
#163 = ORIENTED_EDGE ( 'NONE', *, *, #42, .T. ) ;
#164 = PLANE ( 'NONE',  #121 ) ;
#165 = LINE ( 'NONE', #268, #155 ) ;
#166 = LINE ( 'NONE', #5, #313 ) ;
#167 = CARTESIAN_POINT ( 'NONE',  ( 0.000000000000000000, 0.000000000000000000, 0.000000000000000000 ) ) ;
#168 = EDGE_LOOP ( 'NONE', ( #139, #304 ) ) ;
#169 = EDGE_CURVE ( 'NONE', #130, #76, #51, .T. ) ;
#170 = DIRECTION ( 'NONE',  ( 0.000000000000000000, 1.000000000000000000, 0.000000000000000000 ) ) ;
#171 = PRODUCT_CONTEXT ( 'NONE', #209, 'mechanical' ) ;
#172 = CARTESIAN_POINT ( 'NONE',  ( 0.1247306524387754856, 0.1909325740220891021, -0.009229160508780002645 ) ) ;
#173 = CIRCLE ( 'NONE', #179, 0.2500000000000000000 ) ;
#174 = DIRECTION ( 'NONE',  ( 1.000000000000000000, 0.000000000000000000, 0.000000000000000000 ) ) ;
#175 = CARTESIAN_POINT ( 'NONE',  ( 0.1200000000000001482, 0.2249999999999999778, 0.03499999999999953842 ) ) ;
#176 = CARTESIAN_POINT ( 'NONE',  ( 0.2494136515453673208, 0.1944189267269949284, 0.01763149376506521065 ) ) ;
#177 = PRODUCT_RELATED_PRODUCT_CATEGORY ( 'part', '', ( #246 ) ) ;
#178 = CARTESIAN_POINT ( 'NONE',  ( 0.2475378758897313070, 0.2204285841206835850, 0.03499999999999954536 ) ) ;
#179 = AXIS2_PLACEMENT_3D ( 'NONE', #58, #245, #315 ) ;
#180 = CARTESIAN_POINT ( 'NONE',  ( 0.1231755120283200972, 0.2529656960836118018, -0.02152954799216549170 ) ) ;
#181 = EDGE_LOOP ( 'NONE', ( #44, #141, #7, #161 ) ) ;
#182 = FILL_AREA_STYLE ('',( #303 ) ) ;
#183 = CARTESIAN_POINT ( 'NONE',  ( 0.000000000000000000, 0.4499999999999999556, 0.000000000000000000 ) ) ;
#184 = CIRCLE ( 'NONE', #297, 0.2500000000000000000 ) ;
#185 = CARTESIAN_POINT ( 'NONE',  ( 0.1200000000000001482, 0.2296489999582017327, -0.03499999999999953842 ) ) ;
#186 = CYLINDRICAL_SURFACE ( 'NONE', #329, 0.03499999999999953842 ) ;
#187 = ADVANCED_FACE ( 'NONE', ( #18, #120 ), #191, .F. ) ;
#188 = AXIS2_PLACEMENT_3D ( 'NONE', #183, #261, #263 ) ;
#189 = EDGE_LOOP ( 'NONE', ( #317, #290 ) ) ;
#190 = LINE ( 'NONE', #196, #150 ) ;
#191 = CYLINDRICAL_SURFACE ( 'NONE', #127, 0.1250000000000000000 ) ;
#192 = CARTESIAN_POINT ( 'NONE',  ( 0.2475378758897313070, 0.2249999999999999778, -0.03499999999999953842 ) ) ;
#193 = CARTESIAN_POINT ( 'NONE',  ( 0.000000000000000000, 0.000000000000000000, 0.000000000000000000 ) ) ;
#194 = ORIENTED_EDGE ( 'NONE', *, *, #220, .F. ) ;
#195 =( GEOMETRIC_REPRESENTATION_CONTEXT ( 3 ) GLOBAL_UNCERTAINTY_ASSIGNED_CONTEXT ( ( #318 ) ) GLOBAL_UNIT_ASSIGNED_CONTEXT ( ( #243, #223, #324 ) ) REPRESENTATION_CONTEXT ( 'NONE', 'WORKASPACE' ) );
#196 = CARTESIAN_POINT ( 'NONE',  ( 0.000000000000000000, 0.4499999999999999556, -0.1250000000000000000 ) ) ;
#197 = CARTESIAN_POINT ( 'NONE',  ( 0.000000000000000000, 0.4499999999999999556, -0.1250000000000000000 ) ) ;
#198 = ADVANCED_BREP_SHAPE_REPRESENTATION ( 'Spacer, large', ( #126, #30 ), #195 ) ;
#199 = DIRECTION ( 'NONE',  ( 0.000000000000000000, 0.000000000000000000, 1.000000000000000000 ) ) ;
#200 = CARTESIAN_POINT ( 'NONE',  ( 0.1231769940043183353, 0.1970245974595597749, 0.02152478158733767827 ) ) ;
#201 = CIRCLE ( 'NONE', #273, 0.1250000000000000000 ) ;
#202 = CARTESIAN_POINT ( 'NONE',  ( 0.2481302626758142560, 0.2073497549295383047, -0.03056985943513471776 ) ) ;
#203 = ADVANCED_FACE ( 'NONE', ( #27, #236 ), #164, .F. ) ;
#204 = ORIENTED_EDGE ( 'NONE', *, *, #306, .T. ) ;
#205 = CARTESIAN_POINT ( 'NONE',  ( 0.2494141499476941193, 0.1944154294799030347, -0.01761717883647976116 ) ) ;
#206 = CIRCLE ( 'NONE', #85, 0.1250000000000000000 ) ;
#207 = CARTESIAN_POINT ( 'NONE',  ( 0.1218789727009973456, 0.2465489531219630104, -0.02795074620712906591 ) ) ;
#208 = ORIENTED_EDGE ( 'NONE', *, *, #86, .T. ) ;
#209 = APPLICATION_CONTEXT ( 'automotive_design' ) ;
#210 = CARTESIAN_POINT ( 'NONE',  ( 0.1218715317205507492, 0.2465098887634440405, 0.02798516999753744572 ) ) ;
#211 = DIRECTION ( 'NONE',  ( 1.000000000000000000, -0.000000000000000000, -0.000000000000000000 ) ) ;
#212 = FACE_BOUND ( 'NONE', #168, .T. ) ;
#213 = CARTESIAN_POINT ( 'NONE',  ( 0.000000000000000000, 0.4499999999999999556, 0.000000000000000000 ) ) ;
#214 = ORIENTED_EDGE ( 'NONE', *, *, #48, .T. ) ;
#215 = VECTOR ( 'NONE', #281, 39.37007874015748143 ) ;
#216 = ORIENTED_EDGE ( 'NONE', *, *, #75, .F. ) ;
#217 = CARTESIAN_POINT ( 'NONE',  ( 0.2494141345363440898, 0.2555848663101897844, -0.01762341448403631494 ) ) ;
#218 = EDGE_LOOP ( 'NONE', ( #163, #57, #293, #247 ) ) ;
#219 = UNCERTAINTY_MEASURE_WITH_UNIT (LENGTH_MEASURE( 1.000000000000000082E-05 ), #157, 'distance_accuracy_value', 'NONE');
#220 = EDGE_CURVE ( 'NONE', #3, #25, #301, .T. ) ;
#221 = AXIS2_PLACEMENT_3D ( 'NONE', #250, #321, #282 ) ;
#222 = ORIENTED_EDGE ( 'NONE', *, *, #35, .T. ) ;
#223 =( NAMED_UNIT ( * ) PLANE_ANGLE_UNIT ( ) SI_UNIT ( $, .RADIAN. ) );
#224 = CARTESIAN_POINT ( 'NONE',  ( 3.061616997868383018E-17, 0.4499999999999999556, 0.2500000000000000000 ) ) ;
#225 = CARTESIAN_POINT ( 'NONE',  ( 0.1247362584462295004, 0.1909112223139462217, 0.009174202466371111225 ) ) ;
#226 = B_SPLINE_CURVE_WITH_KNOTS ( 'NONE', 3,
 ( #22, #328, #52, #100, #210, #128, #308, #97, #235, #72, #96, #70, #180, #207, #47, #230, #185, #284 ),
 .UNSPECIFIED., .F., .F.,
 ( 4, 2, 2, 2, 2, 2, 2, 2, 4 ),
 ( 0.002793414268840521599, 0.003142494903609730026, 0.003491575538378938019, 0.003840656173148146446, 0.004189736807917354873, 0.004538817442686563300, 0.004887898077455770859, 0.005236978712224979286, 0.005586059346994187713 ),
 .UNSPECIFIED. ) ;
#227 = CARTESIAN_POINT ( 'NONE',  ( 0.1200000000000001482, 0.2249999999999999778, 0.03499999999999953842 ) ) ;
#228 = DIRECTION ( 'NONE',  ( 0.000000000000000000, 1.000000000000000000, 0.000000000000000000 ) ) ;
#229 = CARTESIAN_POINT ( 'NONE',  ( 0.1218698283923418529, 0.2034986891623174754, 0.02799344569615569780 ) ) ;
#230 = CARTESIAN_POINT ( 'NONE',  ( 0.1202825250801131535, 0.2342432148094881761, -0.03406492228273551304 ) ) ;
#231 = AXIS2_PLACEMENT_3D ( 'NONE', #2, #104, #311 ) ;
#232 = ORIENTED_EDGE ( 'NONE', *, *, #11, .F. ) ;
#233 = SURFACE_STYLE_FILL_AREA ( #182 ) ;
#234 = EDGE_CURVE ( 'NONE', #283, #123, #184, .T. ) ;
#235 = CARTESIAN_POINT ( 'NONE',  ( 0.1249997904949657485, 0.2599992517677253145, 0.004620197622630274094 ) ) ;
#236 = FACE_BOUND ( 'NONE', #32, .T. ) ;
#237 = B_SPLINE_CURVE_WITH_KNOTS ( 'NONE', 3,
 ( #13, #88, #143, #147, #64, #323, #94, #172, #274, #90, #225, #322, #200, #229, #252, #93, #119, #227 ),
 .UNSPECIFIED., .F., .F.,
 ( 4, 2, 2, 2, 2, 2, 2, 2, 4 ),
 ( 0.000000000000000000, 0.0003491767836050651999, 0.0006983535672101303998, 0.001047530350815195545, 0.001396707134420260800, 0.001745883918025326054, 0.002095060701630391091, 0.002444237485235456562, 0.002793414268840521599 ),
 .UNSPECIFIED. ) ;
#238 = EDGE_LOOP ( 'NONE', ( #9, #330 ) ) ;
#239 = EDGE_CURVE ( 'NONE', #83, #111, #108, .T. ) ;
#240 = DIRECTION ( 'NONE',  ( 1.000000000000000000, -0.000000000000000000, -0.000000000000000000 ) ) ;
#241 = VECTOR ( 'NONE', #258, 39.37007874015748143 ) ;
#242 = DIRECTION ( 'NONE',  ( 0.000000000000000000, 1.000000000000000000, 0.000000000000000000 ) ) ;
#243 =( CONVERSION_BASED_UNIT ( 'INCH', #136 ) LENGTH_UNIT ( ) NAMED_UNIT ( #31 ) );
#244 = DIRECTION ( 'NONE',  ( 0.000000000000000000, 0.000000000000000000, -1.000000000000000000 ) ) ;
#245 = DIRECTION ( 'NONE',  ( 0.000000000000000000, 1.000000000000000000, 0.000000000000000000 ) ) ;
#246 = PRODUCT ( 'Spacer, large', 'Spacer, large', '', ( #171 ) ) ;
#247 = ORIENTED_EDGE ( 'NONE', *, *, #306, .F. ) ;
#248 =( LENGTH_UNIT ( ) NAMED_UNIT ( * ) SI_UNIT ( $, .METRE. ) );
#249 = COLOUR_RGB ( '',0.7921568627450980005, 0.8196078431372548767, 0.9333333333333333481 ) ;
#250 = CARTESIAN_POINT ( 'NONE',  ( 0.000000000000000000, 0.4499999999999999556, 0.000000000000000000 ) ) ;
#251 = DIRECTION ( 'NONE',  ( 0.000000000000000000, 0.000000000000000000, -1.000000000000000000 ) ) ;
#252 = CARTESIAN_POINT ( 'NONE',  ( 0.1212175084443943285, 0.2073569170958342034, 0.03057135012989132053 ) ) ;
#253 = CARTESIAN_POINT ( 'NONE',  ( 0.2490967924405870226, 0.1969865240653577709, 0.02148358294518413689 ) ) ;
#254 = AXIS2_PLACEMENT_3D ( 'NONE', #319, #228, #199 ) ;
#255 = ORIENTED_EDGE ( 'NONE', *, *, #295, .T. ) ;
#256 = DIRECTION ( 'NONE',  ( 0.000000000000000000, 0.000000000000000000, 1.000000000000000000 ) ) ;
#257 = ADVANCED_FACE ( 'NONE', ( #212, #310 ), #285, .T. ) ;
#258 = DIRECTION ( 'NONE',  ( -0.000000000000000000, -1.000000000000000000, -0.000000000000000000 ) ) ;
#259 =( LENGTH_UNIT ( ) NAMED_UNIT ( * ) SI_UNIT ( $, .METRE. ) );
#260 = MECHANICAL_DESIGN_GEOMETRIC_PRESENTATION_REPRESENTATION (  '', ( #286 ), #21 ) ;
#261 = DIRECTION ( 'NONE',  ( 0.000000000000000000, 1.000000000000000000, 0.000000000000000000 ) ) ;
#262 = ORIENTED_EDGE ( 'NONE', *, *, #151, .T. ) ;
#263 = DIRECTION ( 'NONE',  ( 0.000000000000000000, -0.000000000000000000, 1.000000000000000000 ) ) ;
#264 = ORIENTED_EDGE ( 'NONE', *, *, #326, .F. ) ;
#265 = CARTESIAN_POINT ( 'NONE',  ( 0.2481323413130830935, 0.2433234077601307555, -0.03118275809594798706 ) ) ;
#266 = PRODUCT_DEFINITION_FORMATION_WITH_SPECIFIED_SOURCE ( 'Symmetric', '', #246, .NOT_KNOWN. ) ;
#267 = DIRECTION ( 'NONE',  ( 0.000000000000000000, -0.000000000000000000, 1.000000000000000000 ) ) ;
#268 = CARTESIAN_POINT ( 'NONE',  ( 0.000000000000000000, 0.4499999999999999556, -0.2500000000000000000 ) ) ;
#269 = DIRECTION ( 'NONE',  ( 0.000000000000000000, 0.000000000000000000, -1.000000000000000000 ) ) ;
#270 = CARTESIAN_POINT ( 'NONE',  ( 0.2481274620590696034, 0.2426048153366872628, 0.03059179552503146424 ) ) ;
#271 = EDGE_LOOP ( 'NONE', ( #232, #87, #214, #289 ) ) ;
#272 = CARTESIAN_POINT ( 'NONE',  ( 0.2481292445621511855, 0.2073643017252887744, 0.03057797718636880852 ) ) ;
#273 = AXIS2_PLACEMENT_3D ( 'NONE', #117, #170, #276 ) ;
#274 = CARTESIAN_POINT ( 'NONE',  ( 0.1249994538453195747, 0.1900019505525920582, -0.004606985468286853812 ) ) ;
#275 = FACE_OUTER_BOUND ( 'NONE', #28, .T. ) ;
#276 = DIRECTION ( 'NONE',  ( 0.000000000000000000, 0.000000000000000000, 1.000000000000000000 ) ) ;
#277 = CARTESIAN_POINT ( 'NONE',  ( 0.2475378758897313347, 0.2249999999999999778, 0.03499999999999953842 ) ) ;
#278 = VECTOR ( 'NONE', #33, 39.37007874015748143 ) ;
#279 = PLANE ( 'NONE',  #188 ) ;
#280 = VERTEX_POINT ( 'NONE', #78 ) ;
#281 = DIRECTION ( 'NONE',  ( -0.000000000000000000, -1.000000000000000000, -0.000000000000000000 ) ) ;
#282 = DIRECTION ( 'NONE',  ( 0.000000000000000000, 0.000000000000000000, -1.000000000000000000 ) ) ;
#283 = VERTEX_POINT ( 'NONE', #142 ) ;
#284 = CARTESIAN_POINT ( 'NONE',  ( 0.1200000000000001343, 0.2249999999999999778, -0.03499999999999953842 ) ) ;
#285 = CYLINDRICAL_SURFACE ( 'NONE', #231, 0.2500000000000000000 ) ;
#286 = STYLED_ITEM ( 'NONE', ( #71 ), #126 ) ;
#287 = VERTEX_POINT ( 'NONE', #59 ) ;
#288 = DIRECTION ( 'NONE',  ( -0.000000000000000000, -1.000000000000000000, -0.000000000000000000 ) ) ;
#289 = ORIENTED_EDGE ( 'NONE', *, *, #35, .F. ) ;
#290 = ORIENTED_EDGE ( 'NONE', *, *, #48, .F. ) ;
#291 = CIRCLE ( 'NONE', #50, 0.1250000000000000000 ) ;
#292 = CARTESIAN_POINT ( 'NONE',  ( 0.000000000000000000, 0.000000000000000000, 0.000000000000000000 ) ) ;
#293 = ORIENTED_EDGE ( 'NONE', *, *, #103, .F. ) ;
#294 = FACE_OUTER_BOUND ( 'NONE', #218, .T. ) ;
#295 = EDGE_CURVE ( 'NONE', #280, #25, #166, .T. ) ;
#296 = CARTESIAN_POINT ( 'NONE',  ( 0.000000000000000000, 0.000000000000000000, 0.000000000000000000 ) ) ;
#297 = AXIS2_PLACEMENT_3D ( 'NONE', #292, #60, #316 ) ;
#298 = CARTESIAN_POINT ( 'NONE',  ( 0.2475378758897313070, 0.2249999999999999778, -0.03499999999999953842 ) ) ;
#299 = CARTESIAN_POINT ( 'NONE',  ( 0.2484516736240547363, 0.2034703432398473621, -0.02796912883939482730 ) ) ;
#300 = CARTESIAN_POINT ( 'NONE',  ( 0.000000000000000000, 0.000000000000000000, 0.000000000000000000 ) ) ;
#301 = B_SPLINE_CURVE_WITH_KNOTS ( 'NONE', 3,
 ( #314, #6, #137, #270, #56, #110, #34, #74, #82, #1, #53, #217, #162, #265, #159, #160 ),
 .UNSPECIFIED., .F., .F.,
 ( 4, 2, 2, 2, 2, 2, 2, 4 ),
 ( 0.002782834888014285024, 0.003130604699195907274, 0.003478374510377529958, 0.003826144321559152642, 0.004173914132740774892, 0.004521683943922397142, 0.004869453755104020259, 0.005564993377467263025 ),
 .UNSPECIFIED. ) ;
#302 = FACE_OUTER_BOUND ( 'NONE', #238, .T. ) ;
#303 = FILL_AREA_STYLE_COLOUR ( '', #249 ) ;
#304 = ORIENTED_EDGE ( 'NONE', *, *, #220, .T. ) ;
#305 = CARTESIAN_POINT ( 'NONE',  ( 0.2500000000000000000, 0.2249999999999999778, 0.000000000000000000 ) ) ;
#306 = EDGE_CURVE ( 'NONE', #105, #287, #190, .T. ) ;
#307 = EDGE_LOOP ( 'NONE', ( #4, #208, #204, #19 ) ) ;
#308 = CARTESIAN_POINT ( 'NONE',  ( 0.1238134408841706224, 0.2555402367808715103, 0.01771024417657477215 ) ) ;
#309 = FACE_BOUND ( 'NONE', #112, .T. ) ;
#310 = FACE_OUTER_BOUND ( 'NONE', #271, .T. ) ;
#311 = DIRECTION ( 'NONE',  ( 0.000000000000000000, 0.000000000000000000, -1.000000000000000000 ) ) ;
#312 = ORIENTED_EDGE ( 'NONE', *, *, #151, .F. ) ;
#313 = VECTOR ( 'NONE', #84, 39.37007874015748143 ) ;
#314 = CARTESIAN_POINT ( 'NONE',  ( 0.2475378758897313347, 0.2249999999999999778, 0.03499999999999953842 ) ) ;
#315 = DIRECTION ( 'NONE',  ( 0.000000000000000000, 0.000000000000000000, 1.000000000000000000 ) ) ;
#316 = DIRECTION ( 'NONE',  ( 0.000000000000000000, 0.000000000000000000, 1.000000000000000000 ) ) ;
#317 = ORIENTED_EDGE ( 'NONE', *, *, #234, .F. ) ;
#318 = UNCERTAINTY_MEASURE_WITH_UNIT (LENGTH_MEASURE( 1.000000000000000082E-05 ), #243, 'distance_accuracy_value', 'NONE');
#319 = CARTESIAN_POINT ( 'NONE',  ( 0.000000000000000000, 0.4499999999999999556, 0.000000000000000000 ) ) ;
#320 = ADVANCED_FACE ( 'NONE', ( #10 ), #132, .F. ) ;
#321 = DIRECTION ( 'NONE',  ( -0.000000000000000000, -1.000000000000000000, -0.000000000000000000 ) ) ;
#322 = CARTESIAN_POINT ( 'NONE',  ( 0.1238172134799469803, 0.1944449194584041973, 0.01768043574462354467 ) ) ;
#323 = CARTESIAN_POINT ( 'NONE',  ( 0.1231751998856604607, 0.1970354456379303509, -0.02153153204508013660 ) ) ;
#324 =( NAMED_UNIT ( * ) SI_UNIT ( $, .STERADIAN. ) SOLID_ANGLE_UNIT ( ) );
#325 = CARTESIAN_POINT ( 'NONE',  ( 0.2476712693880652183, 0.2158373842736673043, 0.03408925073242747433 ) ) ;
#326 = EDGE_CURVE ( 'NONE', #54, #3, #80, .T. ) ;
#327 = DIRECTION ( 'NONE',  ( 0.000000000000000000, 1.000000000000000000, 0.000000000000000000 ) ) ;
#328 = CARTESIAN_POINT ( 'NONE',  ( 0.1200000000000001343, 0.2295815362275905880, 0.03499999999999955230 ) ) ;
#329 = AXIS2_PLACEMENT_3D ( 'NONE', #305, #211, #156 ) ;
#330 = ORIENTED_EDGE ( 'NONE', *, *, #11, .T. ) ;
#331 = CARTESIAN_POINT ( 'NONE',  ( 3.061616997868383018E-17, 0.000000000000000000, 0.2500000000000000000 ) ) ;
#332 =( NAMED_UNIT ( * ) PLANE_ANGLE_UNIT ( ) SI_UNIT ( $, .RADIAN. ) );
#333 = SURFACE_STYLE_USAGE ( .BOTH. , #122 ) ;
ENDSEC;
END-ISO-10303-21;
