ISO-10303-21;
HEADER;
FILE_DESCRIPTION (( 'STEP AP214' ),
    '1' );
FILE_NAME ('Specimen mounting plate.STEP',
    '2026-02-20T19:34:29',
    ( '' ),
    ( '' ),
    'SwSTEP 2.0',
    'SolidWorks 2025',
    '' );
FILE_SCHEMA (( 'AUTOMOTIVE_DESIGN' ));
ENDSEC;

DATA;
#1 = CARTESIAN_POINT ( 'NONE',  ( 0.9842519685039680111, 0.000000000000000000, 0.7842519685038501498 ) ) ;
#2 = CARTESIAN_POINT ( 'NONE',  ( 0.9842519685039653465, 0.2700000000000000178, -0.8527559055118388853 ) ) ;
#3 = CARTESIAN_POINT ( 'NONE',  ( 0.9842519685039653465, 0.2700000000000000178, -0.9842519685039647914 ) ) ;
#4 = CARTESIAN_POINT ( 'NONE',  ( 0.9842519685038467747, 0.2700000000000000178, -0.9842519685039713417 ) ) ;
#5 = DIRECTION ( 'NONE',  ( 0.000000000000000000, -0.8718809407172234405, 0.4897179037099311794 ) ) ;
#6 = EDGE_CURVE ( 'NONE', #191, #784, #633, .T. ) ;
#7 = VERTEX_POINT ( 'NONE', #420 ) ;
#8 = CARTESIAN_POINT ( 'NONE',  ( 0.9842519685040204136, 0.3749999999999995559, 0.9842519685039092803 ) ) ;
#9 = CARTESIAN_POINT ( 'NONE',  ( -2.366141732283464805, -7.649174382259936223E-15, 2.366141732283466137 ) ) ;
#10 = AXIS2_PLACEMENT_3D ( 'NONE', #23, #737, #466 ) ;
#11 = APPLICATION_CONTEXT ( 'automotive_design' ) ;
#12 = AXIS2_PLACEMENT_3D ( 'NONE', #929, #129, #555 ) ;
#13 = ORIENTED_EDGE ( 'NONE', *, *, #910, .T. ) ;
#14 = CARTESIAN_POINT ( 'NONE',  ( 0.9842519685039653465, 0.3749999999999995559, -0.9842519685039647914 ) ) ;
#15 =( LENGTH_UNIT ( ) NAMED_UNIT ( * ) SI_UNIT ( $, .METRE. ) );
#16 = ADVANCED_FACE ( 'NONE', ( #267 ), #500, .F. ) ;
#17 = EDGE_LOOP ( 'NONE', ( #677, #159, #597, #429 ) ) ;
#18 = LINE ( 'NONE', #583, #135 ) ;
#19 = DIRECTION ( 'NONE',  ( 0.000000000000000000, 0.000000000000000000, 1.000000000000000000 ) ) ;
#20 = EDGE_LOOP ( 'NONE', ( #679, #873, #581, #154 ) ) ;
#21 = CARTESIAN_POINT ( 'NONE',  ( 0.9842519685038467747, 0.2700000000000000178, -0.9842519685039713417 ) ) ;
#22 = ORIENTED_EDGE ( 'NONE', *, *, #632, .T. ) ;
#23 = CARTESIAN_POINT ( 'NONE',  ( 0.9842519685040204136, 0.2700000000000000178, 0.9842519685039092803 ) ) ;
#24 = AXIS2_PLACEMENT_3D ( 'NONE', #778, #474, #468 ) ;
#25 = AXIS2_PLACEMENT_3D ( 'NONE', #4, #83, #367 ) ;
#26 = ORIENTED_EDGE ( 'NONE', *, *, #568, .T. ) ;
#27 = EDGE_CURVE ( 'NONE', #433, #540, #570, .T. ) ;
#28 = CIRCLE ( 'NONE', #320, 0.1314960629921259616 ) ;
#29 = FACE_OUTER_BOUND ( 'NONE', #232, .T. ) ;
#30 = ORIENTED_EDGE ( 'NONE', *, *, #125, .T. ) ;
#31 = DIRECTION ( 'NONE',  ( -0.7071067811865475727, -0.000000000000000000, -0.7071067811865473507 ) ) ;
#32 = VERTEX_POINT ( 'NONE', #2 ) ;
#33 = EDGE_CURVE ( 'NONE', #747, #738, #280, .T. ) ;
#34 = DIRECTION ( 'NONE',  ( 0.000000000000000000, 0.000000000000000000, -1.000000000000000000 ) ) ;
#35 = FACE_OUTER_BOUND ( 'NONE', #104, .T. ) ;
#36 = ORIENTED_EDGE ( 'NONE', *, *, #803, .F. ) ;
#37 = CARTESIAN_POINT ( 'NONE',  ( -0.9842519685039087252, 0.2700000000000000178, -0.9842519685039097244 ) ) ;
#38 = EDGE_CURVE ( 'NONE', #750, #249, #704, .T. ) ;
#39 = DIRECTION ( 'NONE',  ( -0.000000000000000000, -1.000000000000000000, -0.000000000000000000 ) ) ;
#40 = DIRECTION ( 'NONE',  ( -0.000000000000000000, -1.000000000000000000, -0.000000000000000000 ) ) ;
#41 = ORIENTED_EDGE ( 'NONE', *, *, #891, .F. ) ;
#42 = CARTESIAN_POINT ( 'NONE',  ( 0.9842519685040204136, 0.3749999999999995559, 0.8527559055117832632 ) ) ;
#43 = ORIENTED_EDGE ( 'NONE', *, *, #396, .T. ) ;
#44 = CIRCLE ( 'NONE', #439, 0.1314960629921259616 ) ;
#45 = ORIENTED_EDGE ( 'NONE', *, *, #427, .T. ) ;
#46 = DIRECTION ( 'NONE',  ( -0.000000000000000000, -1.000000000000000000, -0.000000000000000000 ) ) ;
#47 = ADVANCED_FACE ( 'NONE', ( #872, #494, #625, #428, #717, #60 ), #933, .T. ) ;
#48 = ORIENTED_EDGE ( 'NONE', *, *, #632, .F. ) ;
#49 = CARTESIAN_POINT ( 'NONE',  ( 1.549510371686741328, 0.000000000000000000, 0.000000000000000000 ) ) ;
#50 = ORIENTED_EDGE ( 'NONE', *, *, #712, .F. ) ;
#51 = LINE ( 'NONE', #851, #64 ) ;
#52 = ORIENTED_EDGE ( 'NONE', *, *, #910, .F. ) ;
#53 = PLANE ( 'NONE',  #732 ) ;
#54 = FACE_BOUND ( 'NONE', #542, .T. ) ;
#55 = AXIS2_PLACEMENT_3D ( 'NONE', #559, #862, #199 ) ;
#56 = CIRCLE ( 'NONE', #475, 0.1314960629921259616 ) ;
#57 = ORIENTED_EDGE ( 'NONE', *, *, #465, .T. ) ;
#58 = EDGE_CURVE ( 'NONE', #800, #365, #483, .T. ) ;
#59 = DIRECTION ( 'NONE',  ( 0.000000000000000000, -1.000000000000000000, 0.000000000000000000 ) ) ;
#60 = FACE_OUTER_BOUND ( 'NONE', #639, .T. ) ;
#61 = DIRECTION ( 'NONE',  ( -0.000000000000000000, -1.000000000000000000, -0.000000000000000000 ) ) ;
#62 = CARTESIAN_POINT ( 'NONE',  ( 0.9842519685039680111, 0.000000000000000000, 0.9842519685038502164 ) ) ;
#63 = EDGE_LOOP ( 'NONE', ( #819, #692, #575, #945 ) ) ;
#64 = VECTOR ( 'NONE', #103, 39.37007874015748143 ) ;
#65 = AXIS2_PLACEMENT_3D ( 'NONE', #116, #491, #721 ) ;
#66 = EDGE_CURVE ( 'NONE', #743, #738, #574, .T. ) ;
#67 = VERTEX_POINT ( 'NONE', #647 ) ;
#68 = LINE ( 'NONE', #860, #589 ) ;
#69 = ORIENTED_EDGE ( 'NONE', *, *, #580, .F. ) ;
#70 = DIRECTION ( 'NONE',  ( 1.000000000000000000, 0.000000000000000000, 0.000000000000000000 ) ) ;
#71 = ORIENTED_EDGE ( 'NONE', *, *, #708, .F. ) ;
#72 = LINE ( 'NONE', #86, #404 ) ;
#73 = EDGE_CURVE ( 'NONE', #386, #750, #288, .T. ) ;
#74 = LINE ( 'NONE', #431, #112 ) ;
#75 = CYLINDRICAL_SURFACE ( 'NONE', #473, 0.1314960629921259616 ) ;
#76 = AXIS2_PLACEMENT_3D ( 'NONE', #307, #441, #243 ) ;
#77 = CARTESIAN_POINT ( 'NONE',  ( 6.829619984160658046E-17, 0.3749999999999995559, 1.549510371686741328 ) ) ;
#78 = AXIS2_PLACEMENT_3D ( 'NONE', #3, #140, #573 ) ;
#79 = ORIENTED_EDGE ( 'NONE', *, *, #931, .F. ) ;
#80 = LENGTH_MEASURE_WITH_UNIT ( LENGTH_MEASURE( 0.02539999999999999897 ), #15 );
#81 = EDGE_LOOP ( 'NONE', ( #606, #595 ) ) ;
#82 =( NAMED_UNIT ( * ) SI_UNIT ( $, .STERADIAN. ) SOLID_ANGLE_UNIT ( ) );
#83 = DIRECTION ( 'NONE',  ( 0.000000000000000000, -1.000000000000000000, 0.000000000000000000 ) ) ;
#84 = CARTESIAN_POINT ( 'NONE',  ( 0.9842519685040204136, 0.3749999999999995559, 1.115748031496035075 ) ) ;
#85 = ADVANCED_FACE ( 'NONE', ( #146 ), #894, .T. ) ;
#86 = CARTESIAN_POINT ( 'NONE',  ( -6.829619984160658046E-17, 0.000000000000000000, -1.549510371686741106 ) ) ;
#87 = VERTEX_POINT ( 'NONE', #291 ) ;
#88 = DIRECTION ( 'NONE',  ( -0.000000000000000000, -1.000000000000000000, -0.000000000000000000 ) ) ;
#89 = ORIENTED_EDGE ( 'NONE', *, *, #471, .F. ) ;
#90 = DIRECTION ( 'NONE',  ( 0.000000000000000000, -1.000000000000000000, 0.000000000000000000 ) ) ;
#91 = CIRCLE ( 'NONE', #10, 0.1314960629921259616 ) ;
#92 = ADVANCED_FACE ( 'NONE', ( #663 ), #660, .F. ) ;
#93 = AXIS2_PLACEMENT_3D ( 'NONE', #889, #228, #235 ) ;
#94 = VERTEX_POINT ( 'NONE', #238 ) ;
#95 = CARTESIAN_POINT ( 'NONE',  ( 1.549510371686741328, 0.3749999999999995559, 0.000000000000000000 ) ) ;
#96 = VERTEX_POINT ( 'NONE', #151 ) ;
#97 = DIRECTION ( 'NONE',  ( 0.000000000000000000, 0.000000000000000000, -1.000000000000000000 ) ) ;
#98 = EDGE_CURVE ( 'NONE', #251, #858, #744, .T. ) ;
#99 = FACE_OUTER_BOUND ( 'NONE', #904, .T. ) ;
#100 = DIRECTION ( 'NONE',  ( -0.000000000000000000, -1.000000000000000000, -0.000000000000000000 ) ) ;
#101 = ORIENTED_EDGE ( 'NONE', *, *, #38, .F. ) ;
#102 = LINE ( 'NONE', #832, #635 ) ;
#103 = DIRECTION ( 'NONE',  ( 0.000000000000000000, -1.000000000000000000, 0.000000000000000000 ) ) ;
#104 = EDGE_LOOP ( 'NONE', ( #668, #829, #462, #572 ) ) ;
#105 = DIRECTION ( 'NONE',  ( 0.000000000000000000, -1.000000000000000000, 0.000000000000000000 ) ) ;
#106 = ORIENTED_EDGE ( 'NONE', *, *, #338, .F. ) ;
#107 = EDGE_CURVE ( 'NONE', #7, #784, #364, .T. ) ;
#108 = VERTEX_POINT ( 'NONE', #670 ) ;
#109 = VECTOR ( 'NONE', #459, 39.37007874015748854 ) ;
#110 = AXIS2_PLACEMENT_3D ( 'NONE', #599, #40, #539 ) ;
#111 = AXIS2_PLACEMENT_3D ( 'NONE', #703, #488, #793 ) ;
#112 = VECTOR ( 'NONE', #489, 39.37007874015748143 ) ;
#113 = FACE_OUTER_BOUND ( 'NONE', #278, .T. ) ;
#114 = VERTEX_POINT ( 'NONE', #655 ) ;
#115 = LINE ( 'NONE', #252, #213 ) ;
#116 = CARTESIAN_POINT ( 'NONE',  ( -0.9842519685038536581, 0.2700000000000000178, 0.9842519685039645694 ) ) ;
#117 = CARTESIAN_POINT ( 'NONE',  ( -0.9842519685039747834, 0.2700000000000000178, -0.9842519685038435551 ) ) ;
#118 = EDGE_CURVE ( 'NONE', #455, #918, #941, .T. ) ;
#119 = EDGE_LOOP ( 'NONE', ( #815, #669, #165, #849 ) ) ;
#120 = EDGE_CURVE ( 'NONE', #207, #247, #72, .T. ) ;
#121 = DIRECTION ( 'NONE',  ( 0.000000000000000000, 0.000000000000000000, -1.000000000000000000 ) ) ;
#122 = VECTOR ( 'NONE', #772, 39.37007874015748143 ) ;
#123 = VECTOR ( 'NONE', #740, 39.37007874015748143 ) ;
#124 = CARTESIAN_POINT ( 'NONE',  ( -0.9842519685038536581, 0.2700000000000000178, 0.9842519685039645694 ) ) ;
#125 = EDGE_CURVE ( 'NONE', #387, #918, #18, .T. ) ;
#126 = EDGE_LOOP ( 'NONE', ( #285, #710 ) ) ;
#127 = LINE ( 'NONE', #939, #867 ) ;
#128 = DIRECTION ( 'NONE',  ( 0.000000000000000000, -1.000000000000000000, 0.000000000000000000 ) ) ;
#129 = DIRECTION ( 'NONE',  ( -0.000000000000000000, -1.000000000000000000, -0.000000000000000000 ) ) ;
#130 = DIRECTION ( 'NONE',  ( 0.000000000000000000, -1.000000000000000000, 0.000000000000000000 ) ) ;
#131 = CARTESIAN_POINT ( 'NONE',  ( 0.9842519685040204136, 0.2700000000000000178, 1.115748031496035075 ) ) ;
#132 = DIRECTION ( 'NONE',  ( -0.7071067811865474617, 0.000000000000000000, 0.7071067811865476838 ) ) ;
#133 = DIRECTION ( 'NONE',  ( -0.4398109399860403168, -0.7830278884798342887, -0.4398109399860438695 ) ) ;
#134 = ORIENTED_EDGE ( 'NONE', *, *, #848, .F. ) ;
#135 = VECTOR ( 'NONE', #890, 39.37007874015748143 ) ;
#136 = AXIS2_PLACEMENT_3D ( 'NONE', #529, #100, #811 ) ;
#137 = CARTESIAN_POINT ( 'NONE',  ( 6.829619984160658046E-17, 0.3749999999999995559, 1.549510371686741328 ) ) ;
#138 = AXIS2_PLACEMENT_3D ( 'NONE', #305, #603, #171 ) ;
#139 = EDGE_LOOP ( 'NONE', ( #634, #422 ) ) ;
#140 = DIRECTION ( 'NONE',  ( 0.000000000000000000, -1.000000000000000000, 0.000000000000000000 ) ) ;
#141 = CARTESIAN_POINT ( 'NONE',  ( 2.366141732283464805, -7.649174382259936223E-15, -2.366141732283466137 ) ) ;
#142 = EDGE_CURVE ( 'NONE', #918, #455, #91, .T. ) ;
#143 = ORIENTED_EDGE ( 'NONE', *, *, #492, .F. ) ;
#144 = CARTESIAN_POINT ( 'NONE',  ( -0.9842519685039087252, 0.3749999999999995559, -0.9842519685039097244 ) ) ;
#145 = PRESENTATION_STYLE_ASSIGNMENT (( #220 ) ) ;
#146 = FACE_OUTER_BOUND ( 'NONE', #17, .T. ) ;
#147 = ORIENTED_EDGE ( 'NONE', *, *, #58, .T. ) ;
#148 = FILL_AREA_STYLE ('',( #578 ) ) ;
#149 = CARTESIAN_POINT ( 'NONE',  ( 0.9842519685039653465, 0.3749999999999995559, -0.9842519685039647914 ) ) ;
#150 = VECTOR ( 'NONE', #629, 39.37007874015748143 ) ;
#151 = CARTESIAN_POINT ( 'NONE',  ( -0.9842519685038536581, 0.3749999999999995559, 1.115748031496090587 ) ) ;
#152 = CIRCLE ( 'NONE', #620, 0.2000000000000000389 ) ;
#153 = STYLED_ITEM ( 'NONE', ( #145 ), #828 ) ;
#154 = ORIENTED_EDGE ( 'NONE', *, *, #58, .F. ) ;
#155 = DIRECTION ( 'NONE',  ( 0.000000000000000000, 1.000000000000000000, 0.000000000000000000 ) ) ;
#156 = CARTESIAN_POINT ( 'NONE',  ( -1.549510371686741550, -7.649174382259936223E-15, 0.000000000000000000 ) ) ;
#157 = CARTESIAN_POINT ( 'NONE',  ( -0.9842519685038536581, 0.2700000000000000178, 0.9842519685039645694 ) ) ;
#158 = DIRECTION ( 'NONE',  ( 0.000000000000000000, 0.000000000000000000, -1.000000000000000000 ) ) ;
#159 = ORIENTED_EDGE ( 'NONE', *, *, #310, .F. ) ;
#160 = CARTESIAN_POINT ( 'NONE',  ( -0.9842519685038536581, 0.2700000000000000178, 0.7842519685039645028 ) ) ;
#161 = FACE_OUTER_BOUND ( 'NONE', #372, .T. ) ;
#162 = ORIENTED_EDGE ( 'NONE', *, *, #382, .F. ) ;
#163 = CYLINDRICAL_SURFACE ( 'NONE', #769, 0.1314960629921259616 ) ;
#164 = CARTESIAN_POINT ( 'NONE',  ( -0.9842519685038536581, 0.3749999999999995559, 0.8527559055118385523 ) ) ;
#165 = ORIENTED_EDGE ( 'NONE', *, *, #902, .T. ) ;
#166 = FACE_OUTER_BOUND ( 'NONE', #319, .T. ) ;
#167 = VECTOR ( 'NONE', #637, 39.37007874015748143 ) ;
#168 = AXIS2_PLACEMENT_3D ( 'NONE', #728, #300, #361 ) ;
#169 = ORIENTED_EDGE ( 'NONE', *, *, #193, .F. ) ;
#170 = AXIS2_PLACEMENT_3D ( 'NONE', #498, #913, #456 ) ;
#171 = DIRECTION ( 'NONE',  ( 0.000000000000000000, 0.000000000000000000, -1.000000000000000000 ) ) ;
#172 = EDGE_LOOP ( 'NONE', ( #621, #397, #30, #311 ) ) ;
#173 = DIRECTION ( 'NONE',  ( 0.000000000000000000, -1.000000000000000000, 0.000000000000000000 ) ) ;
#174 = ORIENTED_EDGE ( 'NONE', *, *, #396, .F. ) ;
#175 = PLANE ( 'NONE',  #390 ) ;
#176 = ORIENTED_EDGE ( 'NONE', *, *, #222, .F. ) ;
#177 = EDGE_CURVE ( 'NONE', #541, #67, #605, .T. ) ;
#178 = CARTESIAN_POINT ( 'NONE',  ( -0.9842519685039087252, 0.3749999999999995559, -0.9842519685039097244 ) ) ;
#179 = DIRECTION ( 'NONE',  ( 0.7071067811865474617, 0.000000000000000000, -0.7071067811865474617 ) ) ;
#180 = EDGE_LOOP ( 'NONE', ( #344, #26, #147, #378 ) ) ;
#181 = ORIENTED_EDGE ( 'NONE', *, *, #418, .T. ) ;
#182 = DIRECTION ( 'NONE',  ( 0.000000000000000000, 0.4897179037099312349, -0.8718809407172235515 ) ) ;
#183 = ADVANCED_FACE ( 'NONE', ( #312, #262 ), #535, .T. ) ;
#184 = CARTESIAN_POINT ( 'NONE',  ( 6.829619984160658046E-17, 0.000000000000000000, 1.549510371686741328 ) ) ;
#185 = DIRECTION ( 'NONE',  ( 1.000000000000000000, 0.000000000000000000, 0.000000000000000000 ) ) ;
#186 = CYLINDRICAL_SURFACE ( 'NONE', #356, 0.1314960629921259616 ) ;
#187 = CLOSED_SHELL ( 'NONE', ( #425, #626, #654, #885, #16, #362, #350, #726, #874, #246, #543, #223, #226, #47, #215, #650, #233, #436, #791, #85, #260, #281, #856, #197, #723, #690, #781, #505, #92, #183 ) ) ;
#188 = AXIS2_PLACEMENT_3D ( 'NONE', #645, #582, #938 ) ;
#189 = AXIS2_PLACEMENT_3D ( 'NONE', #908, #934, #399 ) ;
#190 = EDGE_CURVE ( 'NONE', #114, #763, #689, .T. ) ;
#191 = VERTEX_POINT ( 'NONE', #917 ) ;
#192 = DIRECTION ( 'NONE',  ( 0.000000000000000000, 0.000000000000000000, -1.000000000000000000 ) ) ;
#193 = EDGE_CURVE ( 'NONE', #387, #94, #256, .T. ) ;
#194 = ORIENTED_EDGE ( 'NONE', *, *, #718, .T. ) ;
#195 = FACE_BOUND ( 'NONE', #537, .T. ) ;
#196 = DIRECTION ( 'NONE',  ( 0.000000000000000000, -1.000000000000000000, 0.000000000000000000 ) ) ;
#197 = ADVANCED_FACE ( 'NONE', ( #400, #841 ), #175, .T. ) ;
#198 = DIRECTION ( 'NONE',  ( 0.000000000000000000, -1.000000000000000000, 0.000000000000000000 ) ) ;
#199 = DIRECTION ( 'NONE',  ( 0.000000000000000000, -0.000000000000000000, 1.000000000000000000 ) ) ;
#200 = EDGE_LOOP ( 'NONE', ( #388, #916, #883, #681 ) ) ;
#201 = AXIS2_PLACEMENT_3D ( 'NONE', #683, #921, #316 ) ;
#202 = CIRCLE ( 'NONE', #248, 0.2000000000000000389 ) ;
#203 = EDGE_CURVE ( 'NONE', #928, #247, #115, .T. ) ;
#204 = FACE_OUTER_BOUND ( 'NONE', #561, .T. ) ;
#205 = PLANE ( 'NONE',  #550 ) ;
#206 = CARTESIAN_POINT ( 'NONE',  ( -6.829619984160658046E-17, 0.000000000000000000, -1.549510371686741106 ) ) ;
#207 = VERTEX_POINT ( 'NONE', #49 ) ;
#208 = DIRECTION ( 'NONE',  ( 0.000000000000000000, 0.000000000000000000, -1.000000000000000000 ) ) ;
#209 = PLANE ( 'NONE',  #512 ) ;
#210 = ORIENTED_EDGE ( 'NONE', *, *, #521, .T. ) ;
#211 = CARTESIAN_POINT ( 'NONE',  ( -0.9842519685039747834, 0.2700000000000000178, -0.9842519685038435551 ) ) ;
#212 = CARTESIAN_POINT ( 'NONE',  ( 2.155511811023622215, 0.3749999999999995559, -2.155511811023623103 ) ) ;
#213 = VECTOR ( 'NONE', #850, 39.37007874015748143 ) ;
#214 = VECTOR ( 'NONE', #179, 39.37007874015748854 ) ;
#215 = ADVANCED_FACE ( 'NONE', ( #919 ), #926, .T. ) ;
#216 = EDGE_LOOP ( 'NONE', ( #339, #225, #659, #869 ) ) ;
#217 = ORIENTED_EDGE ( 'NONE', *, *, #27, .T. ) ;
#218 = ORIENTED_EDGE ( 'NONE', *, *, #193, .T. ) ;
#219 = FACE_OUTER_BOUND ( 'NONE', #705, .T. ) ;
#220 = SURFACE_STYLE_USAGE ( .BOTH. , #886 ) ;
#221 = FACE_OUTER_BOUND ( 'NONE', #172, .T. ) ;
#222 = EDGE_CURVE ( 'NONE', #806, #249, #648, .T. ) ;
#223 = ADVANCED_FACE ( 'NONE', ( #99 ), #186, .F. ) ;
#224 = CARTESIAN_POINT ( 'NONE',  ( -2.366141732283464805, -7.649174382259936223E-15, -2.366141732283466137 ) ) ;
#225 = ORIENTED_EDGE ( 'NONE', *, *, #329, .F. ) ;
#226 = ADVANCED_FACE ( 'NONE', ( #477 ), #53, .T. ) ;
#227 = LINE ( 'NONE', #588, #394 ) ;
#228 = DIRECTION ( 'NONE',  ( 0.000000000000000000, 1.000000000000000000, 0.000000000000000000 ) ) ;
#229 = AXIS2_PLACEMENT_3D ( 'NONE', #426, #279, #868 ) ;
#230 = VECTOR ( 'NONE', #675, 39.37007874015748854 ) ;
#231 = PRODUCT_DEFINITION_FORMATION_WITH_SPECIFIED_SOURCE ( 'Symmetric', '', #687, .NOT_KNOWN. ) ;
#232 = EDGE_LOOP ( 'NONE', ( #501, #759, #727, #602 ) ) ;
#233 = ADVANCED_FACE ( 'NONE', ( #277 ), #794, .F. ) ;
#234 = DIRECTION ( 'NONE',  ( 0.000000000000000000, -1.000000000000000000, 0.000000000000000000 ) ) ;
#235 = DIRECTION ( 'NONE',  ( 0.000000000000000000, 0.000000000000000000, 1.000000000000000000 ) ) ;
#236 = CARTESIAN_POINT ( 'NONE',  ( 0.9842519685039653465, 0.3749999999999995559, -0.8527559055118388853 ) ) ;
#237 = VERTEX_POINT ( 'NONE', #804 ) ;
#238 = CARTESIAN_POINT ( 'NONE',  ( 0.9842519685040204136, 0.3749999999999995559, 1.115748031496035075 ) ) ;
#239 = DIRECTION ( 'NONE',  ( -0.000000000000000000, -1.000000000000000000, -0.000000000000000000 ) ) ;
#240 = CARTESIAN_POINT ( 'NONE',  ( -1.549510371686741550, 0.000000000000000000, 0.000000000000000000 ) ) ;
#241 = ORIENTED_EDGE ( 'NONE', *, *, #142, .F. ) ;
#242 = LINE ( 'NONE', #527, #587 ) ;
#243 = DIRECTION ( 'NONE',  ( 0.000000000000000000, 0.000000000000000000, -1.000000000000000000 ) ) ;
#244 = CARTESIAN_POINT ( 'NONE',  ( -0.9842519685038536581, 0.2700000000000000178, 1.184251968503964525 ) ) ;
#245 =( LENGTH_UNIT ( ) NAMED_UNIT ( * ) SI_UNIT ( $, .METRE. ) );
#246 = ADVANCED_FACE ( 'NONE', ( #871 ), #414, .F. ) ;
#247 = VERTEX_POINT ( 'NONE', #206 ) ;
#248 = AXIS2_PLACEMENT_3D ( 'NONE', #62, #196, #261 ) ;
#249 = VERTEX_POINT ( 'NONE', #1 ) ;
#250 = CARTESIAN_POINT ( 'NONE',  ( -0.9842519685038536581, 0.3749999999999995559, 0.9842519685039645694 ) ) ;
#251 = VERTEX_POINT ( 'NONE', #137 ) ;
#252 = CARTESIAN_POINT ( 'NONE',  ( -6.829619984160658046E-17, 0.3749999999999995559, -1.549510371686741106 ) ) ;
#253 = EDGE_LOOP ( 'NONE', ( #745, #306 ) ) ;
#254 = CARTESIAN_POINT ( 'NONE',  ( -2.366141732283464805, -7.649174382259936223E-15, 2.366141732283466137 ) ) ;
#255 = DIRECTION ( 'NONE',  ( 0.000000000000000000, -1.000000000000000000, 0.000000000000000000 ) ) ;
#256 = CIRCLE ( 'NONE', #24, 0.1314960629921259616 ) ;
#257 = CIRCLE ( 'NONE', #577, 0.2000000000000000389 ) ;
#258 = FACE_BOUND ( 'NONE', #81, .T. ) ;
#259 = CIRCLE ( 'NONE', #536, 0.2000000000000001776 ) ;
#260 = ADVANCED_FACE ( 'NONE', ( #558 ), #209, .T. ) ;
#261 = DIRECTION ( 'NONE',  ( 0.000000000000000000, 0.000000000000000000, -1.000000000000000000 ) ) ;
#262 = FACE_OUTER_BOUND ( 'NONE', #656, .T. ) ;
#263 = EDGE_CURVE ( 'NONE', #269, #87, #419, .T. ) ;
#264 = ORIENTED_EDGE ( 'NONE', *, *, #293, .F. ) ;
#265 = CARTESIAN_POINT ( 'NONE',  ( -2.366141732283464805, -7.649174382259936223E-15, -2.366141732283466137 ) ) ;
#266 = CARTESIAN_POINT ( 'NONE',  ( -0.9842519685038536581, 0.2700000000000000178, 0.9842519685039645694 ) ) ;
#267 = FACE_OUTER_BOUND ( 'NONE', #119, .T. ) ;
#268 = APPLICATION_PROTOCOL_DEFINITION ( 'draft international standard', 'automotive_design', 1998, #734 ) ;
#269 = VERTEX_POINT ( 'NONE', #714 ) ;
#270 = LINE ( 'NONE', #706, #651 ) ;
#271 = LINE ( 'NONE', #563, #768 ) ;
#272 = EDGE_CURVE ( 'NONE', #792, #87, #665, .T. ) ;
#273 = FACE_BOUND ( 'NONE', #393, .T. ) ;
#274 = VECTOR ( 'NONE', #798, 39.37007874015748143 ) ;
#275 = LINE ( 'NONE', #342, #274 ) ;
#276 = VECTOR ( 'NONE', #39, 39.37007874015748143 ) ;
#277 = FACE_OUTER_BOUND ( 'NONE', #911, .T. ) ;
#278 = EDGE_LOOP ( 'NONE', ( #612, #627, #487, #824 ) ) ;
#279 = DIRECTION ( 'NONE',  ( -0.8718809407172252168, -0.4897179037099281818, 0.000000000000000000 ) ) ;
#280 = LINE ( 'NONE', #725, #696 ) ;
#281 = ADVANCED_FACE ( 'NONE', ( #340 ), #402, .T. ) ;
#282 = PLANE ( 'NONE',  #188 ) ;
#283 = LINE ( 'NONE', #254, #943 ) ;
#284 = DIRECTION ( 'NONE',  ( -0.000000000000000000, 0.4897179037099312349, 0.8718809407172235515 ) ) ;
#285 = ORIENTED_EDGE ( 'NONE', *, *, #644, .T. ) ;
#286 = SURFACE_STYLE_FILL_AREA ( #148 ) ;
#287 = DIRECTION ( 'NONE',  ( 0.000000000000000000, 0.000000000000000000, 1.000000000000000000 ) ) ;
#288 = CIRCLE ( 'NONE', #391, 0.2000000000000000389 ) ;
#289 = AXIS2_PLACEMENT_3D ( 'NONE', #265, #796, #711 ) ;
#290 = AXIS2_PLACEMENT_3D ( 'NONE', #21, #463, #764 ) ;
#291 = CARTESIAN_POINT ( 'NONE',  ( 0.9842519685038467747, 0.000000000000000000, -0.7842519685039712751 ) ) ;
#292 = FACE_OUTER_BOUND ( 'NONE', #20, .T. ) ;
#293 = EDGE_CURVE ( 'NONE', #858, #207, #932, .T. ) ;
#294 = DIRECTION ( 'NONE',  ( 0.000000000000000000, 0.000000000000000000, -1.000000000000000000 ) ) ;
#295 = DIRECTION ( 'NONE',  ( 0.000000000000000000, -1.000000000000000000, 0.000000000000000000 ) ) ;
#296 = CARTESIAN_POINT ( 'NONE',  ( 0.9842519685038467747, 0.000000000000000000, -0.9842519685039713417 ) ) ;
#297 = LINE ( 'NONE', #84, #438 ) ;
#298 = VERTEX_POINT ( 'NONE', #936 ) ;
#299 = LINE ( 'NONE', #380, #276 ) ;
#300 = DIRECTION ( 'NONE',  ( 0.000000000000000000, 1.000000000000000000, 0.000000000000000000 ) ) ;
#301 = DIRECTION ( 'NONE',  ( 0.000000000000000000, 0.000000000000000000, -1.000000000000000000 ) ) ;
#302 = AXIS2_PLACEMENT_3D ( 'NONE', #8, #813, #294 ) ;
#303 = CARTESIAN_POINT ( 'NONE',  ( -0.9842519685039747834, 0.2700000000000000178, -0.9842519685038435551 ) ) ;
#304 = ORIENTED_EDGE ( 'NONE', *, *, #861, .T. ) ;
#305 = CARTESIAN_POINT ( 'NONE',  ( 0.9842519685039653465, 0.2700000000000000178, -0.9842519685039647914 ) ) ;
#306 = ORIENTED_EDGE ( 'NONE', *, *, #741, .F. ) ;
#307 = CARTESIAN_POINT ( 'NONE',  ( 0.9842519685040204136, 0.2700000000000000178, 0.9842519685039092803 ) ) ;
#308 = CARTESIAN_POINT ( 'NONE',  ( -0.9842519685038536581, 0.000000000000000000, 0.7842519685039645028 ) ) ;
#309 = DIRECTION ( 'NONE',  ( 0.000000000000000000, 0.000000000000000000, -1.000000000000000000 ) ) ;
#310 = EDGE_CURVE ( 'NONE', #251, #506, #271, .T. ) ;
#311 = ORIENTED_EDGE ( 'NONE', *, *, #142, .T. ) ;
#312 = FACE_BOUND ( 'NONE', #253, .T. ) ;
#313 = ORIENTED_EDGE ( 'NONE', *, *, #329, .T. ) ;
#314 = CARTESIAN_POINT ( 'NONE',  ( -0.9842519685038536581, 0.2700000000000000178, 0.9842519685039645694 ) ) ;
#315 = LINE ( 'NONE', #608, #896 ) ;
#316 = DIRECTION ( 'NONE',  ( 0.000000000000000000, 0.000000000000000000, -1.000000000000000000 ) ) ;
#317 = AXIS2_PLACEMENT_3D ( 'NONE', #697, #787, #334 ) ;
#318 = CIRCLE ( 'NONE', #373, 0.1314960629921259616 ) ;
#319 = EDGE_LOOP ( 'NONE', ( #912, #511, #13, #701 ) ) ;
#320 = AXIS2_PLACEMENT_3D ( 'NONE', #250, #155, #19 ) ;
#321 = DIRECTION ( 'NONE',  ( -0.7071067811865476838, -0.000000000000000000, 0.7071067811865473507 ) ) ;
#322 = DIRECTION ( 'NONE',  ( 0.4398109399860403168, -0.7830278884798342887, 0.4398109399860438695 ) ) ;
#323 = ORIENTED_EDGE ( 'NONE', *, *, #731, .T. ) ;
#324 = ORIENTED_EDGE ( 'NONE', *, *, #38, .T. ) ;
#325 = CARTESIAN_POINT ( 'NONE',  ( 0.9842519685039653465, 0.3749999999999995559, -0.9842519685039647914 ) ) ;
#326 = VERTEX_POINT ( 'NONE', #236 ) ;
#327 = EDGE_CURVE ( 'NONE', #7, #433, #499, .T. ) ;
#328 = DIRECTION ( 'NONE',  ( 0.000000000000000000, -0.000000000000000000, -1.000000000000000000 ) ) ;
#329 = EDGE_CURVE ( 'NONE', #857, #747, #805, .T. ) ;
#330 = CIRCLE ( 'NONE', #881, 0.2000000000000000389 ) ;
#331 = ORIENTED_EDGE ( 'NONE', *, *, #586, .T. ) ;
#332 = PLANE ( 'NONE',  #289 ) ;
#333 = AXIS2_PLACEMENT_3D ( 'NONE', #892, #88, #309 ) ;
#334 = DIRECTION ( 'NONE',  ( 0.7071067811865476838, 0.000000000000000000, -0.7071067811865473507 ) ) ;
#335 = CARTESIAN_POINT ( 'NONE',  ( 0.9842519685039680111, 0.2700000000000000178, 0.7842519685038501498 ) ) ;
#336 = CARTESIAN_POINT ( 'NONE',  ( 0.9842519685039680111, 0.2700000000000000178, 0.9842519685038502164 ) ) ;
#337 = DIRECTION ( 'NONE',  ( 0.000000000000000000, -0.000000000000000000, -1.000000000000000000 ) ) ;
#338 = EDGE_CURVE ( 'NONE', #738, #743, #751, .T. ) ;
#339 = ORIENTED_EDGE ( 'NONE', *, *, #33, .F. ) ;
#340 = FACE_OUTER_BOUND ( 'NONE', #352, .T. ) ;
#341 = LINE ( 'NONE', #807, #788 ) ;
#342 = CARTESIAN_POINT ( 'NONE',  ( -0.9842519685039747834, 0.2700000000000000178, -1.184251968503843733 ) ) ;
#343 = VECTOR ( 'NONE', #70, 39.37007874015748143 ) ;
#344 = ORIENTED_EDGE ( 'NONE', *, *, #190, .F. ) ;
#345 = CIRCLE ( 'NONE', #497, 0.1314960629921259616 ) ;
#346 = DIRECTION ( 'NONE',  ( -0.7071067811865476838, -0.000000000000000000, 0.7071067811865473507 ) ) ;
#347 = EDGE_CURVE ( 'NONE', #94, #455, #297, .T. ) ;
#348 = EDGE_LOOP ( 'NONE', ( #927, #52 ) ) ;
#349 = CARTESIAN_POINT ( 'NONE',  ( -0.9842519685039087252, 0.3749999999999995559, -0.9842519685039097244 ) ) ;
#350 = ADVANCED_FACE ( 'NONE', ( #662 ), #75, .F. ) ;
#351 = ORIENTED_EDGE ( 'NONE', *, *, #27, .F. ) ;
#352 = EDGE_LOOP ( 'NONE', ( #36, #504, #45, #909 ) ) ;
#353 = ORIENTED_EDGE ( 'NONE', *, *, #125, .F. ) ;
#354 = LINE ( 'NONE', #797, #924 ) ;
#355 = CARTESIAN_POINT ( 'NONE',  ( 2.366141732283464805, -7.649174382259936223E-15, -2.366141732283466137 ) ) ;
#356 = AXIS2_PLACEMENT_3D ( 'NONE', #325, #255, #192 ) ;
#357 = DIRECTION ( 'NONE',  ( 0.000000000000000000, -1.000000000000000000, 0.000000000000000000 ) ) ;
#358 = DIRECTION ( 'NONE',  ( -0.7071067811865474617, 0.000000000000000000, 0.7071067811865474617 ) ) ;
#359 = VERTEX_POINT ( 'NONE', #522 ) ;
#360 = LINE ( 'NONE', #513, #684 ) ;
#361 = DIRECTION ( 'NONE',  ( 0.000000000000000000, 0.000000000000000000, 1.000000000000000000 ) ) ;
#362 = ADVANCED_FACE ( 'NONE', ( #161 ), #450, .F. ) ;
#363 = DIRECTION ( 'NONE',  ( 0.000000000000000000, -1.000000000000000000, 0.000000000000000000 ) ) ;
#364 = LINE ( 'NONE', #224, #495 ) ;
#365 = VERTEX_POINT ( 'NONE', #847 ) ;
#366 =( NAMED_UNIT ( * ) PLANE_ANGLE_UNIT ( ) SI_UNIT ( $, .RADIAN. ) );
#367 = DIRECTION ( 'NONE',  ( 0.000000000000000000, 0.000000000000000000, -1.000000000000000000 ) ) ;
#368 = ORIENTED_EDGE ( 'NONE', *, *, #821, .F. ) ;
#369 = ORIENTED_EDGE ( 'NONE', *, *, #118, .F. ) ;
#370 = DIRECTION ( 'NONE',  ( 0.4398109399860403168, 0.7830278884798342887, -0.4398109399860438695 ) ) ;
#371 = AXIS2_PLACEMENT_3D ( 'NONE', #157, #363, #509 ) ;
#372 = EDGE_LOOP ( 'NONE', ( #218, #469, #649, #353 ) ) ;
#373 = AXIS2_PLACEMENT_3D ( 'NONE', #14, #884, #900 ) ;
#374 = VERTEX_POINT ( 'NONE', #464 ) ;
#375 = DIRECTION ( 'NONE',  ( 0.000000000000000000, -1.000000000000000000, 0.000000000000000000 ) ) ;
#376 = CIRCLE ( 'NONE', #579, 0.2000000000000001776 ) ;
#377 = DIRECTION ( 'NONE',  ( 0.000000000000000000, -1.000000000000000000, 0.000000000000000000 ) ) ;
#378 = ORIENTED_EDGE ( 'NONE', *, *, #835, .T. ) ;
#379 = EDGE_CURVE ( 'NONE', #237, #496, #895, .T. ) ;
#380 = CARTESIAN_POINT ( 'NONE',  ( -0.9842519685038536581, 0.2700000000000000178, 0.7842519685039645028 ) ) ;
#381 = DIRECTION ( 'NONE',  ( 0.000000000000000000, 0.000000000000000000, -1.000000000000000000 ) ) ;
#382 = EDGE_CURVE ( 'NONE', #685, #554, #51, .T. ) ;
#383 = DIRECTION ( 'NONE',  ( 0.7071067811865475727, 0.000000000000000000, 0.7071067811865474617 ) ) ;
#384 = ORIENTED_EDGE ( 'NONE', *, *, #821, .T. ) ;
#385 = CARTESIAN_POINT ( 'NONE',  ( 0.9842519685039680111, 0.2700000000000000178, 0.7842519685038501498 ) ) ;
#386 = VERTEX_POINT ( 'NONE', #678 ) ;
#387 = VERTEX_POINT ( 'NONE', #42 ) ;
#388 = ORIENTED_EDGE ( 'NONE', *, *, #617, .F. ) ;
#389 = DIRECTION ( 'NONE',  ( 0.7071067811865475727, 0.000000000000000000, 0.7071067811865474617 ) ) ;
#390 = AXIS2_PLACEMENT_3D ( 'NONE', #601, #105, #694 ) ;
#391 = AXIS2_PLACEMENT_3D ( 'NONE', #836, #375, #158 ) ;
#392 = AXIS2_PLACEMENT_3D ( 'NONE', #266, #413, #417 ) ;
#393 = EDGE_LOOP ( 'NONE', ( #241, #369 ) ) ;
#394 = VECTOR ( 'NONE', #520, 39.37007874015748143 ) ;
#395 = LINE ( 'NONE', #544, #458 ) ;
#396 = EDGE_CURVE ( 'NONE', #685, #251, #242, .T. ) ;
#397 = ORIENTED_EDGE ( 'NONE', *, *, #556, .T. ) ;
#398 = CARTESIAN_POINT ( 'NONE',  ( 0.9842519685039680111, 0.000000000000000000, 0.9842519685038502164 ) ) ;
#399 = DIRECTION ( 'NONE',  ( 1.000000000000000000, 0.000000000000000000, 0.000000000000000000 ) ) ;
#400 = FACE_BOUND ( 'NONE', #593, .T. ) ;
#401 = ORIENTED_EDGE ( 'NONE', *, *, #556, .F. ) ;
#402 = PLANE ( 'NONE',  #317 ) ;
#403 = ORIENTED_EDGE ( 'NONE', *, *, #120, .T. ) ;
#404 = VECTOR ( 'NONE', #31, 39.37007874015748854 ) ;
#405 = AXIS2_PLACEMENT_3D ( 'NONE', #336, #628, #412 ) ;
#406 =( NAMED_UNIT ( * ) SI_UNIT ( $, .STERADIAN. ) SOLID_ANGLE_UNIT ( ) );
#407 = CARTESIAN_POINT ( 'NONE',  ( -1.549510371686741550, 0.3749999999999995559, 0.000000000000000000 ) ) ;
#408 = CARTESIAN_POINT ( 'NONE',  ( -0.9842519685039087252, 0.3749999999999995559, -0.9842519685039097244 ) ) ;
#409 = CARTESIAN_POINT ( 'NONE',  ( 1.549510371686741328, 0.3749999999999995559, 0.000000000000000000 ) ) ;
#410 = DIRECTION ( 'NONE',  ( -0.000000000000000000, -1.000000000000000000, -0.000000000000000000 ) ) ;
#411 = ORIENTED_EDGE ( 'NONE', *, *, #757, .T. ) ;
#412 = DIRECTION ( 'NONE',  ( 0.000000000000000000, -0.000000000000000000, -1.000000000000000000 ) ) ;
#413 = DIRECTION ( 'NONE',  ( 0.000000000000000000, -1.000000000000000000, 0.000000000000000000 ) ) ;
#414 = CYLINDRICAL_SURFACE ( 'NONE', #421, 0.1314960629921259616 ) ;
#415 = FACE_BOUND ( 'NONE', #709, .T. ) ;
#416 =( CONVERSION_BASED_UNIT ( 'INCH', #80 ) LENGTH_UNIT ( ) NAMED_UNIT ( #638 ) );
#417 = DIRECTION ( 'NONE',  ( 0.000000000000000000, 0.000000000000000000, -1.000000000000000000 ) ) ;
#418 = EDGE_CURVE ( 'NONE', #67, #541, #44, .T. ) ;
#419 = LINE ( 'NONE', #482, #631 ) ;
#420 = CARTESIAN_POINT ( 'NONE',  ( -2.366141732283464805, -7.649174382259936223E-15, 2.366141732283466137 ) ) ;
#421 = AXIS2_PLACEMENT_3D ( 'NONE', #493, #198, #567 ) ;
#422 = ORIENTED_EDGE ( 'NONE', *, *, #73, .T. ) ;
#423 = CIRCLE ( 'NONE', #667, 0.1314960629921259616 ) ;
#424 = DIRECTION ( 'NONE',  ( 0.000000000000000000, 1.000000000000000000, 0.000000000000000000 ) ) ;
#425 = ADVANCED_FACE ( 'NONE', ( #166 ), #607, .F. ) ;
#426 = CARTESIAN_POINT ( 'NONE',  ( 2.155511811023622215, 0.3749999999999995559, -2.366141732283466137 ) ) ;
#427 = EDGE_CURVE ( 'NONE', #928, #685, #770, .T. ) ;
#428 = FACE_BOUND ( 'NONE', #480, .T. ) ;
#429 = ORIENTED_EDGE ( 'NONE', *, *, #293, .T. ) ;
#430 = LINE ( 'NONE', #576, #735 ) ;
#431 = CARTESIAN_POINT ( 'NONE',  ( 2.155511811023622215, 0.3749999999999995559, -2.366141732283466137 ) ) ;
#432 = EDGE_CURVE ( 'NONE', #784, #540, #395, .T. ) ;
#433 = VERTEX_POINT ( 'NONE', #472 ) ;
#434 = DIRECTION ( 'NONE',  ( 0.000000000000000000, 0.000000000000000000, -1.000000000000000000 ) ) ;
#435 = EDGE_LOOP ( 'NONE', ( #313, #57 ) ) ;
#436 = ADVANCED_FACE ( 'NONE', ( #113 ), #930, .F. ) ;
#437 = CARTESIAN_POINT ( 'NONE',  ( 6.829619984160658046E-17, 0.000000000000000000, 1.549510371686741328 ) ) ;
#438 = VECTOR ( 'NONE', #596, 39.37007874015748143 ) ;
#439 = AXIS2_PLACEMENT_3D ( 'NONE', #314, #615, #834 ) ;
#440 = ORIENTED_EDGE ( 'NONE', *, *, #107, .T. ) ;
#441 = DIRECTION ( 'NONE',  ( 0.000000000000000000, -1.000000000000000000, 0.000000000000000000 ) ) ;
#442 = EDGE_LOOP ( 'NONE', ( #169, #401 ) ) ;
#443 = EDGE_CURVE ( 'NONE', #191, #733, #127, .T. ) ;
#444 = DIRECTION ( 'NONE',  ( 0.000000000000000000, -1.000000000000000000, 0.000000000000000000 ) ) ;
#445 = CARTESIAN_POINT ( 'NONE',  ( 0.9842519685039653465, 0.3749999999999995559, -1.115748031496090809 ) ) ;
#446 = DIRECTION ( 'NONE',  ( -0.7071067811865475727, 0.000000000000000000, -0.7071067811865475727 ) ) ;
#447 = ORIENTED_EDGE ( 'NONE', *, *, #842, .T. ) ;
#448 = FACE_OUTER_BOUND ( 'NONE', #180, .T. ) ;
#449 = DIRECTION ( 'NONE',  ( 0.000000000000000000, 0.000000000000000000, -1.000000000000000000 ) ) ;
#450 = CYLINDRICAL_SURFACE ( 'NONE', #564, 0.1314960629921259616 ) ;
#451 = EDGE_CURVE ( 'NONE', #496, #108, #275, .T. ) ;
#452 = ORIENTED_EDGE ( 'NONE', *, *, #699, .T. ) ;
#453 = DIRECTION ( 'NONE',  ( -0.000000000000000000, -0.000000000000000000, -1.000000000000000000 ) ) ;
#454 = CARTESIAN_POINT ( 'NONE',  ( -0.9842519685038536581, 0.000000000000000000, 1.184251968503964525 ) ) ;
#455 = VERTEX_POINT ( 'NONE', #131 ) ;
#456 = DIRECTION ( 'NONE',  ( 0.000000000000000000, 0.000000000000000000, -1.000000000000000000 ) ) ;
#457 = ORIENTED_EDGE ( 'NONE', *, *, #568, .F. ) ;
#458 = VECTOR ( 'NONE', #185, 39.37007874015748143 ) ;
#459 = DIRECTION ( 'NONE',  ( 0.7071067811865474617, 0.000000000000000000, -0.7071067811865474617 ) ) ;
#460 =( GEOMETRIC_REPRESENTATION_CONTEXT ( 3 ) GLOBAL_UNCERTAINTY_ASSIGNED_CONTEXT ( ( #863 ) ) GLOBAL_UNIT_ASSIGNED_CONTEXT ( ( #416, #366, #82 ) ) REPRESENTATION_CONTEXT ( 'NONE', 'WORKASPACE' ) );
#461 = PRODUCT_RELATED_PRODUCT_CATEGORY ( 'part', '', ( #687 ) ) ;
#462 = ORIENTED_EDGE ( 'NONE', *, *, #338, .T. ) ;
#463 = DIRECTION ( 'NONE',  ( -0.000000000000000000, -1.000000000000000000, -0.000000000000000000 ) ) ;
#464 = CARTESIAN_POINT ( 'NONE',  ( 0.9842519685039653465, 0.3749999999999995559, -1.115748031496090809 ) ) ;
#465 = EDGE_CURVE ( 'NONE', #747, #857, #609, .T. ) ;
#466 = DIRECTION ( 'NONE',  ( 0.000000000000000000, 0.000000000000000000, -1.000000000000000000 ) ) ;
#467 = DIRECTION ( 'NONE',  ( 0.000000000000000000, -1.000000000000000000, 0.000000000000000000 ) ) ;
#468 = DIRECTION ( 'NONE',  ( 0.000000000000000000, 0.000000000000000000, 1.000000000000000000 ) ) ;
#469 = ORIENTED_EDGE ( 'NONE', *, *, #347, .T. ) ;
#470 = LENGTH_MEASURE_WITH_UNIT ( LENGTH_MEASURE( 0.02539999999999999897 ), #245 );
#471 = EDGE_CURVE ( 'NONE', #800, #114, #56, .T. ) ;
#472 = CARTESIAN_POINT ( 'NONE',  ( 2.366141732283464805, -7.649174382259936223E-15, 2.366141732283466137 ) ) ;
#473 = AXIS2_PLACEMENT_3D ( 'NONE', #729, #357, #301 ) ;
#474 = DIRECTION ( 'NONE',  ( 0.000000000000000000, 1.000000000000000000, 0.000000000000000000 ) ) ;
#475 = AXIS2_PLACEMENT_3D ( 'NONE', #408, #424, #557 ) ;
#476 = ORIENTED_EDGE ( 'NONE', *, *, #66, .F. ) ;
#477 = FACE_OUTER_BOUND ( 'NONE', #200, .T. ) ;
#478 = VERTEX_POINT ( 'NONE', #785 ) ;
#479 = CARTESIAN_POINT ( 'NONE',  ( 0.9842519685038467747, 0.000000000000000000, -0.9842519685039713417 ) ) ;
#480 = EDGE_LOOP ( 'NONE', ( #643, #79 ) ) ;
#481 = FACE_OUTER_BOUND ( 'NONE', #435, .T. ) ;
#482 = CARTESIAN_POINT ( 'NONE',  ( 0.9842519685038467747, 0.2700000000000000178, -0.7842519685039712751 ) ) ;
#483 = LINE ( 'NONE', #887, #878 ) ;
#484 = AXIS2_PLACEMENT_3D ( 'NONE', #742, #827, #503 ) ;
#485 = EDGE_CURVE ( 'NONE', #733, #478, #68, .T. ) ;
#486 = CIRCLE ( 'NONE', #78, 0.1314960629921259616 ) ;
#487 = ORIENTED_EDGE ( 'NONE', *, *, #6, .T. ) ;
#488 = DIRECTION ( 'NONE',  ( 0.8718809407172252168, -0.4897179037099281818, 0.000000000000000000 ) ) ;
#489 = DIRECTION ( 'NONE',  ( -0.000000000000000000, -0.000000000000000000, 1.000000000000000000 ) ) ;
#490 = VERTEX_POINT ( 'NONE', #707 ) ;
#491 = DIRECTION ( 'NONE',  ( -0.000000000000000000, -1.000000000000000000, -0.000000000000000000 ) ) ;
#492 = EDGE_CURVE ( 'NONE', #249, #806, #202, .T. ) ;
#493 = CARTESIAN_POINT ( 'NONE',  ( -0.9842519685038536581, 0.3749999999999995559, 0.9842519685039645694 ) ) ;
#494 = FACE_BOUND ( 'NONE', #810, .T. ) ;
#495 = VECTOR ( 'NONE', #453, 39.37007874015748143 ) ;
#496 = VERTEX_POINT ( 'NONE', #566 ) ;
#497 = AXIS2_PLACEMENT_3D ( 'NONE', #37, #90, #906 ) ;
#498 = CARTESIAN_POINT ( 'NONE',  ( -0.9842519685039087252, 0.2700000000000000178, -0.9842519685039097244 ) ) ;
#499 = LINE ( 'NONE', #9, #343 ) ;
#500 = CYLINDRICAL_SURFACE ( 'NONE', #786, 0.1314960629921259616 ) ;
#501 = ORIENTED_EDGE ( 'NONE', *, *, #263, .F. ) ;
#502 = CYLINDRICAL_SURFACE ( 'NONE', #136, 0.2000000000000000389 ) ;
#503 = DIRECTION ( 'NONE',  ( 0.000000000000000000, 0.000000000000000000, -1.000000000000000000 ) ) ;
#504 = ORIENTED_EDGE ( 'NONE', *, *, #203, .F. ) ;
#505 = ADVANCED_FACE ( 'NONE', ( #636, #481 ), #205, .T. ) ;
#506 = VERTEX_POINT ( 'NONE', #437 ) ;
#507 = CARTESIAN_POINT ( 'NONE',  ( 0.9842519685038467747, 0.000000000000000000, -1.184251968503971408 ) ) ;
#508 = CARTESIAN_POINT ( 'NONE',  ( 0.9842519685039680111, 0.2700000000000000178, 0.9842519685038502164 ) ) ;
#509 = DIRECTION ( 'NONE',  ( 0.000000000000000000, 0.000000000000000000, -1.000000000000000000 ) ) ;
#510 = DIRECTION ( 'NONE',  ( 0.000000000000000000, 0.000000000000000000, -1.000000000000000000 ) ) ;
#511 = ORIENTED_EDGE ( 'NONE', *, *, #693, .T. ) ;
#512 = AXIS2_PLACEMENT_3D ( 'NONE', #799, #132, #641 ) ;
#513 = CARTESIAN_POINT ( 'NONE',  ( -0.9842519685038536581, 0.3749999999999995559, 1.115748031496090587 ) ) ;
#514 = LINE ( 'NONE', #445, #123 ) ;
#515 = DIMENSIONAL_EXPONENTS ( 1.000000000000000000, 0.000000000000000000, 0.000000000000000000, 0.000000000000000000, 0.000000000000000000, 0.000000000000000000, 0.000000000000000000 ) ;
#516 = AXIS2_PLACEMENT_3D ( 'NONE', #767, #46, #381 ) ;
#517 = AXIS2_PLACEMENT_3D ( 'NONE', #178, #444, #825 ) ;
#518 = DIRECTION ( 'NONE',  ( 0.000000000000000000, 0.000000000000000000, -1.000000000000000000 ) ) ;
#519 = ORIENTED_EDGE ( 'NONE', *, *, #624, .T. ) ;
#520 = DIRECTION ( 'NONE',  ( -0.000000000000000000, -1.000000000000000000, -0.000000000000000000 ) ) ;
#521 = EDGE_CURVE ( 'NONE', #298, #96, #914, .T. ) ;
#522 = CARTESIAN_POINT ( 'NONE',  ( 0.9842519685038467747, 0.2700000000000000178, -1.184251968503971408 ) ) ;
#523 = VERTEX_POINT ( 'NONE', #212 ) ;
#524 = CARTESIAN_POINT ( 'NONE',  ( 1.280871803634969330, 1.932186181378893641, -1.280871803634961781 ) ) ;
#525 = ORIENTED_EDGE ( 'NONE', *, *, #177, .T. ) ;
#526 = LINE ( 'NONE', #822, #944 ) ;
#527 = CARTESIAN_POINT ( 'NONE',  ( -1.549510371686741550, 0.3749999999999995559, 0.000000000000000000 ) ) ;
#528 = CARTESIAN_POINT ( 'NONE',  ( -0.9842519685038536581, 0.000000000000000000, 0.9842519685039645694 ) ) ;
#529 = CARTESIAN_POINT ( 'NONE',  ( 0.9842519685039680111, 0.2700000000000000178, 0.9842519685038502164 ) ) ;
#530 = ADVANCED_BREP_SHAPE_REPRESENTATION ( 'Specimen mounting plate', ( #828, #189 ), #925 ) ;
#531 = ORIENTED_EDGE ( 'NONE', *, *, #931, .T. ) ;
#532 = CYLINDRICAL_SURFACE ( 'NONE', #110, 0.2000000000000000389 ) ;
#533 = AXIS2_PLACEMENT_3D ( 'NONE', #303, #905, #510 ) ;
#534 = AXIS2_PLACEMENT_3D ( 'NONE', #349, #640, #817 ) ;
#535 = PLANE ( 'NONE',  #865 ) ;
#536 = AXIS2_PLACEMENT_3D ( 'NONE', #594, #901, #34 ) ;
#537 = EDGE_LOOP ( 'NONE', ( #879, #447, #519, #403 ) ) ;
#538 = CYLINDRICAL_SURFACE ( 'NONE', #517, 0.1314960629921259616 ) ;
#539 = DIRECTION ( 'NONE',  ( 0.000000000000000000, 0.000000000000000000, -1.000000000000000000 ) ) ;
#540 = VERTEX_POINT ( 'NONE', #355 ) ;
#541 = VERTEX_POINT ( 'NONE', #826 ) ;
#542 = EDGE_LOOP ( 'NONE', ( #143, #176 ) ) ;
#543 = ADVANCED_FACE ( 'NONE', ( #221 ), #653, .F. ) ;
#544 = CARTESIAN_POINT ( 'NONE',  ( -2.366141732283464805, -7.649174382259936223E-15, -2.366141732283466137 ) ) ;
#545 = DIRECTION ( 'NONE',  ( 0.000000000000000000, 0.8718809407172234405, 0.4897179037099311794 ) ) ;
#546 = APPLICATION_PROTOCOL_DEFINITION ( 'draft international standard', 'automotive_design', 1998, #11 ) ;
#547 = LINE ( 'NONE', #164, #753 ) ;
#548 = AXIS2_PLACEMENT_3D ( 'NONE', #398, #854, #756 ) ;
#549 = ORIENTED_EDGE ( 'NONE', *, *, #708, .T. ) ;
#550 = AXIS2_PLACEMENT_3D ( 'NONE', #124, #59, #337 ) ;
#551 = CIRCLE ( 'NONE', #138, 0.1314960629921259616 ) ;
#552 = ORIENTED_EDGE ( 'NONE', *, *, #451, .T. ) ;
#553 = CARTESIAN_POINT ( 'NONE',  ( -2.366141732283464805, 0.3749999999999995004, -2.155511811023622215 ) ) ;
#554 = VERTEX_POINT ( 'NONE', #156 ) ;
#555 = DIRECTION ( 'NONE',  ( 0.000000000000000000, 0.000000000000000000, -1.000000000000000000 ) ) ;
#556 = EDGE_CURVE ( 'NONE', #94, #387, #716, .T. ) ;
#557 = DIRECTION ( 'NONE',  ( 0.000000000000000000, 0.000000000000000000, 1.000000000000000000 ) ) ;
#558 = FACE_OUTER_BOUND ( 'NONE', #611, .T. ) ;
#559 = CARTESIAN_POINT ( 'NONE',  ( -2.366141732283464805, 0.3749999999999995004, 2.155511811023622215 ) ) ;
#560 = PRODUCT_CONTEXT ( 'NONE', #734, 'mechanical' ) ;
#561 = EDGE_LOOP ( 'NONE', ( #724, #452, #671, #101 ) ) ;
#562 = EDGE_CURVE ( 'NONE', #750, #386, #257, .T. ) ;
#563 = CARTESIAN_POINT ( 'NONE',  ( 6.829619984160658046E-17, 0.3749999999999995559, 1.549510371686741328 ) ) ;
#564 = AXIS2_PLACEMENT_3D ( 'NONE', #691, #173, #776 ) ;
#565 = PLANE ( 'NONE',  #405 ) ;
#566 = CARTESIAN_POINT ( 'NONE',  ( -0.9842519685039747834, 0.2700000000000000178, -1.184251968503843733 ) ) ;
#567 = DIRECTION ( 'NONE',  ( 0.000000000000000000, 0.000000000000000000, -1.000000000000000000 ) ) ;
#568 = EDGE_CURVE ( 'NONE', #114, #800, #698, .T. ) ;
#569 = ORIENTED_EDGE ( 'NONE', *, *, #718, .F. ) ;
#570 = LINE ( 'NONE', #141, #167 ) ;
#571 = UNCERTAINTY_MEASURE_WITH_UNIT (LENGTH_MEASURE( 1.000000000000000082E-05 ), #686, 'distance_accuracy_value', 'NONE');
#572 = ORIENTED_EDGE ( 'NONE', *, *, #876, .F. ) ;
#573 = DIRECTION ( 'NONE',  ( 0.000000000000000000, 0.000000000000000000, -1.000000000000000000 ) ) ;
#574 = CIRCLE ( 'NONE', #680, 0.2000000000000000389 ) ;
#575 = ORIENTED_EDGE ( 'NONE', *, *, #731, .F. ) ;
#576 = CARTESIAN_POINT ( 'NONE',  ( -2.366141732283464805, 0.3749999999999995004, -2.155511811023622215 ) ) ;
#577 = AXIS2_PLACEMENT_3D ( 'NONE', #508, #722, #449 ) ;
#578 = FILL_AREA_STYLE_COLOUR ( '', #652 ) ;
#579 = AXIS2_PLACEMENT_3D ( 'NONE', #211, #130, #816 ) ;
#580 = EDGE_CURVE ( 'NONE', #374, #326, #423, .T. ) ;
#581 = ORIENTED_EDGE ( 'NONE', *, *, #741, .T. ) ;
#582 = DIRECTION ( 'NONE',  ( 0.7071067811865474617, 0.000000000000000000, -0.7071067811865475727 ) ) ;
#583 = CARTESIAN_POINT ( 'NONE',  ( 0.9842519685040204136, 0.3749999999999995559, 0.8527559055117832632 ) ) ;
#584 = DIRECTION ( 'NONE',  ( 0.000000000000000000, -1.000000000000000000, 0.000000000000000000 ) ) ;
#585 = ORIENTED_EDGE ( 'NONE', *, *, #485, .T. ) ;
#586 = EDGE_CURVE ( 'NONE', #87, #792, #152, .T. ) ;
#587 = VECTOR ( 'NONE', #389, 39.37007874015748143 ) ;
#588 = CARTESIAN_POINT ( 'NONE',  ( 0.9842519685038467747, 0.2700000000000000178, -1.184251968503971408 ) ) ;
#589 = VECTOR ( 'NONE', #802, 39.37007874015748143 ) ;
#590 = EDGE_LOOP ( 'NONE', ( #210, #304, #525, #48 ) ) ;
#591 = LINE ( 'NONE', #524, #230 ) ;
#592 = EDGE_CURVE ( 'NONE', #374, #646, #514, .T. ) ;
#593 = EDGE_LOOP ( 'NONE', ( #71, #761 ) ) ;
#594 = CARTESIAN_POINT ( 'NONE',  ( -0.9842519685039747834, 0.000000000000000000, -0.9842519685038435551 ) ) ;
#595 = ORIENTED_EDGE ( 'NONE', *, *, #586, .F. ) ;
#596 = DIRECTION ( 'NONE',  ( 0.000000000000000000, -1.000000000000000000, 0.000000000000000000 ) ) ;
#597 = ORIENTED_EDGE ( 'NONE', *, *, #98, .T. ) ;
#598 = DIRECTION ( 'NONE',  ( 0.000000000000000000, -1.000000000000000000, 0.000000000000000000 ) ) ;
#599 = CARTESIAN_POINT ( 'NONE',  ( -0.9842519685038536581, 0.2700000000000000178, 0.9842519685039645694 ) ) ;
#600 = CARTESIAN_POINT ( 'NONE',  ( -1.549510371686741550, 0.3749999999999995559, 0.000000000000000000 ) ) ;
#601 = CARTESIAN_POINT ( 'NONE',  ( 0.9842519685038467747, 0.2700000000000000178, -0.9842519685039713417 ) ) ;
#602 = ORIENTED_EDGE ( 'NONE', *, *, #272, .T. ) ;
#603 = DIRECTION ( 'NONE',  ( 0.000000000000000000, -1.000000000000000000, 0.000000000000000000 ) ) ;
#604 = DIRECTION ( 'NONE',  ( 0.000000000000000000, -1.000000000000000000, 0.000000000000000000 ) ) ;
#605 = CIRCLE ( 'NONE', #201, 0.1314960629921259616 ) ;
#606 = ORIENTED_EDGE ( 'NONE', *, *, #272, .F. ) ;
#607 = CYLINDRICAL_SURFACE ( 'NONE', #516, 0.2000000000000001776 ) ;
#608 = CARTESIAN_POINT ( 'NONE',  ( 1.450758807702567488, 1.629723804978164603, 1.450758807702560826 ) ) ;
#609 = CIRCLE ( 'NONE', #392, 0.2000000000000000389 ) ;
#610 = EDGE_CURVE ( 'NONE', #269, #359, #682, .T. ) ;
#611 = EDGE_LOOP ( 'NONE', ( #840, #264, #880, #897 ) ) ;
#612 = ORIENTED_EDGE ( 'NONE', *, *, #617, .T. ) ;
#613 = CARTESIAN_POINT ( 'NONE',  ( -0.9842519685039087252, 0.2700000000000000178, -0.8527559055117838183 ) ) ;
#614 = ORIENTED_EDGE ( 'NONE', *, *, #98, .F. ) ;
#615 = DIRECTION ( 'NONE',  ( 0.000000000000000000, -1.000000000000000000, 0.000000000000000000 ) ) ;
#616 = ORIENTED_EDGE ( 'NONE', *, *, #861, .F. ) ;
#617 = EDGE_CURVE ( 'NONE', #7, #733, #283, .T. ) ;
#618 = AXIS2_PLACEMENT_3D ( 'NONE', #479, #782, #121 ) ;
#619 = CARTESIAN_POINT ( 'NONE',  ( -0.9842519685039087252, 0.3749999999999995559, -0.8527559055117838183 ) ) ;
#620 = AXIS2_PLACEMENT_3D ( 'NONE', #296, #584, #893 ) ;
#621 = ORIENTED_EDGE ( 'NONE', *, *, #347, .F. ) ;
#622 = ORIENTED_EDGE ( 'NONE', *, *, #814, .T. ) ;
#623 = CYLINDRICAL_SURFACE ( 'NONE', #12, 0.2000000000000000389 ) ;
#624 = EDGE_CURVE ( 'NONE', #506, #207, #673, .T. ) ;
#625 = FACE_BOUND ( 'NONE', #442, .T. ) ;
#626 = ADVANCED_FACE ( 'NONE', ( #35 ), #532, .F. ) ;
#627 = ORIENTED_EDGE ( 'NONE', *, *, #443, .F. ) ;
#628 = DIRECTION ( 'NONE',  ( 0.000000000000000000, -1.000000000000000000, 0.000000000000000000 ) ) ;
#629 = DIRECTION ( 'NONE',  ( 0.000000000000000000, -1.000000000000000000, 0.000000000000000000 ) ) ;
#630 = DIRECTION ( 'NONE',  ( 0.000000000000000000, 0.000000000000000000, -1.000000000000000000 ) ) ;
#631 = VECTOR ( 'NONE', #877, 39.37007874015748143 ) ;
#632 = EDGE_CURVE ( 'NONE', #298, #67, #547, .T. ) ;
#633 = LINE ( 'NONE', #809, #715 ) ;
#634 = ORIENTED_EDGE ( 'NONE', *, *, #562, .T. ) ;
#635 = VECTOR ( 'NONE', #295, 39.37007874015748143 ) ;
#636 = FACE_BOUND ( 'NONE', #888, .T. ) ;
#637 = DIRECTION ( 'NONE',  ( -0.000000000000000000, -0.000000000000000000, -1.000000000000000000 ) ) ;
#638 = DIMENSIONAL_EXPONENTS ( 1.000000000000000000, 0.000000000000000000, 0.000000000000000000, 0.000000000000000000, 0.000000000000000000, 0.000000000000000000, 0.000000000000000000 ) ;
#639 = EDGE_LOOP ( 'NONE', ( #755, #585, #368, #50 ) ) ;
#640 = DIRECTION ( 'NONE',  ( 0.000000000000000000, 1.000000000000000000, 0.000000000000000000 ) ) ;
#641 = DIRECTION ( 'NONE',  ( 0.7071067811865475727, 0.000000000000000000, 0.7071067811865473507 ) ) ;
#642 = PRODUCT_DEFINITION_CONTEXT ( 'detailed design', #11, 'design' ) ;
#643 = ORIENTED_EDGE ( 'NONE', *, *, #521, .F. ) ;
#644 = EDGE_CURVE ( 'NONE', #359, #269, #330, .T. ) ;
#645 = CARTESIAN_POINT ( 'NONE',  ( -1.549510371686741550, 0.3749999999999995559, 0.000000000000000000 ) ) ;
#646 = VERTEX_POINT ( 'NONE', #780 ) ;
#647 = CARTESIAN_POINT ( 'NONE',  ( -0.9842519685038536581, 0.2700000000000000178, 0.8527559055118385523 ) ) ;
#648 = CIRCLE ( 'NONE', #548, 0.2000000000000000389 ) ;
#649 = ORIENTED_EDGE ( 'NONE', *, *, #118, .T. ) ;
#650 = ADVANCED_FACE ( 'NONE', ( #775, #258, #54, #415, #195, #937 ), #332, .T. ) ;
#651 = VECTOR ( 'NONE', #61, 39.37007874015748143 ) ;
#652 = COLOUR_RGB ( '',0.7921568627450980005, 0.8196078431372548767, 0.9333333333333333481 ) ;
#653 = CYLINDRICAL_SURFACE ( 'NONE', #302, 0.1314960629921259616 ) ;
#654 = ADVANCED_FACE ( 'NONE', ( #204 ), #623, .F. ) ;
#655 = CARTESIAN_POINT ( 'NONE',  ( -0.9842519685039087252, 0.3749999999999995559, -0.8527559055117838183 ) ) ;
#656 = EDGE_LOOP ( 'NONE', ( #622, #903 ) ) ;
#657 = DIRECTION ( 'NONE',  ( -0.7071067811865475727, -0.000000000000000000, -0.7071067811865473507 ) ) ;
#658 = DIRECTION ( 'NONE',  ( 0.000000000000000000, 1.000000000000000000, 0.000000000000000000 ) ) ;
#659 = ORIENTED_EDGE ( 'NONE', *, *, #876, .T. ) ;
#660 = CYLINDRICAL_SURFACE ( 'NONE', #533, 0.2000000000000001776 ) ;
#661 = EDGE_LOOP ( 'NONE', ( #771, #162, #43, #864 ) ) ;
#662 = FACE_OUTER_BOUND ( 'NONE', #590, .T. ) ;
#663 = FACE_OUTER_BOUND ( 'NONE', #773, .T. ) ;
#664 = ORIENTED_EDGE ( 'NONE', *, *, #432, .T. ) ;
#665 = CIRCLE ( 'NONE', #618, 0.2000000000000000389 ) ;
#666 = LINE ( 'NONE', #240, #823 ) ;
#667 = AXIS2_PLACEMENT_3D ( 'NONE', #149, #658, #287 ) ;
#668 = ORIENTED_EDGE ( 'NONE', *, *, #465, .F. ) ;
#669 = ORIENTED_EDGE ( 'NONE', *, *, #891, .T. ) ;
#670 = CARTESIAN_POINT ( 'NONE',  ( -0.9842519685039747834, 0.000000000000000000, -1.184251968503843733 ) ) ;
#671 = ORIENTED_EDGE ( 'NONE', *, *, #222, .T. ) ;
#672 = CARTESIAN_POINT ( 'NONE',  ( 0.000000000000000000, 0.3749999999999995004, -1.549510371686740440 ) ) ;
#673 = LINE ( 'NONE', #184, #214 ) ;
#674 = EDGE_LOOP ( 'NONE', ( #69, #569 ) ) ;
#675 = DIRECTION ( 'NONE',  ( -0.4398109399860403168, 0.7830278884798342887, 0.4398109399860438695 ) ) ;
#676 = ORIENTED_EDGE ( 'NONE', *, *, #327, .F. ) ;
#677 = ORIENTED_EDGE ( 'NONE', *, *, #624, .F. ) ;
#678 = CARTESIAN_POINT ( 'NONE',  ( 0.9842519685039680111, 0.2700000000000000178, 1.184251968503850394 ) ) ;
#679 = ORIENTED_EDGE ( 'NONE', *, *, #471, .T. ) ;
#680 = AXIS2_PLACEMENT_3D ( 'NONE', #528, #749, #518 ) ;
#681 = ORIENTED_EDGE ( 'NONE', *, *, #485, .F. ) ;
#682 = CIRCLE ( 'NONE', #25, 0.2000000000000000389 ) ;
#683 = CARTESIAN_POINT ( 'NONE',  ( -0.9842519685038536581, 0.2700000000000000178, 0.9842519685039645694 ) ) ;
#684 = VECTOR ( 'NONE', #234, 39.37007874015748143 ) ;
#685 = VERTEX_POINT ( 'NONE', #407 ) ;
#686 =( CONVERSION_BASED_UNIT ( 'INCH', #470 ) LENGTH_UNIT ( ) NAMED_UNIT ( #515 ) );
#687 = PRODUCT ( 'Specimen mounting plate', 'Specimen mounting plate', '', ( #560 ) ) ;
#688 = ORIENTED_EDGE ( 'NONE', *, *, #693, .F. ) ;
#689 = LINE ( 'NONE', #619, #122 ) ;
#690 = ADVANCED_FACE ( 'NONE', ( #273, #702 ), #565, .T. ) ;
#691 = CARTESIAN_POINT ( 'NONE',  ( 0.9842519685040204136, 0.3749999999999995559, 0.9842519685039092803 ) ) ;
#692 = ORIENTED_EDGE ( 'NONE', *, *, #712, .T. ) ;
#693 = EDGE_CURVE ( 'NONE', #237, #490, #270, .T. ) ;
#694 = DIRECTION ( 'NONE',  ( 0.000000000000000000, -0.000000000000000000, -1.000000000000000000 ) ) ;
#695 = ORIENTED_EDGE ( 'NONE', *, *, #814, .F. ) ;
#696 = VECTOR ( 'NONE', #790, 39.37007874015748143 ) ;
#697 = CARTESIAN_POINT ( 'NONE',  ( -1.549510371686741550, 0.3749999999999995559, 0.000000000000000000 ) ) ;
#698 = CIRCLE ( 'NONE', #534, 0.1314960629921259616 ) ;
#699 = EDGE_CURVE ( 'NONE', #386, #806, #341, .T. ) ;
#700 = MECHANICAL_DESIGN_GEOMETRIC_PRESENTATION_REPRESENTATION (  '', ( #153 ), #460 ) ;
#701 = ORIENTED_EDGE ( 'NONE', *, *, #451, .F. ) ;
#702 = FACE_OUTER_BOUND ( 'NONE', #139, .T. ) ;
#703 = CARTESIAN_POINT ( 'NONE',  ( -2.155511811023622215, 0.3749999999999995559, -2.366141732283466137 ) ) ;
#704 = LINE ( 'NONE', #335, #818 ) ;
#705 = EDGE_LOOP ( 'NONE', ( #920, #719, #324, #843 ) ) ;
#706 = CARTESIAN_POINT ( 'NONE',  ( -0.9842519685039747834, 0.2700000000000000178, -0.7842519685038433774 ) ) ;
#707 = CARTESIAN_POINT ( 'NONE',  ( -0.9842519685039747834, 0.000000000000000000, -0.7842519685038433774 ) ) ;
#708 = EDGE_CURVE ( 'NONE', #646, #32, #486, .T. ) ;
#709 = EDGE_LOOP ( 'NONE', ( #476, #106 ) ) ;
#710 = ORIENTED_EDGE ( 'NONE', *, *, #610, .T. ) ;
#711 = DIRECTION ( 'NONE',  ( 0.000000000000000000, -0.000000000000000000, -1.000000000000000000 ) ) ;
#712 = EDGE_CURVE ( 'NONE', #191, #523, #430, .T. ) ;
#713 = DIRECTION ( 'NONE',  ( -0.000000000000000000, -0.000000000000000000, 1.000000000000000000 ) ) ;
#714 = CARTESIAN_POINT ( 'NONE',  ( 0.9842519685038467747, 0.2700000000000000178, -0.7842519685039712751 ) ) ;
#715 = VECTOR ( 'NONE', #133, 39.37007874015748854 ) ;
#716 = CIRCLE ( 'NONE', #93, 0.1314960629921259616 ) ;
#717 = FACE_BOUND ( 'NONE', #907, .T. ) ;
#718 = EDGE_CURVE ( 'NONE', #326, #374, #318, .T. ) ;
#719 = ORIENTED_EDGE ( 'NONE', *, *, #562, .F. ) ;
#720 = DIRECTION ( 'NONE',  ( 1.000000000000000000, 0.000000000000000000, 0.000000000000000000 ) ) ;
#721 = DIRECTION ( 'NONE',  ( 0.000000000000000000, 0.000000000000000000, -1.000000000000000000 ) ) ;
#722 = DIRECTION ( 'NONE',  ( 0.000000000000000000, -1.000000000000000000, 0.000000000000000000 ) ) ;
#723 = ADVANCED_FACE ( 'NONE', ( #219 ), #502, .F. ) ;
#724 = ORIENTED_EDGE ( 'NONE', *, *, #73, .F. ) ;
#725 = CARTESIAN_POINT ( 'NONE',  ( -0.9842519685038536581, 0.2700000000000000178, 1.184251968503964525 ) ) ;
#726 = ADVANCED_FACE ( 'NONE', ( #292 ), #163, .F. ) ;
#727 = ORIENTED_EDGE ( 'NONE', *, *, #848, .T. ) ;
#728 = CARTESIAN_POINT ( 'NONE',  ( -0.9842519685038536581, 0.3749999999999995559, 0.9842519685039645694 ) ) ;
#729 = CARTESIAN_POINT ( 'NONE',  ( -0.9842519685038536581, 0.3749999999999995559, 0.9842519685039645694 ) ) ;
#730 = CARTESIAN_POINT ( 'NONE',  ( 6.829619984160658046E-17, 0.3749999999999995559, 1.549510371686741328 ) ) ;
#731 = EDGE_CURVE ( 'NONE', #540, #523, #591, .T. ) ;
#732 = AXIS2_PLACEMENT_3D ( 'NONE', #942, #284, #5 ) ;
#733 = VERTEX_POINT ( 'NONE', #830 ) ;
#734 = APPLICATION_CONTEXT ( 'automotive_design' ) ;
#735 = VECTOR ( 'NONE', #720, 39.37007874015748143 ) ;
#736 = ORIENTED_EDGE ( 'NONE', *, *, #427, .F. ) ;
#737 = DIRECTION ( 'NONE',  ( 0.000000000000000000, -1.000000000000000000, 0.000000000000000000 ) ) ;
#738 = VERTEX_POINT ( 'NONE', #454 ) ;
#739 = CARTESIAN_POINT ( 'NONE',  ( -0.9842519685039747834, 0.000000000000000000, -0.9842519685038435551 ) ) ;
#740 = DIRECTION ( 'NONE',  ( 0.000000000000000000, -1.000000000000000000, 0.000000000000000000 ) ) ;
#741 = EDGE_CURVE ( 'NONE', #763, #365, #345, .T. ) ;
#742 = CARTESIAN_POINT ( 'NONE',  ( -0.9842519685038536581, 0.000000000000000000, 0.9842519685039645694 ) ) ;
#743 = VERTEX_POINT ( 'NONE', #308 ) ;
#744 = LINE ( 'NONE', #77, #109 ) ;
#745 = ORIENTED_EDGE ( 'NONE', *, *, #835, .F. ) ;
#746 = DIRECTION ( 'NONE',  ( 0.000000000000000000, -1.000000000000000000, 0.000000000000000000 ) ) ;
#747 = VERTEX_POINT ( 'NONE', #244 ) ;
#748 = EDGE_LOOP ( 'NONE', ( #664, #351, #676, #440 ) ) ;
#749 = DIRECTION ( 'NONE',  ( 0.000000000000000000, -1.000000000000000000, 0.000000000000000000 ) ) ;
#750 = VERTEX_POINT ( 'NONE', #385 ) ;
#751 = CIRCLE ( 'NONE', #484, 0.2000000000000000389 ) ;
#752 = CARTESIAN_POINT ( 'NONE',  ( 0.9842519685040204136, 0.2700000000000000178, 0.8527559055117832632 ) ) ;
#753 = VECTOR ( 'NONE', #604, 39.37007874015748143 ) ;
#754 = AXIS2_PLACEMENT_3D ( 'NONE', #739, #746, #838 ) ;
#755 = ORIENTED_EDGE ( 'NONE', *, *, #443, .T. ) ;
#756 = DIRECTION ( 'NONE',  ( 0.000000000000000000, 0.000000000000000000, -1.000000000000000000 ) ) ;
#757 = EDGE_CURVE ( 'NONE', #478, #433, #315, .T. ) ;
#758 = FACE_OUTER_BOUND ( 'NONE', #853, .T. ) ;
#759 = ORIENTED_EDGE ( 'NONE', *, *, #644, .F. ) ;
#760 = CARTESIAN_POINT ( 'NONE',  ( -0.9842519685039747834, 0.2700000000000000178, -0.9842519685038435551 ) ) ;
#761 = ORIENTED_EDGE ( 'NONE', *, *, #902, .F. ) ;
#762 = DIRECTION ( 'NONE',  ( 0.000000000000000000, -1.000000000000000000, 0.000000000000000000 ) ) ;
#763 = VERTEX_POINT ( 'NONE', #613 ) ;
#764 = DIRECTION ( 'NONE',  ( 0.000000000000000000, 0.000000000000000000, -1.000000000000000000 ) ) ;
#765 = DIRECTION ( 'NONE',  ( 0.000000000000000000, -1.000000000000000000, 0.000000000000000000 ) ) ;
#766 = ORIENTED_EDGE ( 'NONE', *, *, #177, .F. ) ;
#767 = CARTESIAN_POINT ( 'NONE',  ( -0.9842519685039747834, 0.2700000000000000178, -0.9842519685038435551 ) ) ;
#768 = VECTOR ( 'NONE', #866, 39.37007874015748143 ) ;
#769 = AXIS2_PLACEMENT_3D ( 'NONE', #144, #377, #434 ) ;
#770 = LINE ( 'NONE', #600, #820 ) ;
#771 = ORIENTED_EDGE ( 'NONE', *, *, #842, .F. ) ;
#772 = DIRECTION ( 'NONE',  ( 0.000000000000000000, -1.000000000000000000, 0.000000000000000000 ) ) ;
#773 = EDGE_LOOP ( 'NONE', ( #688, #695, #552, #899 ) ) ;
#774 =( NAMED_UNIT ( * ) PLANE_ANGLE_UNIT ( ) SI_UNIT ( $, .RADIAN. ) );
#775 = FACE_BOUND ( 'NONE', #348, .T. ) ;
#776 = DIRECTION ( 'NONE',  ( 0.000000000000000000, 0.000000000000000000, -1.000000000000000000 ) ) ;
#777 = CYLINDRICAL_SURFACE ( 'NONE', #65, 0.2000000000000000389 ) ;
#778 = CARTESIAN_POINT ( 'NONE',  ( 0.9842519685040204136, 0.3749999999999995559, 0.9842519685039092803 ) ) ;
#779 = EDGE_LOOP ( 'NONE', ( #616, #531, #22, #181 ) ) ;
#780 = CARTESIAN_POINT ( 'NONE',  ( 0.9842519685039653465, 0.2700000000000000178, -1.115748031496090809 ) ) ;
#781 = ADVANCED_FACE ( 'NONE', ( #852 ), #777, .F. ) ;
#782 = DIRECTION ( 'NONE',  ( 0.000000000000000000, -1.000000000000000000, 0.000000000000000000 ) ) ;
#783 = SHAPE_DEFINITION_REPRESENTATION ( #923, #530 ) ;
#784 = VERTEX_POINT ( 'NONE', #870 ) ;
#785 = CARTESIAN_POINT ( 'NONE',  ( 2.155511811023622215, 0.3749999999999995559, 2.155511811023621771 ) ) ;
#786 = AXIS2_PLACEMENT_3D ( 'NONE', #795, #128, #630 ) ;
#787 = DIRECTION ( 'NONE',  ( 0.7071067811865473507, 0.000000000000000000, 0.7071067811865476838 ) ) ;
#788 = VECTOR ( 'NONE', #239, 39.37007874015748143 ) ;
#789 = PRESENTATION_LAYER_ASSIGNMENT (  '', '', ( #153 ) ) ;
#790 = DIRECTION ( 'NONE',  ( -0.000000000000000000, -1.000000000000000000, -0.000000000000000000 ) ) ;
#791 = ADVANCED_FACE ( 'NONE', ( #801 ), #282, .T. ) ;
#792 = VERTEX_POINT ( 'NONE', #507 ) ;
#793 = DIRECTION ( 'NONE',  ( 0.4897179037099281262, 0.8718809407172251058, 0.000000000000000000 ) ) ;
#794 = PLANE ( 'NONE',  #229 ) ;
#795 = CARTESIAN_POINT ( 'NONE',  ( 0.9842519685039653465, 0.3749999999999995559, -0.9842519685039647914 ) ) ;
#796 = DIRECTION ( 'NONE',  ( 0.000000000000000000, -1.000000000000000000, 0.000000000000000000 ) ) ;
#797 = CARTESIAN_POINT ( 'NONE',  ( -1.549510371686741550, 0.000000000000000000, 0.000000000000000000 ) ) ;
#798 = DIRECTION ( 'NONE',  ( -0.000000000000000000, -1.000000000000000000, -0.000000000000000000 ) ) ;
#799 = CARTESIAN_POINT ( 'NONE',  ( -6.829619984160658046E-17, 0.3749999999999995559, -1.549510371686741106 ) ) ;
#800 = VERTEX_POINT ( 'NONE', #875 ) ;
#801 = FACE_OUTER_BOUND ( 'NONE', #661, .T. ) ;
#802 = DIRECTION ( 'NONE',  ( 1.000000000000000000, 0.000000000000000000, 0.000000000000000000 ) ) ;
#803 = EDGE_CURVE ( 'NONE', #247, #554, #354, .T. ) ;
#804 = CARTESIAN_POINT ( 'NONE',  ( -0.9842519685039747834, 0.2700000000000000178, -0.7842519685038433774 ) ) ;
#805 = CIRCLE ( 'NONE', #371, 0.2000000000000000389 ) ;
#806 = VERTEX_POINT ( 'NONE', #812 ) ;
#807 = CARTESIAN_POINT ( 'NONE',  ( 0.9842519685039680111, 0.2700000000000000178, 1.184251968503850172 ) ) ;
#808 = PRODUCT_DEFINITION ( 'General', '', #231, #642 ) ;
#809 = CARTESIAN_POINT ( 'NONE',  ( -2.196254728215866869, 0.3024623764007214333, -2.196254728215867313 ) ) ;
#810 = EDGE_LOOP ( 'NONE', ( #614, #174, #736, #831 ) ) ;
#811 = DIRECTION ( 'NONE',  ( 0.000000000000000000, 0.000000000000000000, -1.000000000000000000 ) ) ;
#812 = CARTESIAN_POINT ( 'NONE',  ( 0.9842519685039680111, 0.000000000000000000, 1.184251968503850394 ) ) ;
#813 = DIRECTION ( 'NONE',  ( 0.000000000000000000, -1.000000000000000000, 0.000000000000000000 ) ) ;
#814 = EDGE_CURVE ( 'NONE', #496, #237, #376, .T. ) ;
#815 = ORIENTED_EDGE ( 'NONE', *, *, #580, .T. ) ;
#816 = DIRECTION ( 'NONE',  ( 0.000000000000000000, 0.000000000000000000, -1.000000000000000000 ) ) ;
#817 = DIRECTION ( 'NONE',  ( 0.000000000000000000, 0.000000000000000000, 1.000000000000000000 ) ) ;
#818 = VECTOR ( 'NONE', #410, 39.37007874015748143 ) ;
#819 = ORIENTED_EDGE ( 'NONE', *, *, #6, .F. ) ;
#820 = VECTOR ( 'NONE', #321, 39.37007874015748143 ) ;
#821 = EDGE_CURVE ( 'NONE', #523, #478, #74, .T. ) ;
#822 = CARTESIAN_POINT ( 'NONE',  ( -6.829619984160658046E-17, 0.3749999999999995559, -1.549510371686741106 ) ) ;
#823 = VECTOR ( 'NONE', #383, 39.37007874015748143 ) ;
#824 = ORIENTED_EDGE ( 'NONE', *, *, #107, .F. ) ;
#825 = DIRECTION ( 'NONE',  ( 0.000000000000000000, 0.000000000000000000, -1.000000000000000000 ) ) ;
#826 = CARTESIAN_POINT ( 'NONE',  ( -0.9842519685038536581, 0.2700000000000000178, 1.115748031496090587 ) ) ;
#827 = DIRECTION ( 'NONE',  ( 0.000000000000000000, -1.000000000000000000, 0.000000000000000000 ) ) ;
#828 = MANIFOLD_SOLID_BREP ( 'Cut-Extrude6', #187 ) ;
#829 = ORIENTED_EDGE ( 'NONE', *, *, #33, .T. ) ;
#830 = CARTESIAN_POINT ( 'NONE',  ( -2.155511811023622215, 0.3749999999999995559, 2.155511811023621771 ) ) ;
#831 = ORIENTED_EDGE ( 'NONE', *, *, #922, .F. ) ;
#832 = CARTESIAN_POINT ( 'NONE',  ( 0.9842519685039653465, 0.3749999999999995559, -0.8527559055118388853 ) ) ;
#833 = ORIENTED_EDGE ( 'NONE', *, *, #592, .T. ) ;
#834 = DIRECTION ( 'NONE',  ( 0.000000000000000000, 0.000000000000000000, -1.000000000000000000 ) ) ;
#835 = EDGE_CURVE ( 'NONE', #365, #763, #882, .T. ) ;
#836 = CARTESIAN_POINT ( 'NONE',  ( 0.9842519685039680111, 0.2700000000000000178, 0.9842519685038502164 ) ) ;
#837 = AXIS2_PLACEMENT_3D ( 'NONE', #730, #446, #358 ) ;
#838 = DIRECTION ( 'NONE',  ( 0.000000000000000000, 0.000000000000000000, -1.000000000000000000 ) ) ;
#839 = CIRCLE ( 'NONE', #754, 0.2000000000000001776 ) ;
#840 = ORIENTED_EDGE ( 'NONE', *, *, #120, .F. ) ;
#841 = FACE_OUTER_BOUND ( 'NONE', #126, .T. ) ;
#842 = EDGE_CURVE ( 'NONE', #554, #506, #666, .T. ) ;
#843 = ORIENTED_EDGE ( 'NONE', *, *, #492, .T. ) ;
#844 = CYLINDRICAL_SURFACE ( 'NONE', #290, 0.2000000000000000389 ) ;
#845 = CARTESIAN_POINT ( 'NONE',  ( 0.9842519685038467747, 0.2700000000000000178, -0.9842519685039713417 ) ) ;
#846 = ORIENTED_EDGE ( 'NONE', *, *, #610, .F. ) ;
#847 = CARTESIAN_POINT ( 'NONE',  ( -0.9842519685039087252, 0.2700000000000000178, -1.115748031496035741 ) ) ;
#848 = EDGE_CURVE ( 'NONE', #359, #792, #227, .T. ) ;
#849 = ORIENTED_EDGE ( 'NONE', *, *, #592, .F. ) ;
#850 = DIRECTION ( 'NONE',  ( 0.000000000000000000, -1.000000000000000000, 0.000000000000000000 ) ) ;
#851 = CARTESIAN_POINT ( 'NONE',  ( -1.549510371686741550, 0.3749999999999995559, 0.000000000000000000 ) ) ;
#852 = FACE_OUTER_BOUND ( 'NONE', #216, .T. ) ;
#853 = EDGE_LOOP ( 'NONE', ( #846, #859, #331, #134 ) ) ;
#854 = DIRECTION ( 'NONE',  ( 0.000000000000000000, -1.000000000000000000, 0.000000000000000000 ) ) ;
#855 = AXIS2_PLACEMENT_3D ( 'NONE', #760, #467, #97 ) ;
#856 = ADVANCED_FACE ( 'NONE', ( #29 ), #844, .F. ) ;
#857 = VERTEX_POINT ( 'NONE', #160 ) ;
#858 = VERTEX_POINT ( 'NONE', #95 ) ;
#859 = ORIENTED_EDGE ( 'NONE', *, *, #263, .T. ) ;
#860 = CARTESIAN_POINT ( 'NONE',  ( -2.366141732283464805, 0.3749999999999995004, 2.155511811023622215 ) ) ;
#861 = EDGE_CURVE ( 'NONE', #96, #541, #360, .T. ) ;
#862 = DIRECTION ( 'NONE',  ( -0.000000000000000000, 1.000000000000000000, 0.000000000000000000 ) ) ;
#863 = UNCERTAINTY_MEASURE_WITH_UNIT (LENGTH_MEASURE( 1.000000000000000082E-05 ), #416, 'distance_accuracy_value', 'NONE');
#864 = ORIENTED_EDGE ( 'NONE', *, *, #310, .T. ) ;
#865 = AXIS2_PLACEMENT_3D ( 'NONE', #117, #762, #328 ) ;
#866 = DIRECTION ( 'NONE',  ( 0.000000000000000000, -1.000000000000000000, 0.000000000000000000 ) ) ;
#867 = VECTOR ( 'NONE', #713, 39.37007874015748143 ) ;
#868 = DIRECTION ( 'NONE',  ( 0.4897179037099281262, -0.8718809407172251058, 0.000000000000000000 ) ) ;
#869 = ORIENTED_EDGE ( 'NONE', *, *, #66, .T. ) ;
#870 = CARTESIAN_POINT ( 'NONE',  ( -2.366141732283464805, -7.649174382259936223E-15, -2.366141732283466137 ) ) ;
#871 = FACE_OUTER_BOUND ( 'NONE', #779, .T. ) ;
#872 = FACE_BOUND ( 'NONE', #674, .T. ) ;
#873 = ORIENTED_EDGE ( 'NONE', *, *, #190, .T. ) ;
#874 = ADVANCED_FACE ( 'NONE', ( #448 ), #538, .F. ) ;
#875 = CARTESIAN_POINT ( 'NONE',  ( -0.9842519685039087252, 0.3749999999999995559, -1.115748031496035741 ) ) ;
#876 = EDGE_CURVE ( 'NONE', #857, #743, #299, .T. ) ;
#877 = DIRECTION ( 'NONE',  ( -0.000000000000000000, -1.000000000000000000, -0.000000000000000000 ) ) ;
#878 = VECTOR ( 'NONE', #598, 39.37007874015748143 ) ;
#879 = ORIENTED_EDGE ( 'NONE', *, *, #803, .T. ) ;
#880 = ORIENTED_EDGE ( 'NONE', *, *, #922, .T. ) ;
#881 = AXIS2_PLACEMENT_3D ( 'NONE', #845, #765, #208 ) ;
#882 = CIRCLE ( 'NONE', #170, 0.1314960629921259616 ) ;
#883 = ORIENTED_EDGE ( 'NONE', *, *, #757, .F. ) ;
#884 = DIRECTION ( 'NONE',  ( 0.000000000000000000, 1.000000000000000000, 0.000000000000000000 ) ) ;
#885 = ADVANCED_FACE ( 'NONE', ( #758 ), #898, .F. ) ;
#886 = SURFACE_SIDE_STYLE ('',( #286 ) ) ;
#887 = CARTESIAN_POINT ( 'NONE',  ( -0.9842519685039087252, 0.3749999999999995559, -1.115748031496035741 ) ) ;
#888 = EDGE_LOOP ( 'NONE', ( #935, #766 ) ) ;
#889 = CARTESIAN_POINT ( 'NONE',  ( 0.9842519685040204136, 0.3749999999999995559, 0.9842519685039092803 ) ) ;
#890 = DIRECTION ( 'NONE',  ( 0.000000000000000000, -1.000000000000000000, 0.000000000000000000 ) ) ;
#891 = EDGE_CURVE ( 'NONE', #326, #32, #102, .T. ) ;
#892 = CARTESIAN_POINT ( 'NONE',  ( 0.9842519685038467747, 0.2700000000000000178, -0.9842519685039713417 ) ) ;
#893 = DIRECTION ( 'NONE',  ( 0.000000000000000000, 0.000000000000000000, -1.000000000000000000 ) ) ;
#894 = PLANE ( 'NONE',  #837 ) ;
#895 = CIRCLE ( 'NONE', #855, 0.2000000000000001776 ) ;
#896 = VECTOR ( 'NONE', #322, 39.37007874015748854 ) ;
#897 = ORIENTED_EDGE ( 'NONE', *, *, #203, .T. ) ;
#898 = CYLINDRICAL_SURFACE ( 'NONE', #333, 0.2000000000000000389 ) ;
#899 = ORIENTED_EDGE ( 'NONE', *, *, #915, .T. ) ;
#900 = DIRECTION ( 'NONE',  ( 0.000000000000000000, 0.000000000000000000, 1.000000000000000000 ) ) ;
#901 = DIRECTION ( 'NONE',  ( 0.000000000000000000, -1.000000000000000000, 0.000000000000000000 ) ) ;
#902 = EDGE_CURVE ( 'NONE', #32, #646, #551, .T. ) ;
#903 = ORIENTED_EDGE ( 'NONE', *, *, #379, .T. ) ;
#904 = EDGE_LOOP ( 'NONE', ( #41, #194, #833, #549 ) ) ;
#905 = DIRECTION ( 'NONE',  ( -0.000000000000000000, -1.000000000000000000, -0.000000000000000000 ) ) ;
#906 = DIRECTION ( 'NONE',  ( 0.000000000000000000, 0.000000000000000000, -1.000000000000000000 ) ) ;
#907 = EDGE_LOOP ( 'NONE', ( #89, #457 ) ) ;
#908 = CARTESIAN_POINT ( 'NONE',  ( 0.000000000000000000, 0.000000000000000000, 0.000000000000000000 ) ) ;
#909 = ORIENTED_EDGE ( 'NONE', *, *, #382, .T. ) ;
#910 = EDGE_CURVE ( 'NONE', #490, #108, #839, .T. ) ;
#911 = EDGE_LOOP ( 'NONE', ( #411, #217, #323, #384 ) ) ;
#912 = ORIENTED_EDGE ( 'NONE', *, *, #379, .F. ) ;
#913 = DIRECTION ( 'NONE',  ( 0.000000000000000000, -1.000000000000000000, 0.000000000000000000 ) ) ;
#914 = CIRCLE ( 'NONE', #168, 0.1314960629921259616 ) ;
#915 = EDGE_CURVE ( 'NONE', #108, #490, #259, .T. ) ;
#916 = ORIENTED_EDGE ( 'NONE', *, *, #327, .T. ) ;
#917 = CARTESIAN_POINT ( 'NONE',  ( -2.155511811023622215, 0.3749999999999995559, -2.155511811023622215 ) ) ;
#918 = VERTEX_POINT ( 'NONE', #752 ) ;
#919 = FACE_OUTER_BOUND ( 'NONE', #63, .T. ) ;
#920 = ORIENTED_EDGE ( 'NONE', *, *, #699, .F. ) ;
#921 = DIRECTION ( 'NONE',  ( 0.000000000000000000, -1.000000000000000000, 0.000000000000000000 ) ) ;
#922 = EDGE_CURVE ( 'NONE', #858, #928, #526, .T. ) ;
#923 = PRODUCT_DEFINITION_SHAPE ( 'NONE', 'NONE',  #808 ) ;
#924 = VECTOR ( 'NONE', #346, 39.37007874015748143 ) ;
#925 =( GEOMETRIC_REPRESENTATION_CONTEXT ( 3 ) GLOBAL_UNCERTAINTY_ASSIGNED_CONTEXT ( ( #571 ) ) GLOBAL_UNIT_ASSIGNED_CONTEXT ( ( #686, #774, #406 ) ) REPRESENTATION_CONTEXT ( 'NONE', 'WORKASPACE' ) );
#926 = PLANE ( 'NONE',  #940 ) ;
#927 = ORIENTED_EDGE ( 'NONE', *, *, #915, .F. ) ;
#928 = VERTEX_POINT ( 'NONE', #672 ) ;
#929 = CARTESIAN_POINT ( 'NONE',  ( 0.9842519685039680111, 0.2700000000000000178, 0.9842519685038502164 ) ) ;
#930 = PLANE ( 'NONE',  #111 ) ;
#931 = EDGE_CURVE ( 'NONE', #96, #298, #28, .T. ) ;
#932 = LINE ( 'NONE', #409, #150 ) ;
#933 = PLANE ( 'NONE',  #55 ) ;
#934 = DIRECTION ( 'NONE',  ( 0.000000000000000000, 0.000000000000000000, 1.000000000000000000 ) ) ;
#935 = ORIENTED_EDGE ( 'NONE', *, *, #418, .F. ) ;
#936 = CARTESIAN_POINT ( 'NONE',  ( -0.9842519685038536581, 0.3749999999999995559, 0.8527559055118385523 ) ) ;
#937 = FACE_OUTER_BOUND ( 'NONE', #748, .T. ) ;
#938 = DIRECTION ( 'NONE',  ( -0.7071067811865475727, 0.000000000000000000, -0.7071067811865474617 ) ) ;
#939 = CARTESIAN_POINT ( 'NONE',  ( -2.155511811023622215, 0.3749999999999995559, -2.366141732283466137 ) ) ;
#940 = AXIS2_PLACEMENT_3D ( 'NONE', #553, #182, #545 ) ;
#941 = CIRCLE ( 'NONE', #76, 0.1314960629921259616 ) ;
#942 = CARTESIAN_POINT ( 'NONE',  ( -2.366141732283464805, -7.649174382259936223E-15, 2.366141732283466137 ) ) ;
#943 = VECTOR ( 'NONE', #370, 39.37007874015748854 ) ;
#944 = VECTOR ( 'NONE', #657, 39.37007874015748854 ) ;
#945 = ORIENTED_EDGE ( 'NONE', *, *, #432, .F. ) ;
ENDSEC;
END-ISO-10303-21;
