ISO-10303-21;
HEADER;
FILE_DESCRIPTION (( 'STEP AP214' ),
    '1' );
FILE_NAME ('Upper retainer.STEP',
    '2026-02-20T19:34:29',
    ( '' ),
    ( '' ),
    'SwSTEP 2.0',
    'SolidWorks 2025',
    '' );
FILE_SCHEMA (( 'AUTOMOTIVE_DESIGN' ));
ENDSEC;

DATA;
#1 = VERTEX_POINT ( 'NONE', #666 ) ;
#2 = CARTESIAN_POINT ( 'NONE',  ( -1.000000000000000000, 4.719999999999999751, -0.4299999999999998268 ) ) ;
#3 = LINE ( 'NONE', #333, #520 ) ;
#4 = EDGE_CURVE ( 'NONE', #365, #1041, #243, .T. ) ;
#5 = DIRECTION ( 'NONE',  ( -1.000000000000000000, 0.000000000000000000, 0.000000000000000000 ) ) ;
#6 = DIRECTION ( 'NONE',  ( 0.4897172662270168342, 0.000000000000000000, 0.8718812987781863200 ) ) ;
#7 = ORIENTED_EDGE ( 'NONE', *, *, #104, .T. ) ;
#8 = CARTESIAN_POINT ( 'NONE',  ( -0.4742655126626045825, 1.187000000000000277, 0.000000000000000000 ) ) ;
#9 = LINE ( 'NONE', #692, #1075 ) ;
#10 = CARTESIAN_POINT ( 'NONE',  ( 0.000000000000000000, 0.000000000000000000, 0.000000000000000000 ) ) ;
#11 = PLANE ( 'NONE',  #754 ) ;
#12 = AXIS2_PLACEMENT_3D ( 'NONE', #878, #107, #1057 ) ;
#13 = AXIS2_PLACEMENT_3D ( 'NONE', #36, #213, #627 ) ;
#14 = ORIENTED_EDGE ( 'NONE', *, *, #342, .T. ) ;
#15 = EDGE_CURVE ( 'NONE', #967, #63, #223, .T. ) ;
#16 = DIRECTION ( 'NONE',  ( -0.000000000000000000, -1.000000000000000000, -0.000000000000000000 ) ) ;
#17 =( LENGTH_UNIT ( ) NAMED_UNIT ( * ) SI_UNIT ( $, .METRE. ) );
#18 = EDGE_LOOP ( 'NONE', ( #715, #624, #212, #286, #729 ) ) ;
#19 = EDGE_CURVE ( 'NONE', #633, #158, #733, .T. ) ;
#20 = PLANE ( 'NONE',  #290 ) ;
#21 = ORIENTED_EDGE ( 'NONE', *, *, #1026, .F. ) ;
#22 = LINE ( 'NONE', #368, #1012 ) ;
#23 = ORIENTED_EDGE ( 'NONE', *, *, #767, .F. ) ;
#24 = SURFACE_STYLE_USAGE ( .BOTH. , #174 ) ;
#25 = CIRCLE ( 'NONE', #287, 0.2249999999999999778 ) ;
#26 = ORIENTED_EDGE ( 'NONE', *, *, #334, .T. ) ;
#27 = VECTOR ( 'NONE', #892, 39.37007874015748143 ) ;
#28 = DIRECTION ( 'NONE',  ( -0.000000000000000000, -1.000000000000000000, -0.000000000000000000 ) ) ;
#29 = EDGE_CURVE ( 'NONE', #294, #51, #847, .T. ) ;
#30 = AXIS2_PLACEMENT_3D ( 'NONE', #486, #398, #930 ) ;
#31 = ORIENTED_EDGE ( 'NONE', *, *, #977, .T. ) ;
#32 = CARTESIAN_POINT ( 'NONE',  ( 0.000000000000000000, 0.000000000000000000, 0.000000000000000000 ) ) ;
#33 = ORIENTED_EDGE ( 'NONE', *, *, #236, .F. ) ;
#34 = LINE ( 'NONE', #200, #60 ) ;
#35 = ADVANCED_FACE ( 'NONE', ( #496 ), #730, .T. ) ;
#36 = CARTESIAN_POINT ( 'NONE',  ( -0.5000000000000001110, 4.321749999999999758, -0.4299999999999999378 ) ) ;
#37 = ORIENTED_EDGE ( 'NONE', *, *, #220, .T. ) ;
#38 = CARTESIAN_POINT ( 'NONE',  ( 0.000000000000000000, 4.719999999999999751, -0.1000000000000000056 ) ) ;
#39 = ORIENTED_EDGE ( 'NONE', *, *, #797, .T. ) ;
#40 = CARTESIAN_POINT ( 'NONE',  ( 0.000000000000000000, 4.719999999999999751, 0.000000000000000000 ) ) ;
#41 = CARTESIAN_POINT ( 'NONE',  ( -0.8329005486105710565, 3.333000000000000185, 0.000000000000000000 ) ) ;
#42 = VERTEX_POINT ( 'NONE', #830 ) ;
#43 = ORIENTED_EDGE ( 'NONE', *, *, #144, .T. ) ;
#44 = LINE ( 'NONE', #913, #541 ) ;
#45 = EDGE_CURVE ( 'NONE', #455, #550, #218, .T. ) ;
#46 = VECTOR ( 'NONE', #300, 39.37007874015748854 ) ;
#47 = VECTOR ( 'NONE', #362, 39.37007874015748143 ) ;
#48 = CARTESIAN_POINT ( 'NONE',  ( -0.5000000000000001110, 4.321749999999999758, -0.4299999999999999378 ) ) ;
#49 = EDGE_CURVE ( 'NONE', #614, #822, #1092, .T. ) ;
#50 = VERTEX_POINT ( 'NONE', #675 ) ;
#51 = VERTEX_POINT ( 'NONE', #1074 ) ;
#52 = DIRECTION ( 'NONE',  ( -0.000000000000000000, -0.000000000000000000, -1.000000000000000000 ) ) ;
#53 = CYLINDRICAL_SURFACE ( 'NONE', #146, 0.1329999999999999793 ) ;
#54 = VERTEX_POINT ( 'NONE', #1010 ) ;
#55 = EDGE_LOOP ( 'NONE', ( #134, #979, #196, #149, #283, #673, #682, #217, #164, #454, #39, #378, #1013, #85, #336, #272 ) ) ;
#56 = ORIENTED_EDGE ( 'NONE', *, *, #1073, .F. ) ;
#57 = LINE ( 'NONE', #1069, #883 ) ;
#58 = DIRECTION ( 'NONE',  ( -0.000000000000000000, -0.000000000000000000, -1.000000000000000000 ) ) ;
#59 = CARTESIAN_POINT ( 'NONE',  ( -0.3670000000000000484, 4.321749999999999758, -0.1799999999999999378 ) ) ;
#60 = VECTOR ( 'NONE', #787, 39.37007874015748143 ) ;
#61 = VECTOR ( 'NONE', #507, 39.37007874015748143 ) ;
#62 = VECTOR ( 'NONE', #118, 39.37007874015748854 ) ;
#63 = VERTEX_POINT ( 'NONE', #64 ) ;
#64 = CARTESIAN_POINT ( 'NONE',  ( 0.000000000000000000, 4.719999999999999751, -0.4299999999999999933 ) ) ;
#65 = CARTESIAN_POINT ( 'NONE',  ( 0.000000000000000000, 4.719999999999999751, 0.000000000000000000 ) ) ;
#66 = EDGE_CURVE ( 'NONE', #638, #1041, #233, .T. ) ;
#67 = DIRECTION ( 'NONE',  ( -1.000000000000000000, 0.000000000000000000, 0.000000000000000000 ) ) ;
#68 = ORIENTED_EDGE ( 'NONE', *, *, #1080, .F. ) ;
#69 = CARTESIAN_POINT ( 'NONE',  ( -5.873473186378166413E-17, 2.359999999999999876, -0.4299999999999999933 ) ) ;
#70 = LINE ( 'NONE', #1022, #563 ) ;
#71 = EDGE_CURVE ( 'NONE', #693, #898, #301, .T. ) ;
#72 = DIRECTION ( 'NONE',  ( -1.000000000000000000, 0.000000000000000000, 0.000000000000000000 ) ) ;
#73 = PLANE ( 'NONE',  #565 ) ;
#74 = ORIENTED_EDGE ( 'NONE', *, *, #767, .T. ) ;
#75 = CARTESIAN_POINT ( 'NONE',  ( -0.5000000000000001110, 0.3982499999999997708, -0.4299999999999999378 ) ) ;
#76 = DIRECTION ( 'NONE',  ( -0.000000000000000000, -1.000000000000000000, -0.000000000000000000 ) ) ;
#77 = CIRCLE ( 'NONE', #699, 0.1329999999999998406 ) ;
#78 = VECTOR ( 'NONE', #155, 39.37007874015748143 ) ;
#79 = ORIENTED_EDGE ( 'NONE', *, *, #640, .F. ) ;
#80 = AXIS2_PLACEMENT_3D ( 'NONE', #228, #844, #758 ) ;
#81 = EDGE_CURVE ( 'NONE', #1, #128, #964, .T. ) ;
#82 = DIRECTION ( 'NONE',  ( -1.000000000000000000, 0.000000000000000000, 0.000000000000000000 ) ) ;
#83 = CARTESIAN_POINT ( 'NONE',  ( -0.8329005486105710565, 3.533000000000000362, 0.000000000000000000 ) ) ;
#84 = PLANE ( 'NONE',  #30 ) ;
#85 = ORIENTED_EDGE ( 'NONE', *, *, #751, .F. ) ;
#86 = CARTESIAN_POINT ( 'NONE',  ( -1.365923996832131609E-17, 2.134999999999999787, -0.1000000000000000056 ) ) ;
#87 = DIRECTION ( 'NONE',  ( 1.000000000000000000, 0.000000000000000000, 0.000000000000000000 ) ) ;
#88 = ADVANCED_FACE ( 'NONE', ( #940 ), #912, .T. ) ;
#89 =( NAMED_UNIT ( * ) PLANE_ANGLE_UNIT ( ) SI_UNIT ( $, .RADIAN. ) );
#90 = ADVANCED_FACE ( 'NONE', ( #924 ), #402, .F. ) ;
#91 = ORIENTED_EDGE ( 'NONE', *, *, #820, .F. ) ;
#92 = CARTESIAN_POINT ( 'NONE',  ( 0.000000000000000000, 4.719999999999999751, 0.000000000000000000 ) ) ;
#93 = LENGTH_MEASURE_WITH_UNIT ( LENGTH_MEASURE( 0.02539999999999999897 ), #880 );
#94 = VECTOR ( 'NONE', #674, 39.37007874015748143 ) ;
#95 = CIRCLE ( 'NONE', #344, 0.3749999999999999445 ) ;
#96 = ORIENTED_EDGE ( 'NONE', *, *, #945, .F. ) ;
#97 = CARTESIAN_POINT ( 'NONE',  ( -0.5000000000000001110, 0.3982499999999997708, -0.4299999999999999378 ) ) ;
#98 = ORIENTED_EDGE ( 'NONE', *, *, #427, .T. ) ;
#99 = VERTEX_POINT ( 'NONE', #489 ) ;
#100 = CARTESIAN_POINT ( 'NONE',  ( -0.4742655126626045825, 3.333000000000000185, 0.000000000000000000 ) ) ;
#101 = DIRECTION ( 'NONE',  ( 0.4897172662270168342, -0.000000000000000000, -0.8718812987781863200 ) ) ;
#102 = ORIENTED_EDGE ( 'NONE', *, *, #690, .T. ) ;
#103 = FACE_OUTER_BOUND ( 'NONE', #710, .T. ) ;
#104 = EDGE_CURVE ( 'NONE', #968, #42, #756, .T. ) ;
#105 = ORIENTED_EDGE ( 'NONE', *, *, #399, .T. ) ;
#106 = FILL_AREA_STYLE_COLOUR ( '', #700 ) ;
#107 = DIRECTION ( 'NONE',  ( 0.8718812987781859869, 0.000000000000000000, -0.4897172662270175558 ) ) ;
#108 = VERTEX_POINT ( 'NONE', #86 ) ;
#109 = VECTOR ( 'NONE', #825, 39.37007874015748143 ) ;
#110 = EDGE_CURVE ( 'NONE', #648, #768, #591, .T. ) ;
#111 = EDGE_LOOP ( 'NONE', ( #98, #974, #802, #504 ) ) ;
#112 = VECTOR ( 'NONE', #1021, 39.37007874015748143 ) ;
#113 = FACE_OUTER_BOUND ( 'NONE', #807, .T. ) ;
#114 = CIRCLE ( 'NONE', #757, 0.2187500000000000278 ) ;
#115 = DIRECTION ( 'NONE',  ( -0.000000000000000000, -1.000000000000000000, -0.000000000000000000 ) ) ;
#116 = ORIENTED_EDGE ( 'NONE', *, *, #1009, .F. ) ;
#117 = CARTESIAN_POINT ( 'NONE',  ( 0.000000000000000000, 1.984999999999999654, 0.000000000000000000 ) ) ;
#118 = DIRECTION ( 'NONE',  ( 0.4897172662270168342, -0.000000000000000000, -0.8718812987781863200 ) ) ;
#119 = ORIENTED_EDGE ( 'NONE', *, *, #999, .T. ) ;
#120 = DIRECTION ( 'NONE',  ( 0.000000000000000000, 0.000000000000000000, -1.000000000000000000 ) ) ;
#121 = LINE ( 'NONE', #553, #476 ) ;
#122 = EDGE_LOOP ( 'NONE', ( #575, #978, #927, #959 ) ) ;
#123 = DIRECTION ( 'NONE',  ( 1.000000000000000000, 0.000000000000000000, 0.000000000000000000 ) ) ;
#124 = EDGE_CURVE ( 'NONE', #522, #693, #1019, .T. ) ;
#125 = ORIENTED_EDGE ( 'NONE', *, *, #142, .F. ) ;
#126 = DIRECTION ( 'NONE',  ( -1.000000000000000000, 0.000000000000000000, 0.000000000000000000 ) ) ;
#127 = EDGE_CURVE ( 'NONE', #1004, #614, #484, .T. ) ;
#128 = VERTEX_POINT ( 'NONE', #330 ) ;
#129 = ORIENTED_EDGE ( 'NONE', *, *, #515, .F. ) ;
#130 = VECTOR ( 'NONE', #547, 39.37007874015748143 ) ;
#131 = AXIS2_PLACEMENT_3D ( 'NONE', #1005, #161, #497 ) ;
#132 = CIRCLE ( 'NONE', #1049, 0.2187500000000000278 ) ;
#133 = LINE ( 'NONE', #462, #629 ) ;
#134 = ORIENTED_EDGE ( 'NONE', *, *, #71, .T. ) ;
#135 = LINE ( 'NONE', #465, #326 ) ;
#136 = ORIENTED_EDGE ( 'NONE', *, *, #1085, .F. ) ;
#137 = ORIENTED_EDGE ( 'NONE', *, *, #427, .F. ) ;
#138 = ADVANCED_FACE ( 'NONE', ( #413 ), #1101, .F. ) ;
#139 = CARTESIAN_POINT ( 'NONE',  ( -0.7935830306365878606, 3.333000000000000185, 0.07000000000000000666 ) ) ;
#140 = CARTESIAN_POINT ( 'NONE',  ( -1.061536189819736218E-31, 2.584999999999999964, -0.4299999999999999933 ) ) ;
#141 = VERTEX_POINT ( 'NONE', #1024 ) ;
#142 = EDGE_CURVE ( 'NONE', #405, #868, #667, .T. ) ;
#143 = CARTESIAN_POINT ( 'NONE',  ( 0.000000000000000000, 1.387000000000000011, 0.000000000000000000 ) ) ;
#144 = EDGE_CURVE ( 'NONE', #54, #637, #418, .T. ) ;
#145 = VECTOR ( 'NONE', #273, 39.37007874015748143 ) ;
#146 = AXIS2_PLACEMENT_3D ( 'NONE', #48, #993, #214 ) ;
#147 = DIRECTION ( 'NONE',  ( -1.000000000000000000, 0.000000000000000000, 0.000000000000000000 ) ) ;
#148 = VECTOR ( 'NONE', #895, 39.37007874015748143 ) ;
#149 = ORIENTED_EDGE ( 'NONE', *, *, #279, .T. ) ;
#150 = DIRECTION ( 'NONE',  ( -1.000000000000000000, 0.000000000000000000, 0.000000000000000000 ) ) ;
#151 = LINE ( 'NONE', #783, #805 ) ;
#152 = FACE_OUTER_BOUND ( 'NONE', #630, .T. ) ;
#153 = ORIENTED_EDGE ( 'NONE', *, *, #284, .T. ) ;
#154 = DIRECTION ( 'NONE',  ( -0.000000000000000000, -0.000000000000000000, -1.000000000000000000 ) ) ;
#155 = DIRECTION ( 'NONE',  ( 1.000000000000000000, 0.000000000000000000, 0.000000000000000000 ) ) ;
#156 = CARTESIAN_POINT ( 'NONE',  ( -0.7935830306365878606, 3.333000000000000185, 0.07000000000000000666 ) ) ;
#157 = FACE_OUTER_BOUND ( 'NONE', #184, .T. ) ;
#158 = VERTEX_POINT ( 'NONE', #167 ) ;
#159 = DIRECTION ( 'NONE',  ( 0.000000000000000000, -1.000000000000000000, 0.000000000000000000 ) ) ;
#160 = CARTESIAN_POINT ( 'NONE',  ( 0.000000000000000000, 2.259999999999999787, 0.000000000000000000 ) ) ;
#161 = DIRECTION ( 'NONE',  ( 0.000000000000000000, 0.000000000000000000, 1.000000000000000000 ) ) ;
#162 = CARTESIAN_POINT ( 'NONE',  ( -0.7935830306365878606, 3.533000000000000362, 0.07000000000000000666 ) ) ;
#163 = AXIS2_PLACEMENT_3D ( 'NONE', #483, #831, #1045 ) ;
#164 = ORIENTED_EDGE ( 'NONE', *, *, #587, .F. ) ;
#165 = CARTESIAN_POINT ( 'NONE',  ( -0.8329005486105710565, 4.719999999999999751, 0.000000000000000000 ) ) ;
#166 = VECTOR ( 'NONE', #101, 39.37007874015748854 ) ;
#167 = CARTESIAN_POINT ( 'NONE',  ( -0.2812500000000001110, 4.321749999999999758, -0.1799999999999999378 ) ) ;
#168 = EDGE_CURVE ( 'NONE', #522, #620, #9, .T. ) ;
#169 = CARTESIAN_POINT ( 'NONE',  ( 0.000000000000000000, 2.459999999999999964, 0.000000000000000000 ) ) ;
#170 = EDGE_CURVE ( 'NONE', #554, #915, #677, .T. ) ;
#171 = DIRECTION ( 'NONE',  ( -1.000000000000000000, 0.000000000000000000, 1.365923996832131856E-16 ) ) ;
#172 = CARTESIAN_POINT ( 'NONE',  ( -0.5000000000000001110, 0.3982499999999997708, -0.4299999999999999378 ) ) ;
#173 = ORIENTED_EDGE ( 'NONE', *, *, #517, .T. ) ;
#174 = SURFACE_SIDE_STYLE ('',( #785 ) ) ;
#175 = ORIENTED_EDGE ( 'NONE', *, *, #453, .F. ) ;
#176 = DIRECTION ( 'NONE',  ( -0.000000000000000000, -1.000000000000000000, -0.000000000000000000 ) ) ;
#177 = CARTESIAN_POINT ( 'NONE',  ( -0.3670000000000000484, 4.321749999999999758, -0.1799999999999999378 ) ) ;
#178 = VECTOR ( 'NONE', #232, 39.37007874015748143 ) ;
#179 = DIRECTION ( 'NONE',  ( 0.8718812987781863200, -0.000000000000000000, 0.4897172662270168342 ) ) ;
#180 = AXIS2_PLACEMENT_3D ( 'NONE', #976, #890, #195 ) ;
#181 = ORIENTED_EDGE ( 'NONE', *, *, #579, .T. ) ;
#182 = DIRECTION ( 'NONE',  ( 0.4897172662270168342, -0.000000000000000000, -0.8718812987781863200 ) ) ;
#183 = LINE ( 'NONE', #872, #166 ) ;
#184 = EDGE_LOOP ( 'NONE', ( #186, #973 ) ) ;
#185 = CARTESIAN_POINT ( 'NONE',  ( -0.5000000000000001110, 4.321749999999999758, -0.1799999999999999378 ) ) ;
#186 = ORIENTED_EDGE ( 'NONE', *, *, #985, .T. ) ;
#187 = DIRECTION ( 'NONE',  ( 0.4897172662270168342, 0.000000000000000000, -0.8718812987781863200 ) ) ;
#188 = CYLINDRICAL_SURFACE ( 'NONE', #372, 0.1329999999999999793 ) ;
#189 = EDGE_CURVE ( 'NONE', #63, #360, #244, .T. ) ;
#190 = DIRECTION ( 'NONE',  ( -0.000000000000000000, -0.000000000000000000, -1.000000000000000000 ) ) ;
#191 = ORIENTED_EDGE ( 'NONE', *, *, #29, .T. ) ;
#192 = FACE_OUTER_BOUND ( 'NONE', #289, .T. ) ;
#193 = EDGE_LOOP ( 'NONE', ( #23, #102, #430, #221 ) ) ;
#194 = FACE_OUTER_BOUND ( 'NONE', #193, .T. ) ;
#195 = DIRECTION ( 'NONE',  ( -1.000000000000000000, 0.000000000000000000, 0.000000000000000000 ) ) ;
#196 = ORIENTED_EDGE ( 'NONE', *, *, #885, .T. ) ;
#197 = AXIS2_PLACEMENT_3D ( 'NONE', #1100, #482, #82 ) ;
#198 = ORIENTED_EDGE ( 'NONE', *, *, #640, .T. ) ;
#199 = VECTOR ( 'NONE', #115, 39.37007874015748143 ) ;
#200 = CARTESIAN_POINT ( 'NONE',  ( -0.4742655126626045825, 1.186999999999999833, 0.000000000000000000 ) ) ;
#201 = EDGE_CURVE ( 'NONE', #780, #814, #581, .T. ) ;
#202 = DIRECTION ( 'NONE',  ( 1.000000000000000000, 0.000000000000000000, 0.000000000000000000 ) ) ;
#203 = ORIENTED_EDGE ( 'NONE', *, *, #19, .T. ) ;
#204 = CARTESIAN_POINT ( 'NONE',  ( -0.5135830306365878339, 1.186999999999999833, 0.07000000000000000666 ) ) ;
#205 = EDGE_LOOP ( 'NONE', ( #79, #460, #136, #969 ) ) ;
#206 = FACE_OUTER_BOUND ( 'NONE', #910, .T. ) ;
#207 = EDGE_CURVE ( 'NONE', #50, #986, #750, .T. ) ;
#208 = CARTESIAN_POINT ( 'NONE',  ( -0.2812500000000000555, 4.321749999999999758, -0.4299999999999999378 ) ) ;
#209 = VERTEX_POINT ( 'NONE', #339 ) ;
#210 = FACE_OUTER_BOUND ( 'NONE', #205, .T. ) ;
#211 = EDGE_CURVE ( 'NONE', #768, #898, #687, .T. ) ;
#212 = ORIENTED_EDGE ( 'NONE', *, *, #189, .T. ) ;
#213 = DIRECTION ( 'NONE',  ( -0.000000000000000000, -0.000000000000000000, -1.000000000000000000 ) ) ;
#214 = DIRECTION ( 'NONE',  ( -1.000000000000000000, 0.000000000000000000, 0.000000000000000000 ) ) ;
#215 = ORIENTED_EDGE ( 'NONE', *, *, #395, .F. ) ;
#216 = CARTESIAN_POINT ( 'NONE',  ( -0.7935830306365878606, 2.459999999999999964, 0.07000000000000000666 ) ) ;
#217 = ORIENTED_EDGE ( 'NONE', *, *, #431, .T. ) ;
#218 = CIRCLE ( 'NONE', #1095, 0.2249999999999999778 ) ;
#219 = VECTOR ( 'NONE', #887, 39.37007874015748143 ) ;
#220 = EDGE_CURVE ( 'NONE', #845, #542, #151, .T. ) ;
#221 = ORIENTED_EDGE ( 'NONE', *, *, #601, .F. ) ;
#222 = DIRECTION ( 'NONE',  ( 0.000000000000000000, -0.000000000000000000, -1.000000000000000000 ) ) ;
#223 = LINE ( 'NONE', #310, #355 ) ;
#224 = ADVANCED_FACE ( 'NONE', ( #113 ), #436, .T. ) ;
#225 = DIRECTION ( 'NONE',  ( -1.000000000000000000, 0.000000000000000000, 0.000000000000000000 ) ) ;
#226 = DIRECTION ( 'NONE',  ( -0.000000000000000000, -0.000000000000000000, -1.000000000000000000 ) ) ;
#227 = CARTESIAN_POINT ( 'NONE',  ( -0.7935830306365878606, 1.387000000000000011, 0.07000000000000000666 ) ) ;
#228 = CARTESIAN_POINT ( 'NONE',  ( -0.5000000000000001110, 4.321749999999999758, -0.4299999999999999378 ) ) ;
#229 = EDGE_LOOP ( 'NONE', ( #1036, #14 ) ) ;
#230 = PLANE ( 'NONE',  #1077 ) ;
#231 = FACE_OUTER_BOUND ( 'NONE', #18, .T. ) ;
#232 = DIRECTION ( 'NONE',  ( -1.000000000000000000, 0.000000000000000000, 1.365923996832131609E-16 ) ) ;
#233 = CIRCLE ( 'NONE', #250, 0.2187500000000000278 ) ;
#234 = VECTOR ( 'NONE', #361, 39.37007874015748143 ) ;
#235 = CIRCLE ( 'NONE', #410, 0.1329999999999998406 ) ;
#236 = EDGE_CURVE ( 'NONE', #63, #415, #440, .T. ) ;
#237 = ORIENTED_EDGE ( 'NONE', *, *, #306, .F. ) ;
#238 = PRODUCT_DEFINITION_CONTEXT ( 'detailed design', #1076, 'design' ) ;
#239 = ADVANCED_FACE ( 'NONE', ( #965 ), #188, .F. ) ;
#240 = CARTESIAN_POINT ( 'NONE',  ( -0.5000000000000001110, 4.321749999999999758, -0.4299999999999999378 ) ) ;
#241 = DIRECTION ( 'NONE',  ( 0.4897172662270168342, -0.000000000000000000, -0.8718812987781863200 ) ) ;
#242 = CARTESIAN_POINT ( 'NONE',  ( -0.5000000000000001110, 0.3982499999999997708, -0.1799999999999999378 ) ) ;
#243 = LINE ( 'NONE', #752, #685 ) ;
#244 = LINE ( 'NONE', #408, #178 ) ;
#245 = CARTESIAN_POINT ( 'NONE',  ( -0.5000000000000001110, 0.3982499999999997708, -0.1799999999999999378 ) ) ;
#246 = CARTESIAN_POINT ( 'NONE',  ( 0.000000000000000000, 1.186999999999999833, 0.000000000000000000 ) ) ;
#247 = VERTEX_POINT ( 'NONE', #621 ) ;
#248 = CARTESIAN_POINT ( 'NONE',  ( 0.000000000000000000, 4.719999999999999751, 0.000000000000000000 ) ) ;
#249 = DIRECTION ( 'NONE',  ( 0.000000000000000000, 0.000000000000000000, 1.000000000000000000 ) ) ;
#250 = AXIS2_PLACEMENT_3D ( 'NONE', #75, #394, #150 ) ;
#251 = CIRCLE ( 'NONE', #343, 0.3749999999999999445 ) ;
#252 = ORIENTED_EDGE ( 'NONE', *, *, #985, .F. ) ;
#253 = EDGE_CURVE ( 'NONE', #648, #938, #34, .T. ) ;
#254 = LINE ( 'NONE', #594, #78 ) ;
#255 = ORIENTED_EDGE ( 'NONE', *, *, #4, .F. ) ;
#256 = DIRECTION ( 'NONE',  ( -1.365923996832131609E-16, -0.000000000000000000, -1.000000000000000000 ) ) ;
#257 = DIRECTION ( 'NONE',  ( -1.000000000000000000, 0.000000000000000000, 0.000000000000000000 ) ) ;
#258 = DIRECTION ( 'NONE',  ( 1.000000000000000000, 0.000000000000000000, -0.000000000000000000 ) ) ;
#259 = EDGE_CURVE ( 'NONE', #822, #793, #871, .T. ) ;
#260 = ORIENTED_EDGE ( 'NONE', *, *, #110, .T. ) ;
#261 = PLANE ( 'NONE',  #649 ) ;
#262 = ORIENTED_EDGE ( 'NONE', *, *, #274, .T. ) ;
#263 = LINE ( 'NONE', #881, #899 ) ;
#264 = ORIENTED_EDGE ( 'NONE', *, *, #306, .T. ) ;
#265 = CARTESIAN_POINT ( 'NONE',  ( 0.000000000000000000, 4.719999999999999751, -0.4299999999999999933 ) ) ;
#266 = ORIENTED_EDGE ( 'NONE', *, *, #952, .T. ) ;
#267 = AXIS2_PLACEMENT_3D ( 'NONE', #950, #853, #766 ) ;
#268 = AXIS2_PLACEMENT_3D ( 'NONE', #376, #202, #901 ) ;
#269 = ORIENTED_EDGE ( 'NONE', *, *, #856, .T. ) ;
#270 = VECTOR ( 'NONE', #348, 39.37007874015748143 ) ;
#271 = VECTOR ( 'NONE', #6, 39.37007874015748854 ) ;
#272 = ORIENTED_EDGE ( 'NONE', *, *, #124, .T. ) ;
#273 = DIRECTION ( 'NONE',  ( -1.365923996832131609E-16, -0.000000000000000000, -1.000000000000000000 ) ) ;
#274 = EDGE_CURVE ( 'NONE', #598, #648, #22, .T. ) ;
#275 = FACE_OUTER_BOUND ( 'NONE', #759, .T. ) ;
#276 = FACE_OUTER_BOUND ( 'NONE', #749, .T. ) ;
#277 = DIRECTION ( 'NONE',  ( -0.000000000000000000, -0.000000000000000000, -1.000000000000000000 ) ) ;
#278 = ORIENTED_EDGE ( 'NONE', *, *, #311, .F. ) ;
#279 = EDGE_CURVE ( 'NONE', #426, #983, #359, .T. ) ;
#280 = FACE_OUTER_BOUND ( 'NONE', #782, .T. ) ;
#281 = ORIENTED_EDGE ( 'NONE', *, *, #211, .T. ) ;
#282 = LINE ( 'NONE', #951, #632 ) ;
#283 = ORIENTED_EDGE ( 'NONE', *, *, #449, .F. ) ;
#284 = EDGE_CURVE ( 'NONE', #439, #832, #1038, .T. ) ;
#285 = EDGE_CURVE ( 'NONE', #898, #915, #263, .T. ) ;
#286 = ORIENTED_EDGE ( 'NONE', *, *, #622, .T. ) ;
#287 = AXIS2_PLACEMENT_3D ( 'NONE', #380, #1061, #1002 ) ;
#288 = ADVANCED_BREP_SHAPE_REPRESENTATION ( 'Upper retainer', ( #530, #772 ), #701 ) ;
#289 = EDGE_LOOP ( 'NONE', ( #349, #471, #1071, #255 ) ) ;
#290 = AXIS2_PLACEMENT_3D ( 'NONE', #776, #179, #187 ) ;
#291 = CARTESIAN_POINT ( 'NONE',  ( -0.5000000000000001110, 4.321749999999999758, 0.000000000000000000 ) ) ;
#292 = EDGE_LOOP ( 'NONE', ( #992, #1008, #1064, #21 ) ) ;
#293 = CARTESIAN_POINT ( 'NONE',  ( -0.8329005486105710565, 2.459999999999999964, 0.000000000000000000 ) ) ;
#294 = VERTEX_POINT ( 'NONE', #603 ) ;
#295 = DIRECTION ( 'NONE',  ( -1.000000000000000000, 0.000000000000000000, 0.000000000000000000 ) ) ;
#296 = ORIENTED_EDGE ( 'NONE', *, *, #66, .F. ) ;
#297 = ORIENTED_EDGE ( 'NONE', *, *, #490, .F. ) ;
#298 = PLANE ( 'NONE',  #671 ) ;
#299 = ORIENTED_EDGE ( 'NONE', *, *, #958, .F. ) ;
#300 = DIRECTION ( 'NONE',  ( 0.4897172662270168342, -0.000000000000000000, -0.8718812987781863200 ) ) ;
#301 = LINE ( 'NONE', #818, #1096 ) ;
#302 = AXIS2_PLACEMENT_3D ( 'NONE', #1067, #894, #906 ) ;
#303 = VECTOR ( 'NONE', #562, 39.37007874015748143 ) ;
#304 = CARTESIAN_POINT ( 'NONE',  ( -0.4742655126626045825, 2.259999999999999787, 0.000000000000000000 ) ) ;
#305 = AXIS2_PLACEMENT_3D ( 'NONE', #172, #538, #257 ) ;
#306 = EDGE_CURVE ( 'NONE', #868, #415, #448, .T. ) ;
#307 = LINE ( 'NONE', #502, #423 ) ;
#308 = ORIENTED_EDGE ( 'NONE', *, *, #676, .T. ) ;
#309 = LINE ( 'NONE', #293, #500 ) ;
#310 = CARTESIAN_POINT ( 'NONE',  ( 0.000000000000000000, 4.719999999999999751, 0.000000000000000000 ) ) ;
#311 = EDGE_CURVE ( 'NONE', #803, #793, #615, .T. ) ;
#312 = CARTESIAN_POINT ( 'NONE',  ( -0.4742655126626045825, 2.259999999999999787, 0.000000000000000000 ) ) ;
#313 = DIRECTION ( 'NONE',  ( 0.000000000000000000, 0.000000000000000000, 1.000000000000000000 ) ) ;
#314 = SHAPE_DEFINITION_REPRESENTATION ( #943, #288 ) ;
#315 = ORIENTED_EDGE ( 'NONE', *, *, #201, .T. ) ;
#316 = DIRECTION ( 'NONE',  ( 0.000000000000000000, 0.000000000000000000, 1.000000000000000000 ) ) ;
#317 = DIRECTION ( 'NONE',  ( 1.000000000000000000, 0.000000000000000000, 0.000000000000000000 ) ) ;
#318 = DIRECTION ( 'NONE',  ( -0.000000000000000000, -0.000000000000000000, -1.000000000000000000 ) ) ;
#319 = EDGE_CURVE ( 'NONE', #967, #845, #626, .T. ) ;
#320 = ORIENTED_EDGE ( 'NONE', *, *, #852, .T. ) ;
#321 = LINE ( 'NONE', #495, #948 ) ;
#322 = ADVANCED_FACE ( 'NONE', ( #516 ), #865, .F. ) ;
#323 = DIRECTION ( 'NONE',  ( -1.000000000000000000, 0.000000000000000000, 0.000000000000000000 ) ) ;
#324 = CARTESIAN_POINT ( 'NONE',  ( -0.8329005486105710565, 2.259999999999999787, 0.000000000000000000 ) ) ;
#325 = VECTOR ( 'NONE', #841, 39.37007874015748854 ) ;
#326 = VECTOR ( 'NONE', #1079, 39.37007874015748143 ) ;
#327 = CYLINDRICAL_SURFACE ( 'NONE', #80, 0.2187500000000000278 ) ;
#328 = ORIENTED_EDGE ( 'NONE', *, *, #820, .T. ) ;
#329 = FACE_OUTER_BOUND ( 'NONE', #524, .T. ) ;
#330 = CARTESIAN_POINT ( 'NONE',  ( -0.2812500000000000555, 4.321749999999999758, -0.4299999999999999378 ) ) ;
#331 = ORIENTED_EDGE ( 'NONE', *, *, #545, .T. ) ;
#332 = DIRECTION ( 'NONE',  ( -1.000000000000000000, 0.000000000000000000, 1.365923996832131856E-16 ) ) ;
#333 = CARTESIAN_POINT ( 'NONE',  ( -0.8329005486105710565, 1.387000000000000011, 0.000000000000000000 ) ) ;
#334 = EDGE_CURVE ( 'NONE', #521, #294, #375, .T. ) ;
#335 = CARTESIAN_POINT ( 'NONE',  ( -0.8329005486105710565, 0.000000000000000000, 0.000000000000000000 ) ) ;
#336 = ORIENTED_EDGE ( 'NONE', *, *, #168, .F. ) ;
#337 = DIRECTION ( 'NONE',  ( -1.000000000000000000, 0.000000000000000000, 0.000000000000000000 ) ) ;
#338 = ORIENTED_EDGE ( 'NONE', *, *, #587, .T. ) ;
#339 = CARTESIAN_POINT ( 'NONE',  ( -0.5135830306365878339, 2.459999999999999964, 0.07000000000000000666 ) ) ;
#340 = FACE_BOUND ( 'NONE', #1020, .T. ) ;
#341 = VECTOR ( 'NONE', #608, 39.37007874015748143 ) ;
#342 = EDGE_CURVE ( 'NONE', #521, #247, #77, .T. ) ;
#343 = AXIS2_PLACEMENT_3D ( 'NONE', #808, #551, #123 ) ;
#344 = AXIS2_PLACEMENT_3D ( 'NONE', #1034, #446, #681 ) ;
#345 = DIRECTION ( 'NONE',  ( 0.000000000000000000, 1.000000000000000000, 0.000000000000000000 ) ) ;
#346 = ORIENTED_EDGE ( 'NONE', *, *, #253, .F. ) ;
#347 =( CONVERSION_BASED_UNIT ( 'INCH', #619 ) LENGTH_UNIT ( ) NAMED_UNIT ( #686 ) );
#348 = DIRECTION ( 'NONE',  ( 1.000000000000000000, 0.000000000000000000, 0.000000000000000000 ) ) ;
#349 = ORIENTED_EDGE ( 'NONE', *, *, #659, .F. ) ;
#350 = ADVANCED_FACE ( 'NONE', ( #206 ), #724, .F. ) ;
#351 = DIRECTION ( 'NONE',  ( -0.000000000000000000, -0.000000000000000000, -1.000000000000000000 ) ) ;
#352 = CARTESIAN_POINT ( 'NONE',  ( -0.8329005486105710565, 4.719999999999999751, 0.000000000000000000 ) ) ;
#353 = DIRECTION ( 'NONE',  ( -1.000000000000000000, 0.000000000000000000, 0.000000000000000000 ) ) ;
#354 = PLANE ( 'NONE',  #391 ) ;
#355 = VECTOR ( 'NONE', #655, 39.37007874015748143 ) ;
#356 = DIRECTION ( 'NONE',  ( -1.000000000000000000, 0.000000000000000000, 0.000000000000000000 ) ) ;
#357 = VECTOR ( 'NONE', #694, 39.37007874015748143 ) ;
#358 = CIRCLE ( 'NONE', #445, 0.2187500000000000278 ) ;
#359 = LINE ( 'NONE', #428, #130 ) ;
#360 = VERTEX_POINT ( 'NONE', #384 ) ;
#361 = DIRECTION ( 'NONE',  ( 0.000000000000000000, 0.000000000000000000, -1.000000000000000000 ) ) ;
#362 = DIRECTION ( 'NONE',  ( 0.000000000000000000, 1.000000000000000000, -0.000000000000000000 ) ) ;
#363 = VERTEX_POINT ( 'NONE', #826 ) ;
#364 = ADVANCED_FACE ( 'NONE', ( #737 ), #461, .F. ) ;
#365 = VERTEX_POINT ( 'NONE', #639 ) ;
#366 = CARTESIAN_POINT ( 'NONE',  ( 0.000000000000000000, 2.734999999999999432, -0.1000000000000000056 ) ) ;
#367 = EDGE_LOOP ( 'NONE', ( #451, #796, #129, #175, #514 ) ) ;
#368 = CARTESIAN_POINT ( 'NONE',  ( -0.4742655126626045825, 1.186999999999999833, 0.000000000000000000 ) ) ;
#369 = ADVANCED_FACE ( 'NONE', ( #716 ), #987, .T. ) ;
#370 = DIRECTION ( 'NONE',  ( 0.4897172662270168342, 0.000000000000000000, 0.8718812987781863200 ) ) ;
#371 = ORIENTED_EDGE ( 'NONE', *, *, #928, .T. ) ;
#372 = AXIS2_PLACEMENT_3D ( 'NONE', #97, #800, #353 ) ;
#373 = ORIENTED_EDGE ( 'NONE', *, *, #999, .F. ) ;
#374 = AXIS2_PLACEMENT_3D ( 'NONE', #185, #707, #593 ) ;
#375 = LINE ( 'NONE', #558, #769 ) ;
#376 = CARTESIAN_POINT ( 'NONE',  ( -1.000000000000000000, 4.719999999999999751, -0.4299999999999998268 ) ) ;
#377 =( NAMED_UNIT ( * ) PLANE_ANGLE_UNIT ( ) SI_UNIT ( $, .RADIAN. ) );
#378 = ORIENTED_EDGE ( 'NONE', *, *, #684, .T. ) ;
#379 = EDGE_LOOP ( 'NONE', ( #528, #570 ) ) ;
#380 = CARTESIAN_POINT ( 'NONE',  ( -1.365923996832131609E-17, 2.359999999999999876, -0.1000000000000000056 ) ) ;
#381 = EDGE_LOOP ( 'NONE', ( #584, #26, #191, #91 ) ) ;
#382 = CARTESIAN_POINT ( 'NONE',  ( 0.000000000000000000, 2.359999999999999876, 0.000000000000000000 ) ) ;
#383 = ORIENTED_EDGE ( 'NONE', *, *, #717, .F. ) ;
#384 = CARTESIAN_POINT ( 'NONE',  ( -1.000000000000000000, 4.719999999999999751, -0.4299999999999998268 ) ) ;
#385 = EDGE_CURVE ( 'NONE', #108, #405, #25, .T. ) ;
#386 = ORIENTED_EDGE ( 'NONE', *, *, #597, .F. ) ;
#387 = LINE ( 'NONE', #568, #303 ) ;
#388 = VECTOR ( 'NONE', #499, 39.37007874015748143 ) ;
#389 = AXIS2_PLACEMENT_3D ( 'NONE', #246, #1017, #481 ) ;
#390 = CARTESIAN_POINT ( 'NONE',  ( -0.4742655126626045825, 2.259999999999999787, 0.000000000000000000 ) ) ;
#391 = AXIS2_PLACEMENT_3D ( 'NONE', #177, #249, #258 ) ;
#392 = EDGE_LOOP ( 'NONE', ( #905, #683, #419, #811 ) ) ;
#393 = LINE ( 'NONE', #576, #1031 ) ;
#394 = DIRECTION ( 'NONE',  ( -0.000000000000000000, -0.000000000000000000, -1.000000000000000000 ) ) ;
#395 = EDGE_CURVE ( 'NONE', #415, #455, #920, .T. ) ;
#396 = DIRECTION ( 'NONE',  ( 0.000000000000000000, 1.000000000000000000, 0.000000000000000000 ) ) ;
#397 = CARTESIAN_POINT ( 'NONE',  ( -0.7187500000000001110, 4.321749999999999758, -0.4299999999999999378 ) ) ;
#398 = DIRECTION ( 'NONE',  ( 0.000000000000000000, 0.000000000000000000, 1.000000000000000000 ) ) ;
#399 = EDGE_CURVE ( 'NONE', #1066, #1056, #578, .T. ) ;
#400 = ORIENTED_EDGE ( 'NONE', *, *, #236, .T. ) ;
#401 = DIRECTION ( 'NONE',  ( -1.365923996832131609E-16, -0.000000000000000000, -1.000000000000000000 ) ) ;
#402 = CYLINDRICAL_SURFACE ( 'NONE', #422, 0.2187500000000000278 ) ;
#403 = DIRECTION ( 'NONE',  ( -1.000000000000000000, 0.000000000000000000, 0.000000000000000000 ) ) ;
#404 = DIRECTION ( 'NONE',  ( -0.000000000000000000, -0.000000000000000000, -1.000000000000000000 ) ) ;
#405 = VERTEX_POINT ( 'NONE', #456 ) ;
#406 = CARTESIAN_POINT ( 'NONE',  ( -0.5000000000000001110, 4.321749999999999758, -0.4299999999999999378 ) ) ;
#407 = VECTOR ( 'NONE', #586, 39.37007874015748143 ) ;
#408 = CARTESIAN_POINT ( 'NONE',  ( 0.000000000000000000, 4.719999999999999751, -0.4299999999999999933 ) ) ;
#409 = CIRCLE ( 'NONE', #180, 0.1329999999999998406 ) ;
#410 = AXIS2_PLACEMENT_3D ( 'NONE', #513, #277, #5 ) ;
#411 = ORIENTED_EDGE ( 'NONE', *, *, #274, .F. ) ;
#412 = EDGE_CURVE ( 'NONE', #99, #638, #44, .T. ) ;
#413 = FACE_OUTER_BOUND ( 'NONE', #539, .T. ) ;
#414 = CARTESIAN_POINT ( 'NONE',  ( -0.8329005486105710565, 4.719999999999999751, 0.000000000000000000 ) ) ;
#415 = VERTEX_POINT ( 'NONE', #140 ) ;
#416 = ORIENTED_EDGE ( 'NONE', *, *, #1058, .F. ) ;
#417 = ADVANCED_FACE ( 'NONE', ( #469 ), #1081, .T. ) ;
#418 = LINE ( 'NONE', #761, #821 ) ;
#419 = ORIENTED_EDGE ( 'NONE', *, *, #1039, .F. ) ;
#420 = CARTESIAN_POINT ( 'NONE',  ( -0.4742655126626045825, 3.333000000000000185, 0.000000000000000000 ) ) ;
#421 = DIRECTION ( 'NONE',  ( 1.000000000000000000, 0.000000000000000000, -1.365923996832131609E-16 ) ) ;
#422 = AXIS2_PLACEMENT_3D ( 'NONE', #746, #154, #323 ) ;
#423 = VECTOR ( 'NONE', #583, 39.37007874015748143 ) ;
#424 = ORIENTED_EDGE ( 'NONE', *, *, #751, .T. ) ;
#425 = CARTESIAN_POINT ( 'NONE',  ( -0.5000000000000001110, 0.3982499999999997708, -0.4299999999999999378 ) ) ;
#426 = VERTEX_POINT ( 'NONE', #840 ) ;
#427 = EDGE_CURVE ( 'NONE', #598, #642, #935, .T. ) ;
#428 = CARTESIAN_POINT ( 'NONE',  ( -0.7935830306365878606, 1.186999999999999833, 0.07000000000000000666 ) ) ;
#429 = FACE_BOUND ( 'NONE', #1027, .T. ) ;
#430 = ORIENTED_EDGE ( 'NONE', *, *, #874, .T. ) ;
#431 = EDGE_CURVE ( 'NONE', #439, #595, #1030, .T. ) ;
#432 = DIRECTION ( 'NONE',  ( -1.000000000000000000, 0.000000000000000000, -0.000000000000000000 ) ) ;
#433 = EDGE_LOOP ( 'NONE', ( #1090, #338, #786, #181 ) ) ;
#434 = CARTESIAN_POINT ( 'NONE',  ( -1.000000000000000000, 0.000000000000000000, -0.4299999999999998268 ) ) ;
#435 = EDGE_LOOP ( 'NONE', ( #7, #452, #315, #269 ) ) ;
#436 = PLANE ( 'NONE',  #1029 ) ;
#437 = CARTESIAN_POINT ( 'NONE',  ( -0.7935830306365878606, 3.333000000000000185, 0.07000000000000000666 ) ) ;
#438 = ORIENTED_EDGE ( 'NONE', *, *, #556, .T. ) ;
#439 = VERTEX_POINT ( 'NONE', #760 ) ;
#440 = LINE ( 'NONE', #525, #341 ) ;
#441 = CYLINDRICAL_SURFACE ( 'NONE', #13, 0.1329999999999999793 ) ;
#442 = AXIS2_PLACEMENT_3D ( 'NONE', #160, #572, #839 ) ;
#443 = AXIS2_PLACEMENT_3D ( 'NONE', #352, #605, #432 ) ;
#444 = ORIENTED_EDGE ( 'NONE', *, *, #1006, .F. ) ;
#445 = AXIS2_PLACEMENT_3D ( 'NONE', #961, #351, #695 ) ;
#446 = DIRECTION ( 'NONE',  ( 0.000000000000000000, 0.000000000000000000, 1.000000000000000000 ) ) ;
#447 = ORIENTED_EDGE ( 'NONE', *, *, #945, .T. ) ;
#448 = LINE ( 'NONE', #794, #145 ) ;
#449 = EDGE_CURVE ( 'NONE', #637, #983, #3, .T. ) ;
#450 = CARTESIAN_POINT ( 'NONE',  ( -0.8329005486105710565, 1.186999999999999833, 0.000000000000000000 ) ) ;
#451 = ORIENTED_EDGE ( 'NONE', *, *, #285, .F. ) ;
#452 = ORIENTED_EDGE ( 'NONE', *, *, #559, .T. ) ;
#453 = EDGE_CURVE ( 'NONE', #493, #363, #70, .T. ) ;
#454 = ORIENTED_EDGE ( 'NONE', *, *, #259, .F. ) ;
#455 = VERTEX_POINT ( 'NONE', #589 ) ;
#456 = CARTESIAN_POINT ( 'NONE',  ( -0.2249999999999999778, 2.359999999999999876, -0.1000000000000000056 ) ) ;
#457 = FACE_OUTER_BOUND ( 'NONE', #1086, .T. ) ;
#458 = VECTOR ( 'NONE', #833, 39.37007874015748143 ) ;
#459 = EDGE_LOOP ( 'NONE', ( #416, #308, #660, #173, #1016, #552 ) ) ;
#460 = ORIENTED_EDGE ( 'NONE', *, *, #385, .F. ) ;
#461 = PLANE ( 'NONE',  #998 ) ;
#462 = CARTESIAN_POINT ( 'NONE',  ( -0.6330000000000000071, 0.3982499999999997708, -0.4299999999999999378 ) ) ;
#463 = EDGE_CURVE ( 'NONE', #983, #642, #254, .T. ) ;
#464 = ORIENTED_EDGE ( 'NONE', *, *, #597, .T. ) ;
#465 = CARTESIAN_POINT ( 'NONE',  ( -0.6330000000000000071, 4.321749999999999758, -0.4299999999999999378 ) ) ;
#466 = ORIENTED_EDGE ( 'NONE', *, *, #189, .F. ) ;
#467 = ORIENTED_EDGE ( 'NONE', *, *, #1080, .T. ) ;
#468 = CARTESIAN_POINT ( 'NONE',  ( -0.4742655126626045825, 3.333000000000000185, 0.000000000000000000 ) ) ;
#469 = FACE_OUTER_BOUND ( 'NONE', #111, .T. ) ;
#470 = ADVANCED_FACE ( 'NONE', ( #953 ), #926, .F. ) ;
#471 = ORIENTED_EDGE ( 'NONE', *, *, #412, .T. ) ;
#472 = DIRECTION ( 'NONE',  ( 0.000000000000000000, -0.000000000000000000, -1.000000000000000000 ) ) ;
#473 = DIRECTION ( 'NONE',  ( 1.365923996832131609E-16, -0.000000000000000000, 1.000000000000000000 ) ) ;
#474 = CARTESIAN_POINT ( 'NONE',  ( -0.5000000000000001110, 0.3982499999999997708, 0.000000000000000000 ) ) ;
#475 = VECTOR ( 'NONE', #960, 39.37007874015748143 ) ;
#476 = VECTOR ( 'NONE', #801, 39.37007874015748143 ) ;
#477 = FACE_OUTER_BOUND ( 'NONE', #1097, .T. ) ;
#478 = AXIS2_PLACEMENT_3D ( 'NONE', #957, #860, #421 ) ;
#479 = LINE ( 'NONE', #1094, #925 ) ;
#480 = ORIENTED_EDGE ( 'NONE', *, *, #104, .F. ) ;
#481 = DIRECTION ( 'NONE',  ( 0.000000000000000000, -0.000000000000000000, -1.000000000000000000 ) ) ;
#482 = DIRECTION ( 'NONE',  ( -0.000000000000000000, -0.000000000000000000, -1.000000000000000000 ) ) ;
#483 = CARTESIAN_POINT ( 'NONE',  ( 0.000000000000000000, 4.719999999999999751, 0.000000000000000000 ) ) ;
#484 = LINE ( 'NONE', #420, #325 ) ;
#485 = DIRECTION ( 'NONE',  ( 0.8718812987781863200, -0.000000000000000000, 0.4897172662270168342 ) ) ;
#486 = CARTESIAN_POINT ( 'NONE',  ( -0.3670000000000000484, 0.3982499999999997708, -0.1799999999999999378 ) ) ;
#487 = EDGE_LOOP ( 'NONE', ( #203, #585 ) ) ;
#488 = LINE ( 'NONE', #1091, #94 ) ;
#489 = CARTESIAN_POINT ( 'NONE',  ( -0.2812500000000001110, 0.3982499999999997708, -0.1799999999999999378 ) ) ;
#490 = EDGE_CURVE ( 'NONE', #426, #598, #1089, .T. ) ;
#491 = DIRECTION ( 'NONE',  ( 1.000000000000000000, 0.000000000000000000, 0.000000000000000000 ) ) ;
#492 = CARTESIAN_POINT ( 'NONE',  ( 0.000000000000000000, 2.359999999999999876, -0.1000000000000000056 ) ) ;
#493 = VERTEX_POINT ( 'NONE', #663 ) ;
#494 = ADVANCED_FACE ( 'NONE', ( #231 ), #577, .T. ) ;
#495 = CARTESIAN_POINT ( 'NONE',  ( -0.7935830306365878606, 2.459999999999999964, 0.07000000000000000666 ) ) ;
#496 = FACE_OUTER_BOUND ( 'NONE', #292, .T. ) ;
#497 = DIRECTION ( 'NONE',  ( 1.000000000000000000, 0.000000000000000000, -0.000000000000000000 ) ) ;
#498 = AXIS2_PLACEMENT_3D ( 'NONE', #731, #652, #810 ) ;
#499 = DIRECTION ( 'NONE',  ( 1.000000000000000000, 0.000000000000000000, 0.000000000000000000 ) ) ;
#500 = VECTOR ( 'NONE', #643, 39.37007874015748854 ) ;
#501 = VECTOR ( 'NONE', #743, 39.37007874015748143 ) ;
#502 = CARTESIAN_POINT ( 'NONE',  ( -0.5135830306365878339, 2.259999999999999787, 0.07000000000000000666 ) ) ;
#503 = PRODUCT_DEFINITION ( 'General', '', #582, #238 ) ;
#504 = ORIENTED_EDGE ( 'NONE', *, *, #490, .T. ) ;
#505 = PLANE ( 'NONE',  #389 ) ;
#506 = ADVANCED_FACE ( 'NONE', ( #613 ), #20, .T. ) ;
#507 = DIRECTION ( 'NONE',  ( 0.000000000000000000, 1.000000000000000000, 0.000000000000000000 ) ) ;
#508 = DIRECTION ( 'NONE',  ( -1.000000000000000000, -0.000000000000000000, -0.000000000000000000 ) ) ;
#509 = DIRECTION ( 'NONE',  ( 1.365923996832131609E-16, 0.000000000000000000, 1.000000000000000000 ) ) ;
#510 = EDGE_CURVE ( 'NONE', #1004, #814, #792, .T. ) ;
#511 = ORIENTED_EDGE ( 'NONE', *, *, #395, .T. ) ;
#512 = DIRECTION ( 'NONE',  ( -0.000000000000000000, -0.000000000000000000, -1.000000000000000000 ) ) ;
#513 = CARTESIAN_POINT ( 'NONE',  ( -0.5000000000000001110, 0.3982499999999997708, 0.000000000000000000 ) ) ;
#514 = ORIENTED_EDGE ( 'NONE', *, *, #517, .F. ) ;
#515 = EDGE_CURVE ( 'NONE', #363, #693, #531, .T. ) ;
#516 = FACE_OUTER_BOUND ( 'NONE', #55, .T. ) ;
#517 = EDGE_CURVE ( 'NONE', #915, #493, #877, .T. ) ;
#518 = FACE_OUTER_BOUND ( 'NONE', #487, .T. ) ;
#519 = VECTOR ( 'NONE', #697, 39.37007874015748143 ) ;
#520 = VECTOR ( 'NONE', #679, 39.37007874015748854 ) ;
#521 = VERTEX_POINT ( 'NONE', #869 ) ;
#522 = VERTEX_POINT ( 'NONE', #543 ) ;
#523 = CARTESIAN_POINT ( 'NONE',  ( 0.000000000000000000, 0.000000000000000000, 0.000000000000000000 ) ) ;
#524 = EDGE_LOOP ( 'NONE', ( #799, #411, #297, #791 ) ) ;
#525 = CARTESIAN_POINT ( 'NONE',  ( 0.000000000000000000, 4.719999999999999751, -0.4299999999999999933 ) ) ;
#526 = ADVANCED_FACE ( 'NONE', ( #537 ), #261, .F. ) ;
#527 = PLANE ( 'NONE',  #478 ) ;
#528 = ORIENTED_EDGE ( 'NONE', *, *, #852, .F. ) ;
#529 = EDGE_LOOP ( 'NONE', ( #653, #37, #1070, #264, #33, #1059 ) ) ;
#530 = MANIFOLD_SOLID_BREP ( 'Cut-Extrude2', #590 ) ;
#531 = LINE ( 'NONE', #434, #357 ) ;
#532 = CARTESIAN_POINT ( 'NONE',  ( 0.000000000000000000, 4.719999999999999751, 0.000000000000000000 ) ) ;
#533 = LINE ( 'NONE', #414, #270 ) ;
#534 = CARTESIAN_POINT ( 'NONE',  ( 0.000000000000000000, 2.359999999999999876, -0.1000000000000000056 ) ) ;
#535 = ADVANCED_FACE ( 'NONE', ( #1065 ), #781, .T. ) ;
#536 = ORIENTED_EDGE ( 'NONE', *, *, #1058, .T. ) ;
#537 = FACE_OUTER_BOUND ( 'NONE', #367, .T. ) ;
#538 = DIRECTION ( 'NONE',  ( -0.000000000000000000, -0.000000000000000000, -1.000000000000000000 ) ) ;
#539 = EDGE_LOOP ( 'NONE', ( #125, #198, #215, #237 ) ) ;
#540 = DIRECTION ( 'NONE',  ( 0.8718812987781863200, -0.000000000000000000, 0.4897172662270168342 ) ) ;
#541 = VECTOR ( 'NONE', #226, 39.37007874015748143 ) ;
#542 = VERTEX_POINT ( 'NONE', #366 ) ;
#543 = CARTESIAN_POINT ( 'NONE',  ( -1.000000000000000000, 4.719999999999999751, -0.2974999999999998201 ) ) ;
#544 = VECTOR ( 'NONE', #670, 39.37007874015748854 ) ;
#545 = EDGE_CURVE ( 'NONE', #995, #54, #911, .T. ) ;
#546 = ORIENTED_EDGE ( 'NONE', *, *, #259, .T. ) ;
#547 = DIRECTION ( 'NONE',  ( 0.000000000000000000, 1.000000000000000000, 0.000000000000000000 ) ) ;
#548 = LINE ( 'NONE', #623, #199 ) ;
#549 = EDGE_CURVE ( 'NONE', #614, #968, #631, .T. ) ;
#550 = VERTEX_POINT ( 'NONE', #904 ) ;
#551 = DIRECTION ( 'NONE',  ( 0.000000000000000000, 0.000000000000000000, 1.000000000000000000 ) ) ;
#552 = ORIENTED_EDGE ( 'NONE', *, *, #1085, .T. ) ;
#553 = CARTESIAN_POINT ( 'NONE',  ( 0.000000000000000000, 4.719999999999999751, -0.1000000000000000056 ) ) ;
#554 = VERTEX_POINT ( 'NONE', #117 ) ;
#555 =( NAMED_UNIT ( * ) SI_UNIT ( $, .STERADIAN. ) SOLID_ANGLE_UNIT ( ) );
#556 = EDGE_CURVE ( 'NONE', #845, #554, #251, .T. ) ;
#557 = ORIENTED_EDGE ( 'NONE', *, *, #334, .F. ) ;
#558 = CARTESIAN_POINT ( 'NONE',  ( -0.3670000000000001594, 0.3982499999999997708, -0.4299999999999999378 ) ) ;
#559 = EDGE_CURVE ( 'NONE', #42, #780, #57, .T. ) ;
#560 = CARTESIAN_POINT ( 'NONE',  ( -0.5135830306365878339, 3.533000000000000362, 0.07000000000000000666 ) ) ;
#561 = ORIENTED_EDGE ( 'NONE', *, *, #515, .T. ) ;
#562 = DIRECTION ( 'NONE',  ( -0.000000000000000000, -1.000000000000000000, -0.000000000000000000 ) ) ;
#563 = VECTOR ( 'NONE', #851, 39.37007874015748143 ) ;
#564 = ORIENTED_EDGE ( 'NONE', *, *, #837, .F. ) ;
#565 = AXIS2_PLACEMENT_3D ( 'NONE', #492, #313, #658 ) ;
#566 = DIRECTION ( 'NONE',  ( -0.000000000000000000, -0.000000000000000000, -1.000000000000000000 ) ) ;
#567 = ORIENTED_EDGE ( 'NONE', *, *, #81, .F. ) ;
#568 = CARTESIAN_POINT ( 'NONE',  ( -1.000000000000000000, 4.719999999999999751, -0.4299999999999998268 ) ) ;
#569 = CARTESIAN_POINT ( 'NONE',  ( -5.873473186378166413E-17, 2.359999999999999876, -0.4299999999999999933 ) ) ;
#570 = ORIENTED_EDGE ( 'NONE', *, *, #29, .F. ) ;
#571 = DIRECTION ( 'NONE',  ( -0.000000000000000000, -0.000000000000000000, -1.000000000000000000 ) ) ;
#572 = DIRECTION ( 'NONE',  ( 0.000000000000000000, -1.000000000000000000, 0.000000000000000000 ) ) ;
#573 = CARTESIAN_POINT ( 'NONE',  ( -1.137360203378288922E-32, 2.584999999999999964, -0.1000000000000000056 ) ) ;
#574 = APPLICATION_PROTOCOL_DEFINITION ( 'draft international standard', 'automotive_design', 1998, #866 ) ;
#575 = ORIENTED_EDGE ( 'NONE', *, *, #510, .T. ) ;
#576 = CARTESIAN_POINT ( 'NONE',  ( 0.000000000000000000, 1.984999999999999654, -0.1000000000000000056 ) ) ;
#577 = PLANE ( 'NONE',  #163 ) ;
#578 = CIRCLE ( 'NONE', #592, 0.1329999999999998406 ) ;
#579 = EDGE_CURVE ( 'NONE', #209, #803, #984, .T. ) ;
#580 = AXIS2_PLACEMENT_3D ( 'NONE', #382, #1072, #332 ) ;
#581 = LINE ( 'NONE', #162, #388 ) ;
#582 = PRODUCT_DEFINITION_FORMATION_WITH_SPECIFIED_SOURCE ( 'Symmetric', '', #646, .NOT_KNOWN. ) ;
#583 = DIRECTION ( 'NONE',  ( 0.000000000000000000, 1.000000000000000000, 0.000000000000000000 ) ) ;
#584 = ORIENTED_EDGE ( 'NONE', *, *, #342, .F. ) ;
#585 = ORIENTED_EDGE ( 'NONE', *, *, #717, .T. ) ;
#586 = DIRECTION ( 'NONE',  ( -0.000000000000000000, -1.000000000000000000, -0.000000000000000000 ) ) ;
#587 = EDGE_CURVE ( 'NONE', #793, #595, #309, .T. ) ;
#588 = CARTESIAN_POINT ( 'NONE',  ( -0.8329005486105710565, 1.387000000000000233, 0.000000000000000000 ) ) ;
#589 = CARTESIAN_POINT ( 'NONE',  ( -0.2250000000000000611, 2.359999999999999876, -0.4299999999999999933 ) ) ;
#590 = CLOSED_SHELL ( 'NONE', ( #1052, #239, #858, #962, #138, #616, #706, #364, #739, #919, #748, #322, #494, #526, #813, #909, #90, #350, #843, #721, #1003, #369, #35, #470, #506, #417, #636, #698, #224, #88, #535, #966, #732, #849 ) ) ;
#591 = LINE ( 'NONE', #955, #458 ) ;
#592 = AXIS2_PLACEMENT_3D ( 'NONE', #291, #52, #819 ) ;
#593 = DIRECTION ( 'NONE',  ( -1.000000000000000000, 0.000000000000000000, 0.000000000000000000 ) ) ;
#594 = CARTESIAN_POINT ( 'NONE',  ( -0.7935830306365878606, 1.387000000000000011, 0.07000000000000000666 ) ) ;
#595 = VERTEX_POINT ( 'NONE', #216 ) ;
#596 = CARTESIAN_POINT ( 'NONE',  ( -1.000000000000000000, 4.719999999999999751, -0.2974999999999998201 ) ) ;
#597 = EDGE_CURVE ( 'NONE', #360, #363, #387, .T. ) ;
#598 = VERTEX_POINT ( 'NONE', #204 ) ;
#599 = DIRECTION ( 'NONE',  ( -0.000000000000000000, -0.000000000000000000, 1.000000000000000000 ) ) ;
#600 = ORIENTED_EDGE ( 'NONE', *, *, #874, .F. ) ;
#601 = EDGE_CURVE ( 'NONE', #1066, #50, #135, .T. ) ;
#602 = ORIENTED_EDGE ( 'NONE', *, *, #81, .T. ) ;
#603 = CARTESIAN_POINT ( 'NONE',  ( -0.3670000000000000484, 0.3982499999999997708, -0.1799999999999999378 ) ) ;
#604 = CARTESIAN_POINT ( 'NONE',  ( -0.4742655126626045825, 1.387000000000000233, 0.000000000000000000 ) ) ;
#605 = DIRECTION ( 'NONE',  ( 0.000000000000000000, 0.000000000000000000, -1.000000000000000000 ) ) ;
#606 = DIRECTION ( 'NONE',  ( -0.000000000000000000, 1.000000000000000000, 0.000000000000000000 ) ) ;
#607 = UNCERTAINTY_MEASURE_WITH_UNIT (LENGTH_MEASURE( 1.000000000000000082E-05 ), #347, 'distance_accuracy_value', 'NONE');
#608 = DIRECTION ( 'NONE',  ( -0.000000000000000000, -1.000000000000000000, -0.000000000000000000 ) ) ;
#609 = AXIS2_PLACEMENT_3D ( 'NONE', #680, #512, #859 ) ;
#610 = DIRECTION ( 'NONE',  ( -0.000000000000000000, -1.000000000000000000, -0.000000000000000000 ) ) ;
#611 = AXIS2_PLACEMENT_3D ( 'NONE', #425, #190, #356 ) ;
#612 = VECTOR ( 'NONE', #317, 39.37007874015748143 ) ;
#613 = FACE_OUTER_BOUND ( 'NONE', #664, .T. ) ;
#614 = VERTEX_POINT ( 'NONE', #991 ) ;
#615 = LINE ( 'NONE', #970, #475 ) ;
#616 = ADVANCED_FACE ( 'NONE', ( #210 ), #812, .F. ) ;
#617 = PLANE ( 'NONE',  #443 ) ;
#618 = EDGE_LOOP ( 'NONE', ( #383, #31, #723, #444 ) ) ;
#619 = LENGTH_MEASURE_WITH_UNIT ( LENGTH_MEASURE( 0.02539999999999999897 ), #17 );
#620 = VERTEX_POINT ( 'NONE', #165 ) ;
#621 = CARTESIAN_POINT ( 'NONE',  ( -0.6329999999999998961, 0.3982499999999997708, 0.000000000000000000 ) ) ;
#622 = EDGE_CURVE ( 'NONE', #360, #522, #661, .T. ) ;
#623 = CARTESIAN_POINT ( 'NONE',  ( -0.8329005486105710565, 4.719999999999999751, 0.000000000000000000 ) ) ;
#624 = ORIENTED_EDGE ( 'NONE', *, *, #15, .T. ) ;
#625 = ORIENTED_EDGE ( 'NONE', *, *, #622, .F. ) ;
#626 = LINE ( 'NONE', #532, #1046 ) ;
#627 = DIRECTION ( 'NONE',  ( -1.000000000000000000, 0.000000000000000000, 0.000000000000000000 ) ) ;
#628 = VECTOR ( 'NONE', #508, 39.37007874015748143 ) ;
#629 = VECTOR ( 'NONE', #728, 39.37007874015748143 ) ;
#630 = EDGE_LOOP ( 'NONE', ( #1068, #467, #536, #997, #921 ) ) ;
#631 = LINE ( 'NONE', #468, #27 ) ;
#632 = VECTOR ( 'NONE', #509, 39.37007874015748143 ) ;
#633 = VERTEX_POINT ( 'NONE', #1098 ) ;
#634 = DIRECTION ( 'NONE',  ( 0.000000000000000000, 0.000000000000000000, 1.000000000000000000 ) ) ;
#635 = CARTESIAN_POINT ( 'NONE',  ( -0.4742655126626045825, 3.533000000000000362, 0.000000000000000000 ) ) ;
#636 = ADVANCED_FACE ( 'NONE', ( #329 ), #505, .T. ) ;
#637 = VERTEX_POINT ( 'NONE', #588 ) ;
#638 = VERTEX_POINT ( 'NONE', #764 ) ;
#639 = CARTESIAN_POINT ( 'NONE',  ( -0.7187500000000001110, 0.3982499999999997708, -0.1799999999999999378 ) ) ;
#640 = EDGE_CURVE ( 'NONE', #405, #455, #946, .T. ) ;
#641 = CARTESIAN_POINT ( 'NONE',  ( -0.7935830306365878606, 3.533000000000000362, 0.07000000000000000666 ) ) ;
#642 = VERTEX_POINT ( 'NONE', #745 ) ;
#643 = DIRECTION ( 'NONE',  ( 0.4897172662270168342, 0.000000000000000000, 0.8718812987781863200 ) ) ;
#644 = ORIENTED_EDGE ( 'NONE', *, *, #601, .T. ) ;
#645 = DIRECTION ( 'NONE',  ( 0.000000000000000000, -1.000000000000000000, 0.000000000000000000 ) ) ;
#646 = PRODUCT ( 'Upper retainer', 'Upper retainer', '', ( #836 ) ) ;
#647 = VECTOR ( 'NONE', #1033, 39.37007874015748143 ) ;
#648 = VERTEX_POINT ( 'NONE', #8 ) ;
#649 = AXIS2_PLACEMENT_3D ( 'NONE', #32, #606, #1037 ) ;
#650 = DIRECTION ( 'NONE',  ( 0.4897172662270175558, 0.000000000000000000, 0.8718812987781859869 ) ) ;
#651 = VECTOR ( 'NONE', #738, 39.37007874015748143 ) ;
#652 = DIRECTION ( 'NONE',  ( 0.000000000000000000, 0.000000000000000000, 1.000000000000000000 ) ) ;
#653 = ORIENTED_EDGE ( 'NONE', *, *, #319, .T. ) ;
#654 = DIRECTION ( 'NONE',  ( 0.000000000000000000, -1.000000000000000000, 0.000000000000000000 ) ) ;
#655 = DIRECTION ( 'NONE',  ( 0.000000000000000000, 0.000000000000000000, -1.000000000000000000 ) ) ;
#656 = DIRECTION ( 'NONE',  ( -0.000000000000000000, -0.000000000000000000, -1.000000000000000000 ) ) ;
#657 = DIRECTION ( 'NONE',  ( 0.4897172662270168342, 0.000000000000000000, -0.8718812987781863200 ) ) ;
#658 = DIRECTION ( 'NONE',  ( 1.000000000000000000, 0.000000000000000000, -0.000000000000000000 ) ) ;
#659 = EDGE_CURVE ( 'NONE', #99, #365, #923, .T. ) ;
#660 = ORIENTED_EDGE ( 'NONE', *, *, #170, .T. ) ;
#661 = LINE ( 'NONE', #2, #112 ) ;
#662 = DIRECTION ( 'NONE',  ( 1.000000000000000000, 0.000000000000000000, -0.000000000000000000 ) ) ;
#663 = CARTESIAN_POINT ( 'NONE',  ( 0.000000000000000000, 0.000000000000000000, -0.4299999999999999933 ) ) ;
#664 = EDGE_LOOP ( 'NONE', ( #713, #299, #137, #262 ) ) ;
#665 = DIRECTION ( 'NONE',  ( -0.000000000000000000, -0.000000000000000000, 1.000000000000000000 ) ) ;
#666 = CARTESIAN_POINT ( 'NONE',  ( -0.7187500000000001110, 4.321749999999999758, -0.4299999999999999378 ) ) ;
#667 = CIRCLE ( 'NONE', #609, 0.2249999999999999778 ) ;
#668 = UNCERTAINTY_MEASURE_WITH_UNIT (LENGTH_MEASURE( 1.000000000000000082E-05 ), #709, 'distance_accuracy_value', 'NONE');
#669 = CIRCLE ( 'NONE', #374, 0.2187500000000000278 ) ;
#670 = DIRECTION ( 'NONE',  ( 0.4897172662270168342, 0.000000000000000000, 0.8718812987781863200 ) ) ;
#671 = AXIS2_PLACEMENT_3D ( 'NONE', #795, #645, #711 ) ;
#672 = CARTESIAN_POINT ( 'NONE',  ( -0.5000000000000001110, 0.3982499999999997708, -0.1799999999999999378 ) ) ;
#673 = ORIENTED_EDGE ( 'NONE', *, *, #144, .F. ) ;
#674 = DIRECTION ( 'NONE',  ( 0.000000000000000000, 1.000000000000000000, 0.000000000000000000 ) ) ;
#675 = CARTESIAN_POINT ( 'NONE',  ( -0.6330000000000000071, 4.321749999999999758, -0.1799999999999999378 ) ) ;
#676 = EDGE_CURVE ( 'NONE', #141, #554, #393, .T. ) ;
#677 = LINE ( 'NONE', #248, #407 ) ;
#678 = ORIENTED_EDGE ( 'NONE', *, *, #1043, .T. ) ;
#679 = DIRECTION ( 'NONE',  ( 0.4897172662270168342, 0.000000000000000000, 0.8718812987781863200 ) ) ;
#680 = CARTESIAN_POINT ( 'NONE',  ( -1.365923996832131609E-17, 2.359999999999999876, -0.1000000000000000056 ) ) ;
#681 = DIRECTION ( 'NONE',  ( 1.000000000000000000, 0.000000000000000000, 0.000000000000000000 ) ) ;
#682 = ORIENTED_EDGE ( 'NONE', *, *, #1026, .T. ) ;
#683 = ORIENTED_EDGE ( 'NONE', *, *, #127, .F. ) ;
#684 = EDGE_CURVE ( 'NONE', #886, #780, #488, .T. ) ;
#685 = VECTOR ( 'NONE', #58, 39.37007874015748143 ) ;
#686 = DIMENSIONAL_EXPONENTS ( 1.000000000000000000, 0.000000000000000000, 0.000000000000000000, 0.000000000000000000, 0.000000000000000000, 0.000000000000000000, 0.000000000000000000 ) ;
#687 = LINE ( 'NONE', #929, #647 ) ;
#688 = LINE ( 'NONE', #38, #47 ) ;
#689 = VECTOR ( 'NONE', #491, 39.37007874015748143 ) ;
#690 = EDGE_CURVE ( 'NONE', #1056, #986, #1087, .T. ) ;
#691 = ORIENTED_EDGE ( 'NONE', *, *, #49, .T. ) ;
#692 = CARTESIAN_POINT ( 'NONE',  ( -1.000000000000000000, 4.719999999999999751, -0.2974999999999998201 ) ) ;
#693 = VERTEX_POINT ( 'NONE', #939 ) ;
#694 = DIRECTION ( 'NONE',  ( 0.000000000000000000, 0.000000000000000000, 1.000000000000000000 ) ) ;
#695 = DIRECTION ( 'NONE',  ( -1.000000000000000000, 0.000000000000000000, 0.000000000000000000 ) ) ;
#696 = ORIENTED_EDGE ( 'NONE', *, *, #463, .T. ) ;
#697 = DIRECTION ( 'NONE',  ( 1.000000000000000000, 0.000000000000000000, 0.000000000000000000 ) ) ;
#698 = ADVANCED_FACE ( 'NONE', ( #916 ), #230, .F. ) ;
#699 = AXIS2_PLACEMENT_3D ( 'NONE', #474, #656, #295 ) ;
#700 = COLOUR_RGB ( '',0.7921568627450980005, 0.8196078431372548767, 0.9333333333333333481 ) ;
#701 =( GEOMETRIC_REPRESENTATION_CONTEXT ( 3 ) GLOBAL_UNCERTAINTY_ASSIGNED_CONTEXT ( ( #607 ) ) GLOBAL_UNIT_ASSIGNED_CONTEXT ( ( #347, #377, #994 ) ) REPRESENTATION_CONTEXT ( 'NONE', 'WORKASPACE' ) );
#702 = CARTESIAN_POINT ( 'NONE',  ( -0.4742655126626045825, 2.259999999999999787, 0.000000000000000000 ) ) ;
#703 = EDGE_CURVE ( 'NONE', #595, #209, #321, .T. ) ;
#704 = ORIENTED_EDGE ( 'NONE', *, *, #676, .F. ) ;
#705 = DIRECTION ( 'NONE',  ( 0.4897172662270168342, 0.000000000000000000, -0.8718812987781863200 ) ) ;
#706 = ADVANCED_FACE ( 'NONE', ( #823, #922, #103 ), #617, .F. ) ;
#707 = DIRECTION ( 'NONE',  ( -0.000000000000000000, -0.000000000000000000, -1.000000000000000000 ) ) ;
#708 = ORIENTED_EDGE ( 'NONE', *, *, #556, .F. ) ;
#709 =( CONVERSION_BASED_UNIT ( 'INCH', #93 ) LENGTH_UNIT ( ) NAMED_UNIT ( #1023 ) );
#710 = EDGE_LOOP ( 'NONE', ( #1060, #708, #722, #763, #424, #480, #879, #691, #546, #278, #373, #331, #43, #1078, #346, #260, #281, #1035 ) ) ;
#711 = DIRECTION ( 'NONE',  ( 0.000000000000000000, -0.000000000000000000, -1.000000000000000000 ) ) ;
#712 = PLANE ( 'NONE',  #268 ) ;
#713 = ORIENTED_EDGE ( 'NONE', *, *, #253, .T. ) ;
#714 = DIRECTION ( 'NONE',  ( 0.4897172662270168342, 0.000000000000000000, 0.8718812987781863200 ) ) ;
#715 = ORIENTED_EDGE ( 'NONE', *, *, #889, .T. ) ;
#716 = FACE_OUTER_BOUND ( 'NONE', #990, .T. ) ;
#717 = EDGE_CURVE ( 'NONE', #158, #633, #669, .T. ) ;
#718 = FACE_OUTER_BOUND ( 'NONE', #435, .T. ) ;
#719 = AXIS2_PLACEMENT_3D ( 'NONE', #1088, #934, #225 ) ;
#720 = CARTESIAN_POINT ( 'NONE',  ( -0.8329005486105710565, 2.459999999999999964, 0.000000000000000000 ) ) ;
#721 = ADVANCED_FACE ( 'NONE', ( #875 ), #784, .F. ) ;
#722 = ORIENTED_EDGE ( 'NONE', *, *, #319, .F. ) ;
#723 = ORIENTED_EDGE ( 'NONE', *, *, #1009, .T. ) ;
#724 = CYLINDRICAL_SURFACE ( 'NONE', #302, 0.1329999999999999793 ) ;
#725 = ORIENTED_EDGE ( 'NONE', *, *, #220, .F. ) ;
#726 = ORIENTED_EDGE ( 'NONE', *, *, #837, .T. ) ;
#727 = DIRECTION ( 'NONE',  ( 1.365923996832131609E-16, -0.000000000000000000, 1.000000000000000000 ) ) ;
#728 = DIRECTION ( 'NONE',  ( -0.000000000000000000, -0.000000000000000000, -1.000000000000000000 ) ) ;
#729 = ORIENTED_EDGE ( 'NONE', *, *, #168, .T. ) ;
#730 = PLANE ( 'NONE',  #442 ) ;
#731 = CARTESIAN_POINT ( 'NONE',  ( -0.7935830306365878606, 2.259999999999999787, 0.07000000000000000666 ) ) ;
#732 = ADVANCED_FACE ( 'NONE', ( #276 ), #972, .F. ) ;
#733 = CIRCLE ( 'NONE', #719, 0.2187500000000000278 ) ;
#734 = EDGE_LOOP ( 'NONE', ( #740, #252, #873, #447 ) ) ;
#735 = CARTESIAN_POINT ( 'NONE',  ( -0.8329005486105710565, 2.259999999999999787, 0.000000000000000000 ) ) ;
#736 = STYLED_ITEM ( 'NONE', ( #1054 ), #530 ) ;
#737 = FACE_OUTER_BOUND ( 'NONE', #529, .T. ) ;
#738 = DIRECTION ( 'NONE',  ( 0.000000000000000000, 1.000000000000000000, 0.000000000000000000 ) ) ;
#739 = ADVANCED_FACE ( 'NONE', ( #862 ), #11, .F. ) ;
#740 = ORIENTED_EDGE ( 'NONE', *, *, #412, .F. ) ;
#741 = DIRECTION ( 'NONE',  ( -1.000000000000000000, 0.000000000000000000, 0.000000000000000000 ) ) ;
#742 = DIRECTION ( 'NONE',  ( 0.000000000000000000, -0.000000000000000000, -1.000000000000000000 ) ) ;
#743 = DIRECTION ( 'NONE',  ( -0.000000000000000000, -0.000000000000000000, -1.000000000000000000 ) ) ;
#744 = ORIENTED_EDGE ( 'NONE', *, *, #703, .F. ) ;
#745 = CARTESIAN_POINT ( 'NONE',  ( -0.5135830306365878339, 1.387000000000000011, 0.07000000000000000666 ) ) ;
#746 = CARTESIAN_POINT ( 'NONE',  ( -0.5000000000000001110, 4.321749999999999758, -0.4299999999999999378 ) ) ;
#747 = CARTESIAN_POINT ( 'NONE',  ( -0.5135830306365878339, 1.186999999999999833, 0.07000000000000000666 ) ) ;
#748 = ADVANCED_FACE ( 'NONE', ( #280 ), #712, .F. ) ;
#749 = EDGE_LOOP ( 'NONE', ( #438, #704, #68, #725 ) ) ;
#750 = CIRCLE ( 'NONE', #267, 0.1329999999999999793 ) ;
#751 = EDGE_CURVE ( 'NONE', #620, #42, #548, .T. ) ;
#752 = CARTESIAN_POINT ( 'NONE',  ( -0.7187500000000001110, 0.3982499999999997708, -0.4299999999999999378 ) ) ;
#753 = CARTESIAN_POINT ( 'NONE',  ( -0.7935830306365878606, 2.259999999999999787, 0.07000000000000000666 ) ) ;
#754 = AXIS2_PLACEMENT_3D ( 'NONE', #92, #908, #815 ) ;
#755 = VECTOR ( 'NONE', #1040, 39.37007874015748143 ) ;
#756 = LINE ( 'NONE', #83, #628 ) ;
#757 = AXIS2_PLACEMENT_3D ( 'NONE', #240, #318, #403 ) ;
#758 = DIRECTION ( 'NONE',  ( -1.000000000000000000, 0.000000000000000000, 0.000000000000000000 ) ) ;
#759 = EDGE_LOOP ( 'NONE', ( #400, #511, #932, #266, #829, #386, #466 ) ) ;
#760 = CARTESIAN_POINT ( 'NONE',  ( -0.7935830306365878606, 2.259999999999999787, 0.07000000000000000666 ) ) ;
#761 = CARTESIAN_POINT ( 'NONE',  ( -0.8329005486105710565, 4.719999999999999751, 0.000000000000000000 ) ) ;
#762 = LINE ( 'NONE', #855, #271 ) ;
#763 = ORIENTED_EDGE ( 'NONE', *, *, #889, .F. ) ;
#764 = CARTESIAN_POINT ( 'NONE',  ( -0.2812500000000000555, 0.3982499999999997708, -0.4299999999999999378 ) ) ;
#765 = ORIENTED_EDGE ( 'NONE', *, *, #1006, .T. ) ;
#766 = DIRECTION ( 'NONE',  ( -1.000000000000000000, 0.000000000000000000, 0.000000000000000000 ) ) ;
#767 = EDGE_CURVE ( 'NONE', #1056, #1066, #409, .T. ) ;
#768 = VERTEX_POINT ( 'NONE', #450 ) ;
#769 = VECTOR ( 'NONE', #566, 39.37007874015748143 ) ;
#770 = CARTESIAN_POINT ( 'NONE',  ( 0.000000000000000000, 2.359999999999999876, 0.000000000000000000 ) ) ;
#771 = MECHANICAL_DESIGN_GEOMETRIC_PRESENTATION_REPRESENTATION (  '', ( #736 ), #867 ) ;
#772 = AXIS2_PLACEMENT_3D ( 'NONE', #956, #850, #931 ) ;
#773 = CARTESIAN_POINT ( 'NONE',  ( -0.8329005486105710565, 1.387000000000000011, 0.000000000000000000 ) ) ;
#774 = EDGE_CURVE ( 'NONE', #868, #542, #121, .T. ) ;
#775 = ORIENTED_EDGE ( 'NONE', *, *, #431, .F. ) ;
#776 = CARTESIAN_POINT ( 'NONE',  ( -0.4742655126626045825, 1.186999999999999833, 0.000000000000000000 ) ) ;
#777 = EDGE_LOOP ( 'NONE', ( #96, #296 ) ) ;
#778 = CARTESIAN_POINT ( 'NONE',  ( -0.7935830306365878606, 2.259999999999999787, 0.07000000000000000666 ) ) ;
#779 = LINE ( 'NONE', #773, #755 ) ;
#780 = VERTEX_POINT ( 'NONE', #641 ) ;
#781 = PLANE ( 'NONE',  #1015 ) ;
#782 = EDGE_LOOP ( 'NONE', ( #561, #809, #625, #464 ) ) ;
#783 = CARTESIAN_POINT ( 'NONE',  ( 0.000000000000000000, 2.734999999999999432, -0.1000000000000000056 ) ) ;
#784 = CYLINDRICAL_SURFACE ( 'NONE', #611, 0.2187500000000000278 ) ;
#785 = SURFACE_STYLE_FILL_AREA ( #863 ) ;
#786 = ORIENTED_EDGE ( 'NONE', *, *, #703, .T. ) ;
#787 = DIRECTION ( 'NONE',  ( 0.000000000000000000, 1.000000000000000000, 0.000000000000000000 ) ) ;
#788 = AXIS2_PLACEMENT_3D ( 'NONE', #770, #256, #171 ) ;
#789 = AXIS2_PLACEMENT_3D ( 'NONE', #242, #1014, #337 ) ;
#790 = AXIS2_PLACEMENT_3D ( 'NONE', #672, #404, #147 ) ;
#791 = ORIENTED_EDGE ( 'NONE', *, *, #885, .F. ) ;
#792 = LINE ( 'NONE', #1042, #900 ) ;
#793 = VERTEX_POINT ( 'NONE', #720 ) ;
#794 = CARTESIAN_POINT ( 'NONE',  ( 0.000000000000000000, 2.584999999999999964, 0.000000000000000000 ) ) ;
#795 = CARTESIAN_POINT ( 'NONE',  ( 0.000000000000000000, 3.533000000000000362, 0.000000000000000000 ) ) ;
#796 = ORIENTED_EDGE ( 'NONE', *, *, #71, .F. ) ;
#797 = EDGE_CURVE ( 'NONE', #822, #886, #989, .T. ) ;
#798 = CARTESIAN_POINT ( 'NONE',  ( -0.3670000000000002149, 4.321749999999999758, 0.000000000000000000 ) ) ;
#799 = ORIENTED_EDGE ( 'NONE', *, *, #110, .F. ) ;
#800 = DIRECTION ( 'NONE',  ( -0.000000000000000000, -0.000000000000000000, -1.000000000000000000 ) ) ;
#801 = DIRECTION ( 'NONE',  ( 0.000000000000000000, 1.000000000000000000, -0.000000000000000000 ) ) ;
#802 = ORIENTED_EDGE ( 'NONE', *, *, #279, .F. ) ;
#803 = VERTEX_POINT ( 'NONE', #896 ) ;
#804 = DIRECTION ( 'NONE',  ( 1.000000000000000000, 0.000000000000000000, 0.000000000000000000 ) ) ;
#805 = VECTOR ( 'NONE', #120, 39.37007874015748143 ) ;
#806 = VECTOR ( 'NONE', #396, 39.37007874015748143 ) ;
#807 = EDGE_LOOP ( 'NONE', ( #963, #954, #944, #888 ) ) ;
#808 = CARTESIAN_POINT ( 'NONE',  ( 0.000000000000000000, 2.359999999999999876, 0.000000000000000000 ) ) ;
#809 = ORIENTED_EDGE ( 'NONE', *, *, #124, .F. ) ;
#810 = DIRECTION ( 'NONE',  ( 1.000000000000000000, 0.000000000000000000, -0.000000000000000000 ) ) ;
#811 = ORIENTED_EDGE ( 'NONE', *, *, #797, .F. ) ;
#812 = CYLINDRICAL_SURFACE ( 'NONE', #580, 0.2249999999999999778 ) ;
#813 = ADVANCED_FACE ( 'NONE', ( #457 ), #53, .F. ) ;
#814 = VERTEX_POINT ( 'NONE', #560 ) ;
#815 = DIRECTION ( 'NONE',  ( 0.000000000000000000, 0.000000000000000000, 1.000000000000000000 ) ) ;
#816 = EDGE_LOOP ( 'NONE', ( #105, #74 ) ) ;
#817 = CARTESIAN_POINT ( 'NONE',  ( 0.000000000000000000, 3.333000000000000185, 0.000000000000000000 ) ) ;
#818 = CARTESIAN_POINT ( 'NONE',  ( -1.000000000000000000, 0.000000000000000000, -0.2974999999999998201 ) ) ;
#819 = DIRECTION ( 'NONE',  ( -1.000000000000000000, 0.000000000000000000, 0.000000000000000000 ) ) ;
#820 = EDGE_CURVE ( 'NONE', #247, #51, #133, .T. ) ;
#821 = VECTOR ( 'NONE', #16, 39.37007874015748143 ) ;
#822 = VERTEX_POINT ( 'NONE', #937 ) ;
#823 = FACE_BOUND ( 'NONE', #816, .T. ) ;
#824 = AXIS2_PLACEMENT_3D ( 'NONE', #534, #599, #87 ) ;
#825 = DIRECTION ( 'NONE',  ( -1.000000000000000000, -0.000000000000000000, -0.000000000000000000 ) ) ;
#826 = CARTESIAN_POINT ( 'NONE',  ( -1.000000000000000000, 0.000000000000000000, -0.4299999999999998268 ) ) ;
#827 = CARTESIAN_POINT ( 'NONE',  ( -0.5135830306365878339, 3.333000000000000185, 0.07000000000000000666 ) ) ;
#828 = DIRECTION ( 'NONE',  ( -0.000000000000000000, -0.000000000000000000, -1.000000000000000000 ) ) ;
#829 = ORIENTED_EDGE ( 'NONE', *, *, #453, .T. ) ;
#830 = CARTESIAN_POINT ( 'NONE',  ( -0.8329005486105710565, 3.533000000000000362, 0.000000000000000000 ) ) ;
#831 = DIRECTION ( 'NONE',  ( -0.000000000000000000, 1.000000000000000000, 0.000000000000000000 ) ) ;
#832 = VERTEX_POINT ( 'NONE', #942 ) ;
#833 = DIRECTION ( 'NONE',  ( -1.000000000000000000, -0.000000000000000000, -0.000000000000000000 ) ) ;
#834 = LINE ( 'NONE', #397, #501 ) ;
#835 = FACE_BOUND ( 'NONE', #379, .T. ) ;
#837 = EDGE_CURVE ( 'NONE', #832, #209, #307, .T. ) ;
#836 = PRODUCT_CONTEXT ( 'NONE', #866, 'mechanical' ) ;
#838 = EDGE_LOOP ( 'NONE', ( #1053, #870, #765, #602 ) ) ;
#839 = DIRECTION ( 'NONE',  ( 0.000000000000000000, -0.000000000000000000, -1.000000000000000000 ) ) ;
#840 = CARTESIAN_POINT ( 'NONE',  ( -0.7935830306365878606, 1.186999999999999833, 0.07000000000000000666 ) ) ;
#841 = DIRECTION ( 'NONE',  ( 0.4897172662270168342, -0.000000000000000000, -0.8718812987781863200 ) ) ;
#842 = CARTESIAN_POINT ( 'NONE',  ( -0.7187500000000001110, 0.3982499999999997708, -0.4299999999999999378 ) ) ;
#843 = ADVANCED_FACE ( 'NONE', ( #835, #157 ), #84, .F. ) ;
#844 = DIRECTION ( 'NONE',  ( -0.000000000000000000, -0.000000000000000000, -1.000000000000000000 ) ) ;
#845 = VERTEX_POINT ( 'NONE', #1083 ) ;
#846 = DIRECTION ( 'NONE',  ( 1.000000000000000000, 0.000000000000000000, 0.000000000000000000 ) ) ;
#847 = CIRCLE ( 'NONE', #197, 0.1329999999999999793 ) ;
#848 = VECTOR ( 'NONE', #401, 39.37007874015748143 ) ;
#849 = ADVANCED_FACE ( 'NONE', ( #152 ), #73, .T. ) ;
#850 = DIRECTION ( 'NONE',  ( 0.000000000000000000, 0.000000000000000000, 1.000000000000000000 ) ) ;
#851 = DIRECTION ( 'NONE',  ( -1.000000000000000000, 0.000000000000000000, 1.365923996832131609E-16 ) ) ;
#852 = EDGE_CURVE ( 'NONE', #51, #294, #949, .T. ) ;
#853 = DIRECTION ( 'NONE',  ( -0.000000000000000000, -0.000000000000000000, -1.000000000000000000 ) ) ;
#854 = CYLINDRICAL_SURFACE ( 'NONE', #305, 0.2187500000000000278 ) ;
#855 = CARTESIAN_POINT ( 'NONE',  ( -0.8329005486105710565, 1.186999999999999833, 0.000000000000000000 ) ) ;
#856 = EDGE_CURVE ( 'NONE', #814, #968, #479, .T. ) ;
#857 = DIRECTION ( 'NONE',  ( 0.000000000000000000, -1.000000000000000000, 0.000000000000000000 ) ) ;
#858 = ADVANCED_FACE ( 'NONE', ( #1007 ), #327, .F. ) ;
#859 = DIRECTION ( 'NONE',  ( 1.000000000000000000, 0.000000000000000000, 0.000000000000000000 ) ) ;
#860 = DIRECTION ( 'NONE',  ( 1.365923996832131609E-16, -0.000000000000000000, 1.000000000000000000 ) ) ;
#861 = ORIENTED_EDGE ( 'NONE', *, *, #207, .F. ) ;
#862 = FACE_OUTER_BOUND ( 'NONE', #459, .T. ) ;
#863 = FILL_AREA_STYLE ('',( #106 ) ) ;
#864 = AXIS2_PLACEMENT_3D ( 'NONE', #139, #316, #662 ) ;
#865 = PLANE ( 'NONE',  #12 ) ;
#866 = APPLICATION_CONTEXT ( 'automotive_design' ) ;
#867 =( GEOMETRIC_REPRESENTATION_CONTEXT ( 3 ) GLOBAL_UNCERTAINTY_ASSIGNED_CONTEXT ( ( #668 ) ) GLOBAL_UNIT_ASSIGNED_CONTEXT ( ( #709, #89, #555 ) ) REPRESENTATION_CONTEXT ( 'NONE', 'WORKASPACE' ) );
#868 = VERTEX_POINT ( 'NONE', #573 ) ;
#869 = CARTESIAN_POINT ( 'NONE',  ( -0.3670000000000002149, 0.3982499999999997708, 0.000000000000000000 ) ) ;
#870 = ORIENTED_EDGE ( 'NONE', *, *, #19, .F. ) ;
#871 = LINE ( 'NONE', #975, #980 ) ;
#872 = CARTESIAN_POINT ( 'NONE',  ( -0.4742655126626045825, 1.387000000000000011, 0.000000000000000000 ) ) ;
#873 = ORIENTED_EDGE ( 'NONE', *, *, #4, .T. ) ;
#874 = EDGE_CURVE ( 'NONE', #986, #50, #982, .T. ) ;
#875 = FACE_OUTER_BOUND ( 'NONE', #734, .T. ) ;
#876 = EDGE_LOOP ( 'NONE', ( #371, #1051, #696, #903 ) ) ;
#877 = LINE ( 'NONE', #523, #234 ) ;
#878 = CARTESIAN_POINT ( 'NONE',  ( -1.000000000000000000, 4.719999999999999751, -0.2974999999999998201 ) ) ;
#879 = ORIENTED_EDGE ( 'NONE', *, *, #549, .F. ) ;
#880 =( LENGTH_UNIT ( ) NAMED_UNIT ( * ) SI_UNIT ( $, .METRE. ) );
#881 = CARTESIAN_POINT ( 'NONE',  ( -0.8329005486105710565, 0.000000000000000000, 0.000000000000000000 ) ) ;
#882 = AXIS2_PLACEMENT_3D ( 'NONE', #406, #1018, #741 ) ;
#883 = VECTOR ( 'NONE', #714, 39.37007874015748854 ) ;
#884 = AXIS2_PLACEMENT_3D ( 'NONE', #918, #828, #67 ) ;
#885 = EDGE_CURVE ( 'NONE', #768, #426, #762, .T. ) ;
#886 = VERTEX_POINT ( 'NONE', #437 ) ;
#887 = DIRECTION ( 'NONE',  ( -1.000000000000000000, -0.000000000000000000, -0.000000000000000000 ) ) ;
#888 = ORIENTED_EDGE ( 'NONE', *, *, #127, .T. ) ;
#889 = EDGE_CURVE ( 'NONE', #620, #967, #533, .T. ) ;
#890 = DIRECTION ( 'NONE',  ( -0.000000000000000000, -0.000000000000000000, -1.000000000000000000 ) ) ;
#891 = ORIENTED_EDGE ( 'NONE', *, *, #579, .F. ) ;
#892 = DIRECTION ( 'NONE',  ( 0.000000000000000000, 1.000000000000000000, 0.000000000000000000 ) ) ;
#893 = ORIENTED_EDGE ( 'NONE', *, *, #207, .T. ) ;
#894 = DIRECTION ( 'NONE',  ( -0.000000000000000000, -0.000000000000000000, -1.000000000000000000 ) ) ;
#895 = DIRECTION ( 'NONE',  ( -0.000000000000000000, -0.000000000000000000, -1.000000000000000000 ) ) ;
#896 = CARTESIAN_POINT ( 'NONE',  ( -0.4742655126626045825, 2.459999999999999964, 0.000000000000000000 ) ) ;
#897 = ORIENTED_EDGE ( 'NONE', *, *, #690, .F. ) ;
#898 = VERTEX_POINT ( 'NONE', #335 ) ;
#899 = VECTOR ( 'NONE', #1048, 39.37007874015748143 ) ;
#900 = VECTOR ( 'NONE', #345, 39.37007874015748143 ) ;
#901 = DIRECTION ( 'NONE',  ( 0.000000000000000000, 0.000000000000000000, -1.000000000000000000 ) ) ;
#902 = VECTOR ( 'NONE', #610, 39.37007874015748143 ) ;
#903 = ORIENTED_EDGE ( 'NONE', *, *, #958, .T. ) ;
#904 = CARTESIAN_POINT ( 'NONE',  ( 0.000000000000000000, 2.134999999999999787, -0.4299999999999999933 ) ) ;
#905 = ORIENTED_EDGE ( 'NONE', *, *, #49, .F. ) ;
#906 = DIRECTION ( 'NONE',  ( -1.000000000000000000, 0.000000000000000000, 0.000000000000000000 ) ) ;
#907 = DIRECTION ( 'NONE',  ( -0.000000000000000000, -0.000000000000000000, -1.000000000000000000 ) ) ;
#908 = DIRECTION ( 'NONE',  ( -1.000000000000000000, 0.000000000000000000, 0.000000000000000000 ) ) ;
#909 = ADVANCED_FACE ( 'NONE', ( #429, #518 ), #354, .F. ) ;
#910 = EDGE_LOOP ( 'NONE', ( #557, #56, #328, #320 ) ) ;
#911 = LINE ( 'NONE', #735, #219 ) ;
#912 = PLANE ( 'NONE',  #864 ) ;
#913 = CARTESIAN_POINT ( 'NONE',  ( -0.2812500000000000555, 0.3982499999999997708, -0.4299999999999999378 ) ) ;
#914 = LINE ( 'NONE', #390, #651 ) ;
#915 = VERTEX_POINT ( 'NONE', #10 ) ;
#916 = FACE_OUTER_BOUND ( 'NONE', #876, .T. ) ;
#917 = DIRECTION ( 'NONE',  ( 1.000000000000000000, 0.000000000000000000, 0.000000000000000000 ) ) ;
#918 = CARTESIAN_POINT ( 'NONE',  ( -0.5000000000000001110, 4.321749999999999758, -0.1799999999999999378 ) ) ;
#919 = ADVANCED_FACE ( 'NONE', ( #971, #340, #275 ), #527, .F. ) ;
#920 = CIRCLE ( 'NONE', #1062, 0.2249999999999999778 ) ;
#921 = ORIENTED_EDGE ( 'NONE', *, *, #142, .T. ) ;
#922 = FACE_BOUND ( 'NONE', #229, .T. ) ;
#923 = CIRCLE ( 'NONE', #789, 0.2187500000000000278 ) ;
#924 = FACE_OUTER_BOUND ( 'NONE', #838, .T. ) ;
#925 = VECTOR ( 'NONE', #241, 39.37007874015748854 ) ;
#926 = PLANE ( 'NONE',  #1063 ) ;
#927 = ORIENTED_EDGE ( 'NONE', *, *, #684, .F. ) ;
#928 = EDGE_CURVE ( 'NONE', #938, #637, #779, .T. ) ;
#929 = CARTESIAN_POINT ( 'NONE',  ( -0.8329005486105710565, 4.719999999999999751, 0.000000000000000000 ) ) ;
#930 = DIRECTION ( 'NONE',  ( 1.000000000000000000, 0.000000000000000000, -0.000000000000000000 ) ) ;
#931 = DIRECTION ( 'NONE',  ( 1.000000000000000000, 0.000000000000000000, 0.000000000000000000 ) ) ;
#932 = ORIENTED_EDGE ( 'NONE', *, *, #45, .T. ) ;
#933 = CARTESIAN_POINT ( 'NONE',  ( -0.2249999999999999778, 2.359999999999999876, 3.073328992872296121E-17 ) ) ;
#934 = DIRECTION ( 'NONE',  ( -0.000000000000000000, -0.000000000000000000, -1.000000000000000000 ) ) ;
#935 = LINE ( 'NONE', #747, #806 ) ;
#936 = LINE ( 'NONE', #156, #689 ) ;
#937 = CARTESIAN_POINT ( 'NONE',  ( -0.8329005486105710565, 3.333000000000000185, 0.000000000000000000 ) ) ;
#938 = VERTEX_POINT ( 'NONE', #604 ) ;
#939 = CARTESIAN_POINT ( 'NONE',  ( -1.000000000000000000, 0.000000000000000000, -0.2974999999999998201 ) ) ;
#940 = FACE_OUTER_BOUND ( 'NONE', #122, .T. ) ;
#941 = DIRECTION ( 'NONE',  ( 0.4897172662270175558, 0.000000000000000000, 0.8718812987781859869 ) ) ;
#942 = CARTESIAN_POINT ( 'NONE',  ( -0.5135830306365878339, 2.259999999999999787, 0.07000000000000000666 ) ) ;
#943 = PRODUCT_DEFINITION_SHAPE ( 'NONE', 'NONE',  #503 ) ;
#944 = ORIENTED_EDGE ( 'NONE', *, *, #510, .F. ) ;
#945 = EDGE_CURVE ( 'NONE', #1041, #638, #358, .T. ) ;
#946 = LINE ( 'NONE', #933, #848 ) ;
#947 = VECTOR ( 'NONE', #76, 39.37007874015748143 ) ;
#948 = VECTOR ( 'NONE', #846, 39.37007874015748143 ) ;
#949 = CIRCLE ( 'NONE', #790, 0.1329999999999999793 ) ;
#950 = CARTESIAN_POINT ( 'NONE',  ( -0.5000000000000001110, 4.321749999999999758, -0.1799999999999999378 ) ) ;
#951 = CARTESIAN_POINT ( 'NONE',  ( 0.000000000000000000, 2.134999999999999787, 0.000000000000000000 ) ) ;
#952 = EDGE_CURVE ( 'NONE', #550, #493, #1044, .T. ) ;
#953 = FACE_OUTER_BOUND ( 'NONE', #433, .T. ) ;
#954 = ORIENTED_EDGE ( 'NONE', *, *, #856, .F. ) ;
#955 = CARTESIAN_POINT ( 'NONE',  ( -0.8329005486105710565, 1.186999999999999833, 0.000000000000000000 ) ) ;
#956 = CARTESIAN_POINT ( 'NONE',  ( 0.000000000000000000, 0.000000000000000000, 0.000000000000000000 ) ) ;
#957 = CARTESIAN_POINT ( 'NONE',  ( 0.000000000000000000, 4.719999999999999751, -0.4299999999999999933 ) ) ;
#958 = EDGE_CURVE ( 'NONE', #642, #938, #183, .T. ) ;
#959 = ORIENTED_EDGE ( 'NONE', *, *, #1039, .T. ) ;
#960 = DIRECTION ( 'NONE',  ( -1.000000000000000000, -0.000000000000000000, -0.000000000000000000 ) ) ;
#961 = CARTESIAN_POINT ( 'NONE',  ( -0.5000000000000001110, 0.3982499999999997708, -0.4299999999999999378 ) ) ;
#962 = ADVANCED_FACE ( 'NONE', ( #194 ), #441, .F. ) ;
#963 = ORIENTED_EDGE ( 'NONE', *, *, #549, .T. ) ;
#964 = CIRCLE ( 'NONE', #882, 0.2187500000000000278 ) ;
#965 = FACE_OUTER_BOUND ( 'NONE', #381, .T. ) ;
#966 = ADVANCED_FACE ( 'NONE', ( #718 ), #298, .F. ) ;
#967 = VERTEX_POINT ( 'NONE', #40 ) ;
#968 = VERTEX_POINT ( 'NONE', #635 ) ;
#969 = ORIENTED_EDGE ( 'NONE', *, *, #45, .F. ) ;
#970 = CARTESIAN_POINT ( 'NONE',  ( -0.8329005486105710565, 2.459999999999999964, 0.000000000000000000 ) ) ;
#971 = FACE_BOUND ( 'NONE', #777, .T. ) ;
#972 = CYLINDRICAL_SURFACE ( 'NONE', #824, 0.3749999999999999445 ) ;
#973 = ORIENTED_EDGE ( 'NONE', *, *, #659, .T. ) ;
#974 = ORIENTED_EDGE ( 'NONE', *, *, #463, .F. ) ;
#975 = CARTESIAN_POINT ( 'NONE',  ( -0.8329005486105710565, 4.719999999999999751, 0.000000000000000000 ) ) ;
#976 = CARTESIAN_POINT ( 'NONE',  ( -0.5000000000000001110, 4.321749999999999758, 0.000000000000000000 ) ) ;
#977 = EDGE_CURVE ( 'NONE', #158, #128, #988, .T. ) ;
#978 = ORIENTED_EDGE ( 'NONE', *, *, #201, .F. ) ;
#979 = ORIENTED_EDGE ( 'NONE', *, *, #211, .F. ) ;
#980 = VECTOR ( 'NONE', #28, 39.37007874015748143 ) ;
#981 = PRESENTATION_LAYER_ASSIGNMENT (  '', '', ( #736 ) ) ;
#982 = CIRCLE ( 'NONE', #884, 0.1329999999999999793 ) ;
#983 = VERTEX_POINT ( 'NONE', #227 ) ;
#984 = LINE ( 'NONE', #996, #46 ) ;
#985 = EDGE_CURVE ( 'NONE', #365, #99, #132, .T. ) ;
#986 = VERTEX_POINT ( 'NONE', #59 ) ;
#987 = PLANE ( 'NONE',  #498 ) ;
#988 = LINE ( 'NONE', #208, #148 ) ;
#989 = LINE ( 'NONE', #41, #1047 ) ;
#990 = EDGE_LOOP ( 'NONE', ( #726, #744, #775, #153 ) ) ;
#991 = CARTESIAN_POINT ( 'NONE',  ( -0.4742655126626045825, 3.333000000000000185, 0.000000000000000000 ) ) ;
#992 = ORIENTED_EDGE ( 'NONE', *, *, #545, .F. ) ;
#993 = DIRECTION ( 'NONE',  ( -0.000000000000000000, -0.000000000000000000, -1.000000000000000000 ) ) ;
#994 =( NAMED_UNIT ( * ) SI_UNIT ( $, .STERADIAN. ) SOLID_ANGLE_UNIT ( ) );
#995 = VERTEX_POINT ( 'NONE', #304 ) ;
#996 = CARTESIAN_POINT ( 'NONE',  ( -0.4742655126626045825, 2.459999999999999964, 0.000000000000000000 ) ) ;
#997 = ORIENTED_EDGE ( 'NONE', *, *, #385, .T. ) ;
#998 = AXIS2_PLACEMENT_3D ( 'NONE', #65, #126, #634 ) ;
#999 = EDGE_CURVE ( 'NONE', #995, #803, #914, .T. ) ;
#1000 = ORIENTED_EDGE ( 'NONE', *, *, #399, .F. ) ;
#1001 = CARTESIAN_POINT ( 'NONE',  ( -0.8329005486105710565, 3.333000000000000185, 0.000000000000000000 ) ) ;
#1002 = DIRECTION ( 'NONE',  ( 1.000000000000000000, 0.000000000000000000, 0.000000000000000000 ) ) ;
#1003 = ADVANCED_FACE ( 'NONE', ( #477 ), #1082, .T. ) ;
#1004 = VERTEX_POINT ( 'NONE', #827 ) ;
#1005 = CARTESIAN_POINT ( 'NONE',  ( -0.7935830306365878606, 1.186999999999999833, 0.07000000000000000666 ) ) ;
#1006 = EDGE_CURVE ( 'NONE', #633, #1, #834, .T. ) ;
#1007 = FACE_OUTER_BOUND ( 'NONE', #618, .T. ) ;
#1008 = ORIENTED_EDGE ( 'NONE', *, *, #1043, .F. ) ;
#1009 = EDGE_CURVE ( 'NONE', #128, #1, #114, .T. ) ;
#1010 = CARTESIAN_POINT ( 'NONE',  ( -0.8329005486105710565, 2.259999999999999787, 0.000000000000000000 ) ) ;
#1011 = CARTESIAN_POINT ( 'NONE',  ( -0.7935830306365878606, 1.186999999999999833, 0.07000000000000000666 ) ) ;
#1012 = VECTOR ( 'NONE', #182, 39.37007874015748854 ) ;
#1013 = ORIENTED_EDGE ( 'NONE', *, *, #559, .F. ) ;
#1014 = DIRECTION ( 'NONE',  ( -0.000000000000000000, -0.000000000000000000, -1.000000000000000000 ) ) ;
#1015 = AXIS2_PLACEMENT_3D ( 'NONE', #817, #654, #222 ) ;
#1016 = ORIENTED_EDGE ( 'NONE', *, *, #952, .F. ) ;
#1017 = DIRECTION ( 'NONE',  ( 0.000000000000000000, -1.000000000000000000, 0.000000000000000000 ) ) ;
#1018 = DIRECTION ( 'NONE',  ( -0.000000000000000000, -0.000000000000000000, -1.000000000000000000 ) ) ;
#1019 = LINE ( 'NONE', #596, #947 ) ;
#1020 = EDGE_LOOP ( 'NONE', ( #567, #116 ) ) ;
#1021 = DIRECTION ( 'NONE',  ( 0.000000000000000000, 0.000000000000000000, 1.000000000000000000 ) ) ;
#1022 = CARTESIAN_POINT ( 'NONE',  ( 0.000000000000000000, 0.000000000000000000, -0.4299999999999999933 ) ) ;
#1023 = DIMENSIONAL_EXPONENTS ( 1.000000000000000000, 0.000000000000000000, 0.000000000000000000, 0.000000000000000000, 0.000000000000000000, 0.000000000000000000, 0.000000000000000000 ) ;
#1024 = CARTESIAN_POINT ( 'NONE',  ( 0.000000000000000000, 1.984999999999999654, -0.1000000000000000056 ) ) ;
#1025 = PRODUCT_RELATED_PRODUCT_CATEGORY ( 'part', '', ( #646 ) ) ;
#1026 = EDGE_CURVE ( 'NONE', #54, #439, #1093, .T. ) ;
#1027 = EDGE_LOOP ( 'NONE', ( #861, #600 ) ) ;
#1028 = CARTESIAN_POINT ( 'NONE',  ( -0.3670000000000001594, 4.321749999999999758, -0.4299999999999999378 ) ) ;
#1029 = AXIS2_PLACEMENT_3D ( 'NONE', #100, #540, #705 ) ;
#1030 = LINE ( 'NONE', #753, #61 ) ;
#1031 = VECTOR ( 'NONE', #665, 39.37007874015748143 ) ;
#1032 = AXIS2_PLACEMENT_3D ( 'NONE', #312, #485, #657 ) ;
#1033 = DIRECTION ( 'NONE',  ( -0.000000000000000000, -1.000000000000000000, -0.000000000000000000 ) ) ;
#1034 = CARTESIAN_POINT ( 'NONE',  ( 0.000000000000000000, 2.359999999999999876, -0.1000000000000000056 ) ) ;
#1035 = ORIENTED_EDGE ( 'NONE', *, *, #285, .T. ) ;
#1036 = ORIENTED_EDGE ( 'NONE', *, *, #1073, .T. ) ;
#1037 = DIRECTION ( 'NONE',  ( 0.000000000000000000, -0.000000000000000000, 1.000000000000000000 ) ) ;
#1038 = LINE ( 'NONE', #778, #519 ) ;
#1039 = EDGE_CURVE ( 'NONE', #886, #1004, #936, .T. ) ;
#1040 = DIRECTION ( 'NONE',  ( -1.000000000000000000, -0.000000000000000000, -0.000000000000000000 ) ) ;
#1041 = VERTEX_POINT ( 'NONE', #842 ) ;
#1042 = CARTESIAN_POINT ( 'NONE',  ( -0.5135830306365878339, 3.333000000000000185, 0.07000000000000000666 ) ) ;
#1043 = EDGE_CURVE ( 'NONE', #832, #995, #1050, .T. ) ;
#1044 = LINE ( 'NONE', #265, #902 ) ;
#1045 = DIRECTION ( 'NONE',  ( 0.000000000000000000, -0.000000000000000000, 1.000000000000000000 ) ) ;
#1046 = VECTOR ( 'NONE', #176, 39.37007874015748143 ) ;
#1047 = VECTOR ( 'NONE', #370, 39.37007874015748854 ) ;
#1048 = DIRECTION ( 'NONE',  ( 1.000000000000000000, 0.000000000000000000, 0.000000000000000000 ) ) ;
#1049 = AXIS2_PLACEMENT_3D ( 'NONE', #245, #907, #72 ) ;
#1050 = LINE ( 'NONE', #702, #62 ) ;
#1051 = ORIENTED_EDGE ( 'NONE', *, *, #449, .T. ) ;
#1052 = ADVANCED_FACE ( 'NONE', ( #192 ), #854, .F. ) ;
#1053 = ORIENTED_EDGE ( 'NONE', *, *, #977, .F. ) ;
#1054 = PRESENTATION_STYLE_ASSIGNMENT (( #24 ) ) ;
#1055 = CARTESIAN_POINT ( 'NONE',  ( -0.6329999999999998961, 4.321749999999999758, 0.000000000000000000 ) ) ;
#1056 = VERTEX_POINT ( 'NONE', #798 ) ;
#1057 = DIRECTION ( 'NONE',  ( -0.4897172662270175558, 0.000000000000000000, -0.8718812987781859869 ) ) ;
#1058 = EDGE_CURVE ( 'NONE', #141, #108, #688, .T. ) ;
#1059 = ORIENTED_EDGE ( 'NONE', *, *, #15, .F. ) ;
#1060 = ORIENTED_EDGE ( 'NONE', *, *, #170, .F. ) ;
#1061 = DIRECTION ( 'NONE',  ( -0.000000000000000000, -0.000000000000000000, -1.000000000000000000 ) ) ;
#1062 = AXIS2_PLACEMENT_3D ( 'NONE', #569, #727, #804 ) ;
#1063 = AXIS2_PLACEMENT_3D ( 'NONE', #169, #857, #742 ) ;
#1064 = ORIENTED_EDGE ( 'NONE', *, *, #284, .F. ) ;
#1065 = FACE_OUTER_BOUND ( 'NONE', #392, .T. ) ;
#1066 = VERTEX_POINT ( 'NONE', #1055 ) ;
#1067 = CARTESIAN_POINT ( 'NONE',  ( -0.5000000000000001110, 0.3982499999999997708, -0.4299999999999999378 ) ) ;
#1068 = ORIENTED_EDGE ( 'NONE', *, *, #774, .T. ) ;
#1069 = CARTESIAN_POINT ( 'NONE',  ( -0.8329005486105710565, 3.533000000000000362, 0.000000000000000000 ) ) ;
#1070 = ORIENTED_EDGE ( 'NONE', *, *, #774, .F. ) ;
#1071 = ORIENTED_EDGE ( 'NONE', *, *, #66, .T. ) ;
#1072 = DIRECTION ( 'NONE',  ( -1.365923996832131609E-16, -0.000000000000000000, -1.000000000000000000 ) ) ;
#1073 = EDGE_CURVE ( 'NONE', #247, #521, #235, .T. ) ;
#1074 = CARTESIAN_POINT ( 'NONE',  ( -0.6330000000000000071, 0.3982499999999997708, -0.1799999999999999378 ) ) ;
#1075 = VECTOR ( 'NONE', #941, 39.37007874015748143 ) ;
#1076 = APPLICATION_CONTEXT ( 'automotive_design' ) ;
#1077 = AXIS2_PLACEMENT_3D ( 'NONE', #143, #159, #472 ) ;
#1078 = ORIENTED_EDGE ( 'NONE', *, *, #928, .F. ) ;
#1079 = DIRECTION ( 'NONE',  ( -0.000000000000000000, -0.000000000000000000, -1.000000000000000000 ) ) ;
#1080 = EDGE_CURVE ( 'NONE', #542, #141, #95, .T. ) ;
#1081 = PLANE ( 'NONE',  #131 ) ;
#1082 = PLANE ( 'NONE',  #1032 ) ;
#1083 = CARTESIAN_POINT ( 'NONE',  ( 0.000000000000000000, 2.734999999999999432, 0.000000000000000000 ) ) ;
#1085 = EDGE_CURVE ( 'NONE', #550, #108, #282, .T. ) ;
#1084 = APPLICATION_PROTOCOL_DEFINITION ( 'draft international standard', 'automotive_design', 1998, #1076 ) ;
#1086 = EDGE_LOOP ( 'NONE', ( #897, #1000, #644, #893 ) ) ;
#1087 = LINE ( 'NONE', #1028, #1099 ) ;
#1088 = CARTESIAN_POINT ( 'NONE',  ( -0.5000000000000001110, 4.321749999999999758, -0.1799999999999999378 ) ) ;
#1089 = LINE ( 'NONE', #1011, #612 ) ;
#1090 = ORIENTED_EDGE ( 'NONE', *, *, #311, .T. ) ;
#1091 = CARTESIAN_POINT ( 'NONE',  ( -0.7935830306365878606, 3.333000000000000185, 0.07000000000000000666 ) ) ;
#1092 = LINE ( 'NONE', #1001, #109 ) ;
#1093 = LINE ( 'NONE', #324, #544 ) ;
#1094 = CARTESIAN_POINT ( 'NONE',  ( -0.4742655126626045825, 3.533000000000000362, 0.000000000000000000 ) ) ;
#1095 = AXIS2_PLACEMENT_3D ( 'NONE', #69, #473, #917 ) ;
#1096 = VECTOR ( 'NONE', #650, 39.37007874015748143 ) ;
#1097 = EDGE_LOOP ( 'NONE', ( #119, #891, #564, #678 ) ) ;
#1098 = CARTESIAN_POINT ( 'NONE',  ( -0.7187500000000001110, 4.321749999999999758, -0.1799999999999999378 ) ) ;
#1099 = VECTOR ( 'NONE', #571, 39.37007874015748143 ) ;
#1100 = CARTESIAN_POINT ( 'NONE',  ( -0.5000000000000001110, 0.3982499999999997708, -0.1799999999999999378 ) ) ;
#1101 = CYLINDRICAL_SURFACE ( 'NONE', #788, 0.2249999999999999778 ) ;
ENDSEC;
END-ISO-10303-21;
